<svg width="38" height="38" viewBox="0 0 38 38" fill="none" xmlns="http://www.w3.org/2000/svg">
<g id="Button">
<g id="Rectangle 2.1" filter="url(#filter0_ii_5306_110060)">
<rect width="38" height="38" rx="19" fill="#FFCF15"/>
</g>
<g id="Icon" clip-path="url(#clip0_5306_110060)">
<g id="Group 69">
<g id="star 5" clip-path="url(#clip1_5306_110060)">
<g id="Layer 2">
<g id="star">
<g id="Vector" filter="url(#filter1_i_5306_110060)">
<path d="M23.3989 26.125C23.2723 26.1255 23.1474 26.0956 23.0347 26.0379L18.9972 23.9242L14.9597 26.0379C14.8286 26.1069 14.6808 26.1376 14.5331 26.1267C14.3854 26.1159 14.2437 26.0637 14.1241 25.9763C14.0045 25.8889 13.9119 25.7697 13.8567 25.6322C13.8015 25.4948 13.7859 25.3446 13.8118 25.1988L14.6035 20.7417L11.3418 17.575C11.2401 17.4734 11.1679 17.3461 11.133 17.2066C11.0981 17.0672 11.1019 16.9208 11.1439 16.7833C11.1898 16.6426 11.2742 16.5176 11.3876 16.4225C11.5009 16.3273 11.6386 16.2658 11.7852 16.245L16.2977 15.5879L18.2847 11.5267C18.3496 11.3928 18.4508 11.2799 18.5768 11.201C18.7028 11.122 18.8485 11.0801 18.9972 11.0801C19.146 11.0801 19.2917 11.122 19.4177 11.201C19.5437 11.2799 19.6449 11.3928 19.7097 11.5267L21.7206 15.58L26.2331 16.2371C26.3796 16.2579 26.5174 16.3194 26.6307 16.4145C26.744 16.5097 26.8284 16.6347 26.8743 16.7754C26.9163 16.9129 26.9201 17.0592 26.8852 17.1987C26.8504 17.3382 26.7782 17.4655 26.6764 17.5671L23.4147 20.7338L24.2064 25.1908C24.2347 25.3393 24.2199 25.4927 24.1638 25.6329C24.1077 25.7732 24.0126 25.8945 23.8897 25.9825C23.7464 26.083 23.5738 26.1331 23.3989 26.125V26.125Z" fill="white"/>
</g>
</g>
</g>
</g>
</g>
</g>
</g>
<defs>
<filter id="filter0_ii_5306_110060" x="0" y="-2" width="38" height="40" filterUnits="userSpaceOnUse" color-interpolation-filters="sRGB">
<feFlood flood-opacity="0" result="BackgroundImageFix"/>
<feBlend mode="normal" in="SourceGraphic" in2="BackgroundImageFix" result="shape"/>
<feColorMatrix in="SourceAlpha" type="matrix" values="0 0 0 0 0 0 0 0 0 0 0 0 0 0 0 0 0 0 127 0" result="hardAlpha"/>
<feOffset dy="-2"/>
<feGaussianBlur stdDeviation="1"/>
<feComposite in2="hardAlpha" operator="arithmetic" k2="-1" k3="1"/>
<feColorMatrix type="matrix" values="0 0 0 0 0.0550377 0 0 0 0 0.0459944 0 0 0 0 0.0552083 0 0 0 0.2 0"/>
<feBlend mode="normal" in2="shape" result="effect1_innerShadow_5306_110060"/>
<feColorMatrix in="SourceAlpha" type="matrix" values="0 0 0 0 0 0 0 0 0 0 0 0 0 0 0 0 0 0 127 0" result="hardAlpha"/>
<feOffset dy="-1"/>
<feGaussianBlur stdDeviation="2"/>
<feComposite in2="hardAlpha" operator="arithmetic" k2="-1" k3="1"/>
<feColorMatrix type="matrix" values="0 0 0 0 0 0 0 0 0 0 0 0 0 0 0 0 0 0 0.25 0"/>
<feBlend mode="normal" in2="effect1_innerShadow_5306_110060" result="effect2_innerShadow_5306_110060"/>
</filter>
<filter id="filter1_i_5306_110060" x="11.1094" y="10.0801" width="15.7969" height="16.0488" filterUnits="userSpaceOnUse" color-interpolation-filters="sRGB">
<feFlood flood-opacity="0" result="BackgroundImageFix"/>
<feBlend mode="normal" in="SourceGraphic" in2="BackgroundImageFix" result="shape"/>
<feColorMatrix in="SourceAlpha" type="matrix" values="0 0 0 0 0 0 0 0 0 0 0 0 0 0 0 0 0 0 127 0" result="hardAlpha"/>
<feOffset dy="-1"/>
<feGaussianBlur stdDeviation="0.9"/>
<feComposite in2="hardAlpha" operator="arithmetic" k2="-1" k3="1"/>
<feColorMatrix type="matrix" values="0 0 0 0 0 0 0 0 0 0 0 0 0 0 0 0 0 0 0.25 0"/>
<feBlend mode="normal" in2="shape" result="effect1_innerShadow_5306_110060"/>
</filter>
<clipPath id="clip0_5306_110060">
<rect width="19" height="19" fill="white" transform="translate(9.5 9.5)"/>
</clipPath>
<clipPath id="clip1_5306_110060">
<rect width="19" height="19" fill="white" transform="translate(9.5 9.5)"/>
</clipPath>
</defs>
</svg>
