<svg width="16" height="16" viewBox="0 0 16 16" fill="none" xmlns="http://www.w3.org/2000/svg">
<mask id="mask0_5935_258642" style="mask-type:luminance" maskUnits="userSpaceOnUse" x="1" y="1" width="15" height="14">
<path fill-rule="evenodd" clip-rule="evenodd" d="M6.3256 1.46257C6.3256 1.2071 6.5327 1 6.78817 1H9.62849C9.88396 1 10.0911 1.2071 10.0911 1.46257V3.84032H14.9541C15.2096 3.84032 15.4167 4.04742 15.4167 4.30289V7.14321C15.4167 7.39868 15.2096 7.60578 14.9541 7.60578H1.46257C1.2071 7.60578 1 7.39868 1 7.14321V4.30289C1 4.04742 1.2071 3.84032 1.46257 3.84032H6.3256V1.46257ZM7.25074 1.92513V4.30289C7.25074 4.55836 7.04364 4.76546 6.78817 4.76546H1.92513V6.68065H14.4915V4.76546H9.62849C9.37303 4.76546 9.16593 4.55836 9.16593 4.30289V1.92513H7.25074Z" fill="white"/>
<path d="M2.52734 13.5646H13.8886V7.17383H2.52734V13.5646Z" fill="white"/>
<path fill-rule="evenodd" clip-rule="evenodd" d="M2.06445 7.17448C2.06445 6.91901 2.27155 6.71191 2.52702 6.71191H13.8883C14.1438 6.71191 14.3509 6.91901 14.3509 7.17448V13.5652C14.3509 13.8207 14.1438 14.0278 13.8883 14.0278H2.52702C2.27155 14.0278 2.06445 13.8207 2.06445 13.5652V7.17448ZM2.98959 7.63705V13.1026H13.4257V7.63705H2.98959Z" fill="white"/>
<path fill-rule="evenodd" clip-rule="evenodd" d="M8.20914 10.9365C8.46461 10.9365 8.67171 11.1436 8.67171 11.3991V13.5293C8.67171 13.7848 8.46461 13.9919 8.20914 13.9919C7.95367 13.9919 7.74657 13.7848 7.74657 13.5293V11.3991C7.74657 11.1436 7.95367 10.9365 8.20914 10.9365ZM5.36882 10.9422C5.62429 10.9422 5.83138 11.1493 5.83138 11.4048V13.5293C5.83138 13.7848 5.62429 13.9919 5.36882 13.9919C5.11335 13.9919 4.90625 13.7848 4.90625 13.5293V11.4048C4.90625 11.1493 5.11335 10.9422 5.36882 10.9422ZM11.0495 10.9422C11.3049 10.9422 11.512 11.1493 11.512 11.4048V13.5293C11.512 13.7848 11.3049 13.9919 11.0495 13.9919C10.794 13.9919 10.5869 13.7848 10.5869 13.5293V11.4048C10.5869 11.1493 10.794 10.9422 11.0495 10.9422Z" fill="black"/>
<path fill-rule="evenodd" clip-rule="evenodd" d="M3.48438 13.5641C3.48438 13.3087 3.69147 13.1016 3.94694 13.1016H12.4679C12.7234 13.1016 12.9305 13.3087 12.9305 13.5641C12.9305 13.8196 12.7234 14.0267 12.4679 14.0267H3.94694C3.69147 14.0267 3.48438 13.8196 3.48438 13.5641Z" fill="white"/>
</mask>
<g mask="url(#mask0_5935_258642)">
<path d="M-0.310547 -0.637695H16.7314V16.4042H-0.310547V-0.637695Z" fill="white"/>
</g>
</svg>
