<svg viewBox="0 0 200 200" fill="none" xmlns="http://www.w3.org/2000/svg">
    <g id="Generating">
        <g id="Frame 1410066729">
            <rect width="200" height="200" />
        </g>
        <g id="Group 1410067275">
            <path id="Generating..."
                d="M72.1738 121.562C71.0488 122.198 69.7988 122.516 68.4238 122.516C66.8249 122.516 65.5306 122 64.541 120.969C63.5566 119.938 63.0645 118.573 63.0645 116.875C63.0645 115.141 63.6113 113.719 64.7051 112.609C65.804 111.495 67.1947 110.938 68.877 110.938C70.0957 110.938 71.1191 111.135 71.9473 111.531V112.984C71.041 112.411 69.9681 112.125 68.7285 112.125C67.4733 112.125 66.4447 112.557 65.6426 113.422C64.8405 114.286 64.4395 115.406 64.4395 116.781C64.4395 118.198 64.8118 119.312 65.5566 120.125C66.3014 120.932 67.3118 121.336 68.5879 121.336C69.4629 121.336 70.2207 121.161 70.8613 120.812V117.672H68.4082V116.484H72.1738V121.562ZM81.041 118.648H75.3926C75.4134 119.539 75.653 120.227 76.1113 120.711C76.5697 121.195 77.1999 121.438 78.002 121.438C78.903 121.438 79.7311 121.141 80.4863 120.547V121.75C79.7832 122.26 78.8535 122.516 77.6973 122.516C76.5671 122.516 75.679 122.154 75.0332 121.43C74.3874 120.701 74.0645 119.677 74.0645 118.359C74.0645 117.115 74.416 116.102 75.1191 115.32C75.8275 114.534 76.7051 114.141 77.752 114.141C78.7988 114.141 79.6087 114.479 80.1816 115.156C80.7546 115.833 81.041 116.773 81.041 117.977V118.648ZM79.7285 117.562C79.7233 116.823 79.5436 116.247 79.1895 115.836C78.8405 115.424 78.3535 115.219 77.7285 115.219C77.1243 115.219 76.6113 115.435 76.1895 115.867C75.7676 116.299 75.5072 116.865 75.4082 117.562H79.7285ZM89.627 122.328H88.3457V117.766C88.3457 116.068 87.7259 115.219 86.4863 115.219C85.8457 115.219 85.3145 115.461 84.8926 115.945C84.4759 116.424 84.2676 117.031 84.2676 117.766V122.328H82.9863V114.328H84.2676V115.656H84.2988C84.903 114.646 85.778 114.141 86.9238 114.141C87.7988 114.141 88.4681 114.424 88.9316 114.992C89.3952 115.555 89.627 116.37 89.627 117.438V122.328ZM98.4785 118.648H92.8301C92.8509 119.539 93.0905 120.227 93.5488 120.711C94.0072 121.195 94.6374 121.438 95.4395 121.438C96.3405 121.438 97.1686 121.141 97.9238 120.547V121.75C97.2207 122.26 96.291 122.516 95.1348 122.516C94.0046 122.516 93.1165 122.154 92.4707 121.43C91.8249 120.701 91.502 119.677 91.502 118.359C91.502 117.115 91.8535 116.102 92.5566 115.32C93.265 114.534 94.1426 114.141 95.1895 114.141C96.2363 114.141 97.0462 114.479 97.6191 115.156C98.1921 115.833 98.4785 116.773 98.4785 117.977V118.648ZM97.166 117.562C97.1608 116.823 96.9811 116.247 96.627 115.836C96.278 115.424 95.791 115.219 95.166 115.219C94.5618 115.219 94.0488 115.435 93.627 115.867C93.2051 116.299 92.9447 116.865 92.8457 117.562H97.166ZM104.596 115.625C104.372 115.453 104.049 115.367 103.627 115.367C103.08 115.367 102.622 115.625 102.252 116.141C101.887 116.656 101.705 117.359 101.705 118.25V122.328H100.424V114.328H101.705V115.977H101.736C101.919 115.414 102.197 114.977 102.572 114.664C102.947 114.346 103.367 114.188 103.83 114.188C104.163 114.188 104.419 114.224 104.596 114.297V115.625ZM111.713 122.328H110.432V121.078H110.4C109.843 122.036 109.023 122.516 107.939 122.516C107.143 122.516 106.518 122.305 106.064 121.883C105.617 121.461 105.393 120.901 105.393 120.203C105.393 118.708 106.273 117.839 108.033 117.594L110.432 117.258C110.432 115.898 109.882 115.219 108.783 115.219C107.82 115.219 106.95 115.547 106.174 116.203V114.891C106.96 114.391 107.867 114.141 108.893 114.141C110.773 114.141 111.713 115.135 111.713 117.125V122.328ZM110.432 118.281L108.502 118.547C107.908 118.63 107.46 118.779 107.158 118.992C106.856 119.201 106.705 119.573 106.705 120.109C106.705 120.5 106.843 120.82 107.119 121.07C107.4 121.315 107.773 121.438 108.236 121.438C108.872 121.438 109.395 121.216 109.807 120.773C110.223 120.326 110.432 119.76 110.432 119.078V118.281ZM117.838 122.25C117.536 122.417 117.137 122.5 116.643 122.5C115.242 122.5 114.541 121.719 114.541 120.156V115.422H113.166V114.328H114.541V112.375L115.822 111.961V114.328H117.838V115.422H115.822V119.93C115.822 120.466 115.913 120.849 116.096 121.078C116.278 121.307 116.58 121.422 117.002 121.422C117.325 121.422 117.604 121.333 117.838 121.156V122.25ZM120.205 112.297C119.976 112.297 119.781 112.219 119.619 112.062C119.458 111.906 119.377 111.708 119.377 111.469C119.377 111.229 119.458 111.031 119.619 110.875C119.781 110.714 119.976 110.633 120.205 110.633C120.439 110.633 120.637 110.714 120.799 110.875C120.965 111.031 121.049 111.229 121.049 111.469C121.049 111.698 120.965 111.893 120.799 112.055C120.637 112.216 120.439 112.297 120.205 112.297ZM120.83 122.328H119.549V114.328H120.83V122.328ZM130.064 122.328H128.783V117.766C128.783 116.068 128.163 115.219 126.924 115.219C126.283 115.219 125.752 115.461 125.33 115.945C124.913 116.424 124.705 117.031 124.705 117.766V122.328H123.424V114.328H124.705V115.656H124.736C125.34 114.646 126.215 114.141 127.361 114.141C128.236 114.141 128.906 114.424 129.369 114.992C129.833 115.555 130.064 116.37 130.064 117.438V122.328ZM139.314 121.688C139.314 124.625 137.908 126.094 135.096 126.094C134.106 126.094 133.242 125.906 132.502 125.531V124.25C133.403 124.75 134.262 125 135.08 125C137.049 125 138.033 123.953 138.033 121.859V120.984H138.002C137.393 122.005 136.476 122.516 135.252 122.516C134.257 122.516 133.455 122.161 132.846 121.453C132.242 120.74 131.939 119.784 131.939 118.586C131.939 117.227 132.265 116.146 132.916 115.344C133.572 114.542 134.468 114.141 135.604 114.141C136.682 114.141 137.481 114.573 138.002 115.438H138.033V114.328H139.314V121.688ZM138.033 118.711V117.531C138.033 116.896 137.817 116.352 137.385 115.898C136.958 115.445 136.424 115.219 135.783 115.219C134.992 115.219 134.372 115.508 133.924 116.086C133.476 116.659 133.252 117.464 133.252 118.5C133.252 119.391 133.465 120.104 133.893 120.641C134.325 121.172 134.895 121.438 135.604 121.438C136.322 121.438 136.906 121.182 137.354 120.672C137.807 120.161 138.033 119.508 138.033 118.711ZM142.354 122.5C142.114 122.5 141.908 122.414 141.736 122.242C141.57 122.07 141.486 121.865 141.486 121.625C141.486 121.385 141.57 121.18 141.736 121.008C141.908 120.831 142.114 120.742 142.354 120.742C142.598 120.742 142.807 120.831 142.979 121.008C143.15 121.18 143.236 121.385 143.236 121.625C143.236 121.865 143.15 122.07 142.979 122.242C142.807 122.414 142.598 122.5 142.354 122.5ZM145.822 122.5C145.583 122.5 145.377 122.414 145.205 122.242C145.038 122.07 144.955 121.865 144.955 121.625C144.955 121.385 145.038 121.18 145.205 121.008C145.377 120.831 145.583 120.742 145.822 120.742C146.067 120.742 146.275 120.831 146.447 121.008C146.619 121.18 146.705 121.385 146.705 121.625C146.705 121.865 146.619 122.07 146.447 122.242C146.275 122.414 146.067 122.5 145.822 122.5ZM149.291 122.5C149.051 122.5 148.846 122.414 148.674 122.242C148.507 122.07 148.424 121.865 148.424 121.625C148.424 121.385 148.507 121.18 148.674 121.008C148.846 120.831 149.051 120.742 149.291 120.742C149.536 120.742 149.744 120.831 149.916 121.008C150.088 121.18 150.174 121.385 150.174 121.625C150.174 121.865 150.088 122.07 149.916 122.242C149.744 122.414 149.536 122.5 149.291 122.5Z"
                fill="white" />
            <g id="Frame">
                <path id="Vector" d="M94.8638 97.2588H105.138V99.3136H94.8638V97.2588Z" fill="white" />
                <path id="Vector_2" d="M96.9185 101.369H103.083V103.424H96.9185V101.369Z" fill="white" />
                <path id="Vector_3"
                    d="M94.674 91.2384C93.7118 90.5046 92.9447 89.5454 92.4404 88.4454C91.9361 87.3453 91.7099 86.1382 91.7818 84.9302C91.7846 82.7512 92.6514 80.6622 94.1922 79.1214C95.733 77.5806 97.822 76.7138 100.001 76.711V74.6562C97.2771 74.6592 94.6656 75.7426 92.7395 77.6687C90.8134 79.5948 89.73 82.2063 89.7271 84.9302C89.6574 86.4228 89.9434 87.9106 90.5614 89.271C91.1794 90.6314 92.1119 91.8255 93.2818 92.7549C94.3216 93.7155 94.864 94.26 94.864 95.2042H96.9188C96.9188 93.3138 95.7784 92.2597 94.674 91.2384Z"
                    fill="white" />
                <path id="Vector_4"
                    d="M105.321 91.242C104.22 92.2611 103.083 93.3142 103.083 95.2046H105.138C105.138 94.2594 105.678 93.7149 106.715 92.7533C107.885 91.8239 108.817 90.6302 109.436 89.2703C110.055 87.9105 110.342 86.4232 110.275 84.9307H108.22C108.29 86.1396 108.062 87.3472 107.557 88.4476C107.051 89.548 106.283 90.5075 105.321 91.242Z"
                    fill="white" />
                <path id="Vector_5" d="M102.056 78.7656H112.33V80.8204H102.056V78.7656Z" fill="white" />
            </g>
        </g>
    </g>
</svg>
