<svg width="88" height="81" viewBox="0 0 88 81" fill="none" xmlns="http://www.w3.org/2000/svg">
<g id="Clear History" clip-path="url(#clip0_5192_168889)">
<g id="Group" opacity="0.57">
<g id="Group_2" opacity="0.36">
<path id="Vector" d="M67.8907 42.925L72.5801 34.327C73.1672 33.2503 73.1353 31.942 72.4967 30.8952L67.3953 22.5356C66.7564 21.4883 65.6075 20.8618 64.3818 20.8916L54.5911 21.1298C53.365 21.1597 52.2481 21.841 51.661 22.9177L46.9716 31.5156C46.3845 32.5922 46.4165 33.9005 47.0554 34.9473L52.1568 43.3071C52.7954 44.3539 53.9443 44.9804 55.1703 44.951L64.9606 44.7128C66.1867 44.683 67.3036 44.0013 67.8907 42.925Z" fill="url(#paint0_linear_5192_168889)"/>
</g>
<g id="Group_3" opacity="0.57">
<path id="Vector_2" d="M57.95 65.6143C57.8749 65.3811 57.6815 65.206 57.4421 65.1546L55.7854 64.7978C55.546 64.7459 55.2974 64.826 55.1327 65.0077L53.9954 66.2641C53.8311 66.4454 53.7763 66.701 53.8514 66.9341L54.3705 68.5473C54.4456 68.7801 54.6394 68.9556 54.8788 69.0071L56.5355 69.3639C56.7749 69.4153 57.0235 69.3353 57.1878 69.1539L58.325 67.8976C58.4893 67.7158 58.5445 67.4607 58.4694 67.2275L57.95 65.6143Z" fill="url(#paint1_linear_5192_168889)"/>
</g>
<g id="Group_4" opacity="0.57">
<path id="Vector_3" d="M35.0469 71.7783L35.8074 72.9562L37.2077 72.8865L37.8476 71.6389L37.0871 70.4609L35.6868 70.5306L35.0469 71.7783Z" fill="url(#paint2_linear_5192_168889)"/>
</g>
<g id="Group_5" opacity="0.51">
<path id="Vector_4" d="M68.196 60.6107C68.2802 60.6941 68.4026 60.7265 68.5167 60.6954L69.3639 60.4647C69.4785 60.4336 69.5672 60.3439 69.5975 60.229L69.8212 59.3801C69.8515 59.2656 69.8183 59.1436 69.734 59.0602L69.1108 58.442C69.0266 58.3586 68.9042 58.3262 68.7901 58.3573L67.9429 58.588C67.8288 58.6191 67.7396 58.7092 67.7093 58.8237L67.4856 59.6726C67.4553 59.7871 67.4885 59.9091 67.5728 59.9925L68.196 60.6107Z" fill="url(#paint3_linear_5192_168889)"/>
</g>
<g id="Group_6" opacity="0.51">
<path id="Vector_5" d="M25.545 35.3903C25.313 35.4533 25.1325 35.6351 25.0715 35.8674L24.9479 36.3359C24.8869 36.5683 24.9541 36.8155 25.1246 36.9848L25.4686 37.3258C25.6391 37.4951 25.8873 37.5603 26.1188 37.4972L26.5864 37.3698C26.8179 37.3068 26.9984 37.125 27.0598 36.8927L27.183 36.4242C27.2444 36.1919 27.1772 35.9446 27.0067 35.7753L26.6627 35.4343C26.4922 35.265 26.2441 35.1998 26.0121 35.2629L25.545 35.3903Z" fill="url(#paint4_linear_5192_168889)"/>
</g>
</g>
<rect id="Rectangle 34625754" x="17" y="15" width="66" height="66" rx="12" fill="url(#paint5_linear_5192_168889)"/>
<g id="Mask group">
<mask id="mask0_5192_168889" style="mask-type:luminance" maskUnits="userSpaceOnUse" x="33" y="31" width="36" height="33">
<g id="Group_7">
<g id="Group_8">
<path id="Vector (Stroke)" fill-rule="evenodd" clip-rule="evenodd" d="M45.6282 33C45.6282 31.8954 46.5236 31 47.6282 31H54.3632C55.4678 31 56.3632 31.8954 56.3632 33V37.735H66.9914C68.096 37.735 68.9914 38.6305 68.9914 39.735V46.4701C68.9914 47.5747 68.096 48.4701 66.9914 48.4701H35C33.8954 48.4701 33 47.5747 33 46.4701V39.735C33 38.6305 33.8954 37.735 35 37.735H45.6282V33ZM49.6282 35V39.735C49.6282 40.8396 48.7328 41.735 47.6282 41.735H37V44.4701H64.9914V41.735H54.3632C53.2587 41.735 52.3632 40.8396 52.3632 39.735V35H49.6282Z" fill="white"/>
<path id="Vector_6" d="M37.5254 61.6958H64.4656V46.542H37.5254V61.6958Z" fill="white"/>
<path id="Vector (Stroke)_2" fill-rule="evenodd" clip-rule="evenodd" d="M35.5254 46.542C35.5254 45.4374 36.4208 44.542 37.5254 44.542H64.4656C65.5701 44.542 66.4656 45.4374 66.4656 46.542V61.6958C66.4656 62.8004 65.5701 63.6958 64.4656 63.6958H37.5254C36.4208 63.6958 35.5254 62.8004 35.5254 61.6958V46.542ZM39.5254 48.542V59.6958H62.4656V48.542H39.5254Z" fill="white"/>
<path id="Vector (Stroke)_3" fill-rule="evenodd" clip-rule="evenodd" d="M50.9948 54.5596C52.0994 54.5596 52.9948 55.455 52.9948 56.5596V61.6109C52.9948 62.7154 52.0994 63.6109 50.9948 63.6109C49.8902 63.6109 48.9948 62.7154 48.9948 61.6109V56.5596C48.9948 55.455 49.8902 54.5596 50.9948 54.5596ZM44.2598 54.573C45.3643 54.573 46.2598 55.4685 46.2598 56.573V61.6109C46.2598 62.7154 45.3643 63.6109 44.2598 63.6109C43.1552 63.6109 42.2598 62.7154 42.2598 61.6109V56.573C42.2598 55.4685 43.1552 54.573 44.2598 54.573ZM57.7298 54.573C58.8344 54.573 59.7298 55.4685 59.7298 56.573V61.6109C59.7298 62.7154 58.8344 63.6109 57.7298 63.6109C56.6253 63.6109 55.7298 62.7154 55.7298 61.6109V56.573C55.7298 55.4685 56.6253 54.573 57.7298 54.573Z" fill="black"/>
<path id="Vector (Stroke)_4" fill-rule="evenodd" clip-rule="evenodd" d="M38.8926 61.6963C38.8926 60.5917 39.788 59.6963 40.8926 59.6963H61.0977C62.2023 59.6963 63.0977 60.5917 63.0977 61.6963C63.0977 62.8009 62.2023 63.6963 61.0977 63.6963H40.8926C39.788 63.6963 38.8926 62.8009 38.8926 61.6963Z" fill="white"/>
</g>
</g>
</mask>
<g mask="url(#mask0_5192_168889)">
<path id="Vector_7" d="M33 28H69V64H33V28Z" fill="url(#paint6_linear_5192_168889)"/>
</g>
</g>
<path id="Vector_8" d="M38 30C39.1046 30 40 29.1046 40 28C40 26.8954 39.1046 26 38 26C36.8954 26 36 26.8954 36 28C36 29.1046 36.8954 30 38 30Z" fill="url(#paint7_linear_5192_168889)"/>
<g id="Group_9" opacity="0.67">
<path id="Vector_9" d="M72.7077 65.0159C73.8288 65.0159 74.7376 64.1071 74.7376 62.986C74.7376 61.8649 73.8288 60.9561 72.7077 60.9561C71.5866 60.9561 70.6777 61.8649 70.6777 62.986C70.6777 64.1071 71.5866 65.0159 72.7077 65.0159Z" fill="url(#paint8_linear_5192_168889)"/>
</g>
<g id="Group_10" opacity="0.67">
<path id="Vector_10" d="M67.3549 37.4286C67.9425 37.4286 68.4188 36.9523 68.4188 36.3647C68.4188 35.7771 67.9425 35.3008 67.3549 35.3008C66.7673 35.3008 66.291 35.7771 66.291 36.3647C66.291 36.9523 66.7673 37.4286 67.3549 37.4286Z" fill="url(#paint9_linear_5192_168889)"/>
</g>
<g id="Group_11" opacity="0.67">
<path id="Vector_11" d="M45.7899 72.2283C46.5412 72.2283 47.1502 71.6193 47.1502 70.8681C47.1502 70.1168 46.5412 69.5078 45.7899 69.5078C45.0387 69.5078 44.4297 70.1168 44.4297 70.8681C44.4297 71.6193 45.0387 72.2283 45.7899 72.2283Z" fill="url(#paint10_linear_5192_168889)"/>
</g>
<path id="Vector_12" d="M87.678 7.3755L81.9688 5.82866L80.3033 0L78.7565 5.82866L73.0469 7.3755L78.7565 8.9216L80.3033 14.6311L81.9688 8.9216L87.678 7.3755Z" fill="url(#paint11_linear_5192_168889)"/>
<path id="Vector_13" d="M84.4671 15.1076L84.9426 17.3676L85.5371 15.1076L87.7972 14.6312L85.5371 14.1555L84.9426 11.8955L84.4671 14.1555L82.207 14.6312L84.4671 15.1076Z" fill="url(#paint12_linear_5192_168889)"/>
<path id="Vector_14" d="M3.09319 14.21L2.49819 16.7082L0 17.3031L2.49819 17.8977L3.09319 20.2768L3.68775 17.8977L6.18553 17.3031L3.68775 16.7082L3.09319 14.21Z" fill="url(#paint13_linear_5192_168889)"/>
<path id="Vector_15" d="M13.5633 6.4238C13.5633 5.57281 12.8733 4.88281 12.0223 4.88281C11.1713 4.88281 10.4805 5.57281 10.4805 6.4238C10.4805 7.27479 11.1713 7.96438 12.0223 7.96438C12.8733 7.96438 13.5633 7.27479 13.5633 6.4238Z" fill="url(#paint14_linear_5192_168889)"/>
<path id="Vector_16" d="M8.53441 23.3477L7.21042 29.5236L1.25391 31.0684L7.21042 32.1712L8.53441 38.3472L10.0775 32.1712L16.034 31.0684L10.0775 29.5236L8.53441 23.3477Z" fill="url(#paint15_linear_5192_168889)"/>
</g>
<defs>
<linearGradient id="paint0_linear_5192_168889" x1="112.535" y1="-166.791" x2="129.442" y2="-149.884" gradientUnits="userSpaceOnUse">
<stop offset="9.53674e-08" stop-color="#FE848A" stop-opacity="0"/>
<stop offset="0.0277777" stop-color="#FFE453" stop-opacity="0.0235"/>
<stop offset="0.638095" stop-color="white" stop-opacity="0.898"/>
</linearGradient>
<linearGradient id="paint1_linear_5192_168889" x1="136.629" y1="-264.708" x2="139.674" y2="-261.664" gradientUnits="userSpaceOnUse">
<stop offset="9.53674e-08" stop-color="#FE848A" stop-opacity="0"/>
<stop offset="0.0277777" stop-color="#FFE453" stop-opacity="0.0235"/>
<stop offset="0.638095" stop-color="white" stop-opacity="0.898"/>
</linearGradient>
<linearGradient id="paint2_linear_5192_168889" x1="51.4361" y1="-328.755" x2="53.2165" y2="-326.975" gradientUnits="userSpaceOnUse">
<stop offset="9.53674e-08" stop-color="#FE848A" stop-opacity="0"/>
<stop offset="0.0277777" stop-color="#FFE453" stop-opacity="0.0235"/>
<stop offset="0.638095" stop-color="white" stop-opacity="0.898"/>
</linearGradient>
<linearGradient id="paint3_linear_5192_168889" x1="96.776" y1="-111.954" x2="98.3228" y2="-110.407" gradientUnits="userSpaceOnUse">
<stop offset="9.53674e-08" stop-color="#FE848A" stop-opacity="0"/>
<stop offset="0.0277777" stop-color="#FFE453" stop-opacity="0.0235"/>
<stop offset="0.638095" stop-color="white" stop-opacity="0.898"/>
</linearGradient>
<linearGradient id="paint4_linear_5192_168889" x1="131.627" y1="-145.64" x2="133.118" y2="-144.149" gradientUnits="userSpaceOnUse">
<stop offset="9.53674e-08" stop-color="#FE848A" stop-opacity="0"/>
<stop offset="0.0277777" stop-color="#FFE453" stop-opacity="0.0235"/>
<stop offset="0.638095" stop-color="white" stop-opacity="0.898"/>
</linearGradient>
<linearGradient id="paint5_linear_5192_168889" x1="28.9336" y1="20.1121" x2="72.2659" y2="77.4758" gradientUnits="userSpaceOnUse">
<stop offset="0.0031746" stop-color="#FF9F99"/>
<stop offset="1" stop-color="#FB323F"/>
</linearGradient>
<linearGradient id="paint6_linear_5192_168889" x1="51" y1="28" x2="51" y2="64" gradientUnits="userSpaceOnUse">
<stop stop-color="white"/>
<stop offset="1" stop-color="#FFCCC0"/>
</linearGradient>
<linearGradient id="paint7_linear_5192_168889" x1="-118.082" y1="32.1628" x2="-113.164" y2="31.5716" gradientUnits="userSpaceOnUse">
<stop offset="9.53674e-08" stop-color="#FE848A" stop-opacity="0"/>
<stop offset="0.701587" stop-color="white" stop-opacity="0.898"/>
</linearGradient>
<linearGradient id="paint8_linear_5192_168889" x1="-370.076" y1="-83.049" x2="-365.085" y2="-83.649" gradientUnits="userSpaceOnUse">
<stop offset="9.53674e-08" stop-color="#FE848A" stop-opacity="0"/>
<stop offset="0.701587" stop-color="white" stop-opacity="0.8"/>
</linearGradient>
<linearGradient id="paint9_linear_5192_168889" x1="-342.576" y1="-87.5106" x2="-339.96" y2="-87.8251" gradientUnits="userSpaceOnUse">
<stop offset="9.53674e-08" stop-color="#FE848A" stop-opacity="0"/>
<stop offset="0.701587" stop-color="white" stop-opacity="0.8"/>
</linearGradient>
<linearGradient id="paint10_linear_5192_168889" x1="-376.481" y1="-110.296" x2="-373.136" y2="-110.698" gradientUnits="userSpaceOnUse">
<stop offset="9.53674e-08" stop-color="#FE848A" stop-opacity="0"/>
<stop offset="0.701587" stop-color="white" stop-opacity="0.8"/>
</linearGradient>
<linearGradient id="paint11_linear_5192_168889" x1="73.047" y1="7.31559" x2="87.6781" y2="7.31559" gradientUnits="userSpaceOnUse">
<stop offset="0.0031746" stop-color="#FFB799"/>
<stop offset="1" stop-color="#F8515C"/>
</linearGradient>
<linearGradient id="paint12_linear_5192_168889" x1="82.2069" y1="14.6315" x2="87.7973" y2="14.6315" gradientUnits="userSpaceOnUse">
<stop offset="0.0031746" stop-color="#FFB799"/>
<stop offset="1" stop-color="#F8515C"/>
</linearGradient>
<linearGradient id="paint13_linear_5192_168889" x1="0.000151946" y1="17.2435" x2="6.18536" y2="17.2435" gradientUnits="userSpaceOnUse">
<stop offset="0.0031746" stop-color="#FFB799"/>
<stop offset="1" stop-color="#F8515C"/>
</linearGradient>
<linearGradient id="paint14_linear_5192_168889" x1="10.4805" y1="6.4236" x2="13.5633" y2="6.4236" gradientUnits="userSpaceOnUse">
<stop offset="0.0031746" stop-color="#FFB799"/>
<stop offset="1" stop-color="#F8515C"/>
</linearGradient>
<linearGradient id="paint15_linear_5192_168889" x1="1.25386" y1="30.8475" x2="16.0341" y2="30.8475" gradientUnits="userSpaceOnUse">
<stop offset="0.0031746" stop-color="#FFB799"/>
<stop offset="1" stop-color="#F8515C"/>
</linearGradient>
<clipPath id="clip0_5192_168889">
<rect width="88" height="81" fill="white"/>
</clipPath>
</defs>
</svg>
