<svg width="16" height="16" viewBox="0 0 16 16" fill="none" xmlns="http://www.w3.org/2000/svg">
<path d="M4.82077 0.266325L4.49325 1.27432C4.39167 1.58091 4.21979 1.85949 3.99132 2.08779C3.76286 2.31609 3.48416 2.48778 3.17749 2.58913L2.16856 2.91666L2.14785 2.92231C2.07011 2.94968 2.00277 3.0005 1.95514 3.06776C1.90751 3.13502 1.88193 3.21541 1.88193 3.29783C1.88193 3.38025 1.90751 3.46064 1.95514 3.52791C2.00277 3.59517 2.07011 3.64599 2.14785 3.67336L3.15678 4.00089C3.46362 4.10212 3.74251 4.27375 3.97115 4.50206C4.19978 4.73036 4.37181 5.00901 4.47348 5.3157L4.80101 6.32276C4.82838 6.4005 4.8792 6.46783 4.94646 6.51547C5.01373 6.5631 5.09411 6.58868 5.17654 6.58868C5.25896 6.58868 5.33935 6.5631 5.40661 6.51547C5.47387 6.46783 5.5247 6.4005 5.55206 6.32276L5.87959 5.3157C5.9805 5.00796 6.1522 4.72819 6.38088 4.49886C6.60955 4.26953 6.88884 4.09703 7.19629 3.99524L8.20522 3.66771C8.28297 3.64035 8.3503 3.58952 8.39793 3.52226C8.44556 3.455 8.47114 3.37461 8.47114 3.29219C8.47114 3.20977 8.44556 3.12938 8.39793 3.06211C8.3503 2.99485 8.28297 2.94403 8.20522 2.91666L7.19629 2.58913C6.89328 2.48517 6.61852 2.31231 6.39364 2.08416C6.16876 1.85601 5.99988 1.5788 5.9003 1.27432L5.57183 0.267266C5.54466 0.189195 5.49386 0.121517 5.42648 0.0736243C5.35911 0.0257318 5.27849 0 5.19583 0C5.11317 0 5.03255 0.0257318 4.96518 0.0736243C4.8978 0.121517 4.847 0.189195 4.81983 0.267266M0.204333 7.73075L0.925269 7.49734C1.14403 7.4242 1.34278 7.30118 1.5058 7.13799C1.66882 6.97481 1.79164 6.77594 1.86456 6.55711L2.09985 5.83805C2.11934 5.78246 2.15561 5.73429 2.20367 5.70022C2.25172 5.66614 2.30917 5.64784 2.36808 5.64784C2.42699 5.64784 2.48445 5.66614 2.5325 5.70022C2.58055 5.73429 2.61683 5.78246 2.63632 5.83805L2.86973 6.55711C2.94131 6.77454 3.06213 6.9725 3.22277 7.13559C3.3834 7.29867 3.57952 7.42247 3.79584 7.49734L4.51583 7.73075C4.57143 7.75023 4.61959 7.78651 4.65367 7.83456C4.68775 7.88262 4.70605 7.94007 4.70605 7.99898C4.70605 8.05789 4.68775 8.11534 4.65367 8.1634C4.61959 8.21145 4.57143 8.24773 4.51583 8.26721L3.79584 8.50156C3.57643 8.57473 3.37711 8.69808 3.21373 8.86179C3.05034 9.0255 2.9274 9.22506 2.85467 9.44462L2.62126 10.1637C2.60177 10.2193 2.56549 10.2674 2.51744 10.3015C2.46939 10.3356 2.41193 10.3539 2.35302 10.3539C2.29412 10.3539 2.23666 10.3356 2.18861 10.3015C2.14056 10.2674 2.10428 10.2193 2.08479 10.1637L1.85044 9.44462C1.77743 9.22568 1.65446 9.02675 1.49127 8.86356C1.32808 8.70037 1.12914 8.5774 0.910211 8.50439L0.190215 8.27098C0.134622 8.25149 0.0864568 8.21521 0.0523803 8.16716C0.0183039 8.11911 0 8.06165 0 8.00274C0 7.94383 0.0183039 7.88638 0.0523803 7.83833C0.0864568 7.79028 0.134622 7.754 0.190215 7.73451L0.204333 7.73075ZM3.05326 11.0785C2.98127 11.1273 2.90429 11.1683 2.82361 11.2008V13.1773C2.82361 13.7891 3.01749 14.3538 3.34784 14.8168L8.42075 9.82109C8.68486 9.561 9.04066 9.41521 9.41133 9.41521C9.782 9.41521 10.1378 9.561 10.4019 9.82109L15.4748 14.8168C15.8174 14.3389 16.0011 13.7653 16 13.1773V5.64794C16 4.8991 15.7025 4.18092 15.173 3.65141C14.6435 3.1219 13.9253 2.82443 13.1765 2.82443H9.32898C9.38419 2.97188 9.4118 3.12748 9.4118 3.29125C9.4118 3.5736 9.3271 3.83807 9.1671 4.06395C9.0071 4.28983 8.78122 4.46959 8.49887 4.56371L7.49934 4.89312C7.35817 4.94112 7.2264 5.01641 7.05699 5.167C6.95347 5.27053 6.86876 5.39288 6.78405 5.61029L6.44523 6.63805C6.35959 6.87334 6.209 7.08981 5.95488 7.2884C5.82312 7.38251 5.68194 7.4484 5.53136 7.48604C5.60665 7.64604 5.6443 7.8258 5.6443 8.00463C5.6443 8.25874 5.569 8.50439 5.41842 8.71239C5.26689 8.91944 5.05983 9.07003 4.80571 9.16415L4.08948 9.39944C4.01419 9.42768 3.9389 9.47473 3.88243 9.53121C3.82082 9.58762 3.77535 9.65941 3.75066 9.7392L3.50596 10.494C3.41184 10.7293 3.26125 10.927 3.05326 11.0775M5.64712 16.0008C5.06213 16.001 4.49154 15.8194 4.01419 15.4813L9.08145 10.4931C9.1695 10.4063 9.28817 10.3576 9.4118 10.3576C9.53544 10.3576 9.6541 10.4063 9.74215 10.4931L14.8094 15.4813C14.3321 15.8194 13.7615 16.001 13.1765 16.0008H5.64712ZM11.7647 8.23615C11.4527 8.23615 11.1535 8.11221 10.9328 7.89158C10.7122 7.67095 10.5883 7.37171 10.5883 7.05969C10.5883 6.74767 10.7122 6.44844 10.9328 6.22781C11.1535 6.00718 11.4527 5.88323 11.7647 5.88323C12.0767 5.88323 12.376 6.00718 12.5966 6.22781C12.8172 6.44844 12.9412 6.74767 12.9412 7.05969C12.9412 7.37171 12.8172 7.67095 12.5966 7.89158C12.376 8.11221 12.0767 8.23615 11.7647 8.23615Z" fill="url(#paint0_linear_5935_258634)"/>
<defs>
<linearGradient id="paint0_linear_5935_258634" x1="3.36952" y1="-7.93933e-07" x2="19.4736" y2="5.16002" gradientUnits="userSpaceOnUse">
<stop stop-color="#684FFF"/>
<stop offset="1" stop-color="#B871FE"/>
</linearGradient>
</defs>
</svg>
