<svg width="16" height="16" viewBox="0 0 16 16" fill="none" xmlns="http://www.w3.org/2000/svg">
<path d="M14.469 9.19456L9.19553 14.4681C9.11568 14.5479 9.02928 14.621 8.93725 14.6865C8.66472 14.8851 8.33722 14.9942 8 14.9986C8 14.6123 8 14.2644 8.0021 13.9487C8.0105 12.665 8.0546 11.9111 8.27508 11.2804C8.5182 10.5857 8.91472 9.95467 9.43518 9.43421C9.95565 8.91374 10.5867 8.51723 11.2814 8.27411C11.9114 8.05362 12.6659 8.00952 13.9497 8.00112C14.2653 7.99902 14.6132 7.99902 14.9996 7.99902C14.9996 8.3392 14.8813 8.66119 14.6874 8.93697C14.6223 9.02905 14.5492 9.11525 14.469 9.19456Z" fill="url(#paint0_linear_5935_258643)"/>
<path fill-rule="evenodd" clip-rule="evenodd" d="M7.99961 1C4.13373 1 1 4.13373 1 7.99961C1 11.2936 3.27487 14.0557 6.34 14.8011C6.65778 14.8781 6.94967 14.6261 6.94967 14.2993C6.94967 13.1079 6.94897 12.6753 7.05606 11.9124C6.52493 11.7827 6.02529 11.5475 5.58684 11.2208C5.52977 11.1804 5.48134 11.129 5.4444 11.0696C5.40747 11.0102 5.38278 10.944 5.37177 10.875C5.36077 10.8059 5.36368 10.7353 5.38033 10.6674C5.39697 10.5995 5.42703 10.5356 5.46872 10.4794C5.51042 10.4233 5.56291 10.376 5.62312 10.3404C5.68333 10.3049 5.75004 10.2817 5.81934 10.2722C5.88864 10.2628 5.95912 10.2673 6.02666 10.2855C6.09419 10.3036 6.15741 10.3351 6.21261 10.3781C6.53669 10.6182 6.90417 10.7946 7.29895 10.8904C7.75012 9.6326 8.61161 8.56326 9.74461 7.85472C9.53812 7.67273 9.39953 7.33535 9.39953 6.94967C9.39953 6.3701 9.71311 5.89973 10.0995 5.89973C10.4859 5.89973 10.7995 6.3701 10.7995 6.94967C10.7995 7.09246 10.7806 7.22895 10.7463 7.35285C10.8079 7.32905 10.8708 7.30595 10.9345 7.28355C11.8914 6.94897 12.5564 6.94897 14.2993 6.94967C14.6268 6.94967 14.8788 6.65778 14.8011 6.34C14.0557 3.27487 11.2936 1 7.99961 1ZM5.89973 7.99961C6.28611 7.99961 6.59969 7.52924 6.59969 6.94967C6.59969 6.3701 6.28611 5.89973 5.89973 5.89973C5.51335 5.89973 5.19977 6.3701 5.19977 6.94967C5.19977 7.52924 5.51335 7.99961 5.89973 7.99961Z" fill="url(#paint1_linear_5935_258643)"/>
<defs>
<linearGradient id="paint0_linear_5935_258643" x1="9.47408" y1="7.99902" x2="16.5191" y2="10.2565" gradientUnits="userSpaceOnUse">
<stop stop-color="#684FFF"/>
<stop offset="1" stop-color="#B871FE"/>
</linearGradient>
<linearGradient id="paint1_linear_5935_258643" x1="3.90944" y1="0.999999" x2="17.8144" y2="5.4557" gradientUnits="userSpaceOnUse">
<stop stop-color="#684FFF"/>
<stop offset="1" stop-color="#B871FE"/>
</linearGradient>
</defs>
</svg>
