<svg viewBox="0 0 12 12" fill="none" xmlns="http://www.w3.org/2000/svg"><path d="m11.994 11.537-.82-4.654h.276a.399.399 0 0 0 .403-.396V3.563c0-.219-.18-.395-.403-.395H7.641V.396c0-.22-.18-.396-.402-.396H4.76a.399.399 0 0 0-.402.396v2.772H.549a.399.399 0 0 0-.402.395v2.924c0 .22.18.396.403.396h.277l-.82 4.654A.398.398 0 0 0 .402 12h11.194a.395.395 0 0 0 .396-.463ZM1.23 4.233h4.212V1.067h1.114v3.168h4.212v1.583H1.231V4.234Zm7.246 6.701V8.558a.123.123 0 0 0-.123-.121H7.61a.123.123 0 0 0-.124.121v2.376H4.514V8.558a.123.123 0 0 0-.124-.121h-.744a.123.123 0 0 0-.123.121v2.376h-2.31l.698-3.96h8.177l.698 3.96H8.477Z" fill="#fff"/></svg>