<svg width="16" height="18" fill="none" xmlns="http://www.w3.org/2000/svg"><path d="M2.775 17.192c8.09 3.236 11.462-4.046 12.136-8.09V7.583l-.506-2.022H9.35c.337 0 1.011.1 1.011.505 0 .31-.596 2.628-1.102 4.526-.269 1.012-.938 2.076-1.98 2.161-1.06.086-2.052-.426-1.831-1.465.046-.22.108-.442.174-.65.081-.256-.103-.527-.37-.527H1.024a.448.448 0 0 0-.4.242c-1.783 3.514.667 6.014 2.15 6.838Z" fill="#fff"/><path d="M11.371 0H2.775c-.364 1.638.146 2.997.986 4.01 1.778 2.148 4.982 1.334 7.742 1.733 2.803.405 3.285 2.375 3.408 3.359l.506-3.034.18-1.08A4.283 4.283 0 0 0 11.37 0Z" fill="url(#a)"/><defs><linearGradient id="a" x1="8.356" y1=".35" x2="6.878" y2="13.756" gradientUnits="userSpaceOnUse"><stop stop-color="#fff"/><stop offset="1" stop-color="#5331FB"/><stop offset="1" stop-color="#832BC1"/><stop offset="1" stop-color="#E3E3E3"/></linearGradient></defs></svg>