<svg width="176" height="126" fill="none" xmlns="http://www.w3.org/2000/svg"><g opacity=".7" clip-path="url(#a)"><path d="M0 100.544C0 114.603 39.398 126 88 126c48.604 0 88-11.395 88-25.455 0-14.06-39.405-25.453-88-25.453-48.593 0-88 11.397-88 25.452Z" fill="url(#b)" fill-opacity=".1"/><path d="M30 91.726c0 9.235 25.879 16.717 57.805 16.717 31.925 0 57.806-7.482 57.806-16.719C145.611 82.487 119.73 75 87.806 75S30 82.49 30 91.724v.002Z" fill="url(#c)" fill-opacity=".2"/><path d="M40.428 29.272 89.5 21v55l-36-1.5-13.072-45.228Z" fill="url(#d)" fill-opacity=".6"/><path d="M89.5 37.545V21.001l43.776 4.58-41.832 11.964H89.5Z" fill="url(#e)" fill-opacity=".6"/><path d="m89.532 36.91-.255 64.397-49.74-12.856V48.363L89.534 36.91h-.002ZM55.988 58.418c-1.02-.127-2.04.508-2.165 1.527-.126 1.019.51 2.036 1.53 2.16l16.324 2.926c1.018.128 2.04-.506 2.166-1.524.125-1.017-.51-2.037-1.528-2.16L55.99 58.412l-.002.005Z" fill="#BCB3F8"/><path d="m89.275 101.306 45.023-15.522V46.455l-45.016-9.543v64.396l-.007-.002Z" fill="#CFC9FC"/><path d="M40.046 29.273 27.418 47.105a1 1 0 0 0 .62 1.559l47.046 9.364a1 1 0 0 0 1.039-.444l13.15-20.677-49.227-7.634Z" fill="#fff"/><path d="M102.879 56.155a1 1 0 0 0 1.131.377l40.943-13.459a1 1 0 0 0 .485-1.553L133.28 25.455 89.413 36.908l13.466 19.247Zm1.694 13.212a1 1 0 0 1 .741-.966l14.581-3.919a1 1 0 0 1 1.26.966v9.42a1 1 0 0 1-.693.952l-14.582 4.702a1 1 0 0 1-1.307-.952V69.367Z" fill="url(#f)"/><path d="M106.876 72.163v-.772l6.122-1.908v.764l-6.122 1.916Zm0 2.544v-.762l5.105-1.527v.762l-5.105 1.529v-.002Zm0 2.546v-.772l8.544-2.674v.772l-8.544 2.674Z" fill="url(#g)"/><path d="M141.439 15.262c-.164-.552.524-.953.923-.537l1.098 1.143a.55.55 0 0 0 .553.146l1.519-.452c.553-.165.953.524.538.923l-1.144 1.098a.552.552 0 0 0-.146.553l.453 1.52c.164.552-.524.952-.923.537l-1.098-1.144a.55.55 0 0 0-.553-.146l-1.52.453c-.552.164-.953-.524-.537-.923l1.143-1.098a.548.548 0 0 0 .146-.553l-.452-1.52Z" fill="url(#h)"/><path fill-rule="evenodd" clip-rule="evenodd" d="m142.2 15.508.323 1.085a1.21 1.21 0 0 1-.321 1.217l-.817.784 1.086-.323c.433-.129.903-.005 1.216.322l.785.816-.324-1.085a1.208 1.208 0 0 1 .322-1.217l.816-.784-1.085.323a1.21 1.21 0 0 1-1.217-.321l-.784-.817Zm.162-.783c-.399-.416-1.087-.015-.923.537l.452 1.52a.548.548 0 0 1-.146.553l-1.143 1.098c-.416.399-.015 1.087.537.923l1.52-.453a.55.55 0 0 1 .553.146l1.098 1.144c.399.415 1.087.014.923-.538l-.453-1.52a.552.552 0 0 1 .146-.552l1.144-1.098c.415-.4.015-1.088-.538-.923l-1.519.452a.55.55 0 0 1-.553-.146l-1.098-1.143Z" fill="url(#i)"/><path d="M151.284 30.909c-.137-.46.436-.794.769-.448l.915.953c.119.124.297.17.461.122l1.266-.377c.46-.137.794.436.448.769l-.953.915a.461.461 0 0 0-.122.46l.377 1.267c.138.46-.436.794-.769.448l-.915-.953a.457.457 0 0 0-.461-.122l-1.266.377c-.46.137-.794-.436-.448-.769l.953-.915a.457.457 0 0 0 .122-.46l-.377-1.267Z" fill="url(#j)"/><path fill-rule="evenodd" clip-rule="evenodd" d="m151.918 31.114.27.904c.107.362.004.753-.268 1.014l-.681.654.905-.27a1.008 1.008 0 0 1 1.014.268l.653.68-.269-.903a1.007 1.007 0 0 1 .268-1.014l.68-.654-.904.27a1.007 1.007 0 0 1-1.014-.269l-.654-.68Zm.135-.653c-.333-.346-.906-.012-.769.448l.377 1.266a.457.457 0 0 1-.122.461l-.953.915c-.346.333-.012.906.448.77l1.266-.378a.457.457 0 0 1 .461.122l.915.953c.333.346.907.012.769-.448l-.377-1.266a.461.461 0 0 1 .122-.461l.953-.915c.346-.333.012-.906-.448-.77l-1.266.378a.458.458 0 0 1-.461-.122l-.915-.953Z" fill="url(#k)"/><g><path d="M31.732 16.374c.442-.37 1.082.104.858.635l-.616 1.46a.55.55 0 0 0 .085.567l1.016 1.216c.37.443-.104 1.083-.635.859l-1.461-.616a.55.55 0 0 0-.566.084l-1.216 1.017c-.443.369-1.083-.105-.859-.636l.616-1.46a.55.55 0 0 0-.084-.566l-1.017-1.217c-.369-.442.105-1.082.636-.858l1.46.616a.55.55 0 0 0 .566-.085l1.217-1.016Z" fill="url(#l)"/><path fill-rule="evenodd" clip-rule="evenodd" d="m31.807 17.17-.87.726c-.347.29-.827.362-1.244.186l-1.043-.44.726.87c.29.346.362.827.186 1.244l-.44 1.043.869-.726c.347-.29.827-.362 1.244-.186l1.044.44-.726-.869a1.209 1.209 0 0 1-.186-1.244l.44-1.043Zm.783-.16c.224-.532-.416-1.005-.858-.636l-1.217 1.016a.55.55 0 0 1-.566.085l-1.46-.616c-.531-.224-1.005.416-.636.858l1.017 1.217a.55.55 0 0 1 .084.566l-.616 1.46c-.224.531.416 1.005.858.636l1.217-1.017a.55.55 0 0 1 .566-.084l1.46.616c.532.224 1.005-.416.636-.858l-1.016-1.217a.55.55 0 0 1-.085-.566l.616-1.46Z" fill="url(#m)"/><path d="M21.252 31.603c.368-.308.902.087.715.529l-.513 1.217a.458.458 0 0 0 .07.472l.847 1.014c.308.368-.087.902-.53.715l-1.217-.513a.458.458 0 0 0-.471.07l-1.014.847c-.369.308-.902-.087-.715-.53l.513-1.217a.458.458 0 0 0-.07-.471l-.847-1.014c-.308-.369.087-.902.53-.715l1.216.513c.158.067.34.04.472-.07l1.014-.847Z" fill="url(#n)"/><path fill-rule="evenodd" clip-rule="evenodd" d="m21.314 32.266-.724.605c-.29.242-.69.302-1.037.155l-.87-.367.605.725c.242.29.302.69.155 1.037l-.366.87.724-.606c.29-.241.69-.301 1.037-.155l.87.367-.605-.724a1.007 1.007 0 0 1-.155-1.037l.366-.87Zm.653-.134c.187-.442-.347-.837-.715-.53l-1.014.848a.458.458 0 0 1-.472.07l-1.217-.514c-.442-.186-.837.347-.53.716l.848 1.014c.11.131.137.313.07.471l-.513 1.218c-.187.442.346.837.715.529l1.014-.847a.458.458 0 0 1 .471-.07l1.218.513c.442.187.837-.347.53-.715l-.848-1.014a.458.458 0 0 1-.07-.472l.513-1.217Z" fill="url(#o)"/></g></g><defs><linearGradient id="b" x1="37.065" y1="75.092" x2="124.767" y2="172.248" gradientUnits="userSpaceOnUse"><stop stop-color="#684FFF"/><stop offset="1" stop-color="#B871FE"/></linearGradient><linearGradient id="c" x1="54.347" y1="75" x2="111.962" y2="138.82" gradientUnits="userSpaceOnUse"><stop stop-color="#684FFF"/><stop offset="1" stop-color="#B871FE"/></linearGradient><linearGradient id="d" x1="50.762" y1="21" x2="101.109" y2="35.394" gradientUnits="userSpaceOnUse"><stop stop-color="#684FFF"/><stop offset="1" stop-color="#B871FE"/></linearGradient><linearGradient id="e" x1="98.719" y1="21.001" x2="126.984" y2="44.966" gradientUnits="userSpaceOnUse"><stop stop-color="#684FFF"/><stop offset="1" stop-color="#B871FE"/></linearGradient><linearGradient id="f" x1="117.848" y1="25.455" x2="149" y2="62.5" gradientUnits="userSpaceOnUse"><stop stop-color="#fff"/><stop offset="1" stop-color="#fff"/></linearGradient><linearGradient id="g" x1="108.676" y1="69.483" x2="117.111" y2="72.456" gradientUnits="userSpaceOnUse"><stop stop-color="#684FFF"/><stop offset="1" stop-color="#B871FE"/></linearGradient><linearGradient id="h" x1="140.052" y1="15.584" x2="146.599" y2="12.501" gradientUnits="userSpaceOnUse"><stop stop-color="#684FFF"/><stop offset="1" stop-color="#B871FE"/></linearGradient><linearGradient id="i" x1="140.052" y1="15.584" x2="146.599" y2="12.501" gradientUnits="userSpaceOnUse"><stop stop-color="#684FFF"/><stop offset="1" stop-color="#B871FE"/></linearGradient><linearGradient id="j" x1="140.052" y1="15.584" x2="146.599" y2="12.501" gradientUnits="userSpaceOnUse"><stop stop-color="#684FFF"/><stop offset="1" stop-color="#B871FE"/></linearGradient><linearGradient id="k" x1="140.052" y1="15.584" x2="146.599" y2="12.501" gradientUnits="userSpaceOnUse"><stop stop-color="#684FFF"/><stop offset="1" stop-color="#B871FE"/></linearGradient><linearGradient id="l" x1="30.888" y1="15.227" x2="36.309" y2="20.022" gradientUnits="userSpaceOnUse"><stop stop-color="#684FFF"/><stop offset="1" stop-color="#B871FE"/></linearGradient><linearGradient id="m" x1="30.888" y1="15.227" x2="36.309" y2="20.022" gradientUnits="userSpaceOnUse"><stop stop-color="#684FFF"/><stop offset="1" stop-color="#B871FE"/></linearGradient><linearGradient id="n" x1="30.888" y1="15.227" x2="36.309" y2="20.022" gradientUnits="userSpaceOnUse"><stop stop-color="#684FFF"/><stop offset="1" stop-color="#B871FE"/></linearGradient><linearGradient id="o" x1="30.888" y1="15.227" x2="36.309" y2="20.022" gradientUnits="userSpaceOnUse"><stop stop-color="#684FFF"/><stop offset="1" stop-color="#B871FE"/></linearGradient><clipPath id="a"><path fill="#fff" d="M0 0h176v126H0z"/></clipPath></defs></svg>