<svg width="20" height="24" fill="none" xmlns="http://www.w3.org/2000/svg"><path d="m5.645 5.696 5.714-3.167a.552.552 0 0 0 .296-.493v-.063a.554.554 0 0 0-.288-.49.586.586 0 0 0-.577.001L5.078 4.72a.57.57 0 0 0-.287.487.554.554 0 0 0 .287.487.576.576 0 0 0 .567.003Z" fill="url(#a)"/><path d="M10.693 10.611 18.3 6.314c.155-.088.284-.214.374-.367A.986.986 0 0 0 18.3 4.58a.75.75 0 0 0-.738 0L10.367 8.65a.746.746 0 0 1-.735 0l-.966-.547a.728.728 0 0 1-.27-.263.707.707 0 0 1 .27-.983l5.573-3.155a.823.823 0 0 0 .305-.298.8.8 0 0 0 0-.816.823.823 0 0 0-.305-.298.745.745 0 0 0-.737 0L6.336 6.361a.75.75 0 0 1-.738 0l-.925-.529a.727.727 0 0 1-.269-.263.707.707 0 0 1 .27-.983l5.719-3.239a.726.726 0 0 0 .27-.263.707.707 0 0 0-.27-.985.748.748 0 0 0-.733 0L2.262 4.272c-.21.119-.385.29-.507.496a1.335 1.335 0 0 0 0 1.357c.122.206.297.377.507.497l7.063 3.99a1.41 1.41 0 0 0 1.368 0Z" fill="url(#b)"/><path d="M9.085 7.963a.593.593 0 0 0 .573 0l5.724-3.178a.574.574 0 0 0 .291-.491v-.063a.554.554 0 0 0-.287-.49.586.586 0 0 0-.577.001L9.085 6.985a.572.572 0 0 0-.287.489.556.556 0 0 0 .287.489Z" fill="url(#c)"/><path d="M12.69 5.925a.58.58 0 0 0-.217-.453.609.609 0 0 0-.495-.126l-2.894 1.64a.566.566 0 0 0-.27.341.553.553 0 0 0 .056.428.588.588 0 0 0 .787.21l2.897-1.61a.578.578 0 0 0 .136-.365v-.065Z" fill="url(#d)"/><path d="M8.678 3.659a.579.579 0 0 0-.22-.457.609.609 0 0 0-.501-.122L5.062 4.717a.572.572 0 0 0-.287.489.556.556 0 0 0 .287.488.581.581 0 0 0 .574 0l2.896-1.608a.579.579 0 0 0 .137-.364l.009-.063Z" fill="url(#e)"/><path d="M9.836 13.635a.92.92 0 0 0-.128-.466.948.948 0 0 0-.348-.342L2.08 8.713a1.41 1.41 0 0 0-1.387 0c-.21.12-.386.29-.508.497-.121.207-.185.44-.185.68v8.223c0 .163.045.324.128.466a.947.947 0 0 0 .825.466.97.97 0 0 0 .476-.125.943.943 0 0 0 .348-.341.916.916 0 0 0 .128-.466v-6.288a.686.686 0 0 1 .352-.59.706.706 0 0 1 .697.009l4.977 2.915.488.274a.97.97 0 0 0 .94-.006.942.942 0 0 0 .346-.335.915.915 0 0 0 .131-.457Z" fill="url(#f)"/><path d="m4.172 20.832 4.247 2.546a.94.94 0 0 0 1.3-.313.889.889 0 0 0 .121-.467.889.889 0 0 0-.123-.453.914.914 0 0 0-.339-.332l-3.467-2.008a.459.459 0 0 1-.232-.39v-1.542a.446.446 0 0 1 .235-.386.471.471 0 0 1 .459.002l2.046 1.219a.939.939 0 0 0 1.292-.313.9.9 0 0 0 0-.917.926.926 0 0 0-.338-.333l-3.79-2.194a1.175 1.175 0 0 0-1.59.404 1.112 1.112 0 0 0-.156.569v4.333a.667.667 0 0 0 .335.575Z" fill="url(#g)"/><path d="m12.069 14.165 4.977-2.92a.705.705 0 0 1 .955.24.668.668 0 0 1 .095.34v6.282c0 .162.044.321.128.462.083.14.202.257.345.339a.969.969 0 0 0 .946.006.946.946 0 0 0 .348-.341.922.922 0 0 0 .128-.466V9.885c0-.238-.064-.472-.185-.679a1.373 1.373 0 0 0-.508-.497 1.41 1.41 0 0 0-1.387 0l-7.27 4.112a.947.947 0 0 0-.35.345.921.921 0 0 0 .35 1.275.968.968 0 0 0 .952 0l.476-.277Z" fill="url(#h)"/><path d="m15.733 16.22-4.207 2.522a.91.91 0 0 1-1.24-.304.86.86 0 0 1-.122-.442v-.088a.86.86 0 0 1 .118-.434.884.884 0 0 1 .321-.32l4.208-2.433a.907.907 0 0 1 1.227.313.86.86 0 0 1 .007.868.881.881 0 0 1-.312.318Z" fill="url(#i)"/><path d="m15.733 20.89-4.207 2.522a.91.91 0 0 1-1.24-.304.86.86 0 0 1-.122-.442v-.088a.86.86 0 0 1 .118-.434.885.885 0 0 1 .321-.32l4.208-2.433a.908.908 0 0 1 .898-.007.86.86 0 0 1 .337 1.188.884.884 0 0 1-.313.318Z" fill="url(#j)"/><path d="m14.81 14.72-4.207 2.434a.884.884 0 0 0-.321.32.86.86 0 0 0-.118.434v.088a.86.86 0 0 0 .123.442c.08.135.196.245.334.321a.912.912 0 0 0 .905-.017l4.207-2.522a.881.881 0 0 0 .312-.318.859.859 0 0 0-.007-.868.884.884 0 0 0-.33-.32.907.907 0 0 0-.897.007Zm.174 1.65-2.98 1.789a.643.643 0 0 1-.879-.213.608.608 0 0 1-.087-.314v-.064a.611.611 0 0 1 .312-.54l2.98-1.724a.645.645 0 0 1 .853.22.608.608 0 0 1-.199.841v.005Z" fill="url(#k)"/><path d="m14.81 19.39-4.207 2.434a.885.885 0 0 0-.321.32.86.86 0 0 0-.118.434v.088a.86.86 0 0 0 .123.442c.08.134.196.245.334.321a.91.91 0 0 0 .905-.017l4.207-2.522a.884.884 0 0 0 .312-.319.861.861 0 0 0-.007-.867.884.884 0 0 0-.33-.32.907.907 0 0 0-.897.007Zm.174 1.65-2.98 1.786a.642.642 0 0 1-.879-.213.608.608 0 0 1-.087-.314v-.07a.612.612 0 0 1 .312-.533l2.98-1.724a.645.645 0 0 1 .853.22.608.608 0 0 1-.199.84v.008Z" fill="url(#l)"/><path d="M9.36 12.82 2.08 8.713a1.41 1.41 0 0 0-1.387 0c-.21.12-.386.29-.508.497-.121.207-.185.44-.185.68v8.223c0 .163.045.324.128.466a.947.947 0 0 0 .683.454l.132-8.565a.797.797 0 0 1 .129-.38.842.842 0 0 1 1.09-.277l7.53 4.299a.89.89 0 0 0 .142-.484.921.921 0 0 0-.128-.464.947.947 0 0 0-.346-.342Z" fill="url(#m)"/><path d="m17.92 8.709-7.28 4.107a.939.939 0 0 0-.348.34.914.914 0 0 0-.128.465.92.92 0 0 0 .143.486L17.84 9.8a.84.84 0 0 1 1.09.286.795.795 0 0 1 .124.383l.131 8.57a.91.91 0 0 0 .335-.115.94.94 0 0 0 .349-.34.913.913 0 0 0 .128-.465V9.884c0-.238-.065-.471-.186-.677a1.373 1.373 0 0 0-.506-.496 1.41 1.41 0 0 0-1.384-.003Z" fill="url(#n)"/><path d="M18.712 5.013 10.25 9.652a.807.807 0 0 1-.82-.028L6.363 7.67 2.977 5.81a.764.764 0 0 1-.227-1.031.787.787 0 0 1 .275-.272L10.557.245A.771.771 0 0 0 10 0a.748.748 0 0 0-.367.096L2.237 4.269c-.21.119-.386.29-.507.496a1.335 1.335 0 0 0 0 1.357c.121.206.296.377.507.497l7.062 3.99a1.41 1.41 0 0 0 1.387 0l7.606-4.298c.224-.125.391-.328.47-.569a.984.984 0 0 0-.05-.73Z" fill="url(#o)"/><path d="M9.836 17.932v-.03a.572.572 0 0 0 0-.088.87.87 0 0 0-.141-.357l-.016-.02-.016-.03a1.43 1.43 0 0 0-.139-.142.855.855 0 0 0-.127-.09l-.025-.019-1.156-.667-2.617-1.515a1.176 1.176 0 0 0-1.167-.015 1.144 1.144 0 0 0-.43.416c-.102.174-.156.37-.155.571v4.334a.668.668 0 0 0 .333.577l4.24 2.521a.942.942 0 0 0 1.245-.244L5.22 20.345a.456.456 0 0 1-.215-.393l.07-3.017a.558.558 0 0 1 .29-.48.59.59 0 0 1 .57-.004l3.73 2.001.095-.163a.87.87 0 0 0 .049-.156v-.013a.061.061 0 0 0 0-.02.788.788 0 0 0 .027-.168Z" fill="url(#p)"/><path d="M12.69 5.925a.58.58 0 0 0-.217-.453.609.609 0 0 0-.495-.126l-2.894 1.64a.566.566 0 0 0-.27.341.553.553 0 0 0 .056.428.588.588 0 0 0 .787.21l2.897-1.61a.578.578 0 0 0 .136-.365v-.065Z" fill="url(#q)"/><path d="M8.678 3.659a.579.579 0 0 0-.22-.457.609.609 0 0 0-.501-.122L5.062 4.717a.572.572 0 0 0-.287.489.556.556 0 0 0 .287.488.581.581 0 0 0 .574 0l2.896-1.608a.579.579 0 0 0 .137-.364l.009-.063Z" fill="url(#r)"/><defs><linearGradient id="a" x1="-1.376" y1="3.979" x2="19.236" y2="3.103" gradientUnits="userSpaceOnUse"><stop stop-color="#25EDFF"/><stop offset="1" stop-color="#29ABE2"/></linearGradient><linearGradient id="b" x1="1.55" y1="5.398" x2="18.809" y2="5.398" gradientUnits="userSpaceOnUse"><stop stop-color="#25EDFF"/><stop offset="1" stop-color="#29ABE2"/></linearGradient><linearGradient id="c" x1="9.67" y1="5.956" x2="13.352" y2="5.8" gradientUnits="userSpaceOnUse"><stop stop-color="#25EDFF"/><stop offset="1" stop-color="#29ABE2"/></linearGradient><linearGradient id="d" x1="9.357" y1="6.743" x2="11.483" y2="6.651" gradientUnits="userSpaceOnUse"><stop stop-color="#25EDFF"/><stop offset="1" stop-color="#00A2F4"/></linearGradient><linearGradient id="e" x1="5.344" y1="4.478" x2="7.473" y2="4.385" gradientUnits="userSpaceOnUse"><stop stop-color="#25EDFF"/><stop offset="1" stop-color="#00A2F4"/></linearGradient><linearGradient id="f" x1="12.159" y1="19.95" x2="1.531" y2="13.692" gradientUnits="userSpaceOnUse"><stop stop-color="#ED1E79"/><stop offset="1" stop-color="#622BFF"/></linearGradient><linearGradient id="g" x1="11.22" y1="21.542" x2=".594" y2="15.284" gradientUnits="userSpaceOnUse"><stop stop-color="#ED1E79"/><stop offset="1" stop-color="#622BFF"/></linearGradient><linearGradient id="h" x1="10.164" y1="13.782" x2="20" y2="13.782" gradientUnits="userSpaceOnUse"><stop stop-color="#FBB03B"/><stop offset="1" stop-color="#F15A24"/></linearGradient><linearGradient id="i" x1="10.164" y1="16.736" x2="16.158" y2="16.736" gradientUnits="userSpaceOnUse"><stop stop-color="#FBB03B"/><stop offset="1" stop-color="#F26327"/></linearGradient><linearGradient id="j" x1="10.164" y1="21.406" x2="16.158" y2="21.406" gradientUnits="userSpaceOnUse"><stop stop-color="#FBB03B"/><stop offset="1" stop-color="#F26327"/></linearGradient><linearGradient id="k" x1="10.164" y1="16.736" x2="16.158" y2="16.736" gradientUnits="userSpaceOnUse"><stop offset=".03" stop-color="#F26327"/><stop offset="1" stop-color="#F4742B"/></linearGradient><linearGradient id="l" x1="10.164" y1="21.406" x2="16.158" y2="21.406" gradientUnits="userSpaceOnUse"><stop offset=".03" stop-color="#F26327"/><stop offset="1" stop-color="#F4742B"/></linearGradient><linearGradient id="m" x1="8.345" y1="13.813" x2="-1.158" y2="13.771" gradientUnits="userSpaceOnUse"><stop stop-color="#EF59A1"/><stop offset="1" stop-color="#2A16B7"/></linearGradient><linearGradient id="n" x1="12.127" y1="16.774" x2="22.545" y2="11.883" gradientUnits="userSpaceOnUse"><stop stop-color="#F79D26"/><stop offset="1" stop-color="#D62D00"/></linearGradient><linearGradient id="o" x1="1.55" y1="5.397" x2="18.81" y2="5.397" gradientUnits="userSpaceOnUse"><stop stop-color="#00A2F4"/><stop offset="1" stop-color="#25EDFF"/></linearGradient><linearGradient id="p" x1="3.84" y1="19.151" x2="9.836" y2="19.151" gradientUnits="userSpaceOnUse"><stop stop-color="#4720B4"/><stop offset="1" stop-color="#EF59A1"/></linearGradient><linearGradient id="q" x1="9.701" y1="6.73" x2="13.386" y2="6.571" gradientUnits="userSpaceOnUse"><stop stop-color="#25EDFF"/><stop offset="1" stop-color="#29ABE2"/></linearGradient><linearGradient id="r" x1="5.691" y1="4.462" x2="9.373" y2="4.306" gradientUnits="userSpaceOnUse"><stop stop-color="#25EDFF"/><stop offset="1" stop-color="#29ABE2"/></linearGradient></defs></svg>