<svg width="20" height="24" fill="none" xmlns="http://www.w3.org/2000/svg"><g filter="url(#a)"><path d="M.667 23.077h18.666c.356 0 .667-.304.667-.652V10.701c0-.347-.311-.651-.667-.651H.667c-.356 0-.667.304-.667.651v11.724c0 .348.267.652.667.652Z" fill="url(#b)" fill-opacity=".3"/></g><path fill-rule="evenodd" clip-rule="evenodd" d="M2.223 9.974v-1.4c0-4.17 3.51-7.6 7.777-7.6s7.778 3.43 7.778 7.6v1.4h-2.222v-1.4c0-2.997-2.489-5.428-5.556-5.428-3.066 0-5.555 2.431-5.555 5.427v1.401H2.223Z" fill="url(#c)"/><defs><linearGradient id="b" x1="20" y1="10.05" x2="-1.77" y2="18.537" gradientUnits="userSpaceOnUse"><stop stop-color="#D783FF"/><stop offset=".453" stop-color="#858AFF"/></linearGradient><linearGradient id="c" x1="5.499" y1=".974" x2="18.71" y2="8.292" gradientUnits="userSpaceOnUse"><stop stop-color="#684FFF"/><stop offset="1" stop-color="#B871FE"/></linearGradient><filter id="a" x="-12" y="-1.95" width="44" height="37.027" filterUnits="userSpaceOnUse" color-interpolation-filters="sRGB"><feFlood flood-opacity="0" result="BackgroundImageFix"/><feGaussianBlur in="BackgroundImageFix" stdDeviation="6"/><feComposite in2="SourceAlpha" operator="in" result="effect1_backgroundBlur_91_50072"/><feBlend in="SourceGraphic" in2="effect1_backgroundBlur_91_50072" result="shape"/><feColorMatrix in="SourceAlpha" values="0 0 0 0 0 0 0 0 0 0 0 0 0 0 0 0 0 0 127 0" result="hardAlpha"/><feOffset dy="2"/><feGaussianBlur stdDeviation="4"/><feComposite in2="hardAlpha" operator="arithmetic" k2="-1" k3="1"/><feColorMatrix values="0 0 0 0 1 0 0 0 0 1 0 0 0 0 1 0 0 0 0.4 0"/><feBlend in2="shape" result="effect2_innerShadow_91_50072"/></filter></defs></svg>