<svg width="20" height="15" fill="none" xmlns="http://www.w3.org/2000/svg"><path d="m19.49 1.15-8.724 5.541c-.4.255-1.131.255-1.532 0L.703 1.257a.664.664 0 0 0-.526-.082A2 2 0 0 1 1.997 0h16.006c.76 0 1.42.426 1.759 1.052a.664.664 0 0 0-.273.098Z" fill="url(#a)"/><g filter="url(#b)"><path d="M8.52 7.815c.404.257.93.398 1.48.398.55 0 1.076-.141 1.48-.398L20 2.403V12.68a2 2 0 0 1-1.997 1.998H1.997A2 2 0 0 1 0 12.679V2.388l8.52 5.427Z" fill="url(#c)" fill-opacity=".3"/></g><defs><linearGradient id="a" x1="15.637" y1="0" x2="3.769" y2="10.822" gradientUnits="userSpaceOnUse"><stop stop-color="#684FFF"/><stop offset="1" stop-color="#B871FE"/></linearGradient><linearGradient id="c" x1="20" y1="2.388" x2="-1.42" y2="11.24" gradientUnits="userSpaceOnUse"><stop stop-color="#D783FF"/><stop offset=".453" stop-color="#858AFF"/></linearGradient><filter id="b" x="-12" y="-9.612" width="44" height="36.289" filterUnits="userSpaceOnUse" color-interpolation-filters="sRGB"><feFlood flood-opacity="0" result="BackgroundImageFix"/><feGaussianBlur in="BackgroundImageFix" stdDeviation="6"/><feComposite in2="SourceAlpha" operator="in" result="effect1_backgroundBlur_32_21130"/><feBlend in="SourceGraphic" in2="effect1_backgroundBlur_32_21130" result="shape"/><feColorMatrix in="SourceAlpha" values="0 0 0 0 0 0 0 0 0 0 0 0 0 0 0 0 0 0 127 0" result="hardAlpha"/><feOffset dy="2"/><feGaussianBlur stdDeviation="4"/><feComposite in2="hardAlpha" operator="arithmetic" k2="-1" k3="1"/><feColorMatrix values="0 0 0 0 1 0 0 0 0 1 0 0 0 0 1 0 0 0 0.4 0"/><feBlend in2="shape" result="effect2_innerShadow_32_21130"/></filter></defs></svg>