<svg viewBox="0 0 200 200" fill="none" xmlns="http://www.w3.org/2000/svg"><path d="M0 0h200v200H0z"/><g fill="#fff"><path d="M72.174 121.562c-1.125.636-2.375.954-3.75.954-1.6 0-2.893-.516-3.883-1.547-.984-1.031-1.476-2.396-1.476-4.094 0-1.734.546-3.156 1.64-4.266 1.099-1.114 2.49-1.671 4.172-1.671 1.219 0 2.242.197 3.07.593v1.453c-.906-.573-1.979-.859-3.219-.859-1.255 0-2.283.432-3.085 1.297-.802.864-1.204 1.984-1.204 3.359 0 1.417.373 2.531 1.118 3.344.744.807 1.755 1.211 3.03 1.211.876 0 1.634-.175 2.274-.524v-3.14h-2.453v-1.188h3.766v5.078Zm8.867-2.914h-5.648c.02.891.26 1.579.718 2.063.459.484 1.089.727 1.891.727.901 0 1.73-.297 2.484-.891v1.203c-.703.51-1.633.766-2.789.766-1.13 0-2.018-.362-2.664-1.086-.646-.729-.969-1.753-.969-3.071 0-1.244.352-2.257 1.055-3.039.709-.786 1.586-1.179 2.633-1.179s1.857.338 2.43 1.015c.573.677.859 1.617.859 2.821v.671Zm-1.313-1.086c-.005-.739-.184-1.315-.538-1.726-.35-.412-.837-.617-1.462-.617a2.07 2.07 0 0 0-1.538.648c-.422.432-.683.998-.782 1.695h4.32Zm9.899 4.766h-1.281v-4.562c0-1.698-.62-2.547-1.86-2.547-.64 0-1.172.242-1.593.726-.417.479-.625 1.086-.625 1.821v4.562h-1.282v-8h1.282v1.328h.03c.605-1.01 1.48-1.515 2.626-1.515.875 0 1.544.283 2.008.851.463.563.695 1.378.695 2.446v4.89Zm8.852-3.68H92.83c.02.891.26 1.579.719 2.063.458.484 1.088.727 1.89.727.902 0 1.73-.297 2.485-.891v1.203c-.703.51-1.633.766-2.79.766-1.13 0-2.017-.362-2.663-1.086-.646-.729-.969-1.753-.969-3.071 0-1.244.352-2.257 1.055-3.039.708-.786 1.586-1.179 2.632-1.179 1.047 0 1.857.338 2.43 1.015.573.677.86 1.617.86 2.821v.671Zm-1.313-1.086c-.005-.739-.185-1.315-.539-1.726-.349-.412-.836-.617-1.461-.617a2.07 2.07 0 0 0-1.539.648c-.422.432-.682.998-.781 1.695h4.32Zm7.43-1.937c-.224-.172-.547-.258-.969-.258-.547 0-1.005.258-1.375.774-.365.515-.547 1.218-.547 2.109v4.078h-1.281v-8h1.281v1.649h.031c.183-.563.461-1 .836-1.313a1.897 1.897 0 0 1 1.258-.476c.333 0 .589.036.766.109v1.328Zm7.117 6.703h-1.281v-1.25h-.032c-.557.958-1.377 1.438-2.461 1.438-.796 0-1.421-.211-1.875-.633-.447-.422-.671-.982-.671-1.68 0-1.495.88-2.364 2.64-2.609l2.399-.336c0-1.36-.55-2.039-1.649-2.039-.963 0-1.833.328-2.609.984v-1.312c.786-.5 1.693-.75 2.719-.75 1.88 0 2.82.994 2.82 2.984v5.203Zm-1.281-4.047-1.93.266c-.594.083-1.042.232-1.344.445-.302.209-.453.581-.453 1.117 0 .391.138.711.414.961.281.245.654.368 1.117.368.636 0 1.159-.222 1.571-.665.416-.447.625-1.013.625-1.695v-.797Zm7.406 3.969c-.302.167-.701.25-1.195.25-1.401 0-2.102-.781-2.102-2.344v-4.734h-1.375v-1.094h1.375v-1.953l1.281-.414v2.367h2.016v1.094h-2.016v4.508c0 .536.091.919.274 1.148.182.229.484.344.906.344.323 0 .602-.089.836-.266v1.094Zm2.367-9.953a.81.81 0 0 1-.586-.235.791.791 0 0 1-.242-.593c0-.24.081-.438.242-.594a.801.801 0 0 1 .586-.242c.234 0 .432.081.594.242a.78.78 0 0 1 .25.594.79.79 0 0 1-.25.586.811.811 0 0 1-.594.242Zm.625 10.031h-1.281v-8h1.281v8Zm9.234 0h-1.281v-4.562c0-1.698-.62-2.547-1.859-2.547-.641 0-1.172.242-1.594.726-.417.479-.625 1.086-.625 1.821v4.562h-1.281v-8h1.281v1.328h.031c.604-1.01 1.479-1.515 2.625-1.515.875 0 1.545.283 2.008.851.464.563.695 1.378.695 2.446v4.89Zm9.25-.64c0 2.937-1.406 4.406-4.218 4.406-.99 0-1.854-.188-2.594-.563v-1.281c.901.5 1.76.75 2.578.75 1.969 0 2.953-1.047 2.953-3.141v-.875h-.031c-.609 1.021-1.526 1.532-2.75 1.532-.995 0-1.797-.355-2.406-1.063-.604-.713-.907-1.669-.907-2.867 0-1.359.326-2.44.977-3.242.656-.802 1.552-1.203 2.688-1.203 1.078 0 1.877.432 2.398 1.297h.031v-1.11h1.281v7.36Zm-1.281-2.977v-1.18c0-.635-.216-1.179-.648-1.633-.427-.453-.961-.679-1.602-.679-.791 0-1.411.289-1.859.867-.448.573-.672 1.378-.672 2.414 0 .891.213 1.604.641 2.141.432.531 1.002.797 1.711.797.718 0 1.302-.256 1.75-.766.453-.511.679-1.164.679-1.961Zm4.321 3.789a.843.843 0 0 1-.618-.258.857.857 0 0 1-.25-.617c0-.24.084-.445.25-.617a.832.832 0 0 1 .618-.266.84.84 0 0 1 .625.266.844.844 0 0 1 .257.617c0 .24-.086.445-.257.617a.852.852 0 0 1-.625.258Zm3.468 0a.842.842 0 0 1-.617-.258.853.853 0 0 1-.25-.617c0-.24.083-.445.25-.617a.831.831 0 0 1 .617-.266.84.84 0 0 1 .625.266.84.84 0 0 1 .258.617.84.84 0 0 1-.258.617.85.85 0 0 1-.625.258Zm3.469 0a.84.84 0 0 1-.617-.258.853.853 0 0 1-.25-.617c0-.24.083-.445.25-.617a.83.83 0 0 1 .617-.266.84.84 0 0 1 .625.266.84.84 0 0 1 .258.617.84.84 0 0 1-.258.617.85.85 0 0 1-.625.258ZM94.864 97.259h10.274v2.055H94.864v-2.055ZM96.918 101.369h6.165v2.055h-6.165v-2.055ZM94.674 91.238a7.381 7.381 0 0 1-2.892-6.308A8.23 8.23 0 0 1 100 76.711v-2.055A10.285 10.285 0 0 0 89.727 84.93a9.432 9.432 0 0 0 3.555 7.825c1.04.96 1.582 1.505 1.582 2.45h2.055c0-1.891-1.14-2.945-2.245-3.967ZM105.321 91.242c-1.101 1.02-2.238 2.072-2.238 3.963h2.055c0-.946.54-1.49 1.577-2.452a9.444 9.444 0 0 0 3.56-7.822h-2.055a7.406 7.406 0 0 1-2.899 6.311ZM102.056 78.766h10.274v2.054h-10.274v-2.054Z"/></g></svg>