<svg width="279" height="279" fill="none" xmlns="http://www.w3.org/2000/svg"><g clip-path="url(#a)"><path d="M243.383 228.543c16.392 0 29.681-13.289 29.681-29.681 0-16.392-13.289-29.681-29.681-29.681-16.392 0-29.681 13.289-29.681 29.681 0 16.392 13.289 29.681 29.681 29.681Z" fill="url(#b)"/><path d="M29.68 228.543c16.393 0 29.682-13.289 29.682-29.681 0-16.392-13.289-29.681-29.681-29.681C13.289 169.181 0 182.47 0 198.862c0 16.392 13.289 29.681 29.68 29.681Z" fill="url(#c)"/><path fill-rule="evenodd" clip-rule="evenodd" d="M89.043 66.774c-6.91-2.45-11.873-9.053-11.873-16.791 0-9.819 7.99-17.809 17.809-17.809 9.818 0 17.808 7.99 17.808 17.809 0 7.738-4.962 14.34-11.872 16.79v54.919H89.043V66.774Z" fill="url(#d)"/><path d="M89.043 186.989c6.557 0 11.872-5.315 11.872-11.872 0-6.557-5.315-11.872-11.872-11.872-6.558 0-11.873 5.315-11.873 11.872 0 6.557 5.316 11.872 11.873 11.872Z" fill="url(#e)"/><path d="M160.277 216.67h-47.49c-6.557 0-11.872 5.316-11.872 11.873 0 6.557 5.315 11.872 11.872 11.872h47.49c6.557 0 11.872-5.315 11.872-11.872 0-6.557-5.315-11.873-11.872-11.873Z" fill="url(#f)"/><path d="M184.021 186.989c6.557 0 11.873-5.315 11.873-11.872 0-6.557-5.316-11.872-11.873-11.872-6.557 0-11.872 5.315-11.872 11.872 0 6.557 5.315 11.872 11.872 11.872Z" fill="url(#g)"/><g filter="url(#h)"><path d="M29.68 151.373c0-16.39 13.292-29.681 29.682-29.681h154.34c16.39 0 29.681 13.291 29.681 29.681v94.978c0 16.39-13.291 29.681-29.681 29.681H59.362c-16.39 0-29.681-13.291-29.681-29.681v-94.978Z" fill="url(#i)" fill-opacity=".3"/><path d="M30.18 151.373c0-16.114 13.068-29.181 29.182-29.181h154.34c16.114 0 29.181 13.067 29.181 29.181v94.978c0 16.114-13.067 29.181-29.181 29.181H59.362c-16.114 0-29.181-13.067-29.181-29.181v-94.978Z" stroke="url(#j)" stroke-opacity=".1"/></g><path d="M264.584 13.992H162.821c-4.684 0-8.481 18.984-8.481 42.402 0 23.417 3.797 42.401 8.481 42.401h101.763c4.683 0 8.48-18.984 8.48-42.401 0-23.418-3.797-42.402-8.48-42.402Z" fill="url(#k)"/><g filter="url(#l)"><path d="M258.223 2.968h-89.042c-11.475 0-20.777 9.302-20.777 20.777v97.472a5.933 5.933 0 0 0 2.98 5.146 5.921 5.921 0 0 0 5.948-.023l28.298-16.521h72.593c11.475 0 20.777-9.302 20.777-20.776V23.745c0-11.475-9.302-20.777-20.777-20.777Z" fill="url(#m)" fill-opacity=".3"/><path d="M151.634 125.931v-.001a5.432 5.432 0 0 1-2.73-4.713V23.745c0-11.199 9.078-20.277 20.277-20.277h89.042c11.199 0 20.277 9.078 20.277 20.277v65.298c0 11.198-9.078 20.276-20.277 20.276H185.495l-.117.069-28.298 16.52-.001.001a5.422 5.422 0 0 1-5.445.022Z" stroke="url(#n)" stroke-opacity=".1"/></g><path d="M89.043 186.99c6.557 0 11.872-5.316 11.872-11.873 0-6.557-5.315-11.872-11.872-11.872-6.558 0-11.873 5.315-11.873 11.872 0 6.557 5.316 11.873 11.873 11.873Z" fill="url(#o)"/><path d="M160.277 216.67h-47.49c-6.557 0-11.872 5.316-11.872 11.873 0 6.557 5.315 11.872 11.872 11.872h47.49c6.557 0 11.872-5.315 11.872-11.872 0-6.557-5.315-11.873-11.872-11.873Z" fill="url(#p)"/><path d="M184.021 186.99c6.557 0 11.873-5.316 11.873-11.873 0-6.557-5.316-11.872-11.873-11.872-6.557 0-11.872 5.315-11.872 11.872 0 6.557 5.315 11.873 11.872 11.873Z" fill="url(#q)"/><g filter="url(#r)"><path d="M213.702 74.202h-35.617a5.936 5.936 0 0 0 0 11.873h35.617a5.936 5.936 0 0 0 5.936-5.936 5.936 5.936 0 0 0-5.936-5.937Z" fill="#fff" fill-opacity=".16"/></g><g filter="url(#s)"><path d="M249.319 26.713h-71.234a5.936 5.936 0 0 0 0 11.872h71.234a5.936 5.936 0 1 0 0-11.872Z" fill="#fff" fill-opacity=".16"/></g><g filter="url(#t)"><path d="M249.319 50.458h-71.234a5.936 5.936 0 0 0 0 11.872h71.234a5.936 5.936 0 1 0 0-11.872Z" fill="#fff" fill-opacity=".16"/></g></g><defs><linearGradient id="b" x1="226.203" y1="169.181" x2="285.951" y2="188.326" gradientUnits="userSpaceOnUse"><stop stop-color="#684FFF"/><stop offset="1" stop-color="#B871FE"/></linearGradient><linearGradient id="c" x1="12.501" y1="169.181" x2="72.249" y2="188.326" gradientUnits="userSpaceOnUse"><stop stop-color="#684FFF"/><stop offset="1" stop-color="#B871FE"/></linearGradient><linearGradient id="d" x1="84.671" y1="32.174" x2="123.568" y2="37.133" gradientUnits="userSpaceOnUse"><stop stop-color="#684FFF"/><stop offset="1" stop-color="#B871FE"/></linearGradient><linearGradient id="e" x1="82.171" y1="163.245" x2="106.07" y2="170.903" gradientUnits="userSpaceOnUse"><stop stop-color="#684FFF"/><stop offset="1" stop-color="#B871FE"/></linearGradient><linearGradient id="f" x1="115.916" y1="216.67" x2="157.005" y2="256.169" gradientUnits="userSpaceOnUse"><stop stop-color="#684FFF"/><stop offset="1" stop-color="#B871FE"/></linearGradient><linearGradient id="g" x1="177.149" y1="163.245" x2="201.048" y2="170.903" gradientUnits="userSpaceOnUse"><stop stop-color="#684FFF"/><stop offset="1" stop-color="#B871FE"/></linearGradient><linearGradient id="i" x1="29.681" y1="121.692" x2="268.167" y2="205.539" gradientUnits="userSpaceOnUse"><stop stop-color="#D783FF"/><stop offset=".453" stop-color="#858AFF"/></linearGradient><linearGradient id="j" x1="36.359" y1="128.707" x2="243.383" y2="128.707" gradientUnits="userSpaceOnUse"><stop stop-color="#7A3CDE"/><stop offset=".656" stop-color="#D736FF"/></linearGradient><linearGradient id="k" x1="179.343" y1="13.992" x2="289.032" y2="63.2" gradientUnits="userSpaceOnUse"><stop stop-color="#684FFF"/><stop offset="1" stop-color="#B871FE"/></linearGradient><linearGradient id="m" x1="148.404" y1="2.968" x2="301.261" y2="43.785" gradientUnits="userSpaceOnUse"><stop stop-color="#D783FF"/><stop offset=".453" stop-color="#858AFF"/></linearGradient><linearGradient id="n" x1="152.485" y1="8.613" x2="279" y2="8.613" gradientUnits="userSpaceOnUse"><stop stop-color="#7A3CDE"/><stop offset=".656" stop-color="#D736FF"/></linearGradient><linearGradient id="o" x1="82.171" y1="163.245" x2="106.07" y2="170.903" gradientUnits="userSpaceOnUse"><stop stop-color="#684FFF"/><stop offset="1" stop-color="#B871FE"/></linearGradient><linearGradient id="p" x1="115.916" y1="216.67" x2="157.005" y2="256.169" gradientUnits="userSpaceOnUse"><stop stop-color="#684FFF"/><stop offset="1" stop-color="#B871FE"/></linearGradient><linearGradient id="q" x1="177.149" y1="163.245" x2="201.048" y2="170.903" gradientUnits="userSpaceOnUse"><stop stop-color="#684FFF"/><stop offset="1" stop-color="#B871FE"/></linearGradient><filter id="h" x="26.681" y="118.692" width="219.702" height="160.34" filterUnits="userSpaceOnUse" color-interpolation-filters="sRGB"><feFlood flood-opacity="0" result="BackgroundImageFix"/><feGaussianBlur in="BackgroundImageFix" stdDeviation="1.5"/><feComposite in2="SourceAlpha" operator="in" result="effect1_backgroundBlur_32_20930"/><feBlend in="SourceGraphic" in2="effect1_backgroundBlur_32_20930" result="shape"/><feColorMatrix in="SourceAlpha" values="0 0 0 0 0 0 0 0 0 0 0 0 0 0 0 0 0 0 127 0" result="hardAlpha"/><feOffset dy=".5"/><feGaussianBlur stdDeviation="1"/><feComposite in2="hardAlpha" operator="arithmetic" k2="-1" k3="1"/><feColorMatrix values="0 0 0 0 1 0 0 0 0 1 0 0 0 0 1 0 0 0 0.4 0"/><feBlend in2="shape" result="effect2_innerShadow_32_20930"/></filter><filter id="l" x="145.404" y="-.032" width="136.596" height="130.185" filterUnits="userSpaceOnUse" color-interpolation-filters="sRGB"><feFlood flood-opacity="0" result="BackgroundImageFix"/><feGaussianBlur in="BackgroundImageFix" stdDeviation="1.5"/><feComposite in2="SourceAlpha" operator="in" result="effect1_backgroundBlur_32_20930"/><feBlend in="SourceGraphic" in2="effect1_backgroundBlur_32_20930" result="shape"/><feColorMatrix in="SourceAlpha" values="0 0 0 0 0 0 0 0 0 0 0 0 0 0 0 0 0 0 127 0" result="hardAlpha"/><feOffset dy=".5"/><feGaussianBlur stdDeviation="1"/><feComposite in2="hardAlpha" operator="arithmetic" k2="-1" k3="1"/><feColorMatrix values="0 0 0 0 1 0 0 0 0 1 0 0 0 0 1 0 0 0 0.4 0"/><feBlend in2="shape" result="effect2_innerShadow_32_20930"/></filter><filter id="r" x="172.149" y="74.202" width="47.489" height="12.372" filterUnits="userSpaceOnUse" color-interpolation-filters="sRGB"><feFlood flood-opacity="0" result="BackgroundImageFix"/><feBlend in="SourceGraphic" in2="BackgroundImageFix" result="shape"/><feColorMatrix in="SourceAlpha" values="0 0 0 0 0 0 0 0 0 0 0 0 0 0 0 0 0 0 127 0" result="hardAlpha"/><feOffset dy=".5"/><feGaussianBlur stdDeviation=".25"/><feComposite in2="hardAlpha" operator="arithmetic" k2="-1" k3="1"/><feColorMatrix values="0 0 0 0 1 0 0 0 0 1 0 0 0 0 1 0 0 0 0.4 0"/><feBlend in2="shape" result="effect1_innerShadow_32_20930"/></filter><filter id="s" x="172.149" y="26.713" width="83.106" height="12.372" filterUnits="userSpaceOnUse" color-interpolation-filters="sRGB"><feFlood flood-opacity="0" result="BackgroundImageFix"/><feBlend in="SourceGraphic" in2="BackgroundImageFix" result="shape"/><feColorMatrix in="SourceAlpha" values="0 0 0 0 0 0 0 0 0 0 0 0 0 0 0 0 0 0 127 0" result="hardAlpha"/><feOffset dy=".5"/><feGaussianBlur stdDeviation=".25"/><feComposite in2="hardAlpha" operator="arithmetic" k2="-1" k3="1"/><feColorMatrix values="0 0 0 0 1 0 0 0 0 1 0 0 0 0 1 0 0 0 0.4 0"/><feBlend in2="shape" result="effect1_innerShadow_32_20930"/></filter><filter id="t" x="172.149" y="50.458" width="83.106" height="12.372" filterUnits="userSpaceOnUse" color-interpolation-filters="sRGB"><feFlood flood-opacity="0" result="BackgroundImageFix"/><feBlend in="SourceGraphic" in2="BackgroundImageFix" result="shape"/><feColorMatrix in="SourceAlpha" values="0 0 0 0 0 0 0 0 0 0 0 0 0 0 0 0 0 0 127 0" result="hardAlpha"/><feOffset dy=".5"/><feGaussianBlur stdDeviation=".25"/><feComposite in2="hardAlpha" operator="arithmetic" k2="-1" k3="1"/><feColorMatrix values="0 0 0 0 1 0 0 0 0 1 0 0 0 0 1 0 0 0 0.4 0"/><feBlend in2="shape" result="effect1_innerShadow_32_20930"/></filter><clipPath id="a"><path fill="#fff" d="M0 0h279v279H0z"/></clipPath></defs></svg>