<svg width="376" height="362" fill="none" xmlns="http://www.w3.org/2000/svg"><path d="M173.538 41.721c15.152-11.554 108.778 19.008 147.835 120.827 37.501 97.792-55.999 157.417-137.266 152.206-74.344-4.78-171.992-69.066-148.64-149.976 9.145-31.666 45.231-17.109 86.561-48.855 41.339-31.767 36.38-62.64 51.51-74.202Z" fill="url(#a)" fill-opacity=".4"/><g filter="url(#b)" opacity=".98"><path d="M330.381 226.691c12.361 0 22.381-10.004 22.381-22.345S342.742 182 330.381 182 308 192.005 308 204.346s10.02 22.345 22.381 22.345Z" fill="url(#c)"/></g><g filter="url(#d)" opacity=".7"><path d="M69.38 252.506c7.417 0 13.43-6.002 13.43-13.407s-6.013-13.408-13.43-13.408c-7.416 0-13.428 6.003-13.428 13.408 0 7.405 6.012 13.407 13.429 13.407Z" fill="url(#e)"/></g><g filter="url(#f)" opacity=".5"><path d="M51.476 218.989c3.708 0 6.714-3.001 6.714-6.703 0-3.703-3.006-6.704-6.714-6.704-3.708 0-6.714 3.001-6.714 6.704 0 3.702 3.006 6.703 6.714 6.703Z" fill="#BCB3F8"/></g><path d="m123.268 35.428 9.87 28.603 8.46-2.905-9.87-28.603-8.46 2.905Z" fill="url(#g)"/><g filter="url(#h)" opacity=".98"><path d="M126.452 42.455c5.563 0 10.072-4.502 10.072-10.056 0-5.553-4.509-10.055-10.072-10.055-5.562 0-10.071 4.502-10.071 10.055 0 5.554 4.509 10.056 10.071 10.056Z" fill="url(#i)"/></g><path d="M82.66 128.466c16.584-16.424 40.889-30.525 69.649-38.748 24.059-6.882 47.627-8.67 68.038-6.033-16.271-23.307-47.269-35.44-78.669-28.2-36.235 8.357-60.675 39.686-59.019 72.981Z" fill="url(#j)"/><path d="M82.648 128.473c16.584-16.446 40.912-30.524 69.672-38.77 24.037-6.882 47.626-8.648 68.015-6.033-20.232-5.966-35.697-9.564-71.507.827-35.832 10.413-66.27 38.501-66.18 43.976Z" fill="#755FFF"/><path d="M190.567 222.886c61.192-17.519 102.235-61.533 91.673-98.309-10.562-36.776-68.729-52.386-129.921-34.868-61.191 17.519-102.234 61.533-91.673 98.309 10.562 36.775 68.73 52.386 129.921 34.868Z" fill="url(#k)"/><path d="M191.076 221.577c55.25-15.818 92.306-55.568 82.766-88.785-9.539-33.216-62.062-47.32-117.313-31.503-55.25 15.818-92.306 55.568-82.766 88.785 9.54 33.216 62.062 47.321 117.313 31.503Z" fill="#BCB3F8"/><path fill-rule="evenodd" clip-rule="evenodd" d="M157.368 123.366c.761 3.62 6.781 5.43 13.428 4 6.648-1.408 11.415-5.475 10.654-9.095-.784-3.62-6.804-5.43-13.451-4-6.647 1.408-11.415 5.475-10.631 9.095Zm54.948 3.536c.761 3.62 6.781 5.43 13.429 4 6.647-1.408 11.414-5.475 10.654-9.095-.784-3.62-6.804-5.43-13.452-4-6.647 1.408-11.414 5.475-10.631 9.095Zm-100.77 16.776c1.007 3.575 7.139 4.938 13.674 3.061 6.535-1.855 11.011-6.257 9.982-9.832-1.029-3.553-7.162-4.916-13.675-3.062-6.535 1.877-11.011 6.28-9.981 9.833Zm127.628 12.273c.761 3.62 6.781 5.43 13.428 4 6.647-1.408 11.415-5.474 10.654-9.094-.784-3.62-6.804-5.43-13.451-4-6.647 1.407-11.415 5.474-10.631 9.094ZM85.535 179.909c1.007 3.575 7.14 4.938 13.675 3.061 6.535-1.855 11.011-6.257 9.982-9.832-1.03-3.553-7.162-4.916-13.675-3.061-6.535 1.877-11.011 6.279-9.982 9.832Z" fill="url(#l)"/><g filter="url(#m)"><path d="m123.374 188.372-7.632 107.617c22.336 10.726 46.374 17.34 68.374 18.771 40.443 2.592 83.929-10.883 112.778-37.139v-3.709l-69.739-112.623-103.781 27.083Z" fill="url(#n)" fill-opacity=".5"/></g><path d="M183.373 205.388c28.655-7.666 48.253-27.41 43.774-44.099-4.479-16.689-31.339-24.003-59.993-16.337-28.655 7.666-48.254 27.409-43.775 44.098 4.479 16.689 31.339 24.004 59.994 16.338Z" fill="url(#o)"/><path d="M176.407 184.332c22.685-6.069 38.741-19.686 35.861-30.415-2.879-10.728-23.603-14.506-46.288-8.437-22.685 6.069-38.741 19.686-35.861 30.415 2.879 10.728 23.603 14.506 46.288 8.437Z" fill="url(#p)"/><path d="m133.964 219.327 2.417 26.411 1.097-.089-2.395-26.434-1.119.112Z" fill="url(#q)" fill-opacity=".5" opacity=".3"/><path d="m223.865 176.809 32.542 55.954.963-.558-32.542-55.955-.963.559Z" fill="url(#r)" fill-opacity=".5" opacity=".3"/><path d="m159.347 294.482-3.04-30.194a3.994 3.994 0 0 0-7.936-.091l-4.042 32.609a1.119 1.119 0 0 0 1.321 1.229l12.779-2.346c.582-.112.963-.626.918-1.207Z" fill="url(#s)"/><path d="m237.151 216.577-16.597-20.127a2.544 2.544 0 0 0-4.223 2.788l12.964 25.047c.359.693 1.276.805 1.813.246l5.998-6.48a1.12 1.12 0 0 0 .045-1.474Z" fill="url(#t)"/><path d="m158.893 194.221 1.096.201 4.655-25.049-1.096-.201-4.655 25.049Z" fill="url(#u)" fill-opacity=".5" opacity=".3"/><path d="m181.998 159.072 23.679 25.117.806-.76-23.679-25.117-.806.76Z" fill="url(#v)" opacity=".3"/><path d="M257.652 30.45c.518-2.143 3.566-2.143 4.084 0l1.425 5.886a2.1 2.1 0 0 0 1.55 1.549l5.88 1.415c2.146.517 2.146 3.569 0 4.086l-5.88 1.415a2.1 2.1 0 0 0-1.55 1.549l-1.425 5.886c-.518 2.143-3.566 2.143-4.084 0l-1.425-5.886a2.1 2.1 0 0 0-1.55-1.549l-5.88-1.415c-2.146-.517-2.146-3.569 0-4.086l5.88-1.415a2.1 2.1 0 0 0 1.55-1.549l1.425-5.886Z" fill="url(#w)"/><path d="M52.017 246.181c1.829-1.234 4.085.817 3.022 2.748l-2.917 5.299c-.38.69-.341 1.534.101 2.186l3.396 5.005c1.237 1.825-.82 4.076-2.756 3.016l-5.31-2.909a2.108 2.108 0 0 0-2.192.101l-5.02 3.388c-1.829 1.235-4.085-.816-3.022-2.747l2.917-5.299c.38-.69.34-1.534-.101-2.186l-3.396-5.006c-1.237-1.824.82-4.076 2.755-3.015l5.311 2.909a2.108 2.108 0 0 0 2.192-.102l5.02-3.388Z" fill="url(#x)"/><path d="M49.216 117.692c.519-2.142 3.566-2.142 4.084 0l1.425 5.886a2.103 2.103 0 0 0 1.55 1.549l5.88 1.416c2.146.516 2.146 3.568 0 4.085l-5.88 1.416a2.1 2.1 0 0 0-1.55 1.548l-1.425 5.886c-.518 2.143-3.565 2.143-4.084 0l-1.424-5.886a2.1 2.1 0 0 0-1.55-1.548l-5.88-1.416c-2.146-.517-2.146-3.569 0-4.085l5.88-1.416a2.103 2.103 0 0 0 1.55-1.549l1.424-5.886Z" fill="url(#y)"/><path d="M115.338 287.438c.519-2.142 3.566-2.142 4.085 0l1.424 5.886a2.104 2.104 0 0 0 1.55 1.549l5.881 1.416c2.145.516 2.145 3.568 0 4.085l-5.881 1.416a2.1 2.1 0 0 0-1.55 1.548l-1.424 5.887c-.519 2.142-3.566 2.142-4.085 0l-1.424-5.887a2.1 2.1 0 0 0-1.55-1.548l-5.881-1.416c-2.145-.517-2.145-3.569 0-4.085l5.881-1.416a2.104 2.104 0 0 0 1.55-1.549l1.424-5.886Z" fill="url(#z)"/><path d="M314.051 126.661c.519-2.143 3.566-2.143 4.084 0l1.425 5.886a2.1 2.1 0 0 0 1.55 1.548l5.88 1.416c2.146.517 2.146 3.569 0 4.086l-5.88 1.415a2.102 2.102 0 0 0-1.55 1.549l-1.425 5.886c-.518 2.143-3.565 2.143-4.084 0l-1.424-5.886a2.104 2.104 0 0 0-1.55-1.549l-5.881-1.415c-2.145-.517-2.145-3.569 0-4.086l5.881-1.416a2.1 2.1 0 0 0 1.55-1.548l1.424-5.886Z" fill="url(#A)"/><path d="M295.88 268.016c.247-1.02 1.697-1.02 1.944 0l1.189 4.913a1 1 0 0 0 .738.737l4.916 1.184c1.021.246 1.021 1.698 0 1.944l-4.916 1.184a1 1 0 0 0-.738.737l-1.189 4.913c-.247 1.02-1.697 1.02-1.944 0l-1.189-4.913a1 1 0 0 0-.738-.737l-4.915-1.184c-1.021-.246-1.021-1.698 0-1.944l4.915-1.184a1 1 0 0 0 .738-.737l1.189-4.913Z" fill="url(#B)"/><path d="M211.877 261.184c.519-2.142 3.566-2.142 4.085 0l1.424 5.886a2.102 2.102 0 0 0 1.55 1.549l5.881 1.416c2.145.516 2.145 3.568 0 4.085l-5.881 1.416a2.1 2.1 0 0 0-1.55 1.548l-1.424 5.887c-.519 2.142-3.566 2.142-4.085 0l-1.424-5.887a2.1 2.1 0 0 0-1.55-1.548l-5.88-1.416c-2.146-.517-2.146-3.569 0-4.085l5.88-1.416a2.1 2.1 0 0 0 1.55-1.549l1.424-5.886Z" fill="url(#C)"/><path d="M177.364 223.805c-.333-1.304.874-2.48 2.173-2.115l7.619 2.135c1.299.364 1.716 1.995.75 2.935l-5.663 5.513c-.966.941-2.59.485-2.924-.819l-1.955-7.649Z" fill="url(#D)"/><defs><linearGradient id="a" x1="179.775" y1="-5.466" x2="182.387" y2="478.567" gradientUnits="userSpaceOnUse"><stop stop-color="#fff" stop-opacity="0"/><stop offset="1" stop-color="#1F1D2B"/></linearGradient><linearGradient id="c" x1="317.427" y1="182" x2="362.466" y2="196.455" gradientUnits="userSpaceOnUse"><stop stop-color="#684FFF"/><stop offset="1" stop-color="#B871FE"/></linearGradient><linearGradient id="e" x1="61.608" y1="225.691" x2="88.632" y2="234.364" gradientUnits="userSpaceOnUse"><stop stop-color="#684FFF"/><stop offset="1" stop-color="#B871FE"/></linearGradient><linearGradient id="g" x1="1389.59" y1="1471.88" x2="627.813" y2="1575.35" gradientUnits="userSpaceOnUse"><stop stop-color="#FFCE8F"/><stop offset=".384" stop-color="#FFD093"/><stop offset="1" stop-color="#FFF7EB"/></linearGradient><linearGradient id="i" x1="120.623" y1="22.344" x2="140.891" y2="28.849" gradientUnits="userSpaceOnUse"><stop stop-color="#684FFF"/><stop offset="1" stop-color="#B871FE"/></linearGradient><linearGradient id="j" x1="111.593" y1="53.398" x2="225.202" y2="120.209" gradientUnits="userSpaceOnUse"><stop stop-color="#684FFF"/><stop offset="1" stop-color="#B871FE"/></linearGradient><linearGradient id="k" x1="88.189" y1="108.069" x2="309.039" y2="155.199" gradientUnits="userSpaceOnUse"><stop stop-color="#684FFF"/><stop offset="1" stop-color="#B871FE"/></linearGradient><linearGradient id="l" x1="122.863" y1="113.781" x2="241.624" y2="210.478" gradientUnits="userSpaceOnUse"><stop stop-color="#684FFF"/><stop offset="1" stop-color="#B871FE"/></linearGradient><linearGradient id="n" x1="153.892" y1="161.289" x2="329.869" y2="227.712" gradientUnits="userSpaceOnUse"><stop stop-color="#684FFF"/><stop offset="1" stop-color="#B871FE"/></linearGradient><linearGradient id="o" x1="137.123" y1="152.986" x2="238.596" y2="177.913" gradientUnits="userSpaceOnUse"><stop stop-color="#684FFF"/><stop offset="1" stop-color="#B871FE"/></linearGradient><linearGradient id="p" x1="142.206" y1="151.84" x2="216.068" y2="177.425" gradientUnits="userSpaceOnUse"><stop stop-color="#684FFF"/><stop offset="1" stop-color="#B871FE"/></linearGradient><linearGradient id="q" x1="310.189" y1="219.215" x2="509.283" y2="2857.04" gradientUnits="userSpaceOnUse"><stop stop-color="#fff"/><stop offset="1" stop-color="#FEA93B"/></linearGradient><linearGradient id="r" x1="1898.88" y1="176.25" x2="1994.18" y2="5826.32" gradientUnits="userSpaceOnUse"><stop stop-color="#fff"/><stop offset="1" stop-color="#FEA93B"/></linearGradient><linearGradient id="s" x1="147.486" y1="260.695" x2="163.894" y2="262.81" gradientUnits="userSpaceOnUse"><stop stop-color="#684FFF"/><stop offset="1" stop-color="#B871FE"/></linearGradient><linearGradient id="t" x1="220.084" y1="194.32" x2="243.214" y2="199.641" gradientUnits="userSpaceOnUse"><stop stop-color="#684FFF"/><stop offset="1" stop-color="#B871FE"/></linearGradient><linearGradient id="u" x1="446.455" y1="169.172" x2="557.102" y2="2689.49" gradientUnits="userSpaceOnUse"><stop stop-color="#fff"/><stop offset="1" stop-color="#FDA633"/></linearGradient><linearGradient id="v" x1="1406.68" y1="158.313" x2="1434.02" y2="2746.43" gradientUnits="userSpaceOnUse"><stop stop-color="#fff"/><stop offset="1" stop-color="#FDA633"/></linearGradient><linearGradient id="w" x1="248.476" y1="22.012" x2="287.471" y2="34.539" gradientUnits="userSpaceOnUse"><stop stop-color="#684FFF"/><stop offset="1" stop-color="#B871FE"/></linearGradient><linearGradient id="x" x1="50.942" y1="233.774" x2="71.278" y2="269.246" gradientUnits="userSpaceOnUse"><stop stop-color="#684FFF"/><stop offset="1" stop-color="#B871FE"/></linearGradient><linearGradient id="y" x1="40.041" y1="109.254" x2="79.035" y2="121.781" gradientUnits="userSpaceOnUse"><stop stop-color="#684FFF"/><stop offset="1" stop-color="#B871FE"/></linearGradient><linearGradient id="z" x1="106.163" y1="279" x2="145.157" y2="291.527" gradientUnits="userSpaceOnUse"><stop stop-color="#684FFF"/><stop offset="1" stop-color="#B871FE"/></linearGradient><linearGradient id="A" x1="304.876" y1="118.223" x2="343.87" y2="130.75" gradientUnits="userSpaceOnUse"><stop stop-color="#684FFF"/><stop offset="1" stop-color="#B871FE"/></linearGradient><linearGradient id="B" x1="289.992" y1="264" x2="313.839" y2="271.661" gradientUnits="userSpaceOnUse"><stop stop-color="#684FFF"/><stop offset="1" stop-color="#B871FE"/></linearGradient><linearGradient id="C" x1="202.702" y1="252.746" x2="241.696" y2="265.273" gradientUnits="userSpaceOnUse"><stop stop-color="#684FFF"/><stop offset="1" stop-color="#B871FE"/></linearGradient><linearGradient id="D" x1="173.269" y1="224.127" x2="188.525" y2="216.489" gradientUnits="userSpaceOnUse"><stop stop-color="#684FFF"/><stop offset="1" stop-color="#B871FE"/></linearGradient><filter id="b" x="308" y="182" width="44.762" height="44.691" filterUnits="userSpaceOnUse" color-interpolation-filters="sRGB"><feFlood flood-opacity="0" result="BackgroundImageFix"/><feBlend in="SourceGraphic" in2="BackgroundImageFix" result="shape"/><feColorMatrix in="SourceAlpha" values="0 0 0 0 0 0 0 0 0 0 0 0 0 0 0 0 0 0 127 0" result="hardAlpha"/><feOffset/><feGaussianBlur stdDeviation="6"/><feComposite in2="hardAlpha" operator="arithmetic" k2="-1" k3="1"/><feColorMatrix values="0 0 0 0 1 0 0 0 0 1 0 0 0 0 1 0 0 0 0.2 0"/><feBlend in2="shape" result="effect1_innerShadow_1220_53494"/></filter><filter id="d" x="55.952" y="225.691" width="26.857" height="26.816" filterUnits="userSpaceOnUse" color-interpolation-filters="sRGB"><feFlood flood-opacity="0" result="BackgroundImageFix"/><feBlend in="SourceGraphic" in2="BackgroundImageFix" result="shape"/><feColorMatrix in="SourceAlpha" values="0 0 0 0 0 0 0 0 0 0 0 0 0 0 0 0 0 0 127 0" result="hardAlpha"/><feOffset/><feGaussianBlur stdDeviation="3.5"/><feComposite in2="hardAlpha" operator="arithmetic" k2="-1" k3="1"/><feColorMatrix values="0 0 0 0 1 0 0 0 0 1 0 0 0 0 1 0 0 0 0.2 0"/><feBlend in2="shape" result="effect1_innerShadow_1220_53494"/></filter><filter id="f" x="44.762" y="205.582" width="13.429" height="13.406" filterUnits="userSpaceOnUse" color-interpolation-filters="sRGB"><feFlood flood-opacity="0" result="BackgroundImageFix"/><feBlend in="SourceGraphic" in2="BackgroundImageFix" result="shape"/><feColorMatrix in="SourceAlpha" values="0 0 0 0 0 0 0 0 0 0 0 0 0 0 0 0 0 0 127 0" result="hardAlpha"/><feOffset/><feGaussianBlur stdDeviation="1.5"/><feComposite in2="hardAlpha" operator="arithmetic" k2="-1" k3="1"/><feColorMatrix values="0 0 0 0 1 0 0 0 0 1 0 0 0 0 1 0 0 0 0.2 0"/><feBlend in2="shape" result="effect1_innerShadow_1220_53494"/></filter><filter id="h" x="116.381" y="22.344" width="20.143" height="20.109" filterUnits="userSpaceOnUse" color-interpolation-filters="sRGB"><feFlood flood-opacity="0" result="BackgroundImageFix"/><feBlend in="SourceGraphic" in2="BackgroundImageFix" result="shape"/><feColorMatrix in="SourceAlpha" values="0 0 0 0 0 0 0 0 0 0 0 0 0 0 0 0 0 0 127 0" result="hardAlpha"/><feOffset/><feGaussianBlur stdDeviation="2.5"/><feComposite in2="hardAlpha" operator="arithmetic" k2="-1" k3="1"/><feColorMatrix values="0 0 0 0 1 0 0 0 0 1 0 0 0 0 1 0 0 0 0.2 0"/><feBlend in2="shape" result="effect1_innerShadow_1220_53494"/></filter><filter id="m" x="102.685" y="148.232" width="207.266" height="179.899" filterUnits="userSpaceOnUse" color-interpolation-filters="sRGB"><feFlood flood-opacity="0" result="BackgroundImageFix"/><feGaussianBlur in="BackgroundImageFix" stdDeviation="6.528"/><feComposite in2="SourceAlpha" operator="in" result="effect1_backgroundBlur_1220_53494"/><feBlend in="SourceGraphic" in2="effect1_backgroundBlur_1220_53494" result="shape"/></filter></defs></svg>