<svg width="72" height="72" viewBox="0 0 72 72" fill="none" xmlns="http://www.w3.org/2000/svg">
<g id="JarvisBot">
<rect id="Rectangle 34625730" width="72" height="72" rx="36" fill="url(#paint0_linear_4980_113131)"/>
<g id="Group 1410068338">
<g id="robot">
<path id="Subtract" fill-rule="evenodd" clip-rule="evenodd" d="M16.4475 31.3143C18.2223 25.7223 22.5354 21.7226 34.5186 20.831C37.6731 20.7493 42.2774 21.1153 46.4995 22.6289C54.9925 25.6737 58.5469 36.2526 55.7423 44.8034C54.4879 48.6278 51.8266 51.916 46.6015 53.2746C40.1077 54.1758 25.1027 54.9851 19.4757 50.3258C18.1695 49.2441 16.7594 47.7081 15.9878 43.0539C15.5191 40.2269 15.65 37.3398 15.8888 34.4843C15.9784 33.4122 16.1219 32.34 16.4475 31.3143ZM18.2529 42.9001C18.86 44.9934 20.1019 46.0074 23.6217 45.6445C29.3428 45.0546 39.6508 45.3987 44.0897 45.6445C44.7813 45.671 45.6865 45.5362 46.5812 45.1218C51.812 42.6986 51.4732 35.4884 49.5368 30.0728C48.06 25.9422 42.4298 24.0267 38.0324 23.8935C35.2097 23.808 31.6616 24.011 27.0744 24.7524C22.8823 25.7356 18.9373 27.2103 17.9503 32.6176C17.6224 36.0472 17.293 39.5905 18.2529 42.9001Z" fill="white"/>
<path id="Ellipse 4054" d="M37.7996 15.5863C37.7996 17.5746 36.1878 19.1863 34.1996 19.1863C32.2114 19.1863 30.5996 17.5746 30.5996 15.5863C30.5996 13.5981 32.2114 11.9863 34.1996 11.9863C36.1878 11.9863 37.7996 13.5981 37.7996 15.5863Z" fill="white"/>
<path id="Rectangle 34625726" d="M33.2393 17.8848H34.7189V20.3427H33.2393V17.8848Z" fill="white"/>
<path id="Rectangle 34625727" d="M39.6973 33.5504C39.6973 32.2249 40.7718 31.1504 42.0973 31.1504H43.2974C44.6229 31.1504 45.6974 32.2249 45.6974 33.5504V37.7505C45.6974 39.076 44.6229 40.1505 43.2974 40.1505H42.0973C40.7718 40.1505 39.6973 39.076 39.6973 37.7505V33.5504Z" fill="white"/>
<path id="Rectangle 34625728" d="M21.9414 34.0562C21.9414 32.7308 23.0159 31.6562 24.3414 31.6562H25.5415C26.867 31.6562 27.9415 32.7308 27.9415 34.0562V38.2564C27.9415 39.5819 26.867 40.6564 25.5415 40.6564H24.3414C23.0159 40.6564 21.9414 39.5819 21.9414 38.2564V34.0562Z" fill="white"/>
<path id="Subtract_2" fill-rule="evenodd" clip-rule="evenodd" d="M57.1159 43.4605C58.1029 39.4431 57.7607 35.102 56.2275 31.3672L56.2321 31.1504L57.303 31.1728C59.1625 31.2117 60.6383 32.7458 60.5993 34.5992L60.4819 40.1743C60.4433 42.0038 58.9431 43.4607 57.1159 43.4605Z" fill="white"/>
<path id="Subtract_3" fill-rule="evenodd" clip-rule="evenodd" d="M15.9833 31.2322C15.9737 31.262 15.9641 31.2918 15.9546 31.3217C15.6291 32.3474 15.4855 33.4196 15.3959 34.4918C15.1571 37.3473 15.0262 40.2344 15.4949 43.0615C15.5139 43.1758 15.5332 43.2882 15.5529 43.3988C13.9753 43.1492 12.7525 41.8038 12.7178 40.1541L12.6004 34.5792C12.5615 32.7336 14.0251 31.203 15.8765 31.1532L15.9816 31.1504L15.9833 31.2322Z" fill="white"/>
<path id="Rectangle 34625729" d="M30.1725 21.5817C30.1457 20.8506 30.7168 20.2362 31.448 20.2096L36.4184 20.0286C37.1495 20.002 37.764 20.5732 37.7908 21.3043L30.1725 21.5817Z" fill="white"/>
</g>
</g>
</g>
<defs>
<linearGradient id="paint0_linear_4980_113131" x1="9.6" y1="9" x2="102.6" y2="69" gradientUnits="userSpaceOnUse">
<stop stop-color="#20E3FD"/>
<stop offset="0.535" stop-color="#A025C3"/>
<stop offset="1" stop-color="#F68630"/>
</linearGradient>
</defs>
</svg>
