<svg width="297" height="389" viewBox="0 0 297 389" fill="none" xmlns="http://www.w3.org/2000/svg">
<g id="Group 2087324103">
<g id="Group">
<g id="Group_2">
<path id="Vector" d="M32.2016 101.498C29.7473 102.13 27.767 105.352 27.8098 110.023C25.9842 105.533 24.3139 103.583 27.8395 98.4298C29.7885 95.581 30.3983 96.589 30.3983 96.589C30.3983 96.589 34.656 100.866 32.2016 101.498Z" fill="url(#paint0_linear_6300_116353)"/>
</g>
</g>
<g id="Group_3">
<g id="Group_4">
<path id="Vector_2" d="M295.555 129.044C291.961 129.352 289.487 131.066 290.282 133.589C286.833 131.139 284.015 130.063 288.512 127.328C290.999 125.816 292.074 126.368 292.074 126.368C292.074 126.368 299.148 128.736 295.555 129.044Z" fill="url(#paint1_linear_6300_116353)"/>
</g>
</g>
<g id="Group_5">
<g id="Group_6">
<path id="Vector_3" d="M0.00316471 226.493L9.21848 221.999L14.4497 232.724L5.23438 237.219L0.00316471 226.493Z" fill="url(#paint2_linear_6300_116353)"/>
</g>
</g>
<g id="Group_7">
<g id="Group_8">
<path id="Vector_4" d="M110.781 183.346C111.142 186.489 114.804 189.5 120.615 190.268C114.721 191.734 112.01 193.455 106.216 188.195C103.013 185.288 104.37 184.712 104.37 184.712C104.37 184.712 110.42 180.204 110.781 183.346Z" fill="url(#paint3_linear_6300_116353)"/>
</g>
</g>
<g id="Group_9">
<g id="Group_10">
<path id="Vector_5" d="M156.889 115.992C153.553 119.639 153.756 127.045 158.807 134.683C151.036 129.237 146.228 127.803 146.491 115.579C146.636 108.822 148.707 109.832 148.707 109.832C148.707 109.832 160.224 112.344 156.889 115.992Z" fill="url(#paint4_linear_6300_116353)"/>
</g>
</g>
<g id="Group_11">
<g id="Group_12">
<path id="Vector_6" d="M209 254.761L231.064 244L234.134 250.295L212.07 261.057L209 254.761Z" fill="#BD75EE"/>
</g>
</g>
<g id="Group_13">
<g id="Group_14">
<path id="Vector_7" d="M215.998 6.33582L217.696 -0.00249522L225.073 1.97418L223.375 8.3125L215.998 6.33582Z" fill="url(#paint5_linear_6300_116353)"/>
</g>
</g>
<g id="Group_15">
<g id="Group_16">
<path id="Vector_8" d="M169.19 21.1644L156.916 25.1407L158.281 35.65C158.281 35.65 170.613 31.0268 170.358 29.3405C169.993 26.9208 169.19 21.1644 169.19 21.1644Z" fill="url(#paint6_linear_6300_116353)"/>
</g>
</g>
<g id="Group_17">
<g id="Group_18">
<path id="Vector_9" d="M118.385 64.8397C118.141 69.3588 119.838 72.7332 123.112 72.1858C119.466 76.0437 117.637 79.3575 115.023 73.2912C113.578 69.9376 114.452 68.6982 114.452 68.6982C114.452 68.6982 118.63 60.3207 118.385 64.8397Z" fill="url(#paint7_linear_6300_116353)"/>
</g>
</g>
<g id="Group_19">
<g id="Group_20">
<path id="Vector_10" d="M194.091 67.8363C194.091 67.8363 211.587 58.1485 210.894 68.8771C210.201 79.6058 197.872 59.6424 216.386 58.1169" stroke="#FEC456" stroke-width="2" stroke-linecap="round"/>
</g>
</g>
<g id="Group_21">
<g id="Group_22">
<path id="Vector_11" d="M64.5562 178.635C64.5562 178.635 70.1614 159.511 64.7488 163.561C59.3362 167.611 68.8284 172.56 70.3814 155.101" stroke="#FEC456" stroke-width="2" stroke-linecap="round"/>
</g>
</g>
<g id="Group_23">
<g id="Group_24">
<path id="Vector_12" d="M151.541 378.277L146.256 378L145.996 382.953L151.281 383.23L151.541 378.277Z" fill="#3497FD"/>
</g>
</g>
<g id="Group_25">
<g id="Group_26">
<path id="Vector_13" d="M98.7417 331.998L103.932 332.636L103.19 338.676L98 338.039L98.7417 331.998Z" fill="url(#paint8_linear_6300_116353)"/>
</g>
</g>
<g id="Group_27">
<g id="Group_28">
<path id="Vector_14" d="M167.002 247.078L169.446 247.206L169.764 241.128L167.32 241L167.002 247.078Z" fill="url(#paint9_linear_6300_116353)"/>
</g>
</g>
<g id="Group_29">
<g id="Group_30">
<path id="Vector_15" d="M247.998 105.087L256.377 101.001L260.926 110.327L252.547 114.414L247.998 105.087Z" fill="#3497FD"/>
</g>
</g>
<g id="Group_31">
<g id="Group_32">
<path id="Vector_16" d="M207.718 141.821L228.933 153.148L232.772 140.08L212.264 130.177L207.718 141.821Z" fill="url(#paint10_linear_6300_116353)"/>
</g>
</g>
<g id="Group_33">
<path id="Vector_17" d="M217.331 198.324C211.751 202.668 209.512 208.128 213.514 211.429C205.227 211.083 199.444 212.323 203.918 203.022C206.391 197.88 208.749 197.641 208.749 197.641C208.749 197.641 222.911 193.98 217.331 198.324Z" fill="url(#paint11_linear_6300_116353)"/>
</g>
<g id="Group_34">
<g id="Group_35">
<path id="Vector_18" d="M82.8891 362.153C82.8891 362.153 55.4808 376.941 66.7076 379.784C77.9343 382.626 70.9859 363.328 50.5368 381.868" stroke="#FEC456" stroke-width="2" stroke-linecap="round"/>
</g>
</g>
<g id="Group_36">
<g id="Group_37">
<path id="Vector_19" d="M163.427 158.999L173.001 153.471L171.574 151L162 156.527L163.427 158.999Z" fill="#3497FD"/>
</g>
</g>
<g id="Group_38">
<g id="Group_39">
<path id="Vector_20" d="M86.9998 126.917L109.384 116L112.454 122.296L90.0703 133.213L86.9998 126.917Z" fill="#BD75EE"/>
</g>
</g>
<path id="Vector_21" d="M248.998 244.066L253.036 228.995L257.366 230.156L253.328 245.227L248.998 244.066Z" fill="#BD75EE"/>
</g>
<defs>
<linearGradient id="paint0_linear_6300_116353" x1="3.5499" y1="107.578" x2="5.16228" y2="94.4457" gradientUnits="userSpaceOnUse">
<stop stop-color="#5861AB"/>
<stop offset="0.5" stop-color="#7D449F"/>
<stop offset="1" stop-color="#A32693"/>
</linearGradient>
<linearGradient id="paint1_linear_6300_116353" x1="253.405" y1="131.94" x2="253.775" y2="124.869" gradientUnits="userSpaceOnUse">
<stop stop-color="#5861AB"/>
<stop offset="0.5" stop-color="#7D449F"/>
<stop offset="1" stop-color="#A32693"/>
</linearGradient>
<linearGradient id="paint2_linear_6300_116353" x1="12.7988" y1="241.034" x2="-0.506666" y2="213.753" gradientUnits="userSpaceOnUse">
<stop stop-color="#F72E67"/>
<stop offset="0.5" stop-color="#F75851"/>
<stop offset="1" stop-color="#F8833B"/>
</linearGradient>
<linearGradient id="paint3_linear_6300_116353" x1="113.388" y1="219.803" x2="97.3509" y2="215.506" gradientUnits="userSpaceOnUse">
<stop stop-color="#5861AB"/>
<stop offset="0.5" stop-color="#7D449F"/>
<stop offset="1" stop-color="#A32693"/>
</linearGradient>
<linearGradient id="paint4_linear_6300_116353" x1="116.569" y1="156.438" x2="105.197" y2="133.122" gradientUnits="userSpaceOnUse">
<stop stop-color="#5861AB"/>
<stop offset="0.5" stop-color="#7D449F"/>
<stop offset="1" stop-color="#A32693"/>
</linearGradient>
<linearGradient id="paint5_linear_6300_116353" x1="228.394" y1="6.2606" x2="209.63" y2="1.23295" gradientUnits="userSpaceOnUse">
<stop stop-color="#F72E67"/>
<stop offset="0.5" stop-color="#F75851"/>
<stop offset="1" stop-color="#F8833B"/>
</linearGradient>
<linearGradient id="paint6_linear_6300_116353" x1="147.5" y1="70.0994" x2="163.798" y2="73.2672" gradientUnits="userSpaceOnUse">
<stop stop-color="#AB5858"/>
<stop offset="0.5" stop-color="#A73F76"/>
<stop offset="1" stop-color="#A32693"/>
</linearGradient>
<linearGradient id="paint7_linear_6300_116353" x1="114.623" y1="117.724" x2="105.901" y2="116.029" gradientUnits="userSpaceOnUse">
<stop stop-color="#5861AB"/>
<stop offset="0.5" stop-color="#7D449F"/>
<stop offset="1" stop-color="#A32693"/>
</linearGradient>
<linearGradient id="paint8_linear_6300_116353" x1="100.176" y1="341.772" x2="102.062" y2="326.408" gradientUnits="userSpaceOnUse">
<stop stop-color="#F72E67"/>
<stop offset="0.5" stop-color="#F75851"/>
<stop offset="1" stop-color="#F8833B"/>
</linearGradient>
<linearGradient id="paint9_linear_6300_116353" x1="168.722" y1="237.629" x2="167.912" y2="253.087" gradientUnits="userSpaceOnUse">
<stop stop-color="#F72E67"/>
<stop offset="0.5" stop-color="#F75851"/>
<stop offset="1" stop-color="#F8833B"/>
</linearGradient>
<linearGradient id="paint10_linear_6300_116353" x1="294.41" y1="122.288" x2="283.821" y2="100.58" gradientUnits="userSpaceOnUse">
<stop stop-color="#5861AB"/>
<stop offset="0.5" stop-color="#7D449F"/>
<stop offset="1" stop-color="#A32693"/>
</linearGradient>
<linearGradient id="paint11_linear_6300_116353" x1="151.111" y1="248.098" x2="144.169" y2="236.075" gradientUnits="userSpaceOnUse">
<stop stop-color="#5861AB"/>
<stop offset="0.5" stop-color="#7D449F"/>
<stop offset="1" stop-color="#A32693"/>
</linearGradient>
</defs>
</svg>
