<svg width="208" height="183" viewBox="0 0 208 183" fill="none" xmlns="http://www.w3.org/2000/svg">
<g id="Group 1410068338" filter="url(#filter0_di_6291_115813)">
<g id="robot">
<path id="Subtract" fill-rule="evenodd" clip-rule="evenodd" d="M20.0324 80.5987C27.4273 57.299 45.3987 40.6335 95.3284 36.9186C108.472 36.5783 127.656 38.103 145.249 44.4099C180.636 57.0965 195.446 101.175 183.76 136.803C178.533 152.738 167.445 166.439 145.673 172.1C118.616 175.855 56.0956 179.227 32.65 159.813C27.2072 155.306 21.3319 148.906 18.1169 129.514C16.1641 117.735 16.7095 105.705 17.7043 93.8072C18.0778 89.3401 18.6759 84.8726 20.0324 80.5987ZM27.5547 128.873C30.0843 137.595 35.2589 141.82 49.9248 140.308C73.7625 137.85 116.712 139.284 135.208 140.308C138.09 140.418 141.861 139.857 145.589 138.13C167.384 128.033 165.972 97.991 157.904 75.4258C151.75 58.2152 128.291 50.2339 109.969 49.679C98.2079 49.3227 83.424 50.1687 64.3111 53.2577C46.8438 57.3542 30.4066 63.499 26.2941 86.0292C24.9277 100.319 23.5552 115.083 27.5547 128.873Z" fill="white"/>
<path id="Ellipse 4054" d="M109 14.9999C109 23.2842 102.284 29.9999 93.9999 29.9999C85.7157 29.9999 79 23.2842 79 14.9999C79 6.7157 85.7157 0 93.9999 0C102.284 0 109 6.7157 109 14.9999Z" fill="white"/>
<path id="Rectangle 34625726" d="M90 24.5723H96.165V34.8136H90V24.5723Z" fill="white"/>
<path id="Rectangle 34625727" d="M116.906 89.8623C116.906 84.3394 121.383 79.8623 126.906 79.8623H131.907C137.429 79.8623 141.907 84.3394 141.907 89.8623V107.363C141.907 112.886 137.429 117.363 131.907 117.363H126.906C121.383 117.363 116.906 112.886 116.906 107.363V89.8623Z" fill="white"/>
<path id="Rectangle 34625728" d="M42.9219 91.9653C42.9219 86.4425 47.399 81.9653 52.9218 81.9653H57.9223C63.4451 81.9653 67.9222 86.4425 67.9222 91.9653V109.466C67.9222 114.989 63.4451 119.466 57.9223 119.466H52.9218C47.399 119.466 42.9219 114.989 42.9219 109.466V91.9653Z" fill="white"/>
<path id="Subtract_2" fill-rule="evenodd" clip-rule="evenodd" d="M189.483 131.154C193.595 114.415 192.169 96.3272 185.781 80.7658L185.8 79.8623L190.262 79.9557C198.01 80.1178 204.159 86.5097 203.997 94.2324L203.507 117.462C203.347 125.085 197.096 131.155 189.483 131.154Z" fill="white"/>
<path id="Subtract_3" fill-rule="evenodd" clip-rule="evenodd" d="M18.0986 80.2033C18.0585 80.3273 18.0187 80.4516 17.9792 80.576C16.6227 84.8499 16.0245 89.3174 15.651 93.7847C14.6563 105.682 14.1108 117.712 16.0637 129.492C16.1427 129.968 16.2232 130.436 16.3054 130.897C9.73204 129.857 4.63719 124.251 4.49241 117.378L4.00315 94.1488C3.84118 86.4588 9.93953 80.0816 17.6537 79.8741L18.0914 79.8623L18.0986 80.2033Z" fill="white"/>
<path id="Rectangle 34625729" d="M77.2178 40.0661C77.1061 37.0195 79.4854 34.4599 82.532 34.3489L103.242 33.5949C106.289 33.484 108.849 35.8638 108.96 38.9103L77.2178 40.0661Z" fill="white"/>
</g>
</g>
<defs>
<filter id="filter0_di_6291_115813" x="0" y="0" width="208" height="182.99" filterUnits="userSpaceOnUse" color-interpolation-filters="sRGB">
<feFlood flood-opacity="0" result="BackgroundImageFix"/>
<feColorMatrix in="SourceAlpha" type="matrix" values="0 0 0 0 0 0 0 0 0 0 0 0 0 0 0 0 0 0 127 0" result="hardAlpha"/>
<feOffset dy="4"/>
<feGaussianBlur stdDeviation="2"/>
<feComposite in2="hardAlpha" operator="out"/>
<feColorMatrix type="matrix" values="0 0 0 0 0.686523 0 0 0 0 0.47421 0 0 0 0 0.0620709 0 0 0 0.25 0"/>
<feBlend mode="normal" in2="BackgroundImageFix" result="effect1_dropShadow_6291_115813"/>
<feBlend mode="normal" in="SourceGraphic" in2="effect1_dropShadow_6291_115813" result="shape"/>
<feColorMatrix in="SourceAlpha" type="matrix" values="0 0 0 0 0 0 0 0 0 0 0 0 0 0 0 0 0 0 127 0" result="hardAlpha"/>
<feOffset/>
<feGaussianBlur stdDeviation="0.65"/>
<feComposite in2="hardAlpha" operator="arithmetic" k2="-1" k3="1"/>
<feColorMatrix type="matrix" values="0 0 0 0 0.504476 0 0 0 0 0.454028 0 0 0 0 0 0 0 0 0.25 0"/>
<feBlend mode="normal" in2="shape" result="effect2_innerShadow_6291_115813"/>
</filter>
</defs>
</svg>
