<svg width="36" height="36" viewBox="0 0 36 36" fill="none" xmlns="http://www.w3.org/2000/svg">
<g id="&#233;&#135;&#145;&#229;&#184;&#129;">
<g id="&#233;&#135;&#145;&#229;&#184;&#129;_2">
<path id="Ellipse 696" d="M35 18.0264C35 27.4152 27.3888 35.0264 18 35.0264C8.61116 35.0264 1 27.4152 1 18.0264C1 8.63753 8.61116 1.02637 18 1.02637C27.3888 1.02637 35 8.63753 35 18.0264Z" fill="#FEC424"/>
<path id="Ellipse 696 (Stroke)" fill-rule="evenodd" clip-rule="evenodd" d="M18 30.4089C24.8387 30.4089 30.3825 24.865 30.3825 18.0264C30.3825 11.1877 24.8387 5.64385 18 5.64385C11.1613 5.64385 5.61748 11.1877 5.61748 18.0264C5.61748 24.865 11.1613 30.4089 18 30.4089ZM18 35.0264C27.3888 35.0264 35 27.4152 35 18.0264C35 8.63753 27.3888 1.02637 18 1.02637C8.61116 1.02637 1 8.63753 1 18.0264C1 27.4152 8.61116 35.0264 18 35.0264Z" fill="url(#paint0_linear_5339_142689)"/>
<path id="Ellipse 697 (Stroke)" fill-rule="evenodd" clip-rule="evenodd" d="M18 34.4667C27.0797 34.4667 34.4403 27.1061 34.4403 18.0264C34.4403 8.94664 27.0797 1.58606 18 1.58606C8.92027 1.58606 1.55969 8.94664 1.55969 18.0264C1.55969 27.1061 8.92027 34.4667 18 34.4667ZM18 35.0264C27.3888 35.0264 35 27.4152 35 18.0264C35 8.63753 27.3888 1.02637 18 1.02637C8.61116 1.02637 1 8.63753 1 18.0264C1 27.4152 8.61116 35.0264 18 35.0264Z" fill="url(#paint1_linear_5339_142689)"/>
<path id="Ellipse 698 (Stroke)" fill-rule="evenodd" clip-rule="evenodd" d="M17.9965 30.0869C24.6188 30.0869 29.9873 24.7184 29.9873 18.0961C29.9873 11.4738 24.6188 6.10532 17.9965 6.10532C11.3742 6.10532 6.00571 11.4738 6.00571 18.0961C6.00571 24.7184 11.3742 30.0869 17.9965 30.0869ZM17.9965 30.5067C24.8507 30.5067 30.4071 24.9503 30.4071 18.0961C30.4071 11.2419 24.8507 5.68555 17.9965 5.68555C11.1423 5.68555 5.58594 11.2419 5.58594 18.0961C5.58594 24.9503 11.1423 30.5067 17.9965 30.5067Z" fill="url(#paint2_linear_5339_142689)"/>
<path id="Vector 1734" d="M15.5703 19.1802L16.7846 10.7354H21.6417L20.4275 15.6615H22.856L16.7846 26.2175L17.9989 19.1802H15.5703Z" fill="white" stroke="#C3B61D" stroke-linejoin="round"/>
<path id="Vector 1735" d="M15.3828 18.7382L16.4726 10.1787H20.8315L19.7418 15.1717H21.9213L16.4726 25.871L17.5623 18.7382H15.3828Z" fill="white" stroke="#FFF14E" stroke-linejoin="round"/>
<g id="&#229;&#136;&#134;&#231;&#187;&#132; 1 (2) 1" clip-path="url(#clip0_5339_142689)">
<path id="Vector" d="M34.8368 15.0569C34.2724 11.8617 32.7696 8.84297 30.5154 6.39473C24.1233 -0.579859 13.4066 -0.753039 6.45019 5.6511C2.8802 8.84297 1 13.1826 1 17.6953C1 22.0315 2.5062 26.3711 5.6988 29.7566C7.57899 31.8211 10.0236 33.1386 12.4682 34.0961C13.0326 34.2693 13.597 34.4595 14.3484 34.6497C14.7224 34.6497 15.0998 34.8397 15.4772 34.8397C17.7314 35.0334 19.9857 35.0334 22.0561 34.4595C22.4301 34.2693 22.8076 34.2693 23.1849 34.0961C23.5589 33.9025 23.746 33.9025 24.1233 33.7125C24.6877 33.5223 25.2488 33.3321 25.8132 32.9654C26.1906 32.7753 26.3776 32.7753 26.5647 32.5851C27.6934 32.0112 28.6351 31.2642 29.5735 30.3303C33.708 26.3711 35.5916 20.5238 34.8368 15.0569Z" fill="url(#paint3_linear_5339_142689)"/>
<path id="Vector_2" d="M33.5388 15.3001C33.0178 12.3468 31.6306 9.55668 29.5497 7.29383C23.6493 0.847392 13.757 0.687327 7.33565 6.60651C4.04027 9.55668 2.30469 13.5676 2.30469 17.7387C2.30469 21.7465 3.69503 25.7575 6.64205 28.8866C8.37762 30.7948 10.6342 32.0125 12.8907 32.8975C13.4117 33.0576 13.9327 33.2334 14.6263 33.4092C14.9715 33.4092 15.3199 33.5848 15.6683 33.5848C17.7491 33.7639 19.83 33.7639 21.7412 33.2334C22.0864 33.0576 22.4348 33.0576 22.7831 32.8975C23.1284 32.7186 23.3011 32.7186 23.6493 32.543C24.1703 32.3672 24.6882 32.1914 25.2092 31.8524C25.5577 31.6768 25.7302 31.6768 25.9029 31.501C26.9448 30.9705 27.8141 30.2801 28.6803 29.4169C32.4968 25.7575 34.2355 20.353 33.5388 15.3001Z" fill="url(#paint4_linear_5339_142689)"/>
<path id="Vector_3" d="M32.2484 15.525C31.7708 12.8178 30.4993 10.2602 28.5918 8.18593C23.1831 2.27669 14.1151 2.12997 8.2289 7.55589C5.20813 10.2602 3.61719 13.9369 3.61719 17.7604C3.61719 21.4342 4.89167 25.111 7.59311 27.9793C9.18404 29.7285 11.2525 30.8447 13.3211 31.6559C13.7986 31.8027 14.2762 31.9639 14.912 32.125C15.2285 32.125 15.5478 32.286 15.8672 32.286C17.7746 32.4501 19.682 32.4501 21.434 31.9639C21.7504 31.8027 22.0698 31.8027 22.3891 31.6559C22.7056 31.492 22.8639 31.492 23.1831 31.331C23.6607 31.1698 24.1354 31.0087 24.613 30.698C24.9324 30.537 25.0906 30.537 25.2489 30.3758C26.204 29.8895 27.0008 29.2567 27.7948 28.4654C31.2933 25.111 32.8871 20.1568 32.2484 15.525Z" fill="url(#paint5_linear_5339_142689)"/>
<path id="Vector_4" d="M4.19531 16.1849C4.19531 15.4385 4.38448 14.6924 4.57192 13.9287" stroke="#F9B400" stroke-linejoin="bevel"/>
<path id="Vector_5" d="M5.70312 11.4816C6.45511 10.1626 7.39617 9.03482 8.52415 7.90631C13.7881 3.01212 21.6819 3.01212 26.9459 7.52477" stroke="#F9B400" stroke-linejoin="bevel"/>
<path id="Vector_6" d="M33.0422 21.2696L23.2345 12.7629L18.5538 11.9325L16.696 11.4619L16.2983 12.7629L15.3865 11.9325L12.1172 13.4245L10.1557 14.7322L9.50185 18.6553L10.1582 23.8848L18.5538 35.0004L21.1954 33.9098C21.9246 33.717 22.4946 33.6131 23.2253 33.4195C23.5435 33.2419 23.953 33.2276 24.2727 33.0491C26.2779 32.1441 28.1919 31.0758 29.6747 29.6053C29.9002 29.2651 30.22 29.0866 30.4485 28.7448C30.9124 28.0768 31.5272 27.3052 31.9843 26.6215C32.0507 26.3701 33.0422 15.3848 33.0422 21.2696Z" fill="url(#paint6_linear_5339_142689)"/>
<g id="Group 1410068338" filter="url(#filter0_di_5339_142689)">
<g id="robot">
<path id="Subtract" fill-rule="evenodd" clip-rule="evenodd" d="M9.21251 15.9658C9.98579 13.5294 11.865 11.7867 17.0861 11.3982C18.4605 11.3626 20.4665 11.5221 22.3061 12.1816C26.0065 13.5082 27.5551 18.1174 26.3332 21.8429C25.7866 23.5092 24.6271 24.9419 22.3505 25.5338C19.5212 25.9265 12.9836 26.2791 10.5319 24.249C9.96277 23.7778 9.3484 23.1085 9.01222 21.0807C8.80801 19.849 8.86505 18.5911 8.96907 17.3469C9.00812 16.8798 9.07067 16.4127 9.21251 15.9658ZM9.9991 21.0137C10.2636 21.9257 10.8047 22.3675 12.3383 22.2094C14.831 21.9524 19.3221 22.1023 21.2562 22.2094C21.5575 22.221 21.9519 22.1622 22.3417 21.9817C24.6208 20.9259 24.4731 17.7844 23.6295 15.4248C22.986 13.6252 20.5329 12.7906 18.617 12.7325C17.3872 12.6953 15.8412 12.7838 13.8426 13.1068C12.0161 13.5351 10.2973 14.1777 9.86729 16.5336C9.72441 18.0279 9.58089 19.5717 9.9991 21.0137Z" fill="white"/>
<path id="Ellipse 4054" d="M18.5198 9.1066C18.5198 9.97287 17.8176 10.6751 16.9513 10.6751C16.0851 10.6751 15.3828 9.97287 15.3828 9.1066C15.3828 8.24033 16.0851 7.53809 16.9513 7.53809C17.8176 7.53809 18.5198 8.24033 18.5198 9.1066Z" fill="white"/>
<path id="Rectangle 34625726" d="M16.5312 10.1074H17.1759V11.1783H16.5312V10.1074Z" fill="white"/>
<path id="Rectangle 34625727" d="M19.3438 16.9363C19.3438 16.3588 19.8119 15.8906 20.3894 15.8906H20.9123C21.4898 15.8906 21.958 16.3588 21.958 16.9363V18.7663C21.958 19.3438 21.4898 19.812 20.9123 19.812H20.3894C19.8119 19.812 19.3438 19.3438 19.3438 18.7663V16.9363Z" fill="white"/>
<path id="Rectangle 34625728" d="M11.6094 17.1521C11.6094 16.5746 12.0775 16.1064 12.6551 16.1064H13.1779C13.7554 16.1064 14.2236 16.5746 14.2236 17.1521V18.9821C14.2236 19.5596 13.7554 20.0278 13.1779 20.0278H12.655C12.0775 20.0278 11.6094 19.5596 11.6094 18.9821V17.1521Z" fill="white"/>
<path id="Subtract_2" fill-rule="evenodd" clip-rule="evenodd" d="M26.9339 21.2541C27.364 19.5037 27.2149 17.6123 26.5469 15.9851L26.5489 15.8906L27.0154 15.9004C27.8256 15.9173 28.4686 16.5857 28.4516 17.3933L28.4005 19.8223C28.3837 20.6194 27.7301 21.2542 26.9339 21.2541Z" fill="white"/>
<path id="Subtract_3" fill-rule="evenodd" clip-rule="evenodd" d="M9.01332 15.9263C9.00913 15.9393 9.00497 15.9522 9.00084 15.9652C8.85899 16.4122 8.79644 16.8793 8.75739 17.3465C8.65337 18.5906 8.59633 19.8485 8.80054 21.0803C8.80879 21.1301 8.81722 21.1791 8.82581 21.2272C8.13845 21.1185 7.60569 20.5323 7.59055 19.8135L7.53939 17.3845C7.52246 16.5804 8.16015 15.9136 8.9668 15.8919L9.01257 15.8906L9.01332 15.9263Z" fill="white"/>
<path id="Rectangle 34625729" d="M15.193 11.7272C15.1813 11.4086 15.4301 11.141 15.7487 11.1294L17.9143 11.0505C18.2329 11.0389 18.5006 11.2878 18.5123 11.6064L15.193 11.7272Z" fill="white"/>
</g>
</g>
</g>
</g>
</g>
<defs>
<filter id="filter0_di_5339_142689" x="3.53906" y="7.53809" width="28.9141" height="26.2979" filterUnits="userSpaceOnUse" color-interpolation-filters="sRGB">
<feFlood flood-opacity="0" result="BackgroundImageFix"/>
<feColorMatrix in="SourceAlpha" type="matrix" values="0 0 0 0 0 0 0 0 0 0 0 0 0 0 0 0 0 0 127 0" result="hardAlpha"/>
<feOffset dy="4"/>
<feGaussianBlur stdDeviation="2"/>
<feComposite in2="hardAlpha" operator="out"/>
<feColorMatrix type="matrix" values="0 0 0 0 0.686523 0 0 0 0 0.47421 0 0 0 0 0.0620709 0 0 0 0.25 0"/>
<feBlend mode="normal" in2="BackgroundImageFix" result="effect1_dropShadow_5339_142689"/>
<feBlend mode="normal" in="SourceGraphic" in2="effect1_dropShadow_5339_142689" result="shape"/>
<feColorMatrix in="SourceAlpha" type="matrix" values="0 0 0 0 0 0 0 0 0 0 0 0 0 0 0 0 0 0 127 0" result="hardAlpha"/>
<feOffset/>
<feGaussianBlur stdDeviation="0.65"/>
<feComposite in2="hardAlpha" operator="arithmetic" k2="-1" k3="1"/>
<feColorMatrix type="matrix" values="0 0 0 0 0.504476 0 0 0 0 0.454028 0 0 0 0 0 0 0 0 0.25 0"/>
<feBlend mode="normal" in2="shape" result="effect2_innerShadow_5339_142689"/>
</filter>
<linearGradient id="paint0_linear_5339_142689" x1="30.1899" y1="5.47123" x2="7.69895" y2="31.4076" gradientUnits="userSpaceOnUse">
<stop stop-color="#FED64A"/>
<stop offset="0.123016" stop-color="#FEF14E"/>
<stop offset="0.248796" stop-color="#FFDF6C"/>
<stop offset="0.482583" stop-color="#FCFF67"/>
<stop offset="0.743348" stop-color="#FED545"/>
<stop offset="0.82597" stop-color="#FECA45"/>
<stop offset="1" stop-color="#FEED44"/>
</linearGradient>
<linearGradient id="paint1_linear_5339_142689" x1="14.6548" y1="1.02637" x2="18.7889" y2="35.0264" gradientUnits="userSpaceOnUse">
<stop stop-color="#FFF3C4"/>
<stop offset="0.483894" stop-color="#EDC071"/>
<stop offset="0.961122" stop-color="#BF8147"/>
</linearGradient>
<linearGradient id="paint2_linear_5339_142689" x1="14.899" y1="5.68555" x2="26.1042" y2="27.8005" gradientUnits="userSpaceOnUse">
<stop stop-color="#C8892B"/>
<stop offset="0.979601" stop-color="#FFEDA3"/>
</linearGradient>
<linearGradient id="paint3_linear_5339_142689" x1="27.1611" y1="29.7805" x2="15.9421" y2="1.77707" gradientUnits="userSpaceOnUse">
<stop stop-color="#CF9700"/>
<stop offset="0.283038" stop-color="#D9B757"/>
<stop offset="0.661233" stop-color="#F4B420"/>
<stop offset="1" stop-color="#FFE269"/>
</linearGradient>
<linearGradient id="paint4_linear_5339_142689" x1="26.3541" y1="28.8752" x2="15.9405" y2="2.97376" gradientUnits="userSpaceOnUse">
<stop stop-color="#DEA300"/>
<stop offset="0.280121" stop-color="#FFE8A8"/>
<stop offset="0.664251" stop-color="#F4C966"/>
<stop offset="1" stop-color="#FFEFAD"/>
</linearGradient>
<linearGradient id="paint5_linear_5339_142689" x1="16.4762" y1="12.2743" x2="24.0822" y2="24.6541" gradientUnits="userSpaceOnUse">
<stop stop-color="#FFD44F"/>
<stop offset="1" stop-color="#FFA607"/>
</linearGradient>
<linearGradient id="paint6_linear_5339_142689" x1="17.3719" y1="17.3064" x2="24.2701" y2="25.7856" gradientUnits="userSpaceOnUse">
<stop stop-color="#FAA404"/>
<stop offset="1" stop-color="#FF7904" stop-opacity="0"/>
</linearGradient>
<clipPath id="clip0_5339_142689">
<rect width="34" height="34.7099" fill="white" transform="translate(1 1)"/>
</clipPath>
</defs>
</svg>
