<svg width="74" height="65" viewBox="0 0 74 65" fill="none" xmlns="http://www.w3.org/2000/svg">
<g id="Group 1410068848">
<g id="robot">
<path id="Subtract" d="M47.9543 52.8153L47.9543 52.8154L47.9628 52.8157C49.0913 52.8589 50.5497 52.6398 51.9888 51.9732C56.1822 50.0306 58.1114 46.171 58.6227 41.8219C59.1329 37.4826 58.2456 32.5927 56.7533 28.4191C55.5667 25.1004 52.7296 22.7162 49.3996 21.143C46.0649 19.5677 42.1757 18.7748 38.7669 18.6715C34.4286 18.5401 28.9897 18.8526 21.9739 19.9865L21.9566 19.9893L21.9396 19.9933C18.7371 20.7444 15.5542 21.6979 12.9797 23.5378C10.382 25.3943 8.43303 28.1311 7.6583 32.3755L7.65447 32.3965L7.65244 32.4177C7.1544 37.6262 6.63718 43.1228 8.13096 48.2734C8.6126 49.9341 9.37359 51.2579 10.7902 52.0633C12.1844 52.8559 14.1245 53.0938 16.8436 52.8134C25.5172 51.9191 41.1882 52.4406 47.9543 52.8153ZM6.33669 30.6305C7.6607 26.4589 9.9181 22.9101 14.0669 20.2258C18.2308 17.5317 24.3419 15.681 33.4224 15.0041C38.1887 14.8819 45.1326 15.4374 51.4855 17.715C64.1034 22.2386 69.4776 38.0302 65.2635 50.8785C63.4001 56.5596 59.4697 61.4254 51.7119 63.4518C46.7852 64.1336 38.6436 64.7792 30.6722 64.3744C26.6789 64.1716 22.7415 63.7058 19.2784 62.8545C15.8086 62.0015 12.8545 60.7709 10.7935 59.0644C9.82709 58.2641 8.8413 57.3128 7.94856 55.7074C7.05137 54.094 6.23447 51.7948 5.65286 48.2866C4.94935 44.0432 5.14376 39.6955 5.50694 35.3515C5.64241 33.7312 5.85737 32.1407 6.33669 30.6305Z" fill="#FF5252" stroke="#E22C2C"/>
<g id="Subtract_2" filter="url(#filter0_i_6391_139669)">
<path fill-rule="evenodd" clip-rule="evenodd" d="M8.61117 48.1341C9.5363 51.3239 11.4288 52.8691 16.7924 52.3161C25.5103 51.4172 41.2179 51.9415 47.982 52.3161C49.036 52.3565 50.4153 52.151 51.7786 51.5195C59.7495 47.8271 59.2332 36.84 56.2825 28.5874C54.032 22.2932 45.4526 19.3743 38.7517 19.1713C34.4504 19.041 29.0437 19.3504 22.0537 20.4801C15.6656 21.9783 9.65417 24.2256 8.15017 32.4653C7.65044 37.6915 7.14848 43.0908 8.61117 48.1341Z" fill="white"/>
</g>
<path id="Rectangle 34625726" d="M31.4531 9.98438H33.7078V13.7298H31.4531V9.98438Z" fill="#FF5252" stroke="#E22C2C" stroke-linejoin="round"/>
<path id="Ellipse 4054" d="M38.4012 6.48578C38.4012 9.51549 35.9452 11.9716 32.9155 11.9716C29.8858 11.9716 27.4297 9.51549 27.4297 6.48578C27.4297 3.45607 29.8858 1 32.9155 1C35.9452 1 38.4012 3.45607 38.4012 6.48578Z" fill="#FF5252" stroke="#E22C2C" stroke-linejoin="round"/>
<path id="Subtract_3" d="M72.4673 43.9551C72.4189 46.2519 70.6936 48.1236 68.4784 48.4295C69.7836 42.5262 69.2637 36.2249 67.0967 30.7276L68.1127 30.7489C70.6717 30.8024 72.6999 32.9131 72.6463 35.4597L72.4673 43.9551Z" fill="#FF5252" stroke="#E22C2C"/>
<path id="Subtract_4" d="M0.501042 35.4292C0.451189 33.0622 2.20015 31.07 4.50517 30.7593C4.08392 32.2401 3.88816 33.765 3.76276 35.2649C3.40469 39.5476 3.20094 43.9199 3.88169 48.2189C2.05812 47.6299 0.722458 45.9415 0.679972 43.9244L0.501042 35.4292Z" fill="#FF5252" stroke="#E22C2C"/>
<path id="Rectangle 34625729" d="M27.3426 15.141C27.5274 14.5408 28.0757 14.0949 28.7389 14.0707L36.3129 13.795C36.9761 13.7708 37.5555 14.1756 37.7838 14.7609L27.3426 15.141Z" fill="#FF5252" stroke="#E22C2C"/>
<path id="Vector 1" d="M32.9121 2.46094C31.3026 2.50047 28.1778 3.43356 28.5547 6.84958" stroke="white" stroke-linecap="round"/>
<path id="Vector 6988" d="M25 29.5L16 39M16 29.5L25 39" stroke="#FF5252" stroke-width="3"/>
<path id="Vector 6989" d="M49 29.5L40 39M40 29.5L49 39" stroke="#FF5252" stroke-width="3"/>
</g>
<path id="light" d="M52.2297 20.2164C51.6501 19.8827 51.0628 19.5722 50.4688 19.2852M60.7089 28.7939C58.8803 25.5024 57.0699 23.8215 54.4917 21.8452" stroke="white" stroke-width="2" stroke-linecap="round" stroke-linejoin="round"/>
<path id="light_2" d="M51.5676 61.6923C54.6925 60.8214 57.1062 59.5287 59.6992 57.0428" stroke="white" stroke-width="2" stroke-linecap="round" stroke-linejoin="round"/>
</g>
<defs>
<filter id="filter0_i_6391_139669" x="3.67969" y="14.4883" width="63.5" height="47.9614" filterUnits="userSpaceOnUse" color-interpolation-filters="sRGB">
<feFlood flood-opacity="0" result="BackgroundImageFix"/>
<feBlend mode="normal" in="SourceGraphic" in2="BackgroundImageFix" result="shape"/>
<feColorMatrix in="SourceAlpha" type="matrix" values="0 0 0 0 0 0 0 0 0 0 0 0 0 0 0 0 0 0 127 0" result="hardAlpha"/>
<feOffset dx="-1" dy="3"/>
<feGaussianBlur stdDeviation="2"/>
<feComposite in2="hardAlpha" operator="arithmetic" k2="-1" k3="1"/>
<feColorMatrix type="matrix" values="0 0 0 0 0 0 0 0 0 0 0 0 0 0 0 0 0 0 0.25 0"/>
<feBlend mode="normal" in2="shape" result="effect1_innerShadow_6391_139669"/>
</filter>
</defs>
</svg>
