<svg width="140" height="90" viewBox="0 0 140 90" fill="none" xmlns="http://www.w3.org/2000/svg">
<g id="GPU" clip-path="url(#clip0_5407_195008)">
<g id="Group 1410068711">
<g id="GPU_2" clip-path="url(#clip1_5407_195008)">
<g id="Group 1410068482">
<g id="Rectangle 34625797">
<g filter="url(#filter0_i_5407_195008)">
<rect x="11" y="17" width="128" height="62" rx="17" fill="#7843EA"/>
</g>
<rect x="11.75" y="17.75" width="126.5" height="60.5" rx="16.25" stroke="#BA9AFF" stroke-width="1.5"/>
</g>
<g id="Group 1410068466">
<g id="Level up">
<path id="Vector" d="M130 71.999C129.973 82.1206 120.643 90.0202 109.74 89.9997H52.2599C41.1602 89.9997 32.0246 81.9797 32 71.999C32.0295 61.8797 41.359 53.9801 52.2599 54.0006H109.735C120.479 53.9211 130.025 61.8797 130 71.999Z" fill="url(#paint0_linear_5407_195008)"/>
<path id="Vector_2" d="M129.999 71.9994C129.972 82.1232 120.64 90.0206 109.739 90.0001H52.2593C44.4716 90.0001 37.6708 86.0424 34.2852 80.2761C64.4836 94.1351 104.883 82.6958 120.707 56.875C126.282 60.0921 129.999 65.6788 129.999 71.9994Z" fill="url(#paint1_linear_5407_195008)"/>
<g id="Vector_3" opacity="0.3" filter="url(#filter1_f_5407_195008)">
<path d="M52.2627 58.5456C65.1326 56.9552 78.1327 56.5531 91.1008 56.4599C104.03 56.2009 126.345 54.6265 124.886 72.0001C122.524 59.1954 109.028 59.8565 97.9728 60.6108C82.7287 60.7039 67.384 60.3995 52.2627 58.5456Z" fill="#E6E6E6" fill-opacity="0.9"/>
</g>
</g>
</g>
<g id="Group 615">
<path id="Vector_4" d="M46.8 50.3827C46.7942 50.3795 46.7894 50.3747 46.7862 50.3689L46.5844 50L46.3827 50.3689C46.3795 50.3747 46.3747 50.3795 46.3689 50.3827L46 50.5844L46.3689 50.7862C46.3747 50.7894 46.3795 50.7942 46.3827 50.8L46.5844 51.1688L46.7862 50.8C46.7894 50.7942 46.7941 50.7894 46.8 50.7862L47.1688 50.5844L46.8 50.3827Z" fill="#F6DFE6"/>
<path id="Vector_5" d="M46.8 50.3827C46.7942 50.3795 46.7894 50.3747 46.7862 50.3689L46.5844 50L46.3827 50.3689C46.3795 50.3747 46.3747 50.3795 46.3689 50.3827L46 50.5844L46.3689 50.7862C46.3747 50.7894 46.3795 50.7942 46.3827 50.8L46.5844 51.1688L46.7862 50.8C46.7894 50.7942 46.7941 50.7894 46.8 50.7862L47.1688 50.5844L46.8 50.3827Z" fill="white" fill-opacity="0.5"/>
</g>
<g id="Group 1410068466_2">
<path id="Vector_6" d="M69.1689 45.0375C69.153 45.0289 69.14 45.0158 69.1314 45L68.5844 44L68.0375 45C68.0289 45.0158 68.0159 45.0288 68 45.0375L67 45.5844L68 46.1313C68.0158 46.14 68.0288 46.153 68.0375 46.1689L68.5844 47.1688L69.1313 46.1689C69.14 46.153 69.153 46.14 69.1688 46.1313L70.1688 45.5844L69.1689 45.0375Z" fill="#F6DFE6"/>
<path id="Vector_7" d="M99.1689 42.0375C99.153 42.0289 99.14 42.0158 99.1314 42L98.5844 41L98.0375 42C98.0289 42.0158 98.0159 42.0288 98 42.0375L97 42.5844L98 43.1313C98.0158 43.14 98.0288 43.153 98.0375 43.1689L98.5844 44.1688L99.1313 43.1689C99.14 43.153 99.153 43.14 99.1688 43.1313L100.169 42.5844L99.1689 42.0375Z" fill="#F6DFE6"/>
<path id="Vector_8" d="M82.1689 38.0375C82.153 38.0289 82.14 38.0158 82.1314 38L81.5844 37L81.0375 38C81.0289 38.0158 81.0159 38.0288 81 38.0375L80 38.5844L81 39.1313C81.0158 39.14 81.0288 39.153 81.0375 39.1689L81.5844 40.1688L82.1313 39.1689C82.14 39.153 82.153 39.14 82.1688 39.1313L83.1688 38.5844L82.1689 38.0375Z" fill="white" fill-opacity="0.5"/>
</g>
<g id="Group 1410068471">
<path id="Vector_9" d="M52.8001 47.3828C52.7943 47.3796 52.7895 47.3748 52.7863 47.3689L52.5845 47L52.3828 47.3689C52.3796 47.3748 52.3748 47.3796 52.3689 47.3828L52 47.5845L52.3689 47.7863C52.3748 47.7895 52.3796 47.7943 52.3828 47.8001L52.5845 48.1691L52.7863 47.8001C52.7895 47.7943 52.7943 47.7895 52.8001 47.7863L53.1691 47.5845L52.8001 47.3828Z" fill="#F6DFE6"/>
<path id="Vector_10" d="M52.8001 47.3828C52.7943 47.3796 52.7895 47.3748 52.7863 47.3689L52.5845 47L52.3828 47.3689C52.3796 47.3748 52.3748 47.3796 52.3689 47.3828L52 47.5845L52.3689 47.7863C52.3748 47.7895 52.3796 47.7943 52.3828 47.8001L52.5845 48.1691L52.7863 47.8001C52.7895 47.7943 52.7943 47.7895 52.8001 47.7863L53.1691 47.5845L52.8001 47.3828Z" fill="white" fill-opacity="0.5"/>
</g>
<g id="Group 1410068472">
<path id="Vector_11" d="M23.8001 66.3828C23.7943 66.3796 23.7895 66.3748 23.7863 66.3689L23.5845 66L23.3828 66.3689C23.3796 66.3748 23.3748 66.3796 23.3689 66.3828L23 66.5845L23.3689 66.7863C23.3748 66.7895 23.3796 66.7943 23.3828 66.8001L23.5845 67.1691L23.7863 66.8001C23.7895 66.7943 23.7943 66.7895 23.8001 66.7863L24.1691 66.5845L23.8001 66.3828Z" fill="#F6DFE6"/>
<path id="Vector_12" d="M23.8001 66.3828C23.7943 66.3796 23.7895 66.3748 23.7863 66.3689L23.5845 66L23.3828 66.3689C23.3796 66.3748 23.3748 66.3796 23.3689 66.3828L23 66.5845L23.3689 66.7863C23.3748 66.7895 23.3796 66.7943 23.3828 66.8001L23.5845 67.1691L23.7863 66.8001C23.7895 66.7943 23.7943 66.7895 23.8001 66.7863L24.1691 66.5845L23.8001 66.3828Z" fill="white" fill-opacity="0.5"/>
</g>
<g id="Group 1410068473">
<path id="Vector_13" d="M19.8001 52.3828C19.7943 52.3796 19.7895 52.3748 19.7863 52.3689L19.5845 52L19.3828 52.3689C19.3796 52.3748 19.3748 52.3796 19.3689 52.3828L19 52.5845L19.3689 52.7863C19.3748 52.7895 19.3796 52.7943 19.3828 52.8001L19.5845 53.1691L19.7863 52.8001C19.7895 52.7943 19.7943 52.7895 19.8001 52.7863L20.1691 52.5845L19.8001 52.3828Z" fill="#F6DFE6"/>
<path id="Vector_14" d="M19.8001 52.3828C19.7943 52.3796 19.7895 52.3748 19.7863 52.3689L19.5845 52L19.3828 52.3689C19.3796 52.3748 19.3748 52.3796 19.3689 52.3828L19 52.5845L19.3689 52.7863C19.3748 52.7895 19.3796 52.7943 19.3828 52.8001L19.5845 53.1691L19.7863 52.8001C19.7895 52.7943 19.7943 52.7895 19.8001 52.7863L20.1691 52.5845L19.8001 52.3828Z" fill="white" fill-opacity="0.5"/>
</g>
<g id="Group 1410068469">
<g id="Vector_15" filter="url(#filter2_f_5407_195008)">
<path d="M26.827 56.3956C26.821 56.3923 26.816 56.3874 26.8127 56.3813L26.6042 56L26.3956 56.3813C26.3923 56.3874 26.3874 56.3923 26.3813 56.3956L26 56.6042L26.3813 56.8127C26.3874 56.816 26.3923 56.821 26.3956 56.827L26.6042 57.2083L26.8127 56.827C26.816 56.821 26.821 56.816 26.827 56.8127L27.2083 56.6042L26.827 56.3956Z" fill="#FF004D"/>
</g>
<path id="Vector_16" d="M26.827 56.3956C26.821 56.3923 26.816 56.3874 26.8127 56.3813L26.6042 56L26.3956 56.3813C26.3923 56.3874 26.3874 56.3923 26.3813 56.3956L26 56.6042L26.3813 56.8127C26.3874 56.816 26.3923 56.821 26.3956 56.827L26.6042 57.2083L26.8127 56.827C26.816 56.821 26.821 56.816 26.827 56.8127L27.2083 56.6042L26.827 56.3956Z" fill="white" fill-opacity="0.5"/>
</g>
<g id="Group 1410068478">
<path id="Vector_17" d="M4.16901 36.8696C4.15317 36.861 4.14016 36.8479 4.13149 36.8321L3.58453 35.832L3.03759 36.8321C3.02893 36.8479 3.01592 36.8609 3.00008 36.8696L2 37.4166L3.00006 37.9635C3.0159 37.9722 3.02891 37.9852 3.03758 38.001L3.58452 39.0011L4.13147 38.001C4.14014 37.9852 4.15315 37.9722 4.16899 37.9635L5.16905 37.4166L4.16901 36.8696Z" fill="#F6DFE6"/>
<path id="Vector_18" d="M4.16901 36.8696C4.15317 36.861 4.14016 36.8479 4.13149 36.8321L3.58453 35.832L3.03759 36.8321C3.02893 36.8479 3.01592 36.8609 3.00008 36.8696L2 37.4166L3.00006 37.9635C3.0159 37.9722 3.02891 37.9852 3.03758 38.001L3.58452 39.0011L4.13147 38.001C4.14014 37.9852 4.15315 37.9722 4.16899 37.9635L5.16905 37.4166L4.16901 36.8696Z" fill="white" fill-opacity="0.5"/>
</g>
<g id="Group 1410068480">
<path id="Vector_19" d="M41.8 26.2147C41.7942 26.2115 41.7894 26.2067 41.7862 26.2009L41.5844 25.832L41.3827 26.2009C41.3795 26.2067 41.3747 26.2115 41.3689 26.2147L41 26.4165L41.3688 26.6182C41.3747 26.6214 41.3795 26.6262 41.3827 26.632L41.5844 27.0009L41.7861 26.632C41.7893 26.6262 41.7941 26.6214 41.8 26.6182L42.1688 26.4165L41.8 26.2147Z" fill="#F6DFE6"/>
<path id="Vector_20" d="M41.8 26.2147C41.7942 26.2115 41.7894 26.2067 41.7862 26.2009L41.5844 25.832L41.3827 26.2009C41.3795 26.2067 41.3747 26.2115 41.3689 26.2147L41 26.4165L41.3688 26.6182C41.3747 26.6214 41.3795 26.6262 41.3827 26.632L41.5844 27.0009L41.7861 26.632C41.7893 26.6262 41.7941 26.6214 41.8 26.6182L42.1688 26.4165L41.8 26.2147Z" fill="white" fill-opacity="0.5"/>
</g>
<g id="Group 1410068481">
<path id="Vector_21" d="M71.9377 22.927C71.9236 22.9192 71.912 22.9076 71.9042 22.8934L71.4156 22L70.927 22.8934C70.9192 22.9076 70.9076 22.9192 70.8934 22.9269L70 23.4156L70.8934 23.9042C70.9076 23.912 70.9192 23.9236 70.9269 23.9377L71.4156 24.8312L71.9042 23.9377C71.912 23.9236 71.9236 23.912 71.9377 23.9042L72.8312 23.4156L71.9377 22.927Z" fill="#F6DFE6"/>
<path id="Vector_22" d="M71.9377 22.927C71.9236 22.9192 71.912 22.9076 71.9042 22.8934L71.4156 22L70.927 22.8934C70.9192 22.9076 70.9076 22.9192 70.8934 22.9269L70 23.4156L70.8934 23.9042C70.9076 23.912 70.9192 23.9236 70.9269 23.9377L71.4156 24.8312L71.9042 23.9377C71.912 23.9236 71.9236 23.912 71.9377 23.9042L72.8312 23.4156L71.9377 22.927Z" fill="white" fill-opacity="0.5"/>
</g>
<g id="Group 1410068482_2">
<path id="Vector_23" d="M64.631 5.21472C64.6252 5.21153 64.6204 5.20673 64.6172 5.20089L64.4155 4.83203L64.2137 5.20088C64.2106 5.20672 64.2058 5.21152 64.1999 5.21472L63.8311 5.41645L64.1999 5.61818C64.2057 5.62138 64.2105 5.62618 64.2137 5.63202L64.4155 6.00087L64.6172 5.63202C64.6204 5.62618 64.6252 5.62138 64.631 5.61818L64.9999 5.41645L64.631 5.21472Z" fill="#F6DFE6"/>
<path id="Vector_24" d="M64.631 5.21472C64.6252 5.21153 64.6204 5.20673 64.6172 5.20089L64.4155 4.83203L64.2137 5.20088C64.2106 5.20672 64.2058 5.21152 64.1999 5.21472L63.8311 5.41645L64.1999 5.61818C64.2057 5.62138 64.2105 5.62618 64.2137 5.63202L64.4155 6.00087L64.6172 5.63202C64.6204 5.62618 64.6252 5.62138 64.631 5.61818L64.9999 5.41645L64.631 5.21472Z" fill="white" fill-opacity="0.5"/>
</g>
</g>
</g>
<g id="GPUicon">
<g id="Layer_1" clip-path="url(#clip2_5407_195008)">
<path id="Vector_25" d="M20.4229 49.1387L37.9718 41.4683L40.1368 46.4217C40.1531 46.4591 40.1538 46.5015 40.1386 46.5396C40.1234 46.5777 40.0937 46.6084 40.0559 46.6249L22.8091 54.1632C22.7713 54.1797 22.7286 54.1807 22.6903 54.166C22.652 54.1512 22.6213 54.1219 22.605 54.0846L20.44 49.1312L20.4229 49.1387Z" fill="#DE8833"/>
<path id="Vector_26" d="M55.8034 1.21948L5.14067 23.3633C4.5052 23.641 4.00485 24.157 3.74969 24.7976C3.49452 25.4383 3.50544 26.1512 3.78004 26.7794L5.90873 31.6496L12.3616 42.7853L65.1594 19.7083L61.3712 7.40961L59.2425 2.53939C59.1064 2.22751 58.9094 1.94588 58.6627 1.71064C58.4161 1.4754 58.1246 1.29118 57.8051 1.16855C57.4856 1.04592 57.1443 0.987301 56.8008 0.99604C56.4573 1.00478 56.1183 1.08072 55.8034 1.21948Z" fill="#5C5C7A"/>
<path id="Vector_27" d="M68.2316 29.6527L17.5689 51.7965C16.9331 52.0739 16.2145 52.0904 15.5709 51.8423C14.9273 51.5942 14.4115 51.1019 14.1368 50.4735L12.0081 45.6032L8.2185 33.3052L61.0164 10.2282L67.47 21.3618L69.5987 26.232C69.735 26.5438 69.8077 26.8796 69.8127 27.2204C69.8177 27.5612 69.7549 27.9001 69.6279 28.2179C69.5009 28.5356 69.3122 28.8259 69.0726 29.0721C68.833 29.3183 68.5472 29.5156 68.2316 29.6527Z" fill="#5C5C7A"/>
<path id="Vector_28" d="M52.7514 1.79462L34.333 9.84498L31.9276 12.5681L28.9985 13.8483L25.3675 13.7636L6.94914 21.814L3.03008 29.5374L11.6224 49.1958L19.9529 51.5652L38.3713 43.5148L40.7746 40.7909L43.7037 39.5107L47.3367 39.5962L65.7551 31.5458L69.6742 23.8224L66.26 16.0112L64.496 11.9752L61.0818 4.16397L52.7514 1.79462Z" fill="#8585B0"/>
<path id="Vector_29" opacity="0.4" d="M47.0269 38.8873L43.3945 38.8033L40.4654 40.0835L38.0614 42.806L19.643 50.8563L11.3126 48.487L11.6224 49.1958L19.9529 51.5652L38.3713 43.5148L40.7746 40.7909L43.7037 39.5107L47.3367 39.5962L65.7551 31.5458L69.6742 23.8224L69.3644 23.1136L65.4453 30.837L47.0269 38.8873Z" fill="#C1C1FF"/>
<path id="Vector_30" opacity="0.3" d="M7.97355 32.9943L11.8926 25.2709L30.3124 17.2199L33.944 17.306L36.8731 16.0257L39.2779 13.3013L57.6963 5.25089L62.1054 6.50605L61.0817 4.16395L52.7512 1.7946L34.3328 9.84496L31.9274 12.568L28.9983 13.8483L25.3674 13.7636L6.94899 21.814L3.02993 29.5374L11.6223 49.1958L15.5422 50.3106L7.97355 32.9943Z" fill="#C1C1FF"/>
<path id="Vector_31" opacity="0.4" d="M47.2357 39.365L43.6033 39.281L40.6742 40.5612L38.2702 43.2837L19.8518 51.3341L11.5214 48.9647L11.6224 49.1958L19.9529 51.5652L38.3713 43.5148L40.7746 40.7909L43.7037 39.5107L47.3367 39.5962L65.7551 31.5458L69.6742 23.8224L69.5732 23.5913L65.6541 31.3147L47.2357 39.365Z" fill="#C1C1FF"/>
<path id="Vector_32" d="M52.7514 1.79394L34.333 9.8443L31.9276 12.5674L28.9985 13.8476L25.3675 13.763L6.94914 21.8133L3.03008 29.5367L3.91211 31.5547L7.83117 23.8313L26.2496 15.7809L29.8811 15.867L32.8102 14.5868L35.215 11.8623L53.6334 3.81192L61.9638 6.18127L61.0818 4.16329L52.7514 1.79394Z" fill="#ACACE3"/>
<path id="Vector_33" opacity="0.3" d="M46.3586 37.3583L42.7256 37.2729L39.7965 38.5531L37.3931 41.277L18.9747 49.3273L10.6443 46.958L11.6224 49.1958L19.9529 51.5652L38.3713 43.5148L40.7746 40.7909L43.7037 39.5107L47.3367 39.5962L65.7551 31.5458L69.6742 23.8224L68.6961 21.5846L64.777 29.308L46.3586 37.3583Z" fill="#555570"/>
<path id="Vector_34" opacity="0.3" d="M34.3336 9.84422L31.9282 12.5673L28.9991 13.8476L25.3681 13.7629L6.94973 21.8132L3.03067 29.5366L7.6416 40.0859L65.6933 14.7125L64.4966 11.9744L61.0824 4.1632L52.752 1.79385L34.3336 9.84422Z" fill="#C1C1FF"/>
<path id="Vector_35" opacity="0.4" d="M27.5412 23.1149C21.4229 20.7585 14.4964 23.7859 12.0703 29.877C9.64431 35.9681 12.6375 42.8162 18.7558 45.1727C24.8741 47.5291 31.8007 44.5017 34.2267 38.4106C36.6527 32.3195 33.6595 25.4714 27.5412 23.1149Z" fill="#3B3B4F"/>
<path id="Vector_36" d="M26.2102 22.0036C20.0919 19.6471 13.1653 22.6746 10.7393 28.7657C8.31325 34.8567 11.3064 41.7048 17.4247 44.0613C23.5431 46.4178 30.4696 43.3903 32.8956 37.2993C35.3217 31.2082 32.3285 24.3601 26.2102 22.0036Z" fill="#9494C4"/>
<path id="Vector_37" opacity="0.4" d="M26.4486 43.6294C23.5662 44.8885 20.3089 44.9718 17.3849 43.8612C14.4608 42.7506 12.1065 40.5358 10.8336 37.6984C10.8496 37.7351 10.8657 37.7717 10.8817 37.8083C12.159 40.6413 14.5149 42.8508 17.438 43.9575C20.3612 45.0643 23.6159 44.979 26.496 43.7201C29.3761 42.4613 31.6493 40.1305 32.8224 37.2333C33.9955 34.3362 33.9739 31.1064 32.7622 28.2447C32.7462 28.2081 32.7302 28.1714 32.7142 28.1348C33.9327 30.9984 33.958 34.2332 32.7846 37.1351C31.6111 40.037 29.334 42.3711 26.4486 43.6294Z" fill="#C1C1FF"/>
<path id="Vector_38" opacity="0.3" d="M29.5607 23.994C31.594 26.204 32.6957 29.1068 32.6419 32.1118C32.588 35.1167 31.3825 37.9979 29.2707 40.1692C27.1589 42.3405 24.2994 43.6386 21.2741 43.7996C18.2488 43.9605 15.285 42.9721 12.9858 41.0355C14.0772 42.2267 15.4051 43.181 16.8875 43.8393C18.3699 44.4976 19.9752 44.846 21.6041 44.8629C23.233 44.8798 24.8509 44.5648 26.3576 43.9375C27.8644 43.3102 29.228 42.3838 30.3641 41.2157C31.5002 40.0476 32.3846 38.6626 32.9627 37.1464C33.5408 35.6303 33.8002 34.0151 33.7249 32.4009C33.6496 30.7866 33.2412 29.2077 32.5249 27.7617C31.8086 26.3156 30.7998 25.0333 29.5607 23.994Z" fill="#343445"/>
<path id="Vector_39" d="M11.3452 38.3104C10.2348 35.7723 10.0632 32.9199 10.8605 30.2531C11.6579 27.5862 13.3733 25.2751 15.7062 23.7246C18.0391 22.174 20.8406 21.4831 23.6198 21.7729C26.3991 22.0626 28.9787 23.3145 30.9067 25.3093C29.8788 24.1049 28.6155 23.12 27.1921 22.413C25.7687 21.7061 24.2141 21.2917 22.6209 21.1943C21.0277 21.0969 19.4283 21.3186 17.9178 21.8461C16.4074 22.3737 15.0168 23.1964 13.8286 24.2653C12.6405 25.3342 11.6791 26.6275 11.0016 28.0682C10.3242 29.509 9.94443 31.0678 9.88504 32.6519C9.82564 34.2361 10.0878 35.8133 10.6559 37.2897C11.224 38.7661 12.0865 40.1116 13.192 41.2461C12.4331 40.3645 11.8108 39.3752 11.3452 38.3104Z" fill="#C1C1FF"/>
<path id="Vector_40" d="M30.6297 28.5926C28.1988 23.7835 22.2826 21.873 17.4156 24.3255C12.5486 26.778 10.5737 32.6647 13.0047 37.4739C15.4356 42.283 21.3517 44.1935 26.2188 41.741C31.0858 39.2885 33.0606 33.4018 30.6297 28.5926Z" fill="#3B3B4F"/>
<path id="Vector_41" d="M17.7205 24.4216C16.5509 24.9439 15.5748 25.8188 14.9322 26.921C15.498 29.2836 17.1182 32.0078 21.4464 32.9459C21.4464 32.9459 19.893 30.6037 19.322 26.9476C19.1257 25.6906 19.3108 24.7118 19.6347 23.9576C18.9756 24.0034 18.3283 24.1603 17.7205 24.4216Z" fill="#DE8833"/>
<path id="Vector_42" opacity="0.4" d="M15.8559 27.2472C16.4996 26.1473 17.4744 25.2737 18.642 24.7504C18.9035 24.6403 19.173 24.5505 19.4482 24.482C19.4986 24.304 19.5593 24.129 19.6299 23.9578C18.9709 24.0041 18.3238 24.1615 17.7164 24.4232C16.5467 24.9455 15.5707 25.8204 14.928 26.9226C15.4545 29.1178 16.8945 31.6237 20.5666 32.7193C19.6674 32.3613 18.8405 31.8476 18.1243 31.202C16.9849 30.1416 16.1948 28.7641 15.8559 27.2472Z" fill="#FFA74F"/>
<path id="Vector_43" opacity="0.3" d="M20.6695 32.7501C20.9185 32.8225 21.1774 32.8878 21.4461 32.946C21.4461 32.946 19.8927 30.6038 19.3218 26.9477C19.1255 25.6908 19.3105 24.7119 19.6345 23.9577C19.2129 23.9959 18.7961 24.0769 18.3904 24.1993C17.6297 28.4829 19.4808 31.3898 20.6695 32.7501Z" fill="#DE6E00"/>
<path id="Vector_44" d="M18.131 31.4559C15.9877 29.5779 15.1321 27.0416 15.1321 27.0416C15.4491 26.3195 15.9892 25.7147 16.6738 25.3153C17.3584 24.9158 18.1518 24.7425 18.9385 24.8206C18.9385 24.8206 18.2797 24.8669 17.1493 25.3878C16.4836 25.6895 15.9498 26.2212 15.6485 26.883C15.6485 26.883 15.6633 27.8685 16.3985 29.0728C16.9225 29.9043 17.5013 30.7004 18.131 31.4559Z" fill="#FF9C3B"/>
<path id="Vector_45" d="M12.7604 29.8692C12.2992 31.0564 12.2262 32.3547 12.5519 33.579C14.6396 34.8367 17.7368 35.6112 21.491 33.2318C21.491 33.2318 18.7191 32.681 15.7021 30.517C14.6677 29.774 14.0999 28.9564 13.7928 28.1994C13.3565 28.6949 13.0074 29.2595 12.7604 29.8692Z" fill="#DE8833"/>
<path id="Vector_46" opacity="0.4" d="M13.4449 33.16C13.1196 31.9357 13.1926 30.6375 13.6535 29.4502C13.7623 29.19 13.8906 28.9382 14.0372 28.6967C13.9457 28.5365 13.8643 28.3709 13.7932 28.2008C13.3569 28.6962 13.0079 29.2608 12.7609 29.8705C12.2997 31.0578 12.2267 32.3561 12.5523 33.5804C14.4916 34.7468 17.3045 35.4962 20.7054 33.6875C19.8097 34.0693 18.8541 34.2909 17.8831 34.342C16.3141 34.3986 14.7681 33.9868 13.4449 33.16Z" fill="#FFA74F"/>
<path id="Vector_47" opacity="0.3" d="M20.7987 33.6394C21.0267 33.5163 21.2575 33.3801 21.4917 33.2324C21.4917 33.2324 18.7198 32.6817 15.7028 30.5176C14.6684 29.7747 14.1006 28.9571 13.7934 28.2001C13.5196 28.523 13.28 28.873 13.0785 29.2444C15.5887 32.7813 18.9788 33.5151 20.7987 33.6394Z" fill="#DE6E00"/>
<path id="Vector_48" d="M18.0654 34.5131C15.1984 34.7004 12.7822 33.5225 12.7822 33.5225C12.4937 32.7938 12.4478 31.9909 12.6514 31.2305C12.8549 30.4701 13.2972 29.7921 13.9139 29.295C13.9139 29.295 13.4766 29.79 13.0423 30.9482C12.7813 31.626 12.7776 32.373 13.032 33.0491C13.032 33.0491 13.7452 33.7293 15.1317 34.0582C16.0979 34.2739 17.0779 34.4258 18.0654 34.5131Z" fill="#FF9C3B"/>
<path id="Vector_49" d="M13.1062 37.1701C13.6212 38.326 14.4921 39.2881 15.5947 39.9193C17.9805 39.3381 20.7395 37.7075 21.721 33.4047C21.721 33.4047 19.3476 34.9658 15.6596 35.5623C14.3912 35.7676 13.4048 35.5928 12.6489 35.277C12.6916 35.9301 12.8463 36.5703 13.1062 37.1701Z" fill="#DE8833"/>
<path id="Vector_50" opacity="0.4" d="M15.9379 38.9958C14.8334 38.3655 13.9604 37.4038 13.4431 36.2477C13.3338 35.9894 13.2452 35.7229 13.1779 35.4506C12.9992 35.4023 12.8238 35.3434 12.6525 35.274C12.6937 35.9275 12.8469 36.5684 13.1056 37.169C13.6206 38.3249 14.4915 39.2869 15.5941 39.9182C17.8108 39.3773 20.3483 37.9275 21.4845 34.2737C21.1183 35.1696 20.595 35.9951 19.9391 36.7116C18.8618 37.8505 17.4682 38.6461 15.9379 38.9958Z" fill="#FFA74F"/>
<path id="Vector_51" opacity="0.3" d="M21.5228 34.174C21.5979 33.9263 21.6659 33.6689 21.7268 33.4017C21.7268 33.4017 19.3534 34.9627 15.6654 35.5593C14.397 35.7645 13.4106 35.5897 12.6547 35.274C12.6881 35.6922 12.7662 36.1053 12.8878 36.5064C17.1969 37.2262 20.1389 35.3579 21.5228 34.174Z" fill="#DE6E00"/>
<path id="Vector_52" d="M20.1969 36.7034C18.2864 38.846 15.7231 39.7163 15.7231 39.7163C14.9995 39.4055 14.3963 38.8736 14.0007 38.1974C13.6051 37.5213 13.4375 36.736 13.5223 35.9551C13.5223 35.9551 13.562 36.6091 14.0775 37.7265C14.3764 38.3844 14.9077 38.9094 15.5718 39.2033C15.5718 39.2033 16.5651 39.1804 17.785 38.4407C18.6259 37.9142 19.4316 37.3338 20.1969 36.7034Z" fill="#FF9C3B"/>
<path id="Vector_53" d="M18.5598 42.0429C19.7525 42.4903 21.0603 42.5519 22.2969 42.2188C23.5832 40.1359 24.3883 37.0566 22.0217 33.3511C22.0217 33.3511 21.4442 36.1044 19.2373 39.1184C18.4799 40.151 17.6505 40.7199 16.8871 41.0318C17.3819 41.4613 17.9476 41.8032 18.5598 42.0429Z" fill="#DE8833"/>
<path id="Vector_54" opacity="0.4" d="M21.8739 41.3405C20.6377 41.6734 19.3304 41.6116 18.1383 41.1639C17.8763 41.0589 17.623 40.9339 17.3807 40.7901C17.219 40.882 17.0519 40.964 16.8803 41.0357C17.3774 41.4647 17.9455 41.8056 18.5601 42.0437C19.7528 42.4911 21.0606 42.5527 22.2972 42.2196C23.489 40.2855 24.2677 37.4879 22.4733 34.1282C22.8509 35.0136 23.0668 35.9597 23.1108 36.9227C23.1533 38.4814 22.7224 40.0206 21.8739 41.3405Z" fill="#FFA74F"/>
<path id="Vector_55" opacity="0.3" d="M22.421 34.0385C22.2979 33.8137 22.1626 33.5858 22.0152 33.3548C22.0152 33.3548 21.4378 36.108 19.2308 39.122C18.4734 40.1547 17.6447 40.725 16.8807 41.0355C17.2029 41.3052 17.5532 41.5403 17.9257 41.7368C21.5127 39.2157 22.2842 35.8422 22.421 34.0385Z" fill="#DE6E00"/>
<path id="Vector_56" d="M23.2769 36.7444C23.4432 39.5872 22.2344 41.9953 22.2344 41.9953C21.4977 42.2877 20.6881 42.3399 19.9235 42.1443C19.1589 41.9487 18.4792 41.5155 17.9835 40.9077C17.9835 40.9077 18.4786 41.3375 19.6423 41.7587C20.3232 42.0121 21.076 42.0095 21.7594 41.7514C21.7594 41.7514 22.4509 41.038 22.794 39.6594C23.0202 38.699 23.1815 37.7251 23.2769 36.7444Z" fill="#FF9C3B"/>
<path id="Vector_57" d="M25.9122 41.643C27.0816 41.12 28.0581 40.2457 28.7026 39.1444C28.1354 36.7824 26.5152 34.0582 22.187 33.1202C22.187 33.1202 23.7404 35.4624 24.3107 39.1171C24.5084 40.3734 24.3226 41.3543 23.998 42.1071C24.6571 42.0611 25.3044 41.9042 25.9122 41.643Z" fill="#DE8833"/>
<path id="Vector_58" opacity="0.4" d="M27.777 38.8172C27.1329 39.9188 26.1563 40.7933 24.9865 41.3158C24.7258 41.4261 24.4569 41.5162 24.1824 41.5851C24.1318 41.763 24.0704 41.9378 23.9986 42.1085C24.6576 42.062 25.3047 41.9046 25.9122 41.643C27.0816 41.12 28.0581 40.2457 28.7026 39.1444C28.176 36.9493 26.7361 34.4433 23.0619 33.347C23.9616 33.7029 24.7892 34.2145 25.5067 34.8582C26.6474 35.9195 27.4383 37.2986 27.777 38.8172Z" fill="#FFA74F"/>
<path id="Vector_59" opacity="0.3" d="M22.9634 33.3134C22.7151 33.2423 22.4574 33.1771 22.1875 33.1188C22.1875 33.1188 23.7409 35.461 24.3112 39.1157C24.5089 40.3721 24.3231 41.3529 23.9985 42.1057C24.4228 42.0686 24.8422 41.9865 25.2497 41.861C26.0054 37.5813 24.1528 34.675 22.9634 33.3134Z" fill="#DE6E00"/>
<path id="Vector_60" d="M25.4975 34.6116C27.6422 36.4889 28.4979 39.0253 28.4979 39.0253C28.1794 39.7467 27.6387 40.3507 26.954 40.7499C26.2693 41.149 25.4761 41.3226 24.6894 41.2455C24.6894 41.2455 25.3488 41.2007 26.4793 40.6797C27.145 40.378 27.6787 39.8463 27.9801 39.1845C27.9801 39.1845 27.9653 38.1991 27.23 36.9947C26.7067 36.1627 26.1279 35.3666 25.4975 34.6116Z" fill="#FF9C3B"/>
<path id="Vector_61" d="M30.8723 36.1966C31.3339 35.0094 31.4069 33.711 31.0809 32.4867C28.9925 31.2277 25.8959 30.4546 22.1417 32.834C22.1417 32.834 24.913 33.3833 27.9307 35.5488C28.965 36.2917 29.5329 37.1093 29.8394 37.8649C30.277 37.3709 30.6265 36.8065 30.8723 36.1966Z" fill="#DE8833"/>
<path id="Vector_62" opacity="0.4" d="M30.1848 32.9063C30.5116 34.1305 30.4386 35.4291 29.9762 36.6161C29.8691 36.877 29.7414 37.1292 29.5945 37.3704C29.6846 37.5307 29.7654 37.696 29.8364 37.8656C30.2741 37.3715 30.6235 36.8072 30.8694 36.1972C31.3309 35.01 31.4039 33.7116 31.078 32.4874C29.1401 31.3203 26.3258 30.5715 22.9263 32.3796C23.8213 31.9978 24.7762 31.7759 25.7465 31.7243C27.3155 31.6677 28.8616 32.0795 30.1848 32.9063Z" fill="#FFA74F"/>
<path id="Vector_63" opacity="0.3" d="M22.8434 32.4211C22.6146 32.5462 22.3838 32.6824 22.1495 32.8301C22.1495 32.8301 24.9209 33.3794 27.9385 35.5449C28.9728 36.2878 29.5407 37.1054 29.8472 37.861C30.122 37.5392 30.3619 37.1896 30.5627 36.8181C28.0448 33.2829 24.6529 32.5449 22.8434 32.4211Z" fill="#DE6E00"/>
<path id="Vector_64" d="M25.568 31.551C28.435 31.3637 30.8532 32.5424 30.8532 32.5424C31.14 33.2715 31.1848 34.0742 30.9811 34.8343C30.7774 35.5944 30.3358 36.2725 29.7202 36.7705C29.7202 36.7705 30.1574 36.2756 30.5931 35.1167C30.8534 34.4389 30.8566 33.6922 30.602 33.0164C30.602 33.0164 29.8902 32.3356 28.5038 32.0067C27.5369 31.7906 26.5562 31.6384 25.568 31.551Z" fill="#FF9C3B"/>
<path id="Vector_65" d="M30.5287 28.8961C30.0114 27.7397 29.1378 26.7781 28.0325 26.1486C25.6473 26.7312 22.8883 28.3618 21.9067 32.6646C21.9067 32.6646 24.2802 31.1035 27.9696 30.5064C29.2374 30.2997 30.2229 30.4765 30.9803 30.7917C30.9396 30.138 30.7868 29.497 30.5287 28.8961Z" fill="#DE8833"/>
<path id="Vector_66" opacity="0.4" d="M27.6952 27.0707C28.8015 27.6991 29.6758 28.6607 30.1929 29.8176C30.3014 30.0756 30.3894 30.3419 30.456 30.6139C30.6352 30.6629 30.8113 30.7221 30.9834 30.7913C30.9421 30.1378 30.7889 29.4969 30.5304 28.8963C30.0131 27.7399 29.1395 26.7783 28.0342 26.1488C25.8175 26.6897 23.2799 28.1395 22.1458 31.794C22.5123 30.898 23.0353 30.0722 23.6906 29.3548C24.7686 28.2151 26.1636 27.4195 27.6952 27.0707Z" fill="#FFA74F"/>
<path id="Vector_67" opacity="0.3" d="M22.1107 31.8923C22.0356 32.14 21.9677 32.3963 21.9067 32.6646C21.9067 32.6646 24.2802 31.1035 27.9696 30.5064C29.2374 30.2997 30.2229 30.4765 30.9803 30.7917C30.9452 30.3712 30.8656 29.956 30.7427 29.5528C26.436 28.8387 23.4922 30.7027 22.1107 31.8923Z" fill="#DE6E00"/>
<path id="Vector_68" d="M23.4367 29.3632C25.3465 27.2192 27.9099 26.3489 27.9099 26.3489C28.6349 26.6574 29.2399 27.1883 29.6367 27.8644C30.0336 28.5404 30.2016 29.3262 30.1163 30.1076C30.1163 30.1076 30.0752 29.4542 29.5597 28.3368C29.2612 27.6787 28.7298 27.1535 28.0654 26.86C28.0654 26.86 27.0721 26.8829 25.8522 27.6226C25.0095 28.1493 24.2025 28.7308 23.4367 29.3632Z" fill="#FF9C3B"/>
<path id="Vector_69" d="M25.08 24.0204C23.8876 23.5714 22.5794 23.5099 21.343 23.8444C20.0566 25.9273 19.2516 29.0066 21.6181 32.7121C21.6181 32.7121 22.1964 29.9568 24.4026 26.9449C25.1599 25.9123 25.9887 25.3419 26.7541 25.0308C26.2587 24.6017 25.6926 24.26 25.08 24.0204Z" fill="#DE8833"/>
<path id="Vector_70" opacity="0.4" d="M21.7596 24.7272C22.9965 24.393 24.305 24.4543 25.4981 24.9025C25.7593 25.0074 26.0119 25.1321 26.2536 25.2756C26.4163 25.1846 26.5841 25.1028 26.7561 25.0308C26.2606 24.6016 25.6945 24.2599 25.0819 24.0203C23.8895 23.5714 22.5813 23.5098 21.3449 23.8444C20.1524 25.7771 19.3743 28.5761 21.1681 31.9344C20.7912 31.0491 20.5761 30.1032 20.5327 29.1406C20.4885 27.5845 20.9159 26.0471 21.7596 24.7272Z" fill="#FFA74F"/>
<path id="Vector_71" opacity="0.3" d="M21.2137 32.0257C21.3365 32.2523 21.4718 32.4802 21.6186 32.7114C21.6186 32.7114 22.1969 29.9561 24.4031 26.9442C25.1604 25.9115 25.9892 25.3412 26.7547 25.0301C26.4317 24.7608 26.081 24.5259 25.7082 24.3294C22.1227 26.8499 21.3505 30.222 21.2137 32.0257Z" fill="#DE6E00"/>
<path id="Vector_72" d="M20.3564 29.3223C20.1917 26.4789 21.3979 24.0651 21.3979 24.0651C22.1351 23.7744 22.9444 23.7232 23.7088 23.919C24.4731 24.1148 25.1528 24.5474 25.6495 25.1541C25.6495 25.1541 25.1544 24.7243 23.9901 24.3017C23.3091 24.049 22.5566 24.0521 21.8735 24.3104C21.8735 24.3104 21.1814 25.0224 20.8384 26.401C20.6133 27.3637 20.4523 28.3396 20.3564 29.3223Z" fill="#FF9C3B"/>
<path id="Vector_73" opacity="0.4" d="M24.6014 32.5174C24.0401 31.2332 22.5322 30.6524 21.2333 31.2201C19.9344 31.7878 19.3365 33.2891 19.8978 34.5732C20.459 35.8574 21.967 36.4382 23.2659 35.8705C24.5648 35.3028 25.1627 33.8015 24.6014 32.5174Z" fill="#3B3B4F"/>
<path id="Vector_74" d="M24.1697 32.0044C24.3705 32.4646 24.4288 32.9747 24.3372 33.4702C24.2456 33.9658 24.0082 34.4244 23.6551 34.7883C23.3019 35.1521 22.8489 35.4048 22.3532 35.5143C21.8575 35.6239 21.3414 35.5854 20.8702 35.4037C20.399 35.2221 19.9938 34.9054 19.7059 34.4938C19.4179 34.0821 19.2602 33.594 19.2525 33.0911C19.2449 32.5882 19.3878 32.0931 19.663 31.6683C19.9382 31.2436 20.3335 30.9084 20.7989 30.7049C21.1081 30.5698 21.4405 30.4962 21.7773 30.4884C22.114 30.4806 22.4485 30.5387 22.7615 30.6594C23.0745 30.78 23.36 30.9609 23.6016 31.1917C23.8433 31.4225 24.0363 31.6987 24.1697 32.0044Z" fill="#9494C4"/>
<path id="Vector_75" d="M22.403 31.9014C21.7758 31.5837 21.0035 31.8329 20.6781 32.458C20.3527 33.0831 20.5974 33.8474 21.2246 34.165C21.8519 34.4827 22.6241 34.2335 22.9495 33.6084C23.2749 32.9833 23.0302 32.2191 22.403 31.9014Z" fill="#3B3B4F"/>
<path id="Vector_76" d="M22.7376 32.6304C22.8163 32.8105 22.8392 33.0101 22.8035 33.204C22.7677 33.398 22.6749 33.5775 22.5368 33.7199C22.3987 33.8624 22.2214 33.9613 22.0274 34.0043C21.8335 34.0472 21.6315 34.0322 21.4471 33.9612C21.2627 33.8902 21.1041 33.7663 20.9914 33.6052C20.8787 33.4442 20.8169 33.2531 20.8139 33.0563C20.8109 32.8595 20.8667 32.6658 20.9744 32.4996C21.0821 32.3334 21.2368 32.2021 21.4189 32.1226C21.6631 32.0158 21.9393 32.0094 22.1866 32.1046C22.4339 32.1999 22.6321 32.389 22.7376 32.6304Z" fill="#DE8833"/>
<path id="Vector_77" opacity="0.4" d="M55.1887 11.029C49.0704 8.67251 42.1438 11.7 39.7178 17.7911C37.2918 23.8821 40.285 30.7302 46.4033 33.0867C52.5216 35.4432 59.4481 32.4157 61.8742 26.3247C64.3002 20.2336 61.307 13.3855 55.1887 11.029Z" fill="#3B3B4F"/>
<path id="Vector_78" d="M44.9485 10.0433C38.8578 12.5689 35.9423 19.4988 38.4367 25.5218C40.931 31.5447 47.8907 34.3798 53.9814 31.8542C60.0722 29.3286 62.9877 22.3987 60.4933 16.3758C57.9989 10.3529 51.0393 7.51772 44.9485 10.0433Z" fill="#9494C4"/>
<path id="Vector_79" opacity="0.4" d="M54.0975 31.5448C51.215 32.804 47.9575 32.8874 45.0333 31.7769C42.109 30.6664 39.7544 28.4518 38.4811 25.6144C38.4971 25.6511 38.5131 25.6877 38.5291 25.7244C39.8065 28.5573 42.1623 30.7668 45.0855 31.8736C48.0086 32.9803 51.2633 32.895 54.1434 31.6362C57.0235 30.3773 59.2967 28.0465 60.4698 25.1493C61.6429 22.2522 61.6213 19.0224 60.4097 16.1607C60.3937 16.1241 60.3777 16.0875 60.3617 16.0508C61.5805 18.9142 61.6061 22.1488 60.4329 25.0506C59.2597 27.9525 56.9827 30.2865 54.0975 31.5448Z" fill="#C1C1FF"/>
<path id="Vector_80" opacity="0.3" d="M57.2101 11.9089C59.2468 14.1185 60.3515 17.0226 60.2989 20.0295C60.2464 23.0364 59.0407 25.9199 56.9274 28.0925C54.8142 30.2652 51.9524 31.5635 48.925 31.7231C45.8977 31.8826 42.9326 30.8913 40.6338 28.9511C41.7247 30.1444 43.0528 31.1007 44.5358 31.7608C46.0188 32.4209 47.6251 32.7706 49.2553 32.7884C50.8855 32.8062 52.5048 32.4917 54.0129 31.8643C55.521 31.2369 56.8858 30.31 58.0229 29.141C59.1599 27.9721 60.0449 26.5859 60.6231 25.0684C61.2012 23.5509 61.4602 21.9343 61.384 20.3189C61.3078 18.7034 60.8981 17.1234 60.1801 15.6768C59.4621 14.2302 58.4513 12.9478 57.2101 11.9089Z" fill="#343445"/>
<path id="Vector_81" d="M38.9932 26.2271C37.8815 23.6887 37.7092 20.8355 38.5063 18.1678C39.3034 15.5001 41.0191 13.1882 43.3526 11.6373C45.6862 10.0864 48.4886 9.39556 51.2685 9.68592C54.0484 9.97627 56.6284 11.2293 58.5561 13.2253C57.5282 12.0209 56.2649 11.036 54.8415 10.3291C53.4181 9.62215 51.8635 9.20767 50.2703 9.11028C48.6771 9.01289 47.0777 9.23457 45.5673 9.76215C44.0568 10.2897 42.6662 11.1124 41.4781 12.1813C40.2899 13.2502 39.3285 14.5435 38.651 15.9842C37.9736 17.425 37.5938 18.9838 37.5345 20.5679C37.4751 22.1521 37.7372 23.7293 38.3053 25.2057C38.8734 26.6821 39.7359 28.0276 40.8414 29.1621C40.0821 28.2808 39.4593 27.2917 38.9932 26.2271Z" fill="#C1C1FF"/>
<path id="Vector_82" d="M58.1487 16.265C55.5845 11.5253 49.6162 9.77786 44.818 12.362C40.0199 14.9462 38.2089 20.8833 40.7731 25.6231C43.3373 30.3628 49.3057 32.1102 54.1038 29.5261C58.902 26.9419 60.7129 21.0047 58.1487 16.265Z" fill="#3B3B4F"/>
<path id="Vector_83" d="M45.3697 12.3373C44.1999 12.8603 43.2235 13.7352 42.5799 14.8373C43.1471 17.1993 44.7673 19.9235 49.0955 20.8616C49.0955 20.8616 47.5421 18.5194 46.9712 14.8633C46.7735 13.6069 46.9599 12.6275 47.2839 11.8733C46.6248 11.9192 45.9775 12.0761 45.3697 12.3373Z" fill="#DE8833"/>
<path id="Vector_84" opacity="0.4" d="M43.5048 15.1638C44.1486 14.0627 45.1247 13.1885 46.2938 12.6658C46.5548 12.5559 46.8239 12.4664 47.0986 12.398C47.1495 12.2198 47.2106 12.0446 47.2817 11.8732C46.6228 11.9196 45.9757 12.077 45.3682 12.3386C44.1984 12.8616 43.222 13.7365 42.5784 14.8386C43.1049 17.0338 44.5448 19.5397 48.2184 20.6347C47.3183 20.2774 46.4904 19.7641 45.7732 19.1186C44.6338 18.0583 43.8437 16.6807 43.5048 15.1638Z" fill="#FFA74F"/>
<path id="Vector_85" opacity="0.3" d="M48.319 20.6656C48.5679 20.7381 48.8257 20.8034 49.0956 20.8616C49.0956 20.8616 47.5422 18.5194 46.9712 14.8633C46.7735 13.607 46.96 12.6275 47.2839 11.8733C46.8598 11.9119 46.4406 11.994 46.0328 12.118C45.2777 16.3991 47.1303 19.3054 48.319 20.6656Z" fill="#DE6E00"/>
<path id="Vector_86" d="M45.7799 19.3713C43.6352 17.494 42.7795 14.9576 42.7795 14.9576C43.0965 14.2355 43.6366 13.6308 44.3212 13.2313C45.0059 12.8318 45.7993 12.6585 46.586 12.7366C46.586 12.7366 45.9271 12.7829 44.7967 13.3038C44.131 13.6055 43.5973 14.1373 43.2959 14.799C43.2959 14.799 43.3107 15.7845 44.0459 16.9888C44.5697 17.8207 45.149 18.6166 45.7799 19.3713Z" fill="#FF9C3B"/>
<path id="Vector_87" d="M40.4098 17.7852C39.9474 18.9722 39.8744 20.2709 40.2013 21.495C42.2891 22.7527 45.3863 23.5272 49.1404 21.1478C49.1404 21.1478 46.3685 20.597 43.3515 18.433C42.3172 17.69 41.7493 16.8724 41.4422 16.1154C41.0052 16.6104 40.656 17.1751 40.4098 17.7852Z" fill="#DE8833"/>
<path id="Vector_88" opacity="0.4" d="M41.0933 21.0741C40.7674 19.8498 40.8404 18.5514 41.3019 17.3642C41.4098 17.1041 41.5376 16.8524 41.6842 16.6114C41.5939 16.4506 41.5129 16.2849 41.4417 16.1148C41.0047 16.6098 40.6555 17.1745 40.4093 17.7846C39.9469 18.9716 39.8739 20.2703 40.2008 21.4944C42.1386 22.6615 44.9529 23.4103 48.3525 21.6022C47.4571 21.9836 46.502 22.205 45.5316 22.2561C43.9626 22.3127 42.4165 21.9009 41.0933 21.0741Z" fill="#FFA74F"/>
<path id="Vector_89" opacity="0.3" d="M48.4457 21.5541C48.6751 21.4303 48.9059 21.2942 49.1401 21.1465C49.1401 21.1465 46.3682 20.5957 43.3512 18.4317C42.3169 17.6887 41.749 16.8711 41.4419 16.1141C41.1677 16.4368 40.9281 16.7868 40.7269 17.1584C43.2371 20.6954 46.6272 21.4292 48.4457 21.5541Z" fill="#DE6E00"/>
<path id="Vector_90" d="M45.7143 22.4285C42.8473 22.6158 40.4297 21.4385 40.4297 21.4385C40.1429 20.7094 40.0981 19.9067 40.3018 19.1466C40.5055 18.3865 40.9471 17.7084 41.5628 17.2104C41.5628 17.2104 41.1255 17.7053 40.6898 18.8642C40.4295 19.5421 40.4263 20.2888 40.6809 20.9645C40.6809 20.9645 41.3927 21.6453 42.7791 21.9742C43.7459 22.1894 44.7264 22.3412 45.7143 22.4285Z" fill="#FF9C3B"/>
<path id="Vector_91" d="M40.7537 25.0842C41.2693 26.2405 42.1419 27.2022 43.2464 27.8315C45.6322 27.2503 48.3912 25.6197 49.3728 21.3169C49.3728 21.3169 46.9993 22.878 43.3099 23.4751C42.0415 23.6804 41.0566 23.505 40.2992 23.1898C40.3409 23.8432 40.4946 24.4838 40.7537 25.0842Z" fill="#DE8833"/>
<path id="Vector_92" opacity="0.4" d="M43.5868 26.9112C42.4815 26.2818 41.6078 25.3202 41.0906 24.1637C40.9818 23.9052 40.8936 23.6385 40.8268 23.366C40.6476 23.317 40.4715 23.2578 40.2994 23.1886C40.3405 23.8421 40.4938 24.483 40.7524 25.0836C41.268 26.2405 42.1408 27.2028 43.2458 27.8323C45.4625 27.2915 48 25.8416 49.1348 22.1885C48.7686 23.0844 48.2453 23.9099 47.5894 24.6264C46.5119 25.7659 45.1178 26.5617 43.5868 26.9112Z" fill="#FFA74F"/>
<path id="Vector_93" opacity="0.3" d="M49.1713 22.088C49.2464 21.8404 49.3144 21.5829 49.3753 21.3157C49.3753 21.3157 47.0018 22.8768 43.3124 23.4739C42.044 23.6792 41.0591 23.5038 40.3017 23.1887C40.3363 23.6066 40.415 24.0195 40.5362 24.4205C44.8454 25.1403 47.7874 23.2719 49.1713 22.088Z" fill="#DE6E00"/>
<path id="Vector_94" d="M47.846 24.619C45.9355 26.7615 43.3721 27.6318 43.3721 27.6318C42.6471 27.3233 42.0421 26.7924 41.6453 26.1164C41.2484 25.4404 41.0804 24.6545 41.1657 23.8732C41.1657 23.8732 41.2068 24.5266 41.7223 25.644C42.0212 26.3018 42.5525 26.8269 43.2166 27.1207C43.2166 27.1207 44.2099 27.0978 45.4298 26.3582C46.2722 25.8312 47.0793 25.2502 47.846 24.619Z" fill="#FF9C3B"/>
<path id="Vector_95" d="M46.2019 29.9602C47.3945 30.408 48.7023 30.4696 49.9389 30.1362C51.2253 28.0533 52.0303 24.974 49.6637 21.2685C49.6637 21.2685 49.0849 24.0223 46.8793 27.0357C46.1219 28.0683 45.2926 28.6373 44.5277 28.9498C45.0234 29.3786 45.5895 29.7202 46.2019 29.9602Z" fill="#DE8833"/>
<path id="Vector_96" opacity="0.4" d="M49.5228 29.2539C48.2862 29.587 46.9784 29.5255 45.7857 29.078C45.5244 28.9722 45.2717 28.847 45.0296 28.7036C44.8674 28.7956 44.6998 28.8778 44.5277 28.9498C45.0234 29.3786 45.5895 29.7202 46.2019 29.9602C47.3945 30.408 48.7023 30.4696 49.9389 30.1362C51.1307 28.202 51.9095 25.4044 50.115 22.0447C50.4923 22.9304 50.7077 23.8768 50.7511 24.8399C50.795 26.3964 50.3671 27.934 49.5228 29.2539Z" fill="#FFA74F"/>
<path id="Vector_97" opacity="0.3" d="M50.0685 21.9545C49.9463 21.7293 49.811 21.5014 49.6641 21.2702C49.6641 21.2702 49.0853 24.0241 46.8797 27.0374C46.1223 28.07 45.2936 28.6404 44.5281 28.9515C44.8513 29.2205 45.202 29.4553 45.5746 29.6522C49.1601 27.1317 49.9316 23.7582 50.0685 21.9545Z" fill="#DE6E00"/>
<path id="Vector_98" d="M50.9263 24.6585C51.0911 27.5019 49.8838 29.9094 49.8838 29.9094C49.1471 30.2018 48.3375 30.254 47.5729 30.0584C46.8083 29.8628 46.1287 29.4295 45.6329 28.8218C45.6329 28.8218 46.128 29.2515 47.2917 29.6728C47.9726 29.9262 48.7254 29.9236 49.4089 29.6655C49.4089 29.6655 50.1003 28.952 50.4434 27.5735C50.6688 26.6129 50.8302 25.6391 50.9263 24.6585Z" fill="#FF9C3B"/>
<path id="Vector_99" d="M53.5616 29.5571C54.7307 29.0345 55.7068 28.1602 56.3506 27.0591C55.7848 24.6965 54.1646 21.9723 49.8364 21.0342C49.8364 21.0342 51.3898 23.3764 51.9601 27.0311C52.1564 28.2881 51.972 29.2683 51.6474 30.0211C52.3065 29.9753 52.9539 29.8184 53.5616 29.5571Z" fill="#DE8833"/>
<path id="Vector_100" opacity="0.4" d="M55.4264 26.7313C54.7819 27.8325 53.8054 28.7069 52.636 29.2299C52.3747 29.3405 52.1054 29.4307 51.8304 29.4998C51.7803 29.6774 51.7194 29.852 51.6481 30.0226C52.307 29.9762 52.9541 29.8188 53.5616 29.5571C54.7307 29.0345 55.7068 28.1602 56.3506 27.0591C55.824 24.864 54.3841 22.358 50.7114 21.2611C51.611 21.6169 52.4387 22.1286 53.1561 22.7722C54.2968 23.8335 55.0877 25.2127 55.4264 26.7313Z" fill="#FFA74F"/>
<path id="Vector_101" opacity="0.3" d="M50.6119 21.2294C50.3637 21.1588 50.1051 21.094 49.8359 21.0348C49.8359 21.0348 51.3893 23.377 51.9596 27.0317C52.1559 28.2887 51.9715 29.2689 51.6469 30.0217C52.0687 29.985 52.4857 29.904 52.891 29.7801C53.6524 25.498 51.8012 22.5911 50.6119 21.2294Z" fill="#DE6E00"/>
<path id="Vector_102" d="M53.1501 22.5262C55.2933 24.4041 56.149 26.9405 56.149 26.9405C55.8306 27.6615 55.29 28.2652 54.6056 28.6643C53.9212 29.0633 53.1284 29.2369 52.3419 29.1601C52.3419 29.1601 53.0014 29.1152 54.1318 28.5943C54.7975 28.2926 55.3313 27.7609 55.6326 27.0991C55.6326 27.0991 55.6178 26.1136 54.8826 24.9093C54.3585 24.0778 53.7798 23.2817 53.1501 22.5262Z" fill="#FF9C3B"/>
<path id="Vector_103" d="M58.5217 24.1106C58.9827 22.9233 59.0557 21.6251 58.7303 20.4008C56.6419 19.1417 53.5453 18.3686 49.7911 20.748C49.7911 20.748 52.561 21.298 55.5801 23.4628C56.6144 24.2058 57.1823 25.0234 57.4888 25.779C57.9257 25.2844 58.2751 24.7202 58.5217 24.1106Z" fill="#DE8833"/>
<path id="Vector_104" opacity="0.4" d="M57.8366 20.8197C58.1622 22.044 58.0892 23.3423 57.628 24.5296C57.5199 24.7904 57.3919 25.0428 57.2449 25.2845C57.3362 25.4442 57.4174 25.6093 57.4883 25.779C57.9252 25.2844 58.2745 24.7202 58.5212 24.1107C58.9821 22.9233 59.0551 21.6251 58.7298 20.4008C56.7905 19.2343 53.9776 18.4849 50.5767 20.2937C51.4733 19.9132 52.4295 19.693 53.4008 19.6434C54.9684 19.5856 56.5135 19.9954 57.8366 20.8197Z" fill="#FFA74F"/>
<path id="Vector_105" opacity="0.3" d="M50.4835 20.3396C50.256 20.4637 50.0252 20.5999 49.7911 20.748C49.7911 20.748 52.5625 21.2974 55.5801 23.4628C56.6144 24.2058 57.1823 25.0234 57.4888 25.779C57.7633 25.4569 58.0031 25.1074 58.2043 24.7361C55.6935 21.1978 52.3016 20.4597 50.4835 20.3396Z" fill="#DE6E00"/>
<path id="Vector_106" d="M53.2164 19.4671C56.0834 19.2798 58.5002 20.4591 58.5002 20.4591C58.7888 21.1877 58.8346 21.9907 58.6311 22.751C58.4275 23.5114 57.9852 24.1895 57.3686 24.6865C57.3686 24.6865 57.8059 24.1916 58.2401 23.0333C58.5012 22.3555 58.5049 21.6085 58.2505 20.9325C58.2505 20.9325 57.5372 20.2522 56.1508 19.9234C55.1845 19.7068 54.2042 19.5544 53.2164 19.4671Z" fill="#FF9C3B"/>
<path id="Vector_107" d="M58.1767 16.8127C57.6594 15.6566 56.7863 14.695 55.6819 14.0646C53.2967 14.6472 50.5377 16.2778 49.5561 20.5806C49.5561 20.5806 51.9296 19.0195 55.6176 18.423C56.8854 18.2163 57.8724 18.3925 58.6283 18.7083C58.5875 18.0547 58.4348 17.4137 58.1767 16.8127Z" fill="#DE8833"/>
<path id="Vector_108" opacity="0.4" d="M55.3437 14.984C56.4503 15.6124 57.3254 16.5734 57.8442 17.7297C57.9533 17.9875 58.0417 18.2535 58.1088 18.5254C58.2877 18.5741 58.4633 18.6336 58.6348 18.7034C58.5935 18.0499 58.4403 17.4091 58.1817 16.8084C57.6644 15.6523 56.7914 14.6906 55.687 14.0603C53.4703 14.6012 50.9327 16.051 49.7971 19.7061C50.1637 18.8101 50.6867 17.9843 51.342 17.2669C52.4196 16.1284 53.8134 15.3333 55.3437 14.984Z" fill="#FFA74F"/>
<path id="Vector_109" opacity="0.3" d="M49.7553 19.8083C49.6802 20.056 49.6122 20.3123 49.5513 20.5806C49.5513 20.5806 51.9247 19.0195 55.6127 18.423C56.8805 18.2163 57.8675 18.3925 58.6234 18.7083C58.5896 18.2876 58.5104 17.8721 58.3872 17.4688C54.0848 16.7528 51.141 18.6169 49.7553 19.8083Z" fill="#DE6E00"/>
<path id="Vector_110" d="M51.0851 17.2772C52.995 15.1333 55.5583 14.263 55.5583 14.263C56.2823 14.5729 56.8862 15.1043 57.2826 15.7801C57.679 16.4559 57.8474 17.2412 57.7634 18.0223C57.7634 18.0223 57.7237 17.3682 57.2081 16.2508C56.9096 15.5928 56.3782 15.0676 55.7138 14.7741C55.7138 14.7741 54.7205 14.797 53.5006 15.5366C52.6579 16.0634 51.851 16.6449 51.0851 17.2772Z" fill="#FF9C3B"/>
<path id="Vector_111" d="M52.7294 11.9344C51.5368 11.4863 50.2289 11.4248 48.9924 11.7585C47.706 13.8414 46.901 16.9207 49.2676 20.6262C49.2676 20.6262 49.8444 17.8715 52.052 14.8589C52.8094 13.8263 53.6381 13.256 54.4021 12.9455C53.9076 12.5157 53.3419 12.1737 52.7294 11.9344Z" fill="#DE8833"/>
<path id="Vector_112" opacity="0.4" d="M49.4072 12.6418C50.6452 12.3052 51.9556 12.3659 53.15 12.8153C53.4119 12.9194 53.665 13.0439 53.9069 13.1877C54.0692 13.0969 54.2365 13.0154 54.4079 12.9435C53.9135 12.5137 53.3477 12.1717 52.7352 11.9324C51.5426 11.4843 50.2347 11.4227 48.9982 11.7565C47.8058 13.6892 47.0276 16.4882 48.8214 19.8465C48.4432 18.9635 48.226 18.0196 48.1801 17.0587C48.1353 15.5014 48.5628 13.9627 49.4072 12.6418Z" fill="#FFA74F"/>
<path id="Vector_113" opacity="0.3" d="M48.8611 19.9417C48.9854 20.1677 49.1206 20.3956 49.2675 20.6268C49.2675 20.6268 49.8444 17.8721 52.0519 14.8595C52.8093 13.8269 53.6381 13.2566 54.4021 12.9461C54.0801 12.6761 53.7298 12.441 53.3571 12.2448C49.7701 14.7659 48.998 18.138 48.8611 19.9417Z" fill="#DE6E00"/>
<path id="Vector_114" d="M48.0049 17.2383C47.8387 14.3955 49.0492 11.9799 49.0492 11.9799C49.7864 11.6892 50.5957 11.638 51.3601 11.8338C52.1244 12.0296 52.8041 12.4621 53.3008 13.0689C53.3008 13.0689 52.8056 12.6391 51.6414 12.2165C50.9604 11.9638 50.2079 11.9669 49.5248 12.2252C49.5248 12.2252 48.8327 12.9372 48.4897 14.3157C48.2628 15.2787 48.1009 16.255 48.0049 17.2383Z" fill="#FF9C3B"/>
<path id="Vector_115" opacity="0.4" d="M52.2499 20.4334C51.6886 19.1492 50.1806 18.5684 48.8817 19.1361C47.5828 19.7038 46.9849 21.2051 47.5462 22.4893C48.1075 23.7734 49.6155 24.3542 50.9143 23.7865C52.2132 23.2188 52.8111 21.7175 52.2499 20.4334Z" fill="#3B3B4F"/>
<path id="Vector_116" d="M51.8172 19.9204C52.018 20.3807 52.0763 20.8909 51.9846 21.3865C51.893 21.882 51.6555 22.3407 51.3023 22.7046C50.949 23.0684 50.4958 23.321 50.0001 23.4305C49.5043 23.5399 48.9881 23.5013 48.5169 23.3195C48.0457 23.1377 47.6406 22.8208 47.3528 22.409C47.065 21.9972 46.9074 21.5089 46.9 21.0059C46.8926 20.503 47.0357 20.0078 47.3112 19.5832C47.5867 19.1586 47.9822 18.8235 48.4478 18.6203C48.7569 18.4852 49.0893 18.4117 49.4259 18.4039C49.7626 18.3962 50.097 18.4543 50.4099 18.5751C50.7228 18.6958 51.0082 18.8768 51.2497 19.1076C51.4911 19.3385 51.684 19.6147 51.8172 19.9204Z" fill="#9494C4"/>
<path id="Vector_117" d="M50.6383 20.4352C50.7387 20.6649 50.768 20.9196 50.7223 21.167C50.6767 21.4144 50.5582 21.6434 50.3819 21.8251C50.2056 22.0068 49.9794 22.133 49.7319 22.1877C49.4844 22.2423 49.2267 22.2231 48.9915 22.1323C48.7563 22.0415 48.554 21.8833 48.4104 21.6777C48.2667 21.4721 48.1881 21.2284 48.1845 20.9773C48.1809 20.7262 48.2524 20.479 48.3901 20.2671C48.5277 20.0552 48.7252 19.888 48.9577 19.7867C49.1119 19.7191 49.2777 19.6823 49.4457 19.6783C49.6137 19.6743 49.7805 19.7033 49.9366 19.7635C50.0928 19.8238 50.2351 19.9141 50.3555 20.0294C50.476 20.1446 50.572 20.2825 50.6383 20.4352Z" fill="#3B3B4F"/>
<path id="Vector_118" d="M50.386 20.5465C50.4647 20.7265 50.4877 20.9261 50.4519 21.12C50.4162 21.314 50.3234 21.4935 50.1852 21.636C50.0471 21.7784 49.8698 21.8773 49.6759 21.9203C49.4819 21.9632 49.28 21.9482 49.0955 21.8772C48.9111 21.8062 48.7525 21.6823 48.6398 21.5212C48.5271 21.3602 48.4653 21.1692 48.4623 20.9724C48.4593 20.7756 48.5152 20.5818 48.6229 20.4156C48.7306 20.2494 48.8853 20.1182 49.0674 20.0386C49.3116 19.9318 49.5877 19.9254 49.835 20.0206C50.0823 20.1159 50.2805 20.305 50.386 20.5465Z" fill="#DE8833"/>
<path id="Vector_119" opacity="0.3" d="M38.7859 43.3314L21.3125 50.9688L21.6913 51.8354L39.1647 44.1981L38.7859 43.3314Z" fill="#B05700"/>
<path id="Vector_120" d="M22.7658 50.8513L22.3496 51.0332L23.4454 53.5402L23.8616 53.3583L22.7658 50.8513Z" fill="#B05700"/>
<path id="Vector_121" d="M25.3293 49.7302L24.9131 49.9121L26.0088 52.4191L26.425 52.2372L25.3293 49.7302Z" fill="#B05700"/>
<path id="Vector_122" d="M27.8937 48.6091L27.4775 48.791L28.5733 51.298L28.9895 51.1161L27.8937 48.6091Z" fill="#B05700"/>
<path id="Vector_123" d="M30.4562 47.49L30.04 47.6719L31.1358 50.1789L31.552 49.9969L30.4562 47.49Z" fill="#B05700"/>
<path id="Vector_124" d="M33.0187 46.3689L32.6025 46.5508L33.6983 49.0578L34.1145 48.8758L33.0187 46.3689Z" fill="#B05700"/>
<path id="Vector_125" d="M35.5812 45.2497L35.165 45.4316L36.2608 47.9386L36.677 47.7567L35.5812 45.2497Z" fill="#B05700"/>
<path id="Vector_126" d="M38.1447 44.1286L37.7285 44.3105L38.8243 46.8175L39.2405 46.6356L38.1447 44.1286Z" fill="#B05700"/>
<path id="Subtract" fill-rule="evenodd" clip-rule="evenodd" d="M0.747801 28.8149C0.702122 26.6059 2.20973 24.4588 5.01038 22.54C7.80335 20.6265 11.8333 18.9764 16.7092 17.7543L16.5914 17.291C11.685 18.5208 7.59697 20.1885 4.74167 22.1447C1.89411 24.0956 0.223144 26.3702 0.273767 28.8211C0.312102 30.7235 1.38521 32.493 3.22755 34.0621C5.07041 35.6316 7.70555 37.0215 10.9297 38.1706C17.3798 40.4695 26.2375 41.8223 35.9754 41.6914C45.7132 41.5605 54.5094 39.9724 60.8609 37.5025C64.0357 36.2679 66.6121 34.8083 68.3895 33.19C70.1664 31.5721 71.1665 29.774 71.1274 27.8701C71.1081 26.9443 70.7138 26.0108 70.0638 25.1058C69.8741 24.8417 69.6617 24.5788 69.429 24.3178L69.1818 24.7543C69.3631 24.964 69.5296 25.1739 69.6803 25.3837C70.2962 26.2412 70.6368 27.0811 70.6534 27.8765C70.6886 29.5922 69.79 31.2687 68.0701 32.8348C66.3505 34.4005 63.8316 35.8343 60.6872 37.057C54.4003 39.5018 45.6622 41.0837 35.9655 41.214C26.2689 41.3443 17.4696 39.9962 11.085 37.7207C7.89172 36.5826 5.31503 35.2169 3.53218 33.6986C1.74881 32.1797 0.782339 30.5289 0.747801 28.8149Z" fill="url(#paint2_linear_5407_195008)"/>
</g>
<g id="Group 1410068479">
<path id="Vector_127" d="M9.10655 16.9269C9.09239 16.9191 9.08077 16.9075 9.07303 16.8934L8.58443 16L8.09584 16.8934C8.0881 16.9075 8.07648 16.9191 8.06232 16.9269L7.16895 17.4155L8.06231 17.9041C8.07646 17.9118 8.08808 17.9234 8.09582 17.9376L8.58441 18.831L9.07301 17.9376C9.08076 17.9234 9.09238 17.9118 9.10653 17.9041L9.99989 17.4155L9.10655 16.9269Z" fill="#F6DFE6"/>
<path id="Vector_128" d="M9.10655 16.9269C9.09239 16.9191 9.08077 16.9075 9.07303 16.8934L8.58443 16L8.09584 16.8934C8.0881 16.9075 8.07648 16.9191 8.06232 16.9269L7.16895 17.4155L8.06231 17.9041C8.07646 17.9118 8.08808 17.9234 8.09582 17.9376L8.58441 18.831L9.07301 17.9376C9.08076 17.9234 9.09238 17.9118 9.10653 17.9041L9.99989 17.4155L9.10655 16.9269Z" fill="white" fill-opacity="0.5"/>
</g>
</g>
</g>
</g>
<defs>
<filter id="filter0_i_5407_195008" x="11" y="17" width="128" height="66" filterUnits="userSpaceOnUse" color-interpolation-filters="sRGB">
<feFlood flood-opacity="0" result="BackgroundImageFix"/>
<feBlend mode="normal" in="SourceGraphic" in2="BackgroundImageFix" result="shape"/>
<feColorMatrix in="SourceAlpha" type="matrix" values="0 0 0 0 0 0 0 0 0 0 0 0 0 0 0 0 0 0 127 0" result="hardAlpha"/>
<feOffset dy="4"/>
<feGaussianBlur stdDeviation="2"/>
<feComposite in2="hardAlpha" operator="arithmetic" k2="-1" k3="1"/>
<feColorMatrix type="matrix" values="0 0 0 0 0 0 0 0 0 0 0 0 0 0 0 0 0 0 0.25 0"/>
<feBlend mode="normal" in2="shape" result="effect1_innerShadow_5407_195008"/>
</filter>
<filter id="filter1_f_5407_195008" x="48.2627" y="52.3086" width="80.6914" height="23.6914" filterUnits="userSpaceOnUse" color-interpolation-filters="sRGB">
<feFlood flood-opacity="0" result="BackgroundImageFix"/>
<feBlend mode="normal" in="SourceGraphic" in2="BackgroundImageFix" result="shape"/>
<feGaussianBlur stdDeviation="2" result="effect1_foregroundBlur_5407_195008"/>
</filter>
<filter id="filter2_f_5407_195008" x="23" y="53" width="7.20801" height="7.20898" filterUnits="userSpaceOnUse" color-interpolation-filters="sRGB">
<feFlood flood-opacity="0" result="BackgroundImageFix"/>
<feBlend mode="normal" in="SourceGraphic" in2="BackgroundImageFix" result="shape"/>
<feGaussianBlur stdDeviation="1.5" result="effect1_foregroundBlur_5407_195008"/>
</filter>
<linearGradient id="paint0_linear_5407_195008" x1="84.6091" y1="42.1342" x2="79.4848" y2="91.6484" gradientUnits="userSpaceOnUse">
<stop offset="0.31" stop-color="#9E4BF1"/>
<stop offset="1" stop-color="#8B55FF"/>
</linearGradient>
<linearGradient id="paint1_linear_5407_195008" x1="86.278" y1="50.6476" x2="76.1389" y2="125.385" gradientUnits="userSpaceOnUse">
<stop stop-color="#8F00FF"/>
<stop offset="0.16" stop-color="#8000FF"/>
<stop offset="0.34" stop-color="#8000FF"/>
<stop offset="0.52" stop-color="#7000FF"/>
<stop offset="0.69" stop-color="#9E00FF"/>
<stop offset="0.85" stop-color="#8F00FF"/>
<stop offset="1" stop-color="#8000FF"/>
</linearGradient>
<linearGradient id="paint2_linear_5407_195008" x1="28.5598" y1="64.5581" x2="25.8029" y2="10.2144" gradientUnits="userSpaceOnUse">
<stop stop-color="#F4F5F4"/>
<stop offset="1" stop-color="#C9C9C9" stop-opacity="0"/>
</linearGradient>
<clipPath id="clip0_5407_195008">
<rect width="140" height="90" fill="white"/>
</clipPath>
<clipPath id="clip1_5407_195008">
<rect width="140" height="90" fill="white" transform="translate(-1)"/>
</clipPath>
<clipPath id="clip2_5407_195008">
<rect width="37" height="69" fill="white" transform="translate(12.8184 58.5371) rotate(-113.609)"/>
</clipPath>
</defs>
</svg>
