<svg width="360" height="196" viewBox="0 0 360 196" fill="none" xmlns="http://www.w3.org/2000/svg">
<g id="&#228;&#184;&#138;" clip-path="url(#clip0_6356_123810)">
<rect width="360" height="196" fill="white"/>
<path id="Vector" d="M393 -60.8931H-191V224.544H393V-60.8931Z" fill="url(#paint0_linear_6356_123810)"/>
<g id="Group" style="mix-blend-mode:screen" opacity="0.8">
<path id="Vector_2" style="mix-blend-mode:soft-light" opacity="0.5" fill-rule="evenodd" clip-rule="evenodd" d="M55.1301 147.21C49.1559 146.21 42.0572 146.727 35.9763 146.244C30.1977 145.799 24.0013 145.398 18.0361 144.349C11.7596 143.248 6.34111 140.628 0.135804 139.357C-6.67403 137.961 -14.2573 137.666 -21.1027 136.738C-35.9314 134.733 -50.5734 131.693 -65.3755 129.374C-80.0175 127.078 -99.3269 125.696 -111.435 120.38C-116.529 118.143 -121.072 115.065 -125.788 112.513C-131.02 109.701 -137.043 107.768 -142.817 105.322C-154.517 100.364 -158.166 94.2511 -162.438 86.9589C-166.843 79.4638 -171.021 72.7225 -163.038 65.353C-155.552 58.4474 -144.231 53.7067 -133.701 48.333C-124.615 43.6938 -114.973 38.668 -103.376 36.218C-87.5875 32.9126 -78.3595 28.2202 -67.4603 21.4161C-61.2683 17.5501 -58.5079 16.6561 -50.1245 16.8301C-42.8524 16.9847 -37.1494 15.332 -30.4195 14.5975C-24.2231 13.9161 -17.2088 13.1768 -10.6479 13.3024C-3.22022 13.4474 3.68742 15.0759 11.4796 14.6217C30.3489 13.515 48.6759 8.45542 67.8341 7.40194C77.2176 6.88486 86.4322 5.69124 95.8068 5.46895C98.7583 5.39163 103.71 5.0292 106.208 5.83622C108.595 6.60459 108.746 8.59073 111.098 9.36876C115.187 10.7219 125.798 10.4802 130.185 10.3788C137.235 10.2193 143.707 9.06433 150.512 7.60009C180.081 1.24055 207.409 -1.79424 239.311 0.593002C258.635 2.05113 277.748 5.8587 296.292 11.9445C302.515 13.9838 308.854 16.3614 313.948 19.3188C316.428 20.7686 324.736 25.2096 324.892 27.0895C325.034 28.7857 317.975 34.3043 315.295 35.2757C310.29 37.0878 302.147 36.5128 296.292 37.3101C290.438 38.1075 284.82 39.7602 278.348 40.2579C269.853 40.9152 260.545 39.7215 252.033 38.8855C244.112 38.1075 234.826 36.044 226.843 36.6481C227.407 36.9187 228.043 37.6146 228.621 37.8949C226.109 39.6394 219.526 38.6922 216.032 38.8855C210.778 39.1755 206.56 40.1419 201.333 39.5379C192.638 38.5376 179.214 37.0782 188.442 31.6658C180.556 28.8146 165.488 30.4045 155.668 30.7573C159.433 32.5501 170.719 33.1107 170.573 36.9042C170.422 40.7702 155.966 40.8958 150.792 42.0604C133.154 46.0327 116.263 44.2882 97.5937 43.7856C80.7025 43.3314 63.5713 45.2354 47.3646 42.5582C38.0788 41.0215 36.5586 36.5418 29.8999 33.4007C24.7303 30.9844 15.8268 30.593 9.38595 30.0517C0.460265 29.2979 -8.6921 29.6265 -17.8267 29.3849C-19.9692 29.3269 -22.2718 28.7663 -24.4365 29.0708C-28.2815 29.6168 -25.2277 28.7711 -27.3836 30.6945C-29.6594 32.7241 -30.5751 34.2705 -33.9001 36.1841C-32.651 36.4113 -32.2065 36.9429 -31.0463 37.2328C-33.5933 39.8472 -47.4619 40.2193 -52.5159 40.9152C-59.7791 41.9106 -65.7044 43.6552 -72.8521 45.0131C-84.9649 47.3182 -106.119 46.4967 -114.267 52.9383C-119.054 56.7222 -120.765 60.5737 -127.309 64.0192C-132.514 66.7592 -138.466 68.3684 -144.022 70.63C-147.173 71.9058 -155.183 76.3468 -155.988 78.3233C-156.748 80.1693 -154.21 82.315 -153.579 84.045C-152.828 86.1084 -153.192 88.2396 -152.245 90.274C-148.783 97.8465 -140.355 102.606 -129.353 107.623C-123.748 110.179 -117.934 110.667 -113.351 114.427C-109.417 117.655 -106.808 121.192 -100.34 123.009C-92.5748 125.174 -87.6541 121.076 -79.6308 122.971C-76.2125 123.778 -73.0433 125.445 -69.2383 125.556C-65.4333 125.667 -61.6817 124.256 -57.8767 123.985C-46.8974 123.202 -47.7864 126.102 -42.19 129.557C-36.5937 133.012 -27.877 132.08 -20.796 133.423C-17.4355 134.051 -14.5107 135.003 -11.2258 135.467C-7.55418 135.989 -3.98924 135.211 -1.22441 135.38C4.50083 135.723 8.62143 138.492 13.1465 140.788C19.2018 143.822 25.7675 145.467 32.4336 145.62C35.9541 145.712 40.2791 145.707 43.7996 145.693C47.3201 145.678 51.2985 143.789 54.4322 143.905C57.7794 143.982 58.6995 146.099 55.1301 147.21Z" fill="url(#paint1_linear_6356_123810)"/>
<path id="Vector_3" style="mix-blend-mode:soft-light" opacity="0.5" fill-rule="evenodd" clip-rule="evenodd" d="M138.813 56.8339C143.076 55.0169 154.562 56.3506 160.345 56.1815C167.986 55.964 175.507 55.1425 183.073 54.9444C190.909 54.7414 197.595 55.7176 205.2 56.1815C212.392 56.6213 219.1 55.6983 226.092 55.5098C233.587 55.3117 242.312 56.138 245.922 60.1103C244.397 61.2121 242.143 61.5601 239.974 62.1545C243.881 66.1896 259.492 65.8078 266.764 66.9869C275.779 68.5127 284.689 70.6938 293.435 73.5156C301.071 76.0043 307.183 80.2182 311.077 84.4563C315.9 89.6995 311.993 92.8455 304.343 96.6776C295.995 100.863 285.705 103.322 275.112 104.622C277.335 104.023 282.402 102.767 285.487 101.761C289.523 100.442 290.208 99.1712 293.279 97.4991C298.44 94.6818 307.503 94.4837 311.668 90.5549C314.904 87.4959 304.423 82.4895 299.547 80.1457C292.608 76.821 284.905 75.12 276.379 74.1728C268.098 73.2546 259.995 71.2202 251.829 70.2633C242.366 69.147 233.791 71.4135 224.35 70.8964C215.406 70.4131 207.338 67.649 198.631 66.7163C188.931 65.6773 178.628 66.233 168.729 65.6628C158.563 65.0974 147.957 64.2131 138.822 62.0578C131.266 60.2698 114.686 61.1638 109.609 57.8874C117.095 55.9206 134.511 62.4879 138.813 56.8339Z" fill="url(#paint2_linear_6356_123810)"/>
<path id="Vector_4" style="mix-blend-mode:soft-light" opacity="0.5" fill-rule="evenodd" clip-rule="evenodd" d="M393.34 3.70303H393.286C384.445 2.20013 378.48 1.63473 368.781 2.36927C359.197 3.08931 352.73 1.97785 344.257 0.755238C339.923 0.131849 334.745 1.06934 330.509 0.349297C327.126 -0.2306 324.317 -1.76732 321.081 -2.60817C313.549 -4.47303 305.908 -5.76482 298.211 -6.47415C291.814 -7.08788 293.041 -7.00089 289.09 -9.67808C285.978 -11.7705 284.102 -12.5244 279.377 -12.0073C274.754 -11.5241 262.562 -7.88523 260.023 -5.89425C260.246 -5.77827 260.468 -5.65746 260.686 -5.53181C264.491 -6.90907 271.478 -6.34367 275.799 -6.14071C281.311 -5.87492 286.543 -5.07756 291.948 -4.4735C300.273 -3.54567 315.387 -4.44451 321.463 -0.820153C321.387 -0.549534 321.139 -0.259596 321.045 0.0158554C326.055 1.10799 332.309 1.20465 337.27 1.62508C343.617 2.16631 348.649 2.48526 354.445 4.52456C359.691 6.3464 364.247 5.82933 369.639 7.00846C374.137 7.97495 377.893 10.0481 382.307 11.1982C386.499 12.2903 389.69 11.9376 393.357 11.9472L393.34 3.70303Z" fill="url(#paint3_linear_6356_123810)"/>
</g>
<path id="Vector_5" fill-rule="evenodd" clip-rule="evenodd" d="M310.491 198.941C252.5 204.563 207 189.815 207 189.815C207 189.815 129.845 186.739 124.5 185.534C119.155 184.328 91.9338 181.159 64.5 170.31C61.2318 169.021 21.0497 157.481 -15 142.718V202.66H393V190.036C370.746 194.235 339.995 198.777 310.491 198.941Z" fill="url(#paint4_linear_6356_123810)"/>
<g id="Vector_6" style="mix-blend-mode:soft-light" opacity="0.5">
<path fill-rule="evenodd" clip-rule="evenodd" d="M-14.9609 145.621V161.742L-4.15055 163.443L41.5713 163.182L-14.9609 145.621Z" fill="#8BBDDB"/>
</g>
<g id="Vector_7" style="mix-blend-mode:soft-light" opacity="0.5">
<path fill-rule="evenodd" clip-rule="evenodd" d="M50.9523 170.599L38.9151 165.022L8.45312 165.568L25.3488 173.542L44.9026 174.6L50.9523 170.599Z" fill="#8BBDDB"/>
</g>
<g id="Vector_8" style="mix-blend-mode:soft-light" opacity="0.5">
<path fill-rule="evenodd" clip-rule="evenodd" d="M4.78402 168.765L-14.9609 164.773V184.19L7.76665 183.33L20.7818 179.096L4.78402 168.765Z" fill="#8BBDDB"/>
</g>
<g id="Vector_9" style="mix-blend-mode:soft-light" opacity="0.5">
<path fill-rule="evenodd" clip-rule="evenodd" d="M34.5032 176.443L32.4229 174.65L24.8974 174.462L20.7812 176.443L30.3337 179L34.5032 176.443Z" fill="#8BBDDB"/>
</g>
<g id="Vector_10" style="mix-blend-mode:soft-light" opacity="0.5">
<path fill-rule="evenodd" clip-rule="evenodd" d="M38.9219 176.058L59.7603 175.12L85.8261 178.165L127.614 189.105L80.5588 194.866L47.1719 189.105L41.5711 180.716L38.9219 176.058Z" fill="#8BBDDB"/>
</g>
<g id="Vector_11" style="mix-blend-mode:soft-light" opacity="0.5">
<path fill-rule="evenodd" clip-rule="evenodd" d="M50.2344 165.973L76.6247 173.894L59.9957 171.898L52.5992 168.341L50.2344 165.973Z" fill="#8BBDDB"/>
</g>
<g id="Vector_12" style="mix-blend-mode:soft-light" opacity="0.5">
<path fill-rule="evenodd" clip-rule="evenodd" d="M244.096 198.077L251.097 203.6L231.539 205.05L207.793 192.466L204.859 189.146L244.096 198.077Z" fill="#8BBDDB"/>
</g>
<g id="Vector_13" style="mix-blend-mode:soft-light" opacity="0.5">
<path fill-rule="evenodd" clip-rule="evenodd" d="M200.257 189.149L194.959 192.469L162.759 195.484L144.352 191.701L141.258 189.105L200.257 189.149Z" fill="#8BBDDB"/>
</g>
<g id="Vector_14" style="mix-blend-mode:soft-light" opacity="0.5">
<path fill-rule="evenodd" clip-rule="evenodd" d="M19.9592 175.119V172.872L15.692 170.495L12.167 169.939L10.7891 171.345L12.7627 172.95L19.9592 175.119Z" fill="#8BBDDB"/>
</g>
<g id="Vector_15" style="mix-blend-mode:soft-light" opacity="0.5">
<path fill-rule="evenodd" clip-rule="evenodd" d="M10.7851 170.688L11.7052 169.016L10.0827 167.102L5.37542 165.401L1.34375 165.483L4.70422 168.044L7.76242 169.939L10.7851 170.688Z" fill="#8BBDDB"/>
</g>
<g id="Vector_16" style="mix-blend-mode:soft-light" opacity="0.5">
<path fill-rule="evenodd" clip-rule="evenodd" d="M-14.9609 208.178L36.5484 206.327L12.9007 194.139L-12.7695 186.891L-14.9609 186.973V208.178Z" fill="#8BBDDB"/>
</g>
<g id="Vector_17" style="mix-blend-mode:soft-light" opacity="0.5">
<path fill-rule="evenodd" clip-rule="evenodd" d="M44.9092 189.679L34.5033 203.003L12.9003 192.468L-11.1875 185.48L11.709 183.494L38.9217 182.349L44.9092 189.679Z" fill="#8BBDDB"/>
</g>
<g id="Group 1410068897">
<path id="Vector_18" style="mix-blend-mode:soft-light" opacity="0.5" fill-rule="evenodd" clip-rule="evenodd" d="M170.214 147.08C167.043 146.549 163.274 146.823 160.046 146.567C156.978 146.331 153.689 146.118 150.522 145.561C147.19 144.976 144.313 143.586 141.019 142.911C137.404 142.17 133.378 142.013 129.744 141.521C121.872 140.456 114.099 138.842 106.24 137.611C98.4673 136.392 88.2165 135.659 81.7884 132.837C79.0841 131.649 76.6724 130.015 74.1687 128.66C71.3912 127.167 68.1937 126.141 65.1283 124.843C58.9174 122.21 56.98 118.965 54.7123 115.094C52.3737 111.115 50.1555 107.536 54.3937 103.624C58.3676 99.9578 64.3779 97.441 69.9683 94.5883C74.7917 92.1254 79.91 89.4574 86.0667 88.1567C94.4486 86.4019 99.3475 83.9109 105.134 80.2987C108.421 78.2463 109.886 77.7717 114.337 77.8641C118.197 77.9462 121.225 77.0688 124.798 76.6789C128.087 76.3171 131.811 75.9246 135.294 75.9913C139.237 76.0683 142.904 76.9328 147.041 76.6917C157.058 76.1042 166.788 73.4182 176.958 72.8589C181.94 72.5844 186.832 71.9507 191.809 71.8327C193.375 71.7917 196.004 71.5993 197.33 72.0277C198.598 72.4356 198.678 73.49 199.926 73.903C202.097 74.6214 207.73 74.4931 210.059 74.4392C213.802 74.3546 217.238 73.7414 220.85 72.9641C236.548 69.588 251.056 67.9769 267.992 69.2442C278.25 70.0183 288.397 72.0396 298.242 75.2704C301.545 76.353 304.91 77.6153 307.615 79.1853C308.932 79.9549 313.342 82.3126 313.425 83.3106C313.5 84.211 309.753 87.1408 308.33 87.6564C305.673 88.6185 301.35 88.3132 298.242 88.7365C295.134 89.1598 292.151 90.0372 288.715 90.3014C284.206 90.6503 279.264 90.0166 274.745 89.5728C270.54 89.1598 265.611 88.0643 261.373 88.385C261.672 88.5287 262.01 88.8981 262.316 89.0469C260.983 89.973 257.488 89.4702 255.634 89.5728C252.844 89.7267 250.605 90.2398 247.83 89.9191C243.214 89.3881 236.087 88.6133 240.986 85.74C236.8 84.2264 228.8 85.0704 223.588 85.2577C225.586 86.2095 231.578 86.5071 231.5 88.521C231.42 90.5733 223.746 90.64 220.999 91.2583C211.635 93.3671 202.668 92.441 192.757 92.1742C183.79 91.933 174.695 92.9438 166.092 91.5225C161.162 90.7067 160.355 88.3286 156.82 86.661C154.076 85.3783 149.349 85.1705 145.93 84.8832C141.191 84.483 136.332 84.6574 131.483 84.5291C130.346 84.4984 129.123 84.2008 127.974 84.3624C125.933 84.6523 127.554 84.2033 126.41 85.2244C125.201 86.3019 124.715 87.1228 122.95 88.1387C123.613 88.2593 123.849 88.5415 124.465 88.6954C123.113 90.0833 115.75 90.2809 113.067 90.6503C109.211 91.1788 106.066 92.1049 102.271 92.8258C95.8409 94.0495 84.6107 93.6134 80.2852 97.0331C77.7437 99.0419 76.8352 101.087 73.3616 102.916C70.5983 104.37 67.4386 105.225 64.4889 106.425C62.8158 107.103 58.5634 109.46 58.1363 110.509C57.7328 111.489 59.0802 112.629 59.4153 113.547C59.8141 114.642 59.6206 115.774 60.1233 116.854C61.9615 120.874 66.4357 123.401 72.2761 126.064C75.2518 127.421 78.3384 127.68 80.7713 129.676C82.8598 131.39 84.2449 133.268 87.6784 134.232C91.801 135.382 94.4133 133.206 98.6727 134.212C100.487 134.64 102.17 135.525 104.19 135.584C106.21 135.643 108.201 134.894 110.221 134.75C116.05 134.335 115.578 135.874 118.549 137.708C121.52 139.543 126.148 139.048 129.907 139.761C131.691 140.094 133.243 140.6 134.987 140.846C136.936 141.123 138.829 140.71 140.297 140.8C143.336 140.982 145.524 142.452 147.926 143.67C151.141 145.281 154.626 146.155 158.165 146.236C160.034 146.285 162.33 146.282 164.199 146.274C166.068 146.267 168.18 145.264 169.844 145.325C171.621 145.366 172.109 146.49 170.214 147.08Z" fill="url(#paint5_linear_6356_123810)"/>
<path id="Vector_19" style="mix-blend-mode:soft-light" opacity="0.5" fill-rule="evenodd" clip-rule="evenodd" d="M214.637 99.1011C216.9 98.1365 222.997 98.8446 226.067 98.7548C230.124 98.6393 234.117 98.2032 238.133 98.098C242.293 97.9903 245.842 98.5085 249.88 98.7548C253.698 98.9883 257.259 98.4983 260.971 98.3982C264.949 98.293 269.582 98.7317 271.498 100.841C270.688 101.425 269.492 101.61 268.34 101.926C270.415 104.068 278.702 103.865 282.563 104.491C287.348 105.301 292.079 106.459 296.722 107.957C300.776 109.278 304.02 111.515 306.088 113.765C308.648 116.549 306.574 118.219 302.512 120.253C298.081 122.475 292.618 123.781 286.995 124.471C288.174 124.153 290.865 123.486 292.502 122.952C294.645 122.252 295.008 121.577 296.639 120.689C299.379 119.194 304.19 119.089 306.401 117.003C308.119 115.379 302.555 112.721 299.966 111.477C296.283 109.712 292.193 108.809 287.667 108.306C283.271 107.819 278.969 106.738 274.634 106.231C269.61 105.638 265.058 106.841 260.046 106.567C255.298 106.31 251.015 104.843 246.392 104.347C241.243 103.796 235.773 104.091 230.518 103.788C225.121 103.488 219.491 103.019 214.641 101.874C210.63 100.925 201.828 101.4 199.133 99.6604C203.107 98.6163 212.352 102.103 214.637 99.1011Z" fill="url(#paint6_linear_6356_123810)"/>
<path id="Vector_20" style="mix-blend-mode:soft-light" opacity="0.5" fill-rule="evenodd" clip-rule="evenodd" d="M267.439 60.2715C262.566 59.5019 256.945 58.2191 251.556 58.704C246.364 59.1607 241.359 58.881 235.688 58.881C229.607 58.881 224.444 58.5988 218.861 57.4906C213.277 56.3823 208.275 56.6876 202.668 57.1442C191.459 58.055 180.047 58.1063 168.687 59.0504C157.889 59.9483 147.824 61.8364 137.094 62.6984C132.016 63.1089 126.711 62.8677 122.317 64.348C118.504 65.6307 115.899 67.365 111.38 68.0936C110.2 68.2808 109.331 68.2706 108.383 68.7221C109.593 68.1295 110.167 67.4394 111.526 67.0058C112.817 66.5902 114.344 66.8134 115.507 66.3542C116.508 65.9617 116.581 65.1356 117.322 64.6559C118.287 64.0273 119.471 63.7887 120.425 63.3116C125.144 60.9411 126.227 58.4526 132.896 60.7461C136.018 61.8185 137.16 61.9827 140.448 60.8846C143.043 60.0175 144.849 59.3146 148.06 59.4018C151.173 59.4865 153.679 60.3998 156.704 59.9662C159.729 59.5327 162.082 59.0273 165.199 58.6835C170.681 58.1037 175.766 56.2745 181.394 55.7409C184.663 55.4279 186.744 54.5095 189.729 53.8707C192.797 53.2114 195.65 53.4474 199.015 53.314C205.71 53.0446 211.843 51.0692 217.924 53.6167C220.22 54.5762 221.895 55.4356 224.567 55.9256C227.663 56.4849 229.952 57.5137 232.989 57.8318C238.983 58.4603 244.788 59.1812 250.371 57.7009C255.869 56.2514 260.19 56.5721 264.907 59.1325C265.816 59.6225 266.41 60.3228 267.439 60.2715Z" fill="url(#paint7_linear_6356_123810)"/>
<path id="Vector_21" fill-rule="evenodd" clip-rule="evenodd" d="M278.102 55.3882C278.102 55.4963 278.131 55.602 278.186 55.6918C278.241 55.7817 278.32 55.8517 278.412 55.8931C278.504 55.9345 278.605 55.9453 278.702 55.9242C278.8 55.9031 278.889 55.8511 278.96 55.7746C279.03 55.6982 279.078 55.6008 279.097 55.4948C279.117 55.3888 279.107 55.279 279.069 55.1791C279.031 55.0793 278.966 54.9939 278.883 54.9339C278.801 54.8739 278.704 54.8418 278.604 54.8418C278.471 54.8418 278.343 54.8994 278.249 55.0019C278.154 55.1043 278.102 55.2433 278.102 55.3882Z" fill="#BB9AFF"/>
<path id="Vector_22" fill-rule="evenodd" clip-rule="evenodd" d="M282.305 60.4103C282.305 60.5189 282.334 60.6251 282.39 60.7153C282.445 60.8056 282.524 60.876 282.616 60.9176C282.709 60.9591 282.81 60.97 282.908 60.9488C283.006 60.9276 283.096 60.8753 283.167 60.7985C283.237 60.7218 283.285 60.6239 283.305 60.5174C283.324 60.4109 283.314 60.3006 283.276 60.2002C283.238 60.0999 283.173 60.0142 283.09 59.9539C283.007 59.8935 282.91 59.8613 282.81 59.8613C282.676 59.8613 282.547 59.9192 282.453 60.0221C282.358 60.1251 282.305 60.2647 282.305 60.4103Z" fill="#BB9AFF"/>
<path id="Vector_23" fill-rule="evenodd" clip-rule="evenodd" d="M265.695 79.2725C265.695 79.3806 265.725 79.4862 265.78 79.5761C265.835 79.666 265.914 79.736 266.006 79.7774C266.097 79.8187 266.199 79.8295 266.296 79.8085C266.394 79.7874 266.483 79.7353 266.553 79.6589C266.624 79.5825 266.672 79.4851 266.691 79.3791C266.71 79.2731 266.7 79.1632 266.662 79.0634C266.624 78.9636 266.56 78.8782 266.477 78.8182C266.395 78.7581 266.297 78.7261 266.198 78.7261C266.065 78.7261 265.937 78.7836 265.843 78.8861C265.748 78.9886 265.695 79.1276 265.695 79.2725Z" fill="white"/>
<path id="Vector_24" fill-rule="evenodd" clip-rule="evenodd" d="M255.258 80.4982C255.258 80.575 255.279 80.65 255.318 80.7137C255.357 80.7775 255.413 80.8271 255.478 80.8564C255.544 80.8856 255.615 80.8931 255.685 80.878C255.754 80.8628 255.817 80.8257 255.867 80.7712C255.917 80.7168 255.95 80.6475 255.964 80.5722C255.977 80.4969 255.97 80.4189 255.943 80.3482C255.915 80.2775 255.869 80.2171 255.81 80.1749C255.751 80.1326 255.682 80.1103 255.612 80.1108C255.565 80.1108 255.519 80.1209 255.476 80.1404C255.433 80.1599 255.394 80.1885 255.361 80.2245C255.328 80.2605 255.302 80.3032 255.284 80.3502C255.266 80.3972 255.258 80.4475 255.258 80.4982Z" fill="#BB9AFF"/>
<path id="Vector_25" fill-rule="evenodd" clip-rule="evenodd" d="M255.609 61.6094C255.539 61.5325 255.45 61.48 255.352 61.4586C255.255 61.4371 255.153 61.4477 255.061 61.4889C254.969 61.5302 254.89 61.6002 254.835 61.6901C254.78 61.7801 254.75 61.8859 254.75 61.9942C254.75 62.1025 254.78 62.2083 254.835 62.2982C254.89 62.3882 254.969 62.4582 255.061 62.4995C255.153 62.5407 255.255 62.5513 255.352 62.5298C255.45 62.5084 255.539 62.4559 255.609 62.379C255.703 62.2767 255.755 62.1383 255.755 61.9942C255.755 61.85 255.703 61.7117 255.609 61.6094Z" fill="#BB9AFF"/>
<path id="Vector_26" fill-rule="evenodd" clip-rule="evenodd" d="M247.793 82.2452C247.76 82.2091 247.721 82.1805 247.678 82.1609C247.635 82.1414 247.588 82.1313 247.542 82.1313C247.495 82.1313 247.449 82.1414 247.405 82.1609C247.362 82.1805 247.323 82.2091 247.29 82.2452C247.224 82.3181 247.188 82.4162 247.188 82.5184C247.188 82.6206 247.224 82.7187 247.29 82.7916C247.358 82.8557 247.446 82.8895 247.536 82.886C247.626 82.8824 247.712 82.842 247.776 82.7727C247.839 82.7035 247.876 82.6105 247.88 82.5127C247.883 82.4148 247.852 82.3192 247.793 82.2452Z" fill="#BB9AFF"/>
<path id="Vector_27" fill-rule="evenodd" clip-rule="evenodd" d="M247.312 70.4682C247.262 70.4138 247.199 70.3767 247.13 70.3616C247.06 70.3465 246.989 70.354 246.924 70.3833C246.858 70.4126 246.803 70.4622 246.763 70.526C246.724 70.5897 246.703 70.6647 246.703 70.7414C246.703 70.8181 246.724 70.8931 246.763 70.9568C246.803 71.0206 246.858 71.0702 246.924 71.0995C246.989 71.1287 247.06 71.1363 247.13 71.1212C247.199 71.1061 247.262 71.069 247.312 71.0146C247.345 70.9788 247.372 70.9363 247.39 70.8894C247.408 70.8425 247.417 70.7922 247.417 70.7414C247.417 70.6906 247.408 70.6403 247.39 70.5934C247.372 70.5465 247.345 70.504 247.312 70.4682Z" fill="#BB9AFF"/>
<path id="Vector_28" d="M285.094 74.6361C285.384 74.6361 285.618 74.3811 285.618 74.0666C285.618 73.7521 285.384 73.4971 285.094 73.4971C284.805 73.4971 284.57 73.7521 284.57 74.0666C284.57 74.3811 284.805 74.6361 285.094 74.6361Z" fill="#BB9AFF"/>
<path id="Vector_29" fill-rule="evenodd" clip-rule="evenodd" d="M288.938 79.293C288.937 79.4058 288.967 79.5161 289.025 79.6101C289.082 79.7041 289.164 79.7775 289.259 79.821C289.355 79.8645 289.46 79.8762 289.562 79.8545C289.664 79.8328 289.757 79.7788 289.831 79.6992C289.904 79.6197 289.955 79.5182 289.975 79.4077C289.995 79.2971 289.985 79.1825 289.946 79.0782C289.906 78.974 289.839 78.8849 289.753 78.8222C289.666 78.7595 289.565 78.7261 289.461 78.7261C289.323 78.7261 289.19 78.7857 289.092 78.892C288.994 78.9982 288.938 79.1424 288.938 79.293Z" fill="#BB9AFF"/>
<path id="Vector_30" fill-rule="evenodd" clip-rule="evenodd" d="M239.419 78.9805C239.346 78.9005 239.252 78.846 239.151 78.8237C239.049 78.8014 238.943 78.8125 238.848 78.8555C238.752 78.8985 238.67 78.9715 238.612 79.0653C238.554 79.159 238.523 79.2692 238.523 79.382C238.523 79.4948 238.554 79.6051 238.612 79.6988C238.67 79.7925 238.752 79.8655 238.848 79.9085C238.943 79.9516 239.049 79.9626 239.151 79.9404C239.252 79.9181 239.346 79.8635 239.419 79.7835C239.516 79.6768 239.571 79.5325 239.571 79.382C239.571 79.2316 239.516 79.0873 239.419 78.9805Z" fill="#BB9AFF"/>
<path id="Vector_31" fill-rule="evenodd" clip-rule="evenodd" d="M261.171 80.541C261.098 80.4618 261.005 80.408 260.904 80.3863C260.803 80.3645 260.698 80.3758 260.603 80.4188C260.508 80.4618 260.426 80.5344 260.369 80.6276C260.312 80.7208 260.281 80.8304 260.281 80.9424C260.281 81.0545 260.312 81.1641 260.369 81.2573C260.426 81.3505 260.508 81.4231 260.603 81.4661C260.698 81.5091 260.803 81.5204 260.904 81.4986C261.005 81.4769 261.098 81.4231 261.171 81.3439C261.22 81.2914 261.259 81.2289 261.285 81.16C261.312 81.0911 261.325 81.0171 261.325 80.9424C261.325 80.8678 261.312 80.7938 261.285 80.7249C261.259 80.656 261.22 80.5934 261.171 80.541Z" fill="#BB9AFF"/>
<path id="Vector_32" fill-rule="evenodd" clip-rule="evenodd" d="M246.043 86.988C245.969 86.9084 245.876 86.8542 245.774 86.8322C245.673 86.8103 245.568 86.8215 245.472 86.8647C245.376 86.9078 245.294 86.9808 245.237 87.0744C245.179 87.1681 245.148 87.2782 245.148 87.3908C245.148 87.5035 245.179 87.6136 245.237 87.7072C245.294 87.8009 245.376 87.8739 245.472 87.917C245.568 87.9601 245.673 87.9714 245.774 87.9494C245.876 87.9275 245.969 87.8732 246.043 87.7936C246.14 87.6865 246.195 87.5417 246.195 87.3908C246.195 87.2399 246.14 87.0952 246.043 86.988Z" fill="#BB9AFF"/>
<path id="Vector_33" fill-rule="evenodd" clip-rule="evenodd" d="M242.727 72.0876C242.676 72.0309 242.61 71.9921 242.538 71.9763C242.466 71.9604 242.391 71.9682 242.323 71.9986C242.255 72.0289 242.197 72.0806 242.156 72.1469C242.116 72.2132 242.094 72.2912 242.094 72.371C242.094 72.4509 242.116 72.5289 242.156 72.5952C242.197 72.6615 242.255 72.7131 242.323 72.7435C242.391 72.7739 242.466 72.7816 242.538 72.7658C242.61 72.75 242.676 72.7112 242.727 72.6545C242.762 72.6173 242.789 72.5732 242.808 72.5245C242.826 72.4759 242.836 72.4237 242.836 72.371C242.836 72.3184 242.826 72.2662 242.808 72.2176C242.789 72.1689 242.762 72.1247 242.727 72.0876Z" fill="#BB9AFF"/>
<path id="Vector_34" fill-rule="evenodd" clip-rule="evenodd" d="M252.894 77.7417C252.842 77.6859 252.776 77.6479 252.705 77.6326C252.634 77.6173 252.56 77.6253 252.493 77.6556C252.425 77.6859 252.368 77.7372 252.328 77.803C252.287 77.8688 252.266 77.9461 252.266 78.0252C252.266 78.1043 252.287 78.1816 252.328 78.2474C252.368 78.3132 252.425 78.3645 252.493 78.3948C252.56 78.4252 252.634 78.4332 252.705 78.4178C252.776 78.4025 252.842 78.3645 252.894 78.3087C252.928 78.2717 252.956 78.2276 252.974 78.1789C252.993 78.1302 253.003 78.078 253.003 78.0252C253.003 77.9724 252.993 77.9202 252.974 77.8715C252.956 77.8229 252.928 77.7787 252.894 77.7417Z" fill="#BB9AFF"/>
<path id="Vector_35" fill-rule="evenodd" clip-rule="evenodd" d="M218.653 89.3492C218.58 89.2692 218.487 89.2146 218.385 89.1924C218.283 89.1701 218.178 89.1812 218.082 89.2242C217.986 89.2672 217.904 89.3402 217.846 89.4339C217.789 89.5276 217.758 89.6379 217.758 89.7507C217.758 89.8635 217.789 89.9737 217.846 90.0674C217.904 90.1612 217.986 90.2342 218.082 90.2772C218.178 90.3202 218.283 90.3313 218.385 90.309C218.487 90.2867 218.58 90.2322 218.653 90.1522C218.751 90.0455 218.806 89.9011 218.806 89.7507C218.806 89.6002 218.751 89.4559 218.653 89.3492Z" fill="white"/>
<path id="Vector_36" fill-rule="evenodd" clip-rule="evenodd" d="M196.895 115.294C196.822 115.215 196.729 115.16 196.627 115.138C196.526 115.115 196.42 115.126 196.324 115.169C196.228 115.212 196.146 115.285 196.089 115.379C196.031 115.473 196 115.583 196 115.696C196 115.809 196.031 115.919 196.089 116.013C196.146 116.106 196.228 116.179 196.324 116.223C196.42 116.266 196.526 116.277 196.627 116.254C196.729 116.232 196.822 116.177 196.895 116.097C196.993 115.991 197.048 115.846 197.048 115.696C197.048 115.546 196.993 115.401 196.895 115.294Z" fill="white"/>
<path id="Vector_37" fill-rule="evenodd" clip-rule="evenodd" d="M115.895 136.226C115.822 136.146 115.729 136.092 115.627 136.069C115.526 136.047 115.42 136.058 115.324 136.101C115.228 136.144 115.146 136.217 115.089 136.311C115.031 136.405 115 136.515 115 136.628C115 136.74 115.031 136.851 115.089 136.944C115.146 137.038 115.228 137.111 115.324 137.154C115.42 137.197 115.526 137.208 115.627 137.186C115.729 137.164 115.822 137.109 115.895 137.029C115.993 136.922 116.048 136.778 116.048 136.628C116.048 136.477 115.993 136.333 115.895 136.226Z" fill="white"/>
<path id="Vector_38" fill-rule="evenodd" clip-rule="evenodd" d="M169.895 145.741C169.822 145.661 169.729 145.606 169.627 145.584C169.526 145.562 169.42 145.573 169.324 145.616C169.228 145.659 169.146 145.732 169.089 145.826C169.031 145.919 169 146.029 169 146.142C169 146.255 169.031 146.365 169.089 146.459C169.146 146.553 169.228 146.626 169.324 146.669C169.42 146.712 169.526 146.723 169.627 146.701C169.729 146.678 169.822 146.624 169.895 146.544C169.993 146.437 170.048 146.293 170.048 146.142C170.048 145.992 169.993 145.847 169.895 145.741Z" fill="white"/>
<path id="Vector_39" fill-rule="evenodd" clip-rule="evenodd" d="M228.895 145.741C228.822 145.661 228.729 145.606 228.627 145.584C228.526 145.562 228.42 145.573 228.324 145.616C228.228 145.659 228.146 145.732 228.089 145.826C228.031 145.919 228 146.029 228 146.142C228 146.255 228.031 146.365 228.089 146.459C228.146 146.553 228.228 146.626 228.324 146.669C228.42 146.712 228.526 146.723 228.627 146.701C228.729 146.678 228.822 146.624 228.895 146.544C228.993 146.437 229.048 146.293 229.048 146.142C229.048 145.992 228.993 145.847 228.895 145.741Z" fill="white"/>
<path id="Vector_40" fill-rule="evenodd" clip-rule="evenodd" d="M200.895 159.061C200.822 158.981 200.729 158.927 200.627 158.904C200.526 158.882 200.42 158.893 200.324 158.936C200.228 158.979 200.146 159.052 200.089 159.146C200.031 159.24 200 159.35 200 159.463C200 159.575 200.031 159.686 200.089 159.779C200.146 159.873 200.228 159.946 200.324 159.989C200.42 160.032 200.526 160.043 200.627 160.021C200.729 159.999 200.822 159.944 200.895 159.864C200.993 159.757 201.048 159.613 201.048 159.463C201.048 159.312 200.993 159.168 200.895 159.061Z" fill="white"/>
<path id="Vector_41" fill-rule="evenodd" clip-rule="evenodd" d="M280.895 133.372C280.822 133.292 280.729 133.238 280.627 133.215C280.526 133.193 280.42 133.204 280.324 133.247C280.228 133.29 280.146 133.363 280.089 133.457C280.031 133.551 280 133.661 280 133.774C280 133.886 280.031 133.997 280.089 134.09C280.146 134.184 280.228 134.257 280.324 134.3C280.42 134.343 280.526 134.354 280.627 134.332C280.729 134.31 280.822 134.255 280.895 134.175C280.993 134.068 281.048 133.924 281.048 133.774C281.048 133.623 280.993 133.479 280.895 133.372Z" fill="white"/>
<path id="Vector_42" fill-rule="evenodd" clip-rule="evenodd" d="M254.895 147.644C254.822 147.564 254.729 147.509 254.627 147.487C254.526 147.465 254.42 147.476 254.324 147.519C254.228 147.562 254.146 147.635 254.089 147.728C254.031 147.822 254 147.932 254 148.045C254 148.158 254.031 148.268 254.089 148.362C254.146 148.456 254.228 148.529 254.324 148.572C254.42 148.615 254.526 148.626 254.627 148.603C254.729 148.581 254.822 148.527 254.895 148.447C254.993 148.34 255.048 148.196 255.048 148.045C255.048 147.895 254.993 147.75 254.895 147.644Z" fill="white"/>
<path id="Vector_43" fill-rule="evenodd" clip-rule="evenodd" d="M90.8954 162.867C90.8223 162.787 90.729 162.733 90.6272 162.71C90.5255 162.688 90.42 162.699 90.3241 162.742C90.2282 162.785 90.1462 162.858 90.0885 162.952C90.0308 163.046 90 163.156 90 163.269C90 163.382 90.0308 163.492 90.0885 163.586C90.1462 163.679 90.2282 163.752 90.3241 163.795C90.42 163.838 90.5255 163.849 90.6272 163.827C90.729 163.805 90.8223 163.75 90.8954 163.67C90.993 163.564 91.0478 163.419 91.0478 163.269C91.0478 163.118 90.993 162.974 90.8954 162.867Z" fill="white"/>
<path id="Vector_44" fill-rule="evenodd" clip-rule="evenodd" d="M238.895 129.566C238.822 129.486 238.729 129.431 238.627 129.409C238.526 129.387 238.42 129.398 238.324 129.441C238.228 129.484 238.146 129.557 238.089 129.651C238.031 129.744 238 129.855 238 129.967C238 130.08 238.031 130.191 238.089 130.284C238.146 130.378 238.228 130.451 238.324 130.494C238.42 130.537 238.526 130.548 238.627 130.526C238.729 130.504 238.822 130.449 238.895 130.369C238.993 130.262 239.048 130.118 239.048 129.967C239.048 129.817 238.993 129.673 238.895 129.566Z" fill="white"/>
<path id="Vector_45" fill-rule="evenodd" clip-rule="evenodd" d="M199.895 137.178C199.822 137.098 199.729 137.043 199.627 137.021C199.526 136.999 199.42 137.01 199.324 137.053C199.228 137.096 199.146 137.169 199.089 137.263C199.031 137.356 199 137.467 199 137.579C199 137.692 199.031 137.802 199.089 137.896C199.146 137.99 199.228 138.063 199.324 138.106C199.42 138.149 199.526 138.16 199.627 138.138C199.729 138.115 199.822 138.061 199.895 137.981C199.993 137.874 200.048 137.73 200.048 137.579C200.048 137.429 199.993 137.285 199.895 137.178Z" fill="white"/>
<path id="Vector_46" fill-rule="evenodd" clip-rule="evenodd" d="M193.138 77.8716C193.064 77.7917 192.971 77.7371 192.869 77.7148C192.768 77.6926 192.662 77.7036 192.566 77.7466C192.47 77.7896 192.388 77.8626 192.331 77.9564C192.273 78.0501 192.242 78.1604 192.242 78.2731C192.242 78.3859 192.273 78.4962 192.331 78.5899C192.388 78.6836 192.47 78.7566 192.566 78.7996C192.662 78.8427 192.768 78.8537 192.869 78.8315C192.971 78.8092 193.064 78.7546 193.138 78.6746C193.235 78.5679 193.29 78.4236 193.29 78.2731C193.29 78.1227 193.235 77.9784 193.138 77.8716Z" fill="#BB9AFF"/>
<path id="Vector_47" fill-rule="evenodd" clip-rule="evenodd" d="M208.059 81.1119C207.986 81.0319 207.893 80.9773 207.791 80.955C207.69 80.9328 207.584 80.9439 207.488 80.9869C207.392 81.0299 207.31 81.1029 207.253 81.1966C207.195 81.2903 207.164 81.4006 207.164 81.5134C207.164 81.6262 207.195 81.7364 207.253 81.8302C207.31 81.9239 207.392 81.9969 207.488 82.0399C207.584 82.0829 207.69 82.094 207.791 82.0717C207.893 82.0495 207.986 81.9949 208.059 81.9149C208.157 81.8082 208.212 81.6638 208.212 81.5134C208.212 81.3629 208.157 81.2186 208.059 81.1119Z" fill="white"/>
<path id="Vector_48" d="M224.922 98.3349C225.212 98.3349 225.446 98.0799 225.446 97.7653C225.446 97.4508 225.212 97.1958 224.922 97.1958C224.633 97.1958 224.398 97.4508 224.398 97.7653C224.398 98.0799 224.633 98.3349 224.922 98.3349Z" fill="#BB9AFF"/>
<path id="Vector_49" fill-rule="evenodd" clip-rule="evenodd" d="M223.668 103.274C223.594 103.195 223.501 103.14 223.399 103.118C223.298 103.096 223.193 103.108 223.097 103.151C223.001 103.194 222.919 103.267 222.862 103.361C222.804 103.454 222.773 103.564 222.773 103.677C222.773 103.79 222.804 103.9 222.862 103.993C222.919 104.087 223.001 104.16 223.097 104.203C223.193 104.246 223.298 104.258 223.399 104.236C223.501 104.214 223.594 104.159 223.668 104.08C223.765 103.973 223.82 103.828 223.82 103.677C223.82 103.526 223.765 103.381 223.668 103.274Z" fill="#BB9AFF"/>
<path id="Vector_50" fill-rule="evenodd" clip-rule="evenodd" d="M238.894 117.196C238.821 117.116 238.728 117.062 238.626 117.04C238.524 117.018 238.419 117.03 238.323 117.073C238.228 117.116 238.146 117.189 238.088 117.282C238.031 117.376 238 117.486 238 117.599C238 117.711 238.031 117.822 238.088 117.915C238.146 118.009 238.228 118.082 238.323 118.125C238.419 118.168 238.524 118.179 238.626 118.157C238.728 118.135 238.821 118.081 238.894 118.002C238.992 117.894 239.047 117.75 239.047 117.599C239.047 117.448 238.992 117.303 238.894 117.196Z" fill="#BB9AFF"/>
<path id="Vector_51" fill-rule="evenodd" clip-rule="evenodd" d="M221.961 82.4564C221.909 82.4 221.843 82.3617 221.771 82.3461C221.699 82.3306 221.625 82.3386 221.557 82.369C221.489 82.3995 221.431 82.4511 221.391 82.5174C221.35 82.5836 221.328 82.6615 221.328 82.7412C221.328 82.8208 221.35 82.8987 221.391 82.9649C221.431 83.0312 221.489 83.0828 221.557 83.1133C221.625 83.1438 221.699 83.1517 221.771 83.1362C221.843 83.1206 221.909 83.0823 221.961 83.0259C222.03 82.9501 222.068 82.8477 222.068 82.7412C222.068 82.6346 222.03 82.5323 221.961 82.4564Z" fill="#BB9AFF"/>
<path id="Vector_52" fill-rule="evenodd" clip-rule="evenodd" d="M201.351 72.0189C201.299 71.9625 201.233 71.9242 201.162 71.9086C201.09 71.8931 201.015 71.9011 200.947 71.9315C200.88 71.962 200.822 72.0136 200.781 72.0799C200.74 72.1461 200.719 72.224 200.719 72.3037C200.719 72.3833 200.74 72.4612 200.781 72.5274C200.822 72.5937 200.88 72.6453 200.947 72.6758C201.015 72.7063 201.09 72.7142 201.162 72.6987C201.233 72.6831 201.299 72.6448 201.351 72.5884C201.42 72.5126 201.459 72.4102 201.459 72.3037C201.459 72.1971 201.42 72.0948 201.351 72.0189Z" fill="#BB9AFF"/>
<path id="Vector_53" fill-rule="evenodd" clip-rule="evenodd" d="M204.312 75.1463C204.26 75.09 204.194 75.0516 204.122 75.0361C204.051 75.0205 203.976 75.0285 203.908 75.059C203.841 75.0895 203.783 75.1411 203.742 75.2073C203.701 75.2735 203.68 75.3514 203.68 75.4311C203.68 75.5108 203.701 75.5886 203.742 75.6549C203.783 75.7211 203.841 75.7727 203.908 75.8032C203.976 75.8337 204.051 75.8417 204.122 75.8261C204.194 75.8106 204.26 75.7722 204.312 75.7159C204.381 75.64 204.42 75.5377 204.42 75.4311C204.42 75.3245 204.381 75.2222 204.312 75.1463Z" fill="#BB9AFF"/>
<path id="Vector_54" fill-rule="evenodd" clip-rule="evenodd" d="M215.25 98.2806C215.198 98.2243 215.132 98.1859 215.06 98.1703C214.988 98.1548 214.914 98.1628 214.846 98.1933C214.778 98.2237 214.72 98.2754 214.68 98.3416C214.639 98.4078 214.617 98.4857 214.617 98.5654C214.617 98.645 214.639 98.7229 214.68 98.7892C214.72 98.8554 214.778 98.907 214.846 98.9375C214.914 98.968 214.988 98.9759 215.06 98.9604C215.132 98.9448 215.198 98.9065 215.25 98.8501C215.319 98.7743 215.357 98.672 215.357 98.5654C215.357 98.4588 215.319 98.3565 215.25 98.2806Z" fill="#BB9AFF"/>
<path id="Vector_55" d="M211.651 96.3523C211.748 96.3523 211.826 96.2673 211.826 96.1625C211.826 96.0576 211.748 95.9727 211.651 95.9727C211.555 95.9727 211.477 96.0576 211.477 96.1625C211.477 96.2673 211.555 96.3523 211.651 96.3523Z" fill="#BB9AFF"/>
<path id="Vector_56" fill-rule="evenodd" clip-rule="evenodd" d="M214.097 95.1138C214.065 95.0812 214.023 95.063 213.979 95.063C213.935 95.063 213.893 95.0812 213.861 95.1138C213.835 95.1397 213.817 95.1734 213.809 95.2107C213.801 95.2479 213.804 95.2869 213.817 95.3226C213.829 95.3582 213.852 95.3888 213.881 95.4104C213.91 95.432 213.944 95.4436 213.979 95.4436C214.014 95.4436 214.049 95.432 214.078 95.4104C214.107 95.3888 214.129 95.3582 214.142 95.3226C214.155 95.2869 214.157 95.2479 214.149 95.2107C214.141 95.1734 214.123 95.1397 214.097 95.1138Z" fill="#BB9AFF"/>
<path id="Vector_57" fill-rule="evenodd" clip-rule="evenodd" d="M174.074 63.2009C174.001 63.1213 173.907 63.0671 173.806 63.0451C173.704 63.0231 173.599 63.0344 173.503 63.0776C173.407 63.1207 173.326 63.1937 173.268 63.2873C173.21 63.381 173.18 63.4911 173.18 63.6037C173.18 63.7164 173.21 63.8265 173.268 63.9201C173.326 64.0138 173.407 64.0868 173.503 64.1299C173.599 64.173 173.704 64.1843 173.806 64.1623C173.907 64.1403 174.001 64.0861 174.074 64.0065C174.123 63.9536 174.161 63.8908 174.188 63.8217C174.214 63.7526 174.227 63.6785 174.227 63.6037C174.227 63.5289 174.214 63.4548 174.188 63.3857C174.161 63.3166 174.123 63.2538 174.074 63.2009Z" fill="#BB9AFF"/>
<path id="Vector_58" d="M174.917 62.8866C175.122 62.8866 175.288 62.7063 175.288 62.4838C175.288 62.2614 175.122 62.0811 174.917 62.0811C174.713 62.0811 174.547 62.2614 174.547 62.4838C174.547 62.7063 174.713 62.8866 174.917 62.8866Z" fill="#BB9AFF"/>
<path id="Vector_59" fill-rule="evenodd" clip-rule="evenodd" d="M213.461 65.0825C213.461 65.1622 213.483 65.2402 213.524 65.3065C213.564 65.3728 213.622 65.4244 213.69 65.4548C213.758 65.4852 213.833 65.493 213.905 65.4773C213.977 65.4615 214.043 65.4229 214.094 65.3664C214.146 65.3098 214.181 65.2378 214.195 65.1595C214.209 65.0812 214.201 65.0001 214.173 64.9265C214.145 64.853 214.097 64.7903 214.036 64.7463C213.974 64.7024 213.902 64.6792 213.829 64.6797C213.781 64.6797 213.732 64.6901 213.688 64.7104C213.643 64.7307 213.602 64.7604 213.568 64.7978C213.534 64.8353 213.507 64.8797 213.488 64.9285C213.47 64.9774 213.461 65.0297 213.461 65.0825Z" fill="white"/>
<path id="Vector_60" fill-rule="evenodd" clip-rule="evenodd" d="M213.894 45.8367C213.821 45.757 213.728 45.7028 213.626 45.6809C213.524 45.6589 213.419 45.6702 213.323 45.7133C213.228 45.7564 213.146 45.8294 213.088 45.9231C213.031 46.0167 213 46.1268 213 46.2395C213 46.3521 213.031 46.4622 213.088 46.5559C213.146 46.6495 213.228 46.7225 213.323 46.7656C213.419 46.8087 213.524 46.82 213.626 46.7981C213.728 46.7761 213.821 46.7219 213.894 46.6422C213.992 46.5351 214.047 46.3903 214.047 46.2395C214.047 46.0886 213.992 45.9438 213.894 45.8367Z" fill="#BB9AFF"/>
<path id="Vector_61" d="M205.027 60.3671C205.231 60.3671 205.397 60.1867 205.397 59.9643C205.397 59.7419 205.231 59.5615 205.027 59.5615C204.822 59.5615 204.656 59.7419 204.656 59.9643C204.656 60.1867 204.822 60.3671 205.027 60.3671Z" fill="#BB9AFF"/>
<path id="Vector_62" fill-rule="evenodd" clip-rule="evenodd" d="M230.632 46.7396C230.581 46.6833 230.515 46.6449 230.443 46.6293C230.371 46.6138 230.296 46.6218 230.229 46.6522C230.161 46.6827 230.103 46.7343 230.062 46.8006C230.022 46.8668 230 46.9447 230 47.0244C230 47.104 230.022 47.1819 230.062 47.2481C230.103 47.3144 230.161 47.366 230.229 47.3965C230.296 47.427 230.371 47.4349 230.443 47.4194C230.515 47.4038 230.581 47.3655 230.632 47.3091C230.701 47.2333 230.74 47.131 230.74 47.0244C230.74 46.9178 230.701 46.8155 230.632 46.7396Z" fill="#BB9AFF"/>
</g>
<g id="&#231;&#159;&#179;&#229;&#164;&#180;">
<path id="Vector_63" fill-rule="evenodd" clip-rule="evenodd" d="M345.25 -4.75732L315.866 3.37719C315.866 3.37719 293.698 20.8521 285.711 31.5448V34.7571L315.479 38.2248L318.962 34.7571H324.178L342.674 39.7543L356.345 31.9638L361.137 5.65267L357.277 5.04973L363.971 -2.02878L361.192 -3.39135L345.25 -4.75732Z" fill="url(#paint8_linear_6356_123810)"/>
<path id="Vector_64" style="mix-blend-mode:multiply" opacity="0.5" fill-rule="evenodd" clip-rule="evenodd" d="M285.711 34.7612L318.313 9.05303L345.25 -4.10254L361.181 -3.40082L363.964 -2.04507L357.27 5.03686L361.125 5.6398L356.345 31.9509L342.674 39.755L324.181 34.7612H318.966L315.482 38.2255L285.711 34.7612Z" fill="url(#paint9_linear_6356_123810)"/>
<path id="Vector_65" style="mix-blend-mode:multiply" opacity="0.3" fill-rule="evenodd" clip-rule="evenodd" d="M361.128 5.6398L344.073 12.4628L339.996 17.8245L344.073 36.5666L356.347 31.9509L342.676 39.755L324.184 34.7612H318.968V24.2797L310.247 17.8245L308.5 16.7924L314.549 18.7817L318.316 9.05303L345.253 -4.10254L361.183 -3.40082L363.966 -2.04507L357.273 5.03686L361.128 5.6398Z" fill="url(#paint10_linear_6356_123810)"/>
<path id="Vector_66" fill-rule="evenodd" clip-rule="evenodd" d="M356.315 99.9793L356.569 101.846C363.694 101.604 369.802 99.2708 372.935 97.8299V28.6797L360.115 39.1442L322.021 46.8665L281 58.4313L300.749 78.1033L327.074 91.2657L324.841 98.1092H328.401L335.618 96.1812L344.074 89.1605L346.44 90.564L349.352 89.1605L358.468 96.6853L356.315 99.9793Z" fill="url(#paint11_linear_6356_123810)"/>
<path id="Vector_67" fill-rule="evenodd" clip-rule="evenodd" d="M372.935 102.282C366.772 110.798 361.003 121.971 361.003 121.971L364.42 125.361C360.874 130.395 359.735 133.672 359.735 133.672L356.949 179.301L356.93 179.325L353.148 183.978V196.613L372.935 196.197V102.282Z" fill="url(#paint12_linear_6356_123810)"/>
<path id="Vector_68" style="mix-blend-mode:multiply" opacity="0.5" fill-rule="evenodd" clip-rule="evenodd" d="M361.121 185.381L372.93 176.978V130.272L359.731 133.675L356.944 179.304L356.93 179.325L357.073 180.51L361.121 185.381Z" fill="url(#paint13_linear_6356_123810)"/>
<path id="Vector_69" style="mix-blend-mode:multiply" opacity="0.5" fill-rule="evenodd" clip-rule="evenodd" d="M372.931 186.425L366.318 191.47L356.444 191.701L353.148 183.979V196.617L372.931 196.198V186.425Z" fill="url(#paint14_linear_6356_123810)"/>
<path id="Vector_70" style="mix-blend-mode:multiply" opacity="0.5" fill-rule="evenodd" clip-rule="evenodd" d="M372.934 56.832L363.351 61.199L349.44 74.4023L343.336 77.6418L348.74 63.3348L350.155 54.2908L360.107 39.1152L347.649 54.8529L327.077 91.2606L324.844 98.1041H328.404L335.622 96.1761L344.077 89.1554L346.443 90.5589L349.355 89.1554L358.467 96.687L356.314 99.9674L356.569 101.834C363.694 101.592 369.801 99.2589 372.934 97.8179V56.832Z" fill="url(#paint15_linear_6356_123810)"/>
<path id="Vector_71" fill-rule="evenodd" clip-rule="evenodd" d="M360.115 39.1387L346.643 51.9366L329.363 58.4292H281L322.021 46.861L360.115 39.1387Z" fill="#7548CF"/>
<path id="Vector_72" style="mix-blend-mode:multiply" opacity="0.5" fill-rule="evenodd" clip-rule="evenodd" d="M329.363 58.4292L336.234 67.9195L347.111 54.7571L346.643 51.9366L360.115 39.1387L348.398 53.5308L327.074 91.2636L300.753 78.1012L281 58.4292H329.363Z" fill="url(#paint16_linear_6356_123810)"/>
<g id="Vector_73" style="mix-blend-mode:soft-light">
<path fill-rule="evenodd" clip-rule="evenodd" d="M372.937 143.786L358.68 150.984L357.898 163.816L372.937 161.697V143.786Z" fill="#9387D1"/>
</g>
<g id="Vector_74" style="mix-blend-mode:soft-light">
<path fill-rule="evenodd" clip-rule="evenodd" d="M290.273 67.6703L318.976 69.3224L336.226 67.919L345.238 59.1066L346.451 58.4287L345.002 62.7787L337.837 71.431L312.643 74.197L294.158 71.54L290.273 67.6703Z" fill="#9387D1"/>
</g>
<path id="Vector_75" fill-rule="evenodd" clip-rule="evenodd" d="M285.812 150.62L287.235 158.846L304.353 164.876L305.801 166.214V170.111L318.968 189.215L325.392 188.223L320.092 190.781V197.516H346.568L344.559 190.799H338.662L344.559 186.258L354.452 167.073L348.555 164.893H342.488V162.716L344.556 160.144L351.19 142.734L352.665 133.486H348.171L353.494 101.179C353.494 101.179 328.013 107.607 315.326 115.459C296.089 127.344 285.812 150.62 285.812 150.62Z" fill="url(#paint17_linear_6356_123810)"/>
<path id="Vector_76" style="mix-blend-mode:multiply" opacity="0.5" fill-rule="evenodd" clip-rule="evenodd" d="M328.243 193.175L320.094 190.78V197.498H346.57L344.561 190.78L328.243 193.175Z" fill="url(#paint18_linear_6356_123810)"/>
<path id="Vector_77" style="mix-blend-mode:multiply" opacity="0.3" fill-rule="evenodd" clip-rule="evenodd" d="M328.648 153.739L331.007 162.804L314.516 167.705L342.492 164.875V162.698L344.556 160.126L351.316 141.997L352.684 133.468L344.298 137.371L348.19 133.468L353.513 101.161L328.648 153.739Z" fill="url(#paint19_linear_6356_123810)"/>
<path id="Vector_78" style="mix-blend-mode:multiply" opacity="0.3" fill-rule="evenodd" clip-rule="evenodd" d="M354.461 167.055L344.564 186.243L338.682 190.78L330.676 190.552L325.401 188.222L318.977 189.213L326.33 184.209L325.35 171.854L354.461 167.055Z" fill="url(#paint20_linear_6356_123810)"/>
<path id="Vector_79" style="mix-blend-mode:multiply" opacity="0.3" fill-rule="evenodd" clip-rule="evenodd" d="M344.555 190.78L328.237 193.175L326.32 197.498H346.564L344.555 190.78Z" fill="url(#paint21_linear_6356_123810)"/>
<path id="Vector_80" fill-rule="evenodd" clip-rule="evenodd" d="M285.719 34.7578L318.317 9.053L315.874 3.37793C315.874 3.37793 293.758 19.3881 285.719 31.5456V34.7578Z" fill="#7548CF"/>
<path id="Vector_81" fill-rule="evenodd" clip-rule="evenodd" d="M353.516 101.161L328.651 153.739L287.235 158.849L285.812 150.622C285.812 150.622 299.384 124.635 311.305 115.26C323.225 105.886 353.516 101.161 353.516 101.161Z" fill="#7548CF"/>
</g>
<g id="Group_2" style="mix-blend-mode:lighten">
<path id="Vector_82" style="mix-blend-mode:screen" fill-rule="evenodd" clip-rule="evenodd" d="M176.361 27.0884C173.885 21.1323 171.039 15.366 167.843 9.82962C160.985 -2.12612 152.587 -12.9524 142.906 -22.3195L142.885 -22.3392C123.619 -41.0271 99.8663 -53.3797 74.3926 -57.9581C48.9188 -62.5364 22.7728 -59.1522 -1 -48.1995C-0.948702 -46.7167 -0.942667 -45.2175 -1 -43.7019V224.612C16.6396 232.72 35.6505 236.704 54.7985 236.306C73.9465 235.907 92.8033 231.135 110.145 222.299C113.612 220.534 117 218.595 120.308 216.525C133.502 208.237 145.326 197.603 155.287 185.065C163.886 174.298 171.001 162.23 176.409 149.239C184.37 130.04 188.483 109.221 188.476 88.1622C188.47 67.1035 184.343 46.2872 176.37 27.095L176.361 27.0884Z" fill="url(#paint22_radial_6356_123810)"/>
<path id="Vector_83" fill-rule="evenodd" clip-rule="evenodd" d="M167.383 31.5148C165.086 25.9897 162.445 20.641 159.48 15.5059C153.118 4.41632 145.328 -5.6256 136.347 -14.3141L136.329 -14.3338C117.928 -32.1971 95.118 -43.8114 70.7148 -47.743C46.3116 -51.6746 21.3836 -47.7513 -0.992188 -36.4576V212.895C15.7751 221.332 34.0371 225.678 52.5131 225.629C70.9891 225.58 89.2316 221.138 105.961 212.613C109.178 210.972 112.322 209.175 115.391 207.256C127.631 199.563 138.599 189.694 147.838 178.059C155.811 168.07 162.407 156.875 167.419 144.824C174.804 127.014 178.62 107.7 178.614 88.1635C178.608 68.6273 174.779 49.316 167.383 31.5115V31.5148Z" fill="url(#paint23_radial_6356_123810)"/>
<g id="Group_3" style="mix-blend-mode:multiply" opacity="0.5">
<path id="Vector_84" fill-rule="evenodd" clip-rule="evenodd" d="M108.598 210.082C106.238 210.669 103.77 211.092 101.356 211.538C98.1629 212.143 94.8992 212.163 91.7 211.597C89.9921 211.296 88.26 211.073 86.5491 210.689C84.6903 210.265 82.8134 210.79 80.9546 210.325C78.3686 209.668 75.505 210.183 72.8646 210.082C68.3383 209.921 63.8633 208.113 59.4759 207.129C54.6026 206.057 49.9737 204.134 45.0098 203.488C42.1824 203.124 39.9494 202.074 37.2729 201.165C34.9675 200.394 33.498 199 31.5818 197.426C27.9005 194.434 24.1829 191.36 19.8859 189.418C15.5841 187.516 11.118 186.088 6.55448 185.153C3.9154 184.579 1.37978 183.542 -0.953125 182.083V186.948C1.10784 188.234 3.42228 189.07 5.54964 190.208C13.4706 194.352 21.9499 196.94 30.2933 199.85C38.4407 202.681 46.3225 206.562 54.6538 208.825C56.3648 209.291 58.0938 209.481 59.8228 209.855C61.6997 210.262 63.5042 210.84 65.4204 211.069C69.2496 211.535 72.9642 212.929 76.8176 213.152C79.5152 213.293 82.0258 212.729 84.6631 212.585C88.0669 212.404 91.4133 212.808 94.796 213.07C98.5384 213.331 102.296 213.176 106.009 212.608C109.226 210.968 112.37 209.17 115.439 207.251C115.327 207.29 115.197 207.329 115.086 207.372C112.856 208.143 110.813 209.518 108.598 210.082Z" fill="#C4B0B8"/>
<path id="Vector_85" fill-rule="evenodd" clip-rule="evenodd" d="M64.0639 151.437C66.9456 151.981 69.8847 152.267 72.7483 153.077C77.8781 154.573 82.9023 155.301 88.2011 155.665C96.0466 156.233 104.043 156.738 111.91 156.292C118.159 155.947 124.445 155.344 130.691 155.403C136.726 155.462 142.61 154.898 148.358 152.834C154.846 150.492 161.448 148.389 167.435 144.81C174.82 127 178.637 107.686 178.63 88.1495C178.624 68.6133 174.796 49.3021 167.399 31.4975C168.235 34.0071 168.941 36.5725 169.91 39.0001C171.805 43.8093 172.978 48.6612 172.978 53.8772C172.957 55.8455 172.773 57.9615 173.015 59.9036C173.316 62.4493 173.516 64.0862 172.849 66.6549C172.345 68.5346 172.161 70.3553 171.433 72.1727C171.174 72.8616 170.857 73.1569 170.429 73.6883C170 74.2197 169.825 74.843 169.445 75.4893C168.422 77.3067 166.952 79.7343 165.187 80.7841C164.008 81.4207 162.774 81.9295 161.503 82.303C160.015 82.7655 159.439 82.9591 157.951 82.362C156.856 81.9388 155.329 81.3778 154.197 81.3122C153.434 81.2925 152.84 81.6764 152.112 81.8174C151.207 81.9782 150.347 81.8962 149.436 82.0996C145.718 82.9492 142.091 83.9399 138.271 83.8973C135.274 83.8579 132.338 84.4058 129.306 84.4058C125.661 84.4058 122.064 84.5239 118.443 84.0187C116.008 83.6906 113.385 83.0083 110.95 82.8475C108.458 82.6868 105.911 82.9295 103.406 82.8869C94.7612 82.7458 85.8353 80.4823 78.3217 75.7321C74.3147 73.1641 70.0208 71.1663 65.5455 69.7878C59.782 67.99 53.8888 66.2087 47.9925 64.9982C42.5105 63.8346 37.178 61.9544 32.1113 59.3984C29.871 58.2431 27.7249 56.8834 25.696 55.3338C23.8372 53.9592 21.8095 52.9062 20.008 51.4726C14.7817 47.2867 10.2433 42.3757 5.66872 37.3664C3.48102 34.9847 1.26314 32.5965 -1 30.2969V40.0695C0.860837 41.9092 2.56001 43.9332 4.07548 46.1155C5.00488 47.5098 9.76653 51.5514 8.48408 53.6607C7.90773 54.5924 6.10326 54.2873 5.28551 54.2873C3.41618 54.2691 1.57145 53.8219 -0.127931 52.9751L-0.975855 52.5519V155.711C1.13641 156.039 3.24868 156.367 5.33982 156.725C13.3936 158.076 21.5379 159.917 29.4589 162.02C36.879 163.988 44.2236 166.245 51.6437 168.167C55.5846 169.197 59.5285 170.267 63.4875 171.218C68.3156 172.389 73.0652 174.007 77.9174 175.02C85.8776 176.697 93.9465 178.629 102.058 178.859C108.455 179.042 114.798 179.406 121.192 179.406C129.822 179.406 139.064 180.358 147.523 178.153C147.626 178.13 147.727 178.096 147.824 178.052C151.192 173.839 154.316 169.402 157.179 164.769C154.089 166.268 150.848 167.369 147.523 168.049C145.109 168.512 142.541 169.119 140.531 170.697C139.194 171.746 137.948 172.717 136.349 173.265C130.845 175.184 125.953 175.063 120.431 173.305C118.367 172.648 116.321 171.95 114.294 171.221C112.785 170.677 111.412 169.706 109.906 169.253C105.648 168.043 101.24 167.173 96.9459 166.101C94.9 165.595 92.7605 165.172 90.7539 164.503C88.4847 163.735 86.3634 162.482 84.1877 161.511C80.0236 159.651 76.1551 157.732 71.6922 156.918C68.8859 156.413 65.63 156.029 63.0651 154.622C62.2262 154.176 60.98 153.549 61.1127 152.326C61.2757 150.849 63.0802 151.256 64.0639 151.437Z" fill="#C4B0B8"/>
<path id="Vector_86" fill-rule="evenodd" clip-rule="evenodd" d="M47.4093 53.9125C46.9179 53.6752 46.4848 53.3156 46.1449 52.8627C45.4849 52.0813 44.763 51.3645 43.9874 50.7205C42.6476 49.6675 40.8824 49.1426 39.4611 48.1913C37.6204 46.9381 35.7979 45.4225 34.0296 44.0676C32.5208 42.9359 31.3893 41.1578 30.143 39.7406C28.8032 38.2054 27.1858 36.8308 25.7163 35.3972C24.0054 33.7373 22.5358 31.8379 20.8068 30.2206C19.0151 28.5651 17.5371 26.5461 16.4555 24.2763C15.9727 23.2921 15.1912 22.5999 14.6903 21.6092C14.1647 20.7121 13.692 19.7796 13.275 18.8175C12.8496 17.666 12.2913 16.5966 11.8266 15.4845C11.3046 14.1723 11.3227 12.6731 11.0632 11.2985C10.2816 7.25692 9.55444 3.17268 8.85135 -0.891885C8.27501 -4.28722 8.24784 -7.88597 8.14222 -11.3436C8.03058 -14.6602 7.17663 -17.9047 7.15853 -21.2508C7.15853 -22.563 7.10119 -23.6751 7.60511 -24.8594C8.25388 -26.434 8.9811 -27.8118 9.50011 -29.4521C11.0994 -34.4451 14.0264 -39.0115 17.9492 -42.1248C18.5527 -42.5906 20.4236 -43.8241 22.2824 -45.3003C14.2935 -43.1844 6.51598 -40.2176 -0.9375 -36.4429V23.5906L-0.907332 23.6103C-0.255547 24.0762 0.432461 24.7815 1.06614 25.2867C4.38542 27.9111 7.88876 30.6241 10.8097 33.757C13.951 37.1129 16.9443 40.4099 20.665 43.0572C21.7814 43.8446 22.9522 44.4121 24.1049 45.101C25.0706 45.6652 25.8702 46.4132 26.8931 46.8397C28.2148 47.3843 29.0507 47.6467 30.2124 48.5357C31.1173 49.2593 32.0978 49.8638 33.1334 50.3367C34.9167 51.1044 36.6458 52.0131 38.4321 52.761C39.2499 53.1252 40.1069 53.3285 40.9427 53.65C43.3024 54.6342 45.0345 54.5391 48.0641 54.8015C48.9875 54.3389 48.1697 54.2963 47.4093 53.9125Z" fill="#C4B0B8"/>
<path id="Vector_87" fill-rule="evenodd" clip-rule="evenodd" d="M20.8444 -16.3357C21.122 -14.597 22.0906 -13.2848 22.5372 -11.6248C23.0493 -9.7442 23.4345 -7.82548 23.6899 -5.88393C24.061 -2.93146 23.8197 -0.00195232 24.1335 2.97348C24.737 8.53396 26.4419 14.0518 28.708 19.048C30.9742 24.0443 34.8638 28.2073 39.0853 31.3205C43.4728 34.5747 48.3461 37.0614 53.144 39.466C55.8779 40.8208 58.7596 41.3884 61.5478 42.5398C63.8924 43.4912 66.1978 44.5836 68.5213 45.571C70.8448 46.5585 72.948 48.2611 75.2534 49.0714C76.6867 49.5766 78.0989 50.1014 79.5292 50.6657C81.9855 51.617 84.2154 53.0309 86.6144 54.143C89.9987 55.734 93.5096 56.9858 97.1033 57.8828C100.655 58.7948 104.095 58.2109 107.665 57.7221C110.64 57.3186 113.7 57.066 116.609 56.3082C122.022 54.914 127.84 55.2978 133.365 55.2978C137.547 55.2978 142.381 55.7407 146.084 53.2737C147.143 52.5684 148.314 51.8204 148.908 50.6066C149.635 49.1107 149.729 47.2113 150.043 45.594C150.695 42.2577 153.616 39.9942 155.604 37.5469C158.208 34.3517 159.192 30.3101 159.714 26.1864C160.142 22.9519 160.215 18.8053 159.491 15.492C153.129 4.40242 145.339 -5.6395 136.358 -14.328C138.471 -9.96161 140.076 -5.3328 141.938 -0.822085C144.744 5.92923 147.218 13.2842 146.977 20.8293C146.883 23.7818 146.66 27.0951 145.209 29.6638C144.092 31.6321 142.251 33.0788 140.468 34.2565C137.547 36.1559 134.629 38.2588 131.467 39.571C127.915 41.0472 124.364 42.4611 120.83 43.9373C118.766 44.787 116.778 45.758 114.545 46.0598C111.886 46.3879 108.968 46.2239 106.307 46.1419C96.5813 45.8597 87.5981 40.893 78.4519 37.9143C75.5129 36.9301 72.4652 36.5004 69.5623 35.4473C67.8202 34.7535 66.1294 33.9156 64.5049 32.941C60.4343 30.6447 55.9895 28.9388 52.1753 26.088C48.3696 23.2176 44.9308 19.8112 41.9489 15.9578C39.6798 13.0053 38.6568 10.0528 37.5434 6.41803C35.3466 -0.740069 34.5258 -7.63245 33.9223 -15.0923C33.6628 -18.2679 32.658 -21.0957 31.97 -24.1695C31.5234 -26.21 31.7829 -28.5556 33.2886 -30.0318C36.3062 -32.922 40.748 -34.723 44.5953 -35.7334C46.9399 -36.3403 49.1699 -37.167 51.5869 -37.1473C54.004 -37.1276 56.3305 -37.1473 58.7083 -37.1276C60.9956 -37.1079 63.2346 -37.6722 65.5158 -37.6722C68.2105 -37.6722 70.7211 -36.8455 73.3825 -36.6224C76.1692 -36.4061 78.9432 -36.0283 81.6928 -35.4906C84.9668 -34.864 88.0899 -33.4501 91.2523 -32.4168C97.3869 -30.396 103.672 -27.122 108.712 -22.8344C110.015 -21.7452 111.427 -20.8661 112.785 -19.9049C113.974 -19.0355 114.403 -18.0448 115.166 -16.749C116.718 -14.1773 117.848 -11.3325 118.507 -8.34103C119.026 -6.13652 118.953 -4.03371 118.935 -1.77999C118.896 1.11015 119.306 4.24304 119.735 7.07741C120.365 11.201 124.029 17.329 120.012 20.6227C119.457 21.0594 118.828 21.3713 118.16 21.5403C117.493 21.7093 116.801 21.7319 116.126 21.6068C114.155 21.3247 111.962 20.6555 110.064 20.0716C104.505 18.3722 98.6845 16.3514 92.918 15.5608C91.1708 15.3181 89.5172 15.4624 87.7882 14.9769C86.7109 14.6489 85.6759 14.2683 84.5926 14.0452C82.0609 13.54 79.5322 11.7489 77.5437 9.96098C76.6384 9.13429 75.8901 8.12389 74.9577 7.29392C73.6933 6.16214 72.1695 5.41418 70.9625 4.20039C69.2304 2.46172 67.5768 0.591835 65.9594 -1.27806C62.6401 -5.0769 60.2261 -9.83038 57.4047 -14.0327C55.6213 -16.6834 53.6298 -19.5735 53.147 -22.8672C52.7758 -25.4162 55.6395 -26.771 57.3715 -27.578C59.0643 -28.3686 61.5176 -28.8508 63.4066 -28.49C66.2491 -27.9421 68.8381 -26.1018 71.4935 -24.8814C77.3144 -22.1127 83.805 -21.427 88.8624 -16.9786C90.7031 -15.381 90.6096 -13.8457 91.1859 -11.6216C91.4666 -10.6112 92.1546 -9.51874 92.6192 -8.54771C93.3797 -7.01242 93.4732 -6.62859 93.0839 -4.99161C92.7128 -3.41368 92.3386 -1.20918 90.6488 -0.503864C89.1793 0.122715 86.8165 -0.421859 85.5522 -1.2912C84.7888 -1.81608 84.14 -2.48202 83.2287 -2.82648C82.6886 -3.04955 81.3669 -3.71549 80.8479 -3.51538C79.9185 -3.13156 80.6065 -2.50498 80.9957 -1.95713C81.3301 -1.47611 81.6117 -0.954248 81.8346 -0.402169C82.0187 0.103031 82.0368 0.72961 82.3898 1.17576C83.8775 3.01613 86.8346 3.94451 88.8986 4.73512C90.7091 5.42075 92.061 6.22775 94.0284 6.25072C96.6869 6.2704 95.6096 4.12822 95.9989 2.04509C96.5209 -0.64494 99.3664 -1.65533 99.6803 -4.44377C99.982 -7.1338 99.1975 -10.329 98.1715 -12.773C97.6958 -13.7986 97.1427 -14.7796 96.5179 -15.7058C95.5311 -17.3461 94.0797 -18.3138 92.574 -19.4029C88.1503 -22.5785 82.6161 -24.0941 77.6251 -25.9345C72.6342 -27.7748 67.1362 -28.0963 62.1724 -30.0187C58.7867 -31.3309 55.2321 -31.7574 51.7408 -32.443C48.5211 -33.0696 45.7058 -31.695 44.3569 -28.5064C42.9447 -25.1274 41.27 -21.4697 42.2447 -17.7299C43.5814 -12.5762 45.1626 -7.45858 47.6551 -2.81008C50.7239 2.93083 54.4596 8.34369 60.0028 11.5225C63.9256 13.7664 68.1501 15.0196 72.2751 16.6992C75.4918 18.0114 78.5787 19.0644 81.9312 19.6287C87.0821 20.4783 91.8075 23.795 96.8468 25.1695C103.781 27.0672 110.802 28.5641 117.882 29.654C120.562 30.0607 122.773 30.3101 125.426 29.8967C126.633 29.7163 127.713 29.8377 128.848 29.2931C129.647 28.906 130.465 28.5025 131.262 28.1384C134.014 26.8458 136.675 24.7037 136.358 21.0852C136.057 17.6669 134.925 14.2322 134.33 10.8763C133.92 8.65207 133.884 6.44755 133.383 4.22336C133.012 2.52405 132.659 0.785383 132.23 -0.890963C131.877 -2.22613 131.355 -3.92216 130.613 -5.05394C129.143 -7.27814 128.027 -9.88615 126.464 -12.0087C125.815 -12.878 125.181 -13.5472 124.68 -14.5183C124.18 -15.4893 124.029 -15.9125 123.323 -16.7818C122.719 -17.5068 122.318 -18.4221 121.687 -19.1274C120.589 -20.3805 118.989 -21.4237 117.707 -22.4079C114.674 -24.7535 111.403 -27.0006 108 -28.6146C104.68 -30.1926 101.195 -31.2391 97.7732 -32.4955C94.7043 -33.647 91.8588 -35.4677 88.8081 -36.7405C85.3523 -38.1314 81.7578 -39.0751 78.0989 -39.5519C70.7724 -40.5361 63.5001 -41.2283 56.1011 -41.2086C46.8766 -41.1692 36.6502 -44.968 27.8903 -40.1785C25.4763 -38.8433 24.0792 -37.2654 22.9808 -34.5786C21.4346 -30.5541 20.6752 -26.224 20.7508 -21.8633C20.7689 -20.0558 20.5637 -18.1367 20.8444 -16.3357Z" fill="#C4B0B8"/>
</g>
<g id="Group_4" style="mix-blend-mode:soft-light" opacity="0.63">
<path id="Vector_88" fill-rule="evenodd" clip-rule="evenodd" d="M163.69 26.8379C163.065 28.6848 162.205 30.3054 161.653 32.1917C161.311 33.5333 160.811 34.8211 160.166 36.0233C159.484 37.2437 159.064 38.6281 158.406 39.8845C157.665 41.2632 157.086 42.7379 156.683 44.2738C156.412 45.4056 156.382 46.6063 156.08 47.7479C155.718 49.2143 155.35 50.684 154.975 52.1471C154.705 53.0589 154.316 53.9239 153.82 54.7157C153.331 55.5785 152.752 56.9301 151.982 57.5206C149.487 59.4331 145.917 58.6195 143.041 58.2849C140.413 57.9798 137.769 57.9569 135.147 57.5665C133.768 57.3954 132.377 57.3603 130.992 57.4615C129.668 57.5296 128.349 57.6929 127.045 57.9503C125.914 58.1898 124.815 58.2259 123.675 58.426C122.042 58.7081 120.434 59.1674 118.78 59.3117C116.952 59.4725 115.075 59.7612 113.243 59.8005C110.618 59.853 107.95 59.561 105.334 59.8661C103.047 60.1319 100.747 60.5419 98.4541 60.5551C95.4517 60.5551 92.4583 59.5709 89.6731 58.4752C85.0382 56.6381 80.2494 55.1389 75.5964 53.2854C73.9035 52.6129 72.3043 51.468 70.7502 50.4839C69.323 49.5817 67.7961 48.9846 66.4261 47.9906C63.9578 46.2028 60.8527 45.0382 57.977 44.3657C55.05 43.6636 52.2226 42.5089 49.3167 41.7609C47.3946 41.2689 45.5026 40.1929 43.5834 39.9173C43.9456 41.5576 47.2709 42.1743 48.4598 42.6369C51.2117 43.7096 54.1931 44.2935 56.8636 45.5893C58.5987 46.4423 59.8328 48.0792 61.2058 49.4603C62.4732 50.7397 63.4116 52.0618 64.86 53.1148C66.2838 54.1778 67.8949 54.9083 69.5915 55.2603C73.3272 56.0739 76.9784 57.5304 80.7111 58.4293C84.3774 59.315 88.0859 60.2533 91.5108 61.9722C92.4643 62.4512 95.2525 63.6486 95.3702 65.1412C95.4638 66.3353 94.124 65.899 93.3545 65.899C91.6888 65.899 89.4891 65.4627 87.923 66.1779C86.7159 66.729 85.7353 67.3228 84.4196 67.6377C81.7853 68.2643 78.4298 67.7263 75.9705 66.6798C72.3918 65.1609 68.4811 64.3834 64.7212 63.6092C62.1111 63.0679 59.5914 62.2576 56.9903 61.6409C54.9414 61.1685 53.0072 61.0799 50.9553 60.8667C48.0132 60.5583 45.065 60.2106 42.1441 59.6595C39.8115 59.233 37.2497 58.9837 35.1133 57.8453C33.3299 56.8973 31.2538 56.3002 29.6817 54.9716C29.2683 54.6206 26.8995 52.3964 26.3624 52.9082C25.2097 53.9809 31.7578 58.0323 32.2134 58.3669C34.3257 59.9252 36.5436 60.9126 38.9183 61.9755C41.8997 63.2877 44.9534 63.8848 48.0524 64.7246C51.5859 65.6825 55.1134 66.4731 58.6379 67.4442C62.1624 68.4152 65.8287 68.9105 69.3139 70.1932C71.0848 70.7864 72.8126 71.5222 74.4829 72.3944C75.9917 73.2441 77.6272 73.8116 79.1299 74.6908C82.3647 76.5804 85.4154 79.2343 88.9399 80.4711C91.9936 81.5405 95.1862 82.4394 98.3938 82.7314C102.618 83.0988 106.843 82.4558 111.034 81.9801C115.304 81.4413 119.6 81.1806 123.898 81.1994C127.881 81.2715 131.855 82.1835 135.832 82.3836C138.569 82.528 140.769 81.4651 143.286 80.4481C146.119 79.3065 148.56 77.8237 151.131 76.1244C153.347 74.6095 155.928 73.8466 158.545 73.933C159.176 73.9625 159.601 74.2151 160.193 74.3398C160.881 74.4907 161.382 74.1134 161.97 73.8116C164.315 72.6142 166.665 70.6459 167.794 68.015C169.001 65.1839 169.583 62.1855 169.988 59.1083C170.217 57.3697 170.03 55.5654 170.045 53.8136C170.066 51.468 170.434 49.1651 170.419 46.8097C170.395 43.083 170.808 39.1398 169.731 35.5411C168.717 32.149 166.647 28.98 164.749 26.1293C163.675 24.489 162.785 22.7667 161.674 21.2085C161.279 22.0582 162.224 23.6886 162.414 24.5645C162.649 25.775 163.087 28.091 163.69 26.8379Z" fill="#C4B0B8"/>
<path id="Vector_89" fill-rule="evenodd" clip-rule="evenodd" d="M6.13398 52.2336C5.88956 50.5933 4.4502 48.9957 3.4182 47.6671C3.34578 47.7753 3.20698 47.6507 3.02291 47.1422C3.14361 47.3095 3.27638 47.4703 3.4182 47.6671C3.55399 47.4604 3.46647 46.4205 3.04401 45.5413C2.64872 44.7245 2.01806 44.1274 1.42965 43.4844C0.71061 42.7126 -0.101479 42.0504 -0.984375 41.5161V52.8405C0.442915 53.1423 1.90039 53.3325 3.32466 53.572C4.54676 53.7787 6.39348 53.9887 6.13398 52.2336Z" fill="#C4B0B8"/>
<path id="Vector_90" fill-rule="evenodd" clip-rule="evenodd" d="M79.8369 62.8464C79.1942 61.5342 79.0312 61.3931 77.9147 60.9207C77.0095 60.5434 76.5659 60.2646 75.5912 60.1563C74.6166 60.0481 73.5061 59.4642 72.4983 59.8578C70.9503 60.4614 71.246 61.9409 72.2901 62.9907C72.7077 63.4786 73.2447 63.8268 73.8381 63.9946C74.65 64.2235 75.483 64.3523 76.3215 64.3784C77.7367 64.3587 78.9497 64.4374 80.1598 63.5353C80.1863 63.3976 80.1687 63.2543 80.11 63.129C80.0512 63.0037 79.9549 62.904 79.8369 62.8464Z" fill="#C4B0B8"/>
<path id="Vector_91" fill-rule="evenodd" clip-rule="evenodd" d="M139.025 159.757C135.044 161.357 130.696 161.977 126.444 162.073C121.38 162.226 116.311 162.06 111.263 161.577C107.905 161.226 104.576 161.318 101.23 160.8C99.6066 160.547 98.0676 160.626 96.4472 160.544C95.5208 160.495 94.5432 159.888 93.6289 160.216C90.1104 161.387 96.3658 163.588 97.0719 163.969C99.6156 165.34 102.461 165.816 105.162 166.669C106.2 166.997 107.274 167.325 108.282 167.705C109.29 168.086 110.144 168.63 111.176 168.873C115.316 169.857 119.468 170.284 123.599 171.255C125.108 171.612 126.81 171.881 128.367 171.563C130.017 171.235 131.559 170.149 133.032 169.342C134.842 168.358 136.683 167.508 138.318 166.203C139.034 165.632 140.129 164.812 140.732 164.087C141.179 163.539 141.164 163.188 141.399 162.532C141.822 161.374 141.801 160.892 140.883 160.055C140.55 159.728 140.144 159.501 139.706 159.395C139.268 159.288 138.812 159.307 138.382 159.448C138.358 159.543 138.34 159.648 139.025 159.757Z" fill="#C4B0B8"/>
<path id="Vector_92" fill-rule="evenodd" clip-rule="evenodd" d="M37.7285 207.897C35.9029 206.5 33.9234 205.676 31.8082 204.945C33.1449 204.758 30.9844 204.115 28.8148 203.347C27.8642 203.019 26.9318 202.553 25.9994 202.14C25.1636 201.773 24.3247 201.467 23.4798 201.133C22.5293 200.756 21.6964 200.109 20.764 199.712C18.7785 198.873 16.8985 197.744 14.9553 196.816C13.5129 196.117 11.9166 195.684 10.429 195.113C7.01917 193.801 3.34383 192.669 -0.237973 192.161C-0.388849 192.138 -0.639302 192.098 -0.953125 192.056V198.987C-0.609127 199.27 -0.268157 199.555 0.0547183 199.85C1.59969 201.258 3.37401 202.248 5.04874 203.41C6.67946 204.515 8.42987 205.396 10.26 206.034C12.7434 206.93 15.2329 207.835 17.8038 208.396C19.7712 208.829 21.7266 209.052 23.7121 209.341C26.6391 209.764 29.548 210.348 32.4871 210.653C34.195 210.82 36.7659 211.375 38.3471 210.325C39.5028 209.544 38.5342 208.501 37.7285 207.897Z" fill="#C4B0B8"/>
<path id="Vector_93" fill-rule="evenodd" clip-rule="evenodd" d="M39.3243 177.485C38.9421 176.692 38.4391 175.974 37.8366 175.363C37.0085 174.378 36.1236 173.451 35.1872 172.588C32.3477 170.101 29.2035 168.084 26.0049 166.204C22.3624 164.057 18.5426 162.286 14.5956 160.916C9.90036 159.275 4.74342 158.816 -0.163076 158.409L-0.96875 158.331V178.014C0.15377 178.768 1.29741 179.483 2.44407 180.202C4.24891 181.28 6.12971 182.2 8.06872 182.954C10.7845 184.086 13.802 184.152 16.6566 184.01C19.4552 183.848 22.2435 183.52 25.0091 183.026C27.6826 182.577 30.3622 182.209 33.0448 181.806C34.8553 181.537 36.7744 181.439 38.3556 180.343C39.3725 179.615 39.8403 178.745 39.3243 177.485Z" fill="#C4B0B8"/>
<path id="Vector_94" fill-rule="evenodd" clip-rule="evenodd" d="M77.3694 -1.88765C77.9488 -3.30812 78.2325 -3.42293 77.2669 -4.28571C76.4449 -4.96073 75.5659 -5.54948 74.6416 -6.04406C73.7364 -6.5263 72.1491 -7.02822 71.1111 -6.90356C68.6548 -6.57551 69.7773 -3.57383 70.5347 -2.12056C71.0115 -1.20857 71.3646 -0.372052 72.1582 0.120026C73.0936 0.700678 73.7243 0.995931 74.7804 0.618671C75.5135 0.3185 76.1837 -0.1389 76.7509 -0.726334C77.1673 -1.12984 78.1359 -1.86795 78.0333 -2.58967L77.7316 -2.652L77.3694 -1.88765Z" fill="#C4B0B8"/>
<path id="Vector_95" fill-rule="evenodd" clip-rule="evenodd" d="M94.6379 31.0547C94.5835 29.7884 94.6801 29.5063 93.9529 28.7026C92.8666 27.5019 91.2854 26.5932 90.006 25.6878C87.0964 23.6821 83.9603 22.0942 80.6758 20.9638C77.7566 19.9422 74.7638 19.1883 71.7288 18.7101C69.4627 18.3263 67.3232 17.5127 65.042 17.1715C61.5356 16.6401 57.2115 14.7997 54.4324 18.4149C52.1783 21.3444 56.3455 25.2154 58.3008 26.8097C60.048 28.2367 61.8494 28.9453 63.9587 29.5194C66.3727 30.1755 68.7867 30.976 71.2008 31.6288C75.727 32.8393 79.9003 35.1783 84.2244 37.0088C87.1967 38.2686 89.318 38.1505 91.9915 36.2248C93.4761 35.1586 95.9444 32.3899 94.6379 31.0547Z" fill="#C4B0B8"/>
<path id="Vector_96" fill-rule="evenodd" clip-rule="evenodd" d="M53.7674 9.21865C54.3709 10.3931 55.8103 12.5484 53.9334 13.2799C52.8651 13.6965 52.1017 12.7649 51.2991 12.0989C50.4149 11.3674 49.392 10.6686 48.8036 9.60246C48.1518 8.42476 48.5018 7.34546 49.6092 6.80745C51.8211 5.74128 52.8712 8.04422 54.1204 9.60246L53.7674 9.21865Z" fill="#C4B0B8"/>
<path id="Vector_97" fill-rule="evenodd" clip-rule="evenodd" d="M59.0431 51.7394C58.9556 50.2829 58.9978 50.1878 58.0262 49.3775C57.316 48.7337 56.5703 48.1377 55.7932 47.5929C54.2903 46.7069 52.6395 46.157 50.938 45.9756C49.6193 45.8739 48.2222 45.9329 47.0484 46.6546C46.288 47.1238 46.1431 48.0882 46.3333 49.0494C46.6048 50.4338 47.8662 51.3064 48.8076 52.1233C49.7491 52.9401 51.0557 54.0227 52.2446 54.3343C53.7382 54.7247 55.1686 54.9511 56.6622 54.5246C57.5494 54.2687 59.4173 53.8685 59.3931 52.5038L59.0431 51.7394Z" fill="#C4B0B8"/>
<path id="Vector_98" fill-rule="evenodd" clip-rule="evenodd" d="M41.7767 38.3326C40.9137 37.0204 40.3645 35.8263 39.0428 34.9537C38.4725 34.5731 37.0331 33.402 36.2999 33.4053C35.799 33.4053 35.1562 34.1172 35.0929 34.6945C35.0144 35.367 35.6209 36.2659 35.9559 36.8006C36.6991 38.0107 37.7377 38.9718 38.9553 39.5759C39.5588 39.8449 40.0627 39.9959 40.7236 39.7892C41.3844 39.5825 41.6047 38.9264 42.1327 38.7164L41.7767 38.3326Z" fill="#C4B0B8"/>
</g>
<g id="Group_5" style="mix-blend-mode:multiply" opacity="0.47">
<path id="Vector_99" fill-rule="evenodd" clip-rule="evenodd" d="M16.7728 54.2899C17.7172 54.8673 18.7341 55.6251 19.739 56.0745C21.4107 56.8159 22.9315 57.8624 24.5972 58.6432C26.5495 59.5584 28.6527 60.1686 30.6624 60.9198C33.5051 61.9304 36.2372 63.2769 38.8097 64.9352C41.4048 66.6542 43.9003 69.1638 45.231 72.1786C45.9975 73.9107 46.3053 76.2464 45.3759 78.0015C44.8327 79.0218 43.9878 80.1109 42.98 80.603C41.272 81.4362 39.6033 80.9048 37.8864 80.4685C35.7122 79.9517 33.6065 79.1394 31.619 78.0507C30.5598 77.4537 29.5489 76.7385 28.4928 76.1447C27.3824 75.505 26.1482 75.0425 24.9834 74.5242C24.0782 74.1174 23.1548 73.7696 22.2254 73.4482C21.0831 73.036 20.0145 72.4134 19.0661 71.6078C17.1693 70.13 15.5849 68.2286 14.4191 66.0309C12.9707 63.2129 12.2163 60.313 12.7172 57.1472C13.1125 54.7033 14.7752 53.496 16.7728 54.2899Z" fill="#C4B0B8"/>
<path id="Vector_100" fill-rule="evenodd" clip-rule="evenodd" d="M48.7152 71.9114C49.3519 70.9732 49.7834 71.065 50.8274 71.1339C51.6329 71.2236 52.4315 71.3748 53.2173 71.5866C57.122 72.4822 61.1051 72.9349 64.9857 74.0142C67.1643 74.6178 69.1891 75.251 71.1806 76.409C73.1722 77.567 75.1698 78.584 77.089 79.8273C81.5489 82.724 86.1777 84.9744 91.2924 86.1423C94.4307 86.8574 97.581 87.5529 100.734 88.1926C102.638 88.5764 104.557 88.8913 106.452 89.3277C108.347 89.764 110.224 90.3545 112.122 90.8105C115.55 91.6339 118.845 92.5196 122.138 93.8679C125.43 95.2162 128.852 96.4923 131.456 99.2381C132.789 100.639 134.5 102.696 134.491 104.848C134.491 106.367 133.888 107.777 133.191 109.053C130.581 113.738 125.584 116.52 121.241 118.918C115.206 122.241 108.046 122.674 101.459 123.511C92.8646 124.587 84.1469 123.983 75.6828 122.103C71.8747 121.26 68.0424 120.44 64.2162 119.663C59.6084 118.721 54.9524 118.055 50.3597 117.005C46.5757 116.143 42.7676 115.181 39.0561 114.004C37.0113 113.389 35.0079 112.622 33.0602 111.707C31.368 110.821 29.7238 109.829 28.1356 108.739C26.8441 107.902 25.4199 107.042 24.2461 106.019C23.205 105.11 22.3148 103.883 21.5031 102.738C20.1513 100.839 19.2792 98.7493 18.1839 96.6891C17.4716 95.248 16.6868 93.8506 15.8332 92.5032C14.9551 91.191 13.9171 89.9608 12.9635 88.7175C10.9569 86.0931 8.4976 83.8295 6.62674 81.1067C5.53439 79.5222 4.4692 77.5276 4.3153 75.5298C4.20969 74.1651 4.20667 72.761 5.52231 72.1345C6.7595 71.5472 8.23809 71.4783 9.56278 71.6752C10.8875 71.872 12.2786 72.4789 13.561 72.9087C15.8675 73.6298 18.104 74.5933 20.2388 75.7857C25.6039 78.9087 30.8846 82.7929 36.9227 84.1904C39.4152 84.7645 41.9076 85.0663 44.3005 83.9903C46.0956 83.2427 47.804 82.2694 49.3911 81.0903C51.4792 79.45 50.8455 77.5145 49.9342 75.2805C49.545 74.3095 48.4104 72.1607 48.7152 71.9114Z" fill="#C4B0B8"/>
<path id="Vector_101" fill-rule="evenodd" clip-rule="evenodd" d="M41.0503 150.207C37.0581 147.284 31.9525 146.048 27.4714 144.302C22.7098 142.465 17.9481 140.638 13.1472 138.916C8.55759 137.275 3.79291 136.327 -0.96875 135.458V155.197C1.74702 155.755 4.59858 155.768 7.34453 156.033C10.1319 156.334 12.9398 156.334 15.7272 156.033C17.9632 155.794 20.2143 155.925 22.4563 155.922C27.1395 155.922 31.874 156.155 36.5512 155.948C38.0961 155.876 42.4474 155.781 43.0087 153.481C43.3557 152.034 42.034 150.926 41.0503 150.207Z" fill="#C4B0B8"/>
<path id="Vector_102" fill-rule="evenodd" clip-rule="evenodd" d="M163.565 134.473C164.09 136.878 164.407 139.066 163.333 141.385C161.824 144.6 158.55 146.759 155.487 147.799C153.574 148.405 151.596 148.736 149.603 148.783C147.382 148.894 145.174 149.265 142.95 149.311C139.628 149.354 136.312 149.639 133.025 150.164C131.214 150.459 129.428 151.037 127.593 151.276C126.173 151.44 124.763 151.69 123.369 152.027C120.403 152.779 117.455 152.802 114.458 153.254C111.356 153.723 108.001 153.504 104.917 153.008C102.18 152.565 99.277 152.172 97.9764 149.288C96.9535 147.025 97.7048 145.807 99.5274 144.266C101.145 142.891 103.867 142.297 105.762 141.622C108.674 140.578 111.564 139.607 114.546 138.823C118.716 137.724 122.723 136.11 126.842 134.788C135.291 132.078 143.411 128.303 152.268 127.427C155.931 127.066 160.264 127.017 163.641 128.808C164.803 129.421 165.484 130.53 165.976 131.783C166.764 133.706 165.88 134.864 163.565 134.473Z" fill="#C4B0B8"/>
<path id="Vector_103" fill-rule="evenodd" clip-rule="evenodd" d="M164.056 117.632C163.564 119.318 163.663 119.836 162.245 120.315C161.307 120.643 160.314 120.926 159.336 120.617C158.129 120.237 156.684 119.262 156.524 117.884C156.352 116.352 157.595 115.214 158.748 114.542C161.059 113.193 162.924 113.305 164.068 116.1L164.056 117.632Z" fill="#C4B0B8"/>
<path id="Vector_104" fill-rule="evenodd" clip-rule="evenodd" d="M64.918 4.75218C64.971 3.84359 64.7958 2.93645 64.4111 2.12776C63.9534 0.98354 63.4157 -0.120839 62.8027 -1.17571C62.3501 -1.88758 62.0635 -2.66836 61.641 -3.40319C61.0375 -4.43984 60.434 -5.39118 59.921 -6.48687C59.2602 -7.90406 58.2644 -9.06865 57.3471 -10.2923C56.7157 -11.0776 56.1652 -11.9356 55.7055 -12.8511C55.3374 -13.622 54.7761 -14.2125 54.3869 -14.9506C53.892 -15.8889 53.5601 -16.9845 53.1135 -17.9589C52.6451 -19.0151 52.1181 -20.0394 51.5353 -21.0261C51.1189 -21.7052 50.7146 -22.5286 50.108 -23.0404C49.7037 -23.3684 49.1545 -24.0967 48.7049 -24.3099C47.5763 -24.848 46.9909 -24.4248 46.4085 -23.2864C45.4791 -21.4723 45.108 -18.8643 45.2015 -16.8205C45.2936 -14.5115 45.6868 -12.2285 46.3693 -10.0397C46.8581 -8.50112 47.6729 -7.08722 48.4092 -5.66019C49.7972 -3.00953 51.4599 -0.552412 53.0773 1.9375C54.0308 3.40718 55.6482 4.62095 56.9548 5.73633C57.7721 6.43508 58.6995 6.96643 59.6917 7.30443C60.2469 7.50454 61.0284 7.91788 61.6289 7.78994C62.1811 7.67184 62.7635 7.26178 63.2886 7.05511C64.6615 6.51382 65.2771 5.24425 64.918 4.75218Z" fill="#C4B0B8"/>
<path id="Vector_105" fill-rule="evenodd" clip-rule="evenodd" d="M70.0932 6.79544C70.9019 7.24159 71.7589 7.55322 72.1029 8.52426C72.1965 8.78342 72.3534 9.3444 72.1844 9.62324C71.5568 10.6402 69.2966 9.27551 68.7897 8.71782C68.2827 8.16013 67.7215 7.15629 68.2133 6.42145C68.3224 6.26882 68.4597 6.14282 68.6164 6.05165C68.7731 5.96048 68.9458 5.90617 69.1231 5.89225C69.3003 5.87833 69.4783 5.9051 69.6455 5.97084C69.8126 6.03658 69.9652 6.13981 70.0932 6.27383V6.79544Z" fill="#C4B0B8"/>
<path id="Vector_106" fill-rule="evenodd" clip-rule="evenodd" d="M5.07357 -9.04288C5.00719 -10.4371 5.05546 -11.8248 5.00718 -13.2157C4.91736 -15.9256 4.64709 -18.6249 4.19848 -21.2923C3.92087 -22.9326 3.97217 -24.5532 3.61308 -26.1475C4.24978 -26.41 3.80018 -29.0737 2.02286 -29.4444C1.15407 -29.6299 0.270904 -29.7244 -0.614474 -29.7266C-0.738193 -29.7266 -0.855861 -29.7266 -0.976562 -29.7266V2.23883C-0.71071 2.41429 -0.430994 2.56359 -0.14072 2.68498C1.12966 3.19018 2.47849 3.66913 3.43806 2.39301C4.78991 0.624807 5.02228 -1.70436 5.22747 -3.91871C5.3874 -5.63442 5.15505 -7.32389 5.07357 -9.04288Z" fill="#C4B0B8"/>
<path id="Vector_107" d="M-0.976562 5.2478V8.85638C-0.836879 8.8582 -0.697673 8.83832 -0.563163 8.79733C-0.108738 8.58777 0.284546 8.24753 0.574432 7.81317C0.664589 7.68955 0.727955 7.54543 0.759822 7.39151C0.79169 7.2376 0.791254 7.07786 0.758515 6.92417C0.468832 6.0253 -0.0984625 5.13299 -0.976562 5.2478Z" fill="#C4B0B8"/>
<path id="Vector_108" d="M0.5625 6.02686C0.607763 6.35491 0.713387 6.65672 0.761667 6.93228L0.797876 7.05038L0.5625 6.02686Z" fill="#C4B0B8"/>
<path id="Vector_109" fill-rule="evenodd" clip-rule="evenodd" d="M0.579242 35.6175C0.4355 35.4334 0.320327 35.2251 0.23826 35.0007C-0.157628 34.8545 -0.560564 34.7318 -0.96875 34.6333V36.5229C-0.205316 36.8017 0.603379 36.933 1.25516 36.6279C1.3306 36.2473 0.769346 35.893 0.579242 35.6175Z" fill="#C4B0B8"/>
<path id="Vector_110" fill-rule="evenodd" clip-rule="evenodd" d="M102.496 173.031C102.441 171.657 101.711 171.017 100.718 170.112C98.6061 168.199 95.8481 166.89 93.2531 166.008C90.9446 165.224 88.1987 164.672 85.8148 165.388C84.7466 165.716 83.4008 166.267 82.9542 167.461C82.1727 169.511 84.2065 172.529 85.7123 173.664C87.6042 175.085 90.3442 175.518 92.5108 176.233C94.5317 176.887 96.6549 177.082 98.748 176.804C99.4903 176.699 100.278 176.663 100.969 176.358C101.66 176.053 102.375 176.03 102.988 175.702C103.6 175.374 104.333 174.829 104.388 174.061C104.4 173.602 104.296 173.148 104.086 172.749C103.742 172.113 102.963 172.031 102.496 173.031Z" fill="#C4B0B8"/>
</g>
<g id="Group_6" style="mix-blend-mode:soft-light">
<path id="Vector_111" fill-rule="evenodd" clip-rule="evenodd" d="M46.4715 135.73C46.3448 135.425 46.1698 134.864 45.7051 134.673C45.3188 134.516 45.1347 134.64 44.7998 134.7C44.0816 134.831 43.3665 135.074 43.8402 135.858C44.1836 136.278 44.6469 136.561 45.1559 136.661C45.5844 136.737 46.378 136.589 46.3357 136.192L46.4715 135.73Z" fill="#C4B0FF"/>
<path id="Vector_112" fill-rule="evenodd" clip-rule="evenodd" d="M6.35943 126.845C6.8455 127.651 7.03207 128.628 6.88145 129.577C6.81808 130.155 6.81206 130.922 6.11803 131.113C4.49158 131.556 2.79874 128.249 2.37025 127.202C1.99296 126.353 1.81666 125.415 1.85728 124.473C1.90254 123.951 2.2586 122.941 2.82288 122.728C3.5501 122.455 4.46743 122.971 4.99852 123.545C6.20553 124.857 6.12406 126.408 6.79093 127.845L6.35943 126.845Z" fill="#C4B0FF"/>
<path id="Vector_113" fill-rule="evenodd" clip-rule="evenodd" d="M7.21615 126.725C7.64253 126.791 8.06061 126.91 8.46239 127.079C8.66457 127.207 8.98141 127.407 9.0659 127.604C9.09727 127.734 9.08722 127.872 9.03737 127.995C8.98752 128.119 8.90079 128.22 8.79129 128.283C8.70789 128.347 8.612 128.39 8.51101 128.408C8.41003 128.425 8.30666 128.417 8.20891 128.385C8.04701 128.286 7.90452 128.153 7.78947 127.994C7.60107 127.774 7.43422 127.533 7.29159 127.276C7.21089 127.164 7.14205 127.043 7.0864 126.915C7.02303 126.718 7.16486 126.666 7.20107 126.518L7.21615 126.725Z" fill="#C4B0FF"/>
<path id="Vector_114" fill-rule="evenodd" clip-rule="evenodd" d="M9.07263 134.574L8.52344 134.748C8.58681 134.945 8.52343 135.168 8.76182 135.315C8.99022 135.42 9.24007 135.458 9.48603 135.424C9.72743 135.368 9.86624 135.217 9.83003 134.991C9.79382 134.764 9.50414 134.594 9.22653 134.521L9.07263 134.574Z" fill="#C4B0FF"/>
<path id="Vector_115" fill-rule="evenodd" clip-rule="evenodd" d="M36.6176 141.186C36.6508 141.396 36.6447 141.547 36.3943 141.635C36.2068 141.698 36.0077 141.708 35.8159 141.663C35.6241 141.618 35.4461 141.52 35.2989 141.38C34.9066 140.976 34.5536 140.238 34.801 139.831C34.9411 139.674 35.1269 139.575 35.3266 139.551C35.5263 139.526 35.7277 139.578 35.8964 139.697C36.0933 139.847 36.2753 140.02 36.4395 140.212C36.5295 140.342 36.5931 140.491 36.6258 140.65C36.6586 140.809 36.6599 140.974 36.6296 141.133L36.6176 141.186Z" fill="#C4B0FF"/>
<path id="Vector_116" fill-rule="evenodd" clip-rule="evenodd" d="M65.5736 90.1696C65.7637 90.3632 65.8602 90.4255 65.9085 90.6945C65.9881 90.9846 65.9588 91.2972 65.827 91.5638C65.5253 92.1051 64.7226 92.466 64.1644 92.607C63.9364 92.6792 63.696 92.6919 63.4626 92.644C63.2293 92.5961 63.0097 92.489 62.8216 92.3315C62.5895 92.1658 62.3926 91.9481 62.2443 91.6929C62.0959 91.4377 61.9995 91.151 61.9616 90.8519C61.8946 90.562 61.9127 90.2565 62.0133 89.9783C62.114 89.7 62.2922 89.463 62.5228 89.3003C62.9697 88.9283 63.4839 88.6633 64.0316 88.5228C64.2427 88.4806 64.46 88.4947 64.6649 88.5638C64.8699 88.633 65.0564 88.7551 65.2084 88.9197C65.5373 89.2182 65.9749 89.7497 65.5736 90.1696Z" fill="#C4B0FF"/>
<path id="Vector_117" fill-rule="evenodd" clip-rule="evenodd" d="M61.309 92.2425C61.309 92.0686 61.3301 91.8685 61.1551 91.8193C61.0122 91.8148 60.87 91.8415 60.7368 91.8979C60.6036 91.9542 60.4821 92.0391 60.3796 92.1474C60.2337 92.329 60.1543 92.5624 60.1563 92.8035C60.2018 92.9627 60.2995 93.0981 60.4309 93.184C60.5171 93.2599 60.6225 93.3053 60.7331 93.3141C60.8437 93.3229 60.9541 93.2947 61.0495 93.2332C61.1823 93.1414 61.5172 92.9511 61.4599 92.7313L61.309 92.2425Z" fill="#C4B0FF"/>
<path id="Vector_118" fill-rule="evenodd" clip-rule="evenodd" d="M142.983 74.1505C144.206 72.3483 144.806 70.1361 144.679 67.9011C144.634 66.9432 144.728 65.2176 143.472 65.3522C141.792 65.5293 140.932 68.3571 140.455 69.7776C139.764 71.8771 139.088 74.0226 139.332 76.2861C139.67 79.3961 143.427 73.209 143.804 72.6382L142.983 74.1505Z" fill="#C4B0FF"/>
<path id="Vector_119" fill-rule="evenodd" clip-rule="evenodd" d="M139.366 63.8638C139.668 65.6648 138.922 68.2335 137.124 68.8043C136.49 69.0077 136.246 68.5779 135.917 67.9153C135.588 67.2526 135.365 66.5243 135.615 65.819C135.825 65.3377 136.086 64.8851 136.394 64.4707C136.57 64.2353 136.725 63.9815 136.855 63.7129C136.976 63.4242 136.931 63.2011 137.139 62.942C137.64 62.3285 139.583 61.8233 139.387 63.27L139.366 63.8638Z" fill="#C4B0FF"/>
<path id="Vector_120" fill-rule="evenodd" clip-rule="evenodd" d="M121.076 191.807C120.678 190.664 119.96 189.687 119.024 189.012C117.955 188.225 116.765 187.651 115.512 187.316C114.483 187.073 112.892 187.063 111.948 187.611C110.853 188.247 109.875 189.195 108.834 189.933C107.889 190.589 106.942 190.98 106.118 191.869C105.378 192.695 104.808 193.682 104.443 194.766C103.876 196.406 103.454 198.925 104.096 200.588C104.7 202.111 105.515 202.13 106.912 202.104C108.897 202.068 110.771 200.326 112.008 198.771C112.636 197.987 113.104 197.19 113.873 196.53C114.778 195.766 115.684 195.061 116.634 194.365C117.503 193.709 118.478 193.276 119.284 192.528C119.652 192.184 120.81 191.226 121.076 191.807Z" fill="#C4B0FF"/>
<path id="Vector_121" fill-rule="evenodd" clip-rule="evenodd" d="M87.2439 95.3244C87.3676 96.1051 87.5457 96.4463 87.0237 96.8268C86.8637 96.9546 86.6712 97.0251 86.4728 97.0286C86.2744 97.0322 86.0799 96.9685 85.9162 96.8465C85.5179 96.5939 84.6428 95.6754 84.7514 95.1308C84.9808 93.9925 87.6151 93.9465 87.4672 95.3244H87.2439Z" fill="#C4B0FF"/>
<path id="Vector_122" fill-rule="evenodd" clip-rule="evenodd" d="M38.0032 131.897C38.4226 129.751 36.428 126.678 34.18 124.945C30.9723 122.472 26.099 121.931 22.5082 122.452C19.4907 122.889 17.0193 124.617 16.4158 126.97C16.2528 127.599 16.3675 128.259 16.2257 128.885C16.1171 129.368 15.9994 129.643 16.6512 130.047C18.2746 131.047 20.8365 131.661 22.656 131.985C24.6567 132.343 26.8806 132.76 28.8208 132.707C30.565 132.661 32.2306 132.379 33.9718 132.313C34.8044 132.322 35.6359 132.245 36.4552 132.084C36.8595 131.982 37.8825 132.11 38.0032 131.897Z" fill="#C4B0FF"/>
<path id="Vector_123" fill-rule="evenodd" clip-rule="evenodd" d="M21.4674 118.812C21.1657 119.215 21.1657 119.448 20.5621 119.468C20.0945 119.468 19.6362 119.325 19.2405 119.054C18.7637 118.756 18.1089 118.044 18.3352 117.614C18.7486 116.846 21.5911 117.286 21.2954 118.323L21.4674 118.812Z" fill="#C4B0FF"/>
</g>
<path id="Vector_124" style="mix-blend-mode:screen" fill-rule="evenodd" clip-rule="evenodd" d="M-0.992188 170.146V240.021C14.5903 243.757 27.4299 241.457 32.7106 232.475C41.4222 217.706 26.4009 190.226 -0.992188 170.146Z" fill="url(#paint24_radial_6356_123810)"/>
<path id="Vector_125" style="mix-blend-mode:multiply" fill-rule="evenodd" clip-rule="evenodd" d="M167.383 31.5148C165.086 25.9897 162.445 20.641 159.48 15.5059C153.118 4.41632 145.328 -5.6256 136.347 -14.3141L136.329 -14.3338C117.928 -32.1971 95.118 -43.8114 70.7148 -47.743C46.3116 -51.6746 21.3836 -47.7513 -0.992188 -36.4576V212.895C15.7751 221.332 34.0371 225.678 52.5131 225.629C70.9891 225.58 89.2316 221.138 105.961 212.613C109.178 210.972 112.322 209.175 115.391 207.256C127.631 199.563 138.599 189.694 147.838 178.059C155.811 168.07 162.407 156.875 167.419 144.824C174.804 127.014 178.62 107.7 178.614 88.1635C178.608 68.6273 174.779 49.316 167.383 31.5115V31.5148Z" fill="url(#paint25_radial_6356_123810)"/>
</g>
</g>
<defs>
<linearGradient id="paint0_linear_6356_123810" x1="101.002" y1="311.726" x2="101.002" y2="-65.6411" gradientUnits="userSpaceOnUse">
<stop stop-color="#F883AF"/>
<stop offset="0.09" stop-color="#F47FB0"/>
<stop offset="0.2" stop-color="#E772B4"/>
<stop offset="0.3" stop-color="#D25DBB"/>
<stop offset="0.4" stop-color="#B53FC4"/>
<stop offset="0.5" stop-color="#941ECE"/>
<stop offset="0.98" stop-color="#2A1E81"/>
</linearGradient>
<linearGradient id="paint1_linear_6356_123810" x1="78.6711" y1="147.21" x2="78.6711" y2="-0.228518" gradientUnits="userSpaceOnUse">
<stop stop-color="#B8A27C"/>
<stop offset="1"/>
</linearGradient>
<linearGradient id="paint2_linear_6356_123810" x1="313.18" y1="79.7785" x2="109.596" y2="79.7785" gradientUnits="userSpaceOnUse">
<stop offset="0.64"/>
<stop offset="1" stop-color="#B8A27C"/>
</linearGradient>
<linearGradient id="paint3_linear_6356_123810" x1="456.722" y1="-0.0904589" x2="260.019" y2="-0.0904589" gradientUnits="userSpaceOnUse">
<stop stop-color="#B8A27C"/>
<stop offset="1"/>
</linearGradient>
<linearGradient id="paint4_linear_6356_123810" x1="189.005" y1="202.66" x2="189.005" y2="122.315" gradientUnits="userSpaceOnUse">
<stop stop-color="#AC6FD6"/>
<stop offset="1" stop-color="#8424A5"/>
</linearGradient>
<linearGradient id="paint5_linear_6356_123810" x1="182.712" y1="147.08" x2="182.712" y2="68.8081" gradientUnits="userSpaceOnUse">
<stop stop-color="#B8A27C"/>
<stop offset="1"/>
</linearGradient>
<linearGradient id="paint6_linear_6356_123810" x1="307.204" y1="111.282" x2="199.126" y2="111.282" gradientUnits="userSpaceOnUse">
<stop offset="0.64"/>
<stop offset="1" stop-color="#B8A27C"/>
</linearGradient>
<linearGradient id="paint7_linear_6356_123810" x1="267.439" y1="60.5306" x2="108.39" y2="60.5306" gradientUnits="userSpaceOnUse">
<stop stop-color="#B8A27C"/>
<stop offset="1"/>
</linearGradient>
<linearGradient id="paint8_linear_6356_123810" x1="324.834" y1="39.7543" x2="324.834" y2="-4.75732" gradientUnits="userSpaceOnUse">
<stop stop-color="#4A37A7"/>
<stop offset="1" stop-color="#401B66"/>
</linearGradient>
<linearGradient id="paint9_linear_6356_123810" x1="363.964" y1="17.8245" x2="285.715" y2="17.8245" gradientUnits="userSpaceOnUse">
<stop stop-color="#745EBD"/>
<stop offset="1" stop-color="#542E77"/>
</linearGradient>
<linearGradient id="paint10_linear_6356_123810" x1="363.966" y1="17.8245" x2="308.5" y2="17.8245" gradientUnits="userSpaceOnUse">
<stop stop-color="#745EBD"/>
<stop offset="1" stop-color="#542E77"/>
</linearGradient>
<linearGradient id="paint11_linear_6356_123810" x1="326.964" y1="196.612" x2="326.964" y2="20.535" gradientUnits="userSpaceOnUse">
<stop stop-color="#7E4BC2"/>
<stop offset="1" stop-color="#401B66"/>
</linearGradient>
<linearGradient id="paint12_linear_6356_123810" x1="363.042" y1="196.613" x2="363.042" y2="20.5352" gradientUnits="userSpaceOnUse">
<stop stop-color="#7E4BC2"/>
<stop offset="1" stop-color="#401B66"/>
</linearGradient>
<linearGradient id="paint13_linear_6356_123810" x1="425.05" y1="157.827" x2="353.148" y2="157.827" gradientUnits="userSpaceOnUse">
<stop stop-color="#745EBD"/>
<stop offset="1" stop-color="#542E77"/>
</linearGradient>
<linearGradient id="paint14_linear_6356_123810" x1="425.05" y1="190.294" x2="353.148" y2="190.294" gradientUnits="userSpaceOnUse">
<stop stop-color="#745EBD"/>
<stop offset="1" stop-color="#542E77"/>
</linearGradient>
<linearGradient id="paint15_linear_6356_123810" x1="402.079" y1="70.4917" x2="324.836" y2="70.4917" gradientUnits="userSpaceOnUse">
<stop stop-color="#745EBD"/>
<stop offset="1" stop-color="#542E77"/>
</linearGradient>
<linearGradient id="paint16_linear_6356_123810" x1="360.119" y1="65.2011" x2="281" y2="65.2011" gradientUnits="userSpaceOnUse">
<stop stop-color="#745EBD"/>
<stop offset="1" stop-color="#542E77"/>
</linearGradient>
<linearGradient id="paint17_linear_6356_123810" x1="320.132" y1="197.499" x2="320.132" y2="101.162" gradientUnits="userSpaceOnUse">
<stop stop-color="#7E4BC2"/>
<stop offset="1" stop-color="#401B66"/>
</linearGradient>
<linearGradient id="paint18_linear_6356_123810" x1="346.57" y1="194.139" x2="320.094" y2="194.139" gradientUnits="userSpaceOnUse">
<stop stop-color="#745EBD"/>
<stop offset="1" stop-color="#542E77"/>
</linearGradient>
<linearGradient id="paint19_linear_6356_123810" x1="353.517" y1="134.432" x2="314.519" y2="134.432" gradientUnits="userSpaceOnUse">
<stop stop-color="#745EBD"/>
<stop offset="1" stop-color="#542E77"/>
</linearGradient>
<linearGradient id="paint20_linear_6356_123810" x1="354.461" y1="178.916" x2="318.977" y2="178.916" gradientUnits="userSpaceOnUse">
<stop stop-color="#745EBD"/>
<stop offset="1" stop-color="#542E77"/>
</linearGradient>
<linearGradient id="paint21_linear_6356_123810" x1="346.564" y1="194.139" x2="326.32" y2="194.139" gradientUnits="userSpaceOnUse">
<stop stop-color="#745EBD"/>
<stop offset="1" stop-color="#542E77"/>
</linearGradient>
<radialGradient id="paint22_radial_6356_123810" cx="0" cy="0" r="1" gradientUnits="userSpaceOnUse" gradientTransform="translate(52.211 88.2111) rotate(180) scale(136.256 148.132)">
<stop offset="0.81" stop-color="#008BC4"/>
<stop offset="0.83" stop-color="#006F9D"/>
<stop offset="0.86" stop-color="#004E6D"/>
<stop offset="0.89" stop-color="#003246"/>
<stop offset="0.92" stop-color="#001C27"/>
<stop offset="0.95" stop-color="#000C12"/>
<stop offset="0.98" stop-color="#000304"/>
<stop offset="1"/>
</radialGradient>
<radialGradient id="paint23_radial_6356_123810" cx="0" cy="0" r="1" gradientUnits="userSpaceOnUse" gradientTransform="translate(79.1865 43.2558) rotate(180) scale(173.797 188.945)">
<stop stop-color="#73C1FF"/>
<stop offset="0.87" stop-color="#322BB8"/>
<stop offset="1" stop-color="#4D79D1"/>
</radialGradient>
<radialGradient id="paint24_radial_6356_123810" cx="0" cy="0" r="1" gradientUnits="userSpaceOnUse" gradientTransform="translate(-17.1664 200.669) rotate(-145.051) scale(63.9756 32.1054)">
<stop stop-color="#2C6AFF"/>
<stop offset="0.09" stop-color="#2559D6"/>
<stop offset="0.23" stop-color="#1B429E"/>
<stop offset="0.36" stop-color="#132E6E"/>
<stop offset="0.5" stop-color="#0C1D46"/>
<stop offset="0.63" stop-color="#071027"/>
<stop offset="0.76" stop-color="#030712"/>
<stop offset="0.89" stop-color="#010204"/>
<stop offset="1"/>
</radialGradient>
<radialGradient id="paint25_radial_6356_123810" cx="0" cy="0" r="1" gradientUnits="userSpaceOnUse" gradientTransform="translate(79.5154 77.1698) rotate(180) scale(415.577 451.797)">
<stop stop-color="white"/>
<stop offset="0.37" stop-color="#FDFDFD"/>
<stop offset="0.51" stop-color="#F6F6F6"/>
<stop offset="0.6" stop-color="#EBEBEB"/>
<stop offset="0.68" stop-color="#DADADA"/>
<stop offset="0.75" stop-color="#C4C4C4"/>
<stop offset="0.8" stop-color="#A8A8A8"/>
<stop offset="0.86" stop-color="#888888"/>
<stop offset="0.91" stop-color="#626262"/>
<stop offset="0.95" stop-color="#373737"/>
<stop offset="0.99" stop-color="#090909"/>
<stop offset="1"/>
</radialGradient>
<clipPath id="clip0_6356_123810">
<rect width="360" height="196" fill="white"/>
</clipPath>
</defs>
</svg>
