<svg width="26" height="26" viewBox="0 0 26 26" fill="none" xmlns="http://www.w3.org/2000/svg">
<g id="&#230;&#178;&#153;&#230;&#188;&#143;">
<path id="Vector" d="M9.88246 15.3295C10.1851 15.1751 10.4695 15.0288 10.7173 14.8704C11.607 14.2976 11.7939 13.5765 11.7939 13.0748C11.7939 12.571 11.607 11.8499 10.7153 11.2771C10.4695 11.1187 10.1851 10.9745 9.88246 10.8201C8.16199 9.94258 5.82199 8.75023 5.70215 3.00586H20.2662C20.1464 8.7482 17.8064 9.94258 16.0859 10.8201C15.7853 10.9745 15.4989 11.1187 15.2531 11.2771C14.3614 11.8499 14.1745 12.571 14.1745 13.0748C14.1745 13.5785 14.3614 14.2976 15.2531 14.8704C15.5009 15.0288 15.7853 15.1751 16.0859 15.3295C17.7962 16.2009 20.1179 17.3891 20.2621 23.0441H5.70621C5.85246 17.3871 8.17418 16.2009 9.88246 15.3295Z" fill="white"/>
<path id="Vector_2" d="M21.19 23.0782C21.0397 16.8159 18.2162 15.3716 16.508 14.5023C16.2155 14.352 15.9616 14.222 15.7544 14.0879C15.3136 13.8055 15.1023 13.4745 15.1023 13.0723C15.1023 12.6701 15.3136 12.339 15.7544 12.0566C15.9636 11.9226 16.2155 11.7946 16.508 11.6443C18.2284 10.7668 21.0823 9.3043 21.192 2.91602C21.8481 2.7718 22.3438 2.1868 22.3438 1.48602C22.3438 0.675547 21.6856 0.0214844 20.8792 0.0214844H5.12281C4.31437 0.0214844 3.65625 0.675547 3.65625 1.48602C3.65625 2.17664 4.13563 2.75148 4.77547 2.90789C4.88109 9.30633 7.73906 10.7688 9.46156 11.6463C9.75406 11.7946 10.0059 11.9246 10.2152 12.0566C10.6519 12.339 10.8652 12.6721 10.8652 13.0743C10.8652 13.4765 10.6519 13.8076 10.2152 14.0899C10.0059 14.224 9.75406 14.352 9.46156 14.5023C7.75328 15.3737 4.92578 16.8179 4.7775 23.0904C4.13563 23.2468 3.65625 23.8216 3.65625 24.5123C3.65625 25.3207 4.31437 25.9788 5.12281 25.9788H20.8792C21.6856 25.9788 22.3438 25.3207 22.3438 24.5123C22.3438 23.8074 21.8481 23.2204 21.19 23.0782ZM9.88203 15.329C10.1847 15.1746 10.4691 15.0284 10.7169 14.8699C11.6066 14.2971 11.7934 13.576 11.7934 13.0743C11.7934 12.5705 11.6066 11.8495 10.7148 11.2766C10.4691 11.1182 10.1847 10.974 9.88203 10.8196C8.16156 9.94211 5.82156 8.74977 5.70172 3.00539H20.2658C20.1459 8.74774 17.8059 9.94211 16.0855 10.8196C15.7848 10.974 15.4984 11.1182 15.2527 11.2766C14.3609 11.8495 14.1741 12.5705 14.1741 13.0743C14.1741 13.578 14.3609 14.2971 15.2527 14.8699C15.5005 15.0284 15.7848 15.1746 16.0855 15.329C17.7958 16.2004 20.1175 17.3887 20.2617 23.0437H5.70578C5.85203 17.3866 8.17375 16.2004 9.88203 15.329Z" fill="#855C52"/>
<path id="Vector_3" d="M18.9418 19.5934H13.368V13.073H13.3721C13.3721 12.0798 13.886 11.2023 14.8204 10.603C15.0946 10.4243 15.3891 10.274 15.6999 10.1155C16.2118 9.85352 16.7846 9.55695 17.329 9.0918H8.6393C9.17758 9.55492 9.7443 9.84742 10.246 10.1034C10.5812 10.274 10.8737 10.4243 11.1479 10.601C12.0802 11.2002 12.5941 12.0777 12.5941 13.073H12.5982V19.5934H7.02852C6.7868 20.3287 6.61414 21.2265 6.54102 22.3396H19.4273C19.3541 21.2265 19.1815 20.3287 18.9418 19.5934Z" fill="#D7598B"/>
</g>
</svg>
