<svg width="360" height="18" viewBox="0 0 360 18" fill="none" xmlns="http://www.w3.org/2000/svg">
<g id="&#230;&#160;&#143;&#228;&#184;&#138;">
<rect id="Rectangle 34626269" width="360" height="2" fill="#515BA1"/>
<rect id="Rectangle 34626271" y="6" width="360" height="4" fill="#3B4275"/>
<path id="Vector 6966" d="M27.5 5H12L14 11H30L27.5 5Z" fill="#1F233E" stroke="#0F111F" stroke-linecap="round"/>
<path id="Vector 6967" d="M62.5 5H47L49 11H65L62.5 5Z" fill="#1F233E" stroke="#0F111F" stroke-linecap="round"/>
<path id="Vector 6968" d="M97.5 5H82L84 11H100L97.5 5Z" fill="#1F233E" stroke="#0F111F" stroke-linecap="round"/>
<path id="Vector 6969" d="M133.5 5H118L120 11H136L133.5 5Z" fill="#1F233E" stroke="#0F111F" stroke-linecap="round"/>
<path id="Vector 6970" d="M168.5 5H153L155 11H171L168.5 5Z" fill="#1F233E" stroke="#0F111F" stroke-linecap="round"/>
<path id="Vector 6971" d="M204.5 5H189L191 11H207L204.5 5Z" fill="#1F233E" stroke="#0F111F" stroke-linecap="round"/>
<path id="Vector 6972" d="M239.5 5H224L226 11H242L239.5 5Z" fill="#1F233E" stroke="#0F111F" stroke-linecap="round"/>
<path id="Vector 6973" d="M274.5 5H259L261 11H277L274.5 5Z" fill="#1F233E" stroke="#0F111F" stroke-linecap="round"/>
<path id="Vector 6974" d="M310.5 5H295L297 11H313L310.5 5Z" fill="#1F233E" stroke="#0F111F" stroke-linecap="round"/>
<path id="Vector 6975" d="M345.5 5H330L332 11H348L345.5 5Z" fill="#1F233E" stroke="#0F111F" stroke-linecap="round"/>
<rect id="Rectangle 34626270" y="2" width="360" height="4" fill="#3B4275"/>
<rect id="Rectangle 34626272" y="10" width="360" height="4" fill="#3B4275"/>
<rect id="Rectangle 34626273" y="14" width="360" height="3" fill="#2D3259"/>
<rect id="Rectangle 34626274" y="17" width="360" height="1" fill="#1F233E"/>
</g>
</svg>
