<svg width="39" height="38" viewBox="0 0 39 38" fill="none" xmlns="http://www.w3.org/2000/svg">
<g id="&#229;&#141;&#135;&#231;&#186;&#167;">
<g id="Group" style="mix-blend-mode:darken" opacity="0.7">
<g id="Vector" style="mix-blend-mode:darken">
<path d="M0.0327835 18.9861C0.0327835 10.6132 6.8883 3.82562 15.345 3.82562C23.8017 3.82562 30.6572 10.6132 30.6572 18.9861C30.6572 27.3589 23.8017 34.1465 15.345 34.1465C6.8883 34.1465 0.0327835 27.3589 0.0327835 18.9861Z" fill="white"/>
</g>
<g id="Vector_2" style="mix-blend-mode:darken">
<path d="M0.167549 18.9861C0.167549 10.6132 7.02306 3.82562 15.4798 3.82562C23.9365 3.82562 30.792 10.6132 30.792 18.9861C30.792 27.3589 23.9365 34.1465 15.4798 34.1465C7.02306 34.1465 0.167549 27.3589 0.167549 18.9861Z" fill="#F5F5F5"/>
</g>
<g id="Vector_3" style="mix-blend-mode:darken">
<path d="M0.300047 18.9861C0.300047 10.6132 7.1705 3.82562 15.6456 3.82562C24.1208 3.82562 30.9912 10.6132 30.9912 18.9861C30.9912 27.3589 24.1208 34.1465 15.6456 34.1465C7.1705 34.1465 0.300047 27.3589 0.300047 18.9861Z" fill="#EBEBEB"/>
</g>
<g id="Vector_4" style="mix-blend-mode:darken">
<path d="M0.434813 18.9861C0.434813 10.6132 7.30527 3.82562 15.7804 3.82562C24.2555 3.82562 31.126 10.6132 31.126 18.9861C31.126 27.3589 24.2555 34.1465 15.7804 34.1465C7.30527 34.1465 0.434813 27.3589 0.434813 18.9861Z" fill="#E2E2E2"/>
</g>
<g id="Vector_5" style="mix-blend-mode:darken">
<path d="M0.567625 18.9861C0.567625 10.6132 7.43807 3.82562 15.9132 3.82562C24.3883 3.82562 31.2588 10.6132 31.2588 18.9861C31.2588 27.3589 24.3883 34.1465 15.9132 34.1465C7.43807 34.1465 0.567625 27.3589 0.567625 18.9861Z" fill="#D8D8D8"/>
</g>
<g id="Vector_6" style="mix-blend-mode:darken">
<path d="M0.700438 18.9861C0.700438 10.6132 7.57088 3.82562 16.046 3.82562C24.5211 3.82562 31.3916 10.6132 31.3916 18.9861C31.3916 27.3589 24.5211 34.1465 16.046 34.1465C7.57088 34.1465 0.700438 27.3589 0.700438 18.9861Z" fill="#CECECE"/>
</g>
<g id="Vector_7" style="mix-blend-mode:darken">
<path d="M0.801683 18.9861C0.801683 10.6132 7.68707 3.82562 16.1806 3.82562C24.6742 3.82562 31.5596 10.6132 31.5596 18.9861C31.5596 27.3589 24.6742 34.1465 16.1806 34.1465C7.68707 34.1465 0.801683 27.3589 0.801683 18.9861Z" fill="#C4C4C4"/>
</g>
<g id="Vector_8" style="mix-blend-mode:darken">
<path d="M0.967699 18.9861C0.967699 10.6132 7.85309 3.82562 16.3466 3.82562C24.8402 3.82562 31.7256 10.6132 31.7256 18.9861C31.7256 27.3589 24.8402 34.1465 16.3466 34.1465C7.85309 34.1465 0.967699 27.3589 0.967699 18.9861Z" fill="#BABABA"/>
</g>
<g id="Vector_9" style="mix-blend-mode:darken">
<path d="M1.10051 18.9861C1.10051 10.6132 7.9859 3.82562 16.4795 3.82562C24.973 3.82562 31.8584 10.6132 31.8584 18.9861C31.8584 27.3589 24.973 34.1465 16.4795 34.1465C7.9859 34.1465 1.10051 27.3589 1.10051 18.9861Z" fill="#B1B1B1"/>
</g>
<g id="Vector_10" style="mix-blend-mode:darken">
<path d="M1.20176 18.9861C1.20176 10.6132 8.10209 3.82562 16.6141 3.82562C25.126 3.82562 32.0264 10.6132 32.0264 18.9861C32.0264 27.3589 25.126 34.1465 16.6141 34.1465C8.10209 34.1465 1.20176 27.3589 1.20176 18.9861Z" fill="#A7A7A7"/>
</g>
<g id="Vector_11" style="mix-blend-mode:darken">
<path d="M1.33457 18.9861C1.33457 10.6132 8.23489 3.82562 16.7469 3.82562C25.2588 3.82562 32.1592 10.6132 32.1592 18.9861C32.1592 27.3589 25.2588 34.1465 16.7469 34.1465C8.23489 34.1465 1.33457 27.3589 1.33457 18.9861Z" fill="#9D9D9D"/>
</g>
<g id="Vector_12" style="mix-blend-mode:darken">
<path d="M1.50254 18.9861C1.50254 10.6132 8.40287 3.82562 16.9149 3.82562C25.4268 3.82562 32.3271 10.6132 32.3271 18.9861C32.3271 27.3589 25.4268 34.1465 16.9149 34.1465C8.40287 34.1465 1.50254 27.3589 1.50254 18.9861Z" fill="#939393"/>
</g>
<g id="Vector_13" style="mix-blend-mode:darken">
<path d="M1.60185 18.9861C1.60185 10.6132 8.5171 3.82562 17.0475 3.82562C25.5779 3.82562 32.4932 10.6132 32.4932 18.9861C32.4932 27.3589 25.5779 34.1465 17.0475 34.1465C8.5171 34.1465 1.60185 27.3589 1.60185 18.9861Z" fill="#898989"/>
</g>
<g id="Vector_14" style="mix-blend-mode:darken">
<path d="M1.73464 18.9861C1.73464 10.6132 8.64991 3.82562 17.1803 3.82562C25.7107 3.82562 32.626 10.6132 32.626 18.9861C32.626 27.3589 25.7107 34.1465 17.1803 34.1465C8.64991 34.1465 1.73464 27.3589 1.73464 18.9861Z" fill="#808080"/>
</g>
<g id="Vector_15" style="mix-blend-mode:darken">
<path d="M1.86941 18.9861C1.86941 10.6132 8.78467 3.82562 17.3151 3.82562C25.8455 3.82562 32.7607 10.6132 32.7607 18.9861C32.7607 27.3589 25.8455 34.1465 17.3151 34.1465C8.78467 34.1465 1.86941 27.3589 1.86941 18.9861Z" fill="#767676"/>
</g>
<g id="Vector_16" style="mix-blend-mode:darken">
<path d="M2.00224 18.9861C2.00224 10.6132 8.9175 3.82562 17.4479 3.82562C25.9783 3.82562 32.8936 10.6132 32.8936 18.9861C32.8936 27.3589 25.9783 34.1465 17.4479 34.1465C8.9175 34.1465 2.00224 27.3589 2.00224 18.9861Z" fill="#6C6C6C"/>
</g>
<g id="Vector_17" style="mix-blend-mode:darken">
<path d="M2.13473 18.9861C2.13473 10.6132 9.06492 3.82562 17.6138 3.82562C26.1626 3.82562 33.0928 10.6132 33.0928 18.9861C33.0928 27.3589 26.1626 34.1465 17.6138 34.1465C9.06492 34.1465 2.13473 27.3589 2.13473 18.9861Z" fill="#626262"/>
</g>
<g id="Vector_18" style="mix-blend-mode:darken">
<path d="M2.26949 18.9861C2.26949 10.6132 9.19969 3.82562 17.7485 3.82562C26.2973 3.82562 33.2275 10.6132 33.2275 18.9861C33.2275 27.3589 26.2973 34.1465 17.7485 34.1465C9.19969 34.1465 2.26949 27.3589 2.26949 18.9861Z" fill="#585858"/>
</g>
<g id="Vector_19" style="mix-blend-mode:darken">
<path d="M2.4023 18.9861C2.4023 10.6132 9.33249 3.82562 17.8813 3.82562C26.4302 3.82562 33.3604 10.6132 33.3604 18.9861C33.3604 27.3589 26.4302 34.1465 17.8813 34.1465C9.33249 34.1465 2.4023 27.3589 2.4023 18.9861Z" fill="#4E4E4E"/>
</g>
<g id="Vector_20" style="mix-blend-mode:darken">
<path d="M2.50162 18.9861C2.50162 10.6132 9.44674 3.82562 18.014 3.82562C26.5812 3.82562 33.5264 10.6132 33.5264 18.9861C33.5264 27.3589 26.5812 34.1465 18.014 34.1465C9.44674 34.1465 2.50162 27.3589 2.50162 18.9861Z" fill="#454545"/>
</g>
<g id="Vector_21" style="mix-blend-mode:darken">
<path d="M2.66958 18.9861C2.66958 10.6132 9.6147 3.82562 18.1819 3.82562C26.7492 3.82562 33.6943 10.6132 33.6943 18.9861C33.6943 27.3589 26.7492 34.1465 18.1819 34.1465C9.6147 34.1465 2.66958 27.3589 2.66958 18.9861Z" fill="#3B3B3B"/>
</g>
<g id="Vector_22" style="mix-blend-mode:darken">
<path d="M2.80238 18.9861C2.80238 10.6132 9.74751 3.82562 18.3148 3.82562C26.882 3.82562 33.8271 10.6132 33.8271 18.9861C33.8271 27.3589 26.882 34.1465 18.3148 34.1465C9.74751 34.1465 2.80238 27.3589 2.80238 18.9861Z" fill="#313131"/>
</g>
<g id="Vector_23" style="mix-blend-mode:darken">
<path d="M2.90364 18.9861C2.90364 10.6132 9.8637 3.82562 18.4494 3.82562C27.0351 3.82562 33.9951 10.6132 33.9951 18.9861C33.9951 27.3589 27.0351 34.1465 18.4494 34.1465C9.8637 34.1465 2.90364 27.3589 2.90364 18.9861Z" fill="#272727"/>
</g>
<g id="Vector_24" style="mix-blend-mode:darken">
<path d="M3.03646 18.9861C3.03646 10.6132 9.99652 3.82562 18.5822 3.82562C27.1679 3.82562 34.1279 10.6132 34.1279 18.9861C34.1279 27.3589 27.1679 34.1465 18.5822 34.1465C9.99652 34.1465 3.03646 27.3589 3.03646 18.9861Z" fill="#1D1D1D"/>
</g>
<g id="Vector_25" style="mix-blend-mode:darken">
<path d="M3.16925 18.9861C3.16925 10.6132 10.1293 3.82562 18.715 3.82562C27.3007 3.82562 34.2607 10.6132 34.2607 18.9861C34.2607 27.3589 27.3007 34.1465 18.715 34.1465C10.1293 34.1465 3.16925 27.3589 3.16925 18.9861Z" fill="#141414"/>
</g>
<g id="Vector_26" style="mix-blend-mode:darken">
<path d="M3.33724 18.9861C3.33724 10.6132 10.2973 3.82562 18.883 3.82562C27.4687 3.82562 34.4287 10.6132 34.4287 18.9861C34.4287 27.3589 27.4687 34.1465 18.883 34.1465C10.2973 34.1465 3.33724 27.3589 3.33724 18.9861Z" fill="#0A0A0A"/>
</g>
<g id="Vector_27" style="mix-blend-mode:darken">
<path d="M3.43652 18.9861C3.43652 10.6132 10.4115 3.82562 19.0156 3.82562C27.6197 3.82562 34.5947 10.6132 34.5947 18.9861C34.5947 27.3589 27.6197 34.1465 19.0156 34.1465C10.4115 34.1465 3.43652 27.3589 3.43652 18.9861Z" fill="black"/>
</g>
</g>
<path id="Vector_28" d="M3.90356 18.9861C3.90356 10.6132 10.774 3.82562 19.2491 3.82562C27.7243 3.82562 34.5947 10.6132 34.5947 18.9861C34.5947 27.3589 27.7243 34.1465 19.2491 34.1465C10.774 34.1465 3.90356 27.3589 3.90356 18.9861Z" fill="#55E6A0"/>
<path id="Vector_29" style="mix-blend-mode:soft-light" d="M3.90356 18.9861C3.90356 10.6132 10.774 3.82562 19.2491 3.82562C27.7243 3.82562 34.5947 10.6132 34.5947 18.9861C34.5947 27.3589 27.7243 34.1465 19.2491 34.1465C10.774 34.1465 3.90356 27.3589 3.90356 18.9861Z" fill="url(#paint0_radial_4679_117970)"/>
<path id="Vector_30" style="mix-blend-mode:multiply" opacity="0.58" d="M3.90356 18.9861C3.90356 10.6132 10.774 3.82562 19.2491 3.82562C27.7243 3.82562 34.5947 10.6132 34.5947 18.9861C34.5947 27.3589 27.7243 34.1465 19.2491 34.1465C10.774 34.1465 3.90356 27.3589 3.90356 18.9861Z" fill="url(#paint1_radial_4679_117970)"/>
<path id="Vector_31" opacity="0.05" d="M0.0331879 18.9833C0.0331879 8.499 8.63618 -0.000198364 19.2485 -0.000198364C29.8609 -0.000198364 38.4639 8.499 38.4639 18.9833C38.4639 29.4676 29.8609 37.9668 19.2485 37.9668C8.63618 37.9668 0.0331879 29.4676 0.0331879 18.9833Z" fill="white"/>
<g id="Group_2" style="mix-blend-mode:screen">
<g id="Vector_32" style="mix-blend-mode:screen">
<path d="M0.0331879 19.0206C0.0331879 29.5049 8.63618 38.0041 19.2485 38.0041C29.8609 38.0041 38.4639 29.5049 38.4639 19.0206C38.4639 8.53631 29.8609 0.0371094 19.2485 0.0371094C8.63618 0.0371094 0.0331879 8.53631 0.0331879 19.0206Z" fill="url(#paint2_linear_4679_117970)" fill-opacity="0.1" style="mix-blend-mode:screen"/>
<path d="M0.0331879 19.0206C0.0331879 29.5049 8.63618 38.0041 19.2485 38.0041C29.8609 38.0041 38.4639 29.5049 38.4639 19.0206C38.4639 8.53631 29.8609 0.0371094 19.2485 0.0371094C8.63618 0.0371094 0.0331879 8.53631 0.0331879 19.0206Z" fill="url(#paint3_linear_4679_117970)" fill-opacity="0.3" style="mix-blend-mode:screen"/>
</g>
<path id="Vector_33" style="mix-blend-mode:screen" d="M37.7634 19.0184C37.7568 22.6347 36.6654 26.1679 34.6269 29.1715C32.5885 32.1752 29.6946 34.5145 26.3109 35.8939C22.9272 37.2733 19.2055 37.6308 15.6162 36.9213C12.0269 36.2118 8.73099 34.4672 6.14498 31.9077C3.55898 29.3483 1.79893 26.0891 1.08723 22.5418C0.375538 18.9945 0.744129 15.3184 2.14644 11.978C3.54876 8.63763 5.92186 5.78285 8.96588 3.77442C12.0099 1.76599 15.5882 0.694046 19.2487 0.69404C24.1621 0.70277 28.8714 2.63722 32.3426 6.07276C35.8139 9.50829 37.7634 14.1642 37.7634 19.0184ZM38.4306 19.0184C38.4372 15.261 37.315 11.5862 35.2062 8.45934C33.0973 5.33247 30.0966 2.8942 26.5841 1.4533C23.0716 0.0124024 19.2053 -0.366311 15.4748 0.36512C11.7443 1.09655 8.31736 2.90523 5.62804 5.5621C2.93871 8.21897 1.10794 11.6045 0.367577 15.29C-0.372787 18.9755 0.0105629 22.7952 1.46906 26.2653C2.92756 29.7355 5.3956 32.6999 8.56065 34.7834C11.7257 36.8668 15.4454 37.9754 19.2487 37.9689C21.7677 37.9689 24.262 37.4788 26.5893 36.5264C28.9165 35.574 31.0311 34.1782 32.8124 32.4184C34.5936 30.6587 36.0065 28.5696 36.9705 26.2704C37.9345 23.9713 38.4306 21.507 38.4306 19.0184Z" fill="url(#paint4_linear_4679_117970)"/>
</g>
<g id="Group_3" opacity="0.2">
<path id="Vector_34" opacity="0.2" d="M34.2943 18.8488C28.6565 16.1462 28.3229 23.8583 26.7883 25.2095C25.2538 26.5608 17.3808 27.9121 22.0178 33.6467C24.5532 35.723 29.3904 34.0751 32.7931 29.9884C36.1958 25.9017 36.863 20.9251 34.2943 18.8488Z" fill="white"/>
</g>
</g>
<defs>
<radialGradient id="paint0_radial_4679_117970" cx="0" cy="0" r="1" gradientUnits="userSpaceOnUse" gradientTransform="translate(19.2491 18.9861) rotate(-90) scale(15.1604 15.3456)">
<stop stop-color="white"/>
<stop offset="1"/>
</radialGradient>
<radialGradient id="paint1_radial_4679_117970" cx="0" cy="0" r="1" gradientUnits="userSpaceOnUse" gradientTransform="translate(19.2491 18.9861) rotate(-90) scale(15.1604 15.3456)">
<stop offset="0.56" stop-color="white"/>
<stop offset="0.63" stop-color="#FEFDFC"/>
<stop offset="0.69" stop-color="#FAF8F2"/>
<stop offset="0.74" stop-color="#F4F0E1"/>
<stop offset="0.79" stop-color="#ECE4C9"/>
<stop offset="0.84" stop-color="#E1D4AA"/>
<stop offset="0.89" stop-color="#D3C184"/>
<stop offset="0.93" stop-color="#C3AA57"/>
<stop offset="0.97" stop-color="#B19125"/>
<stop offset="1" stop-color="#A47E00"/>
</radialGradient>
<linearGradient id="paint2_linear_4679_117970" x1="-40.2943" y1="30.7777" x2="-0.684742" y2="-36.0047" gradientUnits="userSpaceOnUse">
<stop stop-color="#FAFAFA" stop-opacity="0.09"/>
<stop offset="0.145833" stop-color="white"/>
<stop offset="0.541667" stop-color="white"/>
<stop offset="0.864583" stop-color="#E0E0E0" stop-opacity="0"/>
<stop offset="1" stop-color="white" stop-opacity="0"/>
</linearGradient>
<linearGradient id="paint3_linear_4679_117970" x1="4.24477" y1="34.9242" x2="9.86874" y2="-0.64546" gradientUnits="userSpaceOnUse">
<stop stop-color="#FAFAFA"/>
<stop offset="0.145833" stop-color="white" stop-opacity="0"/>
<stop offset="0.541667" stop-color="white" stop-opacity="0.02"/>
<stop offset="0.864583" stop-color="white" stop-opacity="0"/>
<stop offset="1" stop-color="white"/>
</linearGradient>
<linearGradient id="paint4_linear_4679_117970" x1="2.60204" y1="28.4766" x2="35.659" y2="9.17862" gradientUnits="userSpaceOnUse">
<stop stop-color="white"/>
<stop offset="0.51" stop-color="white" stop-opacity="0"/>
<stop offset="1" stop-color="white"/>
</linearGradient>
</defs>
</svg>
