<svg width="21" height="18" viewBox="0 0 21 18" fill="none" xmlns="http://www.w3.org/2000/svg">
<path id="&#231;&#174;&#173;&#229;&#164;&#180;" d="M12.5165 0.94347C13.0966 1.43656 13.6222 1.98893 14.0845 2.59134L15.4856 4.404C16.7199 6.01892 17.9209 7.69975 19.0551 9.31467C19.3301 9.67496 19.5862 10.049 19.8224 10.4352C20.1267 10.7939 20.2817 11.2533 20.2561 11.7206C20.2309 11.9722 20.1411 12.2132 19.9952 12.4209C19.8492 12.6285 19.6519 12.7959 19.4221 12.907C19.1723 13.0242 18.8978 13.0807 18.6214 13.0718H15.7525C15.152 13.0718 15.2854 13.8628 15.2854 14.2253C15.2854 14.5879 15.2854 15.5766 15.2854 16.2357C15.2725 16.5163 15.1773 16.7872 15.0115 17.0154C14.8457 17.2435 14.6163 17.4192 14.3514 17.5211C13.8673 17.6206 13.3676 17.6206 12.8835 17.5211C11.7493 17.5211 10.6484 17.5211 9.54751 17.5211C8.98039 17.5211 8.41328 17.5211 7.84616 17.5211C7.34632 17.554 6.8448 17.554 6.34496 17.5211C6.07541 17.4828 5.82248 17.3694 5.61572 17.1943C5.40896 17.0193 5.25692 16.7896 5.17736 16.5323C5.12617 16.249 5.12617 15.9588 5.17736 15.6755V13.7969C5.17736 13.5991 5.17736 13.3355 5.17736 13.1707C5.17736 13.0059 4.84375 13.1707 4.64359 13.1707H2.642C2.02751 13.2715 1.39706 13.1422 0.873926 12.8082C0.684769 12.6491 0.541834 12.4431 0.459764 12.2115C0.377697 11.9798 0.359447 11.7308 0.406889 11.4899C0.405502 11.0299 0.520151 10.5768 0.740484 10.1716C1.34096 9.31466 1.9748 8.49073 2.642 7.69975C3.9764 6.05188 5.37752 4.404 6.87872 2.88796C7.53084 2.14506 8.26993 1.48126 9.08047 0.910513C9.55382 0.536106 10.1421 0.332109 10.7485 0.332109C11.3548 0.332109 11.9431 0.536106 12.4165 0.910513L12.5165 0.94347Z" fill="#FDFBF5" stroke="#E0BC43" stroke-width="0.07" stroke-miterlimit="10"/>
</svg>
