<svg width="140" height="90" viewBox="0 0 140 90" fill="none" xmlns="http://www.w3.org/2000/svg">
<g id="Model" clip-path="url(#clip0_5407_195009)">
<g id="Group 1410068710">
<g id="Model_2">
<g id="Group 1410068497">
<g id="Group 1410068483">
<g id="Rectangle 34625798">
<g filter="url(#filter0_i_5407_195009)">
<rect x="9" y="17" width="128" height="62" rx="17" fill="#32B75D"/>
</g>
<rect x="9.75" y="17.75" width="126.5" height="60.5" rx="16.25" stroke="#0DD88C" stroke-width="1.5"/>
</g>
<g id="Group 1410068477">
<path id="Vector" d="M25.8001 59.3828C25.7943 59.3796 25.7895 59.3748 25.7863 59.3689L25.5845 59L25.3828 59.3689C25.3796 59.3748 25.3748 59.3796 25.3689 59.3828L25 59.5845L25.3689 59.7863C25.3748 59.7895 25.3796 59.7943 25.3828 59.8001L25.5845 60.1691L25.7863 59.8001C25.7895 59.7943 25.7943 59.7895 25.8001 59.7863L26.1691 59.5845L25.8001 59.3828Z" fill="#F6DFE6"/>
<path id="Vector_2" d="M25.8001 59.3828C25.7943 59.3796 25.7895 59.3748 25.7863 59.3689L25.5845 59L25.3828 59.3689C25.3796 59.3748 25.3748 59.3796 25.3689 59.3828L25 59.5845L25.3689 59.7863C25.3748 59.7895 25.3796 59.7943 25.3828 59.8001L25.5845 60.1691L25.7863 59.8001C25.7895 59.7943 25.7943 59.7895 25.8001 59.7863L26.1691 59.5845L25.8001 59.3828Z" fill="white" fill-opacity="0.5"/>
</g>
<g id="&#230;&#140;&#137;&#233;&#146;&#174;">
<path id="Vector_3" d="M128 71.999C127.97 82.1205 118.641 90.0201 107.741 89.9997H50.2619C39.1624 89.9997 30.027 81.9797 30 71.999C30.0295 61.8797 39.3613 53.9801 50.2619 54.0006H107.741C118.479 53.9211 128.022 61.8797 128 71.999Z" fill="url(#paint0_linear_5407_195009)"/>
<path id="Vector_4" d="M127.999 71.9994C127.97 82.1232 118.641 90.0205 107.74 90H50.2614C42.4713 90 35.6707 86.0423 32.2852 80.2761C62.4828 94.135 102.884 82.6957 118.704 56.875C124.282 60.0921 127.999 65.6788 127.999 71.9994Z" fill="url(#paint1_linear_5407_195009)"/>
<g id="Vector_5" opacity="0.3" filter="url(#filter1_f_5407_195009)">
<path d="M50.2617 58.5436C63.1338 56.9533 76.131 56.5511 89.1013 56.458C102.03 56.199 124.344 54.6245 122.886 71.9981C120.524 59.1934 107.028 59.8545 95.9731 60.6088C80.7294 60.702 65.3851 60.3975 50.2617 58.5436Z" fill="white"/>
</g>
</g>
<g id="Group 1410068478">
<path id="Vector_6" d="M25.8001 59.3828C25.7943 59.3796 25.7895 59.3748 25.7863 59.3689L25.5845 59L25.3828 59.3689C25.3796 59.3748 25.3748 59.3796 25.3689 59.3828L25 59.5845L25.3689 59.7863C25.3748 59.7895 25.3796 59.7943 25.3828 59.8001L25.5845 60.1691L25.7863 59.8001C25.7895 59.7943 25.7943 59.7895 25.8001 59.7863L26.1691 59.5845L25.8001 59.3828Z" fill="#F6DFE6"/>
<path id="Vector_7" d="M25.8001 59.3828C25.7943 59.3796 25.7895 59.3748 25.7863 59.3689L25.5845 59L25.3828 59.3689C25.3796 59.3748 25.3748 59.3796 25.3689 59.3828L25 59.5845L25.3689 59.7863C25.3748 59.7895 25.3796 59.7943 25.3828 59.8001L25.5845 60.1691L25.7863 59.8001C25.7895 59.7943 25.7943 59.7895 25.8001 59.7863L26.1691 59.5845L25.8001 59.3828Z" fill="white" fill-opacity="0.5"/>
</g>
<g id="Group 1410068479">
<path id="Vector_8" d="M51.8001 48.3828C51.7943 48.3796 51.7895 48.3748 51.7863 48.3689L51.5845 48L51.3828 48.3689C51.3796 48.3748 51.3748 48.3796 51.3689 48.3828L51 48.5845L51.3689 48.7863C51.3748 48.7895 51.3796 48.7943 51.3828 48.8001L51.5845 49.1691L51.7863 48.8001C51.7895 48.7943 51.7943 48.7895 51.8001 48.7863L52.1691 48.5845L51.8001 48.3828Z" fill="#F6DFE6"/>
<path id="Vector_9" d="M51.8001 48.3828C51.7943 48.3796 51.7895 48.3748 51.7863 48.3689L51.5845 48L51.3828 48.3689C51.3796 48.3748 51.3748 48.3796 51.3689 48.3828L51 48.5845L51.3689 48.7863C51.3748 48.7895 51.3796 48.7943 51.3828 48.8001L51.5845 49.1691L51.7863 48.8001C51.7895 48.7943 51.7943 48.7895 51.8001 48.7863L52.1691 48.5845L51.8001 48.3828Z" fill="white" fill-opacity="0.5"/>
</g>
<g id="Group 1410068480">
<path id="Vector_10" d="M38.8001 53.3828C38.7943 53.3796 38.7895 53.3748 38.7863 53.3689L38.5845 53L38.3828 53.3689C38.3796 53.3748 38.3748 53.3796 38.3689 53.3828L38 53.5845L38.3689 53.7863C38.3748 53.7895 38.3796 53.7943 38.3828 53.8001L38.5845 54.1691L38.7863 53.8001C38.7895 53.7943 38.7943 53.7895 38.8001 53.7863L39.1691 53.5845L38.8001 53.3828Z" fill="#F6DFE6"/>
<path id="Vector_11" d="M38.8001 53.3828C38.7943 53.3796 38.7895 53.3748 38.7863 53.3689L38.5845 53L38.3828 53.3689C38.3796 53.3748 38.3748 53.3796 38.3689 53.3828L38 53.5845L38.3689 53.7863C38.3748 53.7895 38.3796 53.7943 38.3828 53.8001L38.5845 54.1691L38.7863 53.8001C38.7895 53.7943 38.7943 53.7895 38.8001 53.7863L39.1691 53.5845L38.8001 53.3828Z" fill="white" fill-opacity="0.5"/>
</g>
<g id="Group 1410068481">
<path id="Vector_12" d="M98.8001 44.3828C98.7943 44.3796 98.7895 44.3748 98.7863 44.3689L98.5845 44L98.3828 44.3689C98.3796 44.3748 98.3748 44.3796 98.3689 44.3828L98 44.5845L98.3689 44.7863C98.3748 44.7895 98.3796 44.7943 98.3828 44.8001L98.5845 45.1691L98.7863 44.8001C98.7895 44.7943 98.7943 44.7895 98.8001 44.7863L99.1691 44.5845L98.8001 44.3828Z" fill="#F6DFE6"/>
<path id="Vector_13" d="M98.8001 44.3828C98.7943 44.3796 98.7895 44.3748 98.7863 44.3689L98.5845 44L98.3828 44.3689C98.3796 44.3748 98.3748 44.3796 98.3689 44.3828L98 44.5845L98.3689 44.7863C98.3748 44.7895 98.3796 44.7943 98.3828 44.8001L98.5845 45.1691L98.7863 44.8001C98.7895 44.7943 98.7943 44.7895 98.8001 44.7863L99.1691 44.5845L98.8001 44.3828Z" fill="white" fill-opacity="0.5"/>
</g>
</g>
<g id="Group 1410068466">
<path id="Vector_14" d="M71.1689 49.0375C71.153 49.0289 71.14 49.0158 71.1314 49L70.5844 48L70.0375 49C70.0289 49.0158 70.0159 49.0288 70 49.0375L69 49.5844L70 50.1313C70.0158 50.14 70.0288 50.153 70.0375 50.1689L70.5844 51.1688L71.1313 50.1689C71.14 50.153 71.153 50.14 71.1688 50.1313L72.1688 49.5844L71.1689 49.0375Z" fill="#F6DFE6"/>
<path id="Vector_15" d="M84.1689 42.0375C84.153 42.0289 84.14 42.0158 84.1314 42L83.5844 41L83.0375 42C83.0289 42.0158 83.0159 42.0288 83 42.0375L82 42.5844L83 43.1313C83.0158 43.14 83.0288 43.153 83.0375 43.1689L83.5844 44.1688L84.1313 43.1689C84.14 43.153 84.153 43.14 84.1688 43.1313L85.1688 42.5844L84.1689 42.0375Z" fill="white" fill-opacity="0.5"/>
</g>
<g id="Group 1410068481_2">
<path id="Vector_16" d="M68.9377 34.927C68.9236 34.9192 68.912 34.9076 68.9042 34.8934L68.4156 34L67.927 34.8934C67.9192 34.9076 67.9076 34.9192 67.8934 34.9269L67 35.4156L67.8934 35.9042C67.9076 35.912 67.9192 35.9236 67.9269 35.9377L68.4156 36.8312L68.9042 35.9377C68.912 35.9236 68.9236 35.912 68.9377 35.9042L69.8312 35.4156L68.9377 34.927Z" fill="#F6DFE6"/>
<path id="Vector_17" d="M68.9377 34.927C68.9236 34.9192 68.912 34.9076 68.9042 34.8934L68.4156 34L67.927 34.8934C67.9192 34.9076 67.9076 34.9192 67.8934 34.9269L67 35.4156L67.8934 35.9042C67.9076 35.912 67.9192 35.9236 67.9269 35.9377L68.4156 36.8312L68.9042 35.9377C68.912 35.9236 68.9236 35.912 68.9377 35.9042L69.8312 35.4156L68.9377 34.927Z" fill="white" fill-opacity="0.5"/>
</g>
</g>
</g>
<g id="Model icon">
<g id="&#229;&#155;&#190;&#229;&#177;&#130;_5" clip-path="url(#clip1_5407_195009)">
<g id="&#229;&#155;&#190;&#229;&#177;&#130; 704">
<path id="Vector_18" d="M55.0388 28.4403C55.0543 28.3596 55.0537 28.2767 55.0371 28.1964C55.0205 28.116 54.9882 28.0397 54.942 27.972C54.8958 27.9042 54.8366 27.8463 54.768 27.8015C54.6993 27.7568 54.6225 27.7261 54.5419 27.7113L54.4746 27.6989L51.7639 17.1845C52.1207 17.0658 52.4454 16.8661 52.7128 16.6012C52.9802 16.3363 53.183 16.0131 53.3055 15.657C53.428 15.3008 53.4669 14.9211 53.4191 14.5476C53.3713 14.174 53.2382 13.8166 53.0301 13.5031C52.822 13.1896 52.5444 12.9285 52.2191 12.7402C51.8937 12.5518 51.5293 12.4411 51.1542 12.4169C50.7792 12.3927 50.4035 12.4554 50.0564 12.6004C49.7094 12.7453 49.4003 12.9685 49.1532 13.2525L41.6683 7.56162C41.8366 7.29661 41.9532 7.00205 42.012 6.69358C42.1296 6.0548 41.9891 5.39558 41.6216 4.86092C41.2541 4.32626 40.6895 3.95996 40.0521 3.84262C39.4147 3.72527 38.7567 3.86649 38.2228 4.23519C37.689 4.6039 37.323 5.16989 37.2054 5.80866C37.1938 5.87128 37.1814 5.93872 37.1699 6.00134L34.5645 5.95495C34.5273 5.82935 34.4512 5.71889 34.3472 5.63956C34.2432 5.56023 34.1167 5.51616 33.9859 5.51372C33.8552 5.51128 33.727 5.55061 33.62 5.62601C33.513 5.70141 33.4327 5.80896 33.3907 5.93309L25.1343 5.78261C25.0953 5.68399 25.0323 5.59672 24.9511 5.52871C24.8699 5.46071 24.773 5.41412 24.6692 5.3932C24.5745 5.37504 24.4767 5.37928 24.3839 5.40557C24.291 5.43187 24.2055 5.4795 24.1341 5.54468C24.0628 5.60987 24.0076 5.69082 23.9729 5.78109C23.9382 5.87136 23.925 5.96847 23.9344 6.06472L14.8542 14.1942C14.6104 13.9161 14.3068 13.6971 13.9663 13.5536C13.6257 13.4102 13.257 13.346 12.888 13.3659C12.519 13.3858 12.1593 13.4893 11.8358 13.6686C11.5124 13.8479 11.2337 14.0984 11.0206 14.4011C10.8076 14.7039 10.6659 15.051 10.606 15.4164C10.5462 15.7819 10.5698 16.1561 10.6751 16.5109C10.7805 16.8658 10.9647 17.192 11.2141 17.4651C11.4635 17.7381 11.7714 17.9509 12.1148 18.0874L9.20634 26.5165C9.05143 26.5158 8.90185 26.5733 8.78696 26.6775C8.67208 26.7817 8.6002 26.9252 8.58545 27.0797C8.5707 27.2342 8.61413 27.3887 8.70723 27.5127C8.80033 27.6366 8.93636 27.7212 9.0886 27.7498L9.1655 27.764L11.8423 37.2213C11.4941 37.3472 11.179 37.5506 10.9207 37.8163C10.6624 38.0819 10.4676 38.4028 10.351 38.7548C10.2344 39.1068 10.1991 39.4806 10.2477 39.8481C10.2964 40.2156 10.4276 40.5672 10.6316 40.8764C10.8357 41.1855 11.1071 41.4442 11.4255 41.6328C11.7439 41.8214 12.101 41.9351 12.4697 41.9652C12.8385 41.9954 13.2093 41.9413 13.5543 41.8069C13.8993 41.6726 14.2093 41.4615 14.4611 41.1896L24.3008 49.0173C24.2923 49.0489 24.2864 49.0811 24.2831 49.1137C24.2515 49.2697 24.2808 49.432 24.365 49.5669C24.4492 49.7019 24.5819 49.7993 24.7357 49.8391C24.8896 49.8789 25.0528 49.8581 25.1919 49.7809C25.3309 49.7037 25.4352 49.5761 25.4832 49.4243L30.8036 49.4077C30.8444 49.4951 30.9046 49.5719 30.9796 49.6324C31.0546 49.6928 31.1424 49.7352 31.2364 49.7563C31.3751 49.7806 31.5179 49.7569 31.6414 49.6892C31.765 49.6214 31.8619 49.5136 31.9163 49.3835L37.8186 49.3645C37.8625 49.4952 37.9485 49.6074 38.0631 49.6837C38.1778 49.76 38.3145 49.7959 38.4517 49.7858C38.589 49.7757 38.7191 49.7202 38.8215 49.628C38.9239 49.5358 38.9929 49.4121 39.0175 49.2765C39.0311 49.1911 39.0268 49.1038 39.0051 49.0202L42.9497 46.4893C43.0263 46.5557 43.1194 46.6004 43.2191 46.6186C43.3214 46.6366 43.4265 46.6288 43.5251 46.596C43.6236 46.5631 43.7125 46.5062 43.7836 46.4304C43.8548 46.3545 43.906 46.2621 43.9327 46.1615C43.9593 46.061 43.9606 45.9553 43.9363 45.8542L47.6366 43.4626C47.8613 43.7623 48.1518 44.0063 48.4856 44.1757C48.8194 44.345 49.1876 44.4353 49.5618 44.4395C49.936 44.4437 50.3063 44.3617 50.6441 44.1998C50.9818 44.0379 51.278 43.8005 51.5098 43.5059C51.7416 43.2112 51.9027 42.8672 51.9809 42.5004C52.0591 42.1336 52.0522 41.7538 51.9606 41.3902C51.8691 41.0266 51.6955 40.689 51.4531 40.4035C51.2107 40.1179 50.906 39.892 50.5626 39.7431L54.4185 28.9486C54.5651 28.9509 54.7078 28.9011 54.8214 28.808C54.9349 28.715 55.0119 28.5847 55.0388 28.4403ZM44.9351 41.0229C45.0497 41.043 45.1678 41.0306 45.2759 40.9872C45.3839 40.9437 45.4778 40.8709 45.5469 40.777L47.1808 41.3766C47.1692 41.4392 47.1586 41.497 47.148 41.5548C47.1248 41.679 47.1116 41.8048 47.1085 41.931L41.0181 42.1893L38.3286 38.1183L44.4344 40.368C44.4283 40.5195 44.4777 40.668 44.5732 40.7855C44.6687 40.9031 44.8038 40.9816 44.953 41.0063L44.9351 41.0229ZM39.1875 8.67368C39.4719 8.72426 39.7631 8.72391 40.0474 8.67263L41.0873 12.6341C40.9832 12.7023 40.9019 12.8001 40.8539 12.915C40.8059 13.0299 40.7934 13.1566 40.8181 13.2786C40.8427 13.4006 40.9033 13.5124 40.9921 13.5995C41.0809 13.6865 41.1937 13.7449 41.316 13.7669L41.3833 13.7793L42.7759 19.0907C42.7333 19.1211 42.6937 19.1555 42.6576 19.1934L32.9522 15.036C32.9621 14.9964 32.9695 14.9561 32.9744 14.9156C32.9937 14.8179 32.9866 14.7169 32.9538 14.6229L38.2291 8.23825C38.5165 8.44387 38.8445 8.58575 39.1911 8.65442L39.1875 8.67368ZM48.5205 14.665C48.4777 15.1238 48.565 15.5852 48.7723 15.9963L45.9726 17.707C45.8928 17.6361 45.7948 17.5887 45.6897 17.5703C45.6095 17.5555 45.5272 17.5567 45.4475 17.5738C45.3678 17.5909 45.2922 17.6236 45.225 17.67C45.1579 17.7163 45.1005 17.7755 45.0562 17.8441C45.0118 17.9127 44.9814 17.9893 44.9666 18.0696C44.9497 18.1522 44.951 18.2374 44.9703 18.3193L43.5709 19.1723C43.4809 19.0786 43.3641 19.0153 43.2365 18.9912L43.1692 18.9788L41.7757 13.6723C41.8564 13.6167 41.924 13.5441 41.9739 13.4597L48.5205 14.665ZM48.2473 26.6221C48.3553 26.6408 48.4663 26.6307 48.5692 26.5928C48.6721 26.5549 48.7633 26.4907 48.8336 26.4064L53.7897 28.3149L49.2905 29.7825C49.1969 29.652 49.0566 29.5629 48.8989 29.5339C48.7412 29.5049 48.5784 29.5381 48.4445 29.6267L39.9758 22.9628L47.7563 25.969C47.7513 26.1185 47.7998 26.2649 47.8932 26.3817C47.9865 26.4984 48.1185 26.5778 48.2652 26.6055L48.2473 26.6221ZM44.5688 39.9893L38.3983 37.7128C38.3819 37.5608 38.3105 37.4202 38.1978 37.3173L40.5411 31.7425C40.6449 31.7775 40.751 31.8054 40.8587 31.8259C41.2114 31.8895 41.5738 31.8746 41.9202 31.7823C41.8246 31.8574 41.7531 31.9591 41.7145 32.0746C41.6759 32.1901 41.672 32.3143 41.7033 32.432C41.7345 32.5496 41.7995 32.6555 41.8903 32.7364C41.981 32.8173 42.0935 32.8697 42.2138 32.8871C42.2528 32.8992 42.2932 32.9066 42.3339 32.9093L44.7812 39.8342C44.7081 39.8673 44.642 39.9143 44.5867 39.9727L44.5688 39.9893ZM38.0757 48.6698L34.5958 45.9772C34.7655 45.7148 34.882 45.4215 34.9386 45.114C35.0122 44.7091 34.9828 44.2923 34.8532 43.902C34.7235 43.5116 34.4978 43.1604 34.1968 42.8808L37.5612 38.3456L37.6333 38.3588L38.1629 48.6012C38.1322 48.6219 38.103 48.6448 38.0757 48.6698ZM25.0996 48.6464L25.0179 48.6314L24.0542 41.2874C24.1623 41.247 24.2565 41.1761 24.3253 41.0833L29.3923 42.7134C29.3941 42.8295 29.4284 42.9428 29.4911 43.0403L25.0996 48.6464ZM15.2692 29.1616C15.2715 29.0486 15.2441 28.9371 15.1896 28.8382L17.9204 25.7203C17.961 25.7329 18.0029 25.7406 18.0453 25.7433C18.1258 25.7587 18.2085 25.7581 18.2887 25.7414C18.369 25.7247 18.4451 25.6922 18.5128 25.6459C18.5804 25.5995 18.6383 25.5402 18.683 25.4714C18.7277 25.4025 18.7583 25.3255 18.7732 25.2448C18.8 25.0993 18.7728 24.9491 18.6969 24.8224L23.5749 19.2461L22.7042 29.6439C22.2421 29.646 21.7899 29.7793 21.4001 30.0284C21.0103 30.2775 20.6989 30.6322 20.502 31.0513L15.2692 29.1616ZM15.4402 16.4635C15.4518 16.4009 15.4633 16.3383 15.4748 16.2757C15.541 15.915 15.5243 15.544 15.4261 15.1909L20.907 12.6291C20.9888 12.6967 21.0865 12.7421 21.1908 12.7611L21.2821 12.7779L23.4062 18.219C23.358 18.2589 23.3172 18.307 23.2856 18.3611L15.4402 16.4635ZM42.5334 19.5441C42.5274 19.6252 42.5378 19.7067 42.5638 19.7837L39.2081 21.8154C39.1242 21.7481 39.0251 21.7025 38.9195 21.6826C38.8021 21.6604 38.6807 21.6727 38.5701 21.7179L33.1183 15.5646L42.5334 19.5441ZM43.038 20.2047C43.1185 20.2195 43.2012 20.2182 43.2813 20.2009C43.3614 20.1835 43.4373 20.1505 43.5046 20.1036C43.5719 20.0567 43.6293 19.997 43.6735 19.9278C43.7176 19.8586 43.7477 19.7814 43.7619 19.7005C43.7726 19.6415 43.7736 19.5811 43.765 19.5218L45.2082 18.647C45.2893 18.716 45.3867 18.763 45.4911 18.7838C45.5301 18.7961 45.5704 18.8036 45.6113 18.8059L48.0123 25.5231C47.9813 25.5502 47.9525 25.5799 47.9264 25.6118L39.4402 22.3363C39.4421 22.2823 39.4388 22.2283 39.4301 22.175L42.7903 20.1193C42.8589 20.1606 42.9348 20.1881 43.0139 20.2003L43.038 20.2047ZM35.4433 36.596C35.4467 36.4661 35.4095 36.3384 35.3368 36.2309C35.264 36.1233 35.1595 36.0413 35.0378 35.9964C34.9162 35.9514 34.7835 35.9459 34.6584 35.9804C34.5333 36.0149 34.4222 36.0878 34.3405 36.1888L25.0324 32.7619C25.0502 32.6922 25.0632 32.6214 25.0714 32.55C25.1076 32.3567 25.1188 32.1596 25.1048 31.9635L32.6332 30.8593C32.6757 30.9442 32.7372 31.0181 32.8128 31.0752C32.8885 31.1323 32.9764 31.1712 33.0695 31.1887C33.1576 31.2058 33.2485 31.2021 33.3349 31.1778L37.2458 37.2516L35.4433 36.596ZM25.9284 10.7547L28.5156 17.81C28.198 17.9444 27.9124 18.1447 27.6774 18.3975C27.4424 18.6504 27.2634 18.9502 27.1522 19.2772L24.4159 18.619C24.4075 18.5243 24.3772 18.4328 24.3274 18.3519C24.2776 18.271 24.2097 18.2028 24.129 18.1528L25.9284 10.7547ZM32.3781 15.4283L32.4738 15.421L38.2276 21.9586L31.8476 20.4155C31.9096 19.9776 31.8522 19.5312 31.6813 19.1235C31.5105 18.7159 31.2327 18.3623 30.8774 18.1003L32.3781 15.4283ZM33.2908 29.9595C33.2107 29.9447 33.1284 29.9459 33.0486 29.963C32.9689 29.9801 32.8933 30.0128 32.8262 30.0592C32.7591 30.1056 32.7017 30.1647 32.6573 30.2333C32.613 30.3019 32.5825 30.3785 32.5678 30.4588L25.049 31.5647C25.0029 31.3795 24.9359 31.2001 24.8493 31.0299L31.0455 27.2552C31.1371 27.3462 31.2539 27.4076 31.3808 27.4314C31.487 27.4521 31.5968 27.4444 31.6991 27.4091C31.8014 27.3738 31.8926 27.3121 31.9636 27.2303C32.0346 27.1484 32.0828 27.0493 32.1034 26.9429C32.1241 26.8365 32.1164 26.7265 32.0811 26.6241L38.1139 22.9537L33.3384 29.9981L33.2908 29.9595ZM38.1728 22.337C38.1684 22.3611 38.164 22.3852 38.1595 22.4093L31.845 26.2868C31.7742 26.238 31.6941 26.2045 31.6096 26.1887C31.5047 26.1708 31.3969 26.1801 31.2965 26.2157L24.4192 19.033L27.0507 19.6668C26.9733 20.2664 27.1201 20.8733 27.4626 21.3707C27.8051 21.868 28.3192 22.2207 28.9059 22.3609C29.4926 22.5011 30.1105 22.4188 30.6407 22.1299C31.1708 21.841 31.5757 21.3659 31.7775 20.796L38.1728 22.337ZM24.0484 19.2386L30.9637 26.4582C30.9184 26.529 30.8871 26.6077 30.8712 26.6902C30.8623 26.751 30.861 26.8126 30.8673 26.8737L24.633 30.6664C24.2655 30.1616 23.7191 29.8169 23.1058 29.7029L23.0674 29.6959L23.9368 19.2778C23.9785 19.2742 24.0193 19.2632 24.0571 19.2452L24.0484 19.2386ZM37.8328 37.1405C37.7686 37.1353 37.704 37.1402 37.6413 37.1551L33.6567 30.9681C33.7187 30.8887 33.7613 30.796 33.7812 30.6972L38.9382 29.9483C39.0168 30.2919 39.1686 30.6143 39.383 30.8936C39.5975 31.1729 39.8696 31.4025 40.1809 31.5666L37.8328 37.1405ZM38.9159 28.9631C38.8797 29.1564 38.8684 29.3535 38.8824 29.5496L33.7206 30.2976C33.7058 30.2648 33.6863 30.2343 33.6627 30.2072L38.6287 22.8841L38.6767 22.893C38.7157 22.9053 38.7561 22.9128 38.7969 22.9151L40.3081 27.1775C39.9506 27.3427 39.6381 27.5918 39.3973 27.9039C39.1564 28.2159 38.9942 28.5815 38.9246 28.9697L38.9159 28.9631ZM31.988 15.3067L30.5444 17.8846C30.3375 17.7805 30.1169 17.7063 29.8892 17.6644C29.5587 17.6033 29.2193 17.6102 28.8915 17.6849L26.2704 10.5437C26.3624 10.4671 26.4306 10.3656 26.4669 10.2513C26.5032 10.137 26.506 10.0147 26.475 9.89891C26.444 9.78312 26.3805 9.67869 26.2921 9.598C26.2036 9.51732 26.0939 9.46376 25.9759 9.44368C25.9353 9.43104 25.8934 9.42332 25.851 9.42067L24.9207 6.88875L31.7564 14.6216C31.7503 14.642 31.7465 14.663 31.7448 14.6842C31.7206 14.8017 31.7311 14.9237 31.775 15.0353C31.8189 15.1468 31.8943 15.2431 31.9919 15.3124L31.988 15.3067ZM25.4202 10.4918C25.4527 10.5277 25.4907 10.5582 25.5327 10.5823L23.7338 18.0053L21.6357 12.6388C21.765 12.5466 21.8531 12.4072 21.8811 12.2507C21.8902 12.2159 21.8967 12.1805 21.9006 12.1447L25.4202 10.4918ZM24.8605 33.1287L34.1686 36.5556C34.1642 36.5663 34.1621 36.5778 34.1624 36.5893L24.2851 40.2491C24.1935 40.1486 24.0716 40.0807 23.938 40.0558L23.8948 40.0478L23.1761 34.477C23.5434 34.3996 23.8881 34.2385 24.1834 34.0061C24.4787 33.7737 24.7167 33.4763 24.8788 33.1371L24.8605 33.1287ZM30.2044 42.081L30.1131 42.0642C29.999 42.0432 29.8813 42.0546 29.7733 42.0972C29.6653 42.1399 29.5714 42.2119 29.5022 42.3053L24.4457 40.6722L24.4528 40.6336L34.1937 37.0134L30.2044 42.081ZM34.8232 37.1841C34.9082 37.1789 34.9913 37.1559 35.067 37.1167C35.1427 37.0775 35.2093 37.0228 35.2627 36.9562L37.1704 37.661C37.1491 37.8044 37.1784 37.9508 37.2533 38.0747L33.8766 42.6226C33.7355 42.5263 33.583 42.448 33.4225 42.3896L34.8232 37.1841ZM42.8105 31.8864C42.7174 31.761 42.5806 31.6754 42.4273 31.6465L42.3071 31.6244C42.7735 31.4056 43.1592 31.0449 43.4091 30.5937C43.659 30.1425 43.7604 29.6238 43.6988 29.1117C43.6372 28.5995 43.4157 28.1201 43.0659 27.7418C42.7162 27.3635 42.2561 27.1056 41.7512 27.0049C41.3987 26.9388 41.0357 26.9537 40.6896 27.0485L39.2123 22.872L48.2059 29.9513C48.1985 29.9781 48.1935 30.0055 48.1908 30.0332C48.1814 30.0696 48.1746 30.1066 48.1704 30.144L42.8105 31.8864ZM48.3452 25.2806L45.978 18.6493C46.0944 18.5559 46.1735 18.4238 46.2007 18.2769C46.2169 18.1959 46.2153 18.1123 46.196 18.032L48.9957 16.3213C49.2996 16.7392 49.7277 17.0499 50.2189 17.2088L48.3452 25.2806ZM33.71 6.70904L32.3284 14.2139C32.2143 14.2221 32.1044 14.2603 32.0098 14.3246L25.0521 6.4448C25.1111 6.37403 25.1564 6.29285 25.1856 6.20543L33.4439 6.34628C33.4847 6.4961 33.5795 6.62537 33.71 6.70904ZM24.3989 6.61839L25.4951 9.59918C25.3797 9.69119 25.301 9.82162 25.2733 9.96675C25.2628 10.027 25.2599 10.0884 25.2646 10.1494L21.7792 11.7787C21.6914 11.6714 21.5704 11.5966 21.4353 11.5662C21.3002 11.5358 21.1588 11.5516 21.0336 11.611C20.9084 11.6704 20.8065 11.77 20.7443 11.894C20.6821 12.0181 20.663 12.1593 20.6901 12.2954L15.2845 14.8262C15.2364 14.7205 15.1804 14.6187 15.117 14.5215L24.1528 6.44359C24.219 6.51952 24.3052 6.57511 24.4016 6.60394L24.3989 6.61839ZM15.2792 16.8522L23.1784 18.7547C23.1851 18.8439 23.2116 18.9304 23.256 19.0081L18.3684 24.5826C18.3262 24.5697 18.2826 24.5616 18.2386 24.5587C18.1642 24.5469 18.0883 24.5481 18.0143 24.5622L14.2883 17.9696C14.7317 17.7084 15.0799 17.3117 15.2819 16.8378L15.2792 16.8522ZM14.8597 28.5782L14.7348 28.5552C14.6249 28.5355 14.5117 28.5454 14.4069 28.5838C14.302 28.6223 14.2092 28.6879 14.1379 28.7741L9.90793 27.2134L17.569 25.4962L14.8597 28.5782ZM14.0006 29.1422C13.9971 29.2721 14.0344 29.3998 14.1071 29.5074C14.1798 29.6149 14.2844 29.6969 14.406 29.7419C14.5277 29.7868 14.6604 29.7924 14.7855 29.7579C14.9105 29.7234 15.0217 29.6505 15.1034 29.5494L20.3252 31.472C20.3119 31.5442 20.2995 31.6117 20.2862 31.6839C20.1761 32.282 20.2949 32.8995 20.6188 33.4135L17.7374 35.5675C17.6608 35.5116 17.5729 35.4733 17.4798 35.4553C17.3484 35.4296 17.2121 35.4483 17.0923 35.5085L9.91516 27.6331L14.0006 29.1422ZM17.9495 35.9003L20.8326 33.7368C21.1933 34.1444 21.6795 34.4197 22.2142 34.5191C22.3971 34.5517 22.5831 34.5643 22.7689 34.5564L23.4949 40.1684C23.4749 40.1801 23.4559 40.1932 23.4379 40.2077L17.9205 36.2735C17.9291 36.2419 17.935 36.2097 17.9383 36.1772C17.9659 36.0825 17.9706 35.9827 17.9521 35.8859L17.9495 35.9003ZM23.2368 40.5442C23.2368 40.5442 23.2324 40.5683 23.2298 40.5828C23.2023 40.7332 23.2312 40.8884 23.3107 41.0188C23.3903 41.1492 23.5151 41.2457 23.6612 41.2897L24.5581 48.2678L17.983 36.798L23.2368 40.5442ZM25.4036 48.9116L29.8092 43.2832L29.9053 43.3009C30.0672 43.3307 30.2343 43.2948 30.3699 43.2012C30.5055 43.1075 30.5985 42.9637 30.6284 42.8015C30.6436 42.7241 30.6434 42.6446 30.6277 42.5673C30.6121 42.4901 30.5814 42.4167 30.5373 42.3514L34.3454 37.4846L33.0569 42.2974L32.9992 42.2867C32.4023 42.2003 31.7944 42.3381 31.2925 42.6736C30.7906 43.0091 30.4301 43.5187 30.2803 44.1042C30.1306 44.6898 30.2022 45.31 30.4814 45.8455C30.7605 46.381 31.2276 46.794 31.7926 47.005L31.3794 48.5475C31.2354 48.5407 31.0936 48.5847 30.9786 48.6718C30.8636 48.7589 30.7827 48.8837 30.75 49.0243L25.468 49.0479C25.4556 48.9933 25.4351 48.9408 25.4072 48.8923L25.4036 48.9116ZM31.7545 48.6963L32.1823 47.1017C32.5821 47.1621 32.9908 47.1221 33.3715 46.9854C33.7523 46.8486 34.0934 46.6193 34.3641 46.3181L37.844 49.0106L31.9867 49.0279C31.9517 48.8897 31.8708 48.7677 31.7572 48.6818L31.7545 48.6963ZM38.5865 48.5945L38.0647 38.4183L42.8374 45.6419C42.7828 45.7174 42.7458 45.8042 42.7289 45.8958C42.712 45.9875 42.7157 46.0817 42.7398 46.1717L38.8192 48.7071C38.7513 48.6521 38.6717 48.6135 38.5865 48.5945ZM43.4417 45.4095C43.3521 45.3921 43.2596 45.3955 43.1715 45.4195L41.2837 42.5818L47.1346 42.3293C47.1731 42.6215 47.2661 42.9039 47.4087 43.1616L43.7093 45.5484C43.6297 45.4796 43.5346 45.4313 43.4321 45.4077L43.4417 45.4095ZM45.3923 39.862C45.3366 39.828 45.2756 39.8033 45.2119 39.789L42.7173 32.7707C42.7848 32.7124 42.8401 32.6413 42.88 32.5616L49.8709 33.5399C49.8924 33.6394 49.9364 33.7327 49.9996 33.8126L45.3923 39.862ZM50.7453 32.8392C50.6983 32.8254 50.65 32.8165 50.6011 32.8127C50.4679 32.7886 50.3305 32.8087 50.2097 32.8701C50.089 32.9315 49.9915 33.0308 49.9322 33.1527L43.2267 32.217L48.3184 30.5547C48.4102 30.6762 48.5435 30.7593 48.6929 30.788C48.856 30.8181 49.0245 30.7819 49.1612 30.6875C49.2978 30.5931 49.3915 30.4482 49.4216 30.2847C49.4296 30.2547 49.4352 30.2241 49.4385 30.1932L53.89 28.7417L50.7453 32.8392ZM54.0966 27.8086C54.0447 27.8403 53.9987 27.8807 53.9604 27.9279L49.0043 26.0194C49.0089 25.9105 48.9849 25.8023 48.9347 25.7057C48.8845 25.609 48.8097 25.5273 48.718 25.4687L50.6133 17.3064C50.8679 17.3425 51.1264 17.3397 51.3802 17.2981L54.0966 27.8086ZM48.9097 13.5763C48.778 13.7845 48.6777 14.011 48.612 14.2486L42.051 13.0407C42.0307 12.9122 41.9712 12.7931 41.8808 12.6998C41.7903 12.6065 41.6733 12.5435 41.5457 12.5193L41.4832 12.5078L40.4434 8.54632C40.8261 8.41012 41.1689 8.18055 41.441 7.87836L48.9097 13.5763ZM37.9329 7.98451L32.7216 14.2913L34.1042 6.7816C34.215 6.76372 34.319 6.71654 34.4056 6.64493C34.4922 6.57332 34.5581 6.47988 34.5966 6.37424L37.2021 6.42063C37.2479 7.01372 37.5077 7.56962 37.9329 7.98451ZM12.6277 18.2167C13.0656 18.2977 13.5174 18.255 13.9326 18.0934L17.683 24.7154C17.6057 24.7996 17.5538 24.904 17.5331 25.0165C17.5331 25.0165 17.5278 25.0454 17.5251 25.0598L9.74942 26.8057C9.70797 26.7435 9.6581 26.6874 9.60122 26.639L12.5145 18.2108L12.6277 18.2167ZM9.62857 27.8941L16.8018 35.7637C16.7751 35.8137 16.7553 35.867 16.7428 35.9222C16.7232 36.0325 16.7331 36.1461 16.7717 36.2512L14.5711 37.893C14.2085 37.4698 13.7125 37.1834 13.1651 37.0813C12.8552 37.0234 12.537 37.0274 12.2286 37.0932L9.62857 27.8941ZM14.8041 38.2198L17.0275 36.5623C17.0931 36.6066 17.1669 36.6371 17.2446 36.6521C17.3137 36.6646 17.3845 36.6641 17.4535 36.6507L24.2066 48.4223L14.7356 40.8866C14.9358 40.6036 15.0717 40.2801 15.1337 39.9389C15.2346 39.3489 15.1164 38.7425 14.8015 38.2342L14.8041 38.2198ZM49.9803 39.5861C49.4441 39.4889 48.8907 39.5742 48.4082 39.8282C47.9256 40.0823 47.5415 40.4906 47.3169 40.9883L45.6694 40.3812C45.6689 40.3198 45.6583 40.259 45.638 40.2011L50.3431 34.0252C50.4236 34.0407 50.5063 34.04 50.5865 34.0233C50.6667 34.0066 50.7429 33.9741 50.8105 33.9278C50.8782 33.8814 50.9361 33.8221 50.9808 33.7533C51.0255 33.6845 51.0561 33.6075 51.071 33.5267C51.0951 33.3881 51.0724 33.2455 51.0065 33.1214L53.7736 29.4823L50.1773 39.6224L49.9803 39.5861Z" fill="#82EB68"/>
<path id="Vector_19" d="M21.5683 9.09058L49.0188 14.1444C49.3532 14.2026 49.6727 14.3268 49.9587 14.5097C50.2448 14.6926 50.4917 14.9306 50.6853 15.2099C50.8789 15.4892 51.0151 15.8042 51.0863 16.1367C51.1574 16.4693 51.162 16.8127 51.0998 17.1471L46.0351 44.657C45.9747 44.9924 45.8484 45.3125 45.6637 45.5988C45.479 45.8851 45.2394 46.1318 44.9589 46.3248C44.6785 46.5177 44.3626 46.653 44.0297 46.7228C43.6967 46.7926 43.3533 46.7955 43.0193 46.7314L15.5689 41.6776C15.2368 41.6165 14.9201 41.4904 14.6368 41.3066C14.3535 41.1228 14.1092 40.8849 13.9177 40.6064C13.5311 40.0439 13.3833 39.3504 13.5071 38.6784L18.5735 11.1589C18.6342 10.8258 18.7599 10.508 18.9434 10.2237C19.1268 9.93934 19.3645 9.69405 19.6428 9.50189C19.921 9.30973 20.2343 9.17448 20.5647 9.10389C20.8952 9.03331 21.2362 9.02879 21.5683 9.09058Z" fill="#BAEE5B"/>
<path id="Vector_20" d="M44.0687 18.2227L24.7462 14.6653C23.764 14.4845 22.8209 15.1358 22.6396 16.1202L19.0746 35.4845C18.8933 36.4689 19.5427 37.4134 20.5249 37.5943L39.8474 41.1516C40.8296 41.3325 41.7728 40.6811 41.954 39.6968L45.519 20.3324C45.7003 19.3481 45.0509 18.4035 44.0687 18.2227Z" fill="#28830E"/>
<path id="Vector (Stroke)" fill-rule="evenodd" clip-rule="evenodd" d="M23.9948 13.7798C23.1028 13.6156 22.2464 14.2071 22.0818 15.101L18.1921 36.2284C18.0276 37.1223 18.6172 37.98 19.5092 38.1442L40.5957 42.0264C41.4877 42.1906 42.3441 41.5991 42.5087 40.7052L46.3984 19.5778C46.5629 18.6839 45.9733 17.8262 45.0813 17.662L23.9948 13.7798ZM21.4281 14.9807C21.6593 13.725 22.8624 12.894 24.1154 13.1247L45.2019 17.0069C46.4549 17.2375 47.2832 18.4425 47.0521 19.6982L43.1624 40.8255C42.9312 42.0812 41.7281 42.9122 40.4751 42.6815L19.3886 38.7993C18.1356 38.5687 17.3073 37.3637 17.5384 36.108L21.4281 14.9807Z" fill="#28830E"/>
<path id="Vector_21" d="M24.6231 11.2015C24.6104 11.2703 24.5843 11.3358 24.5463 11.3944C24.5082 11.453 24.4589 11.5034 24.4013 11.5428C24.3437 11.5822 24.2789 11.6098 24.2106 11.624C24.1423 11.6381 24.0719 11.6386 24.0034 11.6253C23.9347 11.6133 23.8691 11.5878 23.8103 11.5503C23.7515 11.5127 23.7008 11.4638 23.661 11.4065C23.6212 11.3492 23.5931 11.2845 23.5784 11.2162C23.5637 11.1479 23.5626 11.0773 23.5753 11.0086L24.1269 8.01245C24.1395 7.94372 24.1656 7.87818 24.2037 7.8196C24.2418 7.76103 24.291 7.71057 24.3487 7.67117C24.4063 7.63177 24.4711 7.60419 24.5394 7.59003C24.6077 7.57587 24.6781 7.5754 24.7466 7.58867C24.8153 7.60065 24.8809 7.62616 24.9397 7.66372C24.9985 7.70128 25.0492 7.75013 25.089 7.80747C25.1288 7.86481 25.1569 7.92951 25.1716 7.9978C25.1863 8.06609 25.1874 8.13663 25.1747 8.20536L24.6231 11.2015Z" fill="#F8BD31"/>
<path id="Vector_22" d="M35.5392 13.2124C35.5265 13.2811 35.5004 13.3466 35.4623 13.4052C35.4243 13.4638 35.375 13.5142 35.3174 13.5536C35.2598 13.593 35.1949 13.6206 35.1266 13.6348C35.0583 13.6489 34.9879 13.6494 34.9195 13.6361C34.8513 13.6236 34.7863 13.5977 34.7281 13.56C34.67 13.5222 34.6198 13.4734 34.5805 13.4162C34.5412 13.359 34.5135 13.2946 34.499 13.2267C34.4845 13.1588 34.4836 13.0887 34.4962 13.0203L35.0478 10.0242C35.0604 9.95585 35.0862 9.89066 35.1239 9.83235C35.1616 9.77403 35.2104 9.72373 35.2675 9.68429C35.3246 9.64486 35.3889 9.61708 35.4567 9.60253C35.5245 9.58798 35.5945 9.58695 35.6626 9.5995C35.7313 9.61148 35.797 9.63699 35.8557 9.67455C35.9145 9.71211 35.9653 9.76096 36.0051 9.8183C36.0449 9.87564 36.073 9.94033 36.0877 10.0086C36.1024 10.0769 36.1035 10.1475 36.0908 10.2162L35.5392 13.2124Z" fill="#F8BD31"/>
<path id="Vector_23" d="M31.9532 12.5522C31.9407 12.6205 31.9148 12.6857 31.8771 12.744C31.8394 12.8023 31.7906 12.8526 31.7335 12.8921C31.6764 12.9315 31.6121 12.9593 31.5443 12.9739C31.4765 12.9884 31.4065 12.9894 31.3384 12.9769C31.2697 12.9649 31.204 12.9394 31.1453 12.9018C31.0865 12.8643 31.0357 12.8154 30.9959 12.7581C30.9561 12.7007 30.928 12.636 30.9133 12.5677C30.8986 12.4995 30.8976 12.4289 30.9102 12.3602L31.4618 9.36401C31.4745 9.29528 31.5006 9.22974 31.5387 9.17116C31.5767 9.11259 31.626 9.06214 31.6836 9.02273C31.7412 8.98333 31.8061 8.95575 31.8744 8.94159C31.9427 8.92743 32.0131 8.92697 32.0815 8.94023C32.1497 8.95278 32.2147 8.97866 32.2729 9.0164C32.3311 9.05414 32.3812 9.103 32.4205 9.16018C32.4599 9.21737 32.4875 9.28176 32.502 9.34968C32.5165 9.4176 32.5174 9.48772 32.5049 9.55604L31.9532 12.5522Z" fill="#F8BD31"/>
<path id="Vector_24" d="M28.3917 11.8949C28.379 11.9636 28.3529 12.0292 28.3148 12.0877C28.2768 12.1463 28.2275 12.1968 28.1699 12.2362C28.1123 12.2756 28.0474 12.3031 27.9791 12.3173C27.9108 12.3315 27.8404 12.3319 27.772 12.3187C27.7033 12.3067 27.6376 12.2812 27.5789 12.2436C27.5201 12.2061 27.4693 12.1572 27.4295 12.0999C27.3897 12.0425 27.3616 11.9778 27.3469 11.9095C27.3322 11.8413 27.3312 11.7707 27.3438 11.702L27.8954 8.70581C27.9081 8.63708 27.9342 8.57154 27.9723 8.51296C28.0103 8.45439 28.0596 8.40393 28.1172 8.36453C28.1748 8.32513 28.2397 8.29755 28.308 8.28339C28.3763 8.26923 28.4467 8.26876 28.5151 8.28202C28.5838 8.29401 28.6495 8.31952 28.7082 8.35708C28.767 8.39463 28.8178 8.44349 28.8576 8.50084C28.8974 8.55818 28.9255 8.62287 28.9402 8.69116C28.9549 8.75945 28.9559 8.83 28.9433 8.89872L28.3917 11.8949Z" fill="#F8BD31"/>
<path id="Vector_25" d="M39.1251 13.8715C39.1124 13.9402 39.0863 14.0057 39.0482 14.0643C39.0102 14.1229 38.9609 14.1733 38.9033 14.2127C38.8457 14.2521 38.7808 14.2797 38.7125 14.2939C38.6442 14.308 38.5738 14.3085 38.5054 14.2952C38.4367 14.2833 38.371 14.2577 38.3123 14.2202C38.2535 14.1826 38.2027 14.1338 38.1629 14.0764C38.1231 14.0191 38.0951 13.9544 38.0803 13.8861C38.0656 13.8178 38.0646 13.7473 38.0772 13.6785L38.6288 10.6824C38.6415 10.6136 38.6676 10.5481 38.7057 10.4895C38.7437 10.431 38.793 10.3805 38.8506 10.3411C38.9082 10.3017 38.9731 10.2741 39.0414 10.2599C39.1097 10.2458 39.1801 10.2453 39.2485 10.2586C39.3172 10.2706 39.3829 10.2961 39.4416 10.3336C39.5004 10.3712 39.5512 10.4201 39.591 10.4774C39.6308 10.5347 39.6589 10.5994 39.6736 10.6677C39.6883 10.736 39.6893 10.8066 39.6767 10.8753L39.1251 13.8715Z" fill="#F8BD31"/>
<path id="Vector_26" d="M46.4552 15.2202C46.4426 15.2889 46.4165 15.3545 46.3784 15.413C46.3403 15.4716 46.2911 15.522 46.2334 15.5615C46.1758 15.6009 46.111 15.6284 46.0427 15.6426C45.9744 15.6568 45.904 15.6572 45.8355 15.644C45.7673 15.6314 45.7023 15.6055 45.6441 15.5678C45.586 15.53 45.5358 15.4812 45.4965 15.424C45.4572 15.3668 45.4295 15.3024 45.415 15.2345C45.4006 15.1666 45.3996 15.0965 45.4122 15.0282L45.9638 12.032C45.9764 11.9637 46.0022 11.8985 46.04 11.8402C46.0777 11.7819 46.1265 11.7315 46.1836 11.6921C46.2407 11.6527 46.3049 11.6249 46.3727 11.6103C46.4405 11.5958 46.5105 11.5948 46.5787 11.6073C46.6474 11.6193 46.713 11.6448 46.7718 11.6824C46.8306 11.7199 46.8813 11.7688 46.9211 11.8261C46.9609 11.8835 46.989 11.9482 47.0037 12.0164C47.0184 12.0847 47.0195 12.1553 47.0068 12.224L46.4552 15.2202Z" fill="#F8BD31"/>
<path id="Vector_27" d="M42.8888 14.5639C42.8762 14.6322 42.8503 14.6974 42.8126 14.7557C42.7749 14.8141 42.7261 14.8644 42.669 14.9038C42.6119 14.9432 42.5477 14.971 42.4799 14.9856C42.4121 15.0001 42.3421 15.0011 42.2739 14.9886C42.2052 14.9766 42.1396 14.9511 42.0808 14.9135C42.022 14.876 41.9713 14.8271 41.9315 14.7698C41.8916 14.7124 41.8636 14.6478 41.8489 14.5795C41.8342 14.5112 41.8331 14.4406 41.8458 14.3719L42.3974 11.3757C42.41 11.307 42.4361 11.2415 42.4742 11.1829C42.5123 11.1243 42.5615 11.0739 42.6192 11.0344C42.6768 10.995 42.7416 10.9675 42.8099 10.9533C42.8782 10.9391 42.9486 10.9387 43.0171 10.9519C43.0852 10.9645 43.1503 10.9904 43.2084 11.0281C43.2666 11.0659 43.3168 11.1147 43.3561 11.1719C43.3954 11.2291 43.4231 11.2935 43.4375 11.3614C43.452 11.4293 43.453 11.4994 43.4404 11.5678L42.8888 14.5639Z" fill="#F8BD31"/>
<path id="Vector_28" d="M18.6271 43.7747C18.6144 43.8434 18.5883 43.909 18.5503 43.9675C18.5122 44.0261 18.4629 44.0766 18.4053 44.116C18.3477 44.1554 18.2829 44.1829 18.2146 44.1971C18.1463 44.2113 18.0759 44.2117 18.0074 44.1985C17.9387 44.1865 17.8731 44.161 17.8143 44.1234C17.7555 44.0859 17.7048 44.037 17.665 43.9797C17.6252 43.9223 17.5971 43.8576 17.5824 43.7893C17.5677 43.721 17.5666 43.6505 17.5793 43.5818L18.1309 40.5856C18.1565 40.4463 18.2363 40.323 18.3527 40.2426C18.4691 40.1622 18.6125 40.1314 18.7515 40.157C18.8904 40.1826 19.0135 40.2624 19.0936 40.379C19.1737 40.4955 19.2043 40.6393 19.1787 40.7785L18.6271 43.7747Z" fill="#F8BD31"/>
<path id="Vector_29" d="M29.5422 45.7836C29.5296 45.8523 29.5035 45.9178 29.4654 45.9764C29.4273 46.035 29.3781 46.0854 29.3204 46.1248C29.2628 46.1642 29.198 46.1918 29.1297 46.206C29.0614 46.2201 28.991 46.2206 28.9225 46.2073C28.7848 46.182 28.6629 46.1029 28.5835 45.9874C28.5041 45.8719 28.4738 45.7295 28.4992 45.5915L29.0508 42.5954C29.0628 42.5265 29.0883 42.4607 29.1259 42.4018C29.1634 42.3429 29.2122 42.292 29.2694 42.2521C29.3267 42.2121 29.3913 42.184 29.4594 42.1692C29.5276 42.1544 29.598 42.1533 29.6666 42.1659C29.7354 42.1786 29.801 42.2047 29.8597 42.2428C29.9184 42.2809 29.9691 42.3302 30.0087 42.3879C30.0484 42.4456 30.0763 42.5106 30.0909 42.5791C30.1055 42.6477 30.1065 42.7184 30.0938 42.7874L29.5422 45.7836Z" fill="#F8BD31"/>
<path id="Vector_30" d="M25.9572 45.1234C25.9318 45.2614 25.8528 45.3836 25.7375 45.4633C25.6222 45.5429 25.48 45.5734 25.3424 45.5481C25.2737 45.5361 25.208 45.5106 25.1493 45.473C25.0905 45.4355 25.0397 45.3866 24.9999 45.3293C24.9601 45.2719 24.932 45.2072 24.9173 45.1389C24.9026 45.0707 24.9016 45.0001 24.9142 44.9314L25.4658 41.9352C25.4915 41.796 25.5713 41.6726 25.6876 41.5922C25.804 41.5118 25.9475 41.481 26.0864 41.5066C26.155 41.5192 26.2204 41.5454 26.2788 41.5834C26.3372 41.6215 26.3876 41.6709 26.4268 41.7286C26.4661 41.7863 26.4936 41.8512 26.5077 41.9196C26.5217 41.9881 26.5221 42.0586 26.5089 42.1272L25.9572 45.1234Z" fill="#F8BD31"/>
<path id="Vector_31" d="M22.3947 44.468C22.382 44.5368 22.3559 44.6023 22.3179 44.6609C22.2798 44.7195 22.2305 44.7699 22.1729 44.8093C22.1153 44.8487 22.0505 44.8763 21.9822 44.8905C21.9139 44.9046 21.8434 44.9051 21.775 44.8918C21.7063 44.8798 21.6407 44.8543 21.5819 44.8168C21.5231 44.7792 21.4723 44.7304 21.4325 44.673C21.3927 44.6157 21.3647 44.551 21.35 44.4827C21.3352 44.4144 21.3342 44.3439 21.3468 44.2751L21.8985 41.279C21.9241 41.1397 22.0039 41.0163 22.1203 40.9359C22.2367 40.8556 22.3801 40.8248 22.519 40.8504C22.658 40.8759 22.7811 40.9558 22.8612 41.0723C22.9413 41.1889 22.9719 41.3326 22.9463 41.4719L22.3947 44.468Z" fill="#F8BD31"/>
<path id="Vector_32" d="M33.1287 46.4442C33.1161 46.513 33.09 46.5785 33.0519 46.6371C33.0139 46.6957 32.9646 46.7461 32.907 46.7855C32.8493 46.8249 32.7845 46.8525 32.7162 46.8667C32.6479 46.8808 32.5775 46.8813 32.5091 46.868C32.4383 46.8584 32.3702 46.8344 32.309 46.7976C32.2478 46.7608 32.1946 46.712 32.1528 46.654C32.111 46.596 32.0813 46.5301 32.0657 46.4603C32.05 46.3905 32.0487 46.3182 32.0617 46.2478L32.6133 43.2516C32.626 43.1827 32.6521 43.1169 32.6902 43.058C32.7282 42.9992 32.7775 42.9484 32.8351 42.9086C32.8927 42.8688 32.9576 42.8408 33.026 42.8261C33.0944 42.8114 33.1651 42.8104 33.2339 42.823C33.3728 42.8486 33.4959 42.9284 33.576 43.045C33.6561 43.1616 33.6868 43.3053 33.6611 43.4445L33.1287 46.4442Z" fill="#F8BD31"/>
<path id="Vector_33" d="M40.4582 47.7933C40.4456 47.8621 40.4195 47.9276 40.3814 47.9862C40.3434 48.0448 40.2941 48.0952 40.2365 48.1346C40.1789 48.174 40.114 48.2016 40.0457 48.2158C39.9774 48.2299 39.907 48.2304 39.8386 48.2171C39.7009 48.1918 39.5789 48.1127 39.4996 47.9972C39.4202 47.8817 39.3898 47.7393 39.4152 47.6013L39.9668 44.6051C39.9789 44.5363 40.0044 44.4705 40.0419 44.4116C40.0794 44.3527 40.1282 44.3018 40.1855 44.2618C40.2427 44.2219 40.3073 44.1937 40.3755 44.1789C40.4436 44.1641 40.514 44.163 40.5826 44.1757C40.6514 44.1883 40.717 44.2144 40.7758 44.2525C40.8345 44.2906 40.8851 44.3399 40.9248 44.3976C40.9645 44.4554 40.9924 44.5203 41.007 44.5889C41.0216 44.6574 41.0226 44.7282 41.0099 44.7972L40.4582 47.7933Z" fill="#F8BD31"/>
<path id="Vector_34" d="M36.8918 47.1371C36.8664 47.2751 36.7874 47.3973 36.6721 47.477C36.5568 47.5566 36.4146 47.5871 36.2769 47.5617C36.2082 47.5498 36.1426 47.5242 36.0838 47.4867C36.0251 47.4491 35.9743 47.4003 35.9345 47.3429C35.8947 47.2856 35.8666 47.2209 35.8519 47.1526C35.8372 47.0843 35.8361 47.0138 35.8488 46.9451L36.4004 43.9489C36.426 43.8096 36.5058 43.6862 36.6222 43.6059C36.7386 43.5255 36.882 43.4947 37.021 43.5203C37.0896 43.5329 37.155 43.559 37.2134 43.5971C37.2718 43.6352 37.3221 43.6845 37.3614 43.7423C37.4007 43.8 37.4282 43.8649 37.4422 43.9333C37.4563 44.0017 37.4567 44.0723 37.4434 44.1409L36.8918 47.1371Z" fill="#F8BD31"/>
<path id="Vector_35" d="M15.6338 35.603C15.7728 35.6286 15.8958 35.7085 15.976 35.825C16.0561 35.9416 16.0867 36.0853 16.0611 36.2245C16.0354 36.3638 15.9556 36.4872 15.8393 36.5675C15.7229 36.6479 15.5794 36.6787 15.4405 36.6531L12.4556 36.1036C12.3166 36.078 12.1936 35.9982 12.1134 35.8816C12.0333 35.765 12.0027 35.6213 12.0283 35.4821C12.054 35.3428 12.1338 35.2194 12.2501 35.1391C12.3665 35.0587 12.51 35.0279 12.6489 35.0535L15.6338 35.603Z" fill="#F8BD31"/>
<path id="Vector_36" d="M17.6465 24.6694C17.7855 24.695 17.9085 24.7749 17.9887 24.8914C18.0688 25.008 18.0994 25.1517 18.0738 25.2909C18.0481 25.4302 17.9683 25.5536 17.852 25.634C17.7356 25.7143 17.5921 25.7451 17.4532 25.7195L14.4683 25.17C14.3293 25.1444 14.2063 25.0646 14.1261 24.948C14.046 24.8315 14.0154 24.6877 14.041 24.5485C14.0667 24.4092 14.1464 24.2859 14.2628 24.2055C14.3792 24.1251 14.5227 24.0943 14.6616 24.1199L17.6465 24.6694Z" fill="#F8BD31"/>
<path id="Vector_37" d="M16.9863 28.2573C17.1253 28.2829 17.2484 28.3627 17.3285 28.4793C17.4086 28.5959 17.4392 28.7396 17.4136 28.8788C17.401 28.9476 17.3748 29.0131 17.3368 29.0717C17.2987 29.1302 17.2494 29.1807 17.1918 29.2201C17.1342 29.2595 17.0694 29.2871 17.0011 29.3012C16.9328 29.3154 16.8624 29.3159 16.7939 29.3026L13.809 28.7531C13.7403 28.7411 13.6747 28.7156 13.6159 28.678C13.5571 28.6405 13.5064 28.5916 13.4666 28.5343C13.4268 28.4769 13.3987 28.4122 13.384 28.3439C13.3693 28.2756 13.3682 28.2051 13.3809 28.1364C13.4065 27.9971 13.4863 27.8737 13.6027 27.7934C13.7191 27.713 13.8625 27.6822 14.0015 27.7078L16.9863 28.2573Z" fill="#F8BD31"/>
<path id="Vector_38" d="M16.3285 31.8313C16.3972 31.8433 16.4628 31.8688 16.5216 31.9064C16.5804 31.9439 16.6311 31.9928 16.6709 32.0501C16.7107 32.1075 16.7388 32.1721 16.7535 32.2404C16.7682 32.3087 16.7693 32.3793 16.7566 32.448C16.7266 32.583 16.6456 32.701 16.5305 32.7774C16.4154 32.8537 16.2753 32.8824 16.1396 32.8573L13.1547 32.3078C13.0158 32.2822 12.8927 32.2024 12.8126 32.0858C12.7324 31.9692 12.7018 31.8255 12.7275 31.6863C12.7401 31.6176 12.7662 31.552 12.8043 31.4934C12.8423 31.4349 12.8916 31.3844 12.9492 31.345C13.0069 31.3056 13.0717 31.278 13.14 31.2639C13.2083 31.2497 13.2787 31.2492 13.3472 31.2625L16.3285 31.8313Z" fill="#F8BD31"/>
<path id="Vector_39" d="M18.3086 21.0757C18.3773 21.0877 18.4429 21.1132 18.5017 21.1508C18.5605 21.1883 18.6112 21.2372 18.651 21.2945C18.6909 21.3519 18.7189 21.4165 18.7336 21.4848C18.7483 21.5531 18.7494 21.6237 18.7367 21.6924C18.7111 21.8316 18.6313 21.955 18.5149 22.0354C18.3986 22.1158 18.2551 22.1466 18.1162 22.121L15.1313 21.5715C14.9923 21.5459 14.8692 21.466 14.7891 21.3495C14.709 21.2329 14.6784 21.0892 14.704 20.9499C14.7167 20.8812 14.7428 20.8157 14.7808 20.7571C14.8189 20.6985 14.8682 20.6481 14.9258 20.6087C14.9834 20.5693 15.0482 20.5417 15.1165 20.5275C15.1848 20.5134 15.2553 20.5129 15.3237 20.5262L18.3086 21.0757Z" fill="#F8BD31"/>
<path id="Vector_40" d="M19.6621 13.7241C19.8011 13.7497 19.9242 13.8296 20.0043 13.9461C20.0844 14.0627 20.115 14.2064 20.0894 14.3456C20.0637 14.4849 19.984 14.6083 19.8676 14.6886C19.7512 14.769 19.6078 14.7998 19.4688 14.7742L16.4839 14.2247C16.345 14.1991 16.2219 14.1193 16.1418 14.0027C16.0616 13.8861 16.031 13.7424 16.0567 13.6032C16.0823 13.4639 16.1621 13.3405 16.2785 13.2602C16.3948 13.1798 16.5383 13.149 16.6772 13.1746L19.6621 13.7241Z" fill="#F8BD31"/>
<path id="Vector_41" d="M19.0039 17.2983C19.1429 17.3239 19.266 17.4038 19.3461 17.5203C19.4262 17.6369 19.4568 17.7806 19.4312 17.9198C19.4185 17.9886 19.3924 18.0541 19.3543 18.1127C19.3163 18.1713 19.267 18.2217 19.2094 18.2611C19.1518 18.3005 19.087 18.3281 19.0187 18.3423C18.9504 18.3564 18.8799 18.3569 18.8115 18.3436L15.8266 17.7941C15.7579 17.7821 15.6923 17.7566 15.6335 17.719C15.5747 17.6815 15.524 17.6326 15.4842 17.5753C15.4443 17.5179 15.4163 17.4533 15.4015 17.385C15.3868 17.3167 15.3858 17.2461 15.3985 17.1774C15.4241 17.0381 15.5039 16.9148 15.6203 16.8344C15.7366 16.754 15.8801 16.7232 16.019 16.7488L19.0039 17.2983Z" fill="#F8BD31"/>
<path id="Vector_42" d="M48.1212 41.5855C48.19 41.5981 48.2556 41.6242 48.3143 41.6623C48.373 41.7004 48.4236 41.7497 48.4633 41.8074C48.503 41.8651 48.5309 41.9301 48.5455 41.9987C48.5601 42.0672 48.5611 42.138 48.5484 42.207C48.5357 42.2759 48.5096 42.3417 48.4715 42.4005C48.4335 42.4594 48.3842 42.5102 48.3266 42.55C48.269 42.5898 48.2041 42.6178 48.1357 42.6325C48.0673 42.6472 47.9966 42.6482 47.9278 42.6356L44.9381 42.0851C44.8695 42.0725 44.8042 42.0464 44.7457 42.0083C44.6873 41.9702 44.637 41.9209 44.5977 41.8632C44.5584 41.8055 44.531 41.7405 44.5169 41.6721C44.5028 41.6037 44.5024 41.5331 44.5157 41.4645C44.5277 41.3957 44.5532 41.3299 44.5907 41.271C44.6283 41.212 44.6771 41.1611 44.7343 41.1212C44.7916 41.0813 44.8562 41.0531 44.9243 41.0383C44.9925 41.0235 45.0629 41.0224 45.1314 41.035L48.1212 41.5855Z" fill="#F8BD31"/>
<path id="Vector_43" d="M50.1348 30.6499C50.2036 30.6626 50.2693 30.6887 50.328 30.7268C50.3867 30.7649 50.4373 30.8142 50.477 30.8719C50.5166 30.9296 50.5446 30.9946 50.5592 31.0631C50.5738 31.1317 50.5748 31.2025 50.5621 31.2714C50.5494 31.3404 50.5233 31.4061 50.4852 31.465C50.4472 31.5239 50.3979 31.5746 50.3403 31.6144C50.2826 31.6542 50.2178 31.6823 50.1494 31.697C50.0809 31.7116 50.0103 31.7127 49.9415 31.7L46.9518 31.1496C46.8832 31.137 46.8178 31.1109 46.7594 31.0728C46.701 31.0347 46.6507 30.9853 46.6114 30.9276C46.5721 30.8699 46.5446 30.805 46.5305 30.7365C46.5165 30.6681 46.516 30.5976 46.5293 30.529C46.5414 30.4601 46.5669 30.3943 46.6044 30.3354C46.6419 30.2765 46.6907 30.2256 46.748 30.1857C46.8052 30.1457 46.8698 30.1176 46.938 30.1028C47.0062 30.088 47.0765 30.0869 47.1451 30.0995L50.1348 30.6499Z" fill="#F8BD31"/>
<path id="Vector_44" d="M49.4737 34.2378C49.5425 34.2505 49.6081 34.2766 49.6668 34.3147C49.7255 34.3528 49.7762 34.4021 49.8158 34.4598C49.8555 34.5175 49.8835 34.5825 49.8981 34.651C49.9127 34.7196 49.9136 34.7903 49.9009 34.8593C49.8883 34.928 49.8622 34.9936 49.8241 35.0521C49.7861 35.1107 49.7368 35.1612 49.6792 35.2006C49.6216 35.24 49.5567 35.2676 49.4884 35.2817C49.4201 35.2959 49.3497 35.2963 49.2813 35.2831L46.2915 34.7327C46.1539 34.7073 46.0319 34.6282 45.9525 34.5127C45.8731 34.3972 45.8428 34.2548 45.8682 34.1169C45.8802 34.048 45.9057 33.9822 45.9433 33.9233C45.9808 33.8644 46.0296 33.8135 46.0869 33.7736C46.1441 33.7336 46.2087 33.7054 46.2769 33.6906C46.345 33.6758 46.4154 33.6747 46.484 33.6874L49.4737 34.2378Z" fill="#F8BD31"/>
<path id="Vector_45" d="M48.8155 37.812C48.8842 37.824 48.9498 37.8495 49.0086 37.8871C49.0673 37.9246 49.1181 37.9735 49.1579 38.0309C49.1977 38.0882 49.2258 38.1529 49.2405 38.2212C49.2552 38.2895 49.2563 38.36 49.2436 38.4287C49.2309 38.4977 49.2048 38.5635 49.1668 38.6223C49.1287 38.6812 49.0794 38.7319 49.0218 38.7717C48.9642 38.8115 48.8993 38.8396 48.8309 38.8543C48.7625 38.869 48.6919 38.87 48.6231 38.8573L45.6333 38.3069C45.5648 38.2943 45.4994 38.2682 45.441 38.2301C45.3825 38.192 45.3322 38.1427 45.2929 38.0849C45.2537 38.0272 45.2262 37.9623 45.2121 37.8939C45.198 37.8254 45.1976 37.7549 45.2109 37.6863C45.2363 37.5483 45.3153 37.426 45.4307 37.3464C45.546 37.2668 45.6881 37.2363 45.8258 37.2616L48.8155 37.812Z" fill="#F8BD31"/>
<path id="Vector_46" d="M50.796 27.0562C50.8647 27.0682 50.9303 27.0937 50.989 27.1312C51.0478 27.1688 51.0986 27.2177 51.1384 27.275C51.1782 27.3323 51.2063 27.397 51.221 27.4653C51.2357 27.5336 51.2367 27.6041 51.2241 27.6729C51.2114 27.7418 51.1853 27.8076 51.1472 27.8665C51.1092 27.9253 51.0599 27.9761 51.0023 28.0159C50.9446 28.0557 50.8798 28.0837 50.8114 28.0984C50.7429 28.1131 50.6723 28.1141 50.6035 28.1015L47.6138 27.5511C47.5452 27.5384 47.4799 27.5123 47.4214 27.4742C47.363 27.4361 47.3127 27.3868 47.2734 27.3291C47.2341 27.2714 47.2066 27.2064 47.1926 27.138C47.1785 27.0696 47.1781 26.999 47.1913 26.9304C47.2168 26.7924 47.2958 26.6702 47.4111 26.5906C47.5264 26.5109 47.6686 26.4804 47.8062 26.5058L50.796 27.0562Z" fill="#F8BD31"/>
<path id="Vector_47" d="M52.1495 19.7065C52.2183 19.7192 52.2839 19.7453 52.3426 19.7834C52.4013 19.8215 52.4519 19.8708 52.4916 19.9285C52.5313 19.9862 52.5592 20.0512 52.5738 20.1198C52.5884 20.1883 52.5894 20.2591 52.5767 20.3281C52.564 20.397 52.5379 20.4628 52.4999 20.5216C52.4618 20.5805 52.4125 20.6313 52.3549 20.6711C52.2973 20.7109 52.2324 20.7389 52.164 20.7536C52.0956 20.7683 52.025 20.7693 51.9562 20.7567L48.9664 20.2062C48.8979 20.1936 48.8325 20.1675 48.7741 20.1294C48.7156 20.0913 48.6653 20.042 48.626 19.9843C48.5868 19.9266 48.5593 19.8616 48.5452 19.7932C48.5311 19.7248 48.5307 19.6542 48.544 19.5856C48.556 19.5168 48.5815 19.451 48.619 19.3921C48.6566 19.3331 48.7054 19.2822 48.7626 19.2423C48.8199 19.2024 48.8845 19.1742 48.9526 19.1594C49.0208 19.1446 49.0912 19.1435 49.1598 19.1561L52.1495 19.7065Z" fill="#F8BD31"/>
<path id="Vector_48" d="M51.4913 23.2808C51.5601 23.2934 51.6257 23.3196 51.6844 23.3576C51.7431 23.3957 51.7937 23.445 51.8334 23.5028C51.8731 23.5605 51.901 23.6255 51.9156 23.694C51.9302 23.7626 51.9312 23.8333 51.9185 23.9023C51.9059 23.971 51.8798 24.0365 51.8417 24.0951C51.8036 24.1537 51.7544 24.2041 51.6968 24.2435C51.6391 24.283 51.5743 24.3105 51.506 24.3247C51.4377 24.3389 51.3673 24.3393 51.2988 24.3261L48.3091 23.7756C48.1714 23.7503 48.0495 23.6712 47.9701 23.5557C47.8907 23.4402 47.8604 23.2978 47.8858 23.1598C47.8978 23.091 47.9233 23.0252 47.9608 22.9663C47.9984 22.9074 48.0472 22.8565 48.1044 22.8165C48.1617 22.7766 48.2263 22.7484 48.2944 22.7336C48.3626 22.7188 48.433 22.7177 48.5016 22.7303L51.4913 23.2808Z" fill="#F8BD31"/>
<path id="Vector (Stroke)_2" fill-rule="evenodd" clip-rule="evenodd" d="M27.3457 14.6371C27.6165 14.687 27.7955 14.9474 27.7456 15.2187L26.5874 21.5097C26.5374 21.7811 26.2774 21.9607 26.0066 21.9108C25.7359 21.861 25.5568 21.6006 25.6068 21.3292L26.765 15.0382C26.815 14.7669 27.075 14.5873 27.3457 14.6371Z" fill="#FFFCFF"/>
<path id="Vector (Stroke)_3" fill-rule="evenodd" clip-rule="evenodd" d="M25.9918 21.992C25.8673 21.9691 25.7387 21.9837 25.6224 22.0339C25.5061 22.0842 25.4072 22.1679 25.3383 22.2744C25.2695 22.381 25.2336 22.5056 25.2354 22.6324C25.2372 22.7593 25.2764 22.8828 25.3482 22.9873C25.42 23.0917 25.5212 23.1725 25.6388 23.2193C25.7565 23.2662 25.8854 23.277 26.0092 23.2504C26.1331 23.2238 26.2463 23.161 26.3346 23.07C26.4229 22.979 26.4823 22.8638 26.5053 22.739C26.5205 22.6561 26.5194 22.571 26.5018 22.4886C26.4843 22.4062 26.4507 22.3281 26.403 22.2588C26.3553 22.1894 26.2945 22.1302 26.2239 22.0844C26.1534 22.0386 26.0745 22.0072 25.9918 21.992ZM25.2281 21.1166C25.5255 20.988 25.8542 20.9507 26.1727 21.0093C26.3841 21.0483 26.5859 21.1285 26.7663 21.2456C26.9467 21.3627 27.1024 21.5142 27.2243 21.6916C27.3462 21.869 27.4321 22.0687 27.477 22.2794C27.5218 22.4901 27.5248 22.7076 27.4858 22.9195C27.4271 23.2386 27.2752 23.5332 27.0494 23.766C26.8236 23.9989 26.534 24.1594 26.2173 24.2273C25.9006 24.2953 25.571 24.2677 25.2701 24.1479C24.9692 24.0281 24.7106 23.8216 24.527 23.5545C24.3433 23.2873 24.2429 22.9716 24.2384 22.6471C24.2339 22.3226 24.3255 22.004 24.5017 21.7316C24.6778 21.4592 24.9306 21.2452 25.2281 21.1166Z" fill="#FFFCFF"/>
<path id="Vector (Stroke)_4" fill-rule="evenodd" clip-rule="evenodd" d="M32.1371 25.8226C32.0125 25.7991 31.8838 25.8132 31.7672 25.8631C31.6506 25.913 31.5513 25.9964 31.482 26.1028C31.4128 26.2092 31.3765 26.3338 31.378 26.4608C31.3794 26.5878 31.4184 26.7115 31.49 26.8162C31.5617 26.9209 31.6628 27.0019 31.7805 27.049C31.8981 27.0961 32.0271 27.1071 32.1511 27.0806C32.2751 27.0541 32.3885 26.9914 32.4769 26.9003C32.5654 26.8093 32.6248 26.694 32.6478 26.569L32.6482 26.5669L32.6482 26.5669C32.6638 26.4845 32.6629 26.3999 32.6457 26.3178C32.6285 26.2358 32.5953 26.158 32.548 26.0889C32.5007 26.0197 32.4402 25.9607 32.3701 25.915C32.2999 25.8694 32.2215 25.8381 32.1392 25.823L32.1371 25.8226L32.1371 25.8226ZM32.3211 24.8405C32.003 24.7807 31.6742 24.8168 31.3763 24.9442C31.0781 25.0718 30.8243 25.2852 30.6471 25.5573C30.4699 25.8294 30.3773 26.148 30.3809 26.4728C30.3846 26.7975 30.4843 27.1138 30.6675 27.3816C30.8508 27.6494 31.1093 27.8566 31.4102 27.977C31.7112 28.0974 32.0411 28.1255 32.3582 28.0578C32.6753 27.9901 32.9652 27.8296 33.1913 27.5968C33.4172 27.3641 33.5692 27.0697 33.6282 26.7506" fill="#FFFCFF"/>
<path id="Vector (Stroke)_5" fill-rule="evenodd" clip-rule="evenodd" d="M33.4193 18.8577C33.2947 18.8343 33.166 18.8484 33.0494 18.8982C32.9328 18.9481 32.8336 19.0315 32.7643 19.138C32.695 19.2443 32.6588 19.3689 32.6602 19.496C32.6616 19.623 32.7006 19.7467 32.7722 19.8514C32.8439 19.9561 32.945 20.0371 33.0627 20.0842C33.1804 20.1312 33.3094 20.1422 33.4334 20.1158C33.5574 20.0893 33.6708 20.0266 33.7592 19.9355C33.8476 19.8444 33.9071 19.7291 33.9301 19.6042L33.9305 19.6021L33.9305 19.6021C33.946 19.5197 33.9451 19.435 33.928 19.353C33.9108 19.271 33.8776 19.1932 33.8302 19.124C33.7829 19.0549 33.7225 18.9958 33.6523 18.9502C33.5822 18.9046 33.5037 18.8733 33.4214 18.8581L33.4193 18.8578L33.4193 18.8577ZM33.6034 17.8757C33.2852 17.8159 32.9564 17.852 32.6585 17.9794C32.3603 18.107 32.1065 18.3203 31.9293 18.5924C31.7521 18.8645 31.6595 19.1832 31.6631 19.5079C31.6668 19.8327 31.7665 20.149 31.9498 20.4168C32.133 20.6846 32.3915 20.8918 32.6925 21.0121C32.9934 21.1325 33.3233 21.1606 33.6404 21.0929C33.9575 21.0253 34.2474 20.8648 34.4736 20.6319C34.6995 20.3993 34.8515 20.1048 34.9104 19.7858" fill="#FFFCFF"/>
<path id="Vector (Stroke)_6" fill-rule="evenodd" clip-rule="evenodd" d="M39.8815 20.0467C39.7569 20.0238 39.6284 20.0384 39.5121 20.0886C39.3957 20.1389 39.2969 20.2226 39.228 20.3291C39.1591 20.4357 39.1233 20.5603 39.125 20.6871C39.1268 20.814 39.1661 20.9375 39.2379 21.042C39.3097 21.1464 39.4108 21.2272 39.5285 21.274C39.6462 21.3208 39.775 21.3317 39.8989 21.3051C40.0228 21.2785 40.136 21.2157 40.2243 21.1247C40.3126 21.0337 40.3719 20.9185 40.3949 20.7936C40.4102 20.7108 40.409 20.6257 40.3915 20.5433C40.3739 20.4609 40.3403 20.3828 40.2927 20.3135C40.245 20.2441 40.1841 20.1849 40.1136 20.1391C40.043 20.0933 39.9641 20.0619 39.8815 20.0467ZM39.1177 19.1713C39.4152 19.0427 39.7439 19.0054 40.0624 19.064C40.2739 19.103 40.4755 19.1833 40.6559 19.3003C40.8364 19.4174 40.992 19.5689 41.1139 19.7463C41.2359 19.9237 41.3217 20.1234 41.3666 20.3341C41.4115 20.5447 41.4145 20.7622 41.3755 20.9742C41.3167 21.2933 41.1649 21.5879 40.9391 21.8207C40.7133 22.0535 40.4237 22.2141 40.107 22.282C39.7903 22.35 39.4606 22.3223 39.1598 22.2026C38.8589 22.0828 38.6003 21.8763 38.4166 21.6092C38.233 21.342 38.1325 21.0263 38.128 20.7018C38.1235 20.3773 38.2152 20.0587 38.3913 19.7863C38.5675 19.5139 38.8203 19.2999 39.1177 19.1713Z" fill="#FFFCFF"/>
<path id="Vector (Stroke)_7" fill-rule="evenodd" clip-rule="evenodd" d="M37.6881 31.9588C37.5636 31.9359 37.435 31.9505 37.3187 32.0007C37.2024 32.051 37.1035 32.1347 37.0346 32.2412C36.9657 32.3478 36.9299 32.4724 36.9317 32.5992C36.9334 32.7261 36.9727 32.8496 37.0445 32.9541C37.1163 33.0585 37.2175 33.1393 37.3351 33.1861C37.4528 33.2329 37.5817 33.2438 37.7055 33.2172C37.8294 33.1906 37.9427 33.1278 38.0309 33.0368C38.1192 32.9458 38.1786 32.8306 38.2016 32.7058C38.2168 32.6229 38.2156 32.5378 38.1981 32.4554C38.1805 32.373 38.147 32.2949 38.0993 32.2256C38.0516 32.1562 37.9908 32.097 37.9202 32.0512C37.8496 32.0054 37.7708 31.974 37.6881 31.9588ZM36.9244 31.0834C37.2218 30.9548 37.5506 30.9175 37.869 30.9761C38.0805 31.0151 38.2822 31.0954 38.4626 31.2124C38.643 31.3295 38.7986 31.481 38.9206 31.6584C39.0425 31.8358 39.1284 32.0355 39.1732 32.2462C39.2181 32.4568 39.2211 32.6744 39.1821 32.8863C39.1234 33.2054 38.9715 33.5 38.7457 33.7328C38.5199 33.9657 38.2303 34.1262 37.9136 34.1941C37.5969 34.2621 37.2673 34.2345 36.9664 34.1147C36.6655 33.9949 36.4069 33.7884 36.2233 33.5213C36.0396 33.2541 35.9392 32.9384 35.9347 32.6139C35.9302 32.2894 36.0218 31.9708 36.198 31.6984C36.3741 31.426 36.6269 31.212 36.9244 31.0834Z" fill="#FFFCFF"/>
<path id="Vector (Stroke)_8" fill-rule="evenodd" clip-rule="evenodd" d="M36.7955 36.8104C36.671 36.7874 36.5424 36.802 36.4261 36.8523C36.3098 36.9026 36.211 36.9863 36.1421 37.0928C36.0732 37.1994 36.0373 37.324 36.0391 37.4508C36.0409 37.5777 36.0801 37.7012 36.152 37.8056C36.2238 37.9101 36.3249 37.9908 36.4426 38.0377C36.5602 38.0845 36.6891 38.0953 36.813 38.0687C36.9368 38.0422 37.0501 37.9794 37.1384 37.8884C37.2266 37.7974 37.286 37.6821 37.309 37.5573C37.3242 37.4745 37.3231 37.3894 37.3055 37.307C37.288 37.2246 37.2544 37.1465 37.2067 37.0772C37.1591 37.0078 37.0982 36.9486 37.0276 36.9028C36.957 36.857 36.8782 36.8256 36.7955 36.8104ZM36.0318 35.935C36.3292 35.8064 36.658 35.7691 36.9764 35.8277C37.1879 35.8666 37.3896 35.9469 37.57 36.064C37.7504 36.181 37.9061 36.3326 38.028 36.51C38.1499 36.6873 38.2358 36.8871 38.2807 37.0977C38.3255 37.3084 38.3286 37.5259 38.2895 37.7378C38.2308 38.057 38.0789 38.3516 37.8531 38.5844C37.6273 38.8172 37.3377 38.9777 37.0211 39.0457C36.7043 39.1137 36.3747 39.086 36.0738 38.9663C35.7729 38.8465 35.5143 38.64 35.3307 38.3728C35.147 38.1057 35.0466 37.7899 35.0421 37.4655C35.0376 37.141 35.1293 36.8224 35.3054 36.55C35.4816 36.2776 35.7343 36.0635 36.0318 35.935Z" fill="#FFFCFF"/>
<path id="Vector (Stroke)_9" fill-rule="evenodd" clip-rule="evenodd" d="M32.0992 35.9451C31.9747 35.9222 31.8461 35.9368 31.7298 35.9871C31.6135 36.0373 31.5147 36.121 31.4458 36.2276C31.3769 36.3341 31.3411 36.4587 31.3428 36.5856C31.3446 36.7125 31.3838 36.836 31.4556 36.9404C31.5275 37.0449 31.6286 37.1256 31.7462 37.1724C31.8639 37.2193 31.9928 37.2301 32.1167 37.2035C32.2405 37.1769 32.3537 37.1142 32.442 37.0231C32.5303 36.9321 32.5897 36.8169 32.6127 36.6921C32.6435 36.5248 32.6067 36.352 32.5104 36.2119C32.4141 36.0718 32.2662 35.9759 32.0992 35.9451ZM31.3355 35.0697C31.6329 34.9412 31.9617 34.9038 32.2801 34.9625C32.7072 35.0411 33.0854 35.2865 33.3317 35.6447C33.5779 36.0029 33.6721 36.4446 33.5933 36.8726C33.5345 37.1918 33.3826 37.4864 33.1568 37.7192C32.931 37.952 32.6415 38.1125 32.3248 38.1805C32.0081 38.2484 31.6784 38.2208 31.3775 38.101C31.0766 37.9812 30.818 37.7747 30.6344 37.5076C30.4507 37.2404 30.3503 36.9247 30.3458 36.6002C30.3413 36.2758 30.4329 35.9572 30.6091 35.6847C30.7852 35.4123 31.038 35.1983 31.3355 35.0697Z" fill="#FFFCFF"/>
<path id="Vector (Stroke)_10" fill-rule="evenodd" clip-rule="evenodd" d="M22.8033 34.2342C22.6788 34.2113 22.5502 34.2259 22.4339 34.2761C22.3176 34.3264 22.2188 34.4101 22.1499 34.5166C22.081 34.6232 22.0452 34.7478 22.0469 34.8746C22.0487 35.0015 22.0879 35.125 22.1598 35.2295C22.2316 35.3339 22.3327 35.4147 22.4504 35.4615C22.568 35.5083 22.6969 35.5192 22.8208 35.4926C22.9446 35.466 23.0579 35.4032 23.1462 35.3122C23.2344 35.2212 23.2938 35.106 23.3168 34.9811C23.3476 34.8138 23.3108 34.6411 23.2145 34.501C23.1182 34.3609 22.9703 34.2649 22.8033 34.2342ZM22.0396 33.3588C22.337 33.2302 22.6658 33.1929 22.9842 33.2515C23.4113 33.3301 23.7896 33.5756 24.0358 33.9338C24.2821 34.292 24.3761 34.7337 24.2974 35.1617C24.2386 35.4808 24.0867 35.7754 23.8609 36.0082C23.6351 36.241 23.3456 36.4016 23.0289 36.4695C22.7122 36.5375 22.3825 36.5099 22.0816 36.3901C21.7808 36.2703 21.5221 36.0638 21.3385 35.7967C21.1548 35.5295 21.0544 35.2138 21.0499 34.8893C21.0454 34.5648 21.137 34.2462 21.3132 33.9738C21.4894 33.7014 21.7421 33.4874 22.0396 33.3588Z" fill="#FFFCFF"/>
<path id="Vector (Stroke)_11" fill-rule="evenodd" clip-rule="evenodd" d="M27.2808 30.0426C27.1566 30.0199 27.0284 30.0346 26.9124 30.0847C26.7961 30.135 26.6973 30.2187 26.6284 30.3252C26.5595 30.4318 26.5237 30.5564 26.5254 30.6832C26.5272 30.8101 26.5665 30.9336 26.6383 31.038C26.7101 31.1425 26.8112 31.2233 26.9289 31.2701C27.0465 31.3169 27.1754 31.3277 27.2993 31.3012C27.4231 31.2746 27.5364 31.2118 27.6247 31.1208C27.7127 31.03 27.772 30.9152 27.7951 30.7908C27.825 30.6233 27.7877 30.4508 27.6914 30.3107C27.5951 30.1707 27.4476 30.0743 27.2808 30.0426ZM26.5181 29.1674C26.8155 29.0388 27.1443 29.0015 27.4628 29.0601L27.4648 29.0605L27.4648 29.0605C27.8905 29.1407 28.2671 29.3862 28.5127 29.7435C28.7583 30.1008 28.853 30.541 28.7763 30.9682L28.7759 30.9703C28.7171 31.2894 28.5652 31.584 28.3395 31.8168C28.1137 32.0496 27.8241 32.2101 27.5074 32.2781C27.1907 32.3461 26.861 32.3184 26.5602 32.1987C26.2593 32.0789 26.0007 31.8724 25.817 31.6053C25.6334 31.3381 25.5329 31.0224 25.5284 30.6979C25.5239 30.3734 25.6156 30.0548 25.7917 29.7824C25.9679 29.51 26.2207 29.2959 26.5181 29.1674Z" fill="#FFFCFF"/>
<path id="Vector (Stroke)_12" fill-rule="evenodd" clip-rule="evenodd" d="M27.7953 30.7902C27.8452 30.5188 28.1052 30.3392 28.376 30.3891L36.5472 31.8935C36.818 31.9433 36.997 32.2037 36.947 32.475C36.8971 32.7464 36.6371 32.926 36.3663 32.8761L28.1951 31.3718C27.9243 31.3219 27.7453 31.0615 27.7953 30.7902Z" fill="#FFFCFF"/>
<path id="Vector (Stroke)_13" fill-rule="evenodd" clip-rule="evenodd" d="M19.7064 29.3019C19.7564 29.0305 20.0164 28.851 20.2871 28.9008L26.1368 29.9778C26.4075 30.0276 26.5866 30.288 26.5366 30.5594C26.4866 30.8307 26.2266 31.0103 25.9559 30.9604L20.1062 29.8835C19.8355 29.8336 19.6565 29.5732 19.7064 29.3019Z" fill="#FFFCFF"/>
<path id="Vector (Stroke)_14" fill-rule="evenodd" clip-rule="evenodd" d="M39.6534 21.3149C39.9241 21.3647 40.1031 21.6251 40.0532 21.8965L38.2742 31.5594C38.2242 31.8307 37.9642 32.0103 37.6935 31.9605C37.4227 31.9106 37.2437 31.6502 37.2936 31.3789L39.0726 21.7159C39.1226 21.4446 39.3826 21.265 39.6534 21.3149Z" fill="#FFFCFF"/>
<path id="Vector (Stroke)_15" fill-rule="evenodd" clip-rule="evenodd" d="M33.1885 20.1254C33.4593 20.1753 33.6383 20.4357 33.5883 20.707L32.7192 25.4277C32.6693 25.699 32.4093 25.8786 32.1385 25.8288C31.8677 25.7789 31.6887 25.5185 31.7387 25.2472L32.6078 20.5265C32.6577 20.2551 32.9177 20.0756 33.1885 20.1254Z" fill="#FFFCFF"/>
<path id="Vector (Stroke)_16" fill-rule="evenodd" clip-rule="evenodd" d="M26.1859 18.1827C26.2359 17.9114 26.4959 17.7318 26.7666 17.7817L32.275 18.7958C32.5458 18.8456 32.7248 19.106 32.6748 19.3774C32.6249 19.6487 32.3649 19.8283 32.0941 19.7785L26.5857 18.7643C26.315 18.7145 26.136 18.4541 26.1859 18.1827Z" fill="#FFFCFF"/>
<path id="Vector (Stroke)_17" fill-rule="evenodd" clip-rule="evenodd" d="M37.9965 27.5597C38.0464 27.2883 38.3064 27.1088 38.5772 27.1586L44.0711 28.1701C44.3419 28.2199 44.5209 28.4803 44.4709 28.7517C44.421 29.023 44.161 29.2026 43.8902 29.1528L38.3963 28.1413C38.1255 28.0914 37.9465 27.8311 37.9965 27.5597Z" fill="#FFFCFF"/>
<path id="Vector (Stroke)_18" fill-rule="evenodd" clip-rule="evenodd" d="M31.8662 37.2133C32.137 37.2632 32.316 37.5235 32.2661 37.7949L31.9175 39.688C31.8676 39.9593 31.6076 40.1389 31.3368 40.0891C31.066 40.0392 30.887 39.7788 30.937 39.5075L31.2855 37.6144C31.3355 37.343 31.5955 37.1635 31.8662 37.2133Z" fill="#FFFCFF"/>
<path id="Vector (Stroke)_19" fill-rule="evenodd" clip-rule="evenodd" d="M32.9668 31.2348C33.2376 31.2846 33.4166 31.545 33.3667 31.8164L32.6794 35.5496C32.6294 35.8209 32.3694 36.0005 32.0986 35.9506C31.8279 35.9008 31.6489 35.6404 31.6988 35.369L32.3861 31.6359C32.4361 31.3645 32.6961 31.1849 32.9668 31.2348Z" fill="#FFFCFF"/>
<path id="Vector (Stroke)_20" fill-rule="evenodd" clip-rule="evenodd" d="M23.3158 34.9855C23.3658 34.7141 23.6258 34.5346 23.8965 34.5844L30.9526 35.8835C31.2234 35.9333 31.4024 36.1937 31.3524 36.4651C31.3025 36.7364 31.0425 36.916 30.7717 36.8661L23.7156 35.5671C23.4448 35.5172 23.2658 35.2568 23.3158 34.9855Z" fill="#FFFCFF"/>
<path id="Vector (Stroke)_21" fill-rule="evenodd" clip-rule="evenodd" d="M23.6709 29.5239C23.9417 29.5737 24.1207 29.8341 24.0708 30.1055L23.3835 33.8386C23.3335 34.11 23.0735 34.2896 22.8027 34.2397C22.532 34.1899 22.353 33.9295 22.4029 33.6581L23.0902 29.9249C23.1402 29.6536 23.4002 29.474 23.6709 29.5239Z" fill="#FFFCFF"/>
<path id="Vector (Stroke)_22" fill-rule="evenodd" clip-rule="evenodd" d="M32.1732 22.8859C32.2232 22.6145 32.4832 22.4349 32.7539 22.4848L39.2188 23.675C39.4896 23.7249 39.6686 23.9852 39.6186 24.2566C39.5687 24.528 39.3087 24.7075 39.0379 24.6577L32.573 23.4675C32.3023 23.4176 32.1233 23.1572 32.1732 22.8859Z" fill="#FFFCFF"/>
<path id="Vector (Stroke)_23" fill-rule="evenodd" clip-rule="evenodd" d="M31.9063 27.0903C32.1771 27.1401 32.3561 27.4005 32.3061 27.6719L31.6028 31.4917C31.5529 31.7631 31.2929 31.9427 31.0221 31.8928C30.7513 31.843 30.5723 31.5826 30.6223 31.3112L31.3256 27.4913C31.3755 27.22 31.6355 27.0404 31.9063 27.0903Z" fill="#FFFCFF"/>
<path id="Vector (Stroke)_24" fill-rule="evenodd" clip-rule="evenodd" d="M21.097 21.7472C21.147 21.4758 21.407 21.2963 21.6778 21.3461L24.8453 21.9293C25.1161 21.9791 25.2951 22.2395 25.2451 22.5109C25.1952 22.7822 24.9352 22.9618 24.6644 22.912L21.4969 22.3288C21.2261 22.2789 21.0471 22.0186 21.097 21.7472Z" fill="#FFFCFF"/>
<path id="Vector (Stroke)_25" fill-rule="evenodd" clip-rule="evenodd" d="M40.3988 20.7999C40.4488 20.5286 40.7088 20.349 40.9795 20.3989L45.3535 21.2041C45.6243 21.254 45.8033 21.5144 45.7534 21.7857C45.7034 22.0571 45.4434 22.2367 45.1726 22.1868L40.7986 21.3815C40.5278 21.3317 40.3488 21.0713 40.3988 20.7999Z" fill="#FFFCFF"/>
<path id="Vector (Stroke)_26" fill-rule="evenodd" clip-rule="evenodd" d="M25.7579 23.2582C26.0286 23.3081 26.2076 23.5685 26.1577 23.8398L24.9737 30.2705C24.9238 30.5419 24.6638 30.7214 24.393 30.6716C24.1222 30.6217 23.9432 30.3614 23.9932 30.09L25.1771 23.6593C25.2271 23.3879 25.4871 23.2084 25.7579 23.2582Z" fill="#FFFCFF"/>
<path id="Vector (Stroke)_27" fill-rule="evenodd" clip-rule="evenodd" d="M33.9737 15.8559C34.2444 15.9057 34.4234 16.1661 34.3735 16.4375L34.001 18.4606C33.9511 18.732 33.6911 18.9115 33.4203 18.8617C33.1495 18.8118 32.9705 18.5515 33.0205 18.2801L33.3929 16.257C33.4429 15.9856 33.7029 15.806 33.9737 15.8559Z" fill="#FFFCFF"/>
<path id="Vector (Stroke)_28" fill-rule="evenodd" clip-rule="evenodd" d="M22.5704 35.5004C22.8411 35.5503 23.0201 35.8107 22.9702 36.082L22.6216 37.9751C22.5717 38.2465 22.3117 38.426 22.0409 38.3762C21.7701 38.3263 21.5911 38.0659 21.6411 37.7946L21.9896 35.9015C22.0396 35.6301 22.2996 35.4506 22.5704 35.5004Z" fill="#FFFCFF"/>
<path id="Vector (Stroke)_29" fill-rule="evenodd" clip-rule="evenodd" d="M40.4385 17.0473C40.7093 17.0971 40.8883 17.3575 40.8383 17.6289L40.4659 19.652C40.4159 19.9234 40.1559 20.103 39.8851 20.0531C39.6144 20.0033 39.4354 19.7429 39.4853 19.4715L39.8578 17.4484C39.9077 17.177 40.1677 16.9974 40.4385 17.0473Z" fill="#FFFCFF"/>
<path id="Vector (Stroke)_30" fill-rule="evenodd" clip-rule="evenodd" d="M37.3129 37.5636C37.3628 37.2922 37.6228 37.1127 37.8936 37.1625L42.2676 37.9678C42.5384 38.0177 42.7174 38.278 42.6674 38.5494C42.6175 38.8208 42.3575 39.0003 42.0867 38.9505L37.7127 38.1452C37.4419 38.0953 37.2629 37.835 37.3129 37.5636Z" fill="#FFFCFF"/>
<path id="Vector (Stroke)_31" fill-rule="evenodd" clip-rule="evenodd" d="M37.461 33.2231C37.7317 33.2729 37.9107 33.5333 37.8608 33.8047L37.3801 36.4155C37.3302 36.6868 37.0702 36.8664 36.7994 36.8166C36.5286 36.7667 36.3496 36.5063 36.3996 36.235L36.8802 33.6241C36.9302 33.3528 37.1902 33.1732 37.461 33.2231Z" fill="#FFFCFF"/>
<path id="Vector (Stroke)_32" fill-rule="evenodd" clip-rule="evenodd" d="M41.8848 27.766C42.1556 27.8159 42.3346 28.0763 42.2846 28.3476L40.4808 38.1454C40.4308 38.4168 40.1708 38.5963 39.9001 38.5465C39.6293 38.4966 39.4503 38.2363 39.5003 37.9649L41.3041 28.1671C41.354 27.8958 41.614 27.7162 41.8848 27.766Z" fill="#FFFCFF"/>
<path id="Vector (Stroke)_33" fill-rule="evenodd" clip-rule="evenodd" d="M24.9037 25.1476C24.9536 24.8762 25.2136 24.6967 25.4844 24.7465L30.9928 25.7606C31.2635 25.8105 31.4425 26.0709 31.3926 26.3422C31.3426 26.6136 31.0826 26.7931 30.8119 26.7433L25.3035 25.7292C25.0327 25.6793 24.8537 25.4189 24.9037 25.1476Z" fill="#FFFCFF"/>
<path id="Vector (Stroke)_34" fill-rule="evenodd" clip-rule="evenodd" d="M36.5664 38.0785C36.8372 38.1284 37.0162 38.3888 36.9663 38.6601L36.6177 40.5532C36.5678 40.8246 36.3078 41.0041 36.037 40.9543C35.7662 40.9044 35.5872 40.6441 35.6372 40.3727L35.9857 38.4796C36.0357 38.2083 36.2957 38.0287 36.5664 38.0785Z" fill="#FFFCFF"/>
</g>
</g>
<g id="Group 1410068489">
<g id="Group 1410068478_2">
<path id="Vector_49" d="M8.88527 48.3841C8.87025 48.3829 8.8559 48.3775 8.84388 48.3684L8.0852 47.795L8.01177 48.7431C8.0106 48.7582 8.00516 48.7725 7.99608 48.7845L7.42272 49.5432L8.37083 49.6167C8.38585 49.6178 8.4002 49.6233 8.41222 49.6323L9.17087 50.2057L9.24432 49.2576C9.24549 49.2426 9.25093 49.2282 9.26001 49.2162L9.83335 48.4575L8.88527 48.3841Z" fill="#F6DFE6"/>
<path id="Vector_50" d="M8.88527 48.3841C8.87025 48.3829 8.8559 48.3775 8.84388 48.3684L8.0852 47.795L8.01177 48.7431C8.0106 48.7582 8.00516 48.7725 7.99608 48.7845L7.42272 49.5432L8.37083 49.6167C8.38585 49.6178 8.4002 49.6233 8.41222 49.6323L9.17087 50.2057L9.24432 49.2576C9.24549 49.2426 9.25093 49.2282 9.26001 49.2162L9.83335 48.4575L8.88527 48.3841Z" fill="white" fill-opacity="0.5"/>
</g>
<g id="Group 1410068479_2">
<path id="Vector_51" d="M5.80901 31.5217C5.79559 31.5207 5.78277 31.5158 5.77204 31.5077L5.0943 30.9955L5.0287 31.8425C5.02766 31.8559 5.0228 31.8687 5.01469 31.8795L4.5025 32.5572L5.34946 32.6228C5.36287 32.6238 5.37569 32.6287 5.38643 32.6368L6.06414 33.149L6.12976 32.302C6.1308 32.2886 6.13566 32.2758 6.14377 32.2651L6.65594 31.5873L5.80901 31.5217Z" fill="#F6DFE6"/>
<path id="Vector_52" d="M5.80901 31.5217C5.79559 31.5207 5.78277 31.5158 5.77204 31.5077L5.0943 30.9955L5.0287 31.8425C5.02766 31.8559 5.0228 31.8687 5.01469 31.8795L4.5025 32.5572L5.34946 32.6228C5.36287 32.6238 5.37569 32.6287 5.38643 32.6368L6.06414 33.149L6.12976 32.302C6.1308 32.2886 6.13566 32.2758 6.14377 32.2651L6.65594 31.5873L5.80901 31.5217Z" fill="white" fill-opacity="0.5"/>
</g>
<g id="Group 1410068481_3">
<path id="Vector_53" d="M55.6597 14.5608C55.6463 14.5598 55.6335 14.5549 55.6228 14.5468L54.945 14.0346L54.8794 14.8816C54.8783 14.895 54.8735 14.9078 54.8654 14.9186L54.3531 15.5963L55.2001 15.662C55.2136 15.663 55.2264 15.6679 55.2371 15.676L55.9149 16.1882L55.9805 15.3412C55.9815 15.3277 55.9864 15.3149 55.9945 15.3042L56.5067 14.6264L55.6597 14.5608Z" fill="#F6DFE6"/>
<path id="Vector_54" d="M55.6597 14.5608C55.6463 14.5598 55.6335 14.5549 55.6228 14.5468L54.945 14.0346L54.8794 14.8816C54.8783 14.895 54.8735 14.9078 54.8654 14.9186L54.3531 15.5963L55.2001 15.662C55.2136 15.663 55.2264 15.6679 55.2371 15.676L55.9149 16.1882L55.9805 15.3412C55.9815 15.3277 55.9864 15.3149 55.9945 15.3042L56.5067 14.6264L55.6597 14.5608Z" fill="white" fill-opacity="0.5"/>
</g>
<g id="Group 1410068482">
<path id="Vector_55" d="M44.0336 3.59126C44.028 3.59083 44.0228 3.58882 44.0183 3.58547L43.7385 3.374L43.7114 3.72369C43.711 3.72923 43.709 3.73452 43.7056 3.73895L43.4942 4.01877L43.8438 4.04586C43.8494 4.04629 43.8547 4.0483 43.8591 4.05165L44.1389 4.26312L44.166 3.91343C44.1664 3.90789 44.1685 3.90259 44.1718 3.89816L44.3833 3.61834L44.0336 3.59126Z" fill="#F6DFE6"/>
<path id="Vector_56" d="M44.0336 3.59126C44.028 3.59083 44.0228 3.58882 44.0183 3.58547L43.7385 3.374L43.7114 3.72369C43.711 3.72923 43.709 3.73452 43.7056 3.73895L43.4942 4.01877L43.8438 4.04586C43.8494 4.04629 43.8547 4.0483 43.8591 4.05165L44.1389 4.26312L44.166 3.91343C44.1664 3.90789 44.1685 3.90259 44.1718 3.89816L44.3833 3.61834L44.0336 3.59126Z" fill="white" fill-opacity="0.5"/>
</g>
<path id="Subtract" fill-rule="evenodd" clip-rule="evenodd" d="M3.52435 43.4285C2.73283 41.7638 3.14406 39.6141 4.61711 37.1951C6.08611 34.7827 8.58629 32.1469 11.8766 29.5468L11.6283 29.2347C8.31741 31.8511 5.77906 34.5202 4.27728 36.9864C2.77956 39.446 2.28774 41.7486 3.16591 43.5957C3.84682 45.0297 5.26932 46.0081 7.20829 46.5704C9.1478 47.133 11.6285 47.2875 14.4747 47.057C20.1687 46.596 27.37 44.5905 34.7326 41.1548C42.0951 37.7192 48.242 33.4977 52.2273 29.443C54.2194 27.4162 55.6792 25.4232 56.4768 23.5833C57.2742 21.7438 57.4189 20.0334 56.7369 18.5986C56.4051 17.9009 55.7853 17.326 54.9808 16.8603C54.746 16.7244 54.4944 16.5971 54.228 16.4783L54.1895 16.8951C54.3992 16.9924 54.5978 17.0951 54.7843 17.203C55.5466 17.6443 56.0934 18.1665 56.3785 18.7659C56.9931 20.0589 56.8839 21.642 56.1121 23.4226C55.3405 25.2026 53.9156 27.1562 51.9426 29.1636C47.9978 33.1771 41.8929 37.374 34.5615 40.7951C27.2301 44.2162 20.0749 46.2052 14.4386 46.6616C11.6197 46.8899 9.19182 46.7338 7.31547 46.1895C5.43856 45.6452 4.13783 44.7205 3.52435 43.4285Z" fill="url(#paint2_linear_5407_195009)"/>
</g>
</g>
</g>
</g>
<defs>
<filter id="filter0_i_5407_195009" x="9" y="17" width="128" height="66" filterUnits="userSpaceOnUse" color-interpolation-filters="sRGB">
<feFlood flood-opacity="0" result="BackgroundImageFix"/>
<feBlend mode="normal" in="SourceGraphic" in2="BackgroundImageFix" result="shape"/>
<feColorMatrix in="SourceAlpha" type="matrix" values="0 0 0 0 0 0 0 0 0 0 0 0 0 0 0 0 0 0 127 0" result="hardAlpha"/>
<feOffset dy="4"/>
<feGaussianBlur stdDeviation="2"/>
<feComposite in2="hardAlpha" operator="arithmetic" k2="-1" k3="1"/>
<feColorMatrix type="matrix" values="0 0 0 0 0 0 0 0 0 0 0 0 0 0 0 0 0 0 0.25 0"/>
<feBlend mode="normal" in2="shape" result="effect1_innerShadow_5407_195009"/>
</filter>
<filter id="filter1_f_5407_195009" x="46.2617" y="52.3066" width="80.6924" height="23.6914" filterUnits="userSpaceOnUse" color-interpolation-filters="sRGB">
<feFlood flood-opacity="0" result="BackgroundImageFix"/>
<feBlend mode="normal" in="SourceGraphic" in2="BackgroundImageFix" result="shape"/>
<feGaussianBlur stdDeviation="2" result="effect1_foregroundBlur_5407_195009"/>
</filter>
<linearGradient id="paint0_linear_5407_195009" x1="82.6102" y1="42.1342" x2="77.4858" y2="91.6483" gradientUnits="userSpaceOnUse">
<stop stop-color="#04C200"/>
<stop offset="1" stop-color="#D6F31B"/>
</linearGradient>
<linearGradient id="paint1_linear_5407_195009" x1="91.0355" y1="44.6905" x2="73.9146" y2="104.786" gradientUnits="userSpaceOnUse">
<stop stop-color="#03A100"/>
<stop offset="0.98" stop-color="#C0DE00"/>
</linearGradient>
<linearGradient id="paint2_linear_5407_195009" x1="36.9256" y1="61.0896" x2="16.2109" y2="20.696" gradientUnits="userSpaceOnUse">
<stop stop-color="#F4F5F4"/>
<stop offset="1" stop-color="#C9C9C9" stop-opacity="0"/>
</linearGradient>
<clipPath id="clip0_5407_195009">
<rect width="140" height="90" fill="white"/>
</clipPath>
<clipPath id="clip1_5407_195009">
<rect width="46" height="48" fill="white" transform="translate(13.6914 -1) rotate(10.4316)"/>
</clipPath>
</defs>
</svg>
