<svg width="35" height="30" viewBox="0 0 35 30" fill="none" xmlns="http://www.w3.org/2000/svg">
<g id="Ranking" clip-path="url(#clip0_5870_131565)">
<path id="Vector" d="M24.2193 24.4564C23.6914 23.7386 22.7835 23.433 21.9811 23.1558C21.4181 22.9569 20.8339 22.8147 20.2427 22.7081C19.2574 22.5375 18.258 22.4807 17.2656 22.5233C12.8667 22.7081 11.8673 23.2482 10.7693 24.0087C10.4878 24.2077 10.2555 24.5133 10.0655 24.8615C9.70657 25.5295 9.52358 26.3468 9.43912 26.7946C9.39689 27.0078 9.38281 27.1357 9.38281 27.1357C9.38281 27.5337 9.59396 27.9032 9.9881 28.2444C10.7693 28.9266 12.2544 29.4739 14.1054 29.7652C15.0626 29.9145 16.1183 29.9998 17.2304 29.9998C19.2011 29.9998 21.0099 29.7368 22.3894 29.2962C24.0433 28.7703 25.085 27.9956 25.085 27.1357C25.1131 26.3326 24.8527 25.4798 24.4375 24.7833C24.3671 24.6696 24.2967 24.563 24.2193 24.4564Z" fill="url(#paint0_linear_5870_131565)"/>
<path id="Vector_2" d="M10.7507 24.0232C10.4692 24.2222 10.2369 24.5278 10.0469 24.876C10.1313 25.1603 10.3143 25.4375 10.5888 25.6862C11.3419 26.3827 12.7777 26.937 14.5583 27.2213C15.3889 27.3492 16.2827 27.4203 17.2258 27.4203C21.0194 27.4203 24.1303 26.2548 24.4259 24.7836C24.3625 24.6699 24.2851 24.5562 24.2006 24.4709C23.6728 23.7531 22.7649 23.4475 21.9625 23.1704C20.4493 22.6516 18.8376 22.4739 17.2469 22.5379C12.8481 22.7226 11.8486 23.2628 10.7507 24.0232Z" fill="url(#paint1_linear_5870_131565)"/>
<g id="Group" opacity="0.34">
<path id="Vector_3" d="M24.4202 24.7833C24.3498 24.6695 24.2794 24.5629 24.202 24.4563C23.6741 23.7385 22.7662 23.433 21.9638 23.1557C21.4008 22.9567 20.8166 22.8146 20.2254 22.708L19.0078 26.1264L21.0911 26.965L22.3861 29.2962C24.0401 28.7702 25.0818 27.9955 25.0818 27.1356C25.1099 26.3325 24.8495 25.4797 24.4202 24.7833Z" fill="url(#paint2_radial_5870_131565)"/>
</g>
<g id="Group_2" opacity="0.2">
<path id="Vector_4" d="M17.2986 22.7295C14.1306 22.7295 11.5625 23.5473 11.5625 24.556C11.5625 25.5647 14.1306 26.3824 17.2986 26.3824C20.4666 26.3824 23.0347 25.5647 23.0347 24.556C23.0347 23.5473 20.4666 22.7295 17.2986 22.7295Z" fill="url(#paint3_radial_5870_131565)"/>
</g>
<path id="Vector_5" d="M22.5905 25.0248C22.6117 24.9963 22.6257 24.9679 22.6328 24.9324C22.8439 24.1222 21.8867 23.2125 21.4433 22.6369C21.1477 22.2318 20.8451 22.3171 20.3876 22.3171C18.3113 22.31 16.228 22.3171 14.1518 22.3171C13.7717 22.3171 13.1031 23.0277 12.8427 23.2765C12.4485 23.6603 12.1107 24.1151 11.8573 24.6055C11.8362 24.6481 11.8221 24.6836 11.8151 24.7263C11.7377 25.3019 13.4198 25.7213 13.7717 25.8136C14.1729 25.9202 14.5811 25.9984 14.9963 26.0553C15.7565 26.1619 16.5236 26.2045 17.2908 26.2045C17.8609 26.2045 18.431 26.1832 19.0011 26.1263C19.8597 26.0482 20.7043 25.8847 21.5067 25.6004C21.8163 25.4938 22.3935 25.3162 22.5905 25.0248Z" fill="url(#paint4_linear_5870_131565)"/>
<path id="Vector_6" d="M9.36719 27.1361C9.36719 27.1361 9.3883 27.0081 9.42349 26.7949C9.39534 26.9086 9.37423 27.0224 9.36719 27.1361Z" stroke="#FDE56A" stroke-width="0.25" stroke-linecap="round" stroke-linejoin="round"/>
<path id="Vector_7" d="M3.62455 14.9407C3.62455 14.9407 2.68144 17.9043 7.59412 17.9967C6.60874 16.3194 6.03865 14.3579 6.03865 12.2685V9.63897C5.32076 9.46841 2.94185 8.36684 1.02043 7.94043C1.02043 7.94043 0.372919 8.50187 0.105468 9.29784C-0.154944 10.108 -0.0282575 11.167 1.59052 12.1406C1.59052 12.1406 0.246232 14.6351 3.62455 14.9407Z" fill="url(#paint5_linear_5870_131565)"/>
<path id="Vector_8" d="M3.62158 14.9406C3.62158 14.9406 2.67847 17.9042 7.59115 17.9966C6.60577 16.3193 6.03568 14.3579 6.03568 12.2684V10.9181C5.01514 10.513 0.897808 8.87134 0.63036 8.9282C0.433291 8.97084 0.229184 9.16983 0.109535 9.30486C-0.157916 10.1079 -0.0312287 11.1669 1.58755 12.1405C1.58755 12.1405 0.24326 14.635 3.62158 14.9406Z" fill="url(#paint6_linear_5870_131565)"/>
<path id="Vector_9" d="M0.677898 9.31219C0.389332 9.632 0.565287 11.5437 2.6697 11.9062C4.78115 12.2687 5.26679 11.9062 5.29494 11.7925C5.33013 11.6717 5.30198 11.1813 5.30198 11.1813C5.30198 11.1813 0.966461 8.99238 0.677898 9.31219Z" fill="url(#paint7_linear_5870_131565)"/>
<g id="Group_3" opacity="0.61">
<path id="Vector_10" d="M13.7873 25.8068C14.1885 25.9134 14.5967 25.9916 15.012 26.0484C15.202 25.9063 15.3991 25.6576 15.5469 25.2454C15.8495 24.4068 16.673 23.8737 17.5528 23.9519C18.0947 23.9946 18.6014 24.158 18.8055 24.5489C19.0448 25.025 19.0589 25.622 19.0097 26.1266C19.8683 26.0484 20.7129 25.885 21.5152 25.6007C21.8249 25.4941 22.4021 25.3164 22.5991 25.025C22.6202 24.9966 22.6343 24.9611 22.6414 24.9256C22.8384 24.1225 21.8812 23.2128 21.4589 22.63C21.1633 22.2249 20.8607 22.3102 20.4032 22.3102C18.327 22.3031 16.2437 22.3102 14.1674 22.3102C13.7873 22.3102 13.1187 23.0209 12.8583 23.2696C12.4642 23.6534 12.1263 24.1083 11.8729 24.5986C11.8518 24.6413 11.8378 24.6768 11.8307 24.7195C11.7533 25.2951 13.4354 25.7144 13.7873 25.8068Z" fill="url(#paint8_linear_5870_131565)"/>
</g>
<path id="Vector_11" d="M1.77678 12.4317C1.57268 12.7515 1.60787 14.0024 3.09996 14.3719C4.59909 14.7344 5.27476 14.0805 5.29587 13.9668C5.32402 13.846 5.30291 13.3485 5.30291 13.3485C5.30291 13.3485 1.98089 12.1119 1.77678 12.4317Z" fill="url(#paint9_linear_5870_131565)"/>
<path id="Vector_12" d="M4.05831 15.4095C3.8542 15.7293 3.87531 16.3618 4.78324 16.7243C5.37444 16.9588 6.00788 16.5253 6.02899 16.4045C6.05011 16.2837 6.02899 15.7933 6.02899 15.7933C6.02899 15.7933 4.26241 15.0897 4.05831 15.4095Z" fill="url(#paint10_linear_5870_131565)"/>
<path id="Vector_13" d="M5.96094 8.59375V12.2609C5.96094 18.4723 10.951 23.5111 17.1023 23.5111C21.1845 23.5111 24.7458 21.2937 26.6883 17.989C27.6737 16.3118 28.2438 14.3503 28.2438 12.2609V8.59375H5.96094Z" fill="url(#paint11_linear_5870_131565)"/>
<g id="Group_4" opacity="0.34">
<path id="Vector_14" d="M6.86719 8.59375V13.5615C6.86719 19.0337 11.2379 23.4755 16.6503 23.5111C16.6714 23.5111 16.6995 23.5111 16.7207 23.5111H17.0796C22.5201 23.5111 26.9331 19.0551 26.9331 13.5615V8.59375H6.86719Z" fill="url(#paint12_radial_5870_131565)"/>
</g>
<g id="Group_5" opacity="0.21">
<path id="Vector_15" d="M6.86719 8.59375V13.5615C6.86719 18.7495 10.7945 23.0065 15.8127 23.4684C16.0872 23.4969 16.3688 23.5111 16.6503 23.5111C21.8867 23.4755 26.1166 19.183 26.1166 13.8884V8.59375H6.86719Z" fill="url(#paint13_radial_5870_131565)"/>
</g>
<g id="Group_6" opacity="0.61">
<path id="Vector_16" d="M6.86719 8.59375V13.5615C6.86719 18.7495 10.7945 23.0065 15.8127 23.4684C19.5007 23.0705 22.3794 19.915 22.3794 16.0773V8.59375H6.86719Z" fill="url(#paint14_linear_5870_131565)"/>
</g>
<g id="Group_7" opacity="0.52">
<path id="Vector_17" d="M11.7366 9.00661C9.97707 9.33353 8.96357 11.8707 9.47736 14.6708C9.99115 17.4709 11.8352 19.475 13.5947 19.1481C15.3542 18.8212 16.3677 16.2841 15.8539 13.4839C15.3402 10.6838 13.5032 8.6797 11.7366 9.00661Z" fill="url(#paint15_radial_5870_131565)"/>
</g>
<g id="Group_8" opacity="0.31">
<path id="Vector_18" d="M11.9483 10.7101C11.2106 10.8476 10.7864 11.9104 11.001 13.0838C11.2156 14.2572 11.9876 15.0969 12.7254 14.9593C13.4631 14.8217 13.8873 13.7591 13.6727 12.5856C13.4581 11.4122 12.686 10.5725 11.9483 10.7101Z" fill="white"/>
</g>
<path id="Vector_19" d="M17.1023 4.40137C10.9491 4.40137 5.96094 6.42821 5.96094 8.92841C5.96094 11.4287 10.9491 13.4555 17.1023 13.4555C23.2556 13.4555 28.2438 11.4287 28.2438 8.92841C28.2438 6.42821 23.2556 4.40137 17.1023 4.40137Z" fill="url(#paint16_linear_5870_131565)"/>
<path id="Vector_20" d="M17.0086 4.5498C10.8554 4.5498 5.86719 6.57664 5.86719 9.07685C5.86719 11.5771 10.8554 13.6039 17.0086 13.6039C23.1619 13.6039 28.15 11.5771 28.15 9.07685C28.15 6.57664 23.1619 4.5498 17.0086 4.5498Z" fill="url(#paint17_linear_5870_131565)"/>
<path id="Vector_21" d="M17.1023 4.40137C10.9491 4.40137 5.96094 6.42821 5.96094 8.92841C5.96094 11.4287 10.9491 13.4555 17.1023 13.4555C23.2556 13.4555 28.2438 11.4287 28.2438 8.92841C28.2438 6.42821 23.2556 4.40137 17.1023 4.40137Z" fill="url(#paint18_linear_5870_131565)"/>
<g id="Group_9" opacity="0.48">
<path id="Vector_22" d="M17.1011 4.40137C23.1046 4.47244 27.9117 6.47657 27.9117 8.92841C27.9117 11.4229 22.9428 13.4484 16.8125 13.4555C16.911 13.4555 17.0025 13.4555 17.1011 13.4555C23.2524 13.4555 28.2425 11.43 28.2425 8.92841C28.2425 6.42683 23.2524 4.40137 17.1011 4.40137Z" fill="url(#paint19_linear_5870_131565)"/>
</g>
<path id="Vector_23" d="M17.0923 5.53125C16.0717 5.53125 15.0864 5.58811 14.1714 5.70182C10.7368 6.12112 8.27344 7.25819 8.27344 8.59428C8.27344 10.2857 12.2289 11.6573 17.0993 11.6573C17.4512 11.6573 17.7891 11.6502 18.1269 11.636C22.5187 11.4583 25.9252 10.1649 25.9252 8.59428C25.9252 6.90288 21.9697 5.53836 17.0923 5.53125Z" fill="url(#paint20_radial_5870_131565)"/>
<path id="Vector_24" d="M34.1761 9.29784C33.9087 8.50187 33.2612 7.94043 33.2612 7.94043C31.7831 8.18917 28.9608 9.46841 28.2429 9.63897V12.2685C28.2429 14.3579 27.6728 16.3194 26.6875 17.9967C31.6001 17.9043 30.657 14.9407 30.657 14.9407C34.0354 14.6351 32.6911 12.1406 32.6911 12.1406C34.3098 11.167 34.4436 10.108 34.1761 9.29784Z" fill="url(#paint21_linear_5870_131565)"/>
<path id="Vector_25" d="M34.1691 9.30486C34.0494 9.16983 33.8453 8.97084 33.6483 8.9282C33.3808 8.87134 29.2635 10.513 28.2429 10.9181V12.2684C28.2429 14.3579 27.6728 16.3193 26.6875 17.9966C31.6001 17.9042 30.657 14.9406 30.657 14.9406C34.0354 14.635 32.6911 12.1405 32.6911 12.1405C34.3098 11.1669 34.4436 10.1079 34.1691 9.30486Z" fill="url(#paint22_linear_5870_131565)"/>
<path id="Vector_26" d="M28.9864 11.7925C29.0146 11.9062 29.5002 12.2687 31.6117 11.9062C33.7161 11.5437 33.8921 9.632 33.6035 9.31219C33.3149 8.99238 28.9794 11.1813 28.9794 11.1813C28.9794 11.1813 28.9513 11.6717 28.9864 11.7925Z" fill="url(#paint23_linear_5870_131565)"/>
<path id="Vector_27" d="M28.9804 13.9668C29.0015 14.0805 29.6772 14.7344 31.1763 14.3719C32.6684 14.0024 32.7036 12.7515 32.4995 12.4317C32.2954 12.1119 28.9733 13.3485 28.9733 13.3485C28.9733 13.3485 28.9593 13.846 28.9804 13.9668Z" fill="url(#paint24_linear_5870_131565)"/>
<path id="Vector_28" d="M28.2516 16.4045C28.2727 16.5253 28.9061 16.9588 29.4973 16.7243C30.4053 16.3618 30.4264 15.7293 30.2223 15.4095C30.0182 15.0897 28.2516 15.7933 28.2516 15.7933C28.2516 15.7933 28.2305 16.2837 28.2516 16.4045Z" fill="url(#paint25_linear_5870_131565)"/>
<g id="Group_10" opacity="0.56">
<path id="Vector_29" d="M14.1714 5.70117C10.7368 6.12048 8.27344 7.25754 8.27344 8.59363C8.27344 10.2851 12.2289 11.6567 17.0993 11.6567C17.4512 11.6567 17.7891 11.6496 18.1269 11.6354C13.2072 11.344 14.2559 6.94488 14.1714 5.70117Z" fill="url(#paint26_radial_5870_131565)"/>
</g>
<g id="Group_11" opacity="0.21">
<path id="Vector_30" d="M14.5595 27.2138C12.7788 26.9295 11.3431 26.3752 10.5899 25.6787C10.2874 26.2402 9.84389 27.2707 9.97762 28.2443C10.7589 28.9266 12.244 29.4738 14.095 29.7652C14.3413 29.3103 14.7988 28.2585 14.5595 27.2138Z" fill="url(#paint27_radial_5870_131565)"/>
</g>
<g id="Group_12" style="mix-blend-mode:screen" opacity="0.74">
<g id="Group_13" style="mix-blend-mode:screen">
<path id="Vector_31" d="M12.2235 28.0528C13.8352 28.6143 15.3344 28.4792 15.5807 27.7543C15.827 27.0365 14.722 25.9989 13.1103 25.4375C11.4986 24.8832 9.99943 25.0111 9.7531 25.736C9.50676 26.4538 10.6118 27.4914 12.2235 28.0528Z" fill="url(#paint28_radial_5870_131565)"/>
</g>
<g id="Group_14" style="mix-blend-mode:screen">
<path id="Vector_32" d="M12.5107 27.193C14.1295 27.7544 15.509 28.0103 15.5934 27.7615C15.6779 27.5128 14.4321 26.859 12.8133 26.2975C11.2016 25.7361 9.81507 25.4802 9.73062 25.729C9.64616 25.9777 10.8919 26.6315 12.5107 27.193Z" fill="url(#paint29_radial_5870_131565)"/>
</g>
</g>
</g>
<defs>
<linearGradient id="paint0_linear_5870_131565" x1="9.3739" y1="26.256" x2="25.086" y2="26.256" gradientUnits="userSpaceOnUse">
<stop offset="0.0135135" stop-color="#FAE2B5"/>
<stop offset="0.0963969" stop-color="#FAD363"/>
<stop offset="0.3108" stop-color="#FFE255"/>
<stop offset="0.473" stop-color="#FADD9A"/>
<stop offset="0.5649" stop-color="#FDDE59"/>
<stop offset="1" stop-color="#FC4E38"/>
</linearGradient>
<linearGradient id="paint1_linear_5870_131565" x1="10.0557" y1="24.9616" x2="24.4281" y2="24.9616" gradientUnits="userSpaceOnUse">
<stop offset="0.0135135" stop-color="#FAE2A1"/>
<stop offset="0.1784" stop-color="#FAE263"/>
<stop offset="1" stop-color="#FC8338"/>
</linearGradient>
<radialGradient id="paint2_radial_5870_131565" cx="0" cy="0" r="1" gradientUnits="userSpaceOnUse" gradientTransform="translate(21.1388 29.5579) rotate(90) scale(7.27797 7.20762)">
<stop stop-color="white"/>
<stop offset="0.0849297" stop-color="#FBF6F6"/>
<stop offset="0.2265" stop-color="#F2DCDE"/>
<stop offset="0.4072" stop-color="#E2B2B6"/>
<stop offset="0.6201" stop-color="#CD787F"/>
<stop offset="0.8571" stop-color="#B22F39"/>
<stop offset="1" stop-color="#A0000C"/>
</radialGradient>
<radialGradient id="paint3_radial_5870_131565" cx="0" cy="0" r="1" gradientUnits="userSpaceOnUse" gradientTransform="translate(17.2997 24.5529) rotate(90) scale(5.49778 5.44464)">
<stop stop-color="white"/>
<stop offset="0.0849297" stop-color="#FBF6F6"/>
<stop offset="0.2265" stop-color="#F2DCDE"/>
<stop offset="0.4072" stop-color="#E2B2B6"/>
<stop offset="0.6201" stop-color="#CD787F"/>
<stop offset="0.8571" stop-color="#B22F39"/>
<stop offset="1" stop-color="#A0000C"/>
</radialGradient>
<linearGradient id="paint4_linear_5870_131565" x1="11.8205" y1="24.258" x2="22.6643" y2="24.258" gradientUnits="userSpaceOnUse">
<stop offset="0.0135135" stop-color="#FAE2B5"/>
<stop offset="0.2203" stop-color="#FAD363"/>
<stop offset="0.3641" stop-color="#FFE255"/>
<stop offset="0.473" stop-color="#FADD9A"/>
<stop offset="0.5559" stop-color="#FDDE59"/>
<stop offset="1" stop-color="#FC4E38"/>
</linearGradient>
<linearGradient id="paint5_linear_5870_131565" x1="6.41996" y1="14.2995" x2="-0.907772" y2="8.94316" gradientUnits="userSpaceOnUse">
<stop stop-color="#CE1838"/>
<stop offset="0.064325" stop-color="#D53539"/>
<stop offset="0.1731" stop-color="#E0603B"/>
<stop offset="0.2873" stop-color="#EA853C"/>
<stop offset="0.406" stop-color="#F2A33D"/>
<stop offset="0.5306" stop-color="#F7BB3E"/>
<stop offset="0.6634" stop-color="#FCCB3F"/>
<stop offset="0.8105" stop-color="#FED53F"/>
<stop offset="1" stop-color="#FFD83F"/>
</linearGradient>
<linearGradient id="paint6_linear_5870_131565" x1="8.57206" y1="14.8403" x2="-1.06965" y2="12.2062" gradientUnits="userSpaceOnUse">
<stop stop-color="#CE1838"/>
<stop offset="1" stop-color="#FFBF3F"/>
</linearGradient>
<linearGradient id="paint7_linear_5870_131565" x1="5.31684" y1="10.6722" x2="-0.096854" y2="10.6722" gradientUnits="userSpaceOnUse">
<stop stop-color="#E65E0E"/>
<stop offset="1" stop-color="#FAF3A6"/>
</linearGradient>
<linearGradient id="paint8_linear_5870_131565" x1="12.6178" y1="22.1851" x2="21.7395" y2="25.7985" gradientUnits="userSpaceOnUse">
<stop offset="0.0135135" stop-color="#FAE2FD"/>
<stop offset="0.0341218" stop-color="#FAE0D7"/>
<stop offset="0.0607406" stop-color="#FADEAE"/>
<stop offset="0.0889409" stop-color="#FADD8B"/>
<stop offset="0.1185" stop-color="#FADB6E"/>
<stop offset="0.1499" stop-color="#FADA57"/>
<stop offset="0.1839" stop-color="#FADA47"/>
<stop offset="0.2225" stop-color="#FAD93E"/>
<stop offset="0.2756" stop-color="#FAD93B"/>
<stop offset="0.3805" stop-color="#F8D23B"/>
<stop offset="0.5335" stop-color="#F2BE3A"/>
<stop offset="0.716" stop-color="#E89F3A"/>
<stop offset="0.9196" stop-color="#DB7238"/>
<stop offset="1" stop-color="#D55F38"/>
</linearGradient>
<linearGradient id="paint9_linear_5870_131565" x1="5.74395" y1="13.4289" x2="-0.19145" y2="13.4289" gradientUnits="userSpaceOnUse">
<stop stop-color="#E65E0E"/>
<stop offset="1" stop-color="#FAF3A6"/>
</linearGradient>
<linearGradient id="paint10_linear_5870_131565" x1="6.03913" y1="16.0558" x2="1.74655" y2="16.0558" gradientUnits="userSpaceOnUse">
<stop stop-color="#E65E0E"/>
<stop offset="1" stop-color="#FAF3A6"/>
</linearGradient>
<linearGradient id="paint11_linear_5870_131565" x1="5.96133" y1="16.0555" x2="32.2177" y2="16.0555" gradientUnits="userSpaceOnUse">
<stop stop-color="#FAE46D"/>
<stop offset="1" stop-color="#FC7038"/>
</linearGradient>
<radialGradient id="paint12_radial_5870_131565" cx="0" cy="0" r="1" gradientUnits="userSpaceOnUse" gradientTransform="translate(14.1515 15.6181) rotate(90) scale(15.6211 15.4701)">
<stop stop-color="white"/>
<stop offset="0.249" stop-color="#FEFDFD"/>
<stop offset="0.3861" stop-color="#FBF5F5"/>
<stop offset="0.4961" stop-color="#F5E7E8"/>
<stop offset="0.5917" stop-color="#ECD3D5"/>
<stop offset="0.6779" stop-color="#E2BABD"/>
<stop offset="0.7574" stop-color="#D59BA0"/>
<stop offset="0.8318" stop-color="#C5767C"/>
<stop offset="0.9021" stop-color="#B34B53"/>
<stop offset="0.9667" stop-color="#9F1B26"/>
<stop offset="1" stop-color="#93000C"/>
</radialGradient>
<radialGradient id="paint13_radial_5870_131565" cx="0" cy="0" r="1" gradientUnits="userSpaceOnUse" gradientTransform="translate(11.2926 17.192) rotate(90) scale(17.0204 16.8559)">
<stop stop-color="white"/>
<stop offset="0.0849297" stop-color="#FFF6F6"/>
<stop offset="0.2265" stop-color="#FEDCDE"/>
<stop offset="0.4072" stop-color="#FEB2B6"/>
<stop offset="0.6201" stop-color="#FD787F"/>
<stop offset="0.8571" stop-color="#FC2F39"/>
<stop offset="1" stop-color="#FB000C"/>
</radialGradient>
<linearGradient id="paint14_linear_5870_131565" x1="4.26664" y1="16.0336" x2="19.7827" y2="16.0336" gradientUnits="userSpaceOnUse">
<stop offset="0.2269" stop-color="#FFFF80"/>
<stop offset="0.327" stop-color="#FFF87D"/>
<stop offset="0.473" stop-color="#FFE474"/>
<stop offset="0.6472" stop-color="#FFC466"/>
<stop offset="0.8414" stop-color="#FF9852"/>
<stop offset="1" stop-color="#FF6F3F"/>
</linearGradient>
<radialGradient id="paint15_radial_5870_131565" cx="0" cy="0" r="1" gradientUnits="userSpaceOnUse" gradientTransform="translate(12.6663 14.0784) rotate(79.6362) scale(4.08159 4.0447)">
<stop stop-color="#FFF2D3"/>
<stop offset="0.5853" stop-color="#FCE88F"/>
<stop offset="1" stop-color="#FAE263"/>
</radialGradient>
<linearGradient id="paint16_linear_5870_131565" x1="5.39642" y1="12.5627" x2="28.443" y2="5.54001" gradientUnits="userSpaceOnUse">
<stop offset="0.0135135" stop-color="#FAE2A1"/>
<stop offset="0.1784" stop-color="#FAE263"/>
<stop offset="1" stop-color="#FC8338"/>
</linearGradient>
<linearGradient id="paint17_linear_5870_131565" x1="4.86253" y1="12.8511" x2="25.409" y2="6.59019" gradientUnits="userSpaceOnUse">
<stop offset="0.0135135" stop-color="#FAE2A1"/>
<stop offset="0.0357842" stop-color="#FAE263"/>
<stop offset="0.1226" stop-color="#FBC958"/>
<stop offset="0.2376" stop-color="#FBB04C"/>
<stop offset="0.3656" stop-color="#FB9C43"/>
<stop offset="0.5115" stop-color="#FC8E3D"/>
<stop offset="0.6905" stop-color="#FC8539"/>
<stop offset="1" stop-color="#FC8338"/>
</linearGradient>
<linearGradient id="paint18_linear_5870_131565" x1="5.39642" y1="12.5627" x2="28.443" y2="5.54001" gradientUnits="userSpaceOnUse">
<stop offset="0.0135135" stop-color="#FAE2A1"/>
<stop offset="0.1784" stop-color="#FAE263"/>
<stop offset="1" stop-color="#FC8338"/>
</linearGradient>
<linearGradient id="paint19_linear_5870_131565" x1="23.4504" y1="3.90133" x2="21.0684" y2="12.551" gradientUnits="userSpaceOnUse">
<stop offset="0.0135135" stop-color="#FAE2A1"/>
<stop offset="0.1784" stop-color="#FAE263"/>
<stop offset="1" stop-color="#FC8338"/>
</linearGradient>
<radialGradient id="paint20_radial_5870_131565" cx="0" cy="0" r="1" gradientUnits="userSpaceOnUse" gradientTransform="translate(21.6909 3.34828) rotate(90) scale(9.23359 9.14434)">
<stop stop-color="#FAF463"/>
<stop offset="0.2267" stop-color="#FAF162"/>
<stop offset="0.3895" stop-color="#FAE85F"/>
<stop offset="0.5323" stop-color="#FAD85B"/>
<stop offset="0.6637" stop-color="#FBC255"/>
<stop offset="0.7871" stop-color="#FBA54C"/>
<stop offset="0.903" stop-color="#FC8242"/>
<stop offset="1" stop-color="#FC5F38"/>
</radialGradient>
<linearGradient id="paint21_linear_5870_131565" x1="21.5771" y1="12.9685" x2="29.1685" y2="12.9685" gradientUnits="userSpaceOnUse">
<stop stop-color="#AD2E38"/>
<stop offset="1" stop-color="#FF803F"/>
</linearGradient>
<linearGradient id="paint22_linear_5870_131565" x1="25.1785" y1="14.988" x2="34.8202" y2="12.3539" gradientUnits="userSpaceOnUse">
<stop stop-color="#AD2E38"/>
<stop offset="1" stop-color="#FF803F"/>
</linearGradient>
<linearGradient id="paint23_linear_5870_131565" x1="28.9668" y1="10.6722" x2="34.3805" y2="10.6722" gradientUnits="userSpaceOnUse">
<stop stop-color="#D73F37"/>
<stop offset="1" stop-color="#FACB63"/>
</linearGradient>
<linearGradient id="paint24_linear_5870_131565" x1="28.5345" y1="13.4289" x2="34.4699" y2="13.4289" gradientUnits="userSpaceOnUse">
<stop stop-color="#D73F37"/>
<stop offset="1" stop-color="#FACB63"/>
</linearGradient>
<linearGradient id="paint25_linear_5870_131565" x1="28.2437" y1="16.0558" x2="32.5363" y2="16.0558" gradientUnits="userSpaceOnUse">
<stop stop-color="#D73F37"/>
<stop offset="1" stop-color="#FACB63"/>
</linearGradient>
<radialGradient id="paint26_radial_5870_131565" cx="0" cy="0" r="1" gradientUnits="userSpaceOnUse" gradientTransform="translate(19.7909 4.22077) rotate(90) scale(11.2416 11.1329)">
<stop stop-color="white"/>
<stop offset="0.2923" stop-color="#FEFDFD"/>
<stop offset="0.4299" stop-color="#FBF5F6"/>
<stop offset="0.5351" stop-color="#F5E8EA"/>
<stop offset="0.624" stop-color="#EED6D8"/>
<stop offset="0.7025" stop-color="#E4BEC1"/>
<stop offset="0.7736" stop-color="#D7A1A5"/>
<stop offset="0.8393" stop-color="#C87E84"/>
<stop offset="0.9007" stop-color="#B7555D"/>
<stop offset="0.9563" stop-color="#A42933"/>
<stop offset="1" stop-color="#93000C"/>
</radialGradient>
<radialGradient id="paint27_radial_5870_131565" cx="0" cy="0" r="1" gradientUnits="userSpaceOnUse" gradientTransform="translate(13.0417 25.5056) rotate(90) scale(3.50324 3.46938)">
<stop stop-color="white"/>
<stop offset="0.0849297" stop-color="#FFF6F6"/>
<stop offset="0.2265" stop-color="#FEDCDE"/>
<stop offset="0.4072" stop-color="#FEB2B6"/>
<stop offset="0.6201" stop-color="#FD787F"/>
<stop offset="0.8571" stop-color="#FC2F39"/>
<stop offset="1" stop-color="#FB000C"/>
</radialGradient>
<radialGradient id="paint28_radial_5870_131565" cx="0" cy="0" r="1" gradientUnits="userSpaceOnUse" gradientTransform="translate(12.6674 26.743) rotate(-71.2296) scale(1.42049 2.99918)">
<stop offset="0.002793" stop-color="#FFEC7F"/>
<stop offset="0.2072" stop-color="#FFAA2D"/>
<stop offset="0.3309" stop-color="#FF8600"/>
<stop offset="0.3526" stop-color="#ED7D00"/>
<stop offset="0.4264" stop-color="#B66000"/>
<stop offset="0.5028" stop-color="#864600"/>
<stop offset="0.58" stop-color="#5D3100"/>
<stop offset="0.6585" stop-color="#3B1F00"/>
<stop offset="0.7384" stop-color="#211100"/>
<stop offset="0.8204" stop-color="#0F0800"/>
<stop offset="0.9057" stop-color="#040200"/>
<stop offset="1"/>
</radialGradient>
<radialGradient id="paint29_radial_5870_131565" cx="0" cy="0" r="1" gradientUnits="userSpaceOnUse" gradientTransform="translate(12.6661 26.743) rotate(-71.2252) scale(0.486753 3.01892)">
<stop offset="0.0189189" stop-color="white"/>
<stop offset="0.1109" stop-color="#FFEC7F"/>
<stop offset="0.22" stop-color="#FFAA2D"/>
<stop offset="0.2861" stop-color="#FF8600"/>
<stop offset="0.3092" stop-color="#ED7D00"/>
<stop offset="0.388" stop-color="#B66000"/>
<stop offset="0.4695" stop-color="#864600"/>
<stop offset="0.5519" stop-color="#5D3100"/>
<stop offset="0.6356" stop-color="#3B1F00"/>
<stop offset="0.7209" stop-color="#211100"/>
<stop offset="0.8083" stop-color="#0F0800"/>
<stop offset="0.8994" stop-color="#040200"/>
<stop offset="1"/>
</radialGradient>
<clipPath id="clip0_5870_131565">
<rect width="34.2857" height="30" fill="white"/>
</clipPath>
</defs>
</svg>
