<svg width="31" height="30" viewBox="0 0 31 30" fill="none" xmlns="http://www.w3.org/2000/svg">
<g id="Record" clip-path="url(#clip0_5870_131536)">
<path id="Vector" d="M26.4748 13.9971L24.7969 14.8423L26.7127 18.6969L28.4292 17.6084L26.4748 13.9971Z" fill="#2E0F4C"/>
<path id="Vector_2" d="M12.8138 20.4831C15.2696 19.8108 17.8348 19.0296 20.4835 18.1332C23.6079 17.0767 26.5395 15.969 29.2718 14.842L28.5196 13.555L20.7213 0.210938C18.0212 0.748798 14.9417 1.54278 11.6373 2.74016C9.08499 3.66221 6.79629 4.6739 4.79688 5.67918C5.75478 7.44644 6.71271 9.20729 7.66419 10.9745C9.265 13.9328 10.8658 16.8846 12.4666 19.8428C12.5823 20.0541 12.698 20.2654 12.8138 20.4831Z" fill="url(#paint0_linear_5870_131536)"/>
<path id="Vector_3" fill-rule="evenodd" clip-rule="evenodd" d="M14.5282 18.7356C13.9367 18.7356 13.3774 18.4027 13.0817 17.8392L7.94495 7.908C7.72636 7.4854 7.68779 6.97955 7.84851 6.53134C8.00281 6.08952 8.3114 5.74375 8.72285 5.55166C9.92506 5.00099 11.1594 4.48234 12.3873 4.02132C14.4896 3.22734 16.669 2.54861 18.8613 2.00434C19.5492 1.83146 20.2821 2.16442 20.6421 2.80473L26.0938 12.5823C26.3381 13.0177 26.3831 13.5427 26.2159 14.0166C26.0552 14.4776 25.7081 14.8362 25.2709 15.0154C23.5415 15.7134 21.78 16.3793 20.0378 16.994C18.3855 17.5767 16.6819 18.1402 14.991 18.6652C14.8303 18.7164 14.676 18.7356 14.5282 18.7356ZM19.9092 16.6546C18.2634 17.2373 16.5661 17.7944 14.8753 18.3194C14.3096 18.4923 13.6924 18.2234 13.4095 17.6727L8.27925 7.74152C8.10567 7.40856 8.07996 7.01157 8.20211 6.653C8.31783 6.30723 8.56212 6.03189 8.88357 5.88462C10.0794 5.33396 11.3073 4.82171 12.5223 4.36068C14.6117 3.5667 16.7783 2.89437 18.9513 2.35651C19.0413 2.3373 19.1377 2.3245 19.2277 2.3245C19.6649 2.3245 20.0892 2.57422 20.3206 2.98402L25.7724 12.7616C25.9652 13.1073 26.0038 13.5235 25.8688 13.9013C25.7402 14.2599 25.4702 14.548 25.1295 14.6825C23.4001 15.374 21.645 16.0399 19.9092 16.6546Z" fill="#452C45"/>
<path id="Vector_4" d="M12.4658 27.9497C12.1572 27.0981 11.7201 25.5357 11.9258 23.602C12.0737 22.2573 12.4787 21.1944 12.813 20.4837C12.6973 20.2724 12.5815 20.061 12.4658 19.8433C10.865 16.8851 9.26421 13.9333 7.66341 10.9751C6.71193 9.2078 5.74757 7.44694 4.79609 5.67969C4.33321 6.28798 3.69674 7.29327 3.31744 8.67634C2.81598 10.4948 3.25958 11.3144 3.43316 12.1212C4.56465 14.2919 5.87615 17.3782 7.27125 19.7025C8.27416 21.3737 8.9942 22.872 10.0035 24.3895C10.8264 25.6253 11.6493 26.8099 12.4658 27.9497Z" fill="url(#paint1_linear_5870_131536)"/>
<path id="Vector_5" d="M15.6506 1.29343L15.5156 1.42789L16.7435 3.28479L18.9101 2.58685C19.4437 2.41397 20.0094 2.67009 20.2795 3.20795L21.1281 4.91118L23.0632 4.17482V3.95712L20.7809 0L15.6506 1.29343Z" fill="#C13E1B"/>
<path id="Vector_6" d="M23.0624 3.95071L20.7865 0L15.6562 1.29343L16.7749 3.05428L19.0057 2.40757C19.5522 2.24749 20.1372 2.49081 20.4201 2.98384L21.2944 4.55901L23.0624 3.95071Z" fill="url(#paint2_linear_5870_131536)"/>
<path id="Vector_7" d="M21.6607 26.233C23.8143 25.5927 25.743 24.85 27.4274 24.0816C28.2953 23.691 29.1053 23.294 29.8447 22.897C29.9218 22.8586 29.9861 22.8074 30.0311 22.7497C30.0825 22.6857 30.1275 22.6153 30.1468 22.5384C30.2497 22.2503 30.1983 21.8853 30.2304 21.6932C30.0633 21.7893 29.8961 21.8917 29.7161 21.975C28.3082 22.7818 26.5852 23.6398 24.5601 24.4017C23.2615 24.8884 21.8407 25.3366 20.2977 25.7016C17.739 26.3099 15.4182 26.566 13.4574 26.6428C13.2773 25.9833 13.1102 25.0805 13.1038 23.9983C13.1038 22.897 13.2773 21.9686 13.4574 21.2962C13.5538 21.2706 13.6567 21.245 13.7531 21.2194C15.9775 20.6303 18.324 19.9388 20.7735 19.1192C23.2165 18.2996 25.5052 17.4352 27.6267 16.5579L28.4175 16.2954V16.289L29.2661 16.0073V14.8291C26.5338 15.956 23.6022 17.0702 20.4777 18.1203C18.2083 18.8887 15.9968 19.5738 13.8624 20.1757C13.5088 20.2781 13.1552 20.3742 12.808 20.4702C12.4737 21.181 12.0687 22.2439 11.9208 23.5885C11.7151 25.5287 12.1459 27.0846 12.4544 27.9362C14.9874 27.7378 18.1505 27.2767 21.6607 26.233Z" fill="url(#paint3_linear_5870_131536)"/>
<path id="Vector_8" d="M20.989 19.0496C18.501 19.8884 16.1223 20.5864 13.8722 21.1691C13.6986 21.8286 13.525 22.725 13.5314 23.8007C13.5314 24.8508 13.6986 25.7281 13.8722 26.3748C15.7751 26.3043 18.0381 26.0546 20.5261 25.4591C22.024 25.1006 23.4062 24.6651 24.6727 24.1913L29.1859 21.803L28.948 21.566L26.4728 17.0967L25.6757 17.3912C23.612 18.2492 23.3677 18.2556 20.989 19.0496Z" fill="#CE9D5E"/>
<path id="Vector_9" d="M29.5497 14.4706L26.7081 10.5391L24.5801 11.2434L25.5059 12.8122C25.8273 13.3436 25.6152 14.1696 25.0044 14.3809L23.1336 15.0853L22.9922 15.5143L24.0208 16.8909L23.6094 18.1972L24.0208 18.2548L29.5497 14.4706Z" fill="#C13E1B"/>
<path id="Vector_10" d="M25.8279 12.8701C26.1236 13.3888 25.8793 14.0483 25.32 14.2596L23.1406 15.0792L24.3814 16.712L29.5503 14.5029L26.818 10.4434L24.8507 11.1413L25.8279 12.8701Z" fill="url(#paint4_linear_5870_131536)"/>
<path id="Vector_11" d="M24.5659 24.4148C26.5846 23.6528 28.3139 22.7948 29.7219 21.988L29.2783 21.3989C29.2783 21.3989 23.5373 25.0871 13.9389 25.8298C13.3088 25.3944 13.7589 21.2324 13.7589 21.2324C13.656 21.258 13.5596 21.2836 13.4631 21.3093C13.2831 21.9816 13.1031 22.91 13.1095 24.0114C13.116 25.0935 13.2896 25.9963 13.4631 26.6558C15.424 26.579 17.7448 26.3229 20.3035 25.7146C21.8464 25.3496 23.2672 24.9014 24.5659 24.4148Z" fill="#2E0F4C"/>
<path id="Vector_12" d="M27.9907 19.8815C28.4858 20.7779 28.1129 21.9049 27.1871 22.3339L24.2812 23.6721L24.7313 24.3124L24.5641 25.2729L30.6266 22.8974V21.3926L28.4279 17.6084L27.0971 18.2551L27.9907 19.8815Z" fill="url(#paint5_linear_5870_131536)"/>
<path id="Vector_13" d="M30.6392 21.3926C30.1763 21.6807 29.6942 21.9689 29.1927 22.2506C27.5855 23.1534 26.1904 23.7617 24.7375 24.3124L24.5703 25.2729L30.6328 22.8973C30.6328 22.3979 30.6328 21.8984 30.6392 21.3926Z" fill="url(#paint6_linear_5870_131536)"/>
<path id="Vector_14" d="M24.0234 18.2548L29.3337 15.9753L29.5523 14.4834L24.3835 16.7117L24.0234 18.2548Z" fill="url(#paint7_linear_5870_131536)"/>
<path id="Vector_15" d="M24.0234 23.7615L24.4992 24.4338L24.2806 25.3815L24.5699 25.2727L24.7306 24.3122L24.2806 23.6719L24.0234 23.7615Z" fill="#C13E1B"/>
<path id="Vector_16" d="M16.498 25.5742C16.2922 26.7395 16.2858 28.5644 16.2858 28.5644L18.9217 26.4322L21.0561 27.9753C21.0561 27.9753 21.6668 24.5305 21.3582 23.9542C21.0432 23.3779 20.291 22.9297 20.291 22.9297L15.6172 23.8581C15.6172 23.8581 16.6972 24.4088 16.498 25.5742Z" fill="url(#paint8_linear_5870_131536)"/>
<g id="Group" opacity="0.72">
<path id="Vector_17" d="M23.8113 21.8919C24.8013 21.4693 25.8364 21.0211 26.5757 20.2207C26.1643 20.5665 25.6949 20.8226 25.2064 21.0403C24.7178 21.2644 24.2227 21.4565 23.7148 21.6294C22.6991 21.9687 21.6704 22.2697 20.6354 22.5386C19.6003 22.814 18.5524 23.0573 17.5109 23.3134L14.3672 24.0498C15.4408 23.9537 16.508 23.7872 17.5624 23.5887C18.6296 23.403 19.6775 23.1597 20.7254 22.8908C21.7669 22.6091 22.8084 22.2953 23.8113 21.8919Z" fill="#9E6E4B"/>
</g>
<g id="Group_2" opacity="0.72">
<path id="Vector_18" d="M17.1516 21.9179L14.0078 22.6542C15.0879 22.5582 16.1486 22.3917 17.203 22.1932C18.2702 22.0075 19.3181 21.7642 20.366 21.4953C21.4075 21.2136 22.449 20.8998 23.4519 20.4964C24.442 20.0738 25.477 19.6256 26.2163 18.8252C25.8049 19.171 25.3356 19.4271 24.847 19.6448C24.3584 19.8689 23.8633 20.061 23.3555 20.2339C22.3397 20.5732 21.3111 20.8742 20.276 21.1431C19.241 21.4185 18.193 21.6618 17.1516 21.9179Z" fill="#9E6E4B"/>
</g>
<path id="Vector_19" fill-rule="evenodd" clip-rule="evenodd" d="M18.1812 7.57438L19.0299 7.47834C19.7306 7.4015 20.2771 8.18268 19.9621 8.81658L19.5699 9.57215C19.4477 9.82187 19.4477 10.1292 19.5827 10.3917L19.9942 11.1921C20.3349 11.8581 19.8078 12.5752 19.1006 12.4087L18.2455 12.2038C17.9627 12.1398 17.6862 12.2166 17.4869 12.4087L16.889 13.0042C16.4004 13.4973 15.5325 13.1579 15.4168 12.4279L15.2818 11.5507C15.2368 11.2562 15.0568 11 14.7996 10.8592L14.0153 10.4174C13.366 10.0524 13.3595 9.12393 13.996 8.8422L14.7675 8.50283C15.0182 8.38758 15.1982 8.15066 15.2304 7.86893L15.3461 7.00451C15.4361 6.29376 16.2976 6.05685 16.8055 6.60751L17.4162 7.27344C17.6155 7.49114 17.8984 7.6064 18.1812 7.57438ZM15.7254 7.98418L15.8411 7.11976C15.854 7.02372 15.8925 6.94688 15.9697 6.89565C16.0918 6.80601 16.2976 6.79961 16.4326 6.95968L17.0498 7.63201C17.3648 7.97778 17.8212 8.15706 18.2648 8.11224L19.1134 8.0162C19.3063 7.99058 19.422 8.11865 19.4542 8.17627C19.5056 8.21469 19.5892 8.36196 19.4992 8.54125L19.107 9.29682C18.9013 9.69381 18.9077 10.1804 19.1199 10.5966L19.5313 11.4034C19.6277 11.5891 19.5506 11.7684 19.4349 11.8517C19.3834 11.8901 19.2934 11.9285 19.1713 11.8965L18.3162 11.698C17.9434 11.6083 17.5576 11.6788 17.2619 11.8965C17.2105 11.9349 17.159 11.9797 17.1076 12.0245L16.5097 12.62L16.4711 12.6584C16.3747 12.7289 16.2461 12.7417 16.1304 12.6777C16.0597 12.6456 15.9375 12.5624 15.9118 12.3831L15.7768 11.5059C15.6997 11.0449 15.4168 10.6351 15.0118 10.411L14.2275 9.96914C14.0732 9.8859 14.041 9.74503 14.0346 9.6746C14.0217 9.54654 14.0667 9.43128 14.1632 9.36725L14.221 9.32883L14.9925 8.98947C15.0696 8.95105 15.1468 8.91263 15.2111 8.86141C15.494 8.65651 15.6804 8.34275 15.7254 7.98418Z" fill="#452C45"/>
</g>
<defs>
<linearGradient id="paint0_linear_5870_131536" x1="21.4405" y1="-2.57973" x2="15.3487" y2="15.2988" gradientUnits="userSpaceOnUse">
<stop stop-color="#AD55C0"/>
<stop offset="1" stop-color="#7E3DB6"/>
</linearGradient>
<linearGradient id="paint1_linear_5870_131536" x1="10.6482" y1="15.6213" x2="6.51306" y2="18.0817" gradientUnits="userSpaceOnUse">
<stop stop-color="#AD55C0"/>
<stop offset="1" stop-color="#7E3DB6"/>
</linearGradient>
<linearGradient id="paint2_linear_5870_131536" x1="18.7853" y1="4.02492" x2="20.1915" y2="0.55404" gradientUnits="userSpaceOnUse">
<stop stop-color="#DC5C33"/>
<stop offset="1" stop-color="#F5AD08"/>
</linearGradient>
<linearGradient id="paint3_linear_5870_131536" x1="11.8715" y1="21.3959" x2="30.2302" y2="21.3959" gradientUnits="userSpaceOnUse">
<stop stop-color="#542B74"/>
<stop offset="1" stop-color="#7E3DB6"/>
</linearGradient>
<linearGradient id="paint4_linear_5870_131536" x1="23.1386" y1="13.5804" x2="29.5497" y2="13.5804" gradientUnits="userSpaceOnUse">
<stop stop-color="#DC5C33"/>
<stop offset="1" stop-color="#F5AD08"/>
</linearGradient>
<linearGradient id="paint5_linear_5870_131536" x1="26.0566" y1="21.3531" x2="32.6034" y2="22.6559" gradientUnits="userSpaceOnUse">
<stop stop-color="#DC5C33"/>
<stop offset="1" stop-color="#F5AD08"/>
</linearGradient>
<linearGradient id="paint6_linear_5870_131536" x1="27.418" y1="23.015" x2="28.358" y2="24.6667" gradientUnits="userSpaceOnUse">
<stop stop-color="#DC5C33"/>
<stop offset="1" stop-color="#F5AD08"/>
</linearGradient>
<linearGradient id="paint7_linear_5870_131536" x1="26.4322" y1="15.6594" x2="27.1793" y2="17.1596" gradientUnits="userSpaceOnUse">
<stop stop-color="#DC5C33"/>
<stop offset="1" stop-color="#F5AD08"/>
</linearGradient>
<linearGradient id="paint8_linear_5870_131536" x1="18.2925" y1="22.6684" x2="18.8388" y2="26.3514" gradientUnits="userSpaceOnUse">
<stop stop-color="#C02AAB"/>
<stop offset="1" stop-color="#DD6BD4"/>
</linearGradient>
<clipPath id="clip0_5870_131536">
<rect width="30.6383" height="30" fill="white"/>
</clipPath>
</defs>
</svg>
