<svg width="340" height="394" viewBox="0 0 340 394" fill="none" xmlns="http://www.w3.org/2000/svg">
<g id="1">
<g id="screamboto">
<g id="Head Shape">
<g id="head">
<g filter="url(#filter0_ii_5865_129070)">
<path d="M8 135C8 121.745 18.7452 111 32 111H224C237.255 111 248 121.745 248 135V327C248 340.255 237.255 351 224 351H32C18.7452 351 8 340.255 8 327V135Z" fill="#B36FE8"/>
</g>
<path d="M8 135C8 121.745 18.7452 111 32 111H224C237.255 111 248 121.745 248 135V327C248 340.255 237.255 351 224 351H32C18.7452 351 8 340.255 8 327V135Z" stroke="#1F2024" stroke-width="8"/>
</g>
<g id="head_2">
<g filter="url(#filter1_i_5865_129070)">
<path d="M108 135C108 121.745 118.745 111 132 111H308C321.255 111 332 121.745 332 135V327C332 340.255 321.255 351 308 351H132C118.745 351 108 340.255 108 327V135Z" fill="#B36FE8"/>
</g>
<path d="M108 135C108 121.745 118.745 111 132 111H308C321.255 111 332 121.745 332 135V327C332 340.255 321.255 351 308 351H132C118.745 351 108 340.255 108 327V135Z" stroke="#1F2024" stroke-width="8"/>
</g>
<path id="Intersect" fill-rule="evenodd" clip-rule="evenodd" d="M332 189.738V327C332 340.255 321.255 351 308 351H32C18.7452 351 8 340.255 8 327V250.086C51.6614 203.873 130.72 173 221 173C260.885 173 298.58 179.026 332 189.738Z" fill="#AEA4EE"/>
<path id="Intersect_2" fill-rule="evenodd" clip-rule="evenodd" d="M98 193.852V327C98 340.255 87.2548 351 74 351H32C18.7452 351 8 340.255 8 327V250.086C30.0262 226.773 61.0608 207.363 98 193.852Z" fill="#8A7DD8"/>
<g id="Light">
<path id="reflection" d="M236 115H274L218 347H180L236 115Z" fill="white" fill-opacity="0.5"/>
<path id="reflection_2" d="M221 115H227L171 347H165L221 115Z" fill="white" fill-opacity="0.5"/>
</g>
</g>
<g id="outline">
<path id="head_3" d="M8 134.341C8 121.086 18.7452 110.341 32 110.341H308C321.255 110.341 332 121.086 332 134.341V327.753C332 341.008 321.255 351.753 308 351.753H32C18.7452 351.753 8 341.008 8 327.753V134.341Z" stroke="#1F2024" stroke-width="8"/>
<path id="head_4" d="M108 134.341C108 121.086 118.745 110.341 132 110.341H308C321.255 110.341 332 121.086 332 134.341V327.753C332 341.008 321.255 351.753 308 351.753H132C118.745 351.753 108 341.008 108 327.753V134.341Z" stroke="#1F2024" stroke-width="8"/>
</g>
</g>
<g id="Group 2087323989">
<path id="Vector 131" d="M209 292H234.5" stroke="#1F2024" stroke-width="20" stroke-linecap="round" stroke-linejoin="round"/>
<g id="Eyes" filter="url(#filter2_ddi_5865_129070)">
<rect x="204" y="168" width="93" height="59" rx="16" transform="rotate(90 204 168)" fill="#1F2024"/>
<ellipse id="Ellipse 1" cx="161" cy="185" rx="8" ry="8" transform="rotate(90 161 185)" fill="white"/>
</g>
<g id="Eyes_2" filter="url(#filter3_ddi_5865_129070)">
<rect x="298" y="168" width="93" height="59" rx="16" transform="rotate(90 298 168)" fill="#1F2024"/>
<ellipse id="Ellipse 1_2" cx="255" cy="185" rx="8" ry="8" transform="rotate(90 255 185)" fill="white"/>
</g>
</g>
<g id="WE &#226;&#157;&#164;&#239;&#184;&#143; THE BOTOS">
<g id="Group 1">
<rect id="Rectangle 22" x="158" y="43" width="14" height="56" fill="#AEA4EE" stroke="#1F2024" stroke-width="8"/>
<g id="Ellipse 6">
<g filter="url(#filter4_i_5865_129070)">
<circle cx="165" cy="27" r="23" fill="#AEA4EE"/>
</g>
<circle cx="165" cy="27" r="23" stroke="#1F2024" stroke-width="8"/>
</g>
<circle id="Ellipse 7" cx="174" cy="18" r="6" fill="white"/>
</g>
<g id="Base">
<g filter="url(#filter5_i_5865_129070)">
<path d="M138 97C138 94.7909 139.791 93 142 93H188C190.209 93 192 94.7909 192 97V110H138V97Z" fill="#AEA4EE"/>
</g>
<path d="M138 97C138 94.7909 139.791 93 142 93H188C190.209 93 192 94.7909 192 97V110H138V97Z" stroke="#1F2024" stroke-width="8"/>
</g>
</g>
<path id="head_5" d="M14 236C14 231.582 17.5817 228 22 228H82C86.4183 228 90 231.582 90 236V276C90 280.418 86.4183 284 82 284H22C17.5817 284 14 280.418 14 276V236Z" fill="#1F2024" fill-opacity="0.16"/>
<g id="head_6">
<g filter="url(#filter6_ii_5865_129070)">
<path d="M10 224C10 219.582 13.5817 216 18 216H83C87.4183 216 91 219.582 91 224V264C91 268.418 87.4183 272 83 272H18C13.5817 272 10 268.418 10 264V224Z" fill="#8A7DD8"/>
</g>
<path d="M10 224C10 219.582 13.5817 216 18 216H83C87.4183 216 91 219.582 91 224V264C91 268.418 87.4183 272 83 272H18C13.5817 272 10 268.418 10 264V224Z" stroke="#1F2024" stroke-width="8"/>
</g>
<g id="head_7">
<g filter="url(#filter7_i_5865_129070)">
<path d="M67 224C67 219.582 70.5817 216 75 216H83C87.4183 216 91 219.582 91 224V264C91 268.418 87.4183 272 83 272H75C70.5817 272 67 268.418 67 264V224Z" fill="#AEA5EE"/>
</g>
<path d="M67 224C67 219.582 70.5817 216 75 216H83C87.4183 216 91 219.582 91 224V264C91 268.418 87.4183 272 83 272H75C70.5817 272 67 268.418 67 264V224Z" stroke="#1F2024" stroke-width="8"/>
</g>
<rect id="Air" x="27" y="235" width="8" height="20" rx="4" fill="#1F2024"/>
<rect id="Air_2" x="39" y="235" width="8" height="20" rx="4" fill="#1F2024"/>
</g>
<defs>
<filter id="filter0_ii_5865_129070" x="4" y="107" width="248" height="248" filterUnits="userSpaceOnUse" color-interpolation-filters="sRGB">
<feFlood flood-opacity="0" result="BackgroundImageFix"/>
<feBlend mode="normal" in="SourceGraphic" in2="BackgroundImageFix" result="shape"/>
<feColorMatrix in="SourceAlpha" type="matrix" values="0 0 0 0 0 0 0 0 0 0 0 0 0 0 0 0 0 0 127 0" result="hardAlpha"/>
<feOffset dy="-16"/>
<feComposite in2="hardAlpha" operator="arithmetic" k2="-1" k3="1"/>
<feColorMatrix type="matrix" values="0 0 0 0 0 0 0 0 0 0 0 0 0 0 0 0 0 0 0.25 0"/>
<feBlend mode="normal" in2="shape" result="effect1_innerShadow_5865_129070"/>
<feColorMatrix in="SourceAlpha" type="matrix" values="0 0 0 0 0 0 0 0 0 0 0 0 0 0 0 0 0 0 127 0" result="hardAlpha"/>
<feOffset dy="16"/>
<feComposite in2="hardAlpha" operator="arithmetic" k2="-1" k3="1"/>
<feColorMatrix type="matrix" values="0 0 0 0 1 0 0 0 0 1 0 0 0 0 1 0 0 0 0.25 0"/>
<feBlend mode="normal" in2="effect1_innerShadow_5865_129070" result="effect2_innerShadow_5865_129070"/>
</filter>
<filter id="filter1_i_5865_129070" x="104" y="107" width="232" height="248" filterUnits="userSpaceOnUse" color-interpolation-filters="sRGB">
<feFlood flood-opacity="0" result="BackgroundImageFix"/>
<feBlend mode="normal" in="SourceGraphic" in2="BackgroundImageFix" result="shape"/>
<feColorMatrix in="SourceAlpha" type="matrix" values="0 0 0 0 0 0 0 0 0 0 0 0 0 0 0 0 0 0 127 0" result="hardAlpha"/>
<feOffset dx="-24" dy="8"/>
<feComposite in2="hardAlpha" operator="arithmetic" k2="-1" k3="1"/>
<feColorMatrix type="matrix" values="0 0 0 0 1 0 0 0 0 1 0 0 0 0 1 0 0 0 0.25 0"/>
<feBlend mode="normal" in2="shape" result="effect1_innerShadow_5865_129070"/>
</filter>
<filter id="filter2_ddi_5865_129070" x="141" y="168" width="67" height="93" filterUnits="userSpaceOnUse" color-interpolation-filters="sRGB">
<feFlood flood-opacity="0" result="BackgroundImageFix"/>
<feColorMatrix in="SourceAlpha" type="matrix" values="0 0 0 0 0 0 0 0 0 0 0 0 0 0 0 0 0 0 127 0" result="hardAlpha"/>
<feOffset dx="-4"/>
<feColorMatrix type="matrix" values="0 0 0 0 1 0 0 0 0 1 0 0 0 0 1 0 0 0 0.25 0"/>
<feBlend mode="normal" in2="BackgroundImageFix" result="effect1_dropShadow_5865_129070"/>
<feColorMatrix in="SourceAlpha" type="matrix" values="0 0 0 0 0 0 0 0 0 0 0 0 0 0 0 0 0 0 127 0" result="hardAlpha"/>
<feOffset dx="4"/>
<feColorMatrix type="matrix" values="0 0 0 0 0 0 0 0 0 0 0 0 0 0 0 0 0 0 0.25 0"/>
<feBlend mode="normal" in2="effect1_dropShadow_5865_129070" result="effect2_dropShadow_5865_129070"/>
<feBlend mode="normal" in="SourceGraphic" in2="effect2_dropShadow_5865_129070" result="shape"/>
<feColorMatrix in="SourceAlpha" type="matrix" values="0 0 0 0 0 0 0 0 0 0 0 0 0 0 0 0 0 0 127 0" result="hardAlpha"/>
<feOffset dx="-4"/>
<feComposite in2="hardAlpha" operator="arithmetic" k2="-1" k3="1"/>
<feColorMatrix type="matrix" values="0 0 0 0 0 0 0 0 0 0 0 0 0 0 0 0 0 0 0.25 0"/>
<feBlend mode="normal" in2="shape" result="effect3_innerShadow_5865_129070"/>
</filter>
<filter id="filter3_ddi_5865_129070" x="235" y="168" width="67" height="93" filterUnits="userSpaceOnUse" color-interpolation-filters="sRGB">
<feFlood flood-opacity="0" result="BackgroundImageFix"/>
<feColorMatrix in="SourceAlpha" type="matrix" values="0 0 0 0 0 0 0 0 0 0 0 0 0 0 0 0 0 0 127 0" result="hardAlpha"/>
<feOffset dx="-4"/>
<feColorMatrix type="matrix" values="0 0 0 0 1 0 0 0 0 1 0 0 0 0 1 0 0 0 0.25 0"/>
<feBlend mode="normal" in2="BackgroundImageFix" result="effect1_dropShadow_5865_129070"/>
<feColorMatrix in="SourceAlpha" type="matrix" values="0 0 0 0 0 0 0 0 0 0 0 0 0 0 0 0 0 0 127 0" result="hardAlpha"/>
<feOffset dx="4"/>
<feColorMatrix type="matrix" values="0 0 0 0 0 0 0 0 0 0 0 0 0 0 0 0 0 0 0.25 0"/>
<feBlend mode="normal" in2="effect1_dropShadow_5865_129070" result="effect2_dropShadow_5865_129070"/>
<feBlend mode="normal" in="SourceGraphic" in2="effect2_dropShadow_5865_129070" result="shape"/>
<feColorMatrix in="SourceAlpha" type="matrix" values="0 0 0 0 0 0 0 0 0 0 0 0 0 0 0 0 0 0 127 0" result="hardAlpha"/>
<feOffset dx="-4"/>
<feComposite in2="hardAlpha" operator="arithmetic" k2="-1" k3="1"/>
<feColorMatrix type="matrix" values="0 0 0 0 0 0 0 0 0 0 0 0 0 0 0 0 0 0 0.25 0"/>
<feBlend mode="normal" in2="shape" result="effect3_innerShadow_5865_129070"/>
</filter>
<filter id="filter4_i_5865_129070" x="138" y="0" width="54" height="54" filterUnits="userSpaceOnUse" color-interpolation-filters="sRGB">
<feFlood flood-opacity="0" result="BackgroundImageFix"/>
<feBlend mode="normal" in="SourceGraphic" in2="BackgroundImageFix" result="shape"/>
<feColorMatrix in="SourceAlpha" type="matrix" values="0 0 0 0 0 0 0 0 0 0 0 0 0 0 0 0 0 0 127 0" result="hardAlpha"/>
<feOffset dx="12" dy="-8"/>
<feComposite in2="hardAlpha" operator="arithmetic" k2="-1" k3="1"/>
<feColorMatrix type="matrix" values="0 0 0 0 0 0 0 0 0 0 0 0 0 0 0 0 0 0 0.25 0"/>
<feBlend mode="normal" in2="shape" result="effect1_innerShadow_5865_129070"/>
</filter>
<filter id="filter5_i_5865_129070" x="134" y="89" width="62" height="25" filterUnits="userSpaceOnUse" color-interpolation-filters="sRGB">
<feFlood flood-opacity="0" result="BackgroundImageFix"/>
<feBlend mode="normal" in="SourceGraphic" in2="BackgroundImageFix" result="shape"/>
<feColorMatrix in="SourceAlpha" type="matrix" values="0 0 0 0 0 0 0 0 0 0 0 0 0 0 0 0 0 0 127 0" result="hardAlpha"/>
<feOffset dx="-24" dy="8"/>
<feComposite in2="hardAlpha" operator="arithmetic" k2="-1" k3="1"/>
<feColorMatrix type="matrix" values="0 0 0 0 1 0 0 0 0 1 0 0 0 0 1 0 0 0 0.25 0"/>
<feBlend mode="normal" in2="shape" result="effect1_innerShadow_5865_129070"/>
</filter>
<filter id="filter6_ii_5865_129070" x="6" y="212" width="89" height="64" filterUnits="userSpaceOnUse" color-interpolation-filters="sRGB">
<feFlood flood-opacity="0" result="BackgroundImageFix"/>
<feBlend mode="normal" in="SourceGraphic" in2="BackgroundImageFix" result="shape"/>
<feColorMatrix in="SourceAlpha" type="matrix" values="0 0 0 0 0 0 0 0 0 0 0 0 0 0 0 0 0 0 127 0" result="hardAlpha"/>
<feOffset dy="-16"/>
<feComposite in2="hardAlpha" operator="arithmetic" k2="-1" k3="1"/>
<feColorMatrix type="matrix" values="0 0 0 0 0 0 0 0 0 0 0 0 0 0 0 0 0 0 0.25 0"/>
<feBlend mode="normal" in2="shape" result="effect1_innerShadow_5865_129070"/>
<feColorMatrix in="SourceAlpha" type="matrix" values="0 0 0 0 0 0 0 0 0 0 0 0 0 0 0 0 0 0 127 0" result="hardAlpha"/>
<feOffset dy="16"/>
<feComposite in2="hardAlpha" operator="arithmetic" k2="-1" k3="1"/>
<feColorMatrix type="matrix" values="0 0 0 0 1 0 0 0 0 1 0 0 0 0 1 0 0 0 0.25 0"/>
<feBlend mode="normal" in2="effect1_innerShadow_5865_129070" result="effect2_innerShadow_5865_129070"/>
</filter>
<filter id="filter7_i_5865_129070" x="63" y="212" width="32" height="64" filterUnits="userSpaceOnUse" color-interpolation-filters="sRGB">
<feFlood flood-opacity="0" result="BackgroundImageFix"/>
<feBlend mode="normal" in="SourceGraphic" in2="BackgroundImageFix" result="shape"/>
<feColorMatrix in="SourceAlpha" type="matrix" values="0 0 0 0 0 0 0 0 0 0 0 0 0 0 0 0 0 0 127 0" result="hardAlpha"/>
<feOffset dx="-24" dy="8"/>
<feComposite in2="hardAlpha" operator="arithmetic" k2="-1" k3="1"/>
<feColorMatrix type="matrix" values="0 0 0 0 1 0 0 0 0 1 0 0 0 0 1 0 0 0 0.25 0"/>
<feBlend mode="normal" in2="shape" result="effect1_innerShadow_5865_129070"/>
</filter>
</defs>
</svg>
