<svg width="340" height="389" viewBox="0 0 340 389" fill="none" xmlns="http://www.w3.org/2000/svg">
<g id="4">
<g id="Group 2087323993">
<g id="screamboto">
<g id="Head Shape">
<g id="head">
<g filter="url(#filter0_ii_5817_125891)">
<path d="M8 130.004C8 116.749 18.7452 106.004 32 106.004H224C237.255 106.004 248 116.749 248 130.004V322.004C248 335.259 237.255 346.004 224 346.004H32C18.7452 346.004 8 335.259 8 322.004V130.004Z" fill="#ACFF8F"/>
</g>
<path d="M8 130.004C8 116.749 18.7452 106.004 32 106.004H224C237.255 106.004 248 116.749 248 130.004V322.004C248 335.259 237.255 346.004 224 346.004H32C18.7452 346.004 8 335.259 8 322.004V130.004Z" stroke="#1F2024" stroke-width="8"/>
</g>
<g id="head_2">
<g filter="url(#filter1_i_5817_125891)">
<path d="M108 130.004C108 116.749 118.745 106.004 132 106.004H308C321.255 106.004 332 116.749 332 130.004V322.004C332 335.259 321.255 346.004 308 346.004H132C118.745 346.004 108 335.259 108 322.004V130.004Z" fill="#ACFF8F"/>
</g>
<path d="M108 130.004C108 116.749 118.745 106.004 132 106.004H308C321.255 106.004 332 116.749 332 130.004V322.004C332 335.259 321.255 346.004 308 346.004H132C118.745 346.004 108 335.259 108 322.004V130.004Z" stroke="#1F2024" stroke-width="8"/>
</g>
<path id="Intersect" fill-rule="evenodd" clip-rule="evenodd" d="M332 184.742V322.004C332 335.259 321.255 346.004 308 346.004H32C18.7452 346.004 8 335.259 8 322.004V245.089C51.6614 198.877 130.72 168.004 221 168.004C260.885 168.004 298.58 174.03 332 184.742Z" fill="#5DE59C"/>
<path id="Intersect_2" fill-rule="evenodd" clip-rule="evenodd" d="M98 188.856V322.004C98 335.259 87.2548 346.004 74 346.004H32C18.7452 346.004 8 335.259 8 322.004V245.089C30.0262 221.776 61.0608 202.367 98 188.856Z" fill="#02E319"/>
<g id="Light">
<path id="reflection" d="M236 110.004H274L218 342.004H180L236 110.004Z" fill="white" fill-opacity="0.5"/>
<path id="reflection_2" d="M221 110.004H227L171 342.004H165L221 110.004Z" fill="white" fill-opacity="0.5"/>
</g>
</g>
<g id="outline">
<path id="head_3" d="M8 129.345C8 116.09 18.7452 105.345 32 105.345H308C321.255 105.345 332 116.09 332 129.345V322.757C332 336.012 321.255 346.757 308 346.757H32C18.7452 346.757 8 336.012 8 322.757V129.345Z" stroke="#1F2024" stroke-width="8"/>
<path id="head_4" d="M108 129.345C108 116.09 118.745 105.345 132 105.345H308C321.255 105.345 332 116.09 332 129.345V322.757C332 336.012 321.255 346.757 308 346.757H132C118.745 346.757 108 336.012 108 322.757V129.345Z" stroke="#1F2024" stroke-width="8"/>
</g>
</g>
<g id="Group 2087323989">
<path id="Vector 131" d="M209 287.004H234.5" stroke="#1F2024" stroke-width="20" stroke-linecap="round" stroke-linejoin="round"/>
<g id="Eyes" filter="url(#filter2_ddi_5817_125891)">
<rect x="204" y="163.004" width="93" height="59" rx="16" transform="rotate(90 204 163.004)" fill="#1F2024"/>
<ellipse id="Ellipse 1" cx="161" cy="180.004" rx="8" ry="8" transform="rotate(90 161 180.004)" fill="white"/>
</g>
<g id="Eyes_2" filter="url(#filter3_ddi_5817_125891)">
<rect x="298" y="163.004" width="93" height="59" rx="16" transform="rotate(90 298 163.004)" fill="#1F2024"/>
<ellipse id="Ellipse 1_2" cx="255" cy="180.004" rx="8" ry="8" transform="rotate(90 255 180.004)" fill="white"/>
</g>
</g>
<g id="Ear">
<path id="head_5" d="M14 231.004C14 226.586 17.5817 223.004 22 223.004H82C86.4183 223.004 90 226.586 90 231.004V271.004C90 275.422 86.4183 279.004 82 279.004H22C17.5817 279.004 14 275.422 14 271.004V231.004Z" fill="#1F2024" fill-opacity="0.16"/>
<g id="head_6">
<g filter="url(#filter4_ii_5817_125891)">
<path d="M10 219.004C10 214.586 13.5817 211.004 18 211.004H83C87.4183 211.004 91 214.586 91 219.004V259.004C91 263.422 87.4183 267.004 83 267.004H18C13.5817 267.004 10 263.422 10 259.004V219.004Z" fill="#02E319"/>
</g>
<path d="M10 219.004C10 214.586 13.5817 211.004 18 211.004H83C87.4183 211.004 91 214.586 91 219.004V259.004C91 263.422 87.4183 267.004 83 267.004H18C13.5817 267.004 10 263.422 10 259.004V219.004Z" stroke="#1F2024" stroke-width="8"/>
</g>
<g id="head_7">
<g filter="url(#filter5_i_5817_125891)">
<path d="M67 219.004C67 214.586 70.5817 211.004 75 211.004H83C87.4183 211.004 91 214.586 91 219.004V259.004C91 263.422 87.4183 267.004 83 267.004H75C70.5817 267.004 67 263.422 67 259.004V219.004Z" fill="#02E319"/>
</g>
<path d="M67 219.004C67 214.586 70.5817 211.004 75 211.004H83C87.4183 211.004 91 214.586 91 219.004V259.004C91 263.422 87.4183 267.004 83 267.004H75C70.5817 267.004 67 263.422 67 259.004V219.004Z" stroke="#1F2024" stroke-width="8"/>
</g>
<rect id="Air" x="27" y="230.004" width="8" height="20" rx="4" fill="#1F2024"/>
<rect id="Air_2" x="39" y="230.004" width="8" height="20" rx="4" fill="#1F2024"/>
</g>
</g>
<g id="Subtract">
<mask id="path-19-inside-1_5817_125891" fill="white">
<path fill-rule="evenodd" clip-rule="evenodd" d="M75 108H268.35C264.282 58.1708 222.553 19 171.675 19C120.797 19 79.0679 58.1708 75 108Z"/>
</mask>
<path fill-rule="evenodd" clip-rule="evenodd" d="M75 108H268.35C264.282 58.1708 222.553 19 171.675 19C120.797 19 79.0679 58.1708 75 108Z" fill="#5DE59C"/>
<path d="M75 108L67.0265 107.349L66.3203 116H75V108ZM268.35 108V116H277.029L276.323 107.349L268.35 108ZM75 116H268.35V100H75V116ZM171.675 27C218.353 27 256.644 62.9396 260.376 108.651L276.323 107.349C271.919 53.4019 226.753 11 171.675 11V27ZM82.9735 108.651C86.7052 62.9396 124.997 27 171.675 27V11C116.597 11 71.4306 53.4019 67.0265 107.349L82.9735 108.651Z" fill="black" mask="url(#path-19-inside-1_5817_125891)"/>
</g>
<path id="Vector 6959" d="M150 54.7542C147.6 47.1542 162.333 34.2547 170 27.2547C168 26.5 160.5 27.0014 158 28C151.944 30.4191 140 46.4989 142.5 54.7542C144.245 60.5166 152.5 72.7542 147.5 76.7542C143.5 79.9542 137.833 91.9219 137 99.7553H150.941C152.5 99.7553 151.708 98.5966 150 97.2542C143.004 91.7542 153.997 81.7542 156.997 76.7542C159.997 71.7542 153 64.2542 150 54.7542Z" fill="#E6FF8B"/>
<path id="Vector 6960" d="M196.5 47C200.5 42.6 196.5 33.5 187.529 29.5069C186.329 27.9069 187.292 28.3821 188.031 28.5066C191.028 29.0069 195.381 29.8654 198.031 31.0062C201.5 32.5 205.5 45 201 51.5C196.856 57.4856 210.029 61.0062 213.529 65.0062C217.029 69.0062 208.093 74.0559 212.029 79.0062C216 84 224.5 93.5 222.029 100.006H213.529C215.929 100.006 214.529 94.8333 213.529 92.5C210.029 86.6667 203 79.0062 204.029 75.0062C206.32 66.1027 208.531 69.0062 204.029 66.0062C194.031 59.3427 192.5 51.4 196.5 47Z" fill="#E6FF8B"/>
<path id="Vector 6961" d="M113.5 65C111.5 61 121.331 46.6667 125.497 40C124.165 40.5 120.299 42.6 115.497 47C109.495 52.5 106.5 62 106.5 65C106.5 68 108 69.5 104.5 73.5C101.7 76.7 102 80.8333 102.5 82.5C105.7 99.7 98.5 99.5 98.5 100H108C110.499 97 113.414 92.1112 110.997 89C107.5 84.5 109 78.8679 109.497 78C111.5 74.5 116 70 113.5 65Z" fill="#E6FF8B"/>
<path id="Vector 6962" d="M175.5 22C176.167 16.1667 179.1 4.4 185.5 4" stroke="black" stroke-width="8" stroke-linecap="round"/>
<path id="Vector 6963" d="M245.575 82.4995C249.975 86.8995 248.741 95.9995 247.575 99.9995H242.571C244.573 99.9995 243.575 86.9995 240.569 85.9995C237.563 84.9995 235.489 77.7122 237.071 73.4995C239.512 66.9993 236.086 68.6743 231.513 55.4993C227 42.5 234.737 52.9995 237.071 55.4995C238.304 56.8211 240.566 59.4995 242.569 61.9995C244.874 64.878 244.407 68.1661 243.575 68.9995C242.408 71.6661 241.175 78.0995 245.575 82.4995Z" fill="#E6FF8B"/>
</g>
<defs>
<filter id="filter0_ii_5817_125891" x="4" y="102.004" width="248" height="248" filterUnits="userSpaceOnUse" color-interpolation-filters="sRGB">
<feFlood flood-opacity="0" result="BackgroundImageFix"/>
<feBlend mode="normal" in="SourceGraphic" in2="BackgroundImageFix" result="shape"/>
<feColorMatrix in="SourceAlpha" type="matrix" values="0 0 0 0 0 0 0 0 0 0 0 0 0 0 0 0 0 0 127 0" result="hardAlpha"/>
<feOffset dy="-16"/>
<feComposite in2="hardAlpha" operator="arithmetic" k2="-1" k3="1"/>
<feColorMatrix type="matrix" values="0 0 0 0 0 0 0 0 0 0 0 0 0 0 0 0 0 0 0.25 0"/>
<feBlend mode="normal" in2="shape" result="effect1_innerShadow_5817_125891"/>
<feColorMatrix in="SourceAlpha" type="matrix" values="0 0 0 0 0 0 0 0 0 0 0 0 0 0 0 0 0 0 127 0" result="hardAlpha"/>
<feOffset dy="16"/>
<feComposite in2="hardAlpha" operator="arithmetic" k2="-1" k3="1"/>
<feColorMatrix type="matrix" values="0 0 0 0 1 0 0 0 0 1 0 0 0 0 1 0 0 0 0.25 0"/>
<feBlend mode="normal" in2="effect1_innerShadow_5817_125891" result="effect2_innerShadow_5817_125891"/>
</filter>
<filter id="filter1_i_5817_125891" x="104" y="102.004" width="232" height="248" filterUnits="userSpaceOnUse" color-interpolation-filters="sRGB">
<feFlood flood-opacity="0" result="BackgroundImageFix"/>
<feBlend mode="normal" in="SourceGraphic" in2="BackgroundImageFix" result="shape"/>
<feColorMatrix in="SourceAlpha" type="matrix" values="0 0 0 0 0 0 0 0 0 0 0 0 0 0 0 0 0 0 127 0" result="hardAlpha"/>
<feOffset dx="-24" dy="8"/>
<feComposite in2="hardAlpha" operator="arithmetic" k2="-1" k3="1"/>
<feColorMatrix type="matrix" values="0 0 0 0 1 0 0 0 0 1 0 0 0 0 1 0 0 0 0.25 0"/>
<feBlend mode="normal" in2="shape" result="effect1_innerShadow_5817_125891"/>
</filter>
<filter id="filter2_ddi_5817_125891" x="141" y="163.004" width="67" height="93" filterUnits="userSpaceOnUse" color-interpolation-filters="sRGB">
<feFlood flood-opacity="0" result="BackgroundImageFix"/>
<feColorMatrix in="SourceAlpha" type="matrix" values="0 0 0 0 0 0 0 0 0 0 0 0 0 0 0 0 0 0 127 0" result="hardAlpha"/>
<feOffset dx="-4"/>
<feColorMatrix type="matrix" values="0 0 0 0 1 0 0 0 0 1 0 0 0 0 1 0 0 0 0.25 0"/>
<feBlend mode="normal" in2="BackgroundImageFix" result="effect1_dropShadow_5817_125891"/>
<feColorMatrix in="SourceAlpha" type="matrix" values="0 0 0 0 0 0 0 0 0 0 0 0 0 0 0 0 0 0 127 0" result="hardAlpha"/>
<feOffset dx="4"/>
<feColorMatrix type="matrix" values="0 0 0 0 0 0 0 0 0 0 0 0 0 0 0 0 0 0 0.25 0"/>
<feBlend mode="normal" in2="effect1_dropShadow_5817_125891" result="effect2_dropShadow_5817_125891"/>
<feBlend mode="normal" in="SourceGraphic" in2="effect2_dropShadow_5817_125891" result="shape"/>
<feColorMatrix in="SourceAlpha" type="matrix" values="0 0 0 0 0 0 0 0 0 0 0 0 0 0 0 0 0 0 127 0" result="hardAlpha"/>
<feOffset dx="-4"/>
<feComposite in2="hardAlpha" operator="arithmetic" k2="-1" k3="1"/>
<feColorMatrix type="matrix" values="0 0 0 0 0 0 0 0 0 0 0 0 0 0 0 0 0 0 0.25 0"/>
<feBlend mode="normal" in2="shape" result="effect3_innerShadow_5817_125891"/>
</filter>
<filter id="filter3_ddi_5817_125891" x="235" y="163.004" width="67" height="93" filterUnits="userSpaceOnUse" color-interpolation-filters="sRGB">
<feFlood flood-opacity="0" result="BackgroundImageFix"/>
<feColorMatrix in="SourceAlpha" type="matrix" values="0 0 0 0 0 0 0 0 0 0 0 0 0 0 0 0 0 0 127 0" result="hardAlpha"/>
<feOffset dx="-4"/>
<feColorMatrix type="matrix" values="0 0 0 0 1 0 0 0 0 1 0 0 0 0 1 0 0 0 0.25 0"/>
<feBlend mode="normal" in2="BackgroundImageFix" result="effect1_dropShadow_5817_125891"/>
<feColorMatrix in="SourceAlpha" type="matrix" values="0 0 0 0 0 0 0 0 0 0 0 0 0 0 0 0 0 0 127 0" result="hardAlpha"/>
<feOffset dx="4"/>
<feColorMatrix type="matrix" values="0 0 0 0 0 0 0 0 0 0 0 0 0 0 0 0 0 0 0.25 0"/>
<feBlend mode="normal" in2="effect1_dropShadow_5817_125891" result="effect2_dropShadow_5817_125891"/>
<feBlend mode="normal" in="SourceGraphic" in2="effect2_dropShadow_5817_125891" result="shape"/>
<feColorMatrix in="SourceAlpha" type="matrix" values="0 0 0 0 0 0 0 0 0 0 0 0 0 0 0 0 0 0 127 0" result="hardAlpha"/>
<feOffset dx="-4"/>
<feComposite in2="hardAlpha" operator="arithmetic" k2="-1" k3="1"/>
<feColorMatrix type="matrix" values="0 0 0 0 0 0 0 0 0 0 0 0 0 0 0 0 0 0 0.25 0"/>
<feBlend mode="normal" in2="shape" result="effect3_innerShadow_5817_125891"/>
</filter>
<filter id="filter4_ii_5817_125891" x="6" y="207.004" width="89" height="64" filterUnits="userSpaceOnUse" color-interpolation-filters="sRGB">
<feFlood flood-opacity="0" result="BackgroundImageFix"/>
<feBlend mode="normal" in="SourceGraphic" in2="BackgroundImageFix" result="shape"/>
<feColorMatrix in="SourceAlpha" type="matrix" values="0 0 0 0 0 0 0 0 0 0 0 0 0 0 0 0 0 0 127 0" result="hardAlpha"/>
<feOffset dy="-16"/>
<feComposite in2="hardAlpha" operator="arithmetic" k2="-1" k3="1"/>
<feColorMatrix type="matrix" values="0 0 0 0 0 0 0 0 0 0 0 0 0 0 0 0 0 0 0.25 0"/>
<feBlend mode="normal" in2="shape" result="effect1_innerShadow_5817_125891"/>
<feColorMatrix in="SourceAlpha" type="matrix" values="0 0 0 0 0 0 0 0 0 0 0 0 0 0 0 0 0 0 127 0" result="hardAlpha"/>
<feOffset dy="16"/>
<feComposite in2="hardAlpha" operator="arithmetic" k2="-1" k3="1"/>
<feColorMatrix type="matrix" values="0 0 0 0 1 0 0 0 0 1 0 0 0 0 1 0 0 0 0.25 0"/>
<feBlend mode="normal" in2="effect1_innerShadow_5817_125891" result="effect2_innerShadow_5817_125891"/>
</filter>
<filter id="filter5_i_5817_125891" x="63" y="207.004" width="32" height="64" filterUnits="userSpaceOnUse" color-interpolation-filters="sRGB">
<feFlood flood-opacity="0" result="BackgroundImageFix"/>
<feBlend mode="normal" in="SourceGraphic" in2="BackgroundImageFix" result="shape"/>
<feColorMatrix in="SourceAlpha" type="matrix" values="0 0 0 0 0 0 0 0 0 0 0 0 0 0 0 0 0 0 127 0" result="hardAlpha"/>
<feOffset dx="-24" dy="8"/>
<feComposite in2="hardAlpha" operator="arithmetic" k2="-1" k3="1"/>
<feColorMatrix type="matrix" values="0 0 0 0 1 0 0 0 0 1 0 0 0 0 1 0 0 0 0.25 0"/>
<feBlend mode="normal" in2="shape" result="effect1_innerShadow_5817_125891"/>
</filter>
</defs>
</svg>
