<svg width="54" height="34" viewBox="0 0 54 34" fill="none" xmlns="http://www.w3.org/2000/svg">
<g id="5">
<g id="Group 214">
<path id="Vector" d="M23.0974 14.1193C17.879 16.303 15.4009 22.347 17.5624 27.6192C19.724 32.891 25.7066 35.3947 30.925 33.2109C36.1433 31.0271 38.6216 24.9829 36.4599 19.711C34.2985 14.4391 28.3158 11.9356 23.0974 14.1193Z" fill="#ABFFFF"/>
<g id="Group" opacity="0.67">
<path id="Vector_2" d="M17.7864 22.1571C16.9583 27.3111 20.4226 32.1673 25.5242 33.004C30.6258 33.8408 35.4328 30.3408 36.261 25.1868C37.0888 20.0328 33.6246 15.1765 28.523 14.3399C23.4215 13.5033 18.6145 17.0032 17.7864 22.1571Z" fill="#8AFFFF"/>
</g>
<path id="Vector_3" d="M38.0078 27.8076C38.0078 26.39 33.0942 25.6973 27.0504 25.6973C21.0066 25.6973 16.0711 26.39 16.0711 27.8076C16.0711 29.2252 20.9848 31.7275 27.0504 31.7275C33.116 31.7275 38.0078 29.2252 38.0078 27.8076Z" fill="url(#paint0_linear_6029_122163)"/>
<path id="Vector_4" style="mix-blend-mode:multiply" opacity="0.64" d="M16.0641 27.8076C16.0641 26.39 20.9777 25.6973 27.027 25.6973C33.0762 25.6973 37.9844 26.39 37.9844 27.8076C37.9844 28.4466 36.9907 29.3004 35.3474 30.0414C33.5785 30.1166 26.8577 30.428 23.915 30.8468C23.3364 30.9268 22.7624 31.0361 22.1952 31.1744C18.581 30.3689 16.0641 28.8171 16.0641 27.8076Z" fill="url(#paint1_linear_6029_122163)"/>
<path id="Vector_5" d="M44.4531 23.6724C44.4531 21.2883 36.6459 20.123 27.0206 20.123C17.3954 20.123 9.58816 21.2883 9.58816 23.6724C9.58816 26.0566 17.3899 30.2235 27.0206 30.2235C36.6514 30.2235 44.4531 26.0351 44.4531 23.6724Z" fill="url(#paint2_linear_6029_122163)"/>
<path id="Vector_6" style="mix-blend-mode:multiply" opacity="0.64" d="M9.61001 23.6724C9.61001 21.2883 17.4118 20.123 27.0425 20.123C36.6732 20.123 44.4531 21.2614 44.4531 23.6724C44.4531 24.7464 42.8698 26.1855 40.2492 27.4313C37.443 27.5601 26.7531 28.081 22.0688 28.7844C21.1502 28.9179 20.2391 29.0971 19.339 29.3214C13.5846 27.9682 9.61001 25.3532 9.61001 23.6724Z" fill="url(#paint3_linear_6029_122163)"/>
<path id="Vector_7" d="M53.9856 14.8299C53.9856 18.349 41.8974 29.3045 27.0006 29.3045C12.1039 29.3045 0.015625 18.349 0.015625 14.8299C0.015625 11.3108 12.1039 8.44043 27.0006 8.44043C41.8974 8.44043 53.9856 11.3108 53.9856 14.8299Z" fill="url(#paint4_linear_6029_122163)"/>
<path id="Vector_8" style="mix-blend-mode:multiply" opacity="0.52" d="M52.0226 12.4614L31.2891 21.7409C31.2891 21.7409 43.6122 21.7409 44.7366 22.026C45.861 22.311 38.1602 27.2997 38.1353 27.3194H38.1702L39.2696 26.9065C48.0098 23.4661 53.9915 17.3125 53.9915 14.8403C53.9865 13.9851 53.2869 13.179 52.0226 12.4614Z" fill="url(#paint5_linear_6029_122163)"/>
<path id="Vector_9" style="mix-blend-mode:multiply" opacity="0.52" d="M26.985 8.46045C12.0733 8.46045 0 11.3111 0 14.8499C0 15.9165 1.11937 17.676 3.08828 19.6027C6.92202 20.9962 10.8879 22.0088 14.9267 22.6254C32.5069 25.5204 36.6396 23.4905 37.1993 25.7661C37.3411 26.3958 37.3274 27.0497 37.1594 27.6731C47.0339 24.4735 54 17.5188 54 14.8499C53.985 11.3111 41.8967 8.46045 26.985 8.46045Z" fill="url(#paint6_linear_6029_122163)"/>
<path id="Vector_10" style="mix-blend-mode:multiply" opacity="0.52" d="M53.9821 14.8296C53.9821 12.092 46.6562 9.75735 36.3719 8.85791C19.7711 12.1804 0.192005 16.9725 7.69784 19.8822C20.081 24.6841 37.956 23.018 37.956 23.765C37.956 24.5121 36.3569 26.9893 28.5512 28.0656C20.7456 29.142 13.0599 26.2078 13.0099 26.1783C17.3914 28.1969 22.1639 29.2631 27.0021 29.3042C41.8938 29.3042 53.9821 18.3586 53.9821 14.8296Z" fill="url(#paint7_linear_6029_122163)"/>
<path id="Vector_11" d="M53.9856 14.8299C53.9856 18.349 41.8974 21.2194 27.0006 21.2194C12.1039 21.2194 0.015625 18.3687 0.015625 14.8299C0.015625 11.2911 12.1039 8.44043 27.0006 8.44043C41.8974 8.44043 53.9856 11.3108 53.9856 14.8299Z" fill="url(#paint8_linear_6029_122163)"/>
<path id="Vector_12" style="mix-blend-mode:screen" opacity="0.34" d="M10.761 10.1411C10.761 10.1411 1.49112 11.7778 1.05137 14.2451C0.676575 16.3487 5.45392 19.5729 22.5394 20.5363C22.5394 20.5363 22.3345 18.3049 21.0403 17.7249C19.746 17.1449 10.0014 16.9238 8.75709 13.5914C7.99751 11.6058 10.761 10.1411 10.761 10.1411Z" fill="url(#paint9_linear_6029_122163)"/>
<path id="Vector_13" style="mix-blend-mode:multiply" d="M0.565576 14.8302C0.565576 14.8302 3.42399 12.8986 8.72105 13.1591C8.79092 13.3999 8.91568 13.6217 9.08585 13.8079C9.08585 13.8079 4.58834 14.5796 2.16469 16.924C2.1447 16.924 0.255748 15.8476 0.565576 14.8302ZM15.0875 16.4276C15.0875 16.4276 12.6788 16.9191 11.8093 19.8681L14.4429 20.2269C14.4429 20.2269 14.273 18.1822 17.0514 16.9142L15.0875 16.4276ZM10.7499 10.3428L9.96535 10.0332L7.77157 10.4461C8.5882 10.5008 9.38209 10.7342 10.0953 11.1292L10.7499 10.3428ZM53.7261 14.8302C53.7261 14.8302 50.8626 12.8986 45.5656 13.1591C45.4985 13.401 45.3734 13.6234 45.2008 13.8079C45.2008 13.8079 49.6983 14.5796 52.1269 16.924C52.1419 16.924 54.0459 15.8476 53.741 14.8302H53.7261ZM28.1303 17.558H26.1764C26.1764 17.558 25.6466 18.251 25.5317 20.9248H28.7749C28.63 18.251 28.1303 17.558 28.1303 17.558ZM37.2702 16.924C40.0436 18.1921 39.8737 20.2367 39.8737 20.2367L42.5123 19.8779C41.6428 16.9289 39.2291 16.4374 39.2291 16.4374L37.2702 16.924ZM44.2213 11.1292C44.9364 10.7343 45.7318 10.5009 46.55 10.4461L44.3563 10.0332L43.5717 10.3428L44.2213 11.1292Z" fill="url(#paint10_linear_6029_122163)"/>
<path id="Vector_14" style="mix-blend-mode:multiply" d="M10.5546 10.5837L10.7544 10.3429L9.96988 10.0332L9.19531 10.1757C9.65932 10.2736 10.114 10.4101 10.5546 10.5837V10.5837Z" fill="url(#paint11_linear_6029_122163)"/>
<path id="Vector_15" style="mix-blend-mode:multiply" d="M11.8203 19.8776H11.8553C12.1365 19.2734 12.5467 18.7358 13.058 18.3016C13.5694 17.8673 14.1699 17.5466 14.8187 17.3611L15.8781 17.6265C16.2444 17.3473 16.6417 17.1099 17.0624 16.9187L15.0985 16.4272C15.0985 16.4272 12.6898 16.9237 11.8203 19.8776Z" fill="url(#paint12_linear_6029_122163)"/>
<path id="Vector_16" style="mix-blend-mode:multiply" d="M26.1431 18.5209H28.142C28.142 18.5209 28.5468 19.0419 28.7317 20.9244H28.7666C28.6517 18.2506 28.122 17.5576 28.122 17.5576H26.1681C26.1681 17.5576 25.6384 18.2506 25.5234 20.9244H25.5584C25.7483 19.0419 26.1431 18.5209 26.1431 18.5209Z" fill="url(#paint13_linear_6029_122163)"/>
<path id="Vector_17" style="mix-blend-mode:multiply" d="M0.574269 14.8295C0.51691 15.0053 0.51691 15.1944 0.574269 15.3702C2.94527 14.3045 5.54934 13.8383 8.15006 14.0136C8.72474 13.8711 9.08454 13.8072 9.08454 13.8072C8.91438 13.621 8.78962 13.3992 8.71974 13.1584C3.43268 12.8979 0.574269 14.8295 0.574269 14.8295Z" fill="url(#paint14_linear_6029_122163)"/>
<path id="Vector_18" style="mix-blend-mode:multiply" d="M53.7268 15.3702C53.7924 15.197 53.8011 15.0079 53.7518 14.8295C53.7518 14.8295 50.8884 12.8979 45.5914 13.1584C45.5242 13.4003 45.3991 13.6227 45.2266 13.8072C45.2266 13.8072 45.5914 13.8711 46.166 14.0136C48.7618 13.8403 51.3605 14.3066 53.7268 15.3702V15.3702Z" fill="url(#paint15_linear_6029_122163)"/>
<path id="Vector_19" style="mix-blend-mode:multiply" d="M39.5094 17.3757C40.1575 17.5612 40.7573 17.882 41.2678 18.3163C41.7784 18.7506 42.1877 19.2881 42.4677 19.8922H42.5077C41.6382 16.9432 39.2245 16.4517 39.2245 16.4517L37.2656 16.9432C37.6848 17.1342 38.0805 17.3716 38.445 17.6509L39.5094 17.3757Z" fill="url(#paint16_linear_6029_122163)"/>
<path id="Vector_20" style="mix-blend-mode:multiply" d="M45.1045 10.1757L44.3549 10.0332L43.5703 10.3428L43.8552 10.6869C44.2433 10.4562 44.6644 10.2839 45.1045 10.1757Z" fill="url(#paint17_linear_6029_122163)"/>
<path id="Vector_21" style="mix-blend-mode:screen" d="M26.985 21.2001C12.4581 21.2001 0.614658 18.4919 0 15.1006C0.379789 19.2537 12.0633 21.7407 26.985 21.7407C41.9067 21.7407 53.5203 18.9638 53.97 15.1006C53.3554 18.4919 41.5119 21.2001 26.985 21.2001Z" fill="url(#paint18_linear_6029_122163)"/>
<path id="Vector_22" style="mix-blend-mode:screen" d="M7.79236 10.7944C5.40368 11.3941 2.29541 12.3918 1.33594 13.6451C3.62796 12.63 6.14995 12.2216 8.65188 12.4606C8.78828 11.9584 9.05722 11.5006 9.43145 11.1336C8.89175 11.0254 8.34205 10.9124 7.79236 10.7944Z" fill="url(#paint19_linear_6029_122163)"/>
<path id="Vector_23" style="mix-blend-mode:screen" d="M16.9042 17.2584C16.7393 17.3567 16.5744 17.4698 16.4045 17.5828C15.6572 18.1539 15.1402 18.9672 14.9453 19.8781C17.1441 20.1533 19.6477 20.3696 22.5011 20.5367C22.5011 20.5367 22.2962 18.3053 21.0019 17.7253C20.5422 17.5189 19.033 17.3616 17.224 17.0913C17.1145 17.1414 17.0077 17.1972 16.9042 17.2584V17.2584Z" fill="url(#paint20_linear_6029_122163)"/>
<path id="Vector_24" style="mix-blend-mode:screen" d="M13.7363 16.4462C11.8473 15.9941 10.1033 15.3502 9.23879 14.3623C7.03722 14.7416 4.94735 15.5923 3.11719 16.8542C4.7113 17.7536 7.33485 18.6334 11.3226 19.3362C11.752 18.1212 12.6078 17.0965 13.7363 16.4462Z" fill="url(#paint21_linear_6029_122163)"/>
<path id="Vector_25" style="mix-blend-mode:screen" d="M4.8125 20.9253C4.8125 20.9253 9.17008 24.2626 12.3883 25.6289C12.3883 25.6289 17.5154 27.6932 21.7231 27.3197C25.9308 26.9461 13.4727 25.6142 4.8125 20.9253Z" fill="url(#paint22_linear_6029_122163)"/>
<path id="Vector_26" style="mix-blend-mode:multiply" opacity="0.33" d="M31.0472 3.61426C30.1778 4.75622 28.9775 5.61288 27.6041 6.07176C26.5382 6.34513 25.436 6.45619 24.3359 6.40107C25.3785 6.58141 26.4356 6.66859 27.4942 6.66156C32.9112 6.66156 34.8151 5.02486 34.8151 5.02486C33.6689 4.30915 32.3872 3.8293 31.0472 3.61426V3.61426Z" fill="url(#paint23_linear_6029_122163)"/>
</g>
<g id="Group 2087324058">
<g id="Group 2087324057">
<path id="Vector_27" d="M44.9043 14.5127C44.9043 15.9817 36.7943 17.1348 26.7949 17.1348C16.7955 17.1348 8.64062 15.9817 8.64062 14.5127C8.64062 13.0437 16.7507 11.9126 26.7575 11.9126C36.7644 11.9126 44.9043 13.0878 44.9043 14.5127Z" fill="#477290"/>
<path id="Vector_28" d="M45.1147 13.9188L42.7399 4.88455C42.7399 4.88455 41.1791 2.87939 26.8559 2.87939C12.3833 2.87939 10.9719 4.88455 10.9719 4.88455L8.54484 14.0951C8.36561 14.8295 9.35136 15.52 10.0384 15.7917C14.1606 17.437 25.198 17.5472 26.7737 17.5545C26.7737 17.5545 38.5803 17.437 43.2029 15.8578C43.9796 15.5787 45.3312 14.7341 45.1147 13.9188Z" fill="url(#paint24_linear_6029_122163)"/>
<path id="Vector_29" d="M42.729 4.88525C42.729 5.99433 35.6122 7.30907 26.845 7.30907C18.0778 7.30907 10.9609 5.99433 10.9609 4.88525C10.9609 3.77617 18.0703 2.63037 26.845 2.63037C35.6196 2.63037 42.729 3.77617 42.729 4.88525Z" fill="#85EFFF"/>
<g id="Vector_30" style="mix-blend-mode:screen" opacity="0.63">
<path d="M10.9625 5.76562L8.79688 14.249C8.79688 14.249 10.7236 8.10865 11.784 7.89565C12.8444 7.68265 21.1412 9.5409 31.2824 7.99113C31.2899 7.99113 15.9062 8.3951 10.9625 5.76562Z" fill="#85EFFF"/>
</g>
<g id="Vector_31" style="mix-blend-mode:screen">
<path d="M25.9356 2.63037C17.5866 2.71116 11 3.82024 11 4.88525C11 5.19374 11.5377 5.50957 12.4936 5.81071C12.7101 5.43612 14.6368 3.49707 25.9356 2.63037Z" fill="#85EFFF"/>
</g>
<g id="Vector_32" style="mix-blend-mode:screen">
<path d="M26.9037 7.30734C29.4105 5.23838 32.3745 3.77451 35.5589 3.03262C35.0361 2.9812 34.4984 2.92979 33.9384 2.89307C29.1366 4.96433 19.518 6.69772 17.0312 6.71975C20.2885 7.12225 23.5686 7.31852 26.8514 7.30734H26.9037Z" fill="#85EFFF"/>
</g>
<g id="Vector_33" style="mix-blend-mode:screen">
<path d="M40.8358 3.87876C40.4549 3.77593 40.0143 3.68044 39.5289 3.58496C37.9955 5.37284 35.8882 6.59312 33.5547 7.04441C34.8765 6.94158 36.0937 6.80937 37.184 6.65513C38.1921 5.49038 39.4358 4.54485 40.8358 3.87876Z" fill="#85EFFF"/>
</g>
<path id="Vector_34" d="M45.3966 13.5596C44.9074 14.1201 44.2518 14.5157 43.5222 14.6907C38.8249 16.3066 26.7644 16.4241 26.7644 16.4241C25.1514 16.4241 13.875 16.3066 9.66315 14.6246C9.10452 14.4103 8.62174 14.0401 8.27414 13.5596L8.13972 14.0664C7.95302 14.8009 8.96864 15.5353 9.63328 15.7998C13.875 17.4524 25.1514 17.5919 26.7644 17.5993C26.7644 17.5993 38.8249 17.4817 43.5222 15.8659C44.3511 15.5794 45.7625 14.7201 45.5161 13.8827L45.3966 13.5596Z" fill="url(#paint25_linear_6029_122163)"/>
<path id="Vector_35" d="M44.9027 13.3022L45.0147 13.6989C42.2516 16.2329 26.7559 16.2475 26.7559 16.2475C26.7559 16.2475 11.3797 16.2475 8.63902 13.6989L8.74357 13.3022C8.74357 13.3022 8.32537 13.3022 8.26562 13.5593C8.26562 13.5593 8.63901 16.4238 26.7559 16.4238C45.0147 16.4238 45.4254 13.5593 45.4254 13.5593C45.3283 13.339 44.9027 13.3022 44.9027 13.3022Z" fill="url(#paint26_linear_6029_122163)"/>
<g id="Vector_36" style="mix-blend-mode:screen" opacity="0.58">
<path d="M9.05469 13.3015L10.9739 5.76562C10.9739 5.76562 15.589 8.02785 25.4092 7.96909C25.4092 7.96909 24.0874 13.1472 16.2014 15.2552C16.1864 15.2479 9.9807 14.8219 9.05469 13.3015Z" fill="#85EFFF"/>
</g>
<g id="Vector_37" style="mix-blend-mode:screen" opacity="0.58">
<path d="M34.1875 15.7253C34.1875 15.7253 37.5854 11.4065 37.3688 7.30805C37.3688 7.30805 41.1774 7.08036 42.7381 5.76562L44.6126 13.5586C44.6126 13.5586 43.8508 14.888 34.1875 15.7253Z" fill="#85EFFF"/>
</g>
</g>
<g id="Group 2087324054">
<path id="Vector_38" d="M39.29 4.62729C39.29 4.62729 35.8175 0.0367245 26.9159 0H26.8113C17.9097 0 14.4297 4.62729 14.4297 4.62729C16.5954 6.27989 26.072 6.30192 26.8636 6.30192C27.6552 6.30192 37.1318 6.27989 39.29 4.62729Z" fill="url(#paint27_linear_6029_122163)"/>
<path id="Vector_39" style="mix-blend-mode:multiply" opacity="0.24" d="M30.5452 0.293457C30.533 0.452351 30.5055 0.609747 30.4631 0.76353C30.1548 1.59567 29.5388 2.28286 28.738 2.68789C27.0669 3.59774 25.2085 4.12498 23.3014 4.23032C22.2028 4.34899 21.0955 4.36866 19.9932 4.28908C18.9483 4.26312 17.9246 3.99378 17.0061 3.50318C16.7641 3.352 16.5579 3.15165 16.4012 2.91558C15.6634 3.40093 14.9996 3.98705 14.4297 4.65633C16.5954 6.30893 26.072 6.33096 26.8636 6.33096C27.6552 6.33096 37.1318 6.33096 39.29 4.65633C39.2825 4.62695 36.7659 1.29236 30.5452 0.293457Z" fill="url(#paint28_linear_6029_122163)"/>
<path id="Vector_40" style="mix-blend-mode:multiply" opacity="0.24" d="M36.2425 2.22559C35.8645 2.82011 35.3724 3.33653 34.7937 3.74598C33.358 4.73123 31.7043 5.36574 29.9695 5.5969C28.2051 5.86852 26.4232 6.01579 24.6375 6.03759C22.5867 6.14273 20.5307 5.98471 18.5214 5.56752C17.6864 5.38197 16.875 5.10608 16.1018 4.74489C15.695 4.56399 15.3312 4.30128 15.0339 3.97367C14.8129 4.17794 14.6058 4.39631 14.4141 4.62737C16.5797 6.27997 26.0564 6.30201 26.848 6.30201C27.6395 6.30201 37.1162 6.30201 39.2744 4.62737C38.4255 3.64714 37.3971 2.83242 36.2425 2.22559Z" fill="url(#paint29_linear_6029_122163)"/>
<g id="Vector_41" style="mix-blend-mode:screen" opacity="0.48">
<path d="M19.1354 3.37765C18.8665 3.37765 17.9779 3.32623 18.06 2.83413C18.1024 2.6508 18.2147 2.49045 18.3737 2.38609C19.132 1.8288 19.9949 1.42443 20.9127 1.19621C22.0176 0.84708 23.1487 0.584296 24.2956 0.410311C24.9119 0.284978 25.5497 0.307654 26.1551 0.476416C26.3493 0.54252 26.5435 0.615968 26.5957 0.82897C26.624 0.965262 26.6123 1.10665 26.5621 1.23667C26.5119 1.3667 26.4251 1.48002 26.312 1.56346C25.8266 2.01609 25.2625 2.37931 24.6466 2.63582C22.8925 3.29842 21.0061 3.55233 19.1354 3.37765V3.37765Z" fill="#B0C3D0"/>
</g>
<g id="Vector_42" style="mix-blend-mode:screen" opacity="0.58">
<path d="M10.959 5.76562C10.959 5.76562 18.5911 9.64373 38.799 7.1685C38.4014 7.97124 37.8144 8.66878 37.0869 9.20288C36.3594 9.73698 35.5125 10.0921 34.617 10.2387C29.5314 10.9071 28.2619 8.86517 21.735 9.34259C18.0833 9.60701 13.6997 14.9835 13.6997 14.9835C13.6997 14.9835 9.69692 14.5134 9.05469 13.3015L10.959 5.76562Z" fill="#85EFFF"/>
</g>
<path id="Vector_43" d="M42.7525 4.88379C42.7525 4.88379 43.4097 4.1493 37.6894 3.15039L38.242 3.58374C38.242 3.58374 41.9087 4.03178 41.9759 4.64875C42.0431 5.26572 37.4355 6.99912 26.8536 7.04319C16.2717 7.08726 11.6267 5.25838 11.7163 4.64875C11.8059 4.03912 15.4502 3.58374 15.4502 3.58374L16.0029 3.15039C10.2825 4.15664 10.9397 4.88379 10.9397 4.88379L8.61719 13.6977L9.24448 14.131L11.3952 5.69907C13.3667 6.98443 19.8114 7.64547 19.8114 7.64547L18.6315 15.9158L19.7293 16.004L20.7822 7.72626C22.7984 7.93938 24.8262 8.0277 26.8536 7.99068C28.8909 8.02858 30.9287 7.94027 32.9548 7.72626L33.9853 15.9819L35.0831 15.8938L33.8957 7.64547C33.8957 7.64547 40.3479 6.98443 42.3194 5.69907L44.4477 14.131L45.075 13.6977L42.7525 4.88379Z" fill="url(#paint30_linear_6029_122163)"/>
<path id="Vector_44" style="mix-blend-mode:multiply" d="M18.8867 14.1322L18.6328 15.917L19.7306 16.0051L20.2608 11.5762C19.9226 12.4855 19.4604 13.3453 18.8867 14.1322V14.1322Z" fill="url(#paint31_linear_6029_122163)"/>
<path id="Vector_45" style="mix-blend-mode:multiply" d="M42.7564 4.88602C42.7564 4.88602 42.8386 4.79054 42.6743 4.61426C42.0919 5.51677 41.2151 6.1979 40.1875 6.54597C40.9369 6.36659 41.6562 6.08212 42.3233 5.7013L44.4516 14.1332L45.0789 13.6999L42.7564 4.88602Z" fill="url(#paint32_linear_6029_122163)"/>
<path id="Vector_46" style="mix-blend-mode:multiply" d="M34.0283 9.15031C34.0443 10.4927 33.9091 11.8328 33.625 13.1459L33.9835 15.9811L35.0812 15.8929L34.0432 8.6582C34.0432 8.83448 34.0357 8.99607 34.0283 9.15031Z" fill="url(#paint33_linear_6029_122163)"/>
<path id="Vector_47" style="mix-blend-mode:multiply" d="M9.35857 11.0545L8.66406 13.684L9.29136 14.1173L10.5609 9.20361C10.2679 9.88221 9.86148 10.5078 9.35857 11.0545Z" fill="url(#paint34_linear_6029_122163)"/>
<path id="Vector_48" style="mix-blend-mode:multiply" d="M19.7188 15.9808H20.0324L21.0555 8.07772C21.0555 8.07772 28.5233 8.54044 32.9517 7.91613V7.70312C28.9074 8.00312 24.8459 8.00312 20.8016 7.70312L19.7188 15.9808Z" fill="url(#paint35_linear_6029_122163)"/>
<path id="Vector_49" style="mix-blend-mode:multiply" d="M9.27344 14.1326L11.4018 5.70068C11.4018 5.70068 12.7012 6.88321 19.818 7.64708L19.7806 7.9115C19.7806 7.9115 13.9408 7.30922 11.6631 6.22217L9.51988 14.2501L9.27344 14.1326Z" fill="url(#paint36_linear_6029_122163)"/>
<path id="Vector_50" style="mix-blend-mode:multiply" d="M33.8906 7.64708C33.8906 7.64708 39.7753 7.08887 42.3143 5.70068L44.4426 14.1326L44.2485 14.1987L42.1649 6.02386C39.5345 7.03083 36.7656 7.64481 33.9504 7.84539L33.8906 7.64708Z" fill="url(#paint37_linear_6029_122163)"/>
</g>
</g>
</g>
<defs>
<linearGradient id="paint0_linear_6029_122163" x1="-7720.99" y1="1191.52" x2="-7864.58" y2="989.662" gradientUnits="userSpaceOnUse">
<stop stop-color="#A4B9C8"/>
<stop offset="0.18" stop-color="#9FB5C5"/>
<stop offset="0.38" stop-color="#92ABBD"/>
<stop offset="0.59" stop-color="#7B9AB0"/>
<stop offset="0.8" stop-color="#5C829D"/>
<stop offset="1" stop-color="#3A6889"/>
</linearGradient>
<linearGradient id="paint1_linear_6029_122163" x1="-7715.21" y1="1084.59" x2="-7841.11" y2="889.88" gradientUnits="userSpaceOnUse">
<stop stop-color="#A4B9C8"/>
<stop offset="0.18" stop-color="#9FB5C5"/>
<stop offset="0.38" stop-color="#92ABBD"/>
<stop offset="0.59" stop-color="#7B9AB0"/>
<stop offset="0.8" stop-color="#5C829D"/>
<stop offset="1" stop-color="#3A6889"/>
</linearGradient>
<linearGradient id="paint2_linear_6029_122163" x1="42.8262" y1="30.2343" x2="28.1606" y2="24.4644" gradientUnits="userSpaceOnUse">
<stop stop-color="#FF398E"/>
<stop offset="0.19" stop-color="#FC3989"/>
<stop offset="0.41" stop-color="#F3387C"/>
<stop offset="0.63" stop-color="#E43865"/>
<stop offset="0.86" stop-color="#D03746"/>
<stop offset="1" stop-color="#C23631"/>
</linearGradient>
<linearGradient id="paint3_linear_6029_122163" x1="42.8262" y1="30.2343" x2="28.1606" y2="24.4644" gradientUnits="userSpaceOnUse">
<stop stop-color="#FF75FF"/>
<stop offset="0.12" stop-color="#FC73FA"/>
<stop offset="0.26" stop-color="#F36DED"/>
<stop offset="0.4" stop-color="#E464D6"/>
<stop offset="0.55" stop-color="#CF57B7"/>
<stop offset="0.71" stop-color="#B4468E"/>
<stop offset="0.86" stop-color="#93325D"/>
<stop offset="1" stop-color="#721E2C"/>
</linearGradient>
<linearGradient id="paint4_linear_6029_122163" x1="12011.6" y1="6807.21" x2="12167.3" y2="7608.34" gradientUnits="userSpaceOnUse">
<stop stop-color="#D6D4DB"/>
<stop offset="1" stop-color="#857F93"/>
</linearGradient>
<linearGradient id="paint5_linear_6029_122163" x1="6001.34" y1="5218.69" x2="6050.48" y2="5368.01" gradientUnits="userSpaceOnUse">
<stop stop-color="#D6D4DB"/>
<stop offset="1" stop-color="#857F93"/>
</linearGradient>
<linearGradient id="paint6_linear_6029_122163" x1="12018.2" y1="6269.1" x2="12150.9" y2="7010.96" gradientUnits="userSpaceOnUse">
<stop stop-color="#D6D4DB"/>
<stop offset="1" stop-color="#857F93"/>
</linearGradient>
<linearGradient id="paint7_linear_6029_122163" x1="11100.7" y1="6853.26" x2="11231.9" y2="7464.99" gradientUnits="userSpaceOnUse">
<stop stop-color="#D6D4DB"/>
<stop offset="1" stop-color="#857F93"/>
</linearGradient>
<linearGradient id="paint8_linear_6029_122163" x1="11435.7" y1="4615.51" x2="11721.7" y2="3762.06" gradientUnits="userSpaceOnUse">
<stop stop-color="#D6D4DB"/>
<stop offset="1" stop-color="#857F93"/>
</linearGradient>
<linearGradient id="paint9_linear_6029_122163" x1="4212.98" y1="3524.22" x2="4263.96" y2="3734.2" gradientUnits="userSpaceOnUse">
<stop stop-color="#D6D4DB"/>
<stop offset="1" stop-color="#857F93"/>
</linearGradient>
<linearGradient id="paint10_linear_6029_122163" x1="11626.1" y1="3445.9" x2="11674.4" y2="3942.61" gradientUnits="userSpaceOnUse">
<stop stop-color="#D6D4DB"/>
<stop offset="1" stop-color="#857F93"/>
</linearGradient>
<linearGradient id="paint11_linear_6029_122163" x1="317.514" y1="194.228" x2="317.776" y2="195.79" gradientUnits="userSpaceOnUse">
<stop stop-color="#D6D4DB"/>
<stop offset="1" stop-color="#857F93"/>
</linearGradient>
<linearGradient id="paint12_linear_6029_122163" x1="1091.33" y1="1222.7" x2="1094.65" y2="1233.33" gradientUnits="userSpaceOnUse">
<stop stop-color="#D6D4DB"/>
<stop offset="1" stop-color="#857F93"/>
</linearGradient>
<linearGradient id="paint13_linear_6029_122163" x1="771.978" y1="1196.33" x2="782.315" y2="1217.31" gradientUnits="userSpaceOnUse">
<stop stop-color="#D6D4DB"/>
<stop offset="1" stop-color="#857F93"/>
</linearGradient>
<linearGradient id="paint14_linear_6029_122163" x1="1595.98" y1="776.518" x2="1597.37" y2="787.753" gradientUnits="userSpaceOnUse">
<stop stop-color="#D6D4DB"/>
<stop offset="1" stop-color="#857F93"/>
</linearGradient>
<linearGradient id="paint15_linear_6029_122163" x1="2394.14" y1="768.961" x2="2396.92" y2="791.338" gradientUnits="userSpaceOnUse">
<stop stop-color="#D6D4DB"/>
<stop offset="1" stop-color="#857F93"/>
</linearGradient>
<linearGradient id="paint16_linear_6029_122163" x1="1377.56" y1="1210.13" x2="1386.49" y2="1238.76" gradientUnits="userSpaceOnUse">
<stop stop-color="#D6D4DB"/>
<stop offset="1" stop-color="#857F93"/>
</linearGradient>
<linearGradient id="paint17_linear_6029_122163" x1="453.142" y1="229.429" x2="453.468" y2="231.02" gradientUnits="userSpaceOnUse">
<stop stop-color="#D6D4DB"/>
<stop offset="1" stop-color="#857F93"/>
</linearGradient>
<linearGradient id="paint18_linear_6029_122163" x1="11457.8" y1="2418.23" x2="11540.5" y2="1943.24" gradientUnits="userSpaceOnUse">
<stop stop-color="#D6D4DB"/>
<stop offset="1" stop-color="#857F93"/>
</linearGradient>
<linearGradient id="paint19_linear_6029_122163" x1="1536.41" y1="983.401" x2="1546.87" y2="1042.51" gradientUnits="userSpaceOnUse">
<stop stop-color="#D6D4DB"/>
<stop offset="1" stop-color="#857F93"/>
</linearGradient>
<linearGradient id="paint20_linear_6029_122163" x1="1563.05" y1="1166.13" x2="1579.1" y2="1236.13" gradientUnits="userSpaceOnUse">
<stop stop-color="#D6D4DB"/>
<stop offset="1" stop-color="#857F93"/>
</linearGradient>
<linearGradient id="paint21_linear_6029_122163" x1="2031.15" y1="1707.94" x2="2054.88" y2="1808.71" gradientUnits="userSpaceOnUse">
<stop stop-color="#D6D4DB"/>
<stop offset="1" stop-color="#857F93"/>
</linearGradient>
<linearGradient id="paint22_linear_6029_122163" x1="3571.81" y1="2301.7" x2="3592.34" y2="2414.34" gradientUnits="userSpaceOnUse">
<stop stop-color="#D6D4DB"/>
<stop offset="1" stop-color="#857F93"/>
</linearGradient>
<linearGradient id="paint23_linear_6029_122163" x1="2494.38" y1="979.549" x2="2496.8" y2="1006.88" gradientUnits="userSpaceOnUse">
<stop stop-color="#D6D4DB"/>
<stop offset="1" stop-color="#857F93"/>
</linearGradient>
<linearGradient id="paint24_linear_6029_122163" x1="22.7859" y1="7.27164" x2="33.0111" y2="16.6657" gradientUnits="userSpaceOnUse">
<stop stop-color="#57FFFF"/>
<stop offset="1" stop-color="#00BBFF"/>
</linearGradient>
<linearGradient id="paint25_linear_6029_122163" x1="25.2485" y1="12.377" x2="32.1654" y2="20.4453" gradientUnits="userSpaceOnUse">
<stop stop-color="#A4B9C8"/>
<stop offset="0.15" stop-color="#9FB5C5"/>
<stop offset="0.33" stop-color="#92ABBD"/>
<stop offset="0.51" stop-color="#7B9AB0"/>
<stop offset="0.7" stop-color="#5C829D"/>
<stop offset="0.89" stop-color="#346385"/>
<stop offset="1" stop-color="#194F75"/>
</linearGradient>
<linearGradient id="paint26_linear_6029_122163" x1="25.3221" y1="11.892" x2="32.0486" y2="19.7368" gradientUnits="userSpaceOnUse">
<stop stop-color="#D7E0E7"/>
<stop offset="0.16" stop-color="#D2DCE4"/>
<stop offset="0.34" stop-color="#C5D2DC"/>
<stop offset="0.53" stop-color="#AEC1CF"/>
<stop offset="0.73" stop-color="#8FA9BC"/>
<stop offset="0.93" stop-color="#678AA4"/>
<stop offset="1" stop-color="#587F9B"/>
</linearGradient>
<linearGradient id="paint27_linear_6029_122163" x1="23.6972" y1="-0.807939" x2="27.943" y2="6.73726" gradientUnits="userSpaceOnUse">
<stop stop-color="#A4B9C8"/>
<stop offset="0.21" stop-color="#9FB5C5"/>
<stop offset="0.46" stop-color="#92ABBD"/>
<stop offset="0.71" stop-color="#7B9AB0"/>
<stop offset="0.97" stop-color="#5C829D"/>
<stop offset="1" stop-color="#587F9B"/>
</linearGradient>
<linearGradient id="paint28_linear_6029_122163" x1="1968.2" y1="188.301" x2="1979.33" y2="268.415" gradientUnits="userSpaceOnUse">
<stop stop-color="#A4B9C8"/>
<stop offset="0.21" stop-color="#9FB5C5"/>
<stop offset="0.46" stop-color="#92ABBD"/>
<stop offset="0.71" stop-color="#7B9AB0"/>
<stop offset="0.97" stop-color="#5C829D"/>
<stop offset="1" stop-color="#587F9B"/>
</linearGradient>
<linearGradient id="paint29_linear_6029_122163" x1="23.6891" y1="-0.807858" x2="27.9349" y2="6.73734" gradientUnits="userSpaceOnUse">
<stop stop-color="#A4B9C8"/>
<stop offset="0.21" stop-color="#9FB5C5"/>
<stop offset="0.46" stop-color="#92ABBD"/>
<stop offset="0.71" stop-color="#7B9AB0"/>
<stop offset="0.97" stop-color="#5C829D"/>
<stop offset="1" stop-color="#587F9B"/>
</linearGradient>
<linearGradient id="paint30_linear_6029_122163" x1="2792.9" y1="491.457" x2="2867.06" y2="782.154" gradientUnits="userSpaceOnUse">
<stop stop-color="#A4B9C8"/>
<stop offset="0.18" stop-color="#9FB5C5"/>
<stop offset="0.38" stop-color="#92ABBD"/>
<stop offset="0.59" stop-color="#7B9AB0"/>
<stop offset="0.8" stop-color="#5C829D"/>
<stop offset="1" stop-color="#3A6889"/>
</linearGradient>
<linearGradient id="paint31_linear_6029_122163" x1="129.254" y1="206.805" x2="172.356" y2="228.715" gradientUnits="userSpaceOnUse">
<stop stop-color="#A4B9C8"/>
<stop offset="0.18" stop-color="#9FB5C5"/>
<stop offset="0.38" stop-color="#92ABBD"/>
<stop offset="0.59" stop-color="#7B9AB0"/>
<stop offset="0.8" stop-color="#5C829D"/>
<stop offset="1" stop-color="#3A6889"/>
</linearGradient>
<linearGradient id="paint32_linear_6029_122163" x1="490.051" y1="258.866" x2="598.294" y2="335.735" gradientUnits="userSpaceOnUse">
<stop stop-color="#A4B9C8"/>
<stop offset="0.18" stop-color="#9FB5C5"/>
<stop offset="0.38" stop-color="#92ABBD"/>
<stop offset="0.59" stop-color="#7B9AB0"/>
<stop offset="0.8" stop-color="#5C829D"/>
<stop offset="1" stop-color="#3A6889"/>
</linearGradient>
<linearGradient id="paint33_linear_6029_122163" x1="152.54" y1="258.88" x2="197.612" y2="271.267" gradientUnits="userSpaceOnUse">
<stop stop-color="#A4B9C8"/>
<stop offset="0.18" stop-color="#9FB5C5"/>
<stop offset="0.38" stop-color="#92ABBD"/>
<stop offset="0.59" stop-color="#7B9AB0"/>
<stop offset="0.8" stop-color="#5C829D"/>
<stop offset="1" stop-color="#3A6889"/>
</linearGradient>
<linearGradient id="paint34_linear_6029_122163" x1="123.896" y1="251.402" x2="173.078" y2="277.656" gradientUnits="userSpaceOnUse">
<stop stop-color="#A4B9C8"/>
<stop offset="0.18" stop-color="#9FB5C5"/>
<stop offset="0.38" stop-color="#92ABBD"/>
<stop offset="0.59" stop-color="#7B9AB0"/>
<stop offset="0.8" stop-color="#5C829D"/>
<stop offset="1" stop-color="#3A6889"/>
</linearGradient>
<linearGradient id="paint35_linear_6029_122163" x1="19.7188" y1="11.8603" x2="32.9517" y2="11.8603" gradientUnits="userSpaceOnUse">
<stop stop-color="#3895A1"/>
<stop offset="1" stop-color="#00BBFF"/>
</linearGradient>
<linearGradient id="paint36_linear_6029_122163" x1="634.354" y1="397.437" x2="783.243" y2="397.437" gradientUnits="userSpaceOnUse">
<stop stop-color="#3895A1"/>
<stop offset="1" stop-color="#00BBFF"/>
</linearGradient>
<linearGradient id="paint37_linear_6029_122163" x1="1007.42" y1="394.741" x2="1156.52" y2="394.741" gradientUnits="userSpaceOnUse">
<stop stop-color="#3895A1"/>
<stop offset="1" stop-color="#00BBFF"/>
</linearGradient>
</defs>
</svg>
