<svg width="54" height="37" viewBox="0 0 54 37" fill="none" xmlns="http://www.w3.org/2000/svg">
<g id="4" clip-path="url(#clip0_6029_124937)">
<g id="4_2" clip-path="url(#clip1_6029_124937)">
<g id="&#229;&#155;&#190;&#229;&#177;&#130;_11">
<g id="Group 2087324050">
<g id="Vector 6982" filter="url(#filter0_i_6029_124937)">
<path d="M35.3041 37.1942C36.9721 35.5372 36.6887 29.9249 34.2656 28.3673L41.0156 26.8096C41.431 31.3788 39.9771 34.0788 35.3041 37.1942Z" fill="#005FFF"/>
</g>
<path id="Vector 6983" d="M34 35.4834C36 32.4834 34.3333 28.6501 33 26.9834L36 26.4834C38 29.2834 35.5 33.9834 34 35.4834Z" fill="#0A1ECE"/>
<g id="Group" style="mix-blend-mode:screen">
<path id="Vector" d="M39.8875 30.0258C39.0613 29.6962 38.5651 33.3724 38.5651 33.3724C38.5651 33.3724 40.7138 30.3555 39.8875 30.0258Z" fill="url(#paint0_linear_6029_124937)"/>
</g>
</g>
<g id="Group 2087324051">
<g id="Vector 6982_2" filter="url(#filter1_i_6029_124937)">
<path d="M16.1647 37.1556C14.4967 35.4987 14.7801 29.8864 17.2031 28.3287L10.4531 26.771C10.0378 31.3402 11.4916 34.0402 16.1647 37.1556Z" fill="#005FFF"/>
</g>
<path id="Vector 6983_2" d="M15.5625 35.4834C13.5625 32.4834 15.2292 28.6501 16.5625 26.9834L13.5625 26.4834C11.5625 29.2834 14.0625 33.9834 15.5625 35.4834Z" fill="#0A1ECE"/>
<g id="Group_2" style="mix-blend-mode:screen">
<path id="Vector_2" d="M10.7628 28.9234C11.6197 28.6845 11.718 32.3928 11.718 32.3928C11.718 32.3928 9.90589 29.1624 10.7628 28.9234Z" fill="url(#paint1_linear_6029_124937)"/>
</g>
</g>
<path id="Vector_3" d="M13.7891 14.6134C12.3483 14.1417 10.8056 14.951 10.3429 16.4211C9.88026 17.8913 10.6728 19.4659 12.1132 19.9385C13.5537 20.4111 15.0969 19.6028 15.5605 18.133C16.0223 16.662 15.2297 15.0872 13.7891 14.6134Z" fill="url(#paint2_linear_6029_124937)"/>
<path id="Vector_4" d="M15.0473 16.1799C14.7612 15.6125 14.2659 15.1844 13.6704 14.9898C12.4307 14.5846 11.1039 15.2816 10.7068 16.5466C10.3096 17.8116 10.9925 19.1657 12.2321 19.5712C13.4716 19.9766 14.7986 19.2799 15.196 18.015C15.3869 17.4073 15.3334 16.7472 15.0473 16.1799Z" fill="url(#paint3_linear_6029_124937)"/>
<path id="Vector_5" d="M12.3793 14.7942C11.8189 14.9418 11.4285 15.296 11.5008 15.58C11.5731 15.8641 12.0865 15.9711 12.6432 15.8235C13.1999 15.6759 13.6012 15.3218 13.5253 15.0377C13.453 14.7536 12.9396 14.6466 12.3793 14.7942Z" fill="white"/>
<g id="Group_3" style="mix-blend-mode:multiply">
<path id="Vector_6" d="M12.0802 20.5678C14.3831 20.8445 15.9268 19.7562 16.1075 19.1475C16.2883 18.5387 15.5652 18.1182 15.5652 18.1182C14.7432 18.9395 13.6391 19.4003 12.4887 19.402C10.6522 19.3504 10.3739 18.2067 10.3739 18.2067C8.98566 18.9815 9.77738 20.2911 12.0802 20.5678Z" fill="url(#paint4_linear_6029_124937)"/>
</g>
<g id="Group_4" style="mix-blend-mode:screen">
<path id="Vector_7" d="M12.635 20.2173C14.2257 20.1768 15.2415 18.7011 15.2415 18.7011C15.2415 18.7011 14.4751 19.5828 12.5048 19.6197C10.5346 19.6566 10.3357 18.4834 10.3357 18.4834C9.67056 19.4168 11.0443 20.2579 12.635 20.2173Z" fill="url(#paint5_linear_6029_124937)"/>
</g>
<g id="Group_5" style="mix-blend-mode:screen">
<path id="Vector_8" d="M9.04779 16.3992C8.57203 18.6018 9.9361 20.781 12.0945 21.2665C14.253 21.752 16.3884 20.36 16.8641 18.1573C17.3399 15.9546 15.9758 13.7755 13.8174 13.29C11.6589 12.8045 9.52351 14.1965 9.04779 16.3992Z" fill="url(#paint6_radial_6029_124937)"/>
</g>
<path id="Vector_9" d="M15.0993 7.94074C11.3983 14.7347 13.7951 23.3039 20.4525 27.0807C27.11 30.8575 35.5072 28.4116 39.2081 21.6177C42.909 14.8238 40.5125 6.25453 33.8548 2.47773C27.1974 -1.29908 18.8002 1.14679 15.0993 7.94074Z" fill="url(#paint7_linear_6029_124937)"/>
<g id="Group_6" opacity="0.67">
<path id="Vector_10" d="M17.6856 6.35819C13.1054 11.7199 13.6517 19.8555 18.9057 24.5295C24.1597 29.2035 32.1319 28.6461 36.7119 23.2844C41.2923 17.9226 40.7461 9.78706 35.4919 5.11303C30.2379 0.439003 22.2657 0.996487 17.6856 6.35819Z" fill="url(#paint8_linear_6029_124937)"/>
</g>
<g id="Group_7" style="mix-blend-mode:screen">
<path id="Vector_11" d="M22.9736 3.12537C18.1165 5.0181 15.2791 9.49199 16.6359 13.1181C17.9928 16.7442 23.0302 18.1493 27.8872 16.2566C32.7443 14.3638 35.5817 9.88995 34.2249 6.26385C32.868 2.63776 27.8306 1.23259 22.9736 3.12537Z" fill="url(#paint9_linear_6029_124937)"/>
</g>
<path id="Vector_12" d="M22.1571 3.27991C19.4168 4.47154 17.6851 6.60024 18.2816 8.03536C18.8781 9.47048 21.5823 9.66232 24.3262 8.47069C27.0701 7.27906 28.8053 5.14667 28.2052 3.71524C27.6087 2.28012 24.8974 2.08828 22.1571 3.27991Z" fill="white"/>
<g id="Group_8" style="mix-blend-mode:multiply" opacity="0.24">
<path id="Vector_13" d="M14.3414 9.66602C12.1404 15.3743 13.8157 21.8798 18.4824 25.7463C23.149 29.6127 29.7321 29.9495 34.7542 26.5786C39.7764 23.2078 42.0807 16.9058 40.4503 11.0015C38.288 16.6337 32.8425 20.2275 26.9222 19.9295C21.0033 19.6222 15.9385 15.4903 14.3414 9.66602Z" fill="url(#paint10_linear_6029_124937)"/>
</g>
<g id="Group_9" style="mix-blend-mode:multiply">
<path id="Vector_14" d="M20.4063 30.5397L19.7231 31.2259C20.6612 30.9796 21.6197 30.8227 22.5863 30.7573C36.1722 29.6506 11.0178 28.1343 11.0178 28.1343C10.8821 28.3067 10.7612 28.4906 10.6562 28.684L10.6996 28.6582L20.4063 30.5397Z" fill="url(#paint11_linear_6029_124937)"/>
</g>
<g id="Group_10" style="mix-blend-mode:multiply">
<path id="Vector_15" d="M42.8204 30.2559C42.7337 30.0534 42.6307 29.8585 42.5132 29.673C42.5132 29.673 17.337 28.6179 30.7457 31.1045C31.7013 31.2656 32.6395 31.5201 33.5474 31.8646L32.9328 31.1082L42.7807 30.2264L42.8204 30.2559Z" fill="url(#paint12_linear_6029_124937)"/>
</g>
<path id="Vector_16" d="M29.3839 26.127L25.7109 28.3147L26.8497 35.5421L29.3839 26.127Z" fill="#004AC6"/>
<path id="Vector_17" d="M40.7215 17.2918L40.5227 19.4094L38.4367 20.6232L34.4961 21.896L28.1876 22.2649L23.6072 22.2096L19.4787 21.2098L15.0754 20.1989L13.2678 18.5461L13.0654 17.0704L13.0148 16.9893C5.23858 18.0739 0.0291225 20.1399 0.000201257 22.5785C-0.0576412 27.0277 12.3604 33.853 27.2621 34.0486C42.164 34.2441 53.9132 27.7361 53.9674 23.2905C54.0181 20.7892 48.6929 18.5756 40.7215 17.2918Z" fill="url(#paint13_linear_6029_124937)"/>
<g id="Group_11" opacity="0.29">
<path id="Vector_18" d="M53.9743 22.9659C53.5658 20.6306 48.4178 18.5387 40.873 17.3176C39.3944 17.0778 45.063 19.6455 41.0357 19.2213C40.0017 19.1106 38.8376 19.5828 38.1797 21.527L53.9743 22.9659Z" fill="url(#paint14_linear_6029_124937)"/>
</g>
<g id="Group_12" style="mix-blend-mode:lighten" opacity="0.68">
<path id="Vector_19" d="M13.6206 17.8453L9.40899 17.6055C3.68981 18.7639 0.0565561 20.5569 0.03125 22.5749C0.03125 23.571 0.634983 24.6852 1.75568 25.8178L2.84023 25.8915L17.2611 21.398C17.2611 21.398 10.2043 19.2915 13.6206 17.8453Z" fill="#FFF0D2"/>
</g>
<g id="Group_13" opacity="0.29">
<path id="Vector_20" d="M35.1376 21.7446C35.1376 21.7446 32.9685 22.5452 26.201 22.7297L24.7188 31.0563C25.5792 31.0969 26.4504 31.1264 27.3289 31.1375C32.4179 31.23 37.501 30.7412 42.4838 29.6802L35.1376 21.7446Z" fill="url(#paint15_linear_6029_124937)"/>
</g>
<g id="Group_14" style="mix-blend-mode:multiply">
<path id="Vector_21" d="M53.9977 23.2866C53.993 23.3855 53.9836 23.484 53.9688 23.5818C53.9854 23.4842 53.9948 23.3856 53.9977 23.2866Z" fill="url(#paint16_linear_6029_124937)"/>
</g>
<g id="Group_15" style="mix-blend-mode:multiply">
<path id="Vector_22" d="M29.8963 34.0299L30.3952 34.0078C30.6555 34.0078 30.9158 33.982 31.1725 33.9635L31.693 33.9266L32.4161 33.8639L32.933 33.8159L33.6561 33.7348L34.1513 33.6794L34.9069 33.5761L35.3552 33.5134L36.2591 33.3659L36.5267 33.3179C36.8882 33.2515 37.2786 33.1814 37.651 33.1076L38.092 33.0117L38.7644 32.8641L39.2561 32.7498L39.849 32.6022L40.3515 32.4731L40.9082 32.3181L41.4071 32.1779L41.9349 32.0156L42.4483 31.857L42.9616 31.6872L43.428 31.5286L43.9522 31.3368C44.0896 31.2849 44.2342 31.237 44.3715 31.1816C50.0184 29.005 53.6553 26.0241 53.9698 23.5818C53.5794 25.7953 49.1616 28.197 42.4844 29.6801C37.5024 30.7473 32.4192 31.2423 27.3295 31.1558C26.4511 31.1558 25.5798 31.1152 24.7194 31.0746C11.0035 30.4143 -0.011927 26.0978 0.0314549 22.5894C-0.0227725 26.7213 10.6926 32.901 24.159 33.9156C24.6543 33.9524 25.1496 33.982 25.6521 34.0078H25.7353C26.2486 34.0299 26.7692 34.0484 27.2934 34.0557C27.7344 34.0557 28.1683 34.0557 28.6021 34.0557H29.0287L29.8963 34.0299Z" fill="url(#paint17_linear_6029_124937)"/>
</g>
<g id="Group_16" style="mix-blend-mode:multiply" opacity="0.7">
<path id="Vector_23" d="M26.937 14.9823C18.8571 14.8605 12.5921 15.8493 12.5704 17.3582C12.5487 18.8671 17.44 21.789 26.8394 21.7225C36.2932 21.6525 41.4882 19.3467 41.5135 17.8378C41.5352 16.3215 35.0169 15.104 26.937 14.9823Z" fill="url(#paint18_linear_6029_124937)"/>
</g>
<g id="Group_17" style="mix-blend-mode:multiply">
<path id="Vector_24" d="M26.8489 21.3828C19.1739 21.2611 13.6463 18.3687 13.4186 16.4688C12.4858 16.9373 10.812 18.3392 10.8048 18.9037C10.7723 21.0102 17.9484 22.829 26.8272 22.9618C35.706 23.0947 42.9292 21.4861 42.9618 19.3906C42.969 18.8114 41.6748 17.4685 40.7565 16.9557C40.395 18.8889 34.5239 21.5046 26.8489 21.3828Z" fill="url(#paint19_linear_6029_124937)"/>
</g>
<g id="Group_18" style="mix-blend-mode:screen">
<path id="Vector_25" d="M27.1003 22.2314C40.5958 22.7147 41.1236 17.3726 41.1236 17.3726C41.1236 17.3726 39.8149 21.9288 27.2738 21.7112C14.7328 21.4935 13.0987 17.0664 13.0987 17.0664C9.84871 19.1545 13.6049 21.7481 27.1003 22.2314Z" fill="url(#paint20_linear_6029_124937)"/>
</g>
<g id="Group_19" opacity="0.29">
<path id="Vector_26" d="M18.1566 27.994C19.064 28.101 23.601 26.5183 22.878 24.563C22.155 22.6077 17.0938 25.2344 17.0938 25.2344C17.0938 25.2344 17.2492 27.887 18.1566 27.994Z" fill="url(#paint21_linear_6029_124937)"/>
</g>
<g id="Group_20" opacity="0.29">
<path id="Vector_27" d="M43.4222 24.279C44.3116 24.386 47.764 23.2423 47.0374 21.287C46.3107 19.3317 42.3594 21.8256 42.3594 21.8256C42.3594 21.8256 42.5329 24.172 43.4222 24.279Z" fill="url(#paint22_linear_6029_124937)"/>
</g>
<path id="Vector_28" d="M20.0224 23.4175C19.6901 22.7574 19.1143 22.2591 18.4219 22.0324C16.9811 21.5607 15.4384 22.3699 14.9757 23.8401C14.5131 25.3102 15.3056 26.8848 16.746 27.3574C18.1865 27.83 19.7297 27.0218 20.1933 25.5519C20.4161 24.8455 20.3546 24.0777 20.0224 23.4175Z" fill="url(#paint23_linear_6029_124937)"/>
<path id="Vector_29" d="M19.6819 23.5952C19.3963 23.0277 18.9013 22.5994 18.3059 22.4049C17.3982 22.1067 16.404 22.396 15.7869 23.1377C15.1698 23.8795 15.0513 24.9276 15.4868 25.7932C15.9223 26.6588 16.8259 27.1714 17.7762 27.0919C18.7266 27.0124 19.5363 26.3565 19.8279 25.43C20.0199 24.8229 19.9674 24.1628 19.6819 23.5952Z" fill="url(#paint24_linear_6029_124937)"/>
<path id="Vector_30" d="M17.0121 22.2093C16.4518 22.3568 16.0613 22.711 16.1336 22.9951C16.2059 23.2791 16.7193 23.3898 17.276 23.2386C17.8327 23.0873 18.2268 22.7368 18.1581 22.4527C18.0858 22.1687 17.5725 22.0617 17.0121 22.2093Z" fill="white"/>
<g id="Group_21" style="mix-blend-mode:multiply">
<path id="Vector_31" d="M16.7052 27.9977C19.0081 28.2744 20.5518 27.1861 20.7325 26.5774C20.9133 25.9686 20.1902 25.5518 20.1902 25.5518C19.3672 26.3714 18.2638 26.8319 17.1137 26.8356C15.2772 26.7803 14.9989 25.6366 14.9989 25.6366C13.6107 26.3966 14.4024 27.721 16.7052 27.9977Z" fill="url(#paint25_linear_6029_124937)"/>
</g>
<g id="Group_22" style="mix-blend-mode:screen">
<path id="Vector_32" d="M17.273 27.6366C18.8637 27.5923 19.8795 26.1166 19.8795 26.1166C19.8795 26.1166 19.1131 27.0057 17.1429 27.0389C15.1726 27.0721 14.9738 25.8989 14.9738 25.8989C14.2941 26.8323 15.6823 27.6808 17.273 27.6366Z" fill="url(#paint26_linear_6029_124937)"/>
</g>
<g id="Group_23" style="mix-blend-mode:screen">
<path id="Vector_33" d="M21.0661 21.5737C20.58 20.6037 19.7343 19.8722 18.7171 19.5417C16.6154 18.8589 14.3685 20.0401 13.6933 22.1828C13.018 24.3256 14.1688 26.6219 16.2665 27.3174C18.3642 28.0129 20.6178 26.8453 21.3055 24.7066C21.6384 23.6715 21.5522 22.5436 21.0661 21.5737Z" fill="url(#paint27_radial_6029_124937)"/>
</g>
<path id="Vector_34" d="M45.7642 20.2966C45.462 19.697 44.9385 19.2449 44.3095 19.0402C43.0015 18.6126 41.6017 19.3475 41.182 20.6818C40.7627 22.0162 41.4821 23.4451 42.7893 23.8738C44.0969 24.3026 45.4974 23.569 45.9182 22.2351C46.1214 21.5937 46.0661 20.8961 45.7642 20.2966Z" fill="url(#paint28_linear_6029_124937)"/>
<path id="Vector_35" d="M44.2045 19.3834C43.3814 19.1136 42.4805 19.3763 41.9212 20.049C41.3623 20.7216 41.2553 21.6717 41.6504 22.4562C42.0459 23.2406 42.8651 23.7048 43.7266 23.6322C44.5881 23.5596 45.3216 22.9645 45.5855 22.1246C45.9452 20.9785 45.327 19.7516 44.2045 19.3834Z" fill="url(#paint29_linear_6029_124937)"/>
<path id="Vector_36" d="M43.0339 19.2028C42.5278 19.3504 42.1663 19.6603 42.2349 19.9148C42.3036 20.1694 42.7664 20.2838 43.2725 20.1362C43.7786 19.9886 44.1365 19.6824 44.0714 19.4242C44.0064 19.1659 43.54 19.0552 43.0339 19.2028Z" fill="white"/>
<g id="Group_24" style="mix-blend-mode:multiply">
<path id="Vector_37" d="M42.7556 24.4526C44.8452 24.7035 46.237 23.7332 46.4069 23.1687C46.5768 22.6043 45.9189 22.2354 45.9189 22.2354C45.1712 22.9775 44.1706 23.3941 43.128 23.3975C41.4614 23.3495 41.2083 22.3128 41.2083 22.3128C39.9502 23.0027 40.666 24.2017 42.7556 24.4526Z" fill="url(#paint30_linear_6029_124937)"/>
</g>
<g id="Group_25" style="mix-blend-mode:screen">
<path id="Vector_38" d="M43.264 24.1241C44.7065 24.0762 45.6247 22.748 45.6247 22.748C45.6247 22.748 44.9378 23.5486 43.1447 23.5818C41.3516 23.615 41.1708 22.5488 41.1708 22.5488C40.5671 23.3974 41.8216 24.1721 43.264 24.1241Z" fill="url(#paint31_linear_6029_124937)"/>
</g>
<g id="Group_26" style="mix-blend-mode:multiply">
<path id="Vector_39" d="M40.8535 26.231L25.366 27.1606L25.3082 27.1643L20.2578 30.6728L22.5245 33.7646L23.0885 33.8273L20.8471 30.7724L25.4492 27.5812L40.7776 26.6589L45.6978 28.8614L44.5482 31.0934L45.1302 30.872L46.269 28.6585L40.8969 26.2531L40.8535 26.231Z" fill="url(#paint32_linear_6029_124937)"/>
</g>
<g id="Group_27" style="mix-blend-mode:multiply">
<path id="Vector_40" d="M9.59114 18.5606L7.27744 18.0884L6.36642 18.3319L9.04164 18.8816L8.4126 20.7078L1.11719 24.6958L1.20757 25.216L1.76069 25.8174L1.57993 24.9246L8.6765 21.0398L8.74881 21.0029L9.59114 18.5606Z" fill="url(#paint33_linear_6029_124937)"/>
</g>
<g id="Group_28" style="mix-blend-mode:multiply">
<path id="Vector_41" d="M22.7957 33.7351L20.5543 30.6802L25.4889 27.2972L40.8174 26.3748L45.987 28.7064L44.8374 30.9384L45.1302 30.872L46.269 28.6585L40.8969 26.2531L40.8535 26.231L25.366 27.1606L25.3082 27.1643L20.2578 30.6728L22.5245 33.7646L22.7957 33.7351Z" fill="url(#paint34_linear_6029_124937)"/>
</g>
<g id="Group_29" style="mix-blend-mode:multiply">
<path id="Vector_42" d="M9.04164 18.8817L8.4126 20.7079L1.11719 24.6959L1.20757 25.2161L1.58354 25.6699L1.39917 24.7771L8.49936 20.896L8.56805 20.8554L9.31639 18.6935L6.83639 18.2065L6.36642 18.332L9.04164 18.8817Z" fill="url(#paint35_linear_6029_124937)"/>
</g>
<path id="Vector_43" d="M33.1649 17.8969C31.9358 18.4318 31.0537 19.177 31.2345 19.5644C31.4152 19.9518 32.5576 19.8263 33.7651 19.2951C34.9725 18.7638 35.8546 18.0002 35.6956 17.6312C35.5329 17.2439 34.3941 17.3619 33.1649 17.8969Z" fill="white"/>
</g>
</g>
</g>
<defs>
<filter id="filter0_i_6029_124937" x="34.2656" y="26.8096" width="6.82031" height="14.3848" filterUnits="userSpaceOnUse" color-interpolation-filters="sRGB">
<feFlood flood-opacity="0" result="BackgroundImageFix"/>
<feBlend mode="normal" in="SourceGraphic" in2="BackgroundImageFix" result="shape"/>
<feColorMatrix in="SourceAlpha" type="matrix" values="0 0 0 0 0 0 0 0 0 0 0 0 0 0 0 0 0 0 127 0" result="hardAlpha"/>
<feOffset dy="4"/>
<feGaussianBlur stdDeviation="2"/>
<feComposite in2="hardAlpha" operator="arithmetic" k2="-1" k3="1"/>
<feColorMatrix type="matrix" values="0 0 0 0 0 0 0 0 0 0 0 0 0 0 0 0 0 0 0.25 0"/>
<feBlend mode="normal" in2="shape" result="effect1_innerShadow_6029_124937"/>
</filter>
<filter id="filter1_i_6029_124937" x="10.3828" y="26.771" width="6.82031" height="14.3848" filterUnits="userSpaceOnUse" color-interpolation-filters="sRGB">
<feFlood flood-opacity="0" result="BackgroundImageFix"/>
<feBlend mode="normal" in="SourceGraphic" in2="BackgroundImageFix" result="shape"/>
<feColorMatrix in="SourceAlpha" type="matrix" values="0 0 0 0 0 0 0 0 0 0 0 0 0 0 0 0 0 0 127 0" result="hardAlpha"/>
<feOffset dy="4"/>
<feGaussianBlur stdDeviation="2"/>
<feComposite in2="hardAlpha" operator="arithmetic" k2="-1" k3="1"/>
<feColorMatrix type="matrix" values="0 0 0 0 0 0 0 0 0 0 0 0 0 0 0 0 0 0 0.25 0"/>
<feBlend mode="normal" in2="shape" result="effect1_innerShadow_6029_124937"/>
</filter>
<linearGradient id="paint0_linear_6029_124937" x1="44.1308" y1="25.4173" x2="24.1442" y2="47.9347" gradientUnits="userSpaceOnUse">
<stop stop-color="#F8E82F"/>
<stop offset="0.06" stop-color="#C4B825"/>
<stop offset="0.13" stop-color="#978D1D"/>
<stop offset="0.19" stop-color="#6E6715"/>
<stop offset="0.26" stop-color="#4C470E"/>
<stop offset="0.34" stop-color="#302D09"/>
<stop offset="0.42" stop-color="#1B1905"/>
<stop offset="0.51" stop-color="#0C0B02"/>
<stop offset="0.62" stop-color="#030301"/>
<stop offset="0.77"/>
</linearGradient>
<linearGradient id="paint1_linear_6029_124937" x1="7.03928" y1="23.8856" x2="24.4906" y2="48.4203" gradientUnits="userSpaceOnUse">
<stop stop-color="#F8E82F"/>
<stop offset="0.06" stop-color="#C4B825"/>
<stop offset="0.13" stop-color="#978D1D"/>
<stop offset="0.19" stop-color="#6E6715"/>
<stop offset="0.26" stop-color="#4C470E"/>
<stop offset="0.34" stop-color="#302D09"/>
<stop offset="0.42" stop-color="#1B1905"/>
<stop offset="0.51" stop-color="#0C0B02"/>
<stop offset="0.62" stop-color="#030301"/>
<stop offset="0.77"/>
</linearGradient>
<linearGradient id="paint2_linear_6029_124937" x1="9.58239" y1="18.0585" x2="14.8124" y2="19.7308" gradientUnits="userSpaceOnUse">
<stop stop-color="#FFEA00"/>
<stop offset="0.81" stop-color="#F9FB38"/>
<stop offset="1" stop-color="#F8FF45"/>
</linearGradient>
<linearGradient id="paint3_linear_6029_124937" x1="9.95051" y1="18.1809" x2="14.4427" y2="19.6173" gradientUnits="userSpaceOnUse">
<stop stop-color="#F4FF8D"/>
<stop offset="0.28" stop-color="#F7F462"/>
<stop offset="0.77" stop-color="#FDE01C"/>
<stop offset="1" stop-color="#FFD900"/>
</linearGradient>
<linearGradient id="paint4_linear_6029_124937" x1="10.1842" y1="19.3594" x2="16.6379" y2="19.4519" gradientUnits="userSpaceOnUse">
<stop stop-color="#7C00FF"/>
<stop offset="0.11" stop-color="#7D06FD"/>
<stop offset="0.25" stop-color="#7F15F9"/>
<stop offset="0.41" stop-color="#842FF1"/>
<stop offset="0.58" stop-color="#8A54E6"/>
<stop offset="0.76" stop-color="#9182D8"/>
<stop offset="0.95" stop-color="#9ABBC8"/>
<stop offset="1" stop-color="#9DCBC3"/>
</linearGradient>
<linearGradient id="paint5_linear_6029_124937" x1="10.656" y1="19.3797" x2="15.7406" y2="19.4548" gradientUnits="userSpaceOnUse">
<stop stop-color="#81CFFF"/>
<stop offset="0.72"/>
</linearGradient>
<radialGradient id="paint6_radial_6029_124937" cx="0" cy="0" r="1" gradientUnits="userSpaceOnUse" gradientTransform="translate(12.965 17.2759) rotate(107.464) scale(4.07641 4.00944)">
<stop stop-color="#F6FF00"/>
<stop offset="0.18" stop-color="#BCC300"/>
<stop offset="0.4" stop-color="#7A7F00"/>
<stop offset="0.6" stop-color="#464800"/>
<stop offset="0.78" stop-color="#202100"/>
<stop offset="0.92" stop-color="#090900"/>
<stop offset="1"/>
</radialGradient>
<linearGradient id="paint7_linear_6029_124937" x1="13.3984" y1="14.07" x2="40.954" y2="15.4189" gradientUnits="userSpaceOnUse">
<stop stop-color="#0091FF"/>
<stop offset="0.18" stop-color="#009AFF"/>
<stop offset="0.48" stop-color="#00B2FF"/>
<stop offset="0.86" stop-color="#00D9FF"/>
<stop offset="1" stop-color="#00EAFF"/>
</linearGradient>
<linearGradient id="paint8_linear_6029_124937" x1="14.6158" y1="14.1726" x2="39.8277" y2="15.4112" gradientUnits="userSpaceOnUse">
<stop stop-color="#0044FF"/>
<stop offset="0.18" stop-color="#005CFF"/>
<stop offset="0.55" stop-color="#0099FF"/>
<stop offset="1" stop-color="#00EAFF"/>
</linearGradient>
<linearGradient id="paint9_linear_6029_124937" x1="22.9803" y1="3.12272" x2="28.0706" y2="16.1851" gradientUnits="userSpaceOnUse">
<stop stop-color="#2FD0F8"/>
<stop offset="0.38" stop-color="#1B788F"/>
<stop offset="0.68" stop-color="#0D3842"/>
<stop offset="0.89" stop-color="#030F12"/>
<stop offset="1"/>
</linearGradient>
<linearGradient id="paint10_linear_6029_124937" x1="27.914" y1="10.3672" x2="26.9678" y2="28.9111" gradientUnits="userSpaceOnUse">
<stop stop-color="#00BBFF"/>
<stop offset="0.08" stop-color="#09BDFF"/>
<stop offset="0.22" stop-color="#21C4FF"/>
<stop offset="0.4" stop-color="#49CEFF"/>
<stop offset="0.6" stop-color="#80DDFF"/>
<stop offset="0.83" stop-color="#C5F0FF"/>
<stop offset="1" stop-color="white"/>
</linearGradient>
<linearGradient id="paint11_linear_6029_124937" x1="25.9173" y1="27.837" x2="9.5846" y2="31.2665" gradientUnits="userSpaceOnUse">
<stop stop-color="#7C00FF"/>
<stop offset="0.11" stop-color="#7D06FD"/>
<stop offset="0.25" stop-color="#7F15F9"/>
<stop offset="0.41" stop-color="#842FF1"/>
<stop offset="0.58" stop-color="#8A54E6"/>
<stop offset="0.76" stop-color="#9182D8"/>
<stop offset="0.95" stop-color="#9ABBC8"/>
<stop offset="1" stop-color="#9DCBC3"/>
</linearGradient>
<linearGradient id="paint12_linear_6029_124937" x1="26.7341" y1="29.288" x2="42.6034" y2="34.3624" gradientUnits="userSpaceOnUse">
<stop stop-color="#7C00FF"/>
<stop offset="0.11" stop-color="#7D06FD"/>
<stop offset="0.25" stop-color="#7F15F9"/>
<stop offset="0.41" stop-color="#842FF1"/>
<stop offset="0.58" stop-color="#8A54E6"/>
<stop offset="0.76" stop-color="#9182D8"/>
<stop offset="0.95" stop-color="#9ABBC8"/>
<stop offset="1" stop-color="#9DCBC3"/>
</linearGradient>
<linearGradient id="paint13_linear_6029_124937" x1="1.25781" y1="17.6354" x2="50.648" y2="33.4285" gradientUnits="userSpaceOnUse">
<stop stop-color="#9DCBC3"/>
<stop offset="0.2" stop-color="#9EC7C3"/>
<stop offset="0.39" stop-color="#A0BBC4"/>
<stop offset="0.58" stop-color="#A5A8C6"/>
<stop offset="0.77" stop-color="#AA8DC8"/>
<stop offset="0.95" stop-color="#B26ACB"/>
<stop offset="1" stop-color="#B460CC"/>
</linearGradient>
<linearGradient id="paint14_linear_6029_124937" x1="52.667" y1="16.2984" x2="37.7861" y2="29.3961" gradientUnits="userSpaceOnUse">
<stop stop-color="#A822A4"/>
<stop offset="0.13" stop-color="#AB28A4"/>
<stop offset="0.29" stop-color="#B237A4"/>
<stop offset="0.48" stop-color="#BF51A3"/>
<stop offset="0.68" stop-color="#D076A3"/>
<stop offset="0.88" stop-color="#E6A4A2"/>
<stop offset="1" stop-color="#F4C1A2"/>
</linearGradient>
<linearGradient id="paint15_linear_6029_124937" x1="36.9683" y1="24.7926" x2="19.5825" y2="40.0918" gradientUnits="userSpaceOnUse">
<stop stop-color="#A822A4"/>
<stop offset="0.13" stop-color="#AB28A4"/>
<stop offset="0.29" stop-color="#B237A4"/>
<stop offset="0.48" stop-color="#BF51A3"/>
<stop offset="0.68" stop-color="#D076A3"/>
<stop offset="0.88" stop-color="#E6A4A2"/>
<stop offset="1" stop-color="#F4C1A2"/>
</linearGradient>
<linearGradient id="paint16_linear_6029_124937" x1="53.055" y1="25.2401" x2="53.2101" y2="25.2897" gradientUnits="userSpaceOnUse">
<stop stop-color="#A81BA4"/>
<stop offset="0.13" stop-color="#AB21A4"/>
<stop offset="0.29" stop-color="#B230A4"/>
<stop offset="0.47" stop-color="#BE4AA3"/>
<stop offset="0.66" stop-color="#CE6FA3"/>
<stop offset="0.86" stop-color="#E39DA2"/>
<stop offset="1" stop-color="#F4C1A2"/>
</linearGradient>
<linearGradient id="paint17_linear_6029_124937" x1="-67.6121" y1="-3.96045" x2="68.73" y2="39.6365" gradientUnits="userSpaceOnUse">
<stop stop-color="#A81BA4"/>
<stop offset="0.13" stop-color="#AB21A4"/>
<stop offset="0.29" stop-color="#B230A4"/>
<stop offset="0.47" stop-color="#BE4AA3"/>
<stop offset="0.66" stop-color="#CE6FA3"/>
<stop offset="0.86" stop-color="#E39DA2"/>
<stop offset="1" stop-color="#F4C1A2"/>
</linearGradient>
<linearGradient id="paint18_linear_6029_124937" x1="27.0763" y1="14.9533" x2="26.9741" y2="21.7002" gradientUnits="userSpaceOnUse">
<stop stop-color="#0026FF"/>
<stop offset="0.08" stop-color="#092EFF"/>
<stop offset="0.22" stop-color="#2142FF"/>
<stop offset="0.4" stop-color="#4964FF"/>
<stop offset="0.6" stop-color="#8093FF"/>
<stop offset="0.83" stop-color="#C5CEFF"/>
<stop offset="1" stop-color="white"/>
</linearGradient>
<linearGradient id="paint19_linear_6029_124937" x1="10.7926" y1="19.5289" x2="42.9462" y2="19.9964" gradientUnits="userSpaceOnUse">
<stop stop-color="#7C00FF"/>
<stop offset="0.11" stop-color="#7D06FD"/>
<stop offset="0.25" stop-color="#7F15F9"/>
<stop offset="0.41" stop-color="#842FF1"/>
<stop offset="0.58" stop-color="#8A54E6"/>
<stop offset="0.76" stop-color="#9182D8"/>
<stop offset="0.95" stop-color="#9ABBC8"/>
<stop offset="1" stop-color="#9DCBC3"/>
</linearGradient>
<linearGradient id="paint20_linear_6029_124937" x1="11.9817" y1="19.4436" x2="41.0844" y2="19.8667" gradientUnits="userSpaceOnUse">
<stop stop-color="#81CFFF"/>
<stop offset="0.72"/>
</linearGradient>
<linearGradient id="paint21_linear_6029_124937" x1="17.5751" y1="25.8313" x2="23.4105" y2="26.1172" gradientUnits="userSpaceOnUse">
<stop stop-color="#A822A4"/>
<stop offset="0.13" stop-color="#AB28A4"/>
<stop offset="0.29" stop-color="#B237A4"/>
<stop offset="0.48" stop-color="#BF51A3"/>
<stop offset="0.68" stop-color="#D076A3"/>
<stop offset="0.88" stop-color="#E6A4A2"/>
<stop offset="1" stop-color="#F4C1A2"/>
</linearGradient>
<linearGradient id="paint22_linear_6029_124937" x1="47.6511" y1="22.5842" x2="42.875" y2="22.3501" gradientUnits="userSpaceOnUse">
<stop stop-color="#A822A4"/>
<stop offset="0.13" stop-color="#AB28A4"/>
<stop offset="0.29" stop-color="#B237A4"/>
<stop offset="0.48" stop-color="#BF51A3"/>
<stop offset="0.68" stop-color="#D076A3"/>
<stop offset="0.88" stop-color="#E6A4A2"/>
<stop offset="1" stop-color="#F4C1A2"/>
</linearGradient>
<linearGradient id="paint23_linear_6029_124937" x1="14.1762" y1="25.4925" x2="19.4062" y2="27.1648" gradientUnits="userSpaceOnUse">
<stop stop-color="#FFEA00"/>
<stop offset="0.81" stop-color="#F9FB38"/>
<stop offset="1" stop-color="#F8FF45"/>
</linearGradient>
<linearGradient id="paint24_linear_6029_124937" x1="14.5434" y1="25.6147" x2="19.0356" y2="27.0511" gradientUnits="userSpaceOnUse">
<stop stop-color="#F4FF8D"/>
<stop offset="0.28" stop-color="#F7F462"/>
<stop offset="0.77" stop-color="#FDE01C"/>
<stop offset="1" stop-color="#FFD900"/>
</linearGradient>
<linearGradient id="paint25_linear_6029_124937" x1="14.8158" y1="26.7855" x2="21.2694" y2="26.8779" gradientUnits="userSpaceOnUse">
<stop stop-color="#7C00FF"/>
<stop offset="0.11" stop-color="#7D06FD"/>
<stop offset="0.25" stop-color="#7F15F9"/>
<stop offset="0.41" stop-color="#842FF1"/>
<stop offset="0.58" stop-color="#8A54E6"/>
<stop offset="0.76" stop-color="#9182D8"/>
<stop offset="0.95" stop-color="#9ABBC8"/>
<stop offset="1" stop-color="#9DCBC3"/>
</linearGradient>
<linearGradient id="paint26_linear_6029_124937" x1="15.2861" y1="26.8061" x2="20.3709" y2="26.8777" gradientUnits="userSpaceOnUse">
<stop stop-color="#81CFFF"/>
<stop offset="0.72"/>
</linearGradient>
<radialGradient id="paint27_radial_6029_124937" cx="0" cy="0" r="1" gradientUnits="userSpaceOnUse" gradientTransform="translate(16.6913 25.1131) rotate(107.732) scale(4.07333 4.00685)">
<stop stop-color="#F6FF00"/>
<stop offset="0.18" stop-color="#BCC300"/>
<stop offset="0.4" stop-color="#7A7F00"/>
<stop offset="0.6" stop-color="#464800"/>
<stop offset="0.78" stop-color="#202100"/>
<stop offset="0.92" stop-color="#090900"/>
<stop offset="1"/>
</radialGradient>
<linearGradient id="paint28_linear_6029_124937" x1="40.3802" y1="22.4643" x2="45.1241" y2="23.9812" gradientUnits="userSpaceOnUse">
<stop stop-color="#FFEA00"/>
<stop offset="0.81" stop-color="#F9FB38"/>
<stop offset="1" stop-color="#F8FF45"/>
</linearGradient>
<linearGradient id="paint29_linear_6029_124937" x1="40.7132" y1="22.5754" x2="44.7883" y2="23.8785" gradientUnits="userSpaceOnUse">
<stop stop-color="#F4FF8D"/>
<stop offset="0.28" stop-color="#F7F462"/>
<stop offset="0.77" stop-color="#FDE01C"/>
<stop offset="1" stop-color="#FFD900"/>
</linearGradient>
<linearGradient id="paint30_linear_6029_124937" x1="41.121" y1="23.353" x2="46.9771" y2="23.4375" gradientUnits="userSpaceOnUse">
<stop stop-color="#7C00FF"/>
<stop offset="0.11" stop-color="#7D06FD"/>
<stop offset="0.25" stop-color="#7F15F9"/>
<stop offset="0.41" stop-color="#842FF1"/>
<stop offset="0.58" stop-color="#8A54E6"/>
<stop offset="0.76" stop-color="#9182D8"/>
<stop offset="0.95" stop-color="#9ABBC8"/>
<stop offset="1" stop-color="#9DCBC3"/>
</linearGradient>
<linearGradient id="paint31_linear_6029_124937" x1="41.5501" y1="23.3712" x2="46.1603" y2="23.4372" gradientUnits="userSpaceOnUse">
<stop stop-color="#81CFFF"/>
<stop offset="0.72"/>
</linearGradient>
<linearGradient id="paint32_linear_6029_124937" x1="20.8286" y1="29.4928" x2="46.7157" y2="30.7612" gradientUnits="userSpaceOnUse">
<stop stop-color="#A81BA4"/>
<stop offset="0.13" stop-color="#AB21A4"/>
<stop offset="0.29" stop-color="#B230A4"/>
<stop offset="0.47" stop-color="#BE4AA3"/>
<stop offset="0.66" stop-color="#CE6FA3"/>
<stop offset="0.86" stop-color="#E39DA2"/>
<stop offset="1" stop-color="#F4C1A2"/>
</linearGradient>
<linearGradient id="paint33_linear_6029_124937" x1="1.75075" y1="21.8357" x2="9.91097" y2="22.2356" gradientUnits="userSpaceOnUse">
<stop stop-color="#A81BA4"/>
<stop offset="0.13" stop-color="#AB21A4"/>
<stop offset="0.29" stop-color="#B230A4"/>
<stop offset="0.47" stop-color="#BE4AA3"/>
<stop offset="0.66" stop-color="#CE6FA3"/>
<stop offset="0.86" stop-color="#E39DA2"/>
<stop offset="1" stop-color="#F4C1A2"/>
</linearGradient>
<linearGradient id="paint34_linear_6029_124937" x1="20.8294" y1="29.4781" x2="46.7165" y2="30.7464" gradientUnits="userSpaceOnUse">
<stop stop-color="#A81BA4"/>
<stop offset="0.13" stop-color="#AB21A4"/>
<stop offset="0.29" stop-color="#B230A4"/>
<stop offset="0.47" stop-color="#BE4AA3"/>
<stop offset="0.66" stop-color="#CE6FA3"/>
<stop offset="0.86" stop-color="#E39DA2"/>
<stop offset="1" stop-color="#F4C1A2"/>
</linearGradient>
<linearGradient id="paint35_linear_6029_124937" x1="1.75056" y1="21.8395" x2="9.64324" y2="22.2263" gradientUnits="userSpaceOnUse">
<stop stop-color="#A81BA4"/>
<stop offset="0.13" stop-color="#AB21A4"/>
<stop offset="0.29" stop-color="#B230A4"/>
<stop offset="0.47" stop-color="#BE4AA3"/>
<stop offset="0.66" stop-color="#CE6FA3"/>
<stop offset="0.86" stop-color="#E39DA2"/>
<stop offset="1" stop-color="#F4C1A2"/>
</linearGradient>
<clipPath id="clip0_6029_124937">
<rect width="54" height="37" fill="white"/>
</clipPath>
<clipPath id="clip1_6029_124937">
<rect width="54" height="39" fill="white" transform="translate(0 -2)"/>
</clipPath>
</defs>
</svg>
