<svg width="54" height="39" viewBox="0 0 54 39" fill="none" xmlns="http://www.w3.org/2000/svg">
<g id="3" clip-path="url(#clip0_6029_122351)">
<g id="Group 205">
<path id="Vector" d="M37.9209 32L26.3601 33.0572L14.8047 32L26.3601 38.6745L37.9209 32Z" fill="#8CA7BA"/>
<g id="Vector_2" style="mix-blend-mode:screen" opacity="0.73">
<path d="M22.2969 36.3516L26.3613 38.6957L27.2311 38.1937C25.844 37.0241 24.1017 36.3736 22.2969 36.3516Z" fill="#B0C3D0"/>
</g>
<path id="Vector_3" d="M54 26.7906C54 29.964 41.9213 33.9475 27 33.9475C12.0787 33.9475 0 29.964 0 26.7906C0 23.6171 12.0787 22.4458 27 22.4458C41.9213 22.4458 54 23.6171 54 26.7906Z" fill="url(#paint0_linear_6029_122351)"/>
<path id="Vector_4" d="M54 26.7908C54 29.9642 41.9213 32.1933 27 32.1933C12.0787 32.1933 0 29.9642 0 26.7908C0 23.6173 12.0787 21.0425 27 21.0425C41.9213 21.0425 54 23.6173 54 26.7908Z" fill="url(#paint1_linear_6029_122351)"/>
<path id="Vector_5" d="M40.3316 25.0518C38.9154 29.1076 14.4778 28.7052 13.7188 25.0518C13.7188 17.6111 19.6791 9.39111 27.0252 9.39111C34.3712 9.39111 40.3316 17.6111 40.3316 25.0518Z" fill="url(#paint2_linear_6029_122351)"/>
<path id="Vector_6" style="mix-blend-mode:multiply" opacity="0.45" d="M29.6523 9.74854C30.351 10.5907 30.9164 11.5377 31.3283 12.5556C32.7751 16.1006 32.7089 20.9923 29.7185 23.7477C27.3547 25.9201 23.753 25.9304 21.2109 27.6436C28.7607 28.4434 39.413 27.69 40.3351 25.0635C40.33 18.5206 35.74 11.3946 29.6523 9.74854Z" fill="url(#paint3_linear_6029_122351)"/>
<path id="Vector_7" style="mix-blend-mode:multiply" opacity="0.45" d="M39.3231 19.5659C39.2773 22.0376 38.3043 24.4318 35.8896 25.5154C33.8875 26.4133 31.4524 26.2017 29.3128 26.4701C27.5858 26.6678 25.9008 27.1415 24.3203 27.8736C31.3913 28.209 39.5371 27.3576 40.3369 25.051C40.3198 23.1765 39.9767 21.3197 39.3231 19.5659V19.5659Z" fill="url(#paint4_linear_6029_122351)"/>
<path id="Vector_8" d="M19.1797 12.7465C19.1797 12.7465 20.8303 14.2429 26.6989 14.2429C32.5676 14.2429 34.8499 12.7465 34.8499 12.7465C34.8499 12.7465 32.3486 9.10352 26.9435 9.10352C21.5384 9.10352 19.1797 12.7465 19.1797 12.7465Z" fill="url(#paint5_linear_6029_122351)"/>
<path id="Vector_9" style="mix-blend-mode:multiply" opacity="0.23" d="M30.7387 9.76807C30.4484 11.8785 28.7469 13.3801 26.4035 13.6845C24.3148 13.9529 21.2735 13.7981 19.5363 12.2913C19.4093 12.436 19.2903 12.5876 19.1797 12.7454C19.1797 12.7454 20.8303 14.2418 26.6989 14.2418C32.5676 14.2418 34.8499 12.7454 34.8499 12.7454C33.7819 11.3825 32.3574 10.3509 30.7387 9.76807V9.76807Z" fill="url(#paint6_linear_6029_122351)"/>
<path id="Vector_10" style="mix-blend-mode:multiply" opacity="0.23" d="M29.3516 14.1285C33.2742 13.7827 34.8687 12.7456 34.8687 12.7456C34.2091 11.8893 33.3949 11.1679 32.4693 10.6196C32.1993 12.1625 30.8951 13.4267 29.3516 14.1285Z" fill="url(#paint7_linear_6029_122351)"/>
<path id="Vector_11" style="mix-blend-mode:screen" d="M26.6675 9.90759C26.1309 9.91372 25.6114 9.71684 25.2105 9.35547C23.3688 9.61953 21.6541 10.4582 20.3047 11.7549C23.8096 13.143 26.8 10.8209 27.9054 9.77859C27.5025 9.88955 27.0843 9.93313 26.6675 9.90759V9.90759Z" fill="url(#paint8_linear_6029_122351)"/>
<path id="Vector_12" d="M27.4818 33.2716C27.4828 33.3649 27.4564 33.4564 27.4058 33.5344C27.3553 33.6124 27.2829 33.6733 27.198 33.7095C27.1131 33.7457 27.0195 33.7554 26.9291 33.7375C26.8387 33.7195 26.7556 33.6747 26.6905 33.6087C26.6253 33.5427 26.5811 33.4586 26.5633 33.3671C26.5456 33.2755 26.5552 33.1806 26.591 33.0946C26.6267 33.0086 26.6869 32.9353 26.7639 32.8841C26.8409 32.8329 26.9312 32.8061 27.0233 32.8072C27.1449 32.8072 27.2616 32.8561 27.3475 32.9432C27.4335 33.0303 27.4818 33.1484 27.4818 33.2716Z" fill="url(#paint9_linear_6029_122351)"/>
<path id="Vector_13" style="mix-blend-mode:screen" d="M27.3827 33.2732C27.3837 33.3439 27.3639 33.4132 27.3259 33.4724C27.2879 33.5317 27.2334 33.5781 27.1692 33.6058C27.1051 33.6336 27.0343 33.6414 26.9658 33.6282C26.8972 33.6151 26.8341 33.5816 26.7845 33.532C26.7348 33.4824 26.7008 33.419 26.6868 33.3498C26.6728 33.2806 26.6795 33.2087 26.7059 33.1434C26.7324 33.078 26.7774 33.0221 26.8354 32.9827C26.8933 32.9434 26.9614 32.9224 27.0312 32.9224C27.1235 32.9224 27.2122 32.9592 27.2779 33.0248C27.3437 33.0905 27.3813 33.1797 27.3827 33.2732V33.2732Z" fill="url(#paint10_linear_6029_122351)"/>
<path id="Vector_14" d="M32.9135 33.0713C32.9036 33.1502 32.8715 33.2246 32.821 33.2854C32.7705 33.3463 32.7036 33.3911 32.6286 33.4144C32.5535 33.4377 32.4734 33.4386 32.3979 33.4169C32.3223 33.3952 32.2546 33.3518 32.2028 33.2921C32.151 33.2323 32.1174 33.1586 32.1059 33.08C32.0945 33.0013 32.1057 32.9209 32.1382 32.8486C32.1708 32.7762 32.2233 32.7149 32.2894 32.672C32.3555 32.6292 32.4325 32.6066 32.511 32.6069C32.625 32.6149 32.7313 32.6682 32.8067 32.7552C32.8821 32.8421 32.9205 32.9558 32.9135 33.0713V33.0713Z" fill="url(#paint11_linear_6029_122351)"/>
<path id="Vector_15" style="mix-blend-mode:screen" d="M32.8141 33.0719C32.8063 33.1319 32.7815 33.1884 32.7427 33.2346C32.7039 33.2807 32.6528 33.3146 32.5956 33.332C32.5383 33.3495 32.4772 33.3498 32.4197 33.333C32.3623 33.3161 32.3108 33.2829 32.2716 33.2371C32.2323 33.1914 32.2069 33.1352 32.1984 33.0752C32.19 33.0152 32.1988 32.954 32.2238 32.899C32.2488 32.8439 32.289 32.7974 32.3395 32.7649C32.39 32.7324 32.4487 32.7154 32.5085 32.7158C32.5954 32.7224 32.6763 32.7635 32.7336 32.8302C32.7908 32.8969 32.8197 32.9837 32.8141 33.0719V33.0719Z" fill="url(#paint12_linear_6029_122351)"/>
<path id="Vector_16" d="M37.7723 32.6071C37.7846 32.6552 37.7858 32.7054 37.7759 32.754C37.766 32.8026 37.7453 32.8483 37.7153 32.8875C37.6853 32.9267 37.6468 32.9585 37.6029 32.9803C37.5589 33.0021 37.5105 33.0135 37.4616 33.0135C37.4126 33.0135 37.3643 33.0021 37.3203 32.9803C37.2763 32.9585 37.2378 32.9267 37.2078 32.8875C37.1778 32.8483 37.1571 32.8026 37.1472 32.754C37.1373 32.7054 37.1386 32.6552 37.1508 32.6071C37.1392 32.5109 37.1651 32.4138 37.2232 32.3366C37.2813 32.2595 37.3668 32.2084 37.4616 32.1943C37.6348 32.1943 37.7723 32.3749 37.7723 32.6071Z" fill="url(#paint13_linear_6029_122351)"/>
<path id="Vector_17" style="mix-blend-mode:screen" d="M37.7001 32.6063C37.7089 32.6787 37.6892 32.7516 37.6454 32.8095C37.6016 32.8674 37.5371 32.9056 37.4658 32.9159C37.3991 32.8962 37.3404 32.8552 37.2987 32.7989C37.2569 32.7426 37.2344 32.6741 37.2344 32.6037C37.2344 32.5333 37.2569 32.4648 37.2987 32.4085C37.3404 32.3522 37.3991 32.3111 37.4658 32.2915C37.5983 32.2915 37.7001 32.4308 37.7001 32.6063Z" fill="url(#paint14_linear_6029_122351)"/>
<path id="Vector_18" d="M42.7902 31.8128C42.7902 31.9934 42.6527 32.1275 42.5202 32.112C42.3878 32.0966 42.291 31.9469 42.3063 31.7663C42.3216 31.5857 42.4438 31.4516 42.5763 31.467C42.613 31.4749 42.6479 31.4902 42.6787 31.512C42.7095 31.5338 42.7357 31.5617 42.7556 31.5939C42.7756 31.6262 42.7889 31.6622 42.7949 31.6998C42.8008 31.7374 42.7993 31.7758 42.7902 31.8128Z" fill="url(#paint15_linear_6029_122351)"/>
<path id="Vector_19" style="mix-blend-mode:screen" d="M42.7322 31.8069C42.7322 31.941 42.6252 32.0442 42.5234 32.0339C42.4215 32.0236 42.3502 31.9101 42.3603 31.7708C42.3705 31.6314 42.4673 31.5334 42.5692 31.5437C42.6243 31.5584 42.6718 31.5938 42.7021 31.6426C42.7324 31.6915 42.7432 31.7502 42.7322 31.8069V31.8069Z" fill="url(#paint16_linear_6029_122351)"/>
<path id="Vector_20" d="M46.9556 30.9702C46.9556 31.1043 46.8537 31.1972 46.7671 31.1869C46.6805 31.1766 46.6244 31.0579 46.6448 30.9289C46.6652 30.7999 46.7467 30.7019 46.8333 30.7122C46.9199 30.7225 46.9759 30.8309 46.9556 30.9702Z" fill="url(#paint17_linear_6029_122351)"/>
<path id="Vector_21" style="mix-blend-mode:screen" d="M46.9143 30.9719C46.9143 31.0751 46.8378 31.1474 46.7716 31.137C46.7054 31.1267 46.6595 31.039 46.6748 30.941C46.6901 30.8429 46.7512 30.7655 46.8175 30.7758C46.8837 30.7861 46.9244 30.8584 46.9143 30.9719Z" fill="url(#paint18_linear_6029_122351)"/>
<path id="Vector_22" d="M21.1379 33.0703C21.1286 33.13 21.1321 33.191 21.1483 33.2492C21.1645 33.3074 21.1929 33.3613 21.2316 33.4072C21.2704 33.4532 21.3185 33.4901 21.3727 33.5154C21.4269 33.5407 21.4858 33.5538 21.5455 33.5538C21.6051 33.5538 21.6641 33.5407 21.7182 33.5154C21.7724 33.4901 21.8205 33.4532 21.8593 33.4072C21.898 33.3613 21.9264 33.3074 21.9426 33.2492C21.9588 33.191 21.9623 33.13 21.953 33.0703C21.9623 33.0107 21.9588 32.9497 21.9426 32.8915C21.9264 32.8333 21.898 32.7794 21.8593 32.7335C21.8205 32.6875 21.7724 32.6506 21.7182 32.6253C21.6641 32.6 21.6051 32.5869 21.5455 32.5869C21.4858 32.5869 21.4269 32.6 21.3727 32.6253C21.3185 32.6506 21.2704 32.6875 21.2316 32.7335C21.1929 32.7794 21.1645 32.8333 21.1483 32.8915C21.1321 32.9497 21.1286 33.0107 21.1379 33.0703V33.0703Z" fill="url(#paint19_linear_6029_122351)"/>
<path id="Vector_23" style="mix-blend-mode:screen" d="M21.2272 33.0719C21.2245 33.1159 21.2303 33.1601 21.2445 33.2019C21.2586 33.2436 21.2807 33.2822 21.3096 33.3153C21.3385 33.3483 21.3735 33.3753 21.4127 33.3946C21.4519 33.414 21.4945 33.4253 21.538 33.4279C21.6209 33.4136 21.6962 33.3699 21.7505 33.3048C21.8048 33.2396 21.8345 33.1571 21.8345 33.0719C21.8345 32.9866 21.8048 32.9041 21.7505 32.8389C21.6962 32.7738 21.6209 32.7302 21.538 32.7158C21.4945 32.7184 21.4519 32.7297 21.4127 32.7491C21.3735 32.7684 21.3385 32.7954 21.3096 32.8285C21.2807 32.8616 21.2586 32.9001 21.2445 32.9419C21.2303 32.9836 21.2245 33.0278 21.2272 33.0719V33.0719Z" fill="url(#paint20_linear_6029_122351)"/>
<path id="Vector_24" d="M16.2705 32.6071C16.2567 32.6556 16.2541 32.7066 16.263 32.7562C16.272 32.8058 16.2922 32.8527 16.3221 32.893C16.352 32.9333 16.3908 32.9661 16.4353 32.9886C16.4799 33.0111 16.529 33.0229 16.5788 33.0229C16.6286 33.0229 16.6777 33.0111 16.7222 32.9886C16.7668 32.9661 16.8055 32.9333 16.8354 32.893C16.8653 32.8527 16.8855 32.8058 16.8945 32.7562C16.9034 32.7066 16.9009 32.6556 16.887 32.6071C16.887 32.3749 16.7494 32.1943 16.5813 32.1943C16.4132 32.1943 16.2705 32.3749 16.2705 32.6071Z" fill="url(#paint21_linear_6029_122351)"/>
<path id="Vector_25" style="mix-blend-mode:screen" d="M16.3457 32.6063C16.358 32.6505 16.3822 32.6903 16.4156 32.7214C16.4489 32.7525 16.4902 32.7736 16.5347 32.7823C16.5792 32.791 16.6252 32.7871 16.6676 32.7708C16.71 32.7546 16.7471 32.7267 16.7748 32.6903C16.8025 32.6539 16.8196 32.6105 16.8243 32.5648C16.829 32.5191 16.8211 32.473 16.8014 32.4317C16.7817 32.3903 16.7511 32.3553 16.7129 32.3305C16.6747 32.3058 16.6305 32.2923 16.5852 32.2915C16.5125 32.3018 16.4468 32.3405 16.402 32.3994C16.3572 32.4582 16.337 32.5325 16.3457 32.6063V32.6063Z" fill="url(#paint22_linear_6029_122351)"/>
<path id="Vector_26" d="M11.2562 31.8127C11.2562 31.9933 11.3937 32.1275 11.5313 32.112C11.6042 32.0936 11.6672 32.0473 11.7071 31.9828C11.747 31.9184 11.7606 31.8407 11.7452 31.7663C11.7452 31.5908 11.6077 31.4515 11.4701 31.467C11.3973 31.4854 11.3342 31.5317 11.2943 31.5962C11.2544 31.6606 11.2408 31.7383 11.2562 31.8127V31.8127Z" fill="url(#paint23_linear_6029_122351)"/>
<path id="Vector_27" style="mix-blend-mode:screen" d="M11.3254 31.8068C11.3254 31.941 11.4272 32.0442 11.5291 32.0339C11.5571 32.0278 11.5836 32.0161 11.607 31.9995C11.6304 31.9829 11.6503 31.9617 11.6655 31.9371C11.6807 31.9126 11.6909 31.8853 11.6955 31.8567C11.7 31.8281 11.6989 31.7988 11.6922 31.7707C11.6922 31.6366 11.5903 31.5334 11.4884 31.5437C11.4326 31.5572 11.3843 31.5923 11.3538 31.6415C11.3233 31.6907 11.3131 31.7501 11.3254 31.8068Z" fill="url(#paint24_linear_6029_122351)"/>
<path id="Vector_28" d="M7.22126 31.0381C7.22126 31.1722 7.32315 31.2703 7.40975 31.2548C7.49635 31.2393 7.55239 31.131 7.53711 30.9968C7.52183 30.8626 7.43522 30.7698 7.34862 30.7801C7.26201 30.7904 7.20598 30.9091 7.22126 31.0381Z" fill="url(#paint25_linear_6029_122351)"/>
<path id="Vector_29" style="mix-blend-mode:screen" d="M7.26102 31.0328C7.26102 31.136 7.33744 31.2082 7.40366 31.1979C7.46989 31.1876 7.51064 31.105 7.50046 31.0018C7.49027 30.8986 7.41895 30.8315 7.35272 30.8367C7.28649 30.8419 7.24574 30.9347 7.26102 31.0328Z" fill="url(#paint26_linear_6029_122351)"/>
<path id="Vector_30" d="M28.486 9.21068L27.5486 5.59863H26.3463L25.4141 9.21068C25.4141 9.21068 25.6484 9.65444 26.9424 9.6596C28.2771 9.65444 28.486 9.21068 28.486 9.21068Z" fill="url(#paint27_linear_6029_122351)"/>
<path id="Vector_31" d="M26.9344 5.74915C27.2692 5.74915 27.5406 5.69371 27.5406 5.62531C27.5406 5.55692 27.2692 5.50146 26.9344 5.50146C26.5995 5.50146 26.3281 5.55692 26.3281 5.62531C26.3281 5.69371 26.5995 5.74915 26.9344 5.74915Z" fill="url(#paint28_linear_6029_122351)"/>
<path id="Vector_32" style="mix-blend-mode:multiply" opacity="0.25" d="M27.835 6.71777C27.7566 7.41413 27.4963 8.07673 27.081 8.63731C26.7936 9.04087 26.3922 9.34672 25.9297 9.51452C26.2609 9.60984 26.6043 9.65505 26.9486 9.64868V9.64868C28.2425 9.64868 28.4769 9.19976 28.4769 9.19976L27.835 6.71777Z" fill="url(#paint29_linear_6029_122351)"/>
<path id="Vector_33" style="mix-blend-mode:multiply" opacity="0.25" d="M28.0677 7.62305C28.0149 7.98265 27.9048 8.33119 27.7417 8.65505C27.5336 9.0776 27.2006 9.42391 26.7891 9.64578H26.9521C28.246 9.64578 28.4804 9.19686 28.4804 9.19686L28.0677 7.62305Z" fill="url(#paint30_linear_6029_122351)"/>
<path id="Vector_34" style="mix-blend-mode:multiply" opacity="0.25" d="M25.6172 9.29927C26.0549 9.4941 26.5303 9.5869 27.0082 9.57083C27.4861 9.55475 27.9543 9.43022 28.3783 9.20639L27.6345 6.14648C27.6345 6.14648 28.0574 8.7265 27.8791 8.91226C27.7008 9.09803 27.0538 9.47987 25.6172 9.29927Z" fill="url(#paint31_linear_6029_122351)"/>
<path id="Vector_35" d="M15.1077 18.3081C15.1077 18.3081 1.86241 20.2844 0.0946767 26.3526C0.0946767 26.3526 -1.17891 32.1938 27.0234 32.1938C54.0234 32.1938 53.9724 26.461 53.9724 26.461C53.9724 26.461 52.6071 20.723 38.9339 18.5609C38.9339 18.5609 37.7011 20.821 27.0234 20.821C16.3456 20.821 15.1077 18.3081 15.1077 18.3081Z" fill="url(#paint32_linear_6029_122351)"/>
<path id="Vector_36" d="M26.9501 5.61918C27.0914 5.62207 27.2075 5.50835 27.2075 5.36706V0.252169C27.2075 0.1129 27.0946 0 26.9553 0V0C26.816 0 26.7031 0.1129 26.7031 0.25217V5.36706C26.7031 5.50432 26.8129 5.61637 26.9501 5.61918V5.61918Z" fill="url(#paint33_linear_6029_122351)"/>
<path id="Vector_37" style="mix-blend-mode:multiply" opacity="0.73" d="M27.0495 0.00976562C27.0495 0.00976562 27.1311 3.45667 26.7031 4.72604V5.62389H27.2126V0.27999C27.2126 0.166647 27.1498 0.0626205 27.0495 0.00976562V0.00976562Z" fill="url(#paint34_linear_6029_122351)"/>
<path id="Vector_38" style="mix-blend-mode:screen" opacity="0.68" d="M14.7836 18.8457C14.7836 18.8457 15.8025 21.565 29.3432 21.209C29.3432 21.209 20.1123 22.112 11.7423 22.9995C3.86643 23.8355 -0.0714944 26.8386 0.50926 25.7705C1.74718 23.4846 5.10945 20.4969 14.7836 18.8457Z" fill="url(#paint35_linear_6029_122351)"/>
<path id="Vector_39" style="mix-blend-mode:multiply" opacity="0.38" d="M39.0142 19.1035C37.7967 20.6515 35.2087 21.0798 34.0625 21.1675C34.772 21.4753 35.4537 21.8448 36.1002 22.2718C37.5039 23.197 38.6811 24.4338 39.5426 25.8884C40.404 27.343 40.9272 28.9773 41.0723 30.6672C52.3359 29.9396 53.4923 26.4514 53.4923 26.4514C50.5885 20.1355 39.0142 19.1035 39.0142 19.1035Z" fill="url(#paint36_linear_6029_122351)"/>
<path id="Vector_40" style="mix-blend-mode:multiply" opacity="0.38" d="M38.7972 22.1018C41.7723 21.4104 42.2715 19.207 42.2715 19.207C41.2527 18.9697 40.1421 18.7529 38.9347 18.562C38.9347 18.562 37.7019 20.8221 27.0242 20.8221C24.2546 20.885 21.4866 20.6358 18.7713 20.0791L18.4453 20.1461C18.4453 20.1461 29.8923 24.1813 38.7972 22.1018Z" fill="url(#paint37_linear_6029_122351)"/>
<path id="Vector_41" style="mix-blend-mode:screen" opacity="0.68" d="M14.79 18.8457C14.79 18.8457 -2.8823 22.1017 7.38789 25.7705C19.3188 30.0275 37.7094 24.5682 37.7094 24.5682C37.7094 24.5682 36.0486 22.9479 35.1113 22.8138C35.1113 22.8138 22.8849 24.7797 19.0539 20.724C14.52 20.1048 14.79 18.8457 14.79 18.8457Z" fill="url(#paint38_linear_6029_122351)"/>
<path id="Vector_42" style="mix-blend-mode:multiply" opacity="0.38" d="M44.8517 20.2788C45.7885 21.1965 46.3825 22.4145 46.5329 23.7257C46.6315 25.1077 46.3097 26.4872 45.6108 27.6783C45.1162 28.6756 44.513 29.6137 43.8125 30.4751C53.5325 28.9271 53.4917 26.4554 53.4917 26.4554C52.2538 23.3387 48.4076 21.4192 44.8517 20.2788Z" fill="url(#paint39_linear_6029_122351)"/>
<path id="Vector_43" d="M46.0045 20.2796C44.955 18.9896 38.5362 18.2466 38.5362 18.2466C39.1322 21.1878 27.3948 21.3426 27.0128 21.3426C26.6307 21.3426 14.9086 21.1981 15.5046 18.2466C15.5046 18.2466 9.08068 18.969 8.03125 20.259C8.03125 20.259 8.03125 20.775 8.03125 20.8472C8.0771 21.6161 12.5041 20.6305 12.8709 21.549C13.2835 22.581 11.9131 26.4975 13.9763 26.9464C16.0396 27.3953 21.3326 24.2632 22.382 24.2632C23.4314 24.2632 24.1243 29.1343 27.0128 28.9588C29.9013 29.1343 30.5788 24.2787 31.6384 24.2632C32.698 24.2477 38.0471 27.3592 40.0594 26.9412C42.0716 26.5233 40.7522 22.5604 41.1597 21.5438C41.5265 20.646 45.7956 21.5748 45.9943 20.8834C46.0096 20.6825 46.013 20.4809 46.0045 20.2796V20.2796Z" fill="url(#paint40_linear_6029_122351)"/>
<path id="Vector_44" d="M45.868 20.0416C44.8186 18.7516 38.5372 17.7402 38.5372 17.7402C39.1333 20.6763 27.3959 20.8363 27.0138 20.8363C26.6318 20.8363 14.9097 20.6918 15.5057 17.7402C15.5057 17.7402 9.20913 18.7722 8.1597 20.0416C7.11026 21.311 12.4542 20.0416 12.8618 21.0427C13.2693 22.0437 11.904 25.986 13.9672 26.4349C16.0305 26.8838 21.3337 23.7465 22.3831 23.7465C23.4325 23.7465 24.1254 28.6176 27.0138 28.4422C29.9023 28.6176 30.5799 23.762 31.6395 23.7465C32.6991 23.731 38.0482 26.8683 40.0605 26.4246C42.0727 25.9808 40.7533 22.0437 41.1608 21.0323C41.5684 20.021 46.9174 21.3316 45.868 20.0416Z" fill="url(#paint41_linear_6029_122351)"/>
<path id="Vector_45" d="M9.38255 19.6191C9.49972 20.1351 10.5441 20.3003 11.7107 20.0216C12.8773 19.743 13.7484 19.1135 13.621 18.6129C13.5877 18.5155 13.5313 18.4278 13.4567 18.3576C13.382 18.2874 13.2915 18.2369 13.1931 18.2104C11.9115 18.4597 10.6511 18.8099 9.42331 19.2579C9.36691 19.3693 9.35243 19.4977 9.38255 19.6191Z" fill="url(#paint42_linear_6029_122351)"/>
<path id="Vector_46" d="M13.2881 18.6644C13.39 19.0876 12.6666 19.6191 11.6783 19.8564C10.69 20.0938 9.80866 19.939 9.71186 19.5159C9.61507 19.0927 10.3334 18.5561 11.3217 18.3187C12.31 18.0814 13.1913 18.2413 13.2881 18.6644Z" fill="url(#paint43_linear_6029_122351)"/>
<path id="Vector_47" d="M17.5727 21.2503C18.3471 21.9108 18.2961 23.273 17.4505 24.2947C16.6048 25.3164 15.2905 25.6105 14.511 24.9449C13.7316 24.2793 13.7877 22.9222 14.6333 21.9005C15.479 20.8788 16.7729 20.5898 17.5727 21.2503Z" fill="url(#paint44_linear_6029_122351)"/>
<path id="Vector_48" d="M17.3589 21.4867C18.016 22.044 17.9498 23.2154 17.2111 24.108C16.4725 25.0007 15.3415 25.269 14.664 24.7118C13.9864 24.1545 14.073 22.978 14.8117 22.0905C15.5504 21.2029 16.7017 20.9243 17.3589 21.4867Z" fill="url(#paint45_linear_6029_122351)"/>
<path id="Vector_49" d="M27.0207 21.6201C28.1772 21.6201 29.1145 22.8947 29.1145 24.4633C29.1145 26.032 28.1772 27.3116 27.0207 27.3116C25.8643 27.3116 24.9219 26.0371 24.9219 24.4633C24.9219 22.8895 25.8643 21.6201 27.0207 21.6201Z" fill="url(#paint46_linear_6029_122351)"/>
<path id="Vector_50" d="M27.016 21.9614C28.0349 21.9614 28.8602 23.0812 28.8602 24.4641C28.8602 25.847 28.0349 26.9718 27.016 26.9718C25.9972 26.9718 25.1719 25.847 25.1719 24.4641C25.1719 23.0812 25.9972 21.9614 27.016 21.9614Z" fill="url(#paint47_linear_6029_122351)"/>
<path id="Vector_51" style="mix-blend-mode:multiply" opacity="0.45" d="M13.2923 18.6645C13.2464 18.453 13.007 18.3137 12.6606 18.2466C12.6893 18.3189 12.7014 18.3969 12.6961 18.4746C12.6908 18.5524 12.6682 18.6279 12.63 18.6955C12.4643 18.9571 12.2246 19.1621 11.9423 19.2838C11.6887 19.4101 11.4197 19.502 11.1424 19.5572C10.8571 19.6345 10.5567 19.6345 10.2713 19.5572C10.0642 19.5027 9.88339 19.3745 9.76188 19.196C9.72992 19.242 9.70756 19.2941 9.69617 19.3491C9.68479 19.4041 9.68461 19.4609 9.69566 19.516C9.79245 19.9391 10.6738 20.0887 11.6621 19.8565C12.6504 19.6243 13.3941 19.1032 13.2923 18.6645Z" fill="url(#paint48_linear_6029_122351)"/>
<path id="Vector_52" style="mix-blend-mode:multiply" opacity="0.45" d="M17.5187 21.646C17.5111 21.9108 17.4486 22.171 17.3353 22.4097C17.124 22.8338 16.8313 23.211 16.4743 23.5191C16.1989 23.7984 15.8413 23.9795 15.4555 24.0351C15.0327 24.0655 14.6137 23.9369 14.2787 23.6739L14.2277 23.6223C14.2194 23.8236 14.2553 24.0244 14.3329 24.21C14.4104 24.3955 14.5276 24.5614 14.676 24.6956C15.3332 25.2529 16.4642 24.9845 17.2232 24.0919C17.8906 23.2921 18.0026 22.2446 17.5187 21.646Z" fill="url(#paint49_linear_6029_122351)"/>
<path id="Vector_53" d="M44.5712 19.6191C44.454 20.1351 43.4097 20.3003 42.2431 20.0216C41.0765 19.743 40.2053 19.1135 40.3327 18.6129C40.366 18.5155 40.4225 18.4278 40.4971 18.3576C40.5717 18.2874 40.6622 18.2369 40.7606 18.2104C42.0377 18.4689 43.2931 18.8277 44.5151 19.2837C44.575 19.3843 44.5951 19.5042 44.5712 19.6191V19.6191Z" fill="url(#paint50_linear_6029_122351)"/>
<path id="Vector_54" d="M40.6728 18.6644C40.576 19.0876 41.2943 19.6191 42.2826 19.8564C43.2709 20.0938 44.1522 19.939 44.249 19.5159C44.3458 19.0927 43.6275 18.5561 42.6392 18.3187C41.6509 18.0814 40.7696 18.2413 40.6728 18.6644Z" fill="url(#paint51_linear_6029_122351)"/>
<path id="Vector_55" d="M36.4275 21.2503C35.648 21.9108 35.699 23.273 36.5446 24.2947C37.3903 25.3164 38.7046 25.6105 39.4841 24.9449C40.2635 24.2793 40.2075 22.9222 39.3618 21.9005C38.5161 20.8788 37.1916 20.5898 36.4275 21.2503Z" fill="url(#paint52_linear_6029_122351)"/>
<path id="Vector_56" d="M36.6112 21.4867C35.954 22.044 36.0151 23.2154 36.7538 24.108C37.4925 25.0007 38.6234 25.269 39.301 24.7118C39.9785 24.1545 39.8919 22.978 39.1532 22.0905C38.4146 21.2029 37.2683 20.9243 36.6112 21.4867Z" fill="url(#paint53_linear_6029_122351)"/>
<path id="Vector_57" style="mix-blend-mode:multiply" opacity="0.45" d="M40.6726 18.6645C40.7185 18.453 40.9579 18.3137 41.3043 18.2466C41.2756 18.3189 41.2635 18.3969 41.2688 18.4746C41.2741 18.5524 41.2967 18.6279 41.3349 18.6955C41.502 18.9579 41.7435 19.1629 42.0277 19.2838C42.2793 19.4108 42.5466 19.5028 42.8225 19.5572C43.1078 19.6345 43.4082 19.6345 43.6936 19.5572C43.9003 19.5018 44.0809 19.3738 44.203 19.196C44.2642 19.2903 44.2862 19.4053 44.2642 19.516C44.1674 19.9391 43.286 20.0887 42.2977 19.8565C41.3094 19.6243 40.5758 19.1032 40.6726 18.6645Z" fill="url(#paint54_linear_6029_122351)"/>
<path id="Vector_58" style="mix-blend-mode:multiply" opacity="0.45" d="M36.4578 21.646C36.4637 21.9104 36.5244 22.1706 36.6361 22.4097C36.8491 22.8327 37.1415 23.2096 37.4971 23.5191C37.7725 23.7984 38.1301 23.9795 38.5159 24.0351C38.9388 24.0665 39.3582 23.9378 39.6927 23.6739L39.7437 23.6223C39.752 23.8236 39.7161 24.0244 39.6386 24.21C39.561 24.3955 39.4438 24.5614 39.2954 24.6956C38.6382 25.2529 37.5073 24.9845 36.7482 24.0919C36.0808 23.2921 35.9688 22.2446 36.4578 21.646Z" fill="url(#paint55_linear_6029_122351)"/>
<path id="Vector_59" style="mix-blend-mode:multiply" opacity="0.45" d="M28.3162 22.7158C28.4009 23.2299 28.3853 23.7558 28.2703 24.2638C28.0971 25.1307 27.6335 26.1834 26.6809 26.3794C26.3421 26.4484 25.9902 26.3935 25.6875 26.2246C25.8321 26.4498 26.0277 26.6366 26.2582 26.7695C26.4886 26.9023 26.7471 26.9774 27.012 26.9883C28.0309 26.9883 28.8562 25.8634 28.8562 24.4806C28.8669 23.849 28.6777 23.2305 28.3162 22.7158V22.7158Z" fill="url(#paint56_linear_6029_122351)"/>
<g id="Group" style="mix-blend-mode:screen">
<path id="Vector_60" style="mix-blend-mode:screen" d="M40.0649 26.0246C38.0271 26.4632 32.6984 23.331 31.6439 23.3414C30.5894 23.3517 29.9067 28.2124 27.0183 28.0421C24.1298 28.2124 23.4522 23.3568 22.3875 23.3414C21.3228 23.3259 15.9788 26.4374 13.9717 26.0246C13.075 25.8285 12.8254 24.9926 12.8 23.9864C12.7694 25.1371 12.9528 26.2103 13.9717 26.4322C15.9788 26.876 21.3381 23.7387 22.3875 23.7542C23.4369 23.7696 24.1298 28.6252 27.0183 28.4498C29.9067 28.6252 30.5843 23.7696 31.6439 23.7542C32.7035 23.7387 38.0526 26.876 40.0649 26.4322C41.0837 26.2103 41.262 25.1371 41.2366 23.9864C41.2111 24.9719 40.9615 25.8079 40.0649 26.0246Z" fill="url(#paint57_linear_6029_122351)"/>
<path id="Vector_61" style="mix-blend-mode:screen" d="M12.8678 21.041C12.9188 21.1797 12.9447 21.3265 12.9442 21.4745C12.9755 21.1901 12.9495 20.9022 12.8678 20.6282C12.5315 19.7871 8.79228 20.5405 8.13002 20.0864C7.25379 21.2939 12.4857 20.0348 12.8678 21.041Z" fill="url(#paint58_linear_6029_122351)"/>
<path id="Vector_62" style="mix-blend-mode:screen" d="M41.1658 20.6482C41.0867 20.9227 41.0608 21.2101 41.0894 21.4945C41.0915 21.3468 41.1173 21.2004 41.1658 21.061C41.5683 20.0548 46.7696 21.3139 45.9086 20.1064C45.2413 20.5399 41.5224 19.7865 41.1658 20.6482Z" fill="url(#paint59_linear_6029_122351)"/>
</g>
<path id="Vector_63" style="mix-blend-mode:screen" opacity="0.68" d="M15.2147 18.0083C15.2147 18.0083 14.4098 20.9856 27.0183 21.0424C26.4603 21.0799 25.9301 21.3023 25.5094 21.6754C25.0886 22.0484 24.8007 22.5513 24.6901 23.1064C24.0538 22.8033 23.3552 22.6582 22.6524 22.6833C21.6794 22.7865 18.2967 24.4532 18.2967 24.4532C18.2967 24.4532 19.392 21.1095 17.4969 20.6193C15.6018 20.1291 13.8647 22.2292 13.8647 22.2292C13.8647 22.2292 13.5183 20.3716 12.9375 20.0775C12.9375 20.0775 14.3537 19.1229 13.7118 18.2973L15.2147 18.0083Z" fill="url(#paint60_linear_6029_122351)"/>
<path id="Vector_64" style="mix-blend-mode:multiply" opacity="0.38" d="M48.998 21.6201C48.2644 23.1681 44.4997 22.5025 43.5419 23.2352C42.4823 24.0402 43.9342 26.7544 41.978 28.194C40.0217 29.6337 33.4348 27.3116 32.1102 27.3013C30.7857 27.291 30.75 30.3406 27.1076 30.5212C23.4651 30.7018 22.8131 27.5542 21.947 26.9711C21.081 26.388 14.0253 29.2879 11.7583 28.6997C9.49136 28.1114 10.7395 23.7254 9.95494 23.0959C9.17041 22.4664 5.06438 23.0959 4.43777 22.6934C4.18815 22.5231 4.20343 22.1774 4.31041 21.8265C2.27268 22.9824 0.647584 24.4736 0.102489 26.3519C0.102489 26.3519 -1.1711 32.193 27.0312 32.193C54.0312 32.193 53.9802 26.4602 53.9802 26.4602C53.9802 26.4602 53.3689 23.9473 48.998 21.6201Z" fill="url(#paint61_linear_6029_122351)"/>
</g>
</g>
<defs>
<linearGradient id="paint0_linear_6029_122351" x1="24.6923" y1="30.2478" x2="41.958" y2="5.47985" gradientUnits="userSpaceOnUse">
<stop stop-color="#E2E9EE"/>
<stop offset="0.14" stop-color="#DDE5EB"/>
<stop offset="0.29" stop-color="#D0DBE3"/>
<stop offset="0.46" stop-color="#B9CAD6"/>
<stop offset="0.63" stop-color="#9AB2C3"/>
<stop offset="0.8" stop-color="#7192AA"/>
<stop offset="0.97" stop-color="#406D8D"/>
<stop offset="1" stop-color="#3A6889"/>
</linearGradient>
<linearGradient id="paint1_linear_6029_122351" x1="3026.16" y1="3112.62" x2="3616.08" y2="1768.85" gradientUnits="userSpaceOnUse">
<stop stop-color="#A4B9C8"/>
<stop offset="0.18" stop-color="#9FB5C5"/>
<stop offset="0.38" stop-color="#92ABBD"/>
<stop offset="0.59" stop-color="#7B9AB0"/>
<stop offset="0.8" stop-color="#5C829D"/>
<stop offset="1" stop-color="#3A6889"/>
</linearGradient>
<linearGradient id="paint2_linear_6029_122351" x1="2596.23" y1="4886.76" x2="2064.23" y2="4288.33" gradientUnits="userSpaceOnUse">
<stop stop-color="#FF6342"/>
<stop offset="1" stop-color="#FFB648"/>
</linearGradient>
<linearGradient id="paint3_linear_6029_122351" x1="1939.17" y1="4775.07" x2="1528.63" y2="4436.63" gradientUnits="userSpaceOnUse">
<stop stop-color="#FF6342"/>
<stop offset="1" stop-color="#FFB648"/>
</linearGradient>
<linearGradient id="paint4_linear_6029_122351" x1="1622.3" y1="2218.88" x2="1444.37" y2="1952.31" gradientUnits="userSpaceOnUse">
<stop stop-color="#FF6342"/>
<stop offset="1" stop-color="#FFFF48"/>
</linearGradient>
<linearGradient id="paint5_linear_6029_122351" x1="24.2893" y1="9.54728" x2="29.2876" y2="15.227" gradientUnits="userSpaceOnUse">
<stop stop-color="#CCD8E0"/>
<stop offset="0.15" stop-color="#C7D4DD"/>
<stop offset="0.32" stop-color="#BACAD5"/>
<stop offset="0.49" stop-color="#A3B9C8"/>
<stop offset="0.68" stop-color="#84A1B5"/>
<stop offset="0.86" stop-color="#5C829D"/>
<stop offset="1" stop-color="#3A6889"/>
</linearGradient>
<linearGradient id="paint6_linear_6029_122351" x1="24.2893" y1="9.54618" x2="29.2876" y2="15.2259" gradientUnits="userSpaceOnUse">
<stop stop-color="#CED9E1"/>
<stop offset="0.15" stop-color="#C9D5DE"/>
<stop offset="0.31" stop-color="#BCCBD6"/>
<stop offset="0.49" stop-color="#A5BAC9"/>
<stop offset="0.67" stop-color="#86A2B6"/>
<stop offset="0.86" stop-color="#5E839E"/>
<stop offset="1" stop-color="#3A6889"/>
</linearGradient>
<linearGradient id="paint7_linear_6029_122351" x1="493.953" y1="804.037" x2="522.922" y2="856.518" gradientUnits="userSpaceOnUse">
<stop stop-color="#CED9E1"/>
<stop offset="0.15" stop-color="#C9D5DE"/>
<stop offset="0.31" stop-color="#BCCBD6"/>
<stop offset="0.49" stop-color="#A5BAC9"/>
<stop offset="0.67" stop-color="#86A2B6"/>
<stop offset="0.86" stop-color="#5E839E"/>
<stop offset="1" stop-color="#3A6889"/>
</linearGradient>
<linearGradient id="paint8_linear_6029_122351" x1="23.5192" y1="8.96846" x2="25.7033" y2="15.3189" gradientUnits="userSpaceOnUse">
<stop stop-color="white"/>
<stop offset="0.13" stop-color="#FAFBFC"/>
<stop offset="0.27" stop-color="#EDF1F4"/>
<stop offset="0.42" stop-color="#D6E0E7"/>
<stop offset="0.57" stop-color="#B7C8D4"/>
<stop offset="0.73" stop-color="#8EA9BB"/>
<stop offset="0.89" stop-color="#5D839E"/>
<stop offset="1" stop-color="#3A6889"/>
</linearGradient>
<linearGradient id="paint9_linear_6029_122351" x1="105.558" y1="293.275" x2="104.446" y2="291.805" gradientUnits="userSpaceOnUse">
<stop stop-color="#FF6342"/>
<stop offset="1" stop-color="#FFFF48"/>
</linearGradient>
<linearGradient id="paint10_linear_6029_122351" x1="86.4713" y1="230.268" x2="85.8281" y2="229.422" gradientUnits="userSpaceOnUse">
<stop stop-color="#FF6342"/>
<stop offset="1" stop-color="#FFFF48"/>
</linearGradient>
<linearGradient id="paint11_linear_6029_122351" x1="110.081" y1="261.234" x2="109.144" y2="260.001" gradientUnits="userSpaceOnUse">
<stop stop-color="#FF6342"/>
<stop offset="1" stop-color="#FFFF48"/>
</linearGradient>
<linearGradient id="paint12_linear_6029_122351" x1="91.5441" y1="206.914" x2="91.0003" y2="206.205" gradientUnits="userSpaceOnUse">
<stop stop-color="#FF6342"/>
<stop offset="1" stop-color="#FFFF48"/>
</linearGradient>
<linearGradient id="paint13_linear_6029_122351" x1="104.911" y1="258.181" x2="104.092" y2="257.326" gradientUnits="userSpaceOnUse">
<stop stop-color="#FF6342"/>
<stop offset="1" stop-color="#FFFF48"/>
</linearGradient>
<linearGradient id="paint14_linear_6029_122351" x1="86.5623" y1="204.432" x2="86.088" y2="203.959" gradientUnits="userSpaceOnUse">
<stop stop-color="#FF6342"/>
<stop offset="1" stop-color="#FFFF48"/>
</linearGradient>
<linearGradient id="paint15_linear_6029_122351" x1="84.0674" y1="213.231" x2="83.6016" y2="212.666" gradientUnits="userSpaceOnUse">
<stop stop-color="#FF6342"/>
<stop offset="1" stop-color="#FFFF48"/>
</linearGradient>
<linearGradient id="paint16_linear_6029_122351" x1="75.7125" y1="171.187" x2="75.4427" y2="170.858" gradientUnits="userSpaceOnUse">
<stop stop-color="#FF6342"/>
<stop offset="1" stop-color="#FFFF48"/>
</linearGradient>
<linearGradient id="paint17_linear_6029_122351" x1="72.825" y1="165.038" x2="72.592" y2="164.767" gradientUnits="userSpaceOnUse">
<stop stop-color="#FF6342"/>
<stop offset="1" stop-color="#FFFF48"/>
</linearGradient>
<linearGradient id="paint18_linear_6029_122351" x1="68.7721" y1="135.136" x2="68.637" y2="134.978" gradientUnits="userSpaceOnUse">
<stop stop-color="#FF6342"/>
<stop offset="1" stop-color="#FFFF48"/>
</linearGradient>
<linearGradient id="paint19_linear_6029_122351" x1="23.8814" y1="300.332" x2="25.0104" y2="299.045" gradientUnits="userSpaceOnUse">
<stop stop-color="#FF6342"/>
<stop offset="1" stop-color="#FFFF48"/>
</linearGradient>
<linearGradient id="paint20_linear_6029_122351" x1="-3.53519" y1="229.759" x2="-2.90315" y2="229.044" gradientUnits="userSpaceOnUse">
<stop stop-color="#FF6342"/>
<stop offset="1" stop-color="#FFFF48"/>
</linearGradient>
<linearGradient id="paint21_linear_6029_122351" x1="-0.568668" y1="260.773" x2="0.259439" y2="259.917" gradientUnits="userSpaceOnUse">
<stop stop-color="#FF6342"/>
<stop offset="1" stop-color="#FFFF48"/>
</linearGradient>
<linearGradient id="paint22_linear_6029_122351" x1="-19.2301" y1="168.857" x2="-18.8658" y2="168.386" gradientUnits="userSpaceOnUse">
<stop stop-color="#FF6342"/>
<stop offset="1" stop-color="#FFFF48"/>
</linearGradient>
<linearGradient id="paint23_linear_6029_122351" x1="-0.854163" y1="213.26" x2="-0.389299" y2="212.687" gradientUnits="userSpaceOnUse">
<stop stop-color="#FF6342"/>
<stop offset="1" stop-color="#FFFF48"/>
</linearGradient>
<linearGradient id="paint24_linear_6029_122351" x1="-19.3937" y1="170.538" x2="-19.1241" y2="170.208" gradientUnits="userSpaceOnUse">
<stop stop-color="#FF6342"/>
<stop offset="1" stop-color="#FFFF48"/>
</linearGradient>
<linearGradient id="paint25_linear_6029_122351" x1="-21.2207" y1="164.835" x2="-20.9865" y2="164.558" gradientUnits="userSpaceOnUse">
<stop stop-color="#FF6342"/>
<stop offset="1" stop-color="#FFFF48"/>
</linearGradient>
<linearGradient id="paint26_linear_6029_122351" x1="-34.2413" y1="133.384" x2="-34.1065" y2="133.225" gradientUnits="userSpaceOnUse">
<stop stop-color="#FF6342"/>
<stop offset="1" stop-color="#FFFF48"/>
</linearGradient>
<linearGradient id="paint27_linear_6029_122351" x1="269.076" y1="907.661" x2="295.336" y2="927.852" gradientUnits="userSpaceOnUse">
<stop stop-color="#E2E9EE"/>
<stop offset="0.14" stop-color="#DDE5EB"/>
<stop offset="0.29" stop-color="#D0DBE3"/>
<stop offset="0.46" stop-color="#B9CAD6"/>
<stop offset="0.63" stop-color="#9AB2C3"/>
<stop offset="0.8" stop-color="#7192AA"/>
<stop offset="0.97" stop-color="#406D8D"/>
<stop offset="1" stop-color="#3A6889"/>
</linearGradient>
<linearGradient id="paint28_linear_6029_122351" x1="100.809" y1="58.6827" x2="100.907" y2="59.2474" gradientUnits="userSpaceOnUse">
<stop stop-color="#E2E9EE"/>
<stop offset="0.14" stop-color="#DDE5EB"/>
<stop offset="0.29" stop-color="#D0DBE3"/>
<stop offset="0.46" stop-color="#B9CAD6"/>
<stop offset="0.63" stop-color="#9AB2C3"/>
<stop offset="0.8" stop-color="#7192AA"/>
<stop offset="0.97" stop-color="#406D8D"/>
<stop offset="1" stop-color="#3A6889"/>
</linearGradient>
<linearGradient id="paint29_linear_6029_122351" x1="227.258" y1="658.711" x2="246.697" y2="675.905" gradientUnits="userSpaceOnUse">
<stop stop-color="#A4B9C8"/>
<stop offset="0.18" stop-color="#9FB5C5"/>
<stop offset="0.38" stop-color="#92ABBD"/>
<stop offset="0.59" stop-color="#7B9AB0"/>
<stop offset="0.8" stop-color="#5C829D"/>
<stop offset="1" stop-color="#3A6889"/>
</linearGradient>
<linearGradient id="paint30_linear_6029_122351" x1="160.556" y1="457.397" x2="173.896" y2="468.752" gradientUnits="userSpaceOnUse">
<stop stop-color="#A4B9C8"/>
<stop offset="0.18" stop-color="#9FB5C5"/>
<stop offset="0.38" stop-color="#92ABBD"/>
<stop offset="0.59" stop-color="#7B9AB0"/>
<stop offset="0.8" stop-color="#5C829D"/>
<stop offset="1" stop-color="#3A6889"/>
</linearGradient>
<linearGradient id="paint31_linear_6029_122351" x1="224.667" y1="742.969" x2="267.133" y2="777.761" gradientUnits="userSpaceOnUse">
<stop stop-color="#A4B9C8"/>
<stop offset="0.18" stop-color="#9FB5C5"/>
<stop offset="0.38" stop-color="#92ABBD"/>
<stop offset="0.59" stop-color="#7B9AB0"/>
<stop offset="0.8" stop-color="#5C829D"/>
<stop offset="1" stop-color="#3A6889"/>
</linearGradient>
<linearGradient id="paint32_linear_6029_122351" x1="22.7594" y1="12.792" x2="29.6476" y2="34.4188" gradientUnits="userSpaceOnUse">
<stop stop-color="#C8D5DE"/>
<stop offset="0.59" stop-color="#7595AC"/>
<stop offset="1" stop-color="#3A6889"/>
</linearGradient>
<linearGradient id="paint33_linear_6029_122351" x1="57.5788" y1="1178.71" x2="58.0781" y2="1178.71" gradientUnits="userSpaceOnUse">
<stop stop-color="#E2E9EE"/>
<stop offset="0.14" stop-color="#DDE5EB"/>
<stop offset="0.29" stop-color="#D0DBE3"/>
<stop offset="0.46" stop-color="#B9CAD6"/>
<stop offset="0.63" stop-color="#9AB2C3"/>
<stop offset="0.8" stop-color="#7192AA"/>
<stop offset="0.97" stop-color="#406D8D"/>
<stop offset="1" stop-color="#3A6889"/>
</linearGradient>
<linearGradient id="paint34_linear_6029_122351" x1="68.9099" y1="1198.63" x2="79.4678" y2="1201.04" gradientUnits="userSpaceOnUse">
<stop stop-color="#A4B9C8"/>
<stop offset="0.18" stop-color="#9FB5C5"/>
<stop offset="0.38" stop-color="#92ABBD"/>
<stop offset="0.59" stop-color="#7B9AB0"/>
<stop offset="0.8" stop-color="#5C829D"/>
<stop offset="1" stop-color="#3A6889"/>
</linearGradient>
<linearGradient id="paint35_linear_6029_122351" x1="1564.27" y1="1761.5" x2="1581.85" y2="1911.43" gradientUnits="userSpaceOnUse">
<stop stop-color="#A4B9C8"/>
<stop offset="0.18" stop-color="#9FB5C5"/>
<stop offset="0.38" stop-color="#92ABBD"/>
<stop offset="0.59" stop-color="#7B9AB0"/>
<stop offset="0.8" stop-color="#5C829D"/>
<stop offset="1" stop-color="#3A6889"/>
</linearGradient>
<linearGradient id="paint36_linear_6029_122351" x1="2158.32" y1="2806.06" x2="2249.41" y2="3129.33" gradientUnits="userSpaceOnUse">
<stop stop-color="#A4B9C8"/>
<stop offset="0.18" stop-color="#9FB5C5"/>
<stop offset="0.38" stop-color="#92ABBD"/>
<stop offset="0.59" stop-color="#7B9AB0"/>
<stop offset="0.8" stop-color="#5C829D"/>
<stop offset="1" stop-color="#3A6889"/>
</linearGradient>
<linearGradient id="paint37_linear_6029_122351" x1="2131.83" y1="1021.48" x2="2135.68" y2="1091.93" gradientUnits="userSpaceOnUse">
<stop stop-color="#A4B9C8"/>
<stop offset="0.18" stop-color="#9FB5C5"/>
<stop offset="0.38" stop-color="#92ABBD"/>
<stop offset="0.59" stop-color="#7B9AB0"/>
<stop offset="0.8" stop-color="#5C829D"/>
<stop offset="1" stop-color="#3A6889"/>
</linearGradient>
<linearGradient id="paint38_linear_6029_122351" x1="2098.11" y1="2046.73" x2="2133.69" y2="2341.51" gradientUnits="userSpaceOnUse">
<stop stop-color="#A4B9C8"/>
<stop offset="0.18" stop-color="#9FB5C5"/>
<stop offset="0.38" stop-color="#92ABBD"/>
<stop offset="0.59" stop-color="#7B9AB0"/>
<stop offset="0.8" stop-color="#5C829D"/>
<stop offset="1" stop-color="#3A6889"/>
</linearGradient>
<linearGradient id="paint39_linear_6029_122351" x1="1135.73" y1="2438.42" x2="1266.18" y2="2699.8" gradientUnits="userSpaceOnUse">
<stop stop-color="#A4B9C8"/>
<stop offset="0.18" stop-color="#9FB5C5"/>
<stop offset="0.38" stop-color="#92ABBD"/>
<stop offset="0.59" stop-color="#7B9AB0"/>
<stop offset="0.8" stop-color="#5C829D"/>
<stop offset="1" stop-color="#3A6889"/>
</linearGradient>
<linearGradient id="paint40_linear_6029_122351" x1="23.4926" y1="11.9617" x2="28.8764" y2="24.8027" gradientUnits="userSpaceOnUse">
<stop stop-color="#CED9E1"/>
<stop offset="0.13" stop-color="#C9D5DE"/>
<stop offset="0.27" stop-color="#BCCBD6"/>
<stop offset="0.43" stop-color="#A5BAC9"/>
<stop offset="0.59" stop-color="#86A2B6"/>
<stop offset="0.75" stop-color="#5D839E"/>
<stop offset="0.91" stop-color="#2C5E81"/>
<stop offset="1" stop-color="#104870"/>
</linearGradient>
<linearGradient id="paint41_linear_6029_122351" x1="23.2695" y1="14.4533" x2="31.8433" y2="27.5214" gradientUnits="userSpaceOnUse">
<stop stop-color="#D3DDE4"/>
<stop offset="0.15" stop-color="#CED9E1"/>
<stop offset="0.31" stop-color="#C1CFD9"/>
<stop offset="0.48" stop-color="#AABECC"/>
<stop offset="0.66" stop-color="#8BA6B9"/>
<stop offset="0.84" stop-color="#6387A1"/>
<stop offset="1" stop-color="#3A6889"/>
</linearGradient>
<linearGradient id="paint42_linear_6029_122351" x1="233.259" y1="503.008" x2="254.559" y2="501.24" gradientUnits="userSpaceOnUse">
<stop stop-color="#A4B9C8"/>
<stop offset="0.18" stop-color="#9FB5C5"/>
<stop offset="0.38" stop-color="#92ABBD"/>
<stop offset="0.59" stop-color="#7B9AB0"/>
<stop offset="0.8" stop-color="#5C829D"/>
<stop offset="1" stop-color="#3A6889"/>
</linearGradient>
<linearGradient id="paint43_linear_6029_122351" x1="206.612" y1="459.937" x2="205.717" y2="454.453" gradientUnits="userSpaceOnUse">
<stop stop-color="#FF6342"/>
<stop offset="1" stop-color="#FFB648"/>
</linearGradient>
<linearGradient id="paint44_linear_6029_122351" x1="-74.469" y1="1250.91" x2="-78.0944" y2="1227.83" gradientUnits="userSpaceOnUse">
<stop stop-color="#CED9E1"/>
<stop offset="0.15" stop-color="#C9D5DE"/>
<stop offset="0.31" stop-color="#BCCBD6"/>
<stop offset="0.49" stop-color="#A5BAC9"/>
<stop offset="0.67" stop-color="#86A2B6"/>
<stop offset="0.86" stop-color="#5E839E"/>
<stop offset="1" stop-color="#3A6889"/>
</linearGradient>
<linearGradient id="paint45_linear_6029_122351" x1="29.2381" y1="906.034" x2="26.2868" y2="889.024" gradientUnits="userSpaceOnUse">
<stop stop-color="#FF6342"/>
<stop offset="1" stop-color="#FFB648"/>
</linearGradient>
<linearGradient id="paint46_linear_6029_122351" x1="389.807" y1="1527.71" x2="364.367" y2="1488.56" gradientUnits="userSpaceOnUse">
<stop stop-color="#CED9E1"/>
<stop offset="0.15" stop-color="#C9D5DE"/>
<stop offset="0.31" stop-color="#BCCBD6"/>
<stop offset="0.49" stop-color="#A5BAC9"/>
<stop offset="0.67" stop-color="#86A2B6"/>
<stop offset="0.86" stop-color="#5E839E"/>
<stop offset="1" stop-color="#3A6889"/>
</linearGradient>
<linearGradient id="paint47_linear_6029_122351" x1="345.058" y1="1344.71" x2="325.354" y2="1314.36" gradientUnits="userSpaceOnUse">
<stop stop-color="#FF6342"/>
<stop offset="1" stop-color="#FFB648"/>
</linearGradient>
<linearGradient id="paint48_linear_6029_122351" x1="207.668" y1="449.863" x2="206.817" y2="444.497" gradientUnits="userSpaceOnUse">
<stop stop-color="#FF6342"/>
<stop offset="1" stop-color="#FFFF48"/>
</linearGradient>
<linearGradient id="paint49_linear_6029_122351" x1="46.2048" y1="803.585" x2="44.1639" y2="788.378" gradientUnits="userSpaceOnUse">
<stop stop-color="#FF6342"/>
<stop offset="1" stop-color="#FFFF48"/>
</linearGradient>
<linearGradient id="paint50_linear_6029_122351" x1="1683.96" y1="503.008" x2="1662.73" y2="501.245" gradientUnits="userSpaceOnUse">
<stop stop-color="#A4B9C8"/>
<stop offset="0.18" stop-color="#9FB5C5"/>
<stop offset="0.38" stop-color="#92ABBD"/>
<stop offset="0.59" stop-color="#7B9AB0"/>
<stop offset="0.8" stop-color="#5C829D"/>
<stop offset="1" stop-color="#3A6889"/>
</linearGradient>
<linearGradient id="paint51_linear_6029_122351" x1="1373.65" y1="459.937" x2="1374.55" y2="454.453" gradientUnits="userSpaceOnUse">
<stop stop-color="#FF6342"/>
<stop offset="1" stop-color="#FFB648"/>
</linearGradient>
<linearGradient id="paint52_linear_6029_122351" x1="1940.31" y1="1273.93" x2="1943.94" y2="1250.86" gradientUnits="userSpaceOnUse">
<stop stop-color="#CED9E1"/>
<stop offset="0.15" stop-color="#C9D5DE"/>
<stop offset="0.31" stop-color="#BCCBD6"/>
<stop offset="0.49" stop-color="#A5BAC9"/>
<stop offset="0.67" stop-color="#86A2B6"/>
<stop offset="0.86" stop-color="#5E839E"/>
<stop offset="1" stop-color="#3A6889"/>
</linearGradient>
<linearGradient id="paint53_linear_6029_122351" x1="1557.1" y1="921.54" x2="1560.08" y2="904.63" gradientUnits="userSpaceOnUse">
<stop stop-color="#FF6342"/>
<stop offset="1" stop-color="#FFB648"/>
</linearGradient>
<linearGradient id="paint54_linear_6029_122351" x1="1380.29" y1="449.863" x2="1381.14" y2="444.497" gradientUnits="userSpaceOnUse">
<stop stop-color="#FF6342"/>
<stop offset="1" stop-color="#FFFF48"/>
</linearGradient>
<linearGradient id="paint55_linear_6029_122351" x1="1525.26" y1="781.104" x2="1527.33" y2="765.984" gradientUnits="userSpaceOnUse">
<stop stop-color="#FF6342"/>
<stop offset="1" stop-color="#FFFF48"/>
</linearGradient>
<linearGradient id="paint56_linear_6029_122351" x1="300.672" y1="1150.57" x2="283.882" y2="1124.59" gradientUnits="userSpaceOnUse">
<stop stop-color="#FF6342"/>
<stop offset="1" stop-color="#AE48FF"/>
</linearGradient>
<linearGradient id="paint57_linear_6029_122351" x1="2247.76" y1="1304.64" x2="2263.59" y2="1440.47" gradientUnits="userSpaceOnUse">
<stop stop-color="#D3DDE4"/>
<stop offset="0.15" stop-color="#CED9E1"/>
<stop offset="0.31" stop-color="#C1CFD9"/>
<stop offset="0.48" stop-color="#AABECC"/>
<stop offset="0.66" stop-color="#8BA6B9"/>
<stop offset="0.84" stop-color="#6387A1"/>
<stop offset="1" stop-color="#3A6889"/>
</linearGradient>
<linearGradient id="paint58_linear_6029_122351" x1="258.95" y1="367.183" x2="260.416" y2="375.225" gradientUnits="userSpaceOnUse">
<stop stop-color="#D3DDE4"/>
<stop offset="0.15" stop-color="#CED9E1"/>
<stop offset="0.31" stop-color="#C1CFD9"/>
<stop offset="0.48" stop-color="#AABECC"/>
<stop offset="0.66" stop-color="#8BA6B9"/>
<stop offset="0.84" stop-color="#6387A1"/>
<stop offset="1" stop-color="#3A6889"/>
</linearGradient>
<linearGradient id="paint59_linear_6029_122351" x1="611.373" y1="367.839" x2="612.355" y2="373.23" gradientUnits="userSpaceOnUse">
<stop stop-color="#D3DDE4"/>
<stop offset="0.15" stop-color="#CED9E1"/>
<stop offset="0.31" stop-color="#C1CFD9"/>
<stop offset="0.48" stop-color="#AABECC"/>
<stop offset="0.66" stop-color="#8BA6B9"/>
<stop offset="0.84" stop-color="#6387A1"/>
<stop offset="1" stop-color="#3A6889"/>
</linearGradient>
<linearGradient id="paint60_linear_6029_122351" x1="949.167" y1="1603.26" x2="976.91" y2="1696.91" gradientUnits="userSpaceOnUse">
<stop stop-color="#A4B9C8"/>
<stop offset="0.18" stop-color="#9FB5C5"/>
<stop offset="0.38" stop-color="#92ABBD"/>
<stop offset="0.59" stop-color="#7B9AB0"/>
<stop offset="0.8" stop-color="#5C829D"/>
<stop offset="1" stop-color="#3A6889"/>
</linearGradient>
<linearGradient id="paint61_linear_6029_122351" x1="4122.41" y1="2536.07" x2="4151.71" y2="3010.86" gradientUnits="userSpaceOnUse">
<stop stop-color="#A4B9C8"/>
<stop offset="0.18" stop-color="#9FB5C5"/>
<stop offset="0.38" stop-color="#92ABBD"/>
<stop offset="0.59" stop-color="#7B9AB0"/>
<stop offset="0.8" stop-color="#5C829D"/>
<stop offset="1" stop-color="#3A6889"/>
</linearGradient>
<clipPath id="clip0_6029_122351">
<rect width="54" height="39" fill="white"/>
</clipPath>
</defs>
</svg>
