<svg width="54" height="36" viewBox="0 0 54 36" fill="none" xmlns="http://www.w3.org/2000/svg">
<g id="1">
<g id="1_2">
<g id="Group 2087324053">
<path id="Vector" d="M33.6016 26.5986L37.6154 31.9699C37.6154 31.9699 37.7067 32.2116 38.2656 32.2116C38.8244 32.2116 38.905 31.9699 38.905 31.9699L36.6858 26.1045L33.6016 26.5986Z" fill="url(#paint0_linear_6029_122219)"/>
<path id="Vector_2" style="mix-blend-mode:multiply" opacity="0.8" d="M36.722 29.0098C36.593 28.3814 36.3512 27.2696 36.9369 26.8613L36.6468 26.0879L33.5625 26.625L37.5763 31.9962C37.5763 31.9962 37.6623 32.2003 38.1137 32.2326C37.4353 31.2641 36.9618 30.1675 36.722 29.0098V29.0098Z" fill="url(#paint1_linear_6029_122219)"/>
<path id="Vector_3" d="M19.9831 26.5986L15.9693 31.9699C15.9693 31.9699 15.8726 32.2116 15.3191 32.2116C14.7657 32.2116 14.6797 31.9699 14.6797 31.9699L16.8989 26.1045L19.9831 26.5986Z" fill="url(#paint2_linear_6029_122219)"/>
<path id="Vector_4" style="mix-blend-mode:multiply" opacity="0.8" d="M16.8292 29.0098C16.9528 28.3814 17.1999 27.2696 16.6142 26.8613L16.9044 26.0879L19.9886 26.625L15.9748 31.9962C15.9748 31.9962 15.8889 32.2003 15.4375 32.2326C16.1158 31.2641 16.5894 30.1675 16.8292 29.0098Z" fill="url(#paint3_linear_6029_122219)"/>
<path id="Vector_5" d="M27.1451 27.5703C26.8622 26.917 26.4635 26.3202 25.9683 25.8086V25.8086C25.4733 26.3193 25.0763 26.9164 24.7969 27.5703C24.5981 28.2364 25.4041 33.2101 25.5868 34.3166C25.5946 34.3769 25.6239 34.4324 25.6693 34.4728C25.7147 34.5133 25.7732 34.536 25.834 34.5368H26.108C26.1689 34.536 26.2273 34.5133 26.2727 34.4728C26.3182 34.4324 26.3474 34.3769 26.3552 34.3166C26.5433 33.2101 27.3493 28.2364 27.1451 27.5703Z" fill="url(#paint4_linear_6029_122219)"/>
<path id="Vector_6" style="mix-blend-mode:multiply" opacity="0.52" d="M27.1482 27.5703C26.8653 26.917 26.4666 26.3202 25.9714 25.8086V25.8086C25.9284 25.8569 25.7027 26.0986 25.4609 26.4209C25.5516 26.4911 25.6313 26.5744 25.6974 26.668C26.309 27.6058 26.6339 28.7014 26.6323 29.8209C26.7028 31.4063 26.5399 32.9934 26.1487 34.5314C26.2014 34.5212 26.2497 34.4952 26.2871 34.4568C26.3246 34.4184 26.3494 34.3695 26.3583 34.3166C26.5463 33.2101 27.3523 28.2364 27.1482 27.5703Z" fill="url(#paint5_linear_6029_122219)"/>
<path id="Vector_7" d="M37.5045 31.8246C37.5045 31.8246 37.2734 31.9696 37.2734 32.1738C37.2734 32.3779 37.2734 32.7109 37.2734 32.7109C38.0758 33.0482 38.9762 33.0693 39.7935 32.77C39.8689 32.7359 39.9328 32.6807 39.9776 32.6111C40.0224 32.5416 40.0462 32.4606 40.0461 32.3779V31.8998C39.8703 31.7383 39.6594 31.6198 39.43 31.5536C39.2007 31.4874 38.9591 31.4754 38.7242 31.5184C38.7242 31.5184 38.5791 31.9858 37.5045 31.8246Z" fill="url(#paint6_linear_6029_122219)"/>
<path id="Vector_8" style="mix-blend-mode:multiply" opacity="0.56" d="M39.1893 32.2759C38.8146 32.3529 38.4325 32.3871 38.0501 32.3779C37.7827 32.3585 37.519 32.3043 37.2656 32.2168C37.2656 32.4317 37.2656 32.7539 37.2656 32.7539C38.068 33.0912 38.9684 33.1123 39.7857 32.813C39.8611 32.7789 39.925 32.7237 39.9698 32.6542C40.0146 32.5846 40.0384 32.5036 40.0382 32.4209V31.9966C39.7693 32.128 39.4837 32.222 39.1893 32.2759V32.2759Z" fill="url(#paint7_linear_6029_122219)"/>
<path id="Vector_9" d="M16.0782 31.8246C16.1381 31.8644 16.1895 31.9158 16.2291 31.9757C16.2688 32.0357 16.2961 32.1031 16.3092 32.1737C16.3092 32.3725 16.3092 32.7109 16.3092 32.7109C15.5084 33.0454 14.6114 33.0684 13.7945 32.7753C13.7155 32.7391 13.6485 32.6808 13.6018 32.6074C13.5551 32.534 13.5306 32.4487 13.5313 32.3617V31.8998C13.707 31.7383 13.9179 31.6198 14.1473 31.5536C14.3766 31.4874 14.6183 31.4754 14.8531 31.5184C14.8531 31.5184 14.9982 31.9858 16.0782 31.8246Z" fill="url(#paint8_linear_6029_122219)"/>
<path id="Vector_10" d="M27.5435 34.064C27.4951 33.6611 26.4957 33.4731 26.4957 33.4731C26.353 33.6004 26.1684 33.6707 25.9772 33.6707C25.786 33.6707 25.6014 33.6004 25.4587 33.4731C25.4587 33.4731 24.4592 33.6611 24.4109 34.064C24.3839 34.3785 24.3839 34.6948 24.4109 35.0093C24.8573 35.3503 25.4147 35.5131 25.9745 35.4659V35.4659C26.5343 35.5131 27.0917 35.3503 27.5381 35.0093C27.5669 34.6949 27.5687 34.3787 27.5435 34.064V34.064Z" fill="url(#paint9_linear_6029_122219)"/>
<path id="Vector_11" style="mix-blend-mode:multiply" opacity="0.56" d="M27.5274 34.0049C26.485 34.6655 24.701 34.2842 24.4109 34.0586C24.3839 34.3731 24.3839 34.6894 24.4109 35.0039C24.8573 35.3449 25.4147 35.5077 25.9745 35.4605V35.4605C26.5344 35.5077 27.0917 35.3449 27.5381 35.0039C27.5651 34.6894 27.5651 34.3731 27.5381 34.0586C27.5361 34.0404 27.5325 34.0225 27.5274 34.0049Z" fill="url(#paint10_linear_6029_122219)"/>
</g>
<path id="Vector_12" d="M53 15.7061C53 18.843 41.1384 28.6279 26.5025 28.6279C11.8666 28.6279 0 18.843 0 15.7061C0 12.5691 11.8666 10.0215 26.5025 10.0215C41.1384 10.0215 53 12.5691 53 15.7061Z" fill="url(#paint11_linear_6029_122219)"/>
<path id="Vector_13" d="M52.8979 15.2672C52.8979 18.456 41.0592 21.6448 26.4515 21.6448C11.8437 21.6448 0 18.456 0 15.2672C0 12.0784 11.8437 9.48877 26.4515 9.48877C41.0592 9.48877 52.8979 12.0784 52.8979 15.2672Z" fill="url(#paint12_linear_6029_122219)"/>
<path id="Vector_14" style="mix-blend-mode:multiply" opacity="0.44" d="M37.3308 10.001C37.4173 11.2066 37.2081 12.4151 36.7215 13.5217C34.7103 18.1664 29.3702 20.0481 24.7881 21.0236C23.7974 21.2316 22.8067 21.4049 21.7812 21.5188C23.2971 21.5881 24.8575 21.6277 26.4526 21.6277C41.0609 21.6277 52.9001 18.4388 52.9001 15.2498C52.9001 12.9225 46.5099 10.9071 37.3308 10.001Z" fill="url(#paint13_linear_6029_122219)"/>
<path id="Vector_15" style="mix-blend-mode:multiply" d="M26.4472 18.3592C36.7475 18.3592 45.0975 16.4837 45.0975 14.1701C45.0975 11.8565 36.7475 9.98096 26.4472 9.98096C16.1469 9.98096 7.79688 11.8565 7.79688 14.1701C7.79688 16.4837 16.1469 18.3592 26.4472 18.3592Z" fill="url(#paint14_linear_6029_122219)"/>
<path id="Vector_16" d="M8.60938 11.0811V13.9382C8.60938 16.0872 16.5995 17.8352 26.4423 17.8352C36.2852 17.8352 44.2753 16.0872 44.2753 13.9382V11.0811H8.60938Z" fill="url(#paint15_linear_6029_122219)"/>
<path id="Vector_17" style="mix-blend-mode:multiply" opacity="0.51" d="M44.305 13.9382V11.0811H8.60938V13.3044C10.5264 14.7305 18.9673 15.7059 27.9978 17.8203C37.1322 17.6421 44.305 15.9733 44.305 13.9382Z" fill="url(#paint16_linear_6029_122219)"/>
<path id="Vector_18" d="M26.4533 3.15674C16.3232 3.15674 8.125 8.92052 8.125 11.1339C8.125 13.3473 16.3381 15.1399 26.4533 15.1399C36.5686 15.1399 44.7816 13.3473 44.7816 11.1339C44.7816 8.92052 36.5834 3.15674 26.4533 3.15674Z" fill="url(#paint17_linear_6029_122219)"/>
<path id="Vector_19" style="mix-blend-mode:multiply" opacity="0.26" d="M33.1555 3.97852C33.5775 4.4639 33.8509 5.06035 33.9432 5.69676C34.28 8.17261 31.5506 9.70765 29.6286 10.4504C26.5999 11.5888 23.4362 12.3294 20.2167 12.6539C17.7697 12.9164 15.2334 13.2184 12.7863 12.7876C11.4043 12.545 9.10581 11.5893 8.551 10.079C8.30979 10.38 8.16173 10.7449 8.125 11.1288C8.125 13.3422 16.3381 15.1347 26.4533 15.1347C36.5686 15.1347 44.7816 13.3422 44.7816 11.1288C44.7915 9.4353 39.9717 5.65219 33.1555 3.97852Z" fill="url(#paint18_linear_6029_122219)"/>
<path id="Vector_20" style="mix-blend-mode:multiply" opacity="0.26" d="M38.3086 5.76562C38.6384 6.30997 38.851 6.91711 38.9328 7.54824C39.2944 10.3905 36.5649 11.9701 34.2318 12.6931C31.0012 13.6433 27.665 14.1889 24.2998 14.3172C20.9201 14.552 17.5242 14.2816 14.2242 13.515C12.218 13.0199 9.49352 12.3167 8.27988 10.4846C8.17429 10.6819 8.11341 10.9 8.10156 11.1234C8.10156 13.3368 16.3146 15.1293 26.4299 15.1293C36.5451 15.1293 44.7582 13.3368 44.7582 11.1234C44.7879 9.92011 42.2715 7.60766 38.3086 5.76562Z" fill="url(#paint19_linear_6029_122219)"/>
<path id="Vector_21" style="mix-blend-mode:screen" opacity="0.46" d="M27.1053 21.0227C12.4976 21.0227 0.65386 17.8339 0.65386 14.6451C0.663753 14.2811 0.798409 13.9315 1.03529 13.6548C0.361616 14.1499 0 14.7045 0 15.2591C0 18.4479 11.8437 21.6367 26.4515 21.6367C39.4097 21.6367 50.1934 19.1263 52.4571 16.3336C49.2126 18.8737 39.0877 21.0227 27.1053 21.0227Z" fill="url(#paint20_linear_6029_122219)"/>
<path id="Vector_22" style="mix-blend-mode:multiply" opacity="0.51" d="M26.4995 24.6809C14.0361 24.6809 10.2822 23.6176 10.1484 23.5532C10.2797 23.6165 10.4114 23.6791 10.5433 23.741C15.498 26.0631 21.0286 26.7966 26.5004 26.7966V26.7966C29.3496 26.7993 32.1969 26.6522 35.0306 26.3559C37.7289 25.6983 40.3506 24.7589 42.8524 23.5532C42.7137 23.6126 38.9876 24.6809 26.4995 24.6809Z" fill="url(#paint21_linear_6029_122219)"/>
<path id="Vector_23" style="mix-blend-mode:multiply" opacity="0.51" d="M26.4495 10.4523C34.0335 10.4523 40.3494 9.26884 41.7612 7.70409C41.3005 7.38718 40.7705 7.07026 40.2405 6.7583C38.2986 8.10518 32.8595 9.07573 26.4495 9.07573C20.0395 9.07573 14.6004 8.08537 12.6536 6.7583C12.1037 7.07026 11.5985 7.38718 11.1328 7.70409C12.5446 9.26884 18.8902 10.4523 26.4495 10.4523Z" fill="url(#paint22_linear_6029_122219)"/>
<path id="Vector_24" d="M25.8906 17.3809H27.0004C27.1728 17.3809 27.3125 17.2412 27.3125 17.0689V15.9596C27.3125 15.7872 27.1728 15.6476 27.0004 15.6476H25.8906C25.7183 15.6476 25.5785 15.7872 25.5785 15.9596V17.0689C25.5785 17.2412 25.7183 17.3809 25.8906 17.3809Z" fill="url(#paint23_linear_6029_122219)"/>
<path id="Vector_25" style="mix-blend-mode:screen" d="M26.13 17.2817H26.7591C26.8576 17.2817 26.9375 17.2019 26.9375 17.1035V16.4745C26.9375 16.376 26.8576 16.2962 26.7591 16.2962H26.13C26.0315 16.2962 25.9516 16.376 25.9516 16.4745V17.1035C25.9516 17.2019 26.0315 17.2817 26.13 17.2817Z" fill="url(#paint24_linear_6029_122219)"/>
<path id="Vector_26" d="M33.7445 16.8828H34.7304C34.8836 16.8828 35.0078 16.7587 35.0078 16.6055V15.62C35.0078 15.4668 34.8836 15.3427 34.7304 15.3427H33.7445C33.5913 15.3427 33.4671 15.4668 33.4671 15.62V16.6055C33.4671 16.7587 33.5913 16.8828 33.7445 16.8828Z" fill="url(#paint25_linear_6029_122219)"/>
<path id="Vector_27" style="mix-blend-mode:screen" d="M33.9692 16.793H34.529C34.6165 16.793 34.6875 16.722 34.6875 16.6345V16.0749C34.6875 15.9874 34.6165 15.9164 34.529 15.9164H33.9692C33.8816 15.9164 33.8106 15.9874 33.8106 16.0749V16.6345C33.8106 16.722 33.8816 16.793 33.9692 16.793Z" fill="url(#paint26_linear_6029_122219)"/>
<path id="Vector_28" d="M40.5141 15.5645H41.4405C41.5856 15.5645 41.7031 15.4469 41.7031 15.302V14.3759C41.7031 14.231 41.5856 14.1134 41.4405 14.1134H40.5141C40.3691 14.1134 40.2515 14.231 40.2515 14.3759V15.302C40.2515 15.4469 40.3691 15.5645 40.5141 15.5645Z" fill="url(#paint27_linear_6029_122219)"/>
<path id="Vector_29" style="mix-blend-mode:screen" d="M40.7119 15.4824H41.242C41.3241 15.4824 41.3906 15.4159 41.3906 15.3339V14.8089C41.3906 14.7269 41.3241 14.6604 41.242 14.6604H40.7119C40.6298 14.6604 40.5633 14.7269 40.5633 14.8089V15.3339C40.5633 15.4159 40.6298 15.4824 40.7119 15.4824Z" fill="url(#paint28_linear_6029_122219)"/>
<path id="Vector_30" d="M18.7868 15.3315H17.8009C17.6476 15.3315 17.5234 15.4557 17.5234 15.6089V16.5944C17.5234 16.7475 17.6476 16.8717 17.8009 16.8717H18.7868C18.94 16.8717 19.0642 16.7475 19.0642 16.5944V15.6089C19.0642 15.4557 18.94 15.3315 18.7868 15.3315Z" fill="url(#paint29_linear_6029_122219)"/>
<path id="Vector_31" style="mix-blend-mode:screen" d="M18.5777 15.9277H18.0179C17.9304 15.9277 17.8594 15.9987 17.8594 16.0862V16.6458C17.8594 16.7333 17.9304 16.8043 18.0179 16.8043H18.5777C18.6653 16.8043 18.7363 16.7333 18.7363 16.6458V16.0862C18.7363 15.9987 18.6653 15.9277 18.5777 15.9277Z" fill="url(#paint30_linear_6029_122219)"/>
<path id="Vector_32" d="M12.0249 14.106H11.0985C10.9535 14.106 10.8359 14.2235 10.8359 14.3684V15.2945C10.8359 15.4395 10.9535 15.557 11.0985 15.557H12.0249C12.1699 15.557 12.2875 15.4395 12.2875 15.2945V14.3684C12.2875 14.2235 12.1699 14.106 12.0249 14.106Z" fill="url(#paint31_linear_6029_122219)"/>
<path id="Vector_33" style="mix-blend-mode:screen" d="M11.8193 14.6558H11.2893C11.2072 14.6558 11.1406 14.7223 11.1406 14.8043V15.3293C11.1406 15.4113 11.2072 15.4779 11.2893 15.4779H11.8193C11.9014 15.4779 11.968 15.4113 11.968 15.3293V14.8043C11.968 14.7223 11.9014 14.6558 11.8193 14.6558Z" fill="url(#paint32_linear_6029_122219)"/>
<path id="Vector_34" d="M50.2701 19.0977C47.298 22.3112 30.4562 22.7222 26.4489 22.7717C22.4217 22.7222 5.58494 22.3112 2.62277 19.0977C2.59667 19.4492 2.66238 19.8016 2.81347 20.1201C2.96456 20.4387 3.19585 20.7125 3.48467 20.9149C4.47536 21.6923 6.45675 24.7325 25.582 24.9108H27.3108C46.4163 24.7325 48.4125 21.6923 49.4081 20.9149C49.6966 20.7122 49.9276 20.4383 50.0787 20.1198C50.2297 19.8013 50.2957 19.4492 50.2701 19.0977V19.0977Z" fill="url(#paint33_linear_6029_122219)"/>
<path id="Vector_35" d="M50.2701 19.0977C47.298 22.3112 30.4562 22.7222 26.4489 22.7717C22.4217 22.7222 5.58494 22.3112 2.62277 19.0977C2.59667 19.4492 2.66238 19.8016 2.81347 20.1201C2.96456 20.4387 3.19585 20.7125 3.48467 20.9149C4.47536 21.6923 6.45675 24.7325 25.582 24.9108H27.3108C46.4163 24.7325 48.4125 21.6923 49.4081 20.9149C49.6966 20.7122 49.9276 20.4383 50.0787 20.1198C50.2297 19.8013 50.2957 19.4492 50.2701 19.0977V19.0977Z" fill="url(#paint34_linear_6029_122219)"/>
<path id="Vector_36" style="mix-blend-mode:screen" opacity="0.49" d="M29.5055 24.3612C29.5055 24.3612 24.3832 24.5543 15.0453 23.866C12.5854 23.7204 10.1424 23.3642 7.74337 22.8013C7.00682 22.6376 6.28954 22.397 5.60333 22.0833C5.49631 22.043 5.40453 21.9703 5.34078 21.8753C5.3234 21.8227 5.31699 21.7671 5.32193 21.7119C5.32687 21.6566 5.34307 21.603 5.36952 21.5543C5.39597 21.5056 5.43212 21.4628 5.47574 21.4286C5.51936 21.3944 5.56952 21.3695 5.62314 21.3554C5.84563 21.3131 6.0755 21.3337 6.28695 21.4148C14.545 23.8858 29.5055 24.3612 29.5055 24.3612Z" fill="url(#paint35_linear_6029_122219)"/>
<path id="Vector_37" style="mix-blend-mode:multiply" d="M50.2684 19.0977C47.2964 22.3112 30.4546 22.7222 26.4473 22.7717C22.4201 22.7222 5.58331 22.3112 2.62114 19.0977C2.60545 19.216 2.60545 19.3358 2.62114 19.4542C3.64651 20.6277 8.32257 22.0339 13.3949 22.7271C22.3508 23.9452 33.7041 23.3015 37.751 22.9549C40.2278 22.742 42.8828 22.2171 45.1812 23.1332C48.183 22.2518 48.926 21.3011 49.4263 20.9149C49.7112 20.7099 49.9383 20.435 50.0858 20.1167C50.2333 19.7983 50.2962 19.4474 50.2684 19.0977V19.0977Z" fill="url(#paint36_linear_6029_122219)"/>
<path id="Vector_38" d="M26.9475 5.74889C33.4221 5.6449 35.047 4.49606 35.047 4.49606C32.8673 2.9362 26.4571 1 26.4571 1C26.4571 1 20.0469 2.9362 17.8672 4.49606C17.8672 4.49606 19.4871 5.6449 25.9667 5.74889H26.9574H26.9475Z" fill="url(#paint37_linear_6029_122219)"/>
<path id="Vector_39" style="mix-blend-mode:multiply" d="M27.215 1.25049C27.3677 1.5572 27.4504 1.89392 27.4573 2.23642C27.4641 2.57892 27.3949 2.91869 27.2546 3.23126C26.8286 4.12755 25.8626 4.59798 24.9412 4.83567C23.6819 5.08981 22.3856 5.10158 21.1218 4.87034C20.1657 4.74654 19.1403 4.69702 18.2932 4.22659C18.1347 4.32068 17.991 4.41476 17.8672 4.5039C17.8672 4.5039 19.4871 5.65274 25.9667 5.75673H26.9574C33.432 5.65274 35.0569 4.5039 35.0569 4.5039C33.328 3.27582 28.9736 1.81501 27.215 1.25049Z" fill="url(#paint38_linear_6029_122219)"/>
<path id="Vector_40" style="mix-blend-mode:multiply" d="M29.1762 1.90576C29.4013 2.33467 29.5154 2.81307 29.5082 3.29736C29.4708 3.88205 29.2427 4.43838 28.8588 4.88113C28.4749 5.32388 27.9565 5.62864 27.3828 5.74874C33.4863 5.60017 35.037 4.50572 35.037 4.50572C33.7985 3.61926 31.1926 2.61394 29.1762 1.90576Z" fill="url(#paint39_linear_6029_122219)"/>
<path id="Vector_41" style="mix-blend-mode:multiply" opacity="0.51" d="M26.451 9.42235C33.0344 9.42235 38.6419 8.432 40.8165 7.08017C40.6382 6.97123 40.4549 6.86229 40.2617 6.7583C38.3199 8.10518 32.8808 9.07573 26.4708 9.07573C20.0607 9.07573 14.6216 8.08537 12.6749 6.7583C12.4866 6.86229 12.3033 6.97123 12.125 7.08017C14.2551 8.44686 19.8824 9.42235 26.451 9.42235Z" fill="url(#paint40_linear_6029_122219)"/>
</g>
</g>
<defs>
<linearGradient id="paint0_linear_6029_122219" x1="35.6971" y1="27.9146" x2="38.5979" y2="30.1823" gradientUnits="userSpaceOnUse">
<stop offset="0.01" stop-color="#E9E8EC"/>
<stop offset="1" stop-color="#706980"/>
</linearGradient>
<linearGradient id="paint1_linear_6029_122219" x1="1804.7" y1="2376.61" x2="1775.97" y2="2329.81" gradientUnits="userSpaceOnUse">
<stop stop-color="#D6D4DB"/>
<stop offset="1" stop-color="#857F93"/>
</linearGradient>
<linearGradient id="paint2_linear_6029_122219" x1="-4049.59" y1="2308.44" x2="-4081.12" y2="2329.88" gradientUnits="userSpaceOnUse">
<stop offset="0.01" stop-color="#E9E8EC"/>
<stop offset="1" stop-color="#706980"/>
</linearGradient>
<linearGradient id="paint3_linear_6029_122219" x1="-3452.41" y1="2368.5" x2="-3428.5" y2="2325.79" gradientUnits="userSpaceOnUse">
<stop stop-color="#D6D4DB"/>
<stop offset="1" stop-color="#857F93"/>
</linearGradient>
<linearGradient id="paint4_linear_6029_122219" x1="912.022" y1="3386.96" x2="871.759" y2="3258.62" gradientUnits="userSpaceOnUse">
<stop offset="0.01" stop-color="#E9E8EC"/>
<stop offset="1" stop-color="#706980"/>
</linearGradient>
<linearGradient id="paint5_linear_6029_122219" x1="651.854" y1="3427.98" x2="713.179" y2="3372.11" gradientUnits="userSpaceOnUse">
<stop stop-color="#D6D4DB"/>
<stop offset="1" stop-color="#857F93"/>
</linearGradient>
<linearGradient id="paint6_linear_6029_122219" x1="1115.46" y1="595.376" x2="1117.92" y2="603.48" gradientUnits="userSpaceOnUse">
<stop stop-color="#93C4EA"/>
<stop offset="1" stop-color="#3B5493"/>
</linearGradient>
<linearGradient id="paint7_linear_6029_122219" x1="1115.23" y1="421.175" x2="1116.48" y2="427.185" gradientUnits="userSpaceOnUse">
<stop stop-color="#93C4EA"/>
<stop offset="1" stop-color="#0D2C7A"/>
</linearGradient>
<linearGradient id="paint8_linear_6029_122219" x1="-2052.72" y1="595.171" x2="-2055.17" y2="603.276" gradientUnits="userSpaceOnUse">
<stop stop-color="#93C4EA"/>
<stop offset="1" stop-color="#3B5493"/>
</linearGradient>
<linearGradient id="paint9_linear_6029_122219" x1="1186.58" y1="801.811" x2="1187.12" y2="808.339" gradientUnits="userSpaceOnUse">
<stop stop-color="#93C4EA"/>
<stop offset="1" stop-color="#0D2C7A"/>
</linearGradient>
<linearGradient id="paint10_linear_6029_122219" x1="1185.57" y1="596.095" x2="1185.86" y2="600.856" gradientUnits="userSpaceOnUse">
<stop stop-color="#93C4EA"/>
<stop offset="1" stop-color="#0D2C7A"/>
</linearGradient>
<linearGradient id="paint11_linear_6029_122219" x1="26.5025" y1="33.9142" x2="26.5025" y2="22.4477" gradientUnits="userSpaceOnUse">
<stop stop-color="#93C4EA"/>
<stop offset="1" stop-color="#3B5493"/>
</linearGradient>
<linearGradient id="paint12_linear_6029_122219" x1="8.80229" y1="6.47327" x2="40.2271" y2="22.2338" gradientUnits="userSpaceOnUse">
<stop stop-color="#93C4EA"/>
<stop offset="1" stop-color="#5E81F2"/>
</linearGradient>
<linearGradient id="paint13_linear_6029_122219" x1="40.303" y1="21.3058" x2="32.3804" y2="12.7561" gradientUnits="userSpaceOnUse">
<stop stop-color="#36367A"/>
<stop offset="1" stop-color="#9AD6F6"/>
</linearGradient>
<linearGradient id="paint14_linear_6029_122219" x1="26.2144" y1="11.8527" x2="26.8776" y2="18.389" gradientUnits="userSpaceOnUse">
<stop stop-color="#ACB3CF"/>
<stop offset="1" stop-color="#405275"/>
</linearGradient>
<linearGradient id="paint15_linear_6029_122219" x1="22.4596" y1="23.9307" x2="25.2169" y2="16.0965" gradientUnits="userSpaceOnUse">
<stop stop-color="#ACB3CF"/>
<stop offset="1" stop-color="#122853"/>
</linearGradient>
<linearGradient id="paint16_linear_6029_122219" x1="12981.5" y1="1838.57" x2="12988.7" y2="1730.7" gradientUnits="userSpaceOnUse">
<stop stop-color="#ACB3CF"/>
<stop offset="1" stop-color="#122853"/>
</linearGradient>
<linearGradient id="paint17_linear_6029_122219" x1="13759.5" y1="3139.38" x2="13721.7" y2="2834.1" gradientUnits="userSpaceOnUse">
<stop stop-color="#36367A"/>
<stop offset="1" stop-color="#9AD6F6"/>
</linearGradient>
<linearGradient id="paint18_linear_6029_122219" x1="13759.5" y1="2923.78" x2="13726.7" y2="2638.99" gradientUnits="userSpaceOnUse">
<stop stop-color="#36367A"/>
<stop offset="1" stop-color="#9AD6F6"/>
</linearGradient>
<linearGradient id="paint19_linear_6029_122219" x1="13759.6" y1="2456.43" x2="13736.3" y2="2216.47" gradientUnits="userSpaceOnUse">
<stop stop-color="#36367A"/>
<stop offset="1" stop-color="#9AD6F6"/>
</linearGradient>
<linearGradient id="paint20_linear_6029_122219" x1="17500.2" y1="1941.05" x2="17851.1" y2="3097.07" gradientUnits="userSpaceOnUse">
<stop stop-color="#93C4EA"/>
<stop offset="1" stop-color="#5E81F2"/>
</linearGradient>
<linearGradient id="paint21_linear_6029_122219" x1="12119.1" y1="943.033" x2="12119.1" y2="929.508" gradientUnits="userSpaceOnUse">
<stop stop-color="#ACB3CF"/>
<stop offset="1" stop-color="#122853"/>
</linearGradient>
<linearGradient id="paint22_linear_6029_122219" x1="11351.6" y1="925.312" x2="11351.6" y2="904.958" gradientUnits="userSpaceOnUse">
<stop stop-color="#ACB3CF"/>
<stop offset="1" stop-color="#122853"/>
</linearGradient>
<linearGradient id="paint23_linear_6029_122219" x1="26.4455" y1="15.3752" x2="26.4455" y2="16.6578" gradientUnits="userSpaceOnUse">
<stop stop-color="#FF8900"/>
<stop offset="1" stop-color="#FFE353"/>
</linearGradient>
<linearGradient id="paint24_linear_6029_122219" x1="-505.255" y1="-367.178" x2="-505.255" y2="-365.729" gradientUnits="userSpaceOnUse">
<stop stop-color="#FF8900"/>
<stop offset="1" stop-color="#FFE353"/>
</linearGradient>
<linearGradient id="paint25_linear_6029_122219" x1="-883.048" y1="-657.824" x2="-883.048" y2="-654.298" gradientUnits="userSpaceOnUse">
<stop stop-color="#FF8900"/>
<stop offset="1" stop-color="#FFE353"/>
</linearGradient>
<linearGradient id="paint26_linear_6029_122219" x1="-421.772" y1="-310.787" x2="-421.772" y2="-309.638" gradientUnits="userSpaceOnUse">
<stop stop-color="#FF8900"/>
<stop offset="1" stop-color="#FFE353"/>
</linearGradient>
<linearGradient id="paint27_linear_6029_122219" x1="-808.11" y1="-613.642" x2="-808.11" y2="-610.494" gradientUnits="userSpaceOnUse">
<stop stop-color="#FF8900"/>
<stop offset="1" stop-color="#FFE353"/>
</linearGradient>
<linearGradient id="paint28_linear_6029_122219" x1="-382.861" y1="-283.238" x2="-382.861" y2="-282.227" gradientUnits="userSpaceOnUse">
<stop stop-color="#FF8900"/>
<stop offset="1" stop-color="#FFE353"/>
</linearGradient>
<linearGradient id="paint29_linear_6029_122219" x1="435.174" y1="-653.954" x2="435.174" y2="-650.427" gradientUnits="userSpaceOnUse">
<stop stop-color="#FF8900"/>
<stop offset="1" stop-color="#FFE353"/>
</linearGradient>
<linearGradient id="paint30_linear_6029_122219" x1="274.446" y1="-306.883" x2="274.446" y2="-305.734" gradientUnits="userSpaceOnUse">
<stop stop-color="#FF8900"/>
<stop offset="1" stop-color="#FFE353"/>
</linearGradient>
<linearGradient id="paint31_linear_6029_122219" x1="387.102" y1="-609.763" x2="387.102" y2="-606.614" gradientUnits="userSpaceOnUse">
<stop stop-color="#FF8900"/>
<stop offset="1" stop-color="#FFE353"/>
</linearGradient>
<linearGradient id="paint32_linear_6029_122219" x1="244.459" y1="-279.359" x2="244.459" y2="-278.348" gradientUnits="userSpaceOnUse">
<stop stop-color="#FF8900"/>
<stop offset="1" stop-color="#FFE353"/>
</linearGradient>
<linearGradient id="paint33_linear_6029_122219" x1="19556.8" y1="1602.07" x2="16893" y2="31.3349" gradientUnits="userSpaceOnUse">
<stop stop-color="#FF8900"/>
<stop offset="1" stop-color="#FFE353"/>
</linearGradient>
<linearGradient id="paint34_linear_6029_122219" x1="19556.8" y1="1602.07" x2="16893" y2="31.3349" gradientUnits="userSpaceOnUse">
<stop stop-color="#FF8900"/>
<stop offset="1" stop-color="#FFE353"/>
</linearGradient>
<linearGradient id="paint35_linear_6029_122219" x1="5.31106" y1="22.8608" x2="29.5055" y2="22.8608" gradientUnits="userSpaceOnUse">
<stop stop-color="#FFCA74"/>
<stop offset="1" stop-color="#FFFF9A"/>
</linearGradient>
<linearGradient id="paint36_linear_6029_122219" x1="46.3354" y1="22.0191" x2="9.21434" y2="19.3481" gradientUnits="userSpaceOnUse">
<stop stop-color="#C58900"/>
<stop offset="1" stop-color="#FFE353"/>
</linearGradient>
<linearGradient id="paint37_linear_6029_122219" x1="6540.52" y1="1139.4" x2="6464.54" y2="1011.64" gradientUnits="userSpaceOnUse">
<stop stop-color="#FF8900"/>
<stop offset="1" stop-color="#FFE353"/>
</linearGradient>
<linearGradient id="paint38_linear_6029_122219" x1="6544.28" y1="1081.49" x2="6474.06" y2="956.981" gradientUnits="userSpaceOnUse">
<stop stop-color="#C58900"/>
<stop offset="1" stop-color="#FFE353"/>
</linearGradient>
<linearGradient id="paint39_linear_6029_122219" x1="2942.94" y1="912.961" x2="2873.09" y2="848.344" gradientUnits="userSpaceOnUse">
<stop stop-color="#C58900"/>
<stop offset="1" stop-color="#FFE353"/>
</linearGradient>
<linearGradient id="paint40_linear_6029_122219" x1="10635.5" y1="662.807" x2="10635.5" y2="652.204" gradientUnits="userSpaceOnUse">
<stop stop-color="#ACB3CF"/>
<stop offset="1" stop-color="#122853"/>
</linearGradient>
</defs>
</svg>
