<svg width="54" height="36" viewBox="0 0 54 36" fill="none" xmlns="http://www.w3.org/2000/svg">
<g id="2" clip-path="url(#clip0_6029_122263)">
<g id="&#229;&#155;&#190;&#229;&#177;&#130;_15" clip-path="url(#clip1_6029_122263)">
<path id="Vector" d="M24.7298 22.3438C20.751 24.045 18.8616 28.7536 20.5097 32.8608C22.1577 36.9677 26.7192 38.9182 30.6979 37.2169C34.6765 35.5157 36.5661 30.807 34.918 26.7C33.27 22.593 28.7086 20.6426 24.7298 22.3438Z" fill="url(#paint0_linear_6029_122263)"/>
<g id="Group" opacity="0.67">
<path id="Vector_2" d="M20.687 28.6061C20.0556 32.6213 22.697 36.4044 26.5867 37.0563C30.4764 37.7082 34.1414 34.9815 34.7729 30.9664C35.4041 26.9512 32.7628 23.1679 28.8731 22.5162C24.9834 21.8645 21.3184 24.591 20.687 28.6061Z" fill="url(#paint1_linear_6029_122263)"/>
</g>
<g id="Group_2" style="mix-blend-mode:screen">
<path id="Vector_3" d="M21.5066 27.5898C20.9306 31.2687 23.3528 34.7329 26.9168 35.3275C30.4808 35.9221 33.837 33.4217 34.413 29.7428C34.9887 26.0639 32.5667 22.5995 29.0027 22.0049C25.4387 21.4104 22.0826 23.9107 21.5066 27.5898Z" fill="url(#paint2_linear_6029_122263)"/>
</g>
<path id="Vector_4" d="M24.7299 24.7751C23.2175 25.5336 22.2728 26.7628 22.6303 27.5146C22.9879 28.2663 24.5002 28.2595 26.0158 27.4976C27.5314 26.7357 28.4729 25.5099 28.1153 24.7581C27.7873 24.0064 26.2422 24.0165 24.7299 24.7751Z" fill="white"/>
<path id="Vector_5" d="M28.3663 28.8389C22.7878 28.8389 18.2656 30.1744 18.2656 31.8222C18.2656 33.47 22.7878 34.8055 28.3663 34.8055C33.9447 34.8055 38.4669 33.47 38.4669 31.8222C38.4669 30.1744 33.9447 28.8389 28.3663 28.8389Z" fill="url(#paint3_linear_6029_122263)"/>
<g id="Group_3" style="mix-blend-mode:multiply">
<path id="Vector_6" d="M28.3663 28.8389C22.7878 28.8389 18.2656 30.1744 18.2656 31.8222C18.2656 33.47 22.7878 34.8055 28.3663 34.8055C33.9447 34.8055 38.4669 33.47 38.4669 31.8222C38.4669 30.1744 33.9447 28.8389 28.3663 28.8389Z" fill="url(#paint4_linear_6029_122263)"/>
</g>
<g id="Group_4" style="mix-blend-mode:multiply">
<path id="Vector_7" d="M28.3589 27.7822C22.3747 27.7822 17.5234 29.1178 17.5234 30.7656C17.5234 32.4133 22.3747 33.7489 28.3589 33.7489C34.3432 33.7489 39.1944 32.4133 39.1944 30.7656C39.1944 29.1178 34.3432 27.7822 28.3589 27.7822Z" fill="url(#paint5_linear_6029_122263)"/>
<g id="Group_5" style="mix-blend-mode:multiply">
<path id="Vector_8" d="M28.3589 27.7822C22.3747 27.7822 17.5234 29.1178 17.5234 30.7656C17.5234 32.4133 22.3747 33.7489 28.3589 33.7489C34.3432 33.7489 39.1944 32.4133 39.1944 30.7656C39.1944 29.1178 34.3432 27.7822 28.3589 27.7822Z" fill="url(#paint6_linear_6029_122263)"/>
</g>
</g>
<path id="Vector_9" d="M27.3568 15.1919C12.8439 15.0836 1.03411 17.9687 1.00787 21.6428C0.978342 26.0281 13.1162 32.6855 27.6422 32.7939C42.1682 32.9023 53.5679 26.4243 53.6007 22.039C53.627 18.3649 41.8697 15.3003 27.3568 15.1919Z" fill="url(#paint7_linear_6029_122263)"/>
<g id="Group_6" style="mix-blend-mode:multiply">
<path id="Vector_10" d="M53.5998 22.0391C53.5962 22.1367 53.5864 22.234 53.5703 22.3303C53.588 22.2342 53.5979 22.1368 53.5998 22.0391Z" fill="url(#paint8_linear_6029_122263)"/>
</g>
<g id="Group_7" style="mix-blend-mode:multiply">
<path id="Vector_11" d="M30.6557 32.7366L31.4168 32.6892L31.9188 32.6519L32.6437 32.5842L33.1457 32.5334C33.3851 32.5097 33.6213 32.4792 33.8607 32.4521L34.343 32.3912L35.0745 32.2862L35.5108 32.2218C35.8094 32.1744 36.1013 32.1236 36.3933 32.0695L36.6557 32.0254C37.0231 31.9577 37.3873 31.8832 37.7481 31.8087L38.1779 31.7139L38.834 31.5649L39.3162 31.4464L39.8936 31.3008L40.3824 31.1653C40.5628 31.1179 40.7432 31.0671 40.9204 31.0129L41.4059 30.8707L41.9209 30.7082C42.0784 30.6574 42.249 30.61 42.3933 30.5558L42.8952 30.3865L43.3479 30.2273L43.8564 30.0343L44.2665 29.8819C49.7482 27.7011 53.2878 24.7415 53.57 22.3305C53.2026 24.5282 48.9084 26.9054 42.4163 28.4089C37.5657 29.482 32.6143 29.992 27.6541 29.9293C26.7946 29.9293 25.9482 29.8988 25.1084 29.865C11.7371 29.2893 0.977086 25.0971 1.00005 21.6431C0.973805 25.7066 11.4452 31.7478 24.5802 32.6722C25.0592 32.7061 25.5447 32.7332 26.0335 32.7535H26.1122C26.6174 32.7738 27.1226 32.7874 27.6344 32.7907C28.0609 32.7907 28.4874 32.7907 28.9105 32.7907H29.3238L30.1702 32.7637L30.6557 32.7366Z" fill="url(#paint9_linear_6029_122263)"/>
</g>
<path id="Vector_12" d="M14.7357 10.3065C14.6342 15.9143 20.376 20.5725 27.5602 20.7111C34.7443 20.8496 40.6505 16.4159 40.7522 10.8081C40.8536 5.20035 35.1117 0.542049 27.9276 0.403549C20.7434 0.265049 14.8372 4.69877 14.7357 10.3065Z" fill="url(#paint10_linear_6029_122263)"/>
<path id="Vector_13" d="M16.2824 10.336C16.193 15.28 21.2557 19.3868 27.5904 19.509C33.9251 19.6311 39.1328 15.7222 39.2221 10.7783C39.3116 5.83434 34.2488 1.72744 27.9143 1.60533C21.5796 1.48318 16.3719 5.39206 16.2824 10.336Z" fill="url(#paint11_linear_6029_122263)"/>
<g id="Group_8" style="mix-blend-mode:screen">
<path id="Vector_14" d="M24.9362 2.63921C20.5994 3.30631 17.2795 6.30319 17.5288 9.33054C17.7781 12.3579 21.4917 14.2745 25.8285 13.6108C30.1653 12.9471 33.4786 9.95024 33.2326 6.9195C32.9865 3.89214 29.273 1.97211 24.9362 2.63921Z" fill="url(#paint12_linear_6029_122263)"/>
</g>
<path id="Vector_15" d="M19.2736 5.86818C19.254 7.13527 21.2837 8.20874 23.807 8.26577C26.3303 8.32283 28.3917 7.34187 28.4112 6.07477C28.4308 4.80767 26.4011 3.7342 23.8778 3.67717C21.3545 3.62011 19.2931 4.60108 19.2736 5.86818Z" fill="white"/>
<path id="Vector_16" d="M36.4105 5.54227C35.68 5.35033 34.9813 5.59128 34.8517 6.08072C34.7221 6.57017 35.2148 7.12463 35.9448 7.31858C36.6747 7.51253 37.3837 7.2741 37.503 6.78214C37.6326 6.2927 37.1409 5.7342 36.4105 5.54227Z" fill="white"/>
<g id="Group_9" style="mix-blend-mode:multiply" opacity="0.7">
<path id="Vector_17" d="M40.2926 13.4141C37.9963 11.6803 33.2888 10.4341 27.8268 10.3291C22.2959 10.2208 17.4899 11.3179 15.1641 13.0043C16.601 17.3523 21.5906 20.5998 27.584 20.7149C33.6136 20.8335 38.7377 17.7282 40.2926 13.4141Z" fill="url(#paint13_linear_6029_122263)"/>
</g>
<path id="Vector_18" d="M27.7258 17.8165C21.0402 17.9214 15.916 14.674 15.1713 13.0181C14.3709 13.5057 13.7246 16.5838 13.7345 17.1392C13.7673 19.215 20.1183 21.3755 27.8406 21.2434C35.5628 21.1113 41.7696 18.7409 41.7367 16.6651C41.74 16.0962 41.1036 13.8748 40.29 13.4143C39.6996 15.297 34.4114 17.7115 27.7258 17.8165Z" fill="url(#paint14_linear_6029_122263)"/>
<g id="Group_10" style="mix-blend-mode:multiply">
<path id="Vector_19" d="M27.7258 17.8165C21.0402 17.9214 15.916 14.674 15.1713 13.0181C14.3709 13.5057 13.7246 16.5838 13.7345 17.1392C13.7673 19.215 20.1183 21.3755 27.8406 21.2434C35.5628 21.1113 41.7696 18.7409 41.7367 16.6651C41.74 16.0962 41.1036 13.8748 40.29 13.4143C39.6996 15.297 34.4114 17.7115 27.7258 17.8165Z" fill="url(#paint15_linear_6029_122263)"/>
</g>
<path id="Vector_20" d="M20.6162 26.5159C22.8699 26.675 24.3166 25.5271 24.4675 24.9175C24.6184 24.308 23.8934 23.9321 23.8934 23.9321C23.126 24.7842 22.0666 25.2933 20.941 25.351C19.1531 25.3916 18.825 24.2809 18.825 24.2809C17.5095 25.097 18.3625 26.3567 20.6162 26.5159Z" fill="url(#paint16_linear_6029_122263)"/>
<g id="Group 2087324048">
<path id="Vector_21" d="M22.4965 26.455C23.3822 26.5126 27.7157 24.728 26.9284 22.8385C26.1411 20.9489 21.3516 23.7866 21.3516 23.7866C21.3516 23.7866 21.6107 26.3975 22.4965 26.455Z" fill="url(#paint17_linear_6029_122263)"/>
<path id="Vector_22" d="M24.5124 21.8325C24.1566 21.1971 23.5703 20.7341 22.8829 20.546C21.4571 20.1557 19.9944 21.0312 19.6144 22.5025C19.2343 23.9738 20.0804 25.4848 21.5051 25.8793C22.9299 26.2737 24.3949 25.4025 24.7791 23.9323C24.9642 23.2236 24.8683 22.468 24.5124 21.8325Z" fill="url(#paint18_linear_6029_122263)"/>
<g id="Group_11" opacity="0.67">
<path id="Vector_23" d="M24.1944 22.0309C23.8866 21.4863 23.3813 21.0907 22.7902 20.9317C21.5643 20.6019 20.3111 21.3592 19.9898 22.6241C19.6683 23.8891 20.4001 25.1838 21.6251 25.5174C22.85 25.8511 24.1053 25.0977 24.4304 23.8338C24.5872 23.2243 24.5022 22.5756 24.1944 22.0309Z" fill="url(#paint19_linear_6029_122263)"/>
</g>
<path id="Vector_24" d="M21.5277 20.8029C20.9897 20.979 20.6223 21.3447 20.7076 21.619C20.7929 21.8933 21.2948 21.978 21.8328 21.8019C22.3708 21.6258 22.7382 21.2601 22.6529 20.9858C22.5677 20.7081 22.0657 20.6268 21.5277 20.8029Z" fill="#FFF0D2"/>
<g id="Group_12" style="mix-blend-mode:multiply">
<path id="Vector_25" d="M21.5224 26.5159C23.7761 26.675 25.2228 25.5271 25.3737 24.9175C25.5246 24.308 24.7997 23.9321 24.7997 23.9321C24.0322 24.7842 22.9729 25.2933 21.8472 25.351C20.0593 25.3916 19.7313 24.2809 19.7313 24.2809C18.4158 25.097 19.2687 26.3567 21.5224 26.5159Z" fill="url(#paint20_linear_6029_122263)"/>
</g>
<g id="Group_13" style="mix-blend-mode:screen" opacity="0.69">
<path id="Vector_26" d="M22.044 26.1367C23.5892 26.0012 24.5044 24.5112 24.5044 24.5112C24.5044 24.5112 23.8024 25.4255 21.88 25.5542C19.9576 25.6829 19.7051 24.5383 19.7051 24.5383C19.1047 25.4797 20.4989 26.2721 22.044 26.1367Z" fill="url(#paint21_linear_6029_122263)"/>
</g>
</g>
<g id="Group 2087324049">
<path id="Vector_27" d="M40.6215 24.4043C41.5072 24.4618 45.8407 22.6772 45.0534 20.7877C44.2661 18.8981 39.4766 21.7358 39.4766 21.7358C39.4766 21.7358 39.7357 24.3467 40.6215 24.4043Z" fill="url(#paint22_linear_6029_122263)"/>
<path id="Vector_28" d="M42.6374 19.7818C42.2816 19.1463 41.6953 18.6833 41.0079 18.4952C39.5821 18.1049 38.1194 18.9805 37.7394 20.4517C37.3593 21.923 38.2054 23.4341 39.6301 23.8285C41.0549 24.2229 42.5199 23.3517 42.9041 21.8815C43.0892 21.1729 42.9933 20.4172 42.6374 19.7818Z" fill="url(#paint23_linear_6029_122263)"/>
<g id="Group_14" opacity="0.67">
<path id="Vector_29" d="M42.3194 19.9802C42.0116 19.4355 41.5063 19.04 40.9152 18.8809C39.6893 18.5511 38.4361 19.3084 38.1148 20.5733C37.7933 21.8383 38.5251 23.133 39.7501 23.4667C40.975 23.8003 42.2303 23.0469 42.5554 21.783C42.7122 21.1736 42.6272 20.5248 42.3194 19.9802Z" fill="url(#paint24_linear_6029_122263)"/>
</g>
<path id="Vector_30" d="M39.6527 18.7521C39.1147 18.9282 38.7473 19.2939 38.8326 19.5682C38.9179 19.8425 39.4198 19.9272 39.9578 19.7511C40.4958 19.575 40.8632 19.2093 40.7779 18.935C40.6927 18.6573 40.1907 18.5761 39.6527 18.7521Z" fill="#FFF0D2"/>
<g id="Group_15" style="mix-blend-mode:multiply">
<path id="Vector_31" d="M39.6474 24.4651C41.9011 24.6243 43.3478 23.4763 43.4987 22.8668C43.6496 22.2572 42.9247 21.8813 42.9247 21.8813C42.1572 22.7334 41.0979 23.2425 39.9722 23.3002C38.1843 23.3408 37.8563 22.2301 37.8563 22.2301C36.5408 23.0462 37.3937 24.3059 39.6474 24.4651Z" fill="url(#paint25_linear_6029_122263)"/>
</g>
<g id="Group_16" style="mix-blend-mode:screen" opacity="0.69">
<path id="Vector_32" d="M40.169 24.0859C41.7142 23.9504 42.6294 22.4604 42.6294 22.4604C42.6294 22.4604 41.9274 23.3748 40.005 23.5034C38.0826 23.6321 37.8301 22.4875 37.8301 22.4875C37.2297 23.4289 38.6239 24.2213 40.169 24.0859Z" fill="url(#paint26_linear_6029_122263)"/>
</g>
</g>
<path id="Vector_33" d="M7.24395 21.0976C8.13297 21.1552 12.4796 19.3706 11.6792 17.481C10.8787 15.5915 6.08594 18.4292 6.08594 18.4292C6.08594 18.4292 6.35494 21.04 7.24395 21.0976Z" fill="url(#paint27_linear_6029_122263)"/>
<path id="Vector_34" d="M9.26465 16.4786C8.90934 15.843 8.32318 15.3799 7.63598 15.1919C6.21031 14.7998 4.74642 15.6739 4.365 17.1452C3.98354 18.6164 4.82876 20.1285 6.25358 20.5239C7.6784 20.9193 9.14419 20.0485 9.52886 18.5782C9.71503 17.8699 9.61993 17.1143 9.26465 16.4786Z" fill="url(#paint28_linear_6029_122263)"/>
<g id="Group_17" opacity="0.67">
<path id="Vector_35" d="M8.92821 16.6759C8.62047 16.1321 8.1157 15.737 7.52534 15.5779C6.29906 15.2475 5.04525 16.0051 4.72399 17.2706C4.40273 18.5362 5.1355 19.8311 6.36119 20.1639C7.58692 20.4967 8.84207 19.7415 9.16559 18.4766C9.32135 17.8676 9.23596 17.2197 8.92821 16.6759Z" fill="url(#paint29_linear_6029_122263)"/>
</g>
<path id="Vector_36" d="M6.27765 15.4494C5.74293 15.6255 5.37224 15.9912 5.45753 16.2655C5.54282 16.5398 6.04474 16.6245 6.58274 16.4484C7.12077 16.2723 7.48816 15.9066 7.40286 15.6323C7.31757 15.3546 6.81237 15.2733 6.27765 15.4494Z" fill="#FFF0D2"/>
<path id="Vector_37" d="M6.25046 21.1619C8.50741 21.321 9.94758 20.1731 10.1018 19.5635C10.2559 18.954 9.52768 18.5781 9.52768 18.5781C8.76591 19.4266 7.71399 19.9355 6.59491 19.997C4.80704 20.0342 4.47899 18.9235 4.47899 18.9235C3.1635 19.743 3.99346 21.0027 6.25046 21.1619Z" fill="url(#paint30_linear_6029_122263)"/>
<g id="Group_18" style="mix-blend-mode:multiply">
<path id="Vector_38" d="M6.25046 21.1619C8.50741 21.321 9.94758 20.1731 10.1018 19.5635C10.2559 18.954 9.52768 18.5781 9.52768 18.5781C8.76591 19.4266 7.71399 19.9355 6.59491 19.997C4.80704 20.0342 4.47899 18.9235 4.47899 18.9235C3.1635 19.743 3.99346 21.0027 6.25046 21.1619Z" fill="url(#paint31_linear_6029_122263)"/>
</g>
<g id="Group_19" style="mix-blend-mode:screen" opacity="0.69">
<path id="Vector_39" d="M6.7883 20.7826C8.3301 20.6472 9.24867 19.1538 9.24867 19.1538C9.24867 19.1538 8.54993 20.0715 6.62428 20.2002C4.69863 20.3289 4.44928 19.1843 4.44928 19.1843C3.8424 20.1358 5.24647 20.9181 6.7883 20.7826Z" fill="url(#paint32_linear_6029_122263)"/>
</g>
<g id="Group_20" style="mix-blend-mode:screen" opacity="0.69">
<path id="Vector_40" d="M20.7705 20.2375C29.1095 21.4261 32.9509 17.8671 32.9509 17.8671C20.2915 20.0411 15.1739 13.8374 15.1739 13.8374C15.1739 13.8374 12.4315 19.0489 20.7705 20.2375Z" fill="url(#paint33_linear_6029_122263)"/>
</g>
<g id="Group_21" style="mix-blend-mode:multiply">
<path id="Vector_41" d="M3.31912 25.4188L4.03099 26.0013L3.42409 24.6264L5.83524 23.7291L8.45964 24.1456L14.3022 22.0258C14.4121 22.1659 14.577 22.2479 14.7516 22.2492C15.0751 22.251 15.339 21.9825 15.342 21.6487C15.345 21.3148 15.0859 21.0414 14.7625 21.037C14.4391 21.0327 14.1732 21.2991 14.1677 21.6329L8.42027 23.7189L6.63896 23.4345L16.8282 19.635L16.2476 19.4014L2.88281 24.386L3.31912 25.4188Z" fill="url(#paint34_linear_6029_122263)"/>
</g>
<g id="Group_22" style="mix-blend-mode:multiply">
<path id="Vector_42" d="M29.8022 30.2138L30.5177 32.9665L30.9235 32.9241L30.2186 30.1972L31.8422 21.1528L31.4178 21.2254L29.8022 30.2138Z" fill="url(#paint35_linear_6029_122263)"/>
</g>
<g id="Group_23" style="mix-blend-mode:multiply">
<path id="Vector_43" d="M53.5422 22.591L53.5979 22.1203L46.0987 19.3232L45.9609 19.7161L53.5422 22.591Z" fill="url(#paint36_linear_6029_122263)"/>
</g>
<g id="Group_24" style="mix-blend-mode:multiply">
<path id="Vector_44" d="M33.2861 20.8669L32.8707 20.9553L32.2775 26.5071L33.8861 27.8572C33.8878 27.8786 33.891 27.9 33.8958 27.9208C33.9315 28.1636 34.1057 28.3613 34.3371 28.4213C34.5685 28.4813 34.8114 28.392 34.9523 28.1951C35.0931 27.9982 35.1042 27.7328 34.9802 27.5222C34.8562 27.3119 34.6218 27.1986 34.3863 27.2351L34.3798 27.2361C34.2413 27.2565 34.1152 27.3285 34.0251 27.4384L32.7023 26.3282L33.2861 20.8669Z" fill="url(#paint37_linear_6029_122263)"/>
</g>
<g id="Group_25" style="mix-blend-mode:multiply">
<path id="Vector_45" d="M38.8793 27.7135L48.8587 25.3466C48.995 25.6135 49.3008 25.7369 49.576 25.6361C49.8512 25.5354 50.0121 25.2412 49.9537 24.9458C49.8953 24.6504 49.6353 24.4437 49.3435 24.4607L49.3265 24.4516C49.0651 24.4663 48.8462 24.6596 48.7917 24.9235L38.7116 27.3099L38.6493 27.3135L36.7655 29.4167L37.3886 29.3361L38.8793 27.7135Z" fill="url(#paint38_linear_6029_122263)"/>
</g>
<g id="Group_26" style="mix-blend-mode:multiply">
<path id="Vector_46" d="M53.5734 22.3303L53.6029 22.1203L46.1037 19.3232L45.9922 19.4553L53.5734 22.3303Z" fill="url(#paint39_linear_6029_122263)"/>
</g>
<g id="Group_27" style="mix-blend-mode:multiply">
<path id="Vector_47" d="M38.7116 27.3099L38.6493 27.3136L36.7655 29.4167L37.2719 29.1363L38.7448 27.4876L48.826 25.0638C48.9328 25.2749 49.1501 25.4016 49.3803 25.3873C49.4981 25.3899 49.6116 25.3413 49.6927 25.2534C49.7741 25.1655 49.8155 25.0463 49.8072 24.925C49.81 24.7948 49.7594 24.6693 49.6681 24.5792C49.5765 24.4891 49.4526 24.4428 49.3266 24.4516C49.0652 24.4663 48.8462 24.6596 48.7917 24.9235L38.7116 27.3099Z" fill="url(#paint40_linear_6029_122263)"/>
</g>
<g id="Group_28" style="mix-blend-mode:multiply">
<path id="Vector_48" d="M29.8018 30.214L30.5173 32.9667L30.7094 32.9609L30.0049 30.2374L31.6281 21.1894L31.4175 21.2255L29.8018 30.214Z" fill="url(#paint41_linear_6029_122263)"/>
</g>
<g id="Group_29" style="mix-blend-mode:multiply">
<path id="Vector_49" d="M33.9494 27.7037L32.4816 26.3625L33.0654 20.9012L32.8708 20.9553L32.2775 26.5072L33.8863 27.8574C33.888 27.8787 33.8912 27.9001 33.896 27.9209C33.9465 28.2519 34.2476 28.4795 34.5687 28.4298C34.6799 28.4098 34.7772 28.3419 34.8364 28.243C34.8956 28.1445 34.911 28.0242 34.8788 27.9124C34.8634 27.7758 34.7913 27.652 34.6813 27.5735C34.5712 27.4946 34.4337 27.4683 34.3042 27.5014C34.1652 27.5206 34.0385 27.5926 33.9494 27.7037Z" fill="url(#paint42_linear_6029_122263)"/>
</g>
<g id="Group_30" style="mix-blend-mode:multiply">
<path id="Vector_50" d="M8.44324 23.8781L14.2891 21.7853C14.3993 21.9246 14.5643 22.0054 14.7385 22.0054C15.0666 22.0054 15.2667 21.8056 15.2503 21.5483C15.2513 21.4094 15.1972 21.2761 15.1004 21.1795C15.0038 21.0829 14.873 21.0314 14.7385 21.037C14.4186 21.0369 14.1582 21.3027 14.1546 21.6329L8.40715 23.7189L6.35684 23.3159L16.5461 19.5199L16.2476 19.4014L2.88281 24.386L3.31912 25.4188L3.76199 25.8861L3.15509 24.5113L5.94022 23.4582L8.44324 23.8781Z" fill="url(#paint43_linear_6029_122263)"/>
</g>
</g>
</g>
<defs>
<linearGradient id="paint0_linear_6029_122263" x1="19.9164" y1="29.7804" x2="35.5119" y2="29.7804" gradientUnits="userSpaceOnUse">
<stop stop-color="#00FF15"/>
<stop offset="1" stop-color="#00FF11"/>
</linearGradient>
<linearGradient id="paint1_linear_6029_122263" x1="20.6024" y1="29.7679" x2="34.8725" y2="29.7679" gradientUnits="userSpaceOnUse">
<stop stop-color="#80FF00"/>
<stop offset="0.37" stop-color="#98FF00"/>
<stop offset="1" stop-color="#C8FF00"/>
</linearGradient>
<linearGradient id="paint2_linear_6029_122263" x1="27.9415" y1="21.9386" x2="27.9511" y2="35.3923" gradientUnits="userSpaceOnUse">
<stop stop-color="white"/>
<stop offset="0.14" stop-color="#C9C9C9"/>
<stop offset="0.31" stop-color="#8D8D8D"/>
<stop offset="0.48" stop-color="#5B5B5B"/>
<stop offset="0.64" stop-color="#333333"/>
<stop offset="0.78" stop-color="#171717"/>
<stop offset="0.91" stop-color="#060606"/>
<stop offset="1"/>
</linearGradient>
<linearGradient id="paint3_linear_6029_122263" x1="18.2656" y1="31.8222" x2="38.4636" y2="31.8222" gradientUnits="userSpaceOnUse">
<stop stop-color="#C938C6"/>
<stop offset="0.2" stop-color="#C337C5"/>
<stop offset="0.46" stop-color="#B435C2"/>
<stop offset="0.74" stop-color="#9A31BD"/>
<stop offset="1" stop-color="#7C2CB8"/>
</linearGradient>
<linearGradient id="paint4_linear_6029_122263" x1="18.2656" y1="31.8222" x2="38.4636" y2="31.8222" gradientUnits="userSpaceOnUse">
<stop stop-color="#DF42FF"/>
<stop offset="0.18" stop-color="#DD48FC"/>
<stop offset="0.41" stop-color="#D557F3"/>
<stop offset="0.67" stop-color="#CA71E4"/>
<stop offset="0.95" stop-color="#B995CF"/>
<stop offset="1" stop-color="#B69DCB"/>
</linearGradient>
<linearGradient id="paint5_linear_6029_122263" x1="17.5235" y1="30.7656" x2="39.1944" y2="30.7656" gradientUnits="userSpaceOnUse">
<stop stop-color="#DF42FF"/>
<stop offset="0.18" stop-color="#DD48FC"/>
<stop offset="0.41" stop-color="#D557F3"/>
<stop offset="0.67" stop-color="#CA71E4"/>
<stop offset="0.95" stop-color="#B995CF"/>
<stop offset="1" stop-color="#B69DCB"/>
</linearGradient>
<linearGradient id="paint6_linear_6029_122263" x1="17.5235" y1="30.7656" x2="39.1944" y2="30.7656" gradientUnits="userSpaceOnUse">
<stop stop-color="#DF42FF"/>
<stop offset="0.18" stop-color="#DD48FC"/>
<stop offset="0.41" stop-color="#D557F3"/>
<stop offset="0.67" stop-color="#CA71E4"/>
<stop offset="0.95" stop-color="#B995CF"/>
<stop offset="1" stop-color="#B69DCB"/>
</linearGradient>
<linearGradient id="paint7_linear_6029_122263" x1="2.9" y1="15.1769" x2="51.3148" y2="29.9471" gradientUnits="userSpaceOnUse">
<stop stop-color="#C938C6"/>
<stop offset="0.2" stop-color="#C337C5"/>
<stop offset="0.46" stop-color="#B435C2"/>
<stop offset="0.74" stop-color="#9A31BD"/>
<stop offset="1" stop-color="#7C2CB8"/>
</linearGradient>
<linearGradient id="paint8_linear_6029_122263" x1="53.4884" y1="22.1429" x2="53.6425" y2="22.19" gradientUnits="userSpaceOnUse">
<stop stop-color="#DF42FF"/>
<stop offset="0.18" stop-color="#DD48FC"/>
<stop offset="0.41" stop-color="#D557F3"/>
<stop offset="0.67" stop-color="#CA71E4"/>
<stop offset="0.95" stop-color="#B995CF"/>
<stop offset="1" stop-color="#B69DCB"/>
</linearGradient>
<linearGradient id="paint9_linear_6029_122263" x1="-64.484" y1="-5.40995" x2="69.1688" y2="35.3642" gradientUnits="userSpaceOnUse">
<stop stop-color="#DF42FF"/>
<stop offset="0.18" stop-color="#DD48FC"/>
<stop offset="0.41" stop-color="#D557F3"/>
<stop offset="0.67" stop-color="#CA71E4"/>
<stop offset="0.95" stop-color="#B995CF"/>
<stop offset="1" stop-color="#B69DCB"/>
</linearGradient>
<linearGradient id="paint10_linear_6029_122263" x1="-18.1139" y1="-5.31382" x2="49.2037" y2="16.5727" gradientUnits="userSpaceOnUse">
<stop stop-color="#001F73"/>
<stop offset="0.08" stop-color="#003482"/>
<stop offset="0.32" stop-color="#0074AE"/>
<stop offset="0.55" stop-color="#00A7D1"/>
<stop offset="0.74" stop-color="#00CCEA"/>
<stop offset="0.9" stop-color="#00E2F9"/>
<stop offset="1" stop-color="#00EAFF"/>
</linearGradient>
<linearGradient id="paint11_linear_6029_122263" x1="-12.683" y1="-3.43809" x2="46.678" y2="15.8608" gradientUnits="userSpaceOnUse">
<stop stop-color="#00D9FF"/>
<stop offset="1" stop-color="#00DDFF"/>
</linearGradient>
<linearGradient id="paint12_linear_6029_122263" x1="24.8048" y1="-3.10092" x2="27.1184" y2="12.5959" gradientUnits="userSpaceOnUse">
<stop stop-color="white"/>
<stop offset="0.14" stop-color="#C9C9C9"/>
<stop offset="0.31" stop-color="#8D8D8D"/>
<stop offset="0.48" stop-color="#5B5B5B"/>
<stop offset="0.64" stop-color="#333333"/>
<stop offset="0.78" stop-color="#171717"/>
<stop offset="0.91" stop-color="#060606"/>
<stop offset="1"/>
</linearGradient>
<linearGradient id="paint13_linear_6029_122263" x1="27.7966" y1="10.3191" x2="27.5948" y2="20.7875" gradientUnits="userSpaceOnUse">
<stop stop-color="#007ECD"/>
<stop offset="0.08" stop-color="#0983CF"/>
<stop offset="0.22" stop-color="#218FD4"/>
<stop offset="0.4" stop-color="#49A3DB"/>
<stop offset="0.6" stop-color="#80BFE6"/>
<stop offset="0.83" stop-color="#C5E2F4"/>
<stop offset="1" stop-color="white"/>
</linearGradient>
<linearGradient id="paint14_linear_6029_122263" x1="12.72" y1="19.0062" x2="40.6174" y2="18.7025" gradientUnits="userSpaceOnUse">
<stop stop-color="#C938C6"/>
<stop offset="0.2" stop-color="#C337C5"/>
<stop offset="0.46" stop-color="#B435C2"/>
<stop offset="0.74" stop-color="#9A31BD"/>
<stop offset="1" stop-color="#7C2CB8"/>
</linearGradient>
<linearGradient id="paint15_linear_6029_122263" x1="12.72" y1="19.0062" x2="40.6174" y2="18.7025" gradientUnits="userSpaceOnUse">
<stop stop-color="#DF42FF"/>
<stop offset="0.18" stop-color="#DD48FC"/>
<stop offset="0.41" stop-color="#D557F3"/>
<stop offset="0.67" stop-color="#CA71E4"/>
<stop offset="0.95" stop-color="#B995CF"/>
<stop offset="1" stop-color="#B69DCB"/>
</linearGradient>
<linearGradient id="paint16_linear_6029_122263" x1="18.205" y1="25.3882" x2="24.4843" y2="25.1753" gradientUnits="userSpaceOnUse">
<stop stop-color="#C938C6"/>
<stop offset="0.2" stop-color="#C337C5"/>
<stop offset="0.46" stop-color="#B435C2"/>
<stop offset="0.74" stop-color="#9A31BD"/>
<stop offset="1" stop-color="#7C2CB8"/>
</linearGradient>
<linearGradient id="paint17_linear_6029_122263" x1="21.3516" y1="24.3183" x2="27.04" y2="24.3183" gradientUnits="userSpaceOnUse">
<stop stop-color="#C938C6"/>
<stop offset="0.2" stop-color="#C337C5"/>
<stop offset="0.46" stop-color="#B435C2"/>
<stop offset="0.74" stop-color="#9A31BD"/>
<stop offset="1" stop-color="#7C2CB8"/>
</linearGradient>
<linearGradient id="paint18_linear_6029_122263" x1="20.8394" y1="23.5833" x2="26.0476" y2="24.9357" gradientUnits="userSpaceOnUse">
<stop stop-color="#00FF15"/>
<stop offset="1" stop-color="#00FF11"/>
</linearGradient>
<linearGradient id="paint19_linear_6029_122263" x1="21.2077" y1="23.6843" x2="25.681" y2="24.8458" gradientUnits="userSpaceOnUse">
<stop stop-color="#80FF00"/>
<stop offset="0.37" stop-color="#98FF00"/>
<stop offset="1" stop-color="#C8FF00"/>
</linearGradient>
<linearGradient id="paint20_linear_6029_122263" x1="19.1113" y1="25.3882" x2="25.3906" y2="25.1753" gradientUnits="userSpaceOnUse">
<stop stop-color="#DF42FF"/>
<stop offset="0.18" stop-color="#DD48FC"/>
<stop offset="0.41" stop-color="#D557F3"/>
<stop offset="0.67" stop-color="#CA71E4"/>
<stop offset="0.95" stop-color="#B995CF"/>
<stop offset="1" stop-color="#B69DCB"/>
</linearGradient>
<linearGradient id="paint21_linear_6029_122263" x1="19.5771" y1="25.3849" x2="24.5245" y2="25.2164" gradientUnits="userSpaceOnUse">
<stop stop-color="white"/>
<stop offset="0.15" stop-color="#CECECE"/>
<stop offset="0.38" stop-color="#868686"/>
<stop offset="0.59" stop-color="#4C4C4C"/>
<stop offset="0.77" stop-color="#232323"/>
<stop offset="0.92" stop-color="#090909"/>
<stop offset="1"/>
</linearGradient>
<linearGradient id="paint22_linear_6029_122263" x1="39.4766" y1="22.2675" x2="45.165" y2="22.2675" gradientUnits="userSpaceOnUse">
<stop stop-color="#C938C6"/>
<stop offset="0.2" stop-color="#C337C5"/>
<stop offset="0.46" stop-color="#B435C2"/>
<stop offset="0.74" stop-color="#9A31BD"/>
<stop offset="1" stop-color="#7C2CB8"/>
</linearGradient>
<linearGradient id="paint23_linear_6029_122263" x1="38.9644" y1="21.5325" x2="44.1726" y2="22.885" gradientUnits="userSpaceOnUse">
<stop stop-color="#00FF15"/>
<stop offset="1" stop-color="#00FF11"/>
</linearGradient>
<linearGradient id="paint24_linear_6029_122263" x1="39.3327" y1="21.6335" x2="43.806" y2="22.7951" gradientUnits="userSpaceOnUse">
<stop stop-color="#80FF00"/>
<stop offset="0.37" stop-color="#98FF00"/>
<stop offset="1" stop-color="#C8FF00"/>
</linearGradient>
<linearGradient id="paint25_linear_6029_122263" x1="37.2363" y1="23.3375" x2="43.5156" y2="23.1245" gradientUnits="userSpaceOnUse">
<stop stop-color="#DF42FF"/>
<stop offset="0.18" stop-color="#DD48FC"/>
<stop offset="0.41" stop-color="#D557F3"/>
<stop offset="0.67" stop-color="#CA71E4"/>
<stop offset="0.95" stop-color="#B995CF"/>
<stop offset="1" stop-color="#B69DCB"/>
</linearGradient>
<linearGradient id="paint26_linear_6029_122263" x1="37.7021" y1="23.3341" x2="42.6495" y2="23.1657" gradientUnits="userSpaceOnUse">
<stop stop-color="white"/>
<stop offset="0.15" stop-color="#CECECE"/>
<stop offset="0.38" stop-color="#868686"/>
<stop offset="0.59" stop-color="#4C4C4C"/>
<stop offset="0.77" stop-color="#232323"/>
<stop offset="0.92" stop-color="#090909"/>
<stop offset="1"/>
</linearGradient>
<linearGradient id="paint27_linear_6029_122263" x1="6.08592" y1="18.9642" x2="11.7776" y2="18.9642" gradientUnits="userSpaceOnUse">
<stop stop-color="#C938C6"/>
<stop offset="0.2" stop-color="#C337C5"/>
<stop offset="0.46" stop-color="#B435C2"/>
<stop offset="0.74" stop-color="#9A31BD"/>
<stop offset="1" stop-color="#7C2CB8"/>
</linearGradient>
<linearGradient id="paint28_linear_6029_122263" x1="5.53661" y1="18.19" x2="10.7449" y2="19.5424" gradientUnits="userSpaceOnUse">
<stop stop-color="#00FF15"/>
<stop offset="1" stop-color="#00FF11"/>
</linearGradient>
<linearGradient id="paint29_linear_6029_122263" x1="5.90345" y1="18.2913" x2="10.3768" y2="19.4528" gradientUnits="userSpaceOnUse">
<stop stop-color="#80FF00"/>
<stop offset="0.37" stop-color="#98FF00"/>
<stop offset="1" stop-color="#C8FF00"/>
</linearGradient>
<linearGradient id="paint30_linear_6029_122263" x1="3.85896" y1="20.0342" x2="10.1383" y2="19.8181" gradientUnits="userSpaceOnUse">
<stop stop-color="#C938C6"/>
<stop offset="0.2" stop-color="#C337C5"/>
<stop offset="0.46" stop-color="#B435C2"/>
<stop offset="0.74" stop-color="#9A31BD"/>
<stop offset="1" stop-color="#7C2CB8"/>
</linearGradient>
<linearGradient id="paint31_linear_6029_122263" x1="3.85896" y1="20.0342" x2="10.1383" y2="19.8181" gradientUnits="userSpaceOnUse">
<stop stop-color="#DF42FF"/>
<stop offset="0.18" stop-color="#DD48FC"/>
<stop offset="0.41" stop-color="#D557F3"/>
<stop offset="0.67" stop-color="#CA71E4"/>
<stop offset="0.95" stop-color="#B995CF"/>
<stop offset="1" stop-color="#B69DCB"/>
</linearGradient>
<linearGradient id="paint32_linear_6029_122263" x1="4.31807" y1="20.0309" x2="9.26544" y2="19.8624" gradientUnits="userSpaceOnUse">
<stop stop-color="white"/>
<stop offset="0.15" stop-color="#CECECE"/>
<stop offset="0.38" stop-color="#868686"/>
<stop offset="0.59" stop-color="#4C4C4C"/>
<stop offset="0.77" stop-color="#232323"/>
<stop offset="0.92" stop-color="#090909"/>
<stop offset="1"/>
</linearGradient>
<linearGradient id="paint33_linear_6029_122263" x1="14.7409" y1="17.1594" x2="32.951" y2="17.1594" gradientUnits="userSpaceOnUse">
<stop stop-color="white"/>
<stop offset="0.15" stop-color="#CECECE"/>
<stop offset="0.38" stop-color="#868686"/>
<stop offset="0.59" stop-color="#4C4C4C"/>
<stop offset="0.77" stop-color="#232323"/>
<stop offset="0.92" stop-color="#090909"/>
<stop offset="1"/>
</linearGradient>
<linearGradient id="paint34_linear_6029_122263" x1="2.88281" y1="22.703" x2="16.8151" y2="22.703" gradientUnits="userSpaceOnUse">
<stop stop-color="#DF42FF"/>
<stop offset="0.18" stop-color="#DD48FC"/>
<stop offset="0.41" stop-color="#D557F3"/>
<stop offset="0.67" stop-color="#CA71E4"/>
<stop offset="0.95" stop-color="#B995CF"/>
<stop offset="1" stop-color="#B69DCB"/>
</linearGradient>
<linearGradient id="paint35_linear_6029_122263" x1="29.3661" y1="27.3528" x2="32.7096" y2="26.8432" gradientUnits="userSpaceOnUse">
<stop stop-color="#DF42FF"/>
<stop offset="0.18" stop-color="#DD48FC"/>
<stop offset="0.41" stop-color="#D557F3"/>
<stop offset="0.67" stop-color="#CA71E4"/>
<stop offset="0.95" stop-color="#B995CF"/>
<stop offset="1" stop-color="#B69DCB"/>
</linearGradient>
<linearGradient id="paint36_linear_6029_122263" x1="45.961" y1="20.9554" x2="53.598" y2="20.9554" gradientUnits="userSpaceOnUse">
<stop stop-color="#DF42FF"/>
<stop offset="0.18" stop-color="#DD48FC"/>
<stop offset="0.41" stop-color="#D557F3"/>
<stop offset="0.67" stop-color="#CA71E4"/>
<stop offset="0.95" stop-color="#B995CF"/>
<stop offset="1" stop-color="#B69DCB"/>
</linearGradient>
<linearGradient id="paint37_linear_6029_122263" x1="32.0388" y1="24.9411" x2="34.5664" y2="24.5558" gradientUnits="userSpaceOnUse">
<stop stop-color="#DF42FF"/>
<stop offset="0.18" stop-color="#DD48FC"/>
<stop offset="0.41" stop-color="#D557F3"/>
<stop offset="0.67" stop-color="#CA71E4"/>
<stop offset="0.95" stop-color="#B995CF"/>
<stop offset="1" stop-color="#B69DCB"/>
</linearGradient>
<linearGradient id="paint38_linear_6029_122263" x1="36.6449" y1="27.3157" x2="50.0319" y2="26.5469" gradientUnits="userSpaceOnUse">
<stop stop-color="#DF42FF"/>
<stop offset="0.18" stop-color="#DD48FC"/>
<stop offset="0.41" stop-color="#D557F3"/>
<stop offset="0.67" stop-color="#CA71E4"/>
<stop offset="0.95" stop-color="#B995CF"/>
<stop offset="1" stop-color="#B69DCB"/>
</linearGradient>
<linearGradient id="paint39_linear_6029_122263" x1="45.9922" y1="20.8268" x2="53.603" y2="20.8268" gradientUnits="userSpaceOnUse">
<stop stop-color="#DF42FF"/>
<stop offset="0.18" stop-color="#DD48FC"/>
<stop offset="0.41" stop-color="#D557F3"/>
<stop offset="0.67" stop-color="#CA71E4"/>
<stop offset="0.95" stop-color="#B995CF"/>
<stop offset="1" stop-color="#B69DCB"/>
</linearGradient>
<linearGradient id="paint40_linear_6029_122263" x1="36.6449" y1="27.3157" x2="49.9009" y2="26.5545" gradientUnits="userSpaceOnUse">
<stop stop-color="#DF42FF"/>
<stop offset="0.18" stop-color="#DD48FC"/>
<stop offset="0.41" stop-color="#D557F3"/>
<stop offset="0.67" stop-color="#CA71E4"/>
<stop offset="0.95" stop-color="#B995CF"/>
<stop offset="1" stop-color="#B69DCB"/>
</linearGradient>
<linearGradient id="paint41_linear_6029_122263" x1="29.3662" y1="27.3563" x2="32.4955" y2="26.8793" gradientUnits="userSpaceOnUse">
<stop stop-color="#DF42FF"/>
<stop offset="0.18" stop-color="#DD48FC"/>
<stop offset="0.41" stop-color="#D557F3"/>
<stop offset="0.67" stop-color="#CA71E4"/>
<stop offset="0.95" stop-color="#B995CF"/>
<stop offset="1" stop-color="#B69DCB"/>
</linearGradient>
<linearGradient id="paint42_linear_6029_122263" x1="32.0388" y1="24.9412" x2="34.3652" y2="24.5866" gradientUnits="userSpaceOnUse">
<stop stop-color="#DF42FF"/>
<stop offset="0.18" stop-color="#DD48FC"/>
<stop offset="0.41" stop-color="#D557F3"/>
<stop offset="0.67" stop-color="#CA71E4"/>
<stop offset="0.95" stop-color="#B995CF"/>
<stop offset="1" stop-color="#B69DCB"/>
</linearGradient>
<linearGradient id="paint43_linear_6029_122263" x1="2.88281" y1="22.6454" x2="16.5461" y2="22.6454" gradientUnits="userSpaceOnUse">
<stop stop-color="#DF42FF"/>
<stop offset="0.18" stop-color="#DD48FC"/>
<stop offset="0.41" stop-color="#D557F3"/>
<stop offset="0.67" stop-color="#CA71E4"/>
<stop offset="0.95" stop-color="#B995CF"/>
<stop offset="1" stop-color="#B69DCB"/>
</linearGradient>
<clipPath id="clip0_6029_122263">
<rect width="54" height="36" fill="white"/>
</clipPath>
<clipPath id="clip1_6029_122263">
<rect width="53" height="41.34" fill="white" transform="translate(1)"/>
</clipPath>
</defs>
</svg>
