<svg width="54" height="34" viewBox="0 0 54 34" fill="none" xmlns="http://www.w3.org/2000/svg">
<g id="6">
<g id="6_2">
<g id="Group 2087324052">
<path id="Vector" d="M39.1335 25.5683C39.1335 25.5683 37.9207 23.0669 26.8214 23.0669H26.7809C15.6815 23.0669 14.4688 25.5773 14.4688 25.5773L15.713 29.1289C15.8927 29.6202 20.7843 30.6703 26.7944 30.6703C32.8045 30.6703 37.6961 29.6202 37.8758 29.1289L39.1335 25.5683Z" fill="#B91FBC"/>
<path id="Vector_2" d="M26.8214 23.0669H26.7809C15.6815 23.0669 14.4688 25.5773 14.4688 25.5773L15.3671 28.1238C15.7714 28.0652 30.9943 29.0613 32.508 30.3548C35.6523 30.0078 37.7725 29.4534 37.8983 29.1289L39.138 25.5773C39.138 25.5773 37.9207 23.0669 26.8214 23.0669Z" fill="#45011A"/>
<path id="Vector_3" d="M42.1933 22.6168C42.1933 22.6168 40.684 19.489 26.8401 19.4619H26.7907C12.9468 19.4619 11.4375 22.6168 11.4375 22.6168L12.9872 27.0428C13.2163 27.6557 19.3117 28.9628 26.8086 28.9628C34.3056 28.9628 40.4055 27.6557 40.6301 27.0428L42.1933 22.6168Z" fill="#98A995"/>
<path id="Vector_4" d="M26.8401 19.4619H26.7907C12.9468 19.4619 11.4375 22.6168 11.4375 22.6168L12.547 25.7718C13.0546 25.6997 32.0372 26.9391 33.9237 28.5571C37.8362 28.1064 40.4908 27.4259 40.6615 27.0247L42.2067 22.5988C42.2067 22.5988 40.684 19.4619 26.8401 19.4619Z" fill="#748B70"/>
<path id="Vector_5" d="M13.7734 24.6445C14.6229 25.478 15.2938 26.4767 15.7449 27.5796C16.196 28.6824 16.4178 29.8661 16.3967 31.0581H17.1244C17.1244 31.0581 18.1799 27.8535 16.6752 25.0502L13.7734 24.6445Z" fill="#B91FBC"/>
<path id="Vector_6" d="M17.4388 29.4085C17.6179 27.9129 17.3555 26.3975 16.6842 25.0502L13.7734 24.6445C14.2395 25.0799 14.6458 25.5755 14.9817 26.1183C16.4057 26.0237 17.1423 27.7454 17.4388 29.4085Z" fill="#45011A"/>
<path id="Vector_7" d="M39.9953 24.6445C39.1458 25.478 38.475 26.4767 38.0239 27.5796C37.5728 28.6824 37.351 29.8661 37.3721 31.0581H36.6489C36.6489 31.0581 35.5933 27.8535 37.0981 25.0502L39.9953 24.6445Z" fill="#B91FBC"/>
<path id="Vector_8" d="M36.337 29.4085C36.1563 27.9134 36.4171 26.3979 37.0872 25.0502L39.9979 24.6445C39.534 25.0808 39.1293 25.5763 38.7941 26.1183C37.3702 26.0237 36.6335 27.7454 36.337 29.4085Z" fill="#45011A"/>
</g>
<g id="Group 204">
<path id="Vector_9" d="M51.9716 12.5339C51.6303 11.7966 46.5488 10.9453 46.5488 10.9453L27.1138 11.4209H26.8578L6.97254 10.9072C6.97254 10.9072 2.01425 11.7205 2.00003 12.5339C1.98581 13.3472 6.74027 18.0987 26.8578 18.1367H27.1138C47.2551 18.0987 52.3129 13.2663 51.9716 12.5339Z" fill="url(#paint0_linear_6029_124844)"/>
<path id="Vector_10" d="M26.8818 16.2819C41.7993 16.2343 48.3883 12.8098 48.3883 12.8098C41.4533 5.19978 33.5134 3.73485 33.5134 3.73485C33.5134 3.73485 32.134 1 26.7301 1C21.3262 1 19.9374 3.73485 19.9374 3.73485C19.9374 3.73485 11.9927 5.21881 5.0625 12.8098C5.0625 12.8098 11.6467 16.2343 26.5642 16.2819H26.8676H26.8818Z" fill="url(#paint1_linear_6029_124844)"/>
<path id="Vector_11" d="M26.8578 18.16C17.4152 18.16 3.91506 16.2052 2 12.5571C2 12.5571 5.56466 21.2278 6.01498 21.7462C6.4653 22.2647 10.5277 26.5025 27.0806 26.5025H27.1232C43.6761 26.5025 47.5394 22.2742 47.9803 21.7462C48.4211 21.2183 52 12.5571 52 12.5571C50.4262 16.0672 36.3003 18.16 26.8578 18.16Z" fill="url(#paint2_linear_6029_124844)"/>
<path id="Vector_12" style="mix-blend-mode:multiply" opacity="0.3" d="M27.6531 18.792C22.5858 22.3259 9.10934 22.3687 5.17969 20.0238C5.41498 20.61 5.69386 21.1776 6.01397 21.7218C6.48799 22.245 10.5267 26.4781 27.0796 26.4781H27.1222C43.6751 26.4781 47.5384 22.2498 47.9793 21.7218C48.4201 21.1939 51.999 12.5327 51.999 12.5327C50.5485 15.7812 38.3187 18.0833 27.6531 18.792Z" fill="url(#paint3_linear_6029_124844)"/>
<path id="Vector_13" style="mix-blend-mode:multiply" opacity="0.26" d="M46.6588 15.6191C46.6588 15.6191 48.3553 16.0945 48.3742 16.6461C48.3932 17.1976 46.1755 22.3518 45.7205 22.7607C45.5073 22.9509 44.3842 23.6831 43.2422 24.4059C46.5877 23.2505 47.7393 21.9904 47.9809 21.7194C48.4548 21.2012 51.9994 12.5332 51.9994 12.5332C51.445 13.7409 49.4405 14.7775 46.6588 15.6191Z" fill="url(#paint4_linear_6029_124844)"/>
<path id="Vector_14" style="mix-blend-mode:multiply" opacity="0.58" d="M27.1428 22.8494H27.0906C13.5525 22.8494 7.29068 20.3809 4.61719 18.7495C5.03184 19.7679 5.50671 20.7606 6.03926 21.7222C6.51328 22.2454 10.552 26.4784 27.1049 26.4784H27.1475C43.7004 26.4784 47.5637 22.2501 48.0046 21.7222C48.5283 20.7748 48.9907 19.7946 49.3887 18.7876C46.7342 20.419 40.5766 22.8399 27.1428 22.8494Z" fill="url(#paint5_linear_6029_124844)"/>
<path id="Vector_15" style="mix-blend-mode:multiply" opacity="0.26" d="M30.9683 18.022C31.4914 18.476 31.902 19.0459 32.1676 19.6867C32.3815 20.2073 32.4474 20.7772 32.3579 21.333C32.2683 21.8889 32.0269 22.4089 31.6604 22.8354C31.4478 23.0853 31.2077 23.3103 30.9446 23.506C30.9809 23.5536 31.0126 23.6046 31.0394 23.6582C31.2679 24.1598 31.295 24.7304 31.1152 25.2515C30.8972 25.9222 30.2241 26.4263 29.532 26.0125C29.3 25.828 29.1227 25.5833 29.0191 25.3051C28.9155 25.0268 28.8896 24.7254 28.9442 24.4335C28.6645 24.5143 28.3801 24.5809 28.0957 24.6427C28.1576 24.8652 28.1576 25.1004 28.0957 25.3229C28.0501 25.497 27.9699 25.66 27.8599 25.8022C27.75 25.9444 27.6125 26.0629 27.4558 26.1505C27.2619 26.2582 27.0393 26.3024 26.8191 26.2768C26.5989 26.2512 26.3923 26.1572 26.2281 26.0078C25.9708 25.7365 25.8237 25.3786 25.8157 25.0042L25.0714 25.0851C25.0374 25.3591 24.913 25.6137 24.718 25.8085C24.523 26.0033 24.2686 26.1271 23.9954 26.16C23.7283 26.1707 23.4664 26.0834 23.2588 25.9145C23.0512 25.7455 22.912 25.5065 22.8672 25.242H21.9192C21.8529 25.4754 21.7132 25.6811 21.5211 25.8285C21.3289 25.9759 21.0945 26.0571 20.8526 26.0601C20.6106 26.0324 20.3815 25.9357 20.1924 25.7815C20.0034 25.6272 19.8624 25.4219 19.7861 25.1897V25.1897C19.4306 25.1897 19.075 25.1421 18.7195 25.1136C18.6747 25.2266 18.6088 25.3299 18.5252 25.418C18.4307 25.5209 18.3128 25.5994 18.1816 25.6466C18.0503 25.6938 17.9096 25.7084 17.7715 25.6891C17.5718 25.6497 17.386 25.5582 17.2329 25.4238C17.0798 25.2893 16.9647 25.1167 16.8993 24.9234C16.5769 24.8853 16.2499 24.8425 15.9275 24.7949L15.5246 24.7379C15.4969 24.7861 15.4634 24.8308 15.4251 24.871C15.3626 24.9328 15.2886 24.9814 15.2072 25.0141C15.1258 25.0468 15.0387 25.0628 14.951 25.0613C14.7692 25.0563 14.5916 25.0056 14.4344 24.9138C14.2803 24.8125 14.1495 24.6796 14.0504 24.5238V24.5238C13.382 24.4097 12.7137 24.2813 12.0595 24.1243C10.8081 23.8294 9.58984 23.4251 8.37634 23.0161C7.93075 22.8639 7.42829 22.726 6.99219 22.5405C8.96887 23.9245 14.3016 26.4406 27.0718 26.4454H27.1145C43.6674 26.4454 47.5307 22.217 47.9715 21.6891C48.4124 21.1611 51.9912 12.5 51.9912 12.5C50.6355 15.5821 39.9416 17.5416 30.9683 18.022Z" fill="url(#paint6_linear_6029_124844)"/>
<path id="Vector_16" style="mix-blend-mode:multiply" opacity="0.45" d="M28.0396 24.82C28.0087 25.0242 27.9202 25.2152 27.7844 25.3705C27.6487 25.5257 27.4714 25.6386 27.2736 25.6958C27.0758 25.7529 26.8659 25.752 26.6686 25.6931C26.4714 25.6341 26.2951 25.5197 26.1607 25.3633C26.0263 25.2068 25.9394 25.015 25.9104 24.8106C25.8814 24.6061 25.9114 24.3976 25.9969 24.2098C26.0824 24.0219 26.2198 23.8626 26.3928 23.7507C26.5658 23.6389 26.7672 23.5791 26.973 23.5786C27.2784 23.6017 27.5621 23.7454 27.762 23.9781C27.962 24.2108 28.0618 24.5136 28.0396 24.82ZM30.2817 23.5311C30.0488 23.4427 29.7944 23.4283 29.553 23.49C29.3117 23.5517 29.0951 23.6864 28.9327 23.8758C28.7702 24.0652 28.6698 24.3002 28.645 24.5488C28.6202 24.7975 28.6723 25.0477 28.7941 25.2657C28.916 25.4836 29.1017 25.6587 29.3261 25.767C29.5505 25.8754 29.8027 25.9119 30.0485 25.8716C30.2942 25.8312 30.5217 25.716 30.6999 25.5415C30.8782 25.367 30.9986 25.1417 31.0449 24.8961C31.1225 24.613 31.086 24.3105 30.9432 24.0542C30.8004 23.7979 30.5627 23.6083 30.2817 23.5263V23.5311ZM33.434 23.3551C33.2065 23.2619 32.9558 23.2418 32.7164 23.2973C32.477 23.3528 32.2607 23.4814 32.097 23.6653C31.9334 23.8492 31.8305 24.0794 31.8024 24.3243C31.7744 24.5692 31.8227 24.8168 31.9405 25.0332C32.0584 25.2495 32.2401 25.4239 32.4607 25.5324C32.6814 25.6409 32.9301 25.6782 33.1727 25.6392C33.4153 25.6002 33.6399 25.4868 33.8157 25.3146C33.9915 25.1424 34.1098 24.9198 34.1545 24.6773C34.2326 24.4055 34.2007 24.1138 34.0658 23.8653C33.931 23.6169 33.7039 23.4319 33.434 23.3503V23.3551ZM36.6952 23.0364C36.316 22.9413 35.8894 23.3646 35.7472 23.9877C35.605 24.6107 35.7851 25.172 36.1596 25.2623C36.5341 25.3527 36.9654 24.9389 37.1076 24.3111C37.2498 23.6833 37.0697 23.1268 36.6952 23.0317V23.0364ZM39.5109 22.7748C39.2028 22.6987 38.8426 23.0745 38.7098 23.6119C38.5771 24.1494 38.7098 24.6488 39.0322 24.7249C39.3545 24.801 39.7053 24.43 39.838 23.8925C39.9707 23.3551 39.8428 22.8462 39.5109 22.7701V22.7748ZM42.2792 22.0899C41.9616 22.0328 41.6251 22.4229 41.5208 22.9698C41.4165 23.5168 41.5919 24.0067 41.9095 24.0638C42.2271 24.1208 42.5636 23.7308 42.6632 23.1839C42.7627 22.6369 42.5921 22.147 42.2792 22.0852V22.0899ZM45.1234 21.2005C44.8437 21.1244 44.5071 21.4478 44.3744 21.933C44.2417 22.4181 44.3744 22.8842 44.6304 22.9508C44.8864 23.0174 45.2466 22.7035 45.3841 22.2183C45.5216 21.7332 45.3888 21.2766 45.1092 21.1957L45.1234 21.2005ZM47.4935 20.0447C47.2186 19.9544 46.8678 20.2683 46.7114 20.7439C46.5549 21.2195 46.6545 21.6951 46.9294 21.7712C47.2043 21.8473 47.5551 21.5525 47.7115 21.0721C47.868 20.5917 47.7779 20.1303 47.503 20.0637L47.4935 20.0447ZM22.8917 24.8961C22.9606 25.0767 23.0794 25.2338 23.2341 25.3491C23.3888 25.4644 23.5731 25.5331 23.7653 25.5472C23.9575 25.5612 24.1497 25.52 24.3194 25.4284C24.4892 25.3368 24.6294 25.1986 24.7237 25.03C24.818 24.8613 24.8624 24.6692 24.8518 24.4762C24.8413 24.2831 24.7761 24.097 24.664 23.9397C24.5518 23.7825 24.3974 23.6605 24.2186 23.5881C24.0399 23.5158 23.8444 23.496 23.6549 23.5311C23.3777 23.615 23.144 23.804 23.0033 24.058C22.8626 24.3119 22.826 24.6108 22.9012 24.8914L22.8917 24.8961ZM19.7868 24.6821C19.859 24.8442 19.9749 24.9829 20.1215 25.0824C20.2681 25.1818 20.4396 25.2382 20.6164 25.2449C20.7933 25.2517 20.9685 25.2087 21.1222 25.1207C21.2759 25.0327 21.4021 24.9033 21.4863 24.7471C21.5706 24.591 21.6095 24.4142 21.5989 24.237C21.5882 24.0597 21.5283 23.889 21.4259 23.7441C21.3235 23.5993 21.1828 23.4861 21.0196 23.4173C20.8565 23.3485 20.6774 23.327 20.5026 23.3551C20.2363 23.4396 20.0135 23.6251 19.8816 23.8721C19.7496 24.1191 19.719 24.408 19.7963 24.6773L19.7868 24.6821ZM16.8337 24.3111C16.9806 24.9246 17.4072 25.3432 17.7817 25.2623C18.1562 25.1815 18.3411 24.6012 18.1941 23.9877C18.0472 23.3741 17.6158 22.9556 17.2461 23.0364C16.8763 23.1173 16.6914 23.6975 16.8431 24.3063L16.8337 24.3111ZM14.108 23.8688C14.2407 24.4062 14.582 24.782 14.9139 24.7011C15.2457 24.6202 15.3879 24.1256 15.2362 23.5881C15.0845 23.0507 14.7622 22.6749 14.4351 22.751C14.108 22.8271 13.9753 23.3456 14.108 23.8688ZM11.2639 23.1601C11.3634 23.707 11.7047 24.1113 12.0176 24.04C12.3304 23.9686 12.4916 23.493 12.4063 22.946C12.321 22.3991 11.9654 21.9948 11.6478 22.0661C11.3302 22.1375 11.1786 22.6369 11.2828 23.1791L11.2639 23.1601ZM8.55721 22.2088C8.69467 22.6844 9.03123 23.0221 9.3109 22.9413C9.59058 22.8604 9.70434 22.4038 9.56688 21.9234C9.42941 21.4431 9.09285 21.1149 8.81792 21.191C8.54298 21.2671 8.4387 21.7332 8.55721 22.2136V22.2088ZM6.18709 21.0626C6.34352 21.5382 6.69429 21.8521 6.96923 21.7617C7.24416 21.6714 7.34371 21.2148 7.18728 20.7344C7.03085 20.254 6.68007 19.9448 6.40514 20.0352C6.1302 20.1256 6.06858 20.5917 6.22501 21.0673L6.18709 21.0626Z" fill="url(#paint7_linear_6029_124844)"/>
<path id="Vector_17" d="M26.9925 25.8598C26.7788 25.8969 26.5588 25.8671 26.3625 25.7745C26.1662 25.6818 26.0031 25.5308 25.8952 25.342C25.7874 25.1531 25.7401 24.9355 25.7597 24.7187C25.7793 24.502 25.8649 24.2965 26.0049 24.1302C26.1449 23.9639 26.3325 23.8449 26.5422 23.7893C26.7519 23.7336 26.9736 23.7441 27.1772 23.8192C27.3809 23.8943 27.5565 24.0305 27.6803 24.2092C27.8042 24.3879 27.8702 24.6005 27.8695 24.8182C27.888 25.0724 27.8066 25.3237 27.6427 25.5184C27.4787 25.7131 27.2454 25.8356 26.9925 25.8598V25.8598ZM30.0168 25.7076C29.9759 25.7123 29.9345 25.7123 29.8936 25.7076C29.792 25.682 29.6971 25.6348 29.6153 25.5691C29.5335 25.5035 29.4667 25.4209 29.4195 25.3271C29.2947 25.0944 29.256 24.8247 29.3105 24.5661C29.3327 24.3463 29.4305 24.1411 29.5871 23.9858C29.7436 23.8304 29.9492 23.7346 30.1685 23.7147H30.2917C30.3933 23.742 30.488 23.7904 30.5696 23.8567C30.6513 23.9231 30.7181 24.006 30.7658 24.1C30.8907 24.331 30.9294 24.5992 30.8748 24.8562C30.8536 25.0769 30.7563 25.2832 30.5996 25.4395C30.443 25.5958 30.2368 25.6923 30.0168 25.7124V25.7076ZM23.9683 25.7076C23.7483 25.6876 23.5421 25.5911 23.3855 25.4347C23.2288 25.2784 23.1315 25.0721 23.1103 24.8515C23.0557 24.5944 23.0944 24.3262 23.2193 24.0952C23.267 24.0012 23.3338 23.9184 23.4155 23.852C23.4971 23.7856 23.5918 23.7372 23.6933 23.71H23.8166C24.0378 23.7252 24.2467 23.8178 24.4069 23.9717C24.5671 24.1255 24.6686 24.3308 24.6935 24.5518C24.7545 24.7838 24.7258 25.0303 24.6133 25.242C24.5008 25.4537 24.3127 25.6149 24.0868 25.6933C24.0458 25.698 24.0045 25.698 23.9635 25.6933L23.9683 25.7076ZM33.1691 25.4698H33.0553C32.8326 25.3938 32.6487 25.233 32.5431 25.0221C32.4376 24.8112 32.419 24.5671 32.4912 24.3426C32.5166 24.1335 32.6105 23.9389 32.758 23.7891C32.9056 23.6393 33.0985 23.5429 33.3065 23.515C33.3427 23.5101 33.3794 23.5101 33.4156 23.515C33.6333 23.5891 33.8141 23.7448 33.9201 23.9496C34.0262 24.1543 34.0492 24.3923 33.9844 24.6137C33.9599 24.8236 33.8665 25.0193 33.7189 25.17C33.5713 25.3208 33.3778 25.4179 33.1691 25.446V25.4698ZM20.816 25.4698C20.6073 25.4416 20.4138 25.3445 20.2662 25.1938C20.1186 25.0431 20.0251 24.8473 20.0007 24.6374C19.9347 24.416 19.9571 24.1776 20.0633 23.9725C20.1695 23.7674 20.351 23.6119 20.5695 23.5387C20.6057 23.5339 20.6424 23.5339 20.6786 23.5387C20.8831 23.5655 21.0734 23.6584 21.2205 23.8035C21.3677 23.9486 21.4636 24.1378 21.4939 24.3426C21.5601 24.5646 21.5377 24.8037 21.4316 25.0096C21.3255 25.2154 21.1439 25.3719 20.925 25.446H20.816V25.4698ZM36.2787 25.0655H36.217C35.98 25.0084 35.8094 24.5661 35.9468 24.0239C36.0843 23.4817 36.3782 23.2201 36.6057 23.2201H36.6674C36.8238 23.2581 36.8996 23.4341 36.9328 23.5387C36.9973 23.777 36.9973 24.0282 36.9328 24.2665C36.8096 24.7421 36.5015 25.0703 36.2739 25.0703L36.2787 25.0655ZM17.7064 25.0655C17.4789 25.0655 17.1708 24.7611 17.0475 24.2617C16.9831 24.0234 16.9831 23.7723 17.0475 23.534C17.0807 23.4294 17.1566 23.2534 17.313 23.2153H17.3746C17.6021 23.2153 17.9103 23.515 18.0335 24.0191C18.1567 24.5233 18.0003 25.0037 17.7633 25.0608H17.7017L17.7064 25.0655ZM39.137 24.5376H39.0991C39.0185 24.5376 38.9474 24.4282 38.9095 24.2855C38.855 24.0798 38.855 23.8634 38.9095 23.6577C39.0138 23.2248 39.2698 22.9537 39.4451 22.9537H39.4831C39.5636 22.9537 39.63 23.0679 39.6727 23.2058C39.7248 23.4134 39.7248 23.6308 39.6727 23.8384C39.5636 24.2712 39.3124 24.5376 39.137 24.5376V24.5376ZM14.8481 24.5376C14.6727 24.5376 14.4214 24.2712 14.3124 23.8384C14.2602 23.6308 14.2602 23.4134 14.3124 23.2058C14.3551 23.0679 14.4214 22.9775 14.502 22.9537H14.5399C14.7153 22.9537 14.9666 23.2248 15.0756 23.6577C15.1301 23.8634 15.1301 24.0798 15.0756 24.2855C15.0377 24.4282 14.9666 24.5185 14.886 24.5376H14.8481ZM41.9906 23.8717H41.9622C41.7821 23.8384 41.6446 23.4579 41.7299 23.0013C41.8153 22.5447 42.057 22.2688 42.2324 22.2688H42.2608C42.4457 22.3021 42.5832 22.6826 42.4979 23.1392C42.4125 23.5958 42.1708 23.8669 41.9906 23.8669V23.8717ZM11.9944 23.8717C11.8143 23.8717 11.5726 23.5816 11.4872 23.144C11.4455 22.9339 11.4553 22.7168 11.5157 22.5114C11.5678 22.3782 11.6389 22.2879 11.7242 22.2736C11.9044 22.2736 12.1509 22.5685 12.2315 23.006C12.2756 23.2143 12.2658 23.4305 12.203 23.6339C12.1556 23.7718 12.0798 23.8622 11.9992 23.8764L11.9944 23.8717ZM44.7021 22.7635H44.6689C44.5219 22.7207 44.4319 22.3687 44.5409 21.9834C44.6499 21.5982 44.8775 21.3794 45.0149 21.3794H45.0765C45.2282 21.4222 45.3136 21.7742 45.2045 22.1594C45.0955 22.5447 44.8727 22.7635 44.7305 22.7635H44.7021ZM9.2451 22.7635C9.09342 22.7635 8.86589 22.5352 8.77108 22.1594C8.67628 21.7837 8.77108 21.4222 8.89907 21.3794H8.93225C9.0792 21.3794 9.30673 21.6125 9.40627 21.9834C9.50582 22.3544 9.40627 22.7207 9.28303 22.7635H9.2451ZM47.039 21.5887H47.0011C46.8541 21.5411 46.7783 21.1844 46.9063 20.8039C47.0343 20.4234 47.257 20.2236 47.3803 20.2236H47.4467C47.5936 20.2712 47.6694 20.6232 47.5415 21.0084C47.4135 21.3937 47.1907 21.5887 47.0674 21.5887H47.039ZM6.90817 21.5887C6.76122 21.5887 6.52421 21.3651 6.41044 21.0084C6.29668 20.6517 6.3583 20.2712 6.50525 20.2236H6.54317C6.69012 20.2236 6.92713 20.4424 7.01719 20.8039C7.10726 21.1654 7.05511 21.5459 6.92239 21.5887H6.90817Z" fill="url(#paint8_linear_6029_124844)"/>
<path id="Vector_18" style="mix-blend-mode:multiply" d="M21.4776 24.3414C21.443 24.1575 21.365 23.9847 21.2502 23.8374V23.8754C21.2322 24.117 21.1593 24.3512 21.0369 24.5601C20.9688 24.6794 20.871 24.7789 20.7531 24.8489C20.6352 24.9189 20.5011 24.957 20.3641 24.9594C20.2626 24.9544 20.1629 24.9302 20.0703 24.8881C20.1266 25.0417 20.2249 25.1763 20.354 25.2764C20.4831 25.3765 20.6377 25.438 20.8 25.4539H20.909C21.1299 25.3798 21.3131 25.2219 21.4194 25.014C21.5257 24.806 21.5466 24.5646 21.4776 24.3414V24.3414Z" fill="url(#paint9_linear_6029_124844)"/>
<path id="Vector_19" style="mix-blend-mode:multiply" d="M24.6779 24.5521C24.6325 24.3074 24.5095 24.084 24.3273 23.915C24.3581 24.0864 24.3581 24.2619 24.3273 24.4333C24.3036 24.5501 24.2654 24.6635 24.2135 24.7708C24.1959 24.8088 24.1753 24.8454 24.1519 24.8802C24.1128 24.9409 24.0667 24.9967 24.0145 25.0466C23.9046 25.1602 23.759 25.2324 23.6023 25.251C23.481 25.2693 23.357 25.2562 23.2422 25.213C23.3128 25.3485 23.4171 25.4635 23.5449 25.5468C23.6727 25.63 23.8198 25.6788 23.9719 25.6884C24.0128 25.6931 24.0542 25.6931 24.0951 25.6884C24.3156 25.6055 24.4974 25.4432 24.6051 25.2332C24.7128 25.0231 24.7388 24.7803 24.6779 24.5521Z" fill="url(#paint10_linear_6029_124844)"/>
<path id="Vector_20" style="mix-blend-mode:multiply" d="M18.0505 24.0153C18.0291 23.9238 17.999 23.8347 17.9605 23.749V23.749C17.9492 23.9736 17.8928 24.1935 17.7947 24.3956C17.7367 24.5084 17.6479 24.6024 17.5388 24.6666C17.4566 24.7097 17.366 24.734 17.2734 24.7379C17.3196 24.8203 17.3836 24.8912 17.4606 24.9456C17.5377 24.9999 17.626 25.0361 17.7188 25.0517V25.0517H17.7804C17.9984 24.9994 18.1642 24.5573 18.0505 24.0153Z" fill="url(#paint11_linear_6029_124844)"/>
<path id="Vector_21" style="mix-blend-mode:multiply" d="M27.5876 24.0669C27.5922 24.3168 27.5335 24.5638 27.417 24.7848C27.3082 25.0218 27.1274 25.2182 26.9006 25.3458C26.7044 25.4466 26.4774 25.4687 26.2656 25.4076C26.3319 25.5456 26.4345 25.6627 26.5622 25.7465C26.69 25.8303 26.8381 25.8775 26.9906 25.8831C27.2452 25.8555 27.4787 25.7281 27.6402 25.5286C27.8017 25.3292 27.8782 25.0738 27.853 24.8181C27.8565 24.544 27.7624 24.2776 27.5876 24.0669Z" fill="url(#paint12_linear_6029_124844)"/>
<path id="Vector_22" style="mix-blend-mode:multiply" d="M7.05157 20.7764L6.97101 20.8524C6.90395 20.91 6.83268 20.9625 6.75779 21.0093C6.68353 21.0553 6.60397 21.092 6.52087 21.1187H6.46875C6.59669 21.4087 6.79096 21.5941 6.94258 21.5941H6.98049C7.11316 21.5513 7.21267 21.2233 7.07526 20.8097C7.0563 20.7906 7.05157 20.7859 7.05157 20.7764Z" fill="url(#paint13_linear_6029_124844)"/>
<path id="Vector_23" style="mix-blend-mode:multiply" d="M15.0609 23.654C15.0389 23.5695 15.0104 23.4868 14.9756 23.4067C14.9756 23.4638 14.9282 23.5208 14.9045 23.5779C14.8953 23.5994 14.8842 23.6201 14.8714 23.6397C14.8409 23.6887 14.806 23.7349 14.7671 23.7776C14.7246 23.818 14.6787 23.8546 14.6297 23.8869C14.5628 23.9282 14.4856 23.9496 14.407 23.9487H14.3359C14.4544 24.3196 14.6771 24.543 14.8382 24.543H14.8761C14.9567 24.543 15.0277 24.4337 15.0656 24.2911C15.1202 24.082 15.1186 23.8622 15.0609 23.654Z" fill="url(#paint14_linear_6029_124844)"/>
<path id="Vector_24" style="mix-blend-mode:multiply" d="M12.2225 22.9175C12.2037 22.9734 12.1799 23.0275 12.1515 23.0791C12.1218 23.1373 12.0852 23.1915 12.0425 23.2408C11.9993 23.2898 11.9499 23.333 11.8956 23.3691C11.8014 23.4333 11.6918 23.471 11.5781 23.4785C11.6871 23.7352 11.8529 23.8921 11.9856 23.8921H12.0141C12.0946 23.8921 12.1704 23.7875 12.2178 23.6497C12.2806 23.4463 12.2903 23.2303 12.2462 23.0221C12.2366 22.9876 12.2287 22.9527 12.2225 22.9175V22.9175Z" fill="url(#paint15_linear_6029_124844)"/>
<path id="Vector_25" style="mix-blend-mode:multiply" d="M9.37777 21.8892C9.37777 21.9272 9.33039 21.97 9.30196 22.008C9.25302 22.0767 9.19747 22.1404 9.13612 22.1982C9.08155 22.2539 9.01267 22.2934 8.93711 22.3123C8.90139 22.3218 8.86384 22.3218 8.82812 22.3123C8.94185 22.5833 9.1219 22.7497 9.24984 22.7497H9.28301C9.42989 22.7069 9.51992 22.3551 9.4062 21.97C9.39903 21.9423 9.38952 21.9152 9.37777 21.8892V21.8892Z" fill="url(#paint16_linear_6029_124844)"/>
<path id="Vector_26" style="mix-blend-mode:multiply" d="M44.7765 22.189C44.6991 22.2788 44.6017 22.3488 44.4922 22.3935C44.4922 22.5884 44.5727 22.731 44.6628 22.7596H44.6959C44.8476 22.7596 45.075 22.5314 45.1698 22.1558C45.2348 21.95 45.2348 21.7292 45.1698 21.5234C45.0733 21.7641 44.9406 21.9886 44.7765 22.189V22.189Z" fill="url(#paint17_linear_6029_124844)"/>
<path id="Vector_27" style="mix-blend-mode:multiply" d="M47.3318 20.8825C47.273 20.9399 47.2096 20.9923 47.1423 21.0394C47.0528 21.0956 46.9493 21.1253 46.8438 21.125C46.8438 21.3627 46.8959 21.5529 47.0001 21.6004H47.038C47.1849 21.6004 47.4171 21.3769 47.5119 21.0204C47.5634 20.8675 47.5843 20.7059 47.5735 20.5449C47.5019 20.6636 47.4211 20.7765 47.3318 20.8825V20.8825Z" fill="url(#paint18_linear_6029_124844)"/>
<path id="Vector_28" style="mix-blend-mode:multiply" d="M30.7376 24.0906C30.5716 24.4421 30.2953 24.7294 29.951 24.9083C29.7414 25.0132 29.5068 25.0577 29.2734 25.0367C29.2945 25.1326 29.3279 25.2253 29.3729 25.3124C29.4201 25.4062 29.4868 25.4887 29.5686 25.5544C29.6503 25.62 29.7452 25.6672 29.8468 25.6928C29.8877 25.6975 29.929 25.6975 29.97 25.6928V25.6928C30.1899 25.6728 30.396 25.5763 30.5526 25.42C30.7091 25.2638 30.8064 25.0576 30.8276 24.837C30.8822 24.58 30.8435 24.312 30.7186 24.0811L30.7376 24.0906Z" fill="url(#paint19_linear_6029_124844)"/>
<path id="Vector_29" style="mix-blend-mode:multiply" d="M42.4231 22.4409C42.3937 22.6596 42.3212 22.8702 42.2097 23.0604C42.0983 23.2506 41.9501 23.4166 41.7739 23.5487H41.7266C41.7692 23.7103 41.8498 23.8245 41.9445 23.8435H41.973C42.153 23.8435 42.3947 23.5534 42.48 23.116C42.5261 22.8902 42.5064 22.6558 42.4231 22.4409V22.4409Z" fill="url(#paint20_linear_6029_124844)"/>
<path id="Vector_30" style="mix-blend-mode:multiply" d="M33.6559 23.6533C33.6188 23.9051 33.5335 24.1472 33.4048 24.3665C33.3155 24.5291 33.1891 24.6682 33.0359 24.7724C32.8827 24.8765 32.7071 24.9427 32.5234 24.9655C32.5628 25.0819 32.6308 25.1864 32.7211 25.2695C32.8113 25.3526 32.921 25.4116 33.0399 25.441H33.1536C33.3623 25.4128 33.5557 25.3158 33.7032 25.1651C33.8508 25.0144 33.9442 24.8188 33.9686 24.6089C34.005 24.4361 33.9952 24.2568 33.9403 24.089C33.8853 23.9212 33.7873 23.7709 33.6559 23.6533Z" fill="url(#paint21_linear_6029_124844)"/>
<path id="Vector_31" style="mix-blend-mode:multiply" d="M39.4358 23.867C39.3335 23.9773 39.2046 24.0592 39.0615 24.1047C38.997 24.1135 38.9317 24.1135 38.8672 24.1047C38.8712 24.1532 38.8807 24.2011 38.8956 24.2474C38.9335 24.39 39.0046 24.4803 39.0852 24.4993H39.1231C39.2984 24.4993 39.5495 24.2331 39.6585 23.8005C39.6817 23.6893 39.696 23.5764 39.7011 23.4629C39.6333 23.6101 39.5438 23.7463 39.4358 23.867V23.867Z" fill="url(#paint22_linear_6029_124844)"/>
<path id="Vector_32" style="mix-blend-mode:multiply" d="M36.9169 23.5348C36.8898 23.4412 36.8393 23.3561 36.77 23.2876C36.7724 23.3208 36.7724 23.3542 36.77 23.3874C36.7235 23.6551 36.6235 23.9106 36.4763 24.1386C36.3716 24.3334 36.2181 24.4972 36.0309 24.6141L35.9219 24.6664C35.9693 24.8898 36.0782 25.0467 36.2109 25.08H36.2725C36.5 25.08 36.8079 24.7757 36.9311 24.2765C36.9935 24.0326 36.9886 23.7762 36.9169 23.5348V23.5348Z" fill="url(#paint23_linear_6029_124844)"/>
<path id="Vector_33" style="mix-blend-mode:screen" opacity="0.67" d="M3.71875 14.1357C3.71875 14.1357 19.3947 20.7945 45.0678 16.062C45.0726 16.062 19.9493 23.5008 3.71875 14.1357Z" fill="url(#paint24_linear_6029_124844)"/>
<path id="Vector_34" style="mix-blend-mode:multiply" d="M26.5829 16.2811H26.8863C41.8038 16.2336 48.3927 12.8091 48.3927 12.8091C48.3927 12.8091 39.8603 11.6057 27.0617 11.6057C19.7192 11.5742 12.3813 11.976 5.08594 12.8091C5.08594 12.8091 11.6701 16.2573 26.5829 16.2811Z" fill="url(#paint25_linear_6029_124844)"/>
<path id="Vector_35" style="mix-blend-mode:multiply" d="M26.9954 14.4082C20.5963 14.4082 15.349 14.7459 12.3438 14.9932C17.0379 15.8804 21.8064 16.312 26.583 16.2821H26.8864C31.6823 16.3128 36.47 15.878 41.1825 14.9837C38.31 14.7364 33.314 14.4082 26.9954 14.4082Z" fill="url(#paint26_linear_6029_124844)"/>
<path id="Vector_36" style="mix-blend-mode:multiply" d="M27.0592 12.5335C20.3108 12.5239 13.5663 12.8573 6.85156 13.5323C9.6957 14.5407 16.0761 16.2482 26.5852 16.2815H26.8885C37.4308 16.2482 43.8112 14.5312 46.6458 13.5228C40.1391 12.8443 33.6009 12.5141 27.0592 12.5335Z" fill="url(#paint27_linear_6029_124844)"/>
<path id="Vector_37" style="mix-blend-mode:screen" opacity="0.68" d="M22.8737 4.58171L20.2813 3.96826C20.2813 3.96826 11.1058 6.78346 6.85938 13.5314C9.89971 14.55 13.0362 15.2527 16.2196 15.6285C16.4803 15.0103 19.7173 7.38739 22.8737 4.58171Z" fill="url(#paint28_linear_6029_124844)"/>
<path id="Vector_38" style="mix-blend-mode:multiply" opacity="0.44" d="M26.8906 16.279C38.5744 16.241 45.1439 14.1341 47.4427 13.221C43.4186 8.46505 37.8634 5.28335 31.8011 3.62354L30.4171 3.96596C30.4171 3.96596 35.7874 9.29733 34.8062 12.0225C33.8251 14.7476 26.8906 16.279 26.8906 16.279Z" fill="url(#paint29_linear_6029_124844)"/>
<path id="Vector_39" style="mix-blend-mode:multiply" opacity="0.44" d="M37.9398 15.5254C39.769 15.2639 41.3375 14.9595 42.6786 14.6505C41.257 10.0431 38.0251 5.93499 33.5612 4.18999C32.9736 3.9998 32.3813 3.81437 31.7795 3.64795L31.6562 3.68123C34.041 5.34705 35.9218 7.64051 37.0916 10.3094C37.8078 11.8433 38.1179 13.5366 37.992 15.2258L37.9398 15.5254Z" fill="url(#paint30_linear_6029_124844)"/>
<path id="Vector_40" style="mix-blend-mode:screen" opacity="0.68" d="M10.873 10.5818C10.9299 8.67949 18.0773 4.25671 18.0773 4.25195C13.0936 5.95413 8.62311 8.89982 5.08594 12.8122C5.08594 12.8122 10.4038 15.5752 22.3003 16.1697C14.6505 14.6907 10.8162 12.4507 10.873 10.5818Z" fill="url(#paint31_linear_6029_124844)"/>
<path id="Vector_41" style="mix-blend-mode:multiply" opacity="0.44" d="M37.9846 8.29158C38.1503 9.96046 37.6511 11.6273 36.596 12.9281C35.5475 14.2373 34.1383 15.2081 32.5438 15.7195C32.1236 15.8717 31.6923 16.0191 31.25 16.1618C40.2216 15.6862 45.4302 14.0171 47.4255 13.2229C44.3457 9.64892 40.4587 6.86571 36.0889 5.10547C37.1012 5.88733 37.779 7.02648 37.9846 8.29158V8.29158Z" fill="url(#paint32_linear_6029_124844)"/>
<path id="Vector_42" style="mix-blend-mode:screen" opacity="0.29" d="M34.3203 4.4292C34.3203 4.4292 42.2956 5.85563 46.968 12.6835C44.5307 13.7292 41.9673 14.4502 39.3434 14.8279C39.3434 14.8279 42.9164 13.6867 43.4614 12.2793C44.8498 8.70849 34.3203 4.4292 34.3203 4.4292Z" fill="url(#paint33_linear_6029_124844)"/>
<path id="Vector_43" d="M7.24219 14.8291L9.73951 11.9097L18.0797 13.1364L18.7953 14.8291L18.6815 15.8942L17.2599 17.0876C17.2599 17.0876 11.0758 16.3887 7.24219 14.8291Z" fill="url(#paint34_linear_6029_124844)"/>
<path id="Vector_44" d="M18.6815 15.9043L18.7953 14.8392L18.0797 13.1465L16.9945 16.6222C15.099 16.9075 7.24219 14.8392 7.24219 14.8392C11.0758 16.3892 17.2552 17.0977 17.2552 17.0977L18.6815 15.9043Z" fill="url(#paint35_linear_6029_124844)"/>
<path id="Vector_45" style="mix-blend-mode:multiply" opacity="0.57" d="M7.52175 14.5115L7.24219 14.8395C7.24219 14.8395 15.0794 16.9077 16.9937 16.6224L17.8277 13.96C16.7473 14.83 11.9284 16.1612 7.52175 14.5115Z" fill="url(#paint36_linear_6029_124844)"/>
<path id="Vector_46" style="mix-blend-mode:screen" opacity="0.62" d="M9.93831 12.4772L18.0504 13.2711L18.0883 13.1475L9.74877 11.9209L7.24219 14.8306L7.6639 14.9352L9.93831 12.4772Z" fill="url(#paint37_linear_6029_124844)"/>
<path id="Vector_47" style="mix-blend-mode:multiply" opacity="0.49" d="M18.5231 14.2095C18.4093 15.2887 18.0113 16.3204 17.1016 16.8386L17.2532 17.0859L18.6747 15.9068L18.7884 14.8418L18.5231 14.2095Z" fill="url(#paint38_linear_6029_124844)"/>
<path id="Vector_48" d="M46.4124 14.8291L43.9151 11.9097L35.5749 13.1459L34.8594 14.8291L34.9778 15.8942L36.3995 17.0876C36.3995 17.0876 42.5835 16.3887 46.4124 14.8291Z" fill="url(#paint39_linear_6029_124844)"/>
<path id="Vector_49" d="M34.9778 15.9047L34.8594 14.8397L35.5749 13.147L36.6648 16.6227C38.5603 16.908 46.4124 14.8397 46.4124 14.8397C42.5835 16.3897 36.3995 17.0982 36.3995 17.0982L34.9778 15.9047Z" fill="url(#paint40_linear_6029_124844)"/>
<path id="Vector_50" style="mix-blend-mode:multiply" opacity="0.57" d="M46.1418 14.512L46.4167 14.84C46.4167 14.84 38.5842 16.9082 36.6699 16.6229L35.8359 13.9604C36.9115 14.8305 41.7399 16.1617 46.1418 14.512Z" fill="url(#paint41_linear_6029_124844)"/>
<path id="Vector_51" style="mix-blend-mode:screen" opacity="0.62" d="M43.7108 12.4772L35.613 13.2711L35.5703 13.1475L43.9098 11.9209L46.4069 14.8401L45.9899 14.9447L43.7108 12.4772Z" fill="url(#paint42_linear_6029_124844)"/>
<path id="Vector_52" style="mix-blend-mode:multiply" opacity="0.49" d="M35.1325 14.2095C35.2463 15.2887 35.6395 16.3204 36.554 16.8386C36.5067 16.9195 36.4545 17.0003 36.4072 17.0859L34.9856 15.9068L34.8672 14.8418L35.1325 14.2095Z" fill="url(#paint43_linear_6029_124844)"/>
<path id="Vector_53" d="M37.8203 13.7904L38.2894 15.6826L39.9004 15.4021L39.3603 13.5859L37.8203 13.7904Z" fill="url(#paint44_linear_6029_124844)"/>
<path id="Vector_54" style="mix-blend-mode:multiply" d="M39.1376 13.7856L39.6351 15.4496L39.9004 15.4021L39.3603 13.5859L37.8203 13.7904L37.863 13.9568L39.1376 13.7856Z" fill="url(#paint45_linear_6029_124844)"/>
<path id="Vector_55" d="M39.5938 13.5284L40.1055 15.4064L41.7118 15.0783L41.1385 13.3335L39.5938 13.5284Z" fill="url(#paint46_linear_6029_124844)"/>
<path id="Vector_56" style="mix-blend-mode:multiply" d="M40.9205 13.5332L41.4464 15.1354L41.7118 15.0783L41.1385 13.3335L39.5938 13.5284L39.6364 13.6901L40.9205 13.5332Z" fill="url(#paint47_linear_6029_124844)"/>
<path id="Vector_57" d="M41.3125 13.2429L41.9143 15.0401L43.4542 14.636L42.8051 12.9814L41.3125 13.2429Z" fill="url(#paint48_linear_6029_124844)"/>
<path id="Vector_58" style="mix-blend-mode:multiply" d="M42.6203 13.2239L43.1984 14.7025L43.4542 14.636L42.8051 12.9814L41.3125 13.2429L41.3646 13.3998L42.6203 13.2239Z" fill="url(#paint49_linear_6029_124844)"/>
<path id="Vector_59" d="M15.6506 13.8235L15.2147 15.5968L13.7031 15.3306L14.2101 13.6333L15.6506 13.8235Z" fill="url(#paint50_linear_6029_124844)"/>
<path id="Vector_60" style="mix-blend-mode:multiply" d="M14.4186 13.8187L13.9495 15.3781L13.7031 15.3306L14.2101 13.6333L15.6506 13.8235L15.6127 13.9804L14.4186 13.8187Z" fill="url(#paint51_linear_6029_124844)"/>
<path id="Vector_61" d="M13.9932 13.5757L13.5099 15.3396L12.0078 15.0305L12.5432 13.395L13.9932 13.5757Z" fill="url(#paint52_linear_6029_124844)"/>
<path id="Vector_62" style="mix-blend-mode:multiply" d="M12.747 13.5852L12.2542 15.0828L12.0078 15.0305L12.5432 13.395L13.9932 13.5757L13.9505 13.7326L12.747 13.5852Z" fill="url(#paint53_linear_6029_124844)"/>
<path id="Vector_63" d="M12.3871 13.3135L11.8233 14.9918L10.3828 14.6162L10.9893 13.0615L12.3871 13.3135Z" fill="url(#paint54_linear_6029_124844)"/>
<path id="Vector_64" style="mix-blend-mode:multiply" d="M11.1599 13.2945L10.6197 14.678L10.3828 14.6162L10.9893 13.0615L12.3871 13.3135L12.3398 13.4561L11.1599 13.2945Z" fill="url(#paint55_linear_6029_124844)"/>
<path id="Vector_65" style="mix-blend-mode:screen" d="M2.51174 12.6765C2.63968 11.797 6.14605 11.0601 6.14605 11.0601C4.72455 11.3311 2.00948 11.9301 2 12.5339C2 12.7526 2.3459 13.2661 3.26514 13.8984C3.26514 13.8794 2.45962 13.0236 2.51174 12.6765Z" fill="url(#paint56_linear_6029_124844)"/>
<path id="Vector_66" style="mix-blend-mode:multiply" d="M39.9972 18.1364L39.6797 21.5263L40.7979 21.298L41.1581 17.9795L39.9972 18.1364Z" fill="url(#paint57_linear_6029_124844)"/>
<path id="Vector_67" style="mix-blend-mode:multiply" d="M40.8169 18.3799L39.9687 18.4702L39.6797 21.5273L40.4852 21.3609L40.8169 18.3799Z" fill="url(#paint58_linear_6029_124844)"/>
<path id="Vector_68" style="mix-blend-mode:multiply" d="M41.125 21.2511L41.5278 17.942L42.6981 17.7661L42.2622 21.0371L41.125 21.2511Z" fill="url(#paint59_linear_6029_124844)"/>
<path id="Vector_69" style="mix-blend-mode:multiply" d="M41.125 21.2512L41.9116 21.1038L42.2622 18.1133L41.4898 18.2131L41.125 21.2512Z" fill="url(#paint60_linear_6029_124844)"/>
<path id="Vector_70" style="mix-blend-mode:multiply" d="M43.1499 17.6613L42.7188 20.937L43.8275 20.6803L44.3203 17.4141L43.1499 17.6613Z" fill="url(#paint61_linear_6029_124844)"/>
<path id="Vector_71" style="mix-blend-mode:multiply" d="M42.7188 20.9375L43.4816 20.7616L43.9223 17.8281L43.1073 18.004L42.7188 20.9375Z" fill="url(#paint62_linear_6029_124844)"/>
<path id="Vector_72" style="mix-blend-mode:multiply" d="M13.9109 18.1364L14.2284 21.5263L13.1101 21.298L12.75 17.9795L13.9109 18.1364Z" fill="url(#paint63_linear_6029_124844)"/>
<path id="Vector_73" style="mix-blend-mode:multiply" d="M13.0938 18.3799L13.9467 18.4702L14.231 21.5273L13.4254 21.3609L13.0938 18.3799Z" fill="url(#paint64_linear_6029_124844)"/>
<path id="Vector_74" style="mix-blend-mode:multiply" d="M12.7871 21.2511L12.3844 17.942L11.2188 17.7661L11.6499 21.0371L12.7871 21.2511Z" fill="url(#paint65_linear_6029_124844)"/>
<path id="Vector_75" style="mix-blend-mode:multiply" d="M12.8013 21.2512L12.0194 21.1038L11.6641 18.1133L12.4364 18.2131L12.8013 21.2512Z" fill="url(#paint66_linear_6029_124844)"/>
<path id="Vector_76" style="mix-blend-mode:multiply" d="M10.775 17.6613L11.2109 20.937L10.0974 20.6803L9.60938 17.4141L10.775 17.6613Z" fill="url(#paint67_linear_6029_124844)"/>
<path id="Vector_77" style="mix-blend-mode:multiply" d="M11.2192 20.9375L10.4516 20.7616L10.0156 17.8281L10.8259 18.004L11.2192 20.9375Z" fill="url(#paint68_linear_6029_124844)"/>
<path id="Vector_78" style="mix-blend-mode:screen" opacity="0.67" d="M27.0906 23.0729H27.1428C40.3586 23.0729 46.5303 20.7281 49.2465 19.0967C49.2892 18.9921 49.3318 18.8922 49.3792 18.7876C46.7342 20.419 40.5766 22.8399 27.1428 22.8494H27.0906C13.5525 22.8494 7.29068 20.3809 4.61719 18.7495C4.66459 18.8541 4.70725 18.954 4.74991 19.0587C7.49451 20.6901 13.7848 23.0682 27.0906 23.0729Z" fill="url(#paint69_linear_6029_124844)"/>
<path id="Vector_79" d="M36.5246 25.9705C36.5246 25.9705 36.1929 25.6995 38.4815 25.3381C40.7701 24.9768 40.4621 25.2193 40.4621 25.2193L40.3532 25.9039C40.3532 25.9039 37.3111 26.503 37.0742 26.4269C36.8626 26.313 36.6757 26.1578 36.5246 25.9705V25.9705Z" fill="url(#paint70_linear_6029_124844)"/>
<path id="Vector_80" style="mix-blend-mode:multiply" opacity="0.26" d="M36.5246 25.9699C36.5246 25.9699 36.5909 26.0507 36.6857 26.1458C37.2306 25.8445 37.8351 25.6679 38.4561 25.6284C39.077 25.589 39.6989 25.6877 40.2773 25.9176H40.3532L40.4621 25.2329C40.4621 25.2329 40.7701 24.9905 38.4815 25.3518C36.1929 25.7131 36.5246 25.9699 36.5246 25.9699Z" fill="url(#paint71_linear_6029_124844)"/>
<path id="Vector_81" d="M17.592 25.9705C17.592 25.9705 17.9237 25.6995 15.6351 25.3381C13.3465 24.9768 13.6545 25.2193 13.6545 25.2193L13.7635 25.9039C13.7635 25.9039 16.8055 26.503 17.0424 26.4269C17.254 26.313 17.4409 26.1578 17.592 25.9705V25.9705Z" fill="url(#paint72_linear_6029_124844)"/>
<path id="Vector_82" style="mix-blend-mode:multiply" opacity="0.26" d="M17.592 25.9699C17.592 25.9699 17.5257 26.0507 17.4309 26.1458C16.886 25.8445 16.2815 25.6679 15.6606 25.6284C15.0396 25.589 14.4177 25.6877 13.8393 25.9176H13.7635L13.6545 25.2329C13.6545 25.2329 13.3465 24.9905 15.6351 25.3518C17.9237 25.7131 17.592 25.9699 17.592 25.9699Z" fill="url(#paint73_linear_6029_124844)"/>
<path id="Vector_83" style="mix-blend-mode:screen" opacity="0.56" d="M15.2703 10.3029C17.4831 10.6207 19.7214 10.7227 21.9538 10.6073C24.6078 10.5613 27.2529 10.2876 29.8603 9.78922C32.4086 9.30421 34.8874 8.50549 37.2407 7.41115C38.0719 7.01291 38.882 6.57158 39.6676 6.08895C37.7277 5.03466 35.655 4.24757 33.5055 3.74894C33.5055 3.74894 32.1261 1.01416 26.7224 1.01416C21.3187 1.01416 19.944 3.73467 19.944 3.73467C19.944 3.73467 15.4078 4.58126 10.2031 8.27202C11.6204 9.45154 13.4928 10.0032 15.2703 10.3029Z" fill="url(#paint74_linear_6029_124844)"/>
<path id="Vector_84" d="M33.5093 3.73399C33.5093 3.73399 32.1303 1 26.7281 1C21.326 1 19.9375 3.73399 19.9375 3.73399C19.9375 3.73399 20.5488 4.76102 26.7139 4.76102C32.879 4.76102 33.5093 3.73399 33.5093 3.73399Z" fill="url(#paint75_linear_6029_124844)"/>
<path id="Vector_85" style="mix-blend-mode:multiply" opacity="0.26" d="M29.3121 1.24707C28.7814 4.42801 23.2513 4.67525 20.3085 3.24407C20.1741 3.38987 20.055 3.5492 19.9531 3.71954C19.9531 3.71954 20.5644 4.74657 26.7295 4.74657C32.8946 4.74657 33.5107 3.71954 33.5107 3.71954C33.5107 3.71954 32.5771 1.91749 29.3121 1.24707Z" fill="url(#paint76_linear_6029_124844)"/>
<path id="Vector_86" style="mix-blend-mode:multiply" opacity="0.26" d="M30.9944 1.76074C30.8759 3.08246 29.5255 4.25203 28.0234 4.74173C32.9797 4.61337 33.5104 3.73381 33.5104 3.73381C33.5104 3.73381 32.9087 2.56899 30.9944 1.76074Z" fill="url(#paint77_linear_6029_124844)"/>
<path id="Vector_87" style="mix-blend-mode:screen" opacity="0.51" d="M20.7266 3.00796C20.7266 3.00796 22.7356 0.77817 27.8341 1.24885C27.8483 1.24885 24.3751 4.54837 20.7266 3.00796Z" fill="url(#paint78_linear_6029_124844)"/>
<path id="Vector_88" d="M20.1562 2.06445L20.3126 3.24363C20.3126 3.24363 20.8481 4.25164 26.7336 4.25164C32.6192 4.25164 33.1594 3.25315 33.1594 3.25315L33.5148 2.06445C33.5148 2.06445 32.7755 3.01541 26.8331 3.01541C20.8908 3.01541 20.1562 2.06445 20.1562 2.06445Z" fill="url(#paint79_linear_6029_124844)"/>
<path id="Vector_89" d="M23.0706 1.51416C23.0706 1.51416 20.1989 1.61401 20.1562 2.07998C20.1562 2.07998 20.4974 3.03094 26.7336 3.03094C32.9698 3.03094 33.5148 2.07998 33.5148 2.07998C33.5148 2.07998 33.7612 1.67582 30.771 1.67582L31.2449 1.89455C31.2449 1.89455 32.1927 2.51742 26.7431 2.51742C21.2935 2.51742 22.1465 1.90881 22.1465 1.90881L23.0706 1.51416Z" fill="url(#paint80_linear_6029_124844)"/>
</g>
</g>
</g>
<defs>
<linearGradient id="paint0_linear_6029_124844" x1="2745.31" y1="1109.43" x2="4838.56" y2="2902.67" gradientUnits="userSpaceOnUse">
<stop stop-color="#D6D4DB"/>
<stop offset="1" stop-color="#857F93"/>
</linearGradient>
<linearGradient id="paint1_linear_6029_124844" x1="25.1706" y1="5.03807" x2="28.143" y2="19.7358" gradientUnits="userSpaceOnUse">
<stop stop-color="#FF84FF"/>
<stop offset="1" stop-color="#0007DB"/>
</linearGradient>
<linearGradient id="paint2_linear_6029_124844" x1="1372" y1="2558.56" x2="2859.74" y2="689.176" gradientUnits="userSpaceOnUse">
<stop stop-color="#D6D4DB"/>
<stop offset="1" stop-color="#857F93"/>
</linearGradient>
<linearGradient id="paint3_linear_6029_124844" x1="1420.06" y1="2670.94" x2="2926.79" y2="898.131" gradientUnits="userSpaceOnUse">
<stop stop-color="#D6D4DB"/>
<stop offset="1" stop-color="#857F93"/>
</linearGradient>
<linearGradient id="paint4_linear_6029_124844" x1="1024.05" y1="2047.63" x2="1191.44" y2="2004.32" gradientUnits="userSpaceOnUse">
<stop stop-color="#D6D4DB"/>
<stop offset="1" stop-color="#857F93"/>
</linearGradient>
<linearGradient id="paint5_linear_6029_124844" x1="1436.86" y1="1475.34" x2="2036.89" y2="257.055" gradientUnits="userSpaceOnUse">
<stop stop-color="#D6D4DB"/>
<stop offset="1" stop-color="#857F93"/>
</linearGradient>
<linearGradient id="paint6_linear_6029_124844" x1="1414.11" y1="2712.46" x2="2929.34" y2="998.968" gradientUnits="userSpaceOnUse">
<stop stop-color="#D6D4DB"/>
<stop offset="1" stop-color="#857F93"/>
</linearGradient>
<linearGradient id="paint7_linear_6029_124844" x1="16.7057" y1="15.2932" x2="37.5228" y2="26.4024" gradientUnits="userSpaceOnUse">
<stop offset="0.01" stop-color="#756E86"/>
<stop offset="1" stop-color="#4A415F"/>
</linearGradient>
<linearGradient id="paint8_linear_6029_124844" x1="20.3325" y1="17.1606" x2="40.016" y2="27.8729" gradientUnits="userSpaceOnUse">
<stop stop-color="#86D400"/>
<stop offset="1" stop-color="#489700"/>
</linearGradient>
<linearGradient id="paint9_linear_6029_124844" x1="113.375" y1="305.897" x2="176.244" y2="336.634" gradientUnits="userSpaceOnUse">
<stop stop-color="#86D400"/>
<stop offset="1" stop-color="#489700"/>
</linearGradient>
<linearGradient id="paint10_linear_6029_124844" x1="119.907" y1="329.487" x2="185.542" y2="359.104" gradientUnits="userSpaceOnUse">
<stop stop-color="#86D400"/>
<stop offset="1" stop-color="#489700"/>
</linearGradient>
<linearGradient id="paint11_linear_6029_124844" x1="68.6846" y1="254.183" x2="107.931" y2="267.581" gradientUnits="userSpaceOnUse">
<stop stop-color="#86D400"/>
<stop offset="1" stop-color="#489700"/>
</linearGradient>
<linearGradient id="paint12_linear_6029_124844" x1="133.3" y1="331.798" x2="203" y2="365.171" gradientUnits="userSpaceOnUse">
<stop stop-color="#86D400"/>
<stop offset="1" stop-color="#489700"/>
</linearGradient>
<linearGradient id="paint13_linear_6029_124844" x1="47.3306" y1="169.019" x2="77.4461" y2="182.546" gradientUnits="userSpaceOnUse">
<stop stop-color="#86D400"/>
<stop offset="1" stop-color="#489700"/>
</linearGradient>
<linearGradient id="paint14_linear_6029_124844" x1="62.1516" y1="226.531" x2="98.5785" y2="240.004" gradientUnits="userSpaceOnUse">
<stop stop-color="#86D400"/>
<stop offset="1" stop-color="#489700"/>
</linearGradient>
<linearGradient id="paint15_linear_6029_124844" x1="54.197" y1="198.647" x2="86.6812" y2="211.303" gradientUnits="userSpaceOnUse">
<stop stop-color="#86D400"/>
<stop offset="1" stop-color="#489700"/>
</linearGradient>
<linearGradient id="paint16_linear_6029_124844" x1="47.151" y1="177.69" x2="76.372" y2="189.367" gradientUnits="userSpaceOnUse">
<stop stop-color="#86D400"/>
<stop offset="1" stop-color="#489700"/>
</linearGradient>
<linearGradient id="paint17_linear_6029_124844" x1="101.379" y1="205.856" x2="136.828" y2="217.235" gradientUnits="userSpaceOnUse">
<stop stop-color="#86D400"/>
<stop offset="1" stop-color="#489700"/>
</linearGradient>
<linearGradient id="paint18_linear_6029_124844" x1="105.764" y1="173.874" x2="140.225" y2="186.939" gradientUnits="userSpaceOnUse">
<stop stop-color="#86D400"/>
<stop offset="1" stop-color="#489700"/>
</linearGradient>
<linearGradient id="paint19_linear_6029_124844" x1="137.845" y1="293.147" x2="203.953" y2="328.429" gradientUnits="userSpaceOnUse">
<stop stop-color="#86D400"/>
<stop offset="1" stop-color="#489700"/>
</linearGradient>
<linearGradient id="paint20_linear_6029_124844" x1="100.907" y1="237.326" x2="139.252" y2="248.937" gradientUnits="userSpaceOnUse">
<stop stop-color="#86D400"/>
<stop offset="1" stop-color="#489700"/>
</linearGradient>
<linearGradient id="paint21_linear_6029_124844" x1="136.015" y1="315.629" x2="201.765" y2="345.1" gradientUnits="userSpaceOnUse">
<stop stop-color="#86D400"/>
<stop offset="1" stop-color="#489700"/>
</linearGradient>
<linearGradient id="paint22_linear_6029_124844" x1="100.563" y1="186.269" x2="138.178" y2="202.8" gradientUnits="userSpaceOnUse">
<stop stop-color="#86D400"/>
<stop offset="1" stop-color="#489700"/>
</linearGradient>
<linearGradient id="paint23_linear_6029_124844" x1="112.18" y1="309.912" x2="163.546" y2="326.39" gradientUnits="userSpaceOnUse">
<stop stop-color="#86D400"/>
<stop offset="1" stop-color="#489700"/>
</linearGradient>
<linearGradient id="paint24_linear_6029_124844" x1="1144.13" y1="849.649" x2="1399.97" y2="65.3861" gradientUnits="userSpaceOnUse">
<stop stop-color="#D6D4DB"/>
<stop offset="1" stop-color="#857F93"/>
</linearGradient>
<linearGradient id="paint25_linear_6029_124844" x1="4186.36" y1="812.561" x2="4175" y2="662.072" gradientUnits="userSpaceOnUse">
<stop stop-color="#38E5FF"/>
<stop offset="1" stop-color="#00798D"/>
</linearGradient>
<linearGradient id="paint26_linear_6029_124844" x1="2680.51" y1="333.195" x2="2678.68" y2="292.883" gradientUnits="userSpaceOnUse">
<stop stop-color="#38E5FF"/>
<stop offset="1" stop-color="#00798D"/>
</linearGradient>
<linearGradient id="paint27_linear_6029_124844" x1="3810.39" y1="654.805" x2="3803.09" y2="543.893" gradientUnits="userSpaceOnUse">
<stop stop-color="#38E5FF"/>
<stop offset="1" stop-color="#00798D"/>
</linearGradient>
<linearGradient id="paint28_linear_6029_124844" x1="737.433" y1="1846.4" x2="1073.84" y2="1599.58" gradientUnits="userSpaceOnUse">
<stop stop-color="#38E5FF"/>
<stop offset="1" stop-color="#00798D"/>
</linearGradient>
<linearGradient id="paint29_linear_6029_124844" x1="2181.37" y1="1747.04" x2="2193.57" y2="2011.82" gradientUnits="userSpaceOnUse">
<stop stop-color="#38E5FF"/>
<stop offset="1" stop-color="#00798D"/>
</linearGradient>
<linearGradient id="paint30_linear_6029_124844" x1="1197.38" y1="1639.17" x2="1217.33" y2="1886.47" gradientUnits="userSpaceOnUse">
<stop stop-color="#38E5FF"/>
<stop offset="1" stop-color="#00798D"/>
</linearGradient>
<linearGradient id="paint31_linear_6029_124844" x1="769.576" y1="1931.82" x2="1063.95" y2="1704.5" gradientUnits="userSpaceOnUse">
<stop stop-color="#38E5FF"/>
<stop offset="1" stop-color="#00798D"/>
</linearGradient>
<linearGradient id="paint32_linear_6029_124844" x1="1577.79" y1="1651.72" x2="1918.78" y2="1688.41" gradientUnits="userSpaceOnUse">
<stop stop-color="#38E5FF"/>
<stop offset="1" stop-color="#00798D"/>
</linearGradient>
<linearGradient id="paint33_linear_6029_124844" x1="1302.63" y1="1529.71" x2="1524.79" y2="1549.5" gradientUnits="userSpaceOnUse">
<stop stop-color="#38E5FF"/>
<stop offset="1" stop-color="#00798D"/>
</linearGradient>
<linearGradient id="paint34_linear_6029_124844" x1="638.617" y1="821.171" x2="657.654" y2="911.213" gradientUnits="userSpaceOnUse">
<stop stop-color="#D6D4DB"/>
<stop offset="1" stop-color="#857F93"/>
</linearGradient>
<linearGradient id="paint35_linear_6029_124844" x1="11.5592" y1="10.5884" x2="13.6473" y2="16.6226" gradientUnits="userSpaceOnUse">
<stop stop-color="#D6D4DB"/>
<stop offset="1" stop-color="#524A66"/>
</linearGradient>
<linearGradient id="paint36_linear_6029_124844" x1="577.905" y1="433.893" x2="583.273" y2="478.712" gradientUnits="userSpaceOnUse">
<stop stop-color="#D6D4DB"/>
<stop offset="1" stop-color="#857F93"/>
</linearGradient>
<linearGradient id="paint37_linear_6029_124844" x1="12.1416" y1="12.8908" x2="14.1618" y2="17.155" gradientUnits="userSpaceOnUse">
<stop stop-color="#D6D4DB"/>
<stop offset="1" stop-color="#D3D1D8"/>
</linearGradient>
<linearGradient id="paint38_linear_6029_124844" x1="119.966" y1="434.421" x2="137.798" y2="464.813" gradientUnits="userSpaceOnUse">
<stop stop-color="#D6D4DB"/>
<stop offset="1" stop-color="#524A66"/>
</linearGradient>
<linearGradient id="paint39_linear_6029_124844" x1="5084.88" y1="821.171" x2="5065.85" y2="911.213" gradientUnits="userSpaceOnUse">
<stop stop-color="#D6D4DB"/>
<stop offset="1" stop-color="#857F93"/>
</linearGradient>
<linearGradient id="paint40_linear_6029_124844" x1="5112.03" y1="602.196" x2="5105.5" y2="657.574" gradientUnits="userSpaceOnUse">
<stop stop-color="#D6D4DB"/>
<stop offset="1" stop-color="#524A66"/>
</linearGradient>
<linearGradient id="paint41_linear_6029_124844" x1="4644.99" y1="433.894" x2="4639.61" y2="478.735" gradientUnits="userSpaceOnUse">
<stop stop-color="#D6D4DB"/>
<stop offset="1" stop-color="#857F93"/>
</linearGradient>
<linearGradient id="paint42_linear_6029_124844" x1="4767.04" y1="477.341" x2="4762.74" y2="509.981" gradientUnits="userSpaceOnUse">
<stop stop-color="#D6D4DB"/>
<stop offset="1" stop-color="#D3D1D8"/>
</linearGradient>
<linearGradient id="paint43_linear_6029_124844" x1="539.715" y1="434.421" x2="521.883" y2="464.813" gradientUnits="userSpaceOnUse">
<stop stop-color="#D6D4DB"/>
<stop offset="1" stop-color="#524A66"/>
</linearGradient>
<linearGradient id="paint44_linear_6029_124844" x1="241.12" y1="343.961" x2="244.663" y2="334.885" gradientUnits="userSpaceOnUse">
<stop stop-color="#6D1009"/>
<stop offset="1" stop-color="#C72225"/>
</linearGradient>
<linearGradient id="paint45_linear_6029_124844" x1="244.162" y1="305.514" x2="246.192" y2="299.766" gradientUnits="userSpaceOnUse">
<stop stop-color="#6D1009"/>
<stop offset="1" stop-color="#C72225"/>
</linearGradient>
<linearGradient id="paint46_linear_6029_124844" x1="40.1284" y1="15.7715" x2="40.8665" y2="13.7323" gradientUnits="userSpaceOnUse">
<stop stop-color="#FF7009"/>
<stop offset="1" stop-color="#C7F425"/>
</linearGradient>
<linearGradient id="paint47_linear_6029_124844" x1="232.971" y1="277.492" x2="232.186" y2="285.27" gradientUnits="userSpaceOnUse">
<stop stop-color="#FF7009"/>
<stop offset="1" stop-color="#C7F425"/>
</linearGradient>
<linearGradient id="paint48_linear_6029_124844" x1="41.9532" y1="15.3918" x2="42.555" y2="13.3817" gradientUnits="userSpaceOnUse">
<stop stop-color="#1F88FF"/>
<stop offset="1" stop-color="#00CCFF"/>
</linearGradient>
<linearGradient id="paint49_linear_6029_124844" x1="289.004" y1="288.87" x2="290.38" y2="283.698" gradientUnits="userSpaceOnUse">
<stop stop-color="#1F88FF"/>
<stop offset="1" stop-color="#00CCFF"/>
</linearGradient>
<linearGradient id="paint50_linear_6029_124844" x1="183.142" y1="322.327" x2="180.029" y2="314.367" gradientUnits="userSpaceOnUse">
<stop stop-color="#6D1009"/>
<stop offset="1" stop-color="#C72225"/>
</linearGradient>
<linearGradient id="paint51_linear_6029_124844" x1="180.231" y1="283.901" x2="178.46" y2="278.853" gradientUnits="userSpaceOnUse">
<stop stop-color="#6D1009"/>
<stop offset="1" stop-color="#C72225"/>
</linearGradient>
<linearGradient id="paint52_linear_6029_124844" x1="177.92" y1="317.145" x2="175.12" y2="309.296" gradientUnits="userSpaceOnUse">
<stop stop-color="#FF7009"/>
<stop offset="1" stop-color="#C7F425"/>
</linearGradient>
<linearGradient id="paint53_linear_6029_124844" x1="167.546" y1="270.627" x2="168.222" y2="277.454" gradientUnits="userSpaceOnUse">
<stop stop-color="#FF7009"/>
<stop offset="1" stop-color="#C7F425"/>
</linearGradient>
<linearGradient id="paint54_linear_6029_124844" x1="159.789" y1="315.017" x2="157.585" y2="307.303" gradientUnits="userSpaceOnUse">
<stop stop-color="#1F88FF"/>
<stop offset="1" stop-color="#00CCFF"/>
</linearGradient>
<linearGradient id="paint55_linear_6029_124844" x1="160.332" y1="263.993" x2="159.253" y2="259.402" gradientUnits="userSpaceOnUse">
<stop stop-color="#1F88FF"/>
<stop offset="1" stop-color="#00CCFF"/>
</linearGradient>
<linearGradient id="paint56_linear_6029_124844" x1="142.966" y1="444.135" x2="166.081" y2="448.304" gradientUnits="userSpaceOnUse">
<stop stop-color="#D6D4DB"/>
<stop offset="1" stop-color="#857F93"/>
</linearGradient>
<linearGradient id="paint57_linear_6029_124844" x1="174.64" y1="579.361" x2="156.848" y2="599.483" gradientUnits="userSpaceOnUse">
<stop stop-color="#D6D4DB"/>
<stop offset="1" stop-color="#857F93"/>
</linearGradient>
<linearGradient id="paint58_linear_6029_124844" x1="142.972" y1="518.784" x2="129.118" y2="532.348" gradientUnits="userSpaceOnUse">
<stop stop-color="#D6D4DB"/>
<stop offset="1" stop-color="#857F93"/>
</linearGradient>
<linearGradient id="paint59_linear_6029_124844" x1="189.676" y1="567.657" x2="172.506" y2="588.61" gradientUnits="userSpaceOnUse">
<stop stop-color="#D6D4DB"/>
<stop offset="1" stop-color="#857F93"/>
</linearGradient>
<linearGradient id="paint60_linear_6029_124844" x1="147.919" y1="515.311" x2="134.159" y2="528.819" gradientUnits="userSpaceOnUse">
<stop stop-color="#D6D4DB"/>
<stop offset="1" stop-color="#857F93"/>
</linearGradient>
<linearGradient id="paint61_linear_6029_124844" x1="199.367" y1="570.733" x2="181.855" y2="592.301" gradientUnits="userSpaceOnUse">
<stop stop-color="#D6D4DB"/>
<stop offset="1" stop-color="#857F93"/>
</linearGradient>
<linearGradient id="paint62_linear_6029_124844" x1="159.811" y1="508.485" x2="146.189" y2="522.768" gradientUnits="userSpaceOnUse">
<stop stop-color="#D6D4DB"/>
<stop offset="1" stop-color="#857F93"/>
</linearGradient>
<linearGradient id="paint63_linear_6029_124844" x1="96.5845" y1="603.501" x2="114.376" y2="623.624" gradientUnits="userSpaceOnUse">
<stop stop-color="#D6D4DB"/>
<stop offset="1" stop-color="#857F93"/>
</linearGradient>
<linearGradient id="paint64_linear_6029_124844" x1="63.2681" y1="539.785" x2="77.1221" y2="553.349" gradientUnits="userSpaceOnUse">
<stop stop-color="#D6D4DB"/>
<stop offset="1" stop-color="#857F93"/>
</linearGradient>
<linearGradient id="paint65_linear_6029_124844" x1="102.014" y1="591.312" x2="119.194" y2="612.214" gradientUnits="userSpaceOnUse">
<stop stop-color="#D6D4DB"/>
<stop offset="1" stop-color="#857F93"/>
</linearGradient>
<linearGradient id="paint66_linear_6029_124844" x1="61.1865" y1="536.237" x2="74.9609" y2="549.777" gradientUnits="userSpaceOnUse">
<stop stop-color="#D6D4DB"/>
<stop offset="1" stop-color="#857F93"/>
</linearGradient>
<linearGradient id="paint67_linear_6029_124844" x1="101.386" y1="594.687" x2="118.898" y2="616.254" gradientUnits="userSpaceOnUse">
<stop stop-color="#D6D4DB"/>
<stop offset="1" stop-color="#857F93"/>
</linearGradient>
<linearGradient id="paint68_linear_6029_124844" x1="65.1198" y1="529.187" x2="78.7424" y2="543.47" gradientUnits="userSpaceOnUse">
<stop stop-color="#D6D4DB"/>
<stop offset="1" stop-color="#857F93"/>
</linearGradient>
<linearGradient id="paint69_linear_6029_124844" x1="1394.48" y1="822" x2="1611.45" y2="34.7524" gradientUnits="userSpaceOnUse">
<stop stop-color="#D6D4DB"/>
<stop offset="1" stop-color="#857F93"/>
</linearGradient>
<linearGradient id="paint70_linear_6029_124844" x1="445.547" y1="265.808" x2="451.898" y2="250.227" gradientUnits="userSpaceOnUse">
<stop stop-color="#D6D4DB"/>
<stop offset="1" stop-color="#857F93"/>
</linearGradient>
<linearGradient id="paint71_linear_6029_124844" x1="445.547" y1="209.749" x2="449.516" y2="197.054" gradientUnits="userSpaceOnUse">
<stop stop-color="#D6D4DB"/>
<stop offset="1" stop-color="#857F93"/>
</linearGradient>
<linearGradient id="paint72_linear_6029_124844" x1="245.104" y1="259.571" x2="265.107" y2="255.357" gradientUnits="userSpaceOnUse">
<stop stop-color="#D6D4DB"/>
<stop offset="1" stop-color="#857F93"/>
</linearGradient>
<linearGradient id="paint73_linear_6029_124844" x1="241.215" y1="205.601" x2="251.688" y2="192.43" gradientUnits="userSpaceOnUse">
<stop stop-color="#D6D4DB"/>
<stop offset="1" stop-color="#857F93"/>
</linearGradient>
<linearGradient id="paint74_linear_6029_124844" x1="2358.52" y1="1328.12" x2="2378.88" y2="1636.83" gradientUnits="userSpaceOnUse">
<stop stop-color="#FF84FF"/>
<stop offset="1" stop-color="#0007DB"/>
</linearGradient>
<linearGradient id="paint75_linear_6029_124844" x1="1022.08" y1="526.189" x2="1082.75" y2="409.245" gradientUnits="userSpaceOnUse">
<stop stop-color="#D6D4DB"/>
<stop offset="1" stop-color="#857F93"/>
</linearGradient>
<linearGradient id="paint76_linear_6029_124844" x1="1023.21" y1="491.003" x2="1077.24" y2="379.068" gradientUnits="userSpaceOnUse">
<stop stop-color="#D6D4DB"/>
<stop offset="1" stop-color="#857F93"/>
</linearGradient>
<linearGradient id="paint77_linear_6029_124844" x1="444.268" y1="429.295" x2="503.043" y2="371.442" gradientUnits="userSpaceOnUse">
<stop stop-color="#D6D4DB"/>
<stop offset="1" stop-color="#857F93"/>
</linearGradient>
<linearGradient id="paint78_linear_6029_124844" x1="540.645" y1="301.912" x2="563.498" y2="263.021" gradientUnits="userSpaceOnUse">
<stop stop-color="#D6D4DB"/>
<stop offset="1" stop-color="#857F93"/>
</linearGradient>
<linearGradient id="paint79_linear_6029_124844" x1="25.2504" y1="0.861498" x2="28.6699" y2="4.52542" gradientUnits="userSpaceOnUse">
<stop stop-color="#D6D4DB"/>
<stop offset="1" stop-color="#58506B"/>
</linearGradient>
<linearGradient id="paint80_linear_6029_124844" x1="1150.3" y1="199.849" x2="1150.17" y2="220.829" gradientUnits="userSpaceOnUse">
<stop stop-color="#D6D4DB"/>
<stop offset="1" stop-color="#58506B"/>
</linearGradient>
</defs>
</svg>
