<svg width="24" height="24" viewBox="0 0 24 24" fill="none" xmlns="http://www.w3.org/2000/svg">
<g id="Group 2087324014">
<g id="Rectangle 34625640" filter="url(#filter0_i_5871_138644)">
<rect width="24" height="24" rx="4" fill="#C4C4C4" fill-opacity="0.1"/>
</g>
<path id="Vector" d="M11.965 16.2C12.21 16.2 12.4172 16.1153 12.5866 15.9459C12.756 15.7765 12.8405 15.5695 12.84 15.325C12.84 15.08 12.7555 14.8728 12.5866 14.7034C12.4177 14.534 12.2105 14.4495 11.965 14.45C11.72 14.45 11.513 14.5347 11.3441 14.7041C11.1752 14.8735 11.0905 15.0805 11.09 15.325C11.09 15.57 11.1747 15.7772 11.3441 15.9466C11.5135 16.116 11.7205 16.2005 11.965 16.2ZM11.335 13.505H12.63C12.63 13.12 12.6739 12.8167 12.7616 12.595C12.8493 12.3733 13.0971 12.07 13.505 11.685C13.8083 11.3817 14.0475 11.0928 14.2225 10.8184C14.3975 10.544 14.485 10.2145 14.485 9.83C14.485 9.17667 14.2458 8.675 13.7675 8.325C13.2892 7.975 12.7233 7.8 12.07 7.8C11.405 7.8 10.8655 7.975 10.4516 8.325C10.0377 8.675 9.7488 9.095 9.585 9.585L10.74 10.04C10.7983 9.83 10.9297 9.6025 11.1341 9.3575C11.3385 9.1125 11.6505 8.99 12.07 8.99C12.4433 8.99 12.7233 9.0922 12.91 9.2966C13.0967 9.501 13.19 9.72547 13.19 9.97C13.19 10.2033 13.12 10.4222 12.98 10.6266C12.84 10.831 12.665 11.0205 12.455 11.195C11.9417 11.65 11.6267 11.9942 11.51 12.2275C11.3933 12.4608 11.335 12.8867 11.335 13.505ZM12 19C11.0317 19 10.1217 18.8164 9.27 18.4491C8.41833 18.0818 7.6775 17.583 7.0475 16.9525C6.4175 16.3225 5.91887 15.5817 5.5516 14.73C5.18433 13.8783 5.00047 12.9683 5 12C5 11.0317 5.18387 10.1217 5.5516 9.27C5.91933 8.41833 6.41797 7.6775 7.0475 7.0475C7.6775 6.4175 8.41833 5.91887 9.27 5.5516C10.1217 5.18433 11.0317 5.00047 12 5C12.9683 5 13.8783 5.18387 14.73 5.5516C15.5817 5.91933 16.3225 6.41797 16.9525 7.0475C17.5825 7.6775 18.0814 8.41833 18.4491 9.27C18.8168 10.1217 19.0005 11.0317 19 12C19 12.9683 18.8161 13.8783 18.4484 14.73C18.0807 15.5817 17.582 16.3225 16.9525 16.9525C16.3225 17.5825 15.5817 18.0814 14.73 18.4491C13.8783 18.8168 12.9683 19.0005 12 19Z" fill="#EEEEEE"/>
</g>
<defs>
<filter id="filter0_i_5871_138644" x="0" y="0" width="24" height="28" filterUnits="userSpaceOnUse" color-interpolation-filters="sRGB">
<feFlood flood-opacity="0" result="BackgroundImageFix"/>
<feBlend mode="normal" in="SourceGraphic" in2="BackgroundImageFix" result="shape"/>
<feColorMatrix in="SourceAlpha" type="matrix" values="0 0 0 0 0 0 0 0 0 0 0 0 0 0 0 0 0 0 127 0" result="hardAlpha"/>
<feOffset dy="4"/>
<feGaussianBlur stdDeviation="2"/>
<feComposite in2="hardAlpha" operator="arithmetic" k2="-1" k3="1"/>
<feColorMatrix type="matrix" values="0 0 0 0 1 0 0 0 0 1 0 0 0 0 1 0 0 0 0.25 0"/>
<feBlend mode="normal" in2="shape" result="effect1_innerShadow_5871_138644"/>
</filter>
</defs>
</svg>
