<svg width="13" height="12" viewBox="0 0 13 12" fill="none" xmlns="http://www.w3.org/2000/svg">
<g id="&#230;&#136;&#145;&#232;&#135;&#170;&#229;&#183;&#177;">
<path id="Vector 6964" d="M2.61765 1C1.70055 1 1.2235 1.82038 1.05156 2.37106C1.01111 2.50064 1 2.63662 1 2.77237V3.62278C1 4.5624 1.33134 5.47123 1.92869 6.19652C3.3889 7.96947 5.29259 10.3318 5.52941 10.7229C5.89503 11.3267 6.38491 11.2857 6.73701 11.1394C6.9195 11.0635 7.0648 10.9232 7.19229 10.7722L11.0565 6.195C11.6658 5.47327 12 4.55928 12 3.61475V2.56821C12 1.71996 11.3837 1.26004 10.9325 1.07483C10.7857 1.01457 10.6262 1 10.4675 1H2.61765Z" fill="white" stroke="black"/>
<path id="Vector 6965" d="M11.5 3.99999C6.3 1.99999 4.5 3 1.5 4V3C1.5 1.8 2.16667 1.5 2.5 1.5H10.5C11.7 1.5 11.6667 3.16666 11.5 3.99999Z" fill="#D9D9D9"/>
</g>
</svg>
