<svg width="257" height="47" viewBox="0 0 257 47" fill="none" xmlns="http://www.w3.org/2000/svg">
<g id="Round START">
<mask id="path-1-outside-1_5873_145344" maskUnits="userSpaceOnUse" x="-1" y="-1" width="259" height="49" fill="black">
<rect fill="white" x="-1" y="-1" width="259" height="49"/>
<path d="M0.624 1.2H11.056C14.6827 1.2 17.328 2.05333 18.992 3.76C20.656 5.424 21.488 8.00533 21.488 11.504V14.256C21.488 18.9067 19.952 21.8507 16.88 23.088V23.216C18.5867 23.728 19.7813 24.7733 20.464 26.352C21.1893 27.9307 21.552 30.0427 21.552 32.688V40.56C21.552 41.84 21.5947 42.8853 21.68 43.696C21.7653 44.464 21.9787 45.232 22.32 46H15.152C14.896 45.2747 14.7253 44.592 14.64 43.952C14.5547 43.312 14.512 42.16 14.512 40.496V32.304C14.512 30.256 14.1707 28.8267 13.488 28.016C12.848 27.2053 11.7173 26.8 10.096 26.8H7.664V46H0.624V1.2ZM10.224 20.4C11.632 20.4 12.6773 20.0373 13.36 19.312C14.0853 18.5867 14.448 17.3707 14.448 15.664V12.208C14.448 10.5867 14.1493 9.41333 13.552 8.688C12.9973 7.96267 12.1013 7.6 10.864 7.6H7.664V20.4H10.224ZM36.6125 46.64C33.1565 46.64 30.5112 45.6587 28.6765 43.696C26.8418 41.7333 25.9245 38.96 25.9245 35.376V11.824C25.9245 8.24 26.8418 5.46666 28.6765 3.504C30.5112 1.54133 33.1565 0.559998 36.6125 0.559998C40.0685 0.559998 42.7138 1.54133 44.5485 3.504C46.3832 5.46666 47.3005 8.24 47.3005 11.824V35.376C47.3005 38.96 46.3832 41.7333 44.5485 43.696C42.7138 45.6587 40.0685 46.64 36.6125 46.64ZM36.6125 40.24C39.0445 40.24 40.2605 38.768 40.2605 35.824V11.376C40.2605 8.432 39.0445 6.96 36.6125 6.96C34.1805 6.96 32.9645 8.432 32.9645 11.376V35.824C32.9645 38.768 34.1805 40.24 36.6125 40.24ZM62.3015 46.64C58.8882 46.64 56.2855 45.68 54.4935 43.76C52.7015 41.7973 51.8055 39.0027 51.8055 35.376V1.2H58.8455V35.888C58.8455 37.424 59.1442 38.5333 59.7415 39.216C60.3815 39.8987 61.2775 40.24 62.4295 40.24C63.5815 40.24 64.4562 39.8987 65.0535 39.216C65.6935 38.5333 66.0135 37.424 66.0135 35.888V1.2H72.7975V35.376C72.7975 39.0027 71.9015 41.7973 70.1095 43.76C68.3175 45.68 65.7148 46.64 62.3015 46.64ZM77.8115 1.2H86.6435L93.4915 28.016H93.6195V1.2H99.8915V46H92.6595L84.2115 13.296H84.0835V46H77.8115V1.2ZM105.124 1.2H115.876C119.375 1.2 121.999 2.13866 123.748 4.016C125.497 5.89333 126.372 8.64533 126.372 12.272V34.928C126.372 38.5547 125.497 41.3067 123.748 43.184C121.999 45.0613 119.375 46 115.876 46H105.124V1.2ZM115.748 39.6C116.9 39.6 117.775 39.2587 118.372 38.576C119.012 37.8933 119.332 36.784 119.332 35.248V11.952C119.332 10.416 119.012 9.30666 118.372 8.624C117.775 7.94133 116.9 7.6 115.748 7.6H112.164V39.6H115.748ZM150.526 46.64C147.113 46.64 144.531 45.68 142.782 43.76C141.033 41.7973 140.158 39.0027 140.158 35.376V32.816H146.814V35.888C146.814 38.7893 148.03 40.24 150.462 40.24C151.657 40.24 152.553 39.8987 153.15 39.216C153.79 38.4907 154.11 37.3387 154.11 35.76C154.11 33.8827 153.683 32.24 152.83 30.832C151.977 29.3813 150.398 27.6533 148.094 25.648C145.193 23.088 143.166 20.784 142.014 18.736C140.862 16.6453 140.286 14.2987 140.286 11.696C140.286 8.15467 141.182 5.424 142.974 3.504C144.766 1.54133 147.369 0.559998 150.782 0.559998C154.153 0.559998 156.691 1.54133 158.398 3.504C160.147 5.424 161.022 8.19733 161.022 11.824V13.68H154.366V11.376C154.366 9.84 154.067 8.73066 153.47 8.048C152.873 7.32266 151.998 6.96 150.846 6.96C148.499 6.96 147.326 8.38933 147.326 11.248C147.326 12.8693 147.753 14.384 148.606 15.792C149.502 17.2 151.102 18.9067 153.406 20.912C156.35 23.472 158.377 25.7973 159.486 27.888C160.595 29.9787 161.15 32.432 161.15 35.248C161.15 38.9173 160.233 41.7333 158.398 43.696C156.606 45.6587 153.982 46.64 150.526 46.64ZM170.691 7.6H163.331V1.2H185.091V7.6H177.731V46H170.691V7.6ZM191.002 1.2H200.538L207.834 46H200.794L199.514 37.104V37.232H191.514L190.234 46H183.706L191.002 1.2ZM198.682 31.152L195.546 9.008H195.418L192.345 31.152H198.682ZM211.249 1.2H221.681C225.308 1.2 227.953 2.05333 229.617 3.76C231.281 5.424 232.113 8.00533 232.113 11.504V14.256C232.113 18.9067 230.577 21.8507 227.505 23.088V23.216C229.212 23.728 230.406 24.7733 231.089 26.352C231.814 27.9307 232.177 30.0427 232.177 32.688V40.56C232.177 41.84 232.22 42.8853 232.305 43.696C232.39 44.464 232.604 45.232 232.945 46H225.777C225.521 45.2747 225.35 44.592 225.265 43.952C225.18 43.312 225.137 42.16 225.137 40.496V32.304C225.137 30.256 224.796 28.8267 224.113 28.016C223.473 27.2053 222.342 26.8 220.721 26.8H218.289V46H211.249V1.2ZM220.849 20.4C222.257 20.4 223.302 20.0373 223.985 19.312C224.71 18.5867 225.073 17.3707 225.073 15.664V12.208C225.073 10.5867 224.774 9.41333 224.177 8.688C223.622 7.96267 222.726 7.6 221.489 7.6H218.289V20.4H220.849ZM242.441 7.6H235.081V1.2H256.841V7.6H249.481V46H242.441V7.6Z"/>
</mask>
<path d="M0.624 1.2H11.056C14.6827 1.2 17.328 2.05333 18.992 3.76C20.656 5.424 21.488 8.00533 21.488 11.504V14.256C21.488 18.9067 19.952 21.8507 16.88 23.088V23.216C18.5867 23.728 19.7813 24.7733 20.464 26.352C21.1893 27.9307 21.552 30.0427 21.552 32.688V40.56C21.552 41.84 21.5947 42.8853 21.68 43.696C21.7653 44.464 21.9787 45.232 22.32 46H15.152C14.896 45.2747 14.7253 44.592 14.64 43.952C14.5547 43.312 14.512 42.16 14.512 40.496V32.304C14.512 30.256 14.1707 28.8267 13.488 28.016C12.848 27.2053 11.7173 26.8 10.096 26.8H7.664V46H0.624V1.2ZM10.224 20.4C11.632 20.4 12.6773 20.0373 13.36 19.312C14.0853 18.5867 14.448 17.3707 14.448 15.664V12.208C14.448 10.5867 14.1493 9.41333 13.552 8.688C12.9973 7.96267 12.1013 7.6 10.864 7.6H7.664V20.4H10.224ZM36.6125 46.64C33.1565 46.64 30.5112 45.6587 28.6765 43.696C26.8418 41.7333 25.9245 38.96 25.9245 35.376V11.824C25.9245 8.24 26.8418 5.46666 28.6765 3.504C30.5112 1.54133 33.1565 0.559998 36.6125 0.559998C40.0685 0.559998 42.7138 1.54133 44.5485 3.504C46.3832 5.46666 47.3005 8.24 47.3005 11.824V35.376C47.3005 38.96 46.3832 41.7333 44.5485 43.696C42.7138 45.6587 40.0685 46.64 36.6125 46.64ZM36.6125 40.24C39.0445 40.24 40.2605 38.768 40.2605 35.824V11.376C40.2605 8.432 39.0445 6.96 36.6125 6.96C34.1805 6.96 32.9645 8.432 32.9645 11.376V35.824C32.9645 38.768 34.1805 40.24 36.6125 40.24ZM62.3015 46.64C58.8882 46.64 56.2855 45.68 54.4935 43.76C52.7015 41.7973 51.8055 39.0027 51.8055 35.376V1.2H58.8455V35.888C58.8455 37.424 59.1442 38.5333 59.7415 39.216C60.3815 39.8987 61.2775 40.24 62.4295 40.24C63.5815 40.24 64.4562 39.8987 65.0535 39.216C65.6935 38.5333 66.0135 37.424 66.0135 35.888V1.2H72.7975V35.376C72.7975 39.0027 71.9015 41.7973 70.1095 43.76C68.3175 45.68 65.7148 46.64 62.3015 46.64ZM77.8115 1.2H86.6435L93.4915 28.016H93.6195V1.2H99.8915V46H92.6595L84.2115 13.296H84.0835V46H77.8115V1.2ZM105.124 1.2H115.876C119.375 1.2 121.999 2.13866 123.748 4.016C125.497 5.89333 126.372 8.64533 126.372 12.272V34.928C126.372 38.5547 125.497 41.3067 123.748 43.184C121.999 45.0613 119.375 46 115.876 46H105.124V1.2ZM115.748 39.6C116.9 39.6 117.775 39.2587 118.372 38.576C119.012 37.8933 119.332 36.784 119.332 35.248V11.952C119.332 10.416 119.012 9.30666 118.372 8.624C117.775 7.94133 116.9 7.6 115.748 7.6H112.164V39.6H115.748ZM150.526 46.64C147.113 46.64 144.531 45.68 142.782 43.76C141.033 41.7973 140.158 39.0027 140.158 35.376V32.816H146.814V35.888C146.814 38.7893 148.03 40.24 150.462 40.24C151.657 40.24 152.553 39.8987 153.15 39.216C153.79 38.4907 154.11 37.3387 154.11 35.76C154.11 33.8827 153.683 32.24 152.83 30.832C151.977 29.3813 150.398 27.6533 148.094 25.648C145.193 23.088 143.166 20.784 142.014 18.736C140.862 16.6453 140.286 14.2987 140.286 11.696C140.286 8.15467 141.182 5.424 142.974 3.504C144.766 1.54133 147.369 0.559998 150.782 0.559998C154.153 0.559998 156.691 1.54133 158.398 3.504C160.147 5.424 161.022 8.19733 161.022 11.824V13.68H154.366V11.376C154.366 9.84 154.067 8.73066 153.47 8.048C152.873 7.32266 151.998 6.96 150.846 6.96C148.499 6.96 147.326 8.38933 147.326 11.248C147.326 12.8693 147.753 14.384 148.606 15.792C149.502 17.2 151.102 18.9067 153.406 20.912C156.35 23.472 158.377 25.7973 159.486 27.888C160.595 29.9787 161.15 32.432 161.15 35.248C161.15 38.9173 160.233 41.7333 158.398 43.696C156.606 45.6587 153.982 46.64 150.526 46.64ZM170.691 7.6H163.331V1.2H185.091V7.6H177.731V46H170.691V7.6ZM191.002 1.2H200.538L207.834 46H200.794L199.514 37.104V37.232H191.514L190.234 46H183.706L191.002 1.2ZM198.682 31.152L195.546 9.008H195.418L192.345 31.152H198.682ZM211.249 1.2H221.681C225.308 1.2 227.953 2.05333 229.617 3.76C231.281 5.424 232.113 8.00533 232.113 11.504V14.256C232.113 18.9067 230.577 21.8507 227.505 23.088V23.216C229.212 23.728 230.406 24.7733 231.089 26.352C231.814 27.9307 232.177 30.0427 232.177 32.688V40.56C232.177 41.84 232.22 42.8853 232.305 43.696C232.39 44.464 232.604 45.232 232.945 46H225.777C225.521 45.2747 225.35 44.592 225.265 43.952C225.18 43.312 225.137 42.16 225.137 40.496V32.304C225.137 30.256 224.796 28.8267 224.113 28.016C223.473 27.2053 222.342 26.8 220.721 26.8H218.289V46H211.249V1.2ZM220.849 20.4C222.257 20.4 223.302 20.0373 223.985 19.312C224.71 18.5867 225.073 17.3707 225.073 15.664V12.208C225.073 10.5867 224.774 9.41333 224.177 8.688C223.622 7.96267 222.726 7.6 221.489 7.6H218.289V20.4H220.849ZM242.441 7.6H235.081V1.2H256.841V7.6H249.481V46H242.441V7.6Z" fill="url(#paint0_linear_5873_145344)"/>
<path d="M0.624 1.2V0.199997H-0.376V1.2H0.624ZM18.992 3.76L18.2759 4.45815L18.2849 4.46711L18.992 3.76ZM16.88 23.088L16.5064 22.1604L15.88 22.4127V23.088H16.88ZM16.88 23.216H15.88V23.96L16.5927 24.1738L16.88 23.216ZM20.464 26.352L19.5461 26.7489L19.5506 26.7593L19.5553 26.7695L20.464 26.352ZM21.68 43.696L20.6855 43.8007L20.6861 43.8064L21.68 43.696ZM22.32 46V47H23.8588L23.2338 45.5939L22.32 46ZM15.152 46L14.209 46.3328L14.4445 47H15.152V46ZM13.488 28.016L12.7031 28.6356L12.7129 28.648L12.7231 28.6601L13.488 28.016ZM7.664 26.8V25.8H6.664V26.8H7.664ZM7.664 46V47H8.664V46H7.664ZM0.624 46H-0.376V47H0.624V46ZM13.36 19.312L12.6529 18.6049L12.6422 18.6156L12.6318 18.6266L13.36 19.312ZM13.552 8.688L12.7576 9.29545L12.7686 9.30978L12.7801 9.32371L13.552 8.688ZM7.664 7.6V6.6H6.664V7.6H7.664ZM7.664 20.4H6.664V21.4H7.664V20.4ZM0.624 2.2H11.056V0.199997H0.624V2.2ZM11.056 2.2C14.5517 2.2 16.8789 3.02519 18.276 4.4581L19.708 3.0619C17.7771 1.08147 14.8136 0.199997 11.056 0.199997V2.2ZM18.2849 4.46711C19.6869 5.86916 20.488 8.14253 20.488 11.504H22.488C22.488 7.86813 21.6251 4.97884 19.6991 3.05289L18.2849 4.46711ZM20.488 11.504V14.256H22.488V11.504H20.488ZM20.488 14.256C20.488 16.4811 20.1191 18.2058 19.4494 19.4894C18.7913 20.7509 17.8208 21.631 16.5064 22.1604L17.2536 24.0156C19.0112 23.3077 20.3447 22.0971 21.2226 20.4146C22.0889 18.7542 22.488 16.6816 22.488 14.256H20.488ZM15.88 23.088V23.216H17.88V23.088H15.88ZM16.5927 24.1738C18.0284 24.6045 18.9854 25.4521 19.5461 26.7489L21.3819 25.9551C20.5773 24.0946 19.145 22.8515 17.1673 22.2582L16.5927 24.1738ZM19.5553 26.7695C20.1974 28.1669 20.552 30.1186 20.552 32.688H22.552C22.552 29.9667 22.1813 27.6945 21.3727 25.9345L19.5553 26.7695ZM20.552 32.688V40.56H22.552V32.688H20.552ZM20.552 40.56C20.552 41.8577 20.5951 42.9415 20.6855 43.8007L22.6745 43.5913C22.5943 42.8292 22.552 41.8223 22.552 40.56H20.552ZM20.6861 43.8064C20.7837 44.6851 21.0268 45.5525 21.4062 46.4061L23.2338 45.5939C22.9306 44.9115 22.7469 44.2429 22.6739 43.5856L20.6861 43.8064ZM22.32 45H15.152V47H22.32V45ZM16.095 45.6672C15.8577 44.9949 15.7059 44.38 15.6312 43.8198L13.6488 44.0842C13.7448 44.804 13.9343 45.5544 14.209 46.3328L16.095 45.6672ZM15.6312 43.8198C15.5558 43.2539 15.512 42.1635 15.512 40.496H13.512C13.512 42.1565 13.5536 43.3701 13.6488 44.0842L15.6312 43.8198ZM15.512 40.496V32.304H13.512V40.496H15.512ZM15.512 32.304C15.512 30.2098 15.1761 28.4681 14.2529 27.3719L12.7231 28.6601C13.1652 29.1852 13.512 30.3022 13.512 32.304H15.512ZM14.2729 27.3964C13.356 26.235 11.8476 25.8 10.096 25.8V27.8C11.5871 27.8 12.34 28.1757 12.7031 28.6356L14.2729 27.3964ZM10.096 25.8H7.664V27.8H10.096V25.8ZM6.664 26.8V46H8.664V26.8H6.664ZM7.664 45H0.624V47H7.664V45ZM1.624 46V1.2H-0.376V46H1.624ZM10.224 21.4C11.7913 21.4 13.1493 20.9949 14.0882 19.9974L12.6318 18.6266C12.2053 19.0798 11.4727 19.4 10.224 19.4V21.4ZM14.0671 20.0191C15.0717 19.0145 15.448 17.4693 15.448 15.664H13.448C13.448 17.272 13.0989 18.1589 12.6529 18.6049L14.0671 20.0191ZM15.448 15.664V12.208H13.448V15.664H15.448ZM15.448 12.208C15.448 10.5073 15.1429 9.04681 14.3239 8.05229L12.7801 9.32371C13.1557 9.77985 13.448 10.6661 13.448 12.208H15.448ZM14.3464 8.08055C13.5404 7.02662 12.294 6.6 10.864 6.6V8.6C11.9087 8.6 12.4543 8.89871 12.7576 9.29545L14.3464 8.08055ZM10.864 6.6H7.664V8.6H10.864V6.6ZM6.664 7.6V20.4H8.664V7.6H6.664ZM7.664 21.4H10.224V19.4H7.664V21.4ZM28.6765 43.696L29.407 43.0131L29.407 43.0131L28.6765 43.696ZM28.6765 3.504L29.407 4.18688L29.407 4.18688L28.6765 3.504ZM44.5485 3.504L43.818 4.18688L43.818 4.18688L44.5485 3.504ZM44.5485 43.696L43.818 43.0131L43.818 43.0131L44.5485 43.696ZM36.6125 45.64C33.3496 45.64 31.0021 44.7195 29.407 43.0131L27.946 44.3789C30.0203 46.5979 32.9634 47.64 36.6125 47.64V45.64ZM29.407 43.0131C27.7968 41.2905 26.9245 38.793 26.9245 35.376H24.9245C24.9245 39.127 25.8869 42.1762 27.946 44.3789L29.407 43.0131ZM26.9245 35.376V11.824H24.9245V35.376H26.9245ZM26.9245 11.824C26.9245 8.40696 27.7968 5.9095 29.407 4.18688L27.946 2.82111C25.8869 5.02383 24.9245 8.07303 24.9245 11.824H26.9245ZM29.407 4.18688C31.0021 2.48055 33.3496 1.56 36.6125 1.56V-0.440002C32.9634 -0.440002 30.0203 0.602116 27.946 2.82111L29.407 4.18688ZM36.6125 1.56C39.8754 1.56 42.2229 2.48055 43.818 4.18688L45.279 2.82111C43.2047 0.602116 40.2616 -0.440002 36.6125 -0.440002V1.56ZM43.818 4.18688C45.4282 5.9095 46.3005 8.40696 46.3005 11.824H48.3005C48.3005 8.07303 47.3381 5.02383 45.279 2.82111L43.818 4.18688ZM46.3005 11.824V35.376H48.3005V11.824H46.3005ZM46.3005 35.376C46.3005 38.793 45.4282 41.2905 43.818 43.0131L45.279 44.3789C47.3381 42.1762 48.3005 39.127 48.3005 35.376H46.3005ZM43.818 43.0131C42.2229 44.7195 39.8754 45.64 36.6125 45.64V47.64C40.2616 47.64 43.2047 46.5979 45.279 44.3789L43.818 43.0131ZM36.6125 41.24C38.0383 41.24 39.2715 40.7993 40.1195 39.7729C40.9372 38.783 41.2605 37.4086 41.2605 35.824H39.2605C39.2605 37.1834 38.9758 38.017 38.5775 38.4991C38.2095 38.9447 37.6187 39.24 36.6125 39.24V41.24ZM41.2605 35.824V11.376H39.2605V35.824H41.2605ZM41.2605 11.376C41.2605 9.79138 40.9372 8.41696 40.1195 7.42712C39.2715 6.40069 38.0383 5.96 36.6125 5.96V7.96C37.6187 7.96 38.2095 8.25531 38.5775 8.70088C38.9758 9.18304 39.2605 10.0166 39.2605 11.376H41.2605ZM36.6125 5.96C35.1867 5.96 33.9535 6.40069 33.1055 7.42712C32.2878 8.41696 31.9645 9.79138 31.9645 11.376H33.9645C33.9645 10.0166 34.2492 9.18304 34.6475 8.70088C35.0155 8.25531 35.6063 7.96 36.6125 7.96V5.96ZM31.9645 11.376V35.824H33.9645V11.376H31.9645ZM31.9645 35.824C31.9645 37.4086 32.2878 38.783 33.1055 39.7729C33.9535 40.7993 35.1867 41.24 36.6125 41.24V39.24C35.6063 39.24 35.0155 38.9447 34.6475 38.4991C34.2492 38.017 33.9645 37.1834 33.9645 35.824H31.9645ZM54.4935 43.76L53.755 44.4343L53.7624 44.4423L54.4935 43.76ZM51.8055 1.2V0.199997H50.8055V1.2H51.8055ZM58.8455 1.2H59.8455V0.199997H58.8455V1.2ZM59.7415 39.216L58.9889 39.8745L59.0002 39.8874L59.012 39.8999L59.7415 39.216ZM65.0535 39.216L64.324 38.5321L64.3122 38.5446L64.3009 38.5575L65.0535 39.216ZM66.0135 1.2V0.199997H65.0135V1.2H66.0135ZM72.7975 1.2H73.7975V0.199997H72.7975V1.2ZM70.1095 43.76L70.8406 44.4424L70.848 44.4343L70.1095 43.76ZM62.3015 45.64C59.0778 45.64 56.775 44.7389 55.2246 43.0777L53.7624 44.4423C55.796 46.6211 58.6985 47.64 62.3015 47.64V45.64ZM55.232 43.0857C53.6614 41.3655 52.8055 38.8451 52.8055 35.376H50.8055C50.8055 39.1602 51.7416 42.2292 53.755 44.4343L55.232 43.0857ZM52.8055 35.376V1.2H50.8055V35.376H52.8055ZM51.8055 2.2H58.8455V0.199997H51.8055V2.2ZM57.8455 1.2V35.888H59.8455V1.2H57.8455ZM57.8455 35.888C57.8455 37.5115 58.1534 38.9196 58.9889 39.8745L60.4941 38.5575C60.1349 38.1471 59.8455 37.3365 59.8455 35.888H57.8455ZM59.012 39.8999C59.8833 40.8293 61.0696 41.24 62.4295 41.24V39.24C61.4854 39.24 60.8797 38.968 60.471 38.5321L59.012 39.8999ZM62.4295 41.24C63.7863 41.24 64.97 40.83 65.8061 39.8745L64.3009 38.5575C63.9423 38.9673 63.3767 39.24 62.4295 39.24V41.24ZM65.783 39.8999C66.6792 38.9441 67.0135 37.5244 67.0135 35.888H65.0135C65.0135 37.3236 64.7078 38.1226 64.324 38.5321L65.783 39.8999ZM67.0135 35.888V1.2H65.0135V35.888H67.0135ZM66.0135 2.2H72.7975V0.199997H66.0135V2.2ZM71.7975 1.2V35.376H73.7975V1.2H71.7975ZM71.7975 35.376C71.7975 38.8451 70.9416 41.3655 69.371 43.0857L70.848 44.4343C72.8614 42.2292 73.7975 39.1602 73.7975 35.376H71.7975ZM69.3784 43.0777C67.828 44.7389 65.5252 45.64 62.3015 45.64V47.64C65.9045 47.64 68.807 46.6211 70.8406 44.4423L69.3784 43.0777ZM77.8115 1.2V0.199997H76.8115V1.2H77.8115ZM86.6435 1.2L87.6124 0.952568L87.4202 0.199997H86.6435V1.2ZM93.4915 28.016L92.5226 28.2634L92.7148 29.016H93.4915V28.016ZM93.6195 28.016V29.016H94.6195V28.016H93.6195ZM93.6195 1.2V0.199997H92.6195V1.2H93.6195ZM99.8915 1.2H100.892V0.199997H99.8915V1.2ZM99.8915 46V47H100.892V46H99.8915ZM92.6595 46L91.6913 46.2501L91.885 47H92.6595V46ZM84.2115 13.296L85.1797 13.0459L84.986 12.296H84.2115V13.296ZM84.0835 13.296V12.296H83.0835V13.296H84.0835ZM84.0835 46V47H85.0835V46H84.0835ZM77.8115 46H76.8115V47H77.8115V46ZM77.8115 2.2H86.6435V0.199997H77.8115V2.2ZM85.6746 1.44743L92.5226 28.2634L94.4604 27.7686L87.6124 0.952568L85.6746 1.44743ZM93.4915 29.016H93.6195V27.016H93.4915V29.016ZM94.6195 28.016V1.2H92.6195V28.016H94.6195ZM93.6195 2.2H99.8915V0.199997H93.6195V2.2ZM98.8915 1.2V46H100.892V1.2H98.8915ZM99.8915 45H92.6595V47H99.8915V45ZM93.6277 45.7499L85.1797 13.0459L83.2433 13.5461L91.6913 46.2501L93.6277 45.7499ZM84.2115 12.296H84.0835V14.296H84.2115V12.296ZM83.0835 13.296V46H85.0835V13.296H83.0835ZM84.0835 45H77.8115V47H84.0835V45ZM78.8115 46V1.2H76.8115V46H78.8115ZM105.124 1.2V0.199997H104.124V1.2H105.124ZM123.748 4.016L123.016 4.69772L123.016 4.69772L123.748 4.016ZM123.748 43.184L123.016 42.5023L123.748 43.184ZM105.124 46H104.124V47H105.124V46ZM118.372 38.576L117.642 37.8921L117.631 37.9046L117.619 37.9175L118.372 38.576ZM118.372 8.624L117.619 9.2825L117.631 9.29542L117.642 9.30794L118.372 8.624ZM112.164 7.6V6.6H111.164V7.6H112.164ZM112.164 39.6H111.164V40.6H112.164V39.6ZM105.124 2.2H115.876V0.199997H105.124V2.2ZM115.876 2.2C119.202 2.2 121.517 3.08894 123.016 4.69772L124.48 3.33427C122.48 1.18839 119.548 0.199997 115.876 0.199997V2.2ZM123.016 4.69772C124.533 6.32545 125.372 8.7937 125.372 12.272H127.372C127.372 8.49697 126.462 5.46121 124.48 3.33427L123.016 4.69772ZM125.372 12.272V34.928H127.372V12.272H125.372ZM125.372 34.928C125.372 38.4063 124.533 40.8745 123.016 42.5023L124.48 43.8657C126.462 41.7388 127.372 38.703 127.372 34.928H125.372ZM123.016 42.5023C121.517 44.1111 119.202 45 115.876 45V47C119.548 47 122.48 46.0116 124.48 43.8657L123.016 42.5023ZM115.876 45H105.124V47H115.876V45ZM106.124 46V1.2H104.124V46H106.124ZM115.748 40.6C117.105 40.6 118.288 40.19 119.125 39.2345L117.619 37.9175C117.261 38.3273 116.695 38.6 115.748 38.6V40.6ZM119.102 39.2599C119.998 38.3041 120.332 36.8844 120.332 35.248H118.332C118.332 36.6836 118.026 37.4826 117.642 37.8921L119.102 39.2599ZM120.332 35.248V11.952H118.332V35.248H120.332ZM120.332 11.952C120.332 10.3156 119.998 8.89595 119.102 7.94006L117.642 9.30794C118.026 9.71738 118.332 10.5164 118.332 11.952H120.332ZM119.125 7.96549C118.288 7.00996 117.105 6.6 115.748 6.6V8.6C116.695 8.6 117.261 8.8727 117.619 9.2825L119.125 7.96549ZM115.748 6.6H112.164V8.6H115.748V6.6ZM111.164 7.6V39.6H113.164V7.6H111.164ZM112.164 40.6H115.748V38.6H112.164V40.6ZM142.782 43.76L142.035 44.4254L142.043 44.4335L142.782 43.76ZM140.158 32.816V31.816H139.158V32.816H140.158ZM146.814 32.816H147.814V31.816H146.814V32.816ZM153.15 39.216L152.4 38.5544L152.397 38.5575L153.15 39.216ZM152.83 30.832L151.968 31.3391L151.975 31.3503L152.83 30.832ZM148.094 25.648L147.432 26.3979L147.437 26.4023L148.094 25.648ZM142.014 18.736L141.138 19.2186L141.142 19.2263L142.014 18.736ZM142.974 3.504L143.705 4.18636L143.712 4.17827L142.974 3.504ZM158.398 3.504L157.643 4.16018L157.651 4.16892L157.659 4.17749L158.398 3.504ZM161.022 13.68V14.68H162.022V13.68H161.022ZM154.366 13.68H153.366V14.68H154.366V13.68ZM153.47 8.048L152.698 8.6837L152.708 8.69525L152.717 8.7065L153.47 8.048ZM148.606 15.792L147.751 16.3103L147.756 16.3196L147.762 16.3289L148.606 15.792ZM153.406 20.912L152.749 21.6663L152.75 21.6666L153.406 20.912ZM159.486 27.888L158.603 28.3567L158.603 28.3567L159.486 27.888ZM158.398 43.696L157.667 43.0131L157.66 43.0217L158.398 43.696ZM150.526 45.64C147.301 45.64 145.026 44.7384 143.521 43.0865L142.043 44.4335C144.036 46.6216 146.924 47.64 150.526 47.64V45.64ZM143.529 43.0946C141.995 41.3746 141.158 38.8507 141.158 35.376H139.158C139.158 39.1546 140.07 42.2201 142.035 44.4254L143.529 43.0946ZM141.158 35.376V32.816H139.158V35.376H141.158ZM140.158 33.816H146.814V31.816H140.158V33.816ZM145.814 32.816V35.888H147.814V32.816H145.814ZM145.814 35.888C145.814 37.454 146.138 38.8148 146.96 39.7944C147.809 40.8078 149.041 41.24 150.462 41.24V39.24C149.451 39.24 148.859 38.9469 148.492 38.5096C148.098 38.0385 147.814 37.2233 147.814 35.888H145.814ZM150.462 41.24C151.848 41.24 153.06 40.8378 153.903 39.8745L152.397 38.5575C152.046 38.9595 151.465 39.24 150.462 39.24V41.24ZM153.9 39.8776C154.776 38.8845 155.11 37.438 155.11 35.76H153.11C153.11 37.2393 152.804 38.0968 152.4 38.5544L153.9 39.8776ZM155.11 35.76C155.11 33.7261 154.646 31.899 153.685 30.3137L151.975 31.3503C152.721 32.581 153.11 34.0392 153.11 35.76H155.11ZM153.692 30.325C152.756 28.7344 151.081 26.922 148.751 24.8937L147.437 26.4023C149.715 28.3846 151.197 30.0282 151.968 31.339L153.692 30.325ZM148.756 24.8982C145.891 22.3708 143.959 20.1533 142.886 18.2457L141.142 19.2263C142.373 21.4147 144.494 23.8052 147.432 26.3978L148.756 24.8982ZM142.89 18.2534C141.827 16.3237 141.286 14.1455 141.286 11.696H139.286C139.286 14.4518 139.897 16.967 141.138 19.2186L142.89 18.2534ZM141.286 11.696C141.286 8.3181 142.139 5.86452 143.705 4.18632L142.243 2.82168C140.225 4.98348 139.286 7.99124 139.286 11.696H141.286ZM143.712 4.17827C145.265 2.47843 147.565 1.56 150.782 1.56V-0.440002C147.173 -0.440002 144.267 0.604228 142.236 2.82973L143.712 4.17827ZM150.782 1.56C153.955 1.56 156.179 2.47657 157.643 4.16018L159.153 2.84782C157.203 0.606089 154.351 -0.440002 150.782 -0.440002V1.56ZM157.659 4.17749C159.184 5.85136 160.022 8.34756 160.022 11.824H162.022C162.022 8.0471 161.111 4.99664 159.137 2.83051L157.659 4.17749ZM160.022 11.824V13.68H162.022V11.824H160.022ZM161.022 12.68H154.366V14.68H161.022V12.68ZM155.366 13.68V11.376H153.366V13.68H155.366ZM155.366 11.376C155.366 9.75251 155.058 8.3444 154.223 7.38949L152.717 8.7065C153.077 9.11693 153.366 9.92749 153.366 11.376H155.366ZM154.242 7.41229C153.412 6.40459 152.223 5.96 150.846 5.96V7.96C151.773 7.96 152.333 8.24074 152.698 8.6837L154.242 7.41229ZM150.846 5.96C149.461 5.96 148.259 6.39142 147.433 7.39751C146.638 8.36581 146.326 9.70721 146.326 11.248H148.326C148.326 9.93012 148.6 9.12752 148.979 8.66649C149.326 8.24324 149.885 7.96 150.846 7.96V5.96ZM146.326 11.248C146.326 13.055 146.804 14.7486 147.751 16.3103L149.461 15.2737C148.701 14.0194 148.326 12.6836 148.326 11.248H146.326ZM147.762 16.3289C148.736 17.8592 150.422 19.6409 152.749 21.6663L154.063 20.1577C151.782 18.1724 150.268 16.5408 149.45 15.2551L147.762 16.3289ZM152.75 21.6666C155.653 24.1914 157.576 26.4222 158.603 28.3567L160.369 27.4193C159.177 25.1724 157.047 22.7526 154.062 20.1574L152.75 21.6666ZM158.603 28.3567C159.622 30.278 160.15 32.5645 160.15 35.248H162.15C162.15 32.2995 161.569 29.6794 160.369 27.4193L158.603 28.3567ZM160.15 35.248C160.15 38.7578 159.274 41.2945 157.667 43.0131L159.129 44.3789C161.191 42.1721 162.15 39.0769 162.15 35.248H160.15ZM157.66 43.0217C156.11 44.719 153.79 45.64 150.526 45.64V47.64C154.174 47.64 157.102 46.5983 159.136 44.3703L157.66 43.0217ZM170.691 7.6H171.691V6.6H170.691V7.6ZM163.331 7.6H162.331V8.6H163.331V7.6ZM163.331 1.2V0.199997H162.331V1.2H163.331ZM185.091 1.2H186.091V0.199997H185.091V1.2ZM185.091 7.6V8.6H186.091V7.6H185.091ZM177.731 7.6V6.6H176.731V7.6H177.731ZM177.731 46V47H178.731V46H177.731ZM170.691 46H169.691V47H170.691V46ZM170.691 6.6H163.331V8.6H170.691V6.6ZM164.331 7.6V1.2H162.331V7.6H164.331ZM163.331 2.2H185.091V0.199997H163.331V2.2ZM184.091 1.2V7.6H186.091V1.2H184.091ZM185.091 6.6H177.731V8.6H185.091V6.6ZM176.731 7.6V46H178.731V7.6H176.731ZM177.731 45H170.691V47H177.731V45ZM171.691 46V7.6H169.691V46H171.691ZM191.002 1.2V0.199997H190.151L190.015 1.03926L191.002 1.2ZM200.538 1.2L201.524 1.03926L201.388 0.199997H200.538V1.2ZM207.834 46V47H209.01L208.82 45.8393L207.834 46ZM200.794 46L199.804 46.1424L199.927 47H200.794V46ZM199.514 37.104L200.503 36.9616L198.514 37.104H199.514ZM199.514 37.232V38.232H200.514V37.232H199.514ZM191.514 37.232V36.232H190.649L190.524 37.0875L191.514 37.232ZM190.234 46V47H191.098L191.223 46.1445L190.234 46ZM183.706 46L182.719 45.8393L182.529 47H183.706V46ZM198.682 31.152V32.152H199.833L199.672 31.0118L198.682 31.152ZM195.546 9.008L196.536 8.86778L196.414 8.008H195.546V9.008ZM195.418 9.008V8.008H194.547L194.427 8.87059L195.418 9.008ZM192.345 31.152L191.355 31.0146L191.197 32.152H192.345V31.152ZM191.002 2.2H200.538V0.199997H191.002V2.2ZM199.551 1.36074L206.847 46.1607L208.82 45.8393L201.524 1.03926L199.551 1.36074ZM207.834 45H200.794V47H207.834V45ZM201.783 45.8576L200.503 36.9616L198.524 37.2464L199.804 46.1424L201.783 45.8576ZM198.514 37.104V37.232H200.514V37.104H198.514ZM199.514 36.232H191.514V38.232H199.514V36.232ZM190.524 37.0875L189.244 45.8555L191.223 46.1445L192.503 37.3765L190.524 37.0875ZM190.234 45H183.706V47H190.234V45ZM184.692 46.1607L191.988 1.36074L190.015 1.03926L182.719 45.8393L184.692 46.1607ZM199.672 31.0118L196.536 8.86778L194.555 9.14822L197.691 31.2922L199.672 31.0118ZM195.546 8.008H195.418V10.008H195.546V8.008ZM194.427 8.87059L191.355 31.0146L193.336 31.2894L196.408 9.14541L194.427 8.87059ZM192.345 32.152H198.682V30.152H192.345V32.152ZM211.249 1.2V0.199997H210.249V1.2H211.249ZM229.617 3.76L228.901 4.45815L228.91 4.46711L229.617 3.76ZM227.505 23.088L227.131 22.1604L226.505 22.4127V23.088H227.505ZM227.505 23.216H226.505V23.96L227.218 24.1738L227.505 23.216ZM231.089 26.352L230.171 26.7489L230.176 26.7593L230.18 26.7695L231.089 26.352ZM232.305 43.696L231.31 43.8007L231.311 43.8064L232.305 43.696ZM232.945 46V47H234.484L233.859 45.5939L232.945 46ZM225.777 46L224.834 46.3328L225.069 47H225.777V46ZM224.113 28.016L223.328 28.6356L223.338 28.648L223.348 28.6601L224.113 28.016ZM218.289 26.8V25.8H217.289V26.8H218.289ZM218.289 46V47H219.289V46H218.289ZM211.249 46H210.249V47H211.249V46ZM223.985 19.312L223.278 18.6049L223.267 18.6156L223.257 18.6266L223.985 19.312ZM224.177 8.688L223.383 9.29545L223.394 9.30978L223.405 9.32371L224.177 8.688ZM218.289 7.6V6.6H217.289V7.6H218.289ZM218.289 20.4H217.289V21.4H218.289V20.4ZM211.249 2.2H221.681V0.199997H211.249V2.2ZM221.681 2.2C225.177 2.2 227.504 3.02519 228.901 4.4581L230.333 3.0619C228.402 1.08147 225.439 0.199997 221.681 0.199997V2.2ZM228.91 4.46711C230.312 5.86916 231.113 8.14253 231.113 11.504H233.113C233.113 7.86813 232.25 4.97884 230.324 3.05289L228.91 4.46711ZM231.113 11.504V14.256H233.113V11.504H231.113ZM231.113 14.256C231.113 16.4811 230.744 18.2058 230.074 19.4894C229.416 20.7509 228.446 21.631 227.131 22.1604L227.879 24.0156C229.636 23.3077 230.97 22.0971 231.848 20.4146C232.714 18.7542 233.113 16.6816 233.113 14.256H231.113ZM226.505 23.088V23.216H228.505V23.088H226.505ZM227.218 24.1738C228.653 24.6045 229.61 25.4521 230.171 26.7489L232.007 25.9551C231.202 24.0946 229.77 22.8515 227.792 22.2582L227.218 24.1738ZM230.18 26.7695C230.822 28.1669 231.177 30.1186 231.177 32.688H233.177C233.177 29.9667 232.806 27.6945 231.998 25.9345L230.18 26.7695ZM231.177 32.688V40.56H233.177V32.688H231.177ZM231.177 40.56C231.177 41.8577 231.22 42.9415 231.31 43.8007L233.3 43.5913C233.219 42.8292 233.177 41.8223 233.177 40.56H231.177ZM231.311 43.8064C231.409 44.6851 231.652 45.5525 232.031 46.4061L233.859 45.5939C233.556 44.9115 233.372 44.2429 233.299 43.5856L231.311 43.8064ZM232.945 45H225.777V47H232.945V45ZM226.72 45.6672C226.483 44.9949 226.331 44.38 226.256 43.8198L224.274 44.0842C224.37 44.804 224.559 45.5544 224.834 46.3328L226.72 45.6672ZM226.256 43.8198C226.181 43.2539 226.137 42.1635 226.137 40.496H224.137C224.137 42.1565 224.179 43.3701 224.274 44.0842L226.256 43.8198ZM226.137 40.496V32.304H224.137V40.496H226.137ZM226.137 32.304C226.137 30.2098 225.801 28.4681 224.878 27.3719L223.348 28.6601C223.79 29.1852 224.137 30.3022 224.137 32.304H226.137ZM224.898 27.3964C223.981 26.235 222.473 25.8 220.721 25.8V27.8C222.212 27.8 222.965 28.1757 223.328 28.6356L224.898 27.3964ZM220.721 25.8H218.289V27.8H220.721V25.8ZM217.289 26.8V46H219.289V26.8H217.289ZM218.289 45H211.249V47H218.289V45ZM212.249 46V1.2H210.249V46H212.249ZM220.849 21.4C222.416 21.4 223.774 20.9949 224.713 19.9974L223.257 18.6266C222.83 19.0798 222.098 19.4 220.849 19.4V21.4ZM224.692 20.0191C225.697 19.0145 226.073 17.4693 226.073 15.664H224.073C224.073 17.272 223.724 18.1589 223.278 18.6049L224.692 20.0191ZM226.073 15.664V12.208H224.073V15.664H226.073ZM226.073 12.208C226.073 10.5073 225.768 9.04681 224.949 8.05229L223.405 9.32371C223.781 9.77985 224.073 10.6661 224.073 12.208H226.073ZM224.971 8.08055C224.165 7.02662 222.919 6.6 221.489 6.6V8.6C222.534 8.6 223.079 8.89871 223.383 9.29545L224.971 8.08055ZM221.489 6.6H218.289V8.6H221.489V6.6ZM217.289 7.6V20.4H219.289V7.6H217.289ZM218.289 21.4H220.849V19.4H218.289V21.4ZM242.441 7.6H243.441V6.6H242.441V7.6ZM235.081 7.6H234.081V8.6H235.081V7.6ZM235.081 1.2V0.199997H234.081V1.2H235.081ZM256.841 1.2H257.841V0.199997H256.841V1.2ZM256.841 7.6V8.6H257.841V7.6H256.841ZM249.481 7.6V6.6H248.481V7.6H249.481ZM249.481 46V47H250.481V46H249.481ZM242.441 46H241.441V47H242.441V46ZM242.441 6.6H235.081V8.6H242.441V6.6ZM236.081 7.6V1.2H234.081V7.6H236.081ZM235.081 2.2H256.841V0.199997H235.081V2.2ZM255.841 1.2V7.6H257.841V1.2H255.841ZM256.841 6.6H249.481V8.6H256.841V6.6ZM248.481 7.6V46H250.481V7.6H248.481ZM249.481 45H242.441V47H249.481V45ZM243.441 46V7.6H241.441V46H243.441Z" fill="white" mask="url(#path-1-outside-1_5873_145344)"/>
</g>
<defs>
<linearGradient id="paint0_linear_5873_145344" x1="32.6667" y1="-2.375" x2="115.445" y2="177.954" gradientUnits="userSpaceOnUse">
<stop stop-color="#20E3FD"/>
<stop offset="0.535" stop-color="#A025C3"/>
<stop offset="1" stop-color="#F68630"/>
</linearGradient>
</defs>
</svg>
