<svg width="151" height="29" viewBox="0 0 151 29" fill="none" xmlns="http://www.w3.org/2000/svg">
<g id="Group 1410068876" filter="url(#filter0_i_5871_138642)">
<path id="Model Battle" d="M1.14453 5.54545H7.04226L11.0991 15.4318H11.3036L15.3604 5.54545H21.2582V23H16.6218V12.9091H16.4854L12.5991 22.8636H9.80362L5.91726 12.8409H5.7809V23H1.14453V5.54545ZM29.8789 23.2386C28.4585 23.2386 27.2425 22.9574 26.2312 22.3949C25.2198 21.8267 24.4442 21.0369 23.9045 20.0256C23.3647 19.0085 23.0948 17.8295 23.0948 16.4886C23.0948 15.1477 23.3647 13.9716 23.9045 12.9602C24.4442 11.9432 25.2198 11.1534 26.2312 10.5909C27.2425 10.0227 28.4585 9.73864 29.8789 9.73864C31.2994 9.73864 32.5153 10.0227 33.5266 10.5909C34.538 11.1534 35.3136 11.9432 35.8533 12.9602C36.3931 13.9716 36.663 15.1477 36.663 16.4886C36.663 17.8295 36.3931 19.0085 35.8533 20.0256C35.3136 21.0369 34.538 21.8267 33.5266 22.3949C32.5153 22.9574 31.2994 23.2386 29.8789 23.2386ZM29.913 19.7614C30.3107 19.7614 30.6545 19.6278 30.9442 19.3608C31.234 19.0937 31.4585 18.7131 31.6175 18.2188C31.7766 17.7244 31.8562 17.1364 31.8562 16.4545C31.8562 15.767 31.7766 15.179 31.6175 14.6903C31.4585 14.196 31.234 13.8153 30.9442 13.5483C30.6545 13.2812 30.3107 13.1477 29.913 13.1477C29.4925 13.1477 29.1317 13.2812 28.8306 13.5483C28.5295 13.8153 28.2994 14.196 28.1403 14.6903C27.9812 15.179 27.9016 15.767 27.9016 16.4545C27.9016 17.1364 27.9812 17.7244 28.1403 18.2188C28.2994 18.7131 28.5295 19.0937 28.8306 19.3608C29.1317 19.6278 29.4925 19.7614 29.913 19.7614ZM43.3107 23.1705C42.3789 23.1705 41.521 22.9261 40.7369 22.4375C39.9585 21.9489 39.3335 21.2074 38.8619 20.2131C38.396 19.2187 38.163 17.9659 38.163 16.4545C38.163 14.875 38.4073 13.5909 38.896 12.6023C39.3903 11.6136 40.0266 10.8892 40.805 10.429C41.5891 9.96875 42.413 9.73864 43.2766 9.73864C43.9244 9.73864 44.4925 9.85227 44.9812 10.0795C45.4698 10.3011 45.8789 10.5994 46.2085 10.9744C46.538 11.3437 46.788 11.75 46.9585 12.1932H47.0266V5.54545H51.7312V23H47.0607V20.8523H46.9585C46.7766 21.2955 46.5153 21.6932 46.1744 22.0455C45.8391 22.392 45.43 22.6676 44.9471 22.8722C44.4698 23.071 43.9244 23.1705 43.3107 23.1705ZM45.0494 19.5568C45.4812 19.5568 45.8505 19.4318 46.1573 19.1818C46.4698 18.9261 46.7085 18.5682 46.8732 18.108C47.0437 17.642 47.1289 17.0909 47.1289 16.4545C47.1289 15.8068 47.0437 15.2528 46.8732 14.7926C46.7085 14.3267 46.4698 13.9716 46.1573 13.7273C45.8505 13.4773 45.4812 13.3523 45.0494 13.3523C44.6175 13.3523 44.2482 13.4773 43.9414 13.7273C43.6403 13.9716 43.4073 14.3267 43.2425 14.7926C43.0835 15.2528 43.0039 15.8068 43.0039 16.4545C43.0039 17.1023 43.0835 17.6591 43.2425 18.125C43.4073 18.5852 43.6403 18.9403 43.9414 19.1903C44.2482 19.4347 44.6175 19.5568 45.0494 19.5568ZM60.3136 23.2386C58.9158 23.2386 57.7113 22.9716 56.6999 22.4375C55.6942 21.8977 54.9187 21.125 54.3732 20.1193C53.8335 19.108 53.5636 17.8977 53.5636 16.4886C53.5636 15.1364 53.8363 13.9545 54.3817 12.9432C54.9272 11.9318 55.6971 11.1449 56.6914 10.5824C57.6857 10.0199 58.859 9.73864 60.2113 9.73864C61.1999 9.73864 62.0948 9.89205 62.896 10.1989C63.6971 10.5057 64.3817 10.9517 64.9499 11.5369C65.5181 12.1165 65.9556 12.821 66.2624 13.6506C66.5692 14.4801 66.7227 15.4148 66.7227 16.4545V17.5455H55.0295V14.9545H62.3931C62.3874 14.5795 62.2908 14.25 62.1033 13.9659C61.9215 13.6761 61.6744 13.4517 61.3619 13.2926C61.055 13.1278 60.7056 13.0455 60.3136 13.0455C59.9329 13.0455 59.5835 13.1278 59.2653 13.2926C58.9471 13.4517 58.6914 13.6733 58.4982 13.9574C58.3107 14.2415 58.2113 14.5739 58.1999 14.9545V17.75C58.1999 18.1705 58.288 18.5455 58.4641 18.875C58.6403 19.2045 58.8931 19.4631 59.2227 19.6506C59.5522 19.8381 59.9499 19.9318 60.4158 19.9318C60.7397 19.9318 61.0352 19.8864 61.3022 19.7955C61.5749 19.7045 61.8079 19.5739 62.0011 19.4034C62.1942 19.2273 62.3363 19.017 62.4272 18.7727H66.7227C66.5749 19.6818 66.2255 20.4716 65.6744 21.142C65.1232 21.8068 64.3931 22.3239 63.484 22.6932C62.5806 23.0568 61.5238 23.2386 60.3136 23.2386ZM73.3469 5.54545V23H68.6424V5.54545H73.3469ZM80.457 23V5.54545H88.0252C89.3548 5.54545 90.4712 5.72443 91.3746 6.08239C92.2837 6.44034 92.9684 6.94602 93.4286 7.59943C93.8945 8.25284 94.1275 9.02273 94.1275 9.90909C94.1275 10.5511 93.9854 11.1364 93.7014 11.6648C93.4229 12.1932 93.0309 12.6364 92.5252 12.9943C92.0195 13.3466 91.4286 13.5909 90.7525 13.7273V13.8977C91.5025 13.9261 92.1843 14.1165 92.7979 14.4688C93.4116 14.8153 93.9002 15.2955 94.2639 15.9091C94.6275 16.517 94.8093 17.233 94.8093 18.0568C94.8093 19.0114 94.5593 19.8608 94.0593 20.6051C93.565 21.3494 92.8604 21.9347 91.9457 22.3608C91.0309 22.7869 89.94 23 88.6729 23H80.457ZM85.1957 19.2159H87.4116C88.207 19.2159 88.8036 19.0682 89.2013 18.7727C89.5991 18.4716 89.7979 18.0284 89.7979 17.4432C89.7979 17.0341 89.7042 16.6875 89.5167 16.4034C89.3292 16.1193 89.0621 15.9034 88.7156 15.7557C88.3746 15.608 87.9627 15.5341 87.4798 15.5341H85.1957V19.2159ZM85.1957 12.6023H87.1388C87.5536 12.6023 87.9201 12.5369 88.2383 12.4062C88.5565 12.2756 88.8036 12.0881 88.9798 11.8438C89.1616 11.5938 89.2525 11.2898 89.2525 10.9318C89.2525 10.392 89.0593 9.98011 88.6729 9.69602C88.2866 9.40625 87.7979 9.26136 87.207 9.26136H85.1957V12.6023ZM100.204 23.2045C99.369 23.2045 98.6303 23.0682 97.9883 22.7955C97.3519 22.517 96.8519 22.0966 96.4883 21.5341C96.1246 20.9716 95.9428 20.2557 95.9428 19.3864C95.9428 18.6705 96.065 18.0597 96.3093 17.554C96.5536 17.0426 96.8945 16.625 97.332 16.3011C97.7695 15.9773 98.2781 15.7301 98.8576 15.5597C99.4428 15.3892 100.074 15.2784 100.75 15.2273C101.483 15.1705 102.071 15.1023 102.514 15.0227C102.963 14.9375 103.287 14.821 103.485 14.6733C103.684 14.5199 103.784 14.3182 103.784 14.0682V14.0341C103.784 13.6932 103.653 13.4318 103.392 13.25C103.13 13.0682 102.795 12.9773 102.386 12.9773C101.937 12.9773 101.571 13.0767 101.287 13.2756C101.008 13.4687 100.841 13.767 100.784 14.1705H96.4542C96.511 13.375 96.7638 12.642 97.2127 11.9716C97.6673 11.2955 98.3292 10.7557 99.1985 10.3523C100.068 9.94318 101.153 9.73864 102.454 9.73864C103.392 9.73864 104.233 9.84943 104.977 10.071C105.721 10.2869 106.355 10.5909 106.877 10.983C107.4 11.3693 107.798 11.8239 108.071 12.3466C108.349 12.8636 108.488 13.4261 108.488 14.0341V23H104.091V21.1591H103.988C103.727 21.6477 103.409 22.0426 103.034 22.3438C102.664 22.6449 102.241 22.8636 101.764 23C101.292 23.1364 100.772 23.2045 100.204 23.2045ZM101.738 20.2386C102.096 20.2386 102.431 20.1648 102.744 20.017C103.062 19.8693 103.321 19.6562 103.52 19.3778C103.718 19.0994 103.818 18.7614 103.818 18.3636V17.2727C103.693 17.3239 103.559 17.3722 103.417 17.4176C103.281 17.4631 103.133 17.5057 102.974 17.5455C102.821 17.5852 102.656 17.6222 102.48 17.6562C102.309 17.6903 102.13 17.7216 101.943 17.75C101.579 17.8068 101.281 17.9006 101.048 18.0312C100.821 18.1562 100.65 18.3125 100.537 18.5C100.429 18.6818 100.375 18.8864 100.375 19.1136C100.375 19.4773 100.502 19.7557 100.758 19.9489C101.014 20.142 101.341 20.2386 101.738 20.2386ZM118.543 9.90909V13.3182H109.918V9.90909H118.543ZM111.588 6.77273H116.293V18.7898C116.293 18.9716 116.324 19.125 116.387 19.25C116.449 19.3693 116.546 19.4602 116.676 19.5227C116.807 19.5795 116.975 19.608 117.179 19.608C117.321 19.608 117.486 19.5909 117.674 19.5568C117.867 19.5227 118.009 19.4943 118.1 19.4716L118.782 22.7784C118.571 22.8409 118.27 22.9176 117.878 23.0085C117.492 23.0994 117.032 23.1591 116.498 23.1875C115.418 23.2443 114.512 23.1335 113.779 22.8551C113.046 22.571 112.495 22.125 112.125 21.517C111.756 20.9091 111.577 20.1477 111.588 19.233V6.77273ZM128.27 9.90909V13.3182H119.645V9.90909H128.27ZM121.315 6.77273H126.02V18.7898C126.02 18.9716 126.051 19.125 126.113 19.25C126.176 19.3693 126.272 19.4602 126.403 19.5227C126.534 19.5795 126.701 19.608 126.906 19.608C127.048 19.608 127.213 19.5909 127.4 19.5568C127.593 19.5227 127.735 19.4943 127.826 19.4716L128.508 22.7784C128.298 22.8409 127.997 22.9176 127.605 23.0085C127.218 23.0994 126.758 23.1591 126.224 23.1875C125.145 23.2443 124.238 23.1335 123.505 22.8551C122.772 22.571 122.221 22.125 121.852 21.517C121.483 20.9091 121.304 20.1477 121.315 19.233V6.77273ZM135.175 5.54545V23H130.471V5.54545H135.175ZM143.845 23.2386C142.447 23.2386 141.243 22.9716 140.231 22.4375C139.225 21.8977 138.45 21.125 137.904 20.1193C137.365 19.108 137.095 17.8977 137.095 16.4886C137.095 15.1364 137.368 13.9545 137.913 12.9432C138.458 11.9318 139.228 11.1449 140.223 10.5824C141.217 10.0199 142.39 9.73864 143.743 9.73864C144.731 9.73864 145.626 9.89205 146.427 10.1989C147.228 10.5057 147.913 10.9517 148.481 11.5369C149.049 12.1165 149.487 12.821 149.794 13.6506C150.1 14.4801 150.254 15.4148 150.254 16.4545V17.5455H138.561V14.9545H145.924C145.919 14.5795 145.822 14.25 145.635 13.9659C145.453 13.6761 145.206 13.4517 144.893 13.2926C144.586 13.1278 144.237 13.0455 143.845 13.0455C143.464 13.0455 143.115 13.1278 142.797 13.2926C142.478 13.4517 142.223 13.6733 142.029 13.9574C141.842 14.2415 141.743 14.5739 141.731 14.9545V17.75C141.731 18.1705 141.819 18.5455 141.995 18.875C142.172 19.2045 142.424 19.4631 142.754 19.6506C143.083 19.8381 143.481 19.9318 143.947 19.9318C144.271 19.9318 144.566 19.8864 144.833 19.7955C145.106 19.7045 145.339 19.5739 145.532 19.4034C145.725 19.2273 145.868 19.017 145.958 18.7727H150.254C150.106 19.6818 149.757 20.4716 149.206 21.142C148.654 21.8068 147.924 22.3239 147.015 22.6932C146.112 23.0568 145.055 23.2386 143.845 23.2386Z" fill="white"/>
</g>
<defs>
<filter id="filter0_i_5871_138642" x="1.14062" y="3.5459" width="149.109" height="19.7266" filterUnits="userSpaceOnUse" color-interpolation-filters="sRGB">
<feFlood flood-opacity="0" result="BackgroundImageFix"/>
<feBlend mode="normal" in="SourceGraphic" in2="BackgroundImageFix" result="shape"/>
<feColorMatrix in="SourceAlpha" type="matrix" values="0 0 0 0 0 0 0 0 0 0 0 0 0 0 0 0 0 0 127 0" result="hardAlpha"/>
<feOffset dy="-2"/>
<feGaussianBlur stdDeviation="1.2"/>
<feComposite in2="hardAlpha" operator="arithmetic" k2="-1" k3="1"/>
<feColorMatrix type="matrix" values="0 0 0 0 0.449102 0 0 0 0 0.123509 0 0 0 0 0.863493 0 0 0 0.25 0"/>
<feBlend mode="normal" in2="shape" result="effect1_innerShadow_5871_138642"/>
</filter>
</defs>
</svg>
