<svg width="39" height="38" fill="none" xmlns="http://www.w3.org/2000/svg"><g style="mix-blend-mode:darken" opacity=".7"><path d="M.033 18.986c0-8.373 6.855-15.16 15.312-15.16 8.457 0 15.312 6.787 15.312 15.16 0 8.373-6.855 15.16-15.312 15.16-8.457 0-15.312-6.787-15.312-15.16Z" fill="#fff" style="mix-blend-mode:darken"/><path d="M.168 18.986c0-8.373 6.855-15.16 15.312-15.16 8.456 0 15.312 6.787 15.312 15.16 0 8.373-6.856 15.16-15.312 15.16-8.457 0-15.312-6.787-15.312-15.16Z" fill="#F5F5F5" style="mix-blend-mode:darken"/><path d="M.3 18.986c0-8.373 6.87-15.16 15.346-15.16 8.475 0 15.345 6.787 15.345 15.16 0 8.373-6.87 15.16-15.345 15.16C7.17 34.147.3 27.36.3 18.987Z" fill="#EBEBEB" style="mix-blend-mode:darken"/><path d="M.435 18.986c0-8.373 6.87-15.16 15.345-15.16 8.476 0 15.346 6.787 15.346 15.16 0 8.373-6.87 15.16-15.346 15.16-8.475 0-15.345-6.787-15.345-15.16Z" fill="#E2E2E2" style="mix-blend-mode:darken"/><path d="M.568 18.986c0-8.373 6.87-15.16 15.345-15.16 8.475 0 15.346 6.787 15.346 15.16 0 8.373-6.87 15.16-15.346 15.16-8.475 0-15.345-6.787-15.345-15.16Z" fill="#D8D8D8" style="mix-blend-mode:darken"/><path d="M.7 18.986c0-8.373 6.87-15.16 15.346-15.16 8.475 0 15.346 6.787 15.346 15.16 0 8.373-6.87 15.16-15.346 15.16C7.571 34.147.7 27.36.7 18.987Z" fill="#CECECE" style="mix-blend-mode:darken"/><path d="M.802 18.986c0-8.373 6.885-15.16 15.379-15.16 8.493 0 15.379 6.787 15.379 15.16 0 8.373-6.886 15.16-15.38 15.16-8.493 0-15.378-6.787-15.378-15.16Z" fill="#C4C4C4" style="mix-blend-mode:darken"/><path d="M.968 18.986c0-8.373 6.885-15.16 15.379-15.16 8.493 0 15.379 6.787 15.379 15.16 0 8.373-6.886 15.16-15.38 15.16-8.493 0-15.378-6.787-15.378-15.16Z" fill="#BABABA" style="mix-blend-mode:darken"/><path d="M1.1 18.986c0-8.373 6.886-15.16 15.38-15.16 8.493 0 15.378 6.787 15.378 15.16 0 8.373-6.885 15.16-15.378 15.16-8.494 0-15.38-6.787-15.38-15.16Z" fill="#B1B1B1" style="mix-blend-mode:darken"/><path d="M1.202 18.986c0-8.373 6.9-15.16 15.412-15.16s15.412 6.787 15.412 15.16c0 8.373-6.9 15.16-15.412 15.16S1.202 27.36 1.202 18.987Z" fill="#A7A7A7" style="mix-blend-mode:darken"/><path d="M1.335 18.986c0-8.373 6.9-15.16 15.412-15.16s15.412 6.787 15.412 15.16c0 8.373-6.9 15.16-15.412 15.16S1.335 27.36 1.335 18.987Z" fill="#9D9D9D" style="mix-blend-mode:darken"/><path d="M1.503 18.986c0-8.373 6.9-15.16 15.412-15.16s15.412 6.787 15.412 15.16c0 8.373-6.9 15.16-15.412 15.16S1.503 27.36 1.503 18.987Z" fill="#939393" style="mix-blend-mode:darken"/><path d="M1.602 18.986c0-8.373 6.915-15.16 15.445-15.16 8.53 0 15.446 6.787 15.446 15.16 0 8.373-6.915 15.16-15.446 15.16-8.53 0-15.445-6.787-15.445-15.16Z" fill="#898989" style="mix-blend-mode:darken"/><path d="M1.735 18.986c0-8.373 6.915-15.16 15.445-15.16 8.53 0 15.446 6.787 15.446 15.16 0 8.373-6.915 15.16-15.446 15.16-8.53 0-15.445-6.787-15.445-15.16Z" fill="gray" style="mix-blend-mode:darken"/><path d="M1.87 18.986c0-8.373 6.915-15.16 15.445-15.16 8.53 0 15.446 6.787 15.446 15.16 0 8.373-6.916 15.16-15.446 15.16S1.87 27.36 1.87 18.987Z" fill="#767676" style="mix-blend-mode:darken"/><path d="M2.002 18.986c0-8.373 6.915-15.16 15.446-15.16 8.53 0 15.446 6.787 15.446 15.16 0 8.373-6.916 15.16-15.446 15.16S2.002 27.36 2.002 18.987Z" fill="#6C6C6C" style="mix-blend-mode:darken"/><path d="M2.135 18.986c0-8.373 6.93-15.16 15.479-15.16s15.479 6.787 15.479 15.16c0 8.373-6.93 15.16-15.48 15.16-8.548 0-15.478-6.787-15.478-15.16Z" fill="#626262" style="mix-blend-mode:darken"/><path d="M2.27 18.986c0-8.373 6.93-15.16 15.479-15.16 8.548 0 15.479 6.787 15.479 15.16 0 8.373-6.93 15.16-15.48 15.16-8.548 0-15.479-6.787-15.479-15.16Z" fill="#585858" style="mix-blend-mode:darken"/><path d="M2.402 18.986c0-8.373 6.93-15.16 15.48-15.16 8.548 0 15.478 6.787 15.478 15.16 0 8.373-6.93 15.16-15.479 15.16S2.402 27.36 2.402 18.987Z" fill="#4E4E4E" style="mix-blend-mode:darken"/><path d="M2.502 18.986c0-8.373 6.945-15.16 15.512-15.16s15.512 6.787 15.512 15.16c0 8.373-6.945 15.16-15.512 15.16S2.502 27.36 2.502 18.987Z" fill="#454545" style="mix-blend-mode:darken"/><path d="M2.67 18.986c0-8.373 6.945-15.16 15.512-15.16s15.512 6.787 15.512 15.16c0 8.373-6.945 15.16-15.512 15.16S2.67 27.36 2.67 18.987Z" fill="#3B3B3B" style="mix-blend-mode:darken"/><path d="M2.802 18.986c0-8.373 6.946-15.16 15.513-15.16s15.512 6.787 15.512 15.16c0 8.373-6.945 15.16-15.512 15.16S2.802 27.36 2.802 18.987Z" fill="#313131" style="mix-blend-mode:darken"/><path d="M2.904 18.986c0-8.373 6.96-15.16 15.545-15.16 8.586 0 15.546 6.787 15.546 15.16 0 8.373-6.96 15.16-15.546 15.16-8.585 0-15.545-6.787-15.545-15.16Z" fill="#272727" style="mix-blend-mode:darken"/><path d="M3.036 18.986c0-8.373 6.96-15.16 15.546-15.16 8.586 0 15.546 6.787 15.546 15.16 0 8.373-6.96 15.16-15.546 15.16-8.585 0-15.546-6.787-15.546-15.16Z" fill="#1D1D1D" style="mix-blend-mode:darken"/><path d="M3.17 18.986c0-8.373 6.96-15.16 15.545-15.16 8.586 0 15.546 6.787 15.546 15.16 0 8.373-6.96 15.16-15.546 15.16-8.586 0-15.546-6.787-15.546-15.16Z" fill="#141414" style="mix-blend-mode:darken"/><path d="M3.337 18.986c0-8.373 6.96-15.16 15.546-15.16 8.586 0 15.546 6.787 15.546 15.16 0 8.373-6.96 15.16-15.546 15.16-8.586 0-15.546-6.787-15.546-15.16Z" fill="#0A0A0A" style="mix-blend-mode:darken"/><path d="M3.437 18.986c0-8.373 6.975-15.16 15.579-15.16 8.604 0 15.579 6.787 15.579 15.16 0 8.373-6.975 15.16-15.58 15.16-8.604 0-15.578-6.787-15.578-15.16Z" fill="#000" style="mix-blend-mode:darken"/></g><path d="M3.904 18.986c0-8.373 6.87-15.16 15.345-15.16 8.475 0 15.346 6.787 15.346 15.16 0 8.373-6.87 15.16-15.346 15.16-8.475 0-15.345-6.787-15.345-15.16Z" fill="#55E6A0"/><path style="mix-blend-mode:soft-light" d="M3.904 18.986c0-8.373 6.87-15.16 15.345-15.16 8.475 0 15.346 6.787 15.346 15.16 0 8.373-6.87 15.16-15.346 15.16-8.475 0-15.345-6.787-15.345-15.16Z" fill="url(#a)"/><path style="mix-blend-mode:multiply" opacity=".58" d="M3.904 18.986c0-8.373 6.87-15.16 15.345-15.16 8.475 0 15.346 6.787 15.346 15.16 0 8.373-6.87 15.16-15.346 15.16-8.475 0-15.345-6.787-15.345-15.16Z" fill="url(#b)"/><path opacity=".05" d="M.033 18.983C.033 8.5 8.636 0 19.248 0c10.613 0 19.216 8.499 19.216 18.983 0 10.485-8.603 18.984-19.215 18.984-10.613 0-19.216-8.5-19.216-18.984Z" fill="#fff"/><g style="mix-blend-mode:screen"><g style="mix-blend-mode:screen"><path d="M.033 19.02c0 10.485 8.603 18.984 19.215 18.984 10.613 0 19.216-8.5 19.216-18.983C38.464 8.536 29.86.037 19.249.037 8.636.037.032 8.537.032 19.021Z" fill="url(#c)" fill-opacity=".1" style="mix-blend-mode:screen"/><path d="M.033 19.02c0 10.485 8.603 18.984 19.215 18.984 10.613 0 19.216-8.5 19.216-18.983C38.464 8.536 29.86.037 19.249.037 8.636.037.032 8.537.032 19.021Z" fill="url(#d)" fill-opacity=".3" style="mix-blend-mode:screen"/></g><path style="mix-blend-mode:screen" d="M37.763 19.018a18.135 18.135 0 0 1-3.136 10.154 18.469 18.469 0 0 1-8.316 6.722 18.725 18.725 0 0 1-10.695 1.027 18.585 18.585 0 0 1-9.471-5.013 18.223 18.223 0 0 1-5.058-9.366 18.087 18.087 0 0 1 1.06-10.564 18.341 18.341 0 0 1 6.819-8.204 18.663 18.663 0 0 1 23.377 2.298 18.213 18.213 0 0 1 5.42 12.946Zm.668 0A18.82 18.82 0 0 0 35.206 8.46a19.167 19.167 0 0 0-8.622-7.006A19.433 19.433 0 0 0 15.474.365a19.29 19.29 0 0 0-9.846 5.197 18.913 18.913 0 0 0-5.26 9.728 18.77 18.77 0 0 0 1.101 10.975 19.036 19.036 0 0 0 7.092 8.518 19.384 19.384 0 0 0 10.688 3.186c2.519 0 5.013-.49 7.34-1.443a19.2 19.2 0 0 0 6.223-4.108 18.937 18.937 0 0 0 4.159-6.148c.964-2.299 1.46-4.763 1.46-7.252Z" fill="url(#e)"/></g><path opacity=".2" d="M34.294 18.849c-5.637-2.703-5.971 5.01-7.506 6.36-1.534 1.352-9.407 2.703-4.77 8.438 2.535 2.076 7.372.428 10.775-3.659 3.403-4.086 4.07-9.063 1.501-11.14Z" fill="#fff"/><defs><linearGradient id="c" x1="-40.294" y1="30.778" x2="-.685" y2="-36.005" gradientUnits="userSpaceOnUse"><stop stop-color="#FAFAFA" stop-opacity=".09"/><stop offset=".146" stop-color="#fff"/><stop offset=".542" stop-color="#fff"/><stop offset=".865" stop-color="#E0E0E0" stop-opacity="0"/><stop offset="1" stop-color="#fff" stop-opacity="0"/></linearGradient><linearGradient id="d" x1="4.245" y1="34.924" x2="9.869" y2="-.645" gradientUnits="userSpaceOnUse"><stop stop-color="#FAFAFA"/><stop offset=".146" stop-color="#fff" stop-opacity="0"/><stop offset=".542" stop-color="#fff" stop-opacity=".02"/><stop offset=".865" stop-color="#fff" stop-opacity="0"/><stop offset="1" stop-color="#fff"/></linearGradient><linearGradient id="e" x1="2.602" y1="28.477" x2="35.659" y2="9.179" gradientUnits="userSpaceOnUse"><stop stop-color="#fff"/><stop offset=".51" stop-color="#fff" stop-opacity="0"/><stop offset="1" stop-color="#fff"/></linearGradient><radialGradient id="a" cx="0" cy="0" r="1" gradientUnits="userSpaceOnUse" gradientTransform="matrix(0 -15.1604 15.3456 0 19.25 18.986)"><stop stop-color="#fff"/><stop offset="1"/></radialGradient><radialGradient id="b" cx="0" cy="0" r="1" gradientUnits="userSpaceOnUse" gradientTransform="matrix(0 -15.1604 15.3456 0 19.25 18.986)"><stop offset=".56" stop-color="#fff"/><stop offset=".63" stop-color="#FEFDFC"/><stop offset=".69" stop-color="#FAF8F2"/><stop offset=".74" stop-color="#F4F0E1"/><stop offset=".79" stop-color="#ECE4C9"/><stop offset=".84" stop-color="#E1D4AA"/><stop offset=".89" stop-color="#D3C184"/><stop offset=".93" stop-color="#C3AA57"/><stop offset=".97" stop-color="#B19125"/><stop offset="1" stop-color="#A47E00"/></radialGradient></defs></svg>