<svg viewBox="0 0 12 12" fill="none" xmlns="http://www.w3.org/2000/svg">
    <g id="Clear">
        <path id="Vector"
            d="M11.9938 11.5371L11.1732 6.88325H11.4503C11.6733 6.88325 11.8529 6.7066 11.8529 6.48731V3.56345C11.8529 3.34416 11.6733 3.16751 11.4503 3.16751H7.6413V0.395939C7.6413 0.17665 7.46168 0 7.23872 0H4.76129C4.53833 0 4.35871 0.17665 4.35871 0.395939V3.16751H0.549678C0.32671 3.16751 0.147097 3.34416 0.147097 3.56345V6.48731C0.147097 6.7066 0.32671 6.88325 0.549678 6.88325H0.826839L0.00619358 11.5371C0.00154841 11.5599 0 11.5827 0 11.6041C0 11.8234 0.179613 12 0.402581 12H11.5974C11.6207 12 11.6439 11.9985 11.6656 11.9939C11.8854 11.9574 12.0325 11.7518 11.9938 11.5371ZM1.23097 4.2335H5.44259V1.06599H6.55743V4.2335H10.769V5.81726H1.23097V4.2335ZM8.47743 10.934V8.55838C8.47743 8.49137 8.42169 8.43655 8.35356 8.43655H7.61033C7.5422 8.43655 7.48646 8.49137 7.48646 8.55838V10.934H4.51355V8.55838C4.51355 8.49137 4.45781 8.43655 4.38968 8.43655H3.64646C3.57833 8.43655 3.52258 8.49137 3.52258 8.55838V10.934H1.21239L1.91071 6.97462H10.0878L10.7861 10.934H8.47743Z"
            fill="white" />
    </g>
</svg>
