<svg width="36" height="36" viewBox="0 0 36 36" fill="none" xmlns="http://www.w3.org/2000/svg">
<g id="&#233;&#135;&#145;&#229;&#184;&#129;">
<g id="&#233;&#135;&#145;&#229;&#184;&#129;_2">
<path id="Ellipse 696" d="M35 18.0254C35 27.4142 27.3888 35.0254 18 35.0254C8.61116 35.0254 1 27.4142 1 18.0254C1 8.63655 8.61116 1.02539 18 1.02539C27.3888 1.02539 35 8.63655 35 18.0254Z" fill="#FEC424"/>
<path id="Ellipse 696 (Stroke)" fill-rule="evenodd" clip-rule="evenodd" d="M18 30.4079C24.8387 30.4079 30.3825 24.8641 30.3825 18.0254C30.3825 11.1867 24.8387 5.64287 18 5.64287C11.1613 5.64287 5.61748 11.1867 5.61748 18.0254C5.61748 24.8641 11.1613 30.4079 18 30.4079ZM18 35.0254C27.3888 35.0254 35 27.4142 35 18.0254C35 8.63655 27.3888 1.02539 18 1.02539C8.61116 1.02539 1 8.63655 1 18.0254C1 27.4142 8.61116 35.0254 18 35.0254Z" fill="url(#paint0_linear_4670_98740)"/>
<path id="Ellipse 697 (Stroke)" fill-rule="evenodd" clip-rule="evenodd" d="M18 34.4657C27.0797 34.4657 34.4403 27.1051 34.4403 18.0254C34.4403 8.94566 27.0797 1.58509 18 1.58509C8.92027 1.58509 1.55969 8.94566 1.55969 18.0254C1.55969 27.1051 8.92027 34.4657 18 34.4657ZM18 35.0254C27.3888 35.0254 35 27.4142 35 18.0254C35 8.63655 27.3888 1.02539 18 1.02539C8.61116 1.02539 1 8.63655 1 18.0254C1 27.4142 8.61116 35.0254 18 35.0254Z" fill="url(#paint1_linear_4670_98740)"/>
<path id="Ellipse 698 (Stroke)" fill-rule="evenodd" clip-rule="evenodd" d="M18.0004 30.0869C24.6227 30.0869 29.9912 24.7184 29.9912 18.0961C29.9912 11.4738 24.6227 6.10532 18.0004 6.10532C11.3781 6.10532 6.00962 11.4738 6.00962 18.0961C6.00962 24.7184 11.3781 30.0869 18.0004 30.0869ZM18.0004 30.5067C24.8546 30.5067 30.411 24.9503 30.411 18.0961C30.411 11.2419 24.8546 5.68555 18.0004 5.68555C11.1462 5.68555 5.58984 11.2419 5.58984 18.0961C5.58984 24.9503 11.1462 30.5067 18.0004 30.5067Z" fill="url(#paint2_linear_4670_98740)"/>
<path id="Vector 1734" d="M15.5723 19.1811L16.7866 10.7363H21.6437L20.4294 15.6625H22.858L16.7866 26.2185L18.0008 19.1811H15.5723Z" fill="white" stroke="#C3B61D" stroke-linejoin="round"/>
<path id="Vector 1735" d="M15.3848 18.7372L16.4745 10.1777H20.8335L19.7437 15.1707H21.9232L16.4745 25.87L17.5643 18.7372H15.3848Z" fill="white" stroke="#FFF14E" stroke-linejoin="round"/>
<g id="&#229;&#136;&#134;&#231;&#187;&#132; 1 (2) 1" clip-path="url(#clip0_4670_98740)">
<path id="Vector" d="M34.8368 15.0569C34.2724 11.8617 32.7696 8.84297 30.5154 6.39473C24.1233 -0.579859 13.4066 -0.753039 6.45019 5.6511C2.8802 8.84297 1 13.1826 1 17.6953C1 22.0315 2.5062 26.3711 5.6988 29.7566C7.57899 31.8211 10.0236 33.1386 12.4682 34.0961C13.0326 34.2693 13.597 34.4595 14.3484 34.6497C14.7224 34.6497 15.0998 34.8397 15.4772 34.8397C17.7314 35.0334 19.9857 35.0334 22.0561 34.4595C22.4301 34.2693 22.8076 34.2693 23.1849 34.0961C23.5589 33.9025 23.746 33.9025 24.1233 33.7125C24.6877 33.5223 25.2488 33.3321 25.8132 32.9654C26.1906 32.7753 26.3776 32.7753 26.5647 32.5851C27.6934 32.0112 28.6351 31.2642 29.5735 30.3303C33.708 26.3711 35.5916 20.5238 34.8368 15.0569Z" fill="url(#paint3_linear_4670_98740)"/>
<path id="Vector_2" d="M33.5427 15.3011C33.0217 12.3478 31.6345 9.55766 29.5536 7.29481C23.6532 0.848369 13.7609 0.688303 7.33955 6.60749C4.04417 9.55766 2.30859 13.5686 2.30859 17.7397C2.30859 21.7474 3.69894 25.7585 6.64596 28.8876C8.38152 30.7958 10.6381 32.0135 12.8946 32.8985C13.4156 33.0586 13.9366 33.2344 14.6302 33.4102C14.9754 33.4102 15.3238 33.5858 15.6722 33.5858C17.753 33.7648 19.8339 33.7648 21.7451 33.2344C22.0903 33.0586 22.4387 33.0586 22.787 32.8985C23.1323 32.7196 23.305 32.7196 23.6532 32.544C24.1742 32.3682 24.6921 32.1923 25.2131 31.8534C25.5616 31.6778 25.7341 31.6778 25.9068 31.5019C26.9488 30.9715 27.818 30.2811 28.6842 29.4179C32.5007 25.7585 34.2394 20.354 33.5427 15.3011Z" fill="url(#paint4_linear_4670_98740)"/>
<path id="Vector_3" d="M32.2465 15.525C31.7689 12.8178 30.4973 10.2602 28.5899 8.18593C23.1812 2.27669 14.1131 2.12997 8.22695 7.55589C5.20618 10.2602 3.61523 13.9369 3.61523 17.7604C3.61523 21.4342 4.88971 25.111 7.59115 27.9793C9.18209 29.7285 11.2506 30.8447 13.3191 31.6559C13.7967 31.8027 14.2743 31.9639 14.91 32.125C15.2265 32.125 15.5459 32.286 15.8652 32.286C17.7726 32.4501 19.6801 32.4501 21.432 31.9639C21.7485 31.8027 22.0679 31.8027 22.3871 31.6559C22.7036 31.492 22.8619 31.492 23.1812 31.331C23.6587 31.1698 24.1335 31.0087 24.6111 30.698C24.9305 30.537 25.0886 30.537 25.2469 30.3758C26.202 29.8895 26.9989 29.2567 27.7929 28.4654C31.2913 25.111 32.8851 20.1568 32.2465 15.525Z" fill="url(#paint5_linear_4670_98740)"/>
<path id="Vector_4" d="M4.19531 16.1859C4.19531 15.4395 4.38448 14.6934 4.57192 13.9297" stroke="#F9B400" stroke-linejoin="bevel"/>
<path id="Vector_5" d="M5.69922 11.4825C6.4512 10.1636 7.39227 9.0358 8.52025 7.90728C13.7842 3.0131 21.678 3.0131 26.942 7.52575" stroke="#F9B400" stroke-linejoin="bevel"/>
<path id="Vector_6" d="M33.0383 21.2687L23.2306 12.762L18.5499 11.9315L16.6921 11.461L16.2944 12.762L15.3826 11.9315L12.1133 13.4236L10.1518 14.7313L9.49794 18.6543L10.1543 23.8838L18.5499 34.9994L21.1915 33.9088C21.9207 33.7161 22.4907 33.6121 23.2214 33.4185C23.5396 33.2409 23.9491 33.2266 24.2688 33.0481C26.274 32.1431 28.188 31.0748 29.6708 29.6043C29.8963 29.2642 30.2161 29.0857 30.4446 28.7438C30.9085 28.0758 31.5233 27.3042 31.9804 26.6205C32.0468 26.3692 33.0383 15.3838 33.0383 21.2687Z" fill="url(#paint6_linear_4670_98740)"/>
<g id="Group 1410068338" filter="url(#filter0_di_4670_98740)">
<g id="robot">
<path id="Subtract" fill-rule="evenodd" clip-rule="evenodd" d="M9.21642 15.9667C9.98969 13.5303 11.8689 11.7877 17.09 11.3992C18.4644 11.3636 20.4704 11.523 22.31 12.1825C26.0104 13.5092 27.559 18.1184 26.3371 21.8439C25.7906 23.5102 24.631 24.9429 22.3544 25.5348C19.5251 25.9275 12.9875 26.28 10.5358 24.25C9.96668 23.7787 9.35231 23.1095 9.01612 21.0817C8.81192 19.8499 8.86896 18.592 8.97297 17.3479C9.01203 16.8808 9.07458 16.4136 9.21642 15.9667ZM10.003 21.0147C10.2675 21.9267 10.8086 22.3685 12.3422 22.2104C14.8349 21.9534 19.326 22.1033 21.2601 22.2104C21.5614 22.2219 21.9558 22.1632 22.3456 21.9826C24.6247 20.9269 24.477 17.7854 23.6334 15.4258C22.9899 13.6261 20.5368 12.7915 18.6209 12.7335C17.3911 12.6963 15.8452 12.7847 13.8466 13.1077C12.02 13.5361 10.3012 14.1786 9.8712 16.5346C9.72832 18.0289 9.58479 19.5727 10.003 21.0147Z" fill="white"/>
<path id="Ellipse 4054" d="M18.5179 9.10758C18.5179 9.97384 17.8156 10.6761 16.9494 10.6761C16.0831 10.6761 15.3809 9.97384 15.3809 9.10758C15.3809 8.24131 16.0831 7.53906 16.9494 7.53906C17.8156 7.53906 18.5179 8.24131 18.5179 9.10758Z" fill="white"/>
<path id="Rectangle 34625726" d="M16.5312 10.1074H17.1759V11.1783H16.5312V10.1074Z" fill="white"/>
<path id="Rectangle 34625727" d="M19.3457 16.9383C19.3457 16.3607 19.8139 15.8926 20.3914 15.8926H20.9143C21.4918 15.8926 21.9599 16.3607 21.9599 16.9383V18.7683C21.9599 19.3458 21.4918 19.8139 20.9143 19.8139H20.3914C19.8139 19.8139 19.3457 19.3458 19.3457 18.7683V16.9383Z" fill="white"/>
<path id="Rectangle 34625728" d="M11.6094 17.1531C11.6094 16.5756 12.0775 16.1074 12.6551 16.1074H13.1779C13.7554 16.1074 14.2236 16.5756 14.2236 17.1531V18.9831C14.2236 19.5606 13.7554 20.0288 13.1779 20.0288H12.655C12.0775 20.0288 11.6094 19.5606 11.6094 18.9831V17.1531Z" fill="white"/>
<path id="Subtract_2" fill-rule="evenodd" clip-rule="evenodd" d="M26.9339 21.2561C27.364 19.5057 27.2149 17.6143 26.5469 15.9871L26.5489 15.8926L27.0154 15.9023C27.8256 15.9193 28.4686 16.5877 28.4516 17.3952L28.4005 19.8243C28.3837 20.6214 27.7301 21.2562 26.9339 21.2561Z" fill="white"/>
<path id="Subtract_3" fill-rule="evenodd" clip-rule="evenodd" d="M9.01332 15.9282C9.00913 15.9412 9.00497 15.9542 9.00084 15.9672C8.85899 16.4141 8.79644 16.8813 8.75739 17.3484C8.65337 18.5925 8.59633 19.8505 8.80054 21.0822C8.80879 21.132 8.81722 21.181 8.82581 21.2292C8.13845 21.1205 7.60569 20.5343 7.59055 19.8155L7.53939 17.3865C7.52246 16.5824 8.16015 15.9155 8.9668 15.8938L9.01257 15.8926L9.01332 15.9282Z" fill="white"/>
<path id="Rectangle 34625729" d="M15.195 11.7272C15.1833 11.4086 15.4321 11.141 15.7507 11.1294L17.9163 11.0505C18.2348 11.0389 18.5026 11.2878 18.5142 11.6064L15.195 11.7272Z" fill="white"/>
</g>
</g>
</g>
</g>
</g>
<defs>
<filter id="filter0_di_4670_98740" x="3.53906" y="7.53906" width="28.9121" height="26.2988" filterUnits="userSpaceOnUse" color-interpolation-filters="sRGB">
<feFlood flood-opacity="0" result="BackgroundImageFix"/>
<feColorMatrix in="SourceAlpha" type="matrix" values="0 0 0 0 0 0 0 0 0 0 0 0 0 0 0 0 0 0 127 0" result="hardAlpha"/>
<feOffset dy="4"/>
<feGaussianBlur stdDeviation="2"/>
<feComposite in2="hardAlpha" operator="out"/>
<feColorMatrix type="matrix" values="0 0 0 0 0.686523 0 0 0 0 0.47421 0 0 0 0 0.0620709 0 0 0 0.25 0"/>
<feBlend mode="normal" in2="BackgroundImageFix" result="effect1_dropShadow_4670_98740"/>
<feBlend mode="normal" in="SourceGraphic" in2="effect1_dropShadow_4670_98740" result="shape"/>
<feColorMatrix in="SourceAlpha" type="matrix" values="0 0 0 0 0 0 0 0 0 0 0 0 0 0 0 0 0 0 127 0" result="hardAlpha"/>
<feOffset/>
<feGaussianBlur stdDeviation="0.65"/>
<feComposite in2="hardAlpha" operator="arithmetic" k2="-1" k3="1"/>
<feColorMatrix type="matrix" values="0 0 0 0 0.504476 0 0 0 0 0.454028 0 0 0 0 0 0 0 0 0.25 0"/>
<feBlend mode="normal" in2="shape" result="effect2_innerShadow_4670_98740"/>
</filter>
<linearGradient id="paint0_linear_4670_98740" x1="30.1899" y1="5.47025" x2="7.69895" y2="31.4066" gradientUnits="userSpaceOnUse">
<stop stop-color="#FED64A"/>
<stop offset="0.123016" stop-color="#FEF14E"/>
<stop offset="0.248796" stop-color="#FFDF6C"/>
<stop offset="0.482583" stop-color="#FCFF67"/>
<stop offset="0.743348" stop-color="#FED545"/>
<stop offset="0.82597" stop-color="#FECA45"/>
<stop offset="1" stop-color="#FEED44"/>
</linearGradient>
<linearGradient id="paint1_linear_4670_98740" x1="14.6548" y1="1.02539" x2="18.7889" y2="35.0254" gradientUnits="userSpaceOnUse">
<stop stop-color="#FFF3C4"/>
<stop offset="0.483894" stop-color="#EDC071"/>
<stop offset="0.961122" stop-color="#BF8147"/>
</linearGradient>
<linearGradient id="paint2_linear_4670_98740" x1="14.9029" y1="5.68555" x2="26.1081" y2="27.8005" gradientUnits="userSpaceOnUse">
<stop stop-color="#C8892B"/>
<stop offset="0.979601" stop-color="#FFEDA3"/>
</linearGradient>
<linearGradient id="paint3_linear_4670_98740" x1="27.1611" y1="29.7805" x2="15.9421" y2="1.77707" gradientUnits="userSpaceOnUse">
<stop stop-color="#CF9700"/>
<stop offset="0.283038" stop-color="#D9B757"/>
<stop offset="0.661233" stop-color="#F4B420"/>
<stop offset="1" stop-color="#FFE269"/>
</linearGradient>
<linearGradient id="paint4_linear_4670_98740" x1="26.358" y1="28.8761" x2="15.9444" y2="2.97474" gradientUnits="userSpaceOnUse">
<stop stop-color="#DEA300"/>
<stop offset="0.280121" stop-color="#FFE8A8"/>
<stop offset="0.664251" stop-color="#F4C966"/>
<stop offset="1" stop-color="#FFEFAD"/>
</linearGradient>
<linearGradient id="paint5_linear_4670_98740" x1="16.4742" y1="12.2743" x2="24.0803" y2="24.6541" gradientUnits="userSpaceOnUse">
<stop stop-color="#FFD44F"/>
<stop offset="1" stop-color="#FFA607"/>
</linearGradient>
<linearGradient id="paint6_linear_4670_98740" x1="17.368" y1="17.3054" x2="24.2662" y2="25.7846" gradientUnits="userSpaceOnUse">
<stop stop-color="#FAA404"/>
<stop offset="1" stop-color="#FF7904" stop-opacity="0"/>
</linearGradient>
<clipPath id="clip0_4670_98740">
<rect width="34" height="34.7099" fill="white" transform="translate(1 1)"/>
</clipPath>
</defs>
</svg>
