<svg width="20" height="20" viewBox="0 0 20 20" fill="none" xmlns="http://www.w3.org/2000/svg">
<g id="Frame">
<path id="Vector" d="M15.8419 7.6684L10.5494 16.0976C10.4848 16.2 10.3953 16.2843 10.2892 16.3426C10.1831 16.4009 10.0639 16.4312 9.94283 16.4308C9.82177 16.4304 9.70279 16.3992 9.59709 16.3402C9.49139 16.2812 9.40243 16.1963 9.33857 16.0934L4.1494 7.66506C4.00427 7.42866 3.92754 7.15663 3.92773 6.87923C3.93432 6.46975 4.10304 6.07959 4.39689 5.79433C4.69074 5.50907 5.08573 5.352 5.49523 5.35757H14.5094C15.3702 5.35757 16.0702 6.03673 16.0702 6.8759C16.0702 7.15423 15.9919 7.42923 15.8419 7.6684ZM5.4244 7.38673L9.2844 13.3401V6.78673H5.82773C5.42773 6.78673 5.2494 7.0509 5.4244 7.38673ZM10.7136 13.3401L14.5744 7.38673C14.7527 7.0509 14.5702 6.78673 14.1702 6.78673H10.7136V13.3401Z" fill="white"/>
</g>
</svg>
