<svg width="436" height="435" viewBox="0 0 436 435" fill="none" xmlns="http://www.w3.org/2000/svg">
<g id="&#229;&#156;&#176;&#231;&#144;&#131;">
<g id="&#229;&#156;&#176;&#231;&#144;&#131;_2">
<g id="Group 1410068499">
<g id="Union">
<mask id="path-1-inside-1_4679_119341" fill="white">
<path d="M434.34 217.17C434.34 337.11 337.11 434.34 217.17 434.34C97.2303 434.34 0 337.11 0 217.17C0 97.2303 97.2303 0 217.17 0C337.11 0 434.34 97.2303 434.34 217.17Z"/>
</mask>
<path d="M434.34 217.17C434.34 337.11 337.11 434.34 217.17 434.34C97.2303 434.34 0 337.11 0 217.17C0 97.2303 97.2303 0 217.17 0C337.11 0 434.34 97.2303 434.34 217.17Z" fill="#080625" fill-opacity="0.24"/>
<path d="M430.34 217.17C430.34 334.9 334.9 430.34 217.17 430.34V438.34C339.319 438.34 438.34 339.319 438.34 217.17H430.34ZM217.17 430.34C99.4394 430.34 4 334.9 4 217.17H-4C-4 339.319 95.0212 438.34 217.17 438.34V430.34ZM4 217.17C4 99.4394 99.4394 4 217.17 4V-4C95.0212 -4 -4 95.0212 -4 217.17H4ZM217.17 4C334.9 4 430.34 99.4394 430.34 217.17H438.34C438.34 95.0212 339.319 -4 217.17 -4V4Z" fill="url(#paint0_radial_4679_119341)" mask="url(#path-1-inside-1_4679_119341)"/>
</g>
<path id="Union_2" d="M435.157 217.293C435.157 337.233 337.927 434.463 217.987 434.463C98.0477 434.463 0.817383 337.233 0.817383 217.293C0.817383 97.3534 98.0477 0.123047 217.987 0.123047C337.927 0.123047 435.157 97.3534 435.157 217.293Z" fill="url(#paint1_linear_4679_119341)" fill-opacity="0.24"/>
<path id="Union_3" d="M435.157 217.293C435.157 337.233 337.927 434.463 217.987 434.463C98.0477 434.463 0.817383 337.233 0.817383 217.293C0.817383 97.3534 98.0477 0.123047 217.987 0.123047C337.927 0.123047 435.157 97.3534 435.157 217.293Z" fill="url(#paint2_linear_4679_119341)" fill-opacity="0.24"/>
</g>
<g id="Group 1410068484">
<path id="Vector" d="M167.606 54.0522C159.407 60.5417 151.075 64.1275 146.305 58.0999C145.844 57.5279 145.47 56.912 145.14 56.252C142.107 50.1364 145.096 41.271 152.526 35.3974C160.726 28.9078 171.914 25.85 179.542 35.5074C179.586 35.5734 179.652 35.6394 179.674 35.7053C184.159 41.667 175.739 47.6286 167.606 54.0522Z" fill="#250C46"/>
<path id="Subtract" fill-rule="evenodd" clip-rule="evenodd" d="M178.503 34.2936C170.924 26.1296 160.361 29.1973 152.526 35.3981C145.319 41.0953 142.29 49.6075 144.883 55.6946C144.632 55.4442 144.389 55.1713 144.155 54.8753C143.693 54.3033 143.32 53.6874 142.99 53.0274C139.956 46.9118 142.946 38.0464 150.376 32.1728C158.575 25.6832 169.764 22.6254 177.392 32.2827C177.407 32.3047 177.424 32.3267 177.441 32.3487C177.475 32.3927 177.509 32.4367 177.524 32.4807C177.978 33.0849 178.3 33.689 178.503 34.2936Z" fill="#4F1A97"/>
</g>
<g id="Group 1410068485">
<path id="Vector_2" d="M257.664 47.8714C264.342 53.157 271.128 56.0776 275.013 51.1682C275.389 50.7023 275.693 50.2007 275.962 49.6631C278.433 44.6821 275.998 37.4613 269.946 32.6774C263.268 27.3917 254.155 24.9012 247.942 32.767C247.906 32.8207 247.853 32.8745 247.835 32.9282C244.182 37.7839 251.04 42.6395 257.664 47.8714Z" fill="#250C46"/>
<path id="Subtract_2" fill-rule="evenodd" clip-rule="evenodd" d="M248.788 31.7774C254.961 25.1283 263.565 27.6268 269.946 32.6772C275.816 37.3177 278.283 44.251 276.171 49.2089C276.375 49.0048 276.573 48.7825 276.764 48.5412C277.14 48.0754 277.444 47.5737 277.713 47.0362C280.184 42.0551 277.749 34.8344 271.697 30.0504C265.019 24.7648 255.906 22.2743 249.693 30.14C249.681 30.1579 249.667 30.1759 249.653 30.1938C249.626 30.2296 249.598 30.2654 249.586 30.3013C249.216 30.7932 248.954 31.2851 248.788 31.7774Z" fill="#4F1A97"/>
</g>
<g id="Group 1410068488">
<path id="Vector_3" d="M212.724 82.88C221.064 84.6039 228.439 84.1663 229.706 78.0351C229.832 77.45 229.879 76.8651 229.878 76.2642C229.848 70.7041 224.43 65.3458 216.875 63.7887C208.534 62.0649 199.273 63.9319 197.254 73.7498C197.247 73.8139 197.223 73.8861 197.231 73.9421C196.148 79.9208 204.455 81.1801 212.724 82.88Z" fill="#250C46"/>
<path id="Subtract_3" fill-rule="evenodd" clip-rule="evenodd" d="M197.566 72.4884C200.095 63.7732 208.905 62.1415 216.875 63.7888C224.203 65.2989 229.521 70.3849 229.861 75.7625C229.952 75.4892 230.028 75.2025 230.09 74.9023C230.217 74.3172 230.264 73.7323 230.262 73.1314C230.233 67.5713 224.815 62.2129 217.26 60.6559C208.919 58.9321 199.658 60.7991 197.639 70.617C197.637 70.6384 197.632 70.6606 197.628 70.6829C197.619 70.7274 197.61 70.7719 197.616 70.8093C197.506 71.4158 197.492 71.9737 197.566 72.4884Z" fill="#4F1A97"/>
</g>
<g id="Group 1410068486">
<path id="Vector_4" d="M100.117 84.5635C108.585 85.4773 115.883 84.3326 116.555 78.108C116.625 77.5135 116.615 76.9268 116.556 76.3288C115.992 70.7973 110.084 65.9848 102.414 65.1615C93.9461 64.2476 84.9075 66.9965 83.842 76.963C83.8403 77.0276 83.8235 77.1017 83.837 77.1567C83.3339 83.2118 91.7239 83.6664 100.117 84.5635Z" fill="#250C46"/>
<path id="Subtract_4" fill-rule="evenodd" clip-rule="evenodd" d="M84.0309 75.6773C85.7106 66.7609 94.3229 64.2899 102.414 65.1632C109.854 65.9617 115.636 70.5134 116.491 75.834C116.555 75.5526 116.604 75.2593 116.637 74.9537C116.707 74.3592 116.697 73.7725 116.638 73.1745C116.074 67.643 110.166 62.8305 102.496 62.0072C94.0281 61.0933 84.9895 63.8422 83.924 73.8087C83.9235 73.8303 83.9212 73.8528 83.919 73.8754C83.9145 73.9206 83.9101 73.9658 83.9191 74.0024C83.8681 74.6161 83.9084 75.1723 84.0309 75.6773Z" fill="#4F1A97"/>
</g>
<g id="Group 1410068487">
<path id="Vector_5" d="M343.83 88.4971C352.298 89.4109 359.596 88.2662 360.268 82.0416C360.338 81.4471 360.328 80.8603 360.269 80.2624C359.705 74.7309 353.797 69.9183 346.127 69.0951C337.659 68.1812 328.62 70.9301 327.555 80.8966C327.553 80.9612 327.536 81.0353 327.55 81.0903C327.047 87.1454 335.437 87.6 343.83 88.4971Z" fill="#250C46"/>
<path id="Subtract_5" fill-rule="evenodd" clip-rule="evenodd" d="M327.744 79.6089C329.424 70.6925 338.036 68.2216 346.127 69.0948C353.566 69.8934 359.349 74.4451 360.204 79.7657C360.268 79.4842 360.317 79.1909 360.35 78.8854C360.42 78.2908 360.41 77.7041 360.351 77.1061C359.787 71.5746 353.879 66.7621 346.209 65.9388C337.741 65.0249 328.702 67.7738 327.637 77.7404C327.636 77.7619 327.634 77.7845 327.632 77.8071C327.627 77.8522 327.623 77.8974 327.632 77.9341C327.581 78.5478 327.621 79.104 327.744 79.6089Z" fill="#4F1A97"/>
</g>
<g id="Union_4">
<mask id="path-15-inside-2_4679_119341" fill="white">
<path d="M434.34 217.17C434.34 337.11 337.11 434.34 217.17 434.34C97.2303 434.34 0 337.11 0 217.17C0 97.2303 97.2303 0 217.17 0C337.11 0 434.34 97.2303 434.34 217.17Z"/>
</mask>
<path d="M430.34 217.17C430.34 334.9 334.9 430.34 217.17 430.34V438.34C339.319 438.34 438.34 339.319 438.34 217.17H430.34ZM217.17 430.34C99.4394 430.34 4 334.9 4 217.17H-4C-4 339.319 95.0212 438.34 217.17 438.34V430.34ZM4 217.17C4 99.4394 99.4394 4 217.17 4V-4C95.0212 -4 -4 95.0212 -4 217.17H4ZM217.17 4C334.9 4 430.34 99.4394 430.34 217.17H438.34C438.34 95.0212 339.319 -4 217.17 -4V4Z" fill="url(#paint3_radial_4679_119341)" mask="url(#path-15-inside-2_4679_119341)"/>
</g>
</g>
<g id="Group 1410068487_2">
<path id="Vector_6" d="M386.118 168.565C394.586 169.479 401.884 168.335 402.556 162.11C402.626 161.515 402.616 160.929 402.557 160.331C401.993 154.799 396.085 149.987 388.415 149.163C379.947 148.25 370.908 150.998 369.843 160.965C369.841 161.03 369.825 161.104 369.838 161.159C369.335 167.214 377.725 167.668 386.118 168.565Z" fill="#250C46"/>
<path id="Subtract_6" fill-rule="evenodd" clip-rule="evenodd" d="M370.032 159.677C371.712 150.761 380.324 148.29 388.415 149.163C395.855 149.962 401.637 154.513 402.492 159.834C402.556 159.553 402.605 159.259 402.638 158.954C402.708 158.359 402.698 157.772 402.639 157.174C402.075 151.643 396.167 146.83 388.497 146.007C380.029 145.093 370.99 147.842 369.925 157.809C369.924 157.83 369.922 157.853 369.92 157.875C369.916 157.921 369.911 157.966 369.92 158.002C369.869 158.616 369.909 159.172 370.032 159.677Z" fill="#4F1A97"/>
</g>
<g id="Group 1410068487_3">
<path id="Vector_7" d="M401.583 231.642C404.327 223.579 404.806 216.207 398.879 214.191C398.314 213.993 397.74 213.874 397.143 213.801C391.622 213.141 385.634 217.854 383.153 225.158C380.41 233.221 381.115 242.642 390.607 245.861C390.67 245.877 390.739 245.91 390.795 245.909C396.594 247.724 398.872 239.636 401.583 231.642Z" fill="#250C46"/>
<path id="Subtract_7" fill-rule="evenodd" clip-rule="evenodd" d="M389.393 245.394C381.059 241.805 380.532 232.861 383.153 225.157C385.56 218.072 391.266 213.425 396.645 213.754C396.384 213.63 396.109 213.518 395.818 213.419C395.253 213.221 394.678 213.102 394.082 213.029C388.561 212.37 382.573 217.082 380.092 224.387C377.348 232.449 378.054 241.87 387.546 245.09C387.567 245.095 387.588 245.102 387.61 245.109C387.653 245.124 387.696 245.138 387.734 245.137C388.321 245.321 388.873 245.403 389.393 245.394Z" fill="#4F1A97"/>
</g>
<g id="Group 1410068499_2">
<path id="Vector_8" d="M308.606 324.052C300.407 330.542 292.075 334.127 287.305 328.1C286.844 327.528 286.47 326.912 286.14 326.252C283.107 320.136 286.096 311.271 293.526 305.397C301.726 298.908 312.914 295.85 320.542 305.507C320.586 305.573 320.652 305.639 320.674 305.705C325.159 311.667 316.739 317.629 308.606 324.052Z" fill="#250C46"/>
<path id="Subtract_8" fill-rule="evenodd" clip-rule="evenodd" d="M319.503 304.294C311.924 296.13 301.361 299.197 293.526 305.398C286.319 311.095 283.29 319.607 285.883 325.695C285.632 325.444 285.389 325.171 285.155 324.875C284.693 324.303 284.32 323.687 283.99 323.027C280.956 316.912 283.946 308.046 291.376 302.173C299.575 295.683 310.764 292.625 318.392 302.283C318.407 302.305 318.424 302.327 318.441 302.349C318.475 302.393 318.509 302.437 318.524 302.481C318.978 303.085 319.3 303.689 319.503 304.294Z" fill="#4F1A97"/>
</g>
<g id="Group 1410068502">
<path id="Vector_9" d="M392.606 308.052C384.407 314.542 376.075 318.127 371.305 312.1C370.844 311.528 370.47 310.912 370.14 310.252C367.107 304.136 370.096 295.271 377.526 289.397C385.726 282.908 396.914 279.85 404.542 289.507C404.586 289.573 404.652 289.639 404.674 289.705C409.159 295.667 400.739 301.629 392.606 308.052Z" fill="#250C46"/>
<path id="Subtract_9" fill-rule="evenodd" clip-rule="evenodd" d="M403.503 288.294C395.924 280.13 385.361 283.197 377.526 289.398C370.319 295.095 367.29 303.607 369.883 309.695C369.632 309.444 369.389 309.171 369.155 308.875C368.693 308.303 368.32 307.687 367.99 307.027C364.956 300.912 367.946 292.046 375.376 286.173C383.575 279.683 394.764 276.625 402.392 286.283C402.407 286.305 402.424 286.327 402.441 286.349C402.475 286.393 402.509 286.437 402.524 286.481C402.978 287.085 403.3 287.689 403.503 288.294Z" fill="#4F1A97"/>
</g>
<g id="Group 1410068501">
<path id="Vector_10" d="M246.156 388.574C243.591 401.766 238.468 412.237 228.77 410.351C227.841 410.18 226.961 409.892 226.087 409.524C218.01 406.099 213.505 394.951 215.834 383.004C218.399 369.812 226.751 357.464 242.274 360.497C242.372 360.525 242.491 360.534 242.568 360.58C251.931 362.64 248.711 375.502 246.156 388.574Z" fill="#250C46"/>
<path id="Subtract_10" fill-rule="evenodd" clip-rule="evenodd" d="M240.242 360.183C226.018 358.566 218.284 370.4 215.834 383.005C213.574 394.594 217.746 405.432 225.371 409.197C224.916 409.163 224.45 409.1 223.974 409.008C223.045 408.836 222.165 408.548 221.291 408.181C213.213 404.756 208.708 393.607 211.037 381.66C213.602 368.468 221.954 356.12 237.477 359.154C237.509 359.163 237.545 359.17 237.58 359.177C237.65 359.191 237.72 359.206 237.771 359.236C238.719 359.445 239.538 359.764 240.242 360.183Z" fill="#4F1A97"/>
</g>
<g id="Group 1410068486_2">
<path id="Vector_11" d="M63.8479 226.983C67.6205 217.162 68.5649 208.086 61.3454 205.313C60.6576 205.041 59.954 204.867 59.2213 204.749C52.4382 203.67 44.8212 209.2 41.4094 218.098C37.6368 227.919 38.0567 239.581 49.6192 244.009C49.6958 244.032 49.7789 244.075 49.8489 244.076C56.9193 246.595 60.1189 236.721 63.8479 226.983Z" fill="#250C46"/>
<path id="Subtract_11" fill-rule="evenodd" clip-rule="evenodd" d="M48.1419 243.376C38.0285 238.546 37.8056 227.481 41.4103 218.098C44.7198 209.467 51.9861 204.005 58.6099 204.669C58.2939 204.503 57.9589 204.352 57.6042 204.216C56.9164 203.944 56.2128 203.77 55.4801 203.651C48.697 202.572 41.08 208.103 37.6682 217C33.8956 226.821 34.3155 238.483 45.878 242.912C45.9035 242.919 45.9298 242.929 45.956 242.939C46.0085 242.958 46.061 242.978 46.1077 242.979C46.824 243.234 47.5005 243.362 48.1419 243.376Z" fill="#4F1A97"/>
</g>
<g id="Group 1410068497">
<path id="Vector_12" d="M314.201 260.398C325.957 261.666 336.089 260.077 337.021 251.435C337.118 250.61 337.105 249.795 337.023 248.965C336.24 241.286 328.037 234.604 317.389 233.461C305.633 232.193 293.085 236.009 291.605 249.846C291.603 249.935 291.58 250.038 291.598 250.115C290.9 258.521 302.548 259.152 314.201 260.398Z" fill="#250C46"/>
<path id="Subtract_12" fill-rule="evenodd" clip-rule="evenodd" d="M291.868 248.061C294.2 235.682 306.157 232.252 317.389 233.464C327.718 234.573 335.746 240.892 336.933 248.279C337.022 247.888 337.09 247.481 337.136 247.056C337.233 246.231 337.219 245.416 337.137 244.586C336.354 236.907 328.152 230.225 317.503 229.082C305.747 227.814 293.199 231.63 291.72 245.467C291.719 245.497 291.716 245.528 291.713 245.559C291.706 245.622 291.7 245.685 291.713 245.736C291.642 246.588 291.698 247.36 291.868 248.061Z" fill="#4F1A97"/>
</g>
<g id="Group 1410068488_2">
<path id="Vector_13" d="M189.412 211.056C201.289 213.511 211.79 212.888 213.594 204.157C213.775 203.324 213.841 202.491 213.839 201.636C213.798 193.718 206.082 186.088 195.324 183.871C183.447 181.416 170.26 184.075 167.385 198.055C167.374 198.147 167.34 198.249 167.351 198.329C165.809 206.843 177.639 208.636 189.412 211.056Z" fill="#250C46"/>
<path id="Subtract_13" fill-rule="evenodd" clip-rule="evenodd" d="M167.829 196.261C171.429 183.849 183.975 181.525 195.325 183.871C205.759 186.021 213.33 193.263 213.816 200.92C213.945 200.531 214.054 200.123 214.142 199.696C214.322 198.863 214.389 198.03 214.387 197.175C214.345 189.257 206.63 181.627 195.872 179.41C183.995 176.955 170.808 179.614 167.933 193.594C167.929 193.625 167.923 193.656 167.916 193.688C167.904 193.752 167.891 193.815 167.899 193.868C167.743 194.732 167.724 195.527 167.829 196.261Z" fill="#4F1A97"/>
</g>
<g id="Group 1410068498">
<path id="Vector_14" d="M175.194 263.871C177.998 255.829 178.533 248.461 172.621 246.4C172.058 246.197 171.484 246.074 170.889 245.997C165.373 245.295 159.349 249.962 156.813 257.248C154.009 265.29 154.643 274.716 164.111 278.007C164.173 278.023 164.241 278.056 164.298 278.055C170.083 279.914 172.422 271.844 175.194 263.871Z" fill="#250C46"/>
<path id="Subtract_14" fill-rule="evenodd" clip-rule="evenodd" d="M162.9 277.532C154.593 273.881 154.133 264.932 156.813 257.247C159.272 250.181 165.013 245.578 170.388 245.947C170.129 245.821 169.855 245.708 169.566 245.607C169.002 245.404 168.429 245.281 167.833 245.204C162.317 244.502 156.293 249.169 153.757 256.455C150.953 264.497 151.587 273.923 161.055 277.214C161.076 277.219 161.097 277.227 161.119 277.234C161.162 277.248 161.205 277.263 161.242 277.262C161.829 277.451 162.381 277.537 162.9 277.532Z" fill="#4F1A97"/>
</g>
<g id="Group 1410068484_2">
<path id="Vector_15" d="M112.606 190.052C104.407 196.542 96.0754 200.127 91.3053 194.1C90.8437 193.528 90.47 192.912 90.1403 192.252C87.1067 186.136 90.0963 177.271 97.5263 171.397C105.726 164.908 116.914 161.85 124.542 171.507C124.586 171.573 124.652 171.639 124.674 171.705C129.159 177.667 120.739 183.629 112.606 190.052Z" fill="#250C46"/>
<path id="Subtract_15" fill-rule="evenodd" clip-rule="evenodd" d="M123.503 170.294C115.924 162.13 105.361 165.197 97.5261 171.398C90.3192 177.095 87.2901 185.607 89.8831 191.695C89.6321 191.444 89.3892 191.171 89.1549 190.875C88.6933 190.303 88.3196 189.687 87.9899 189.027C84.9563 182.912 87.9459 174.046 95.3759 168.173C103.575 161.683 114.764 158.625 122.392 168.283C122.407 168.305 122.424 168.327 122.441 168.349C122.475 168.393 122.509 168.437 122.524 168.481C122.978 169.085 123.3 169.689 123.503 170.294Z" fill="#4F1A97"/>
</g>
<g id="Group 1410068500">
<path id="Vector_16" d="M126.606 359.052C118.407 365.542 110.075 369.127 105.305 363.1C104.844 362.528 104.47 361.912 104.14 361.252C101.107 355.136 104.096 346.271 111.526 340.397C119.726 333.908 130.914 330.85 138.542 340.507C138.586 340.573 138.652 340.639 138.674 340.705C143.159 346.667 134.739 352.629 126.606 359.052Z" fill="#250C46"/>
<path id="Subtract_16" fill-rule="evenodd" clip-rule="evenodd" d="M137.503 339.294C129.924 331.13 119.361 334.197 111.526 340.398C104.319 346.095 101.29 354.607 103.883 360.695C103.632 360.444 103.389 360.171 103.155 359.875C102.693 359.303 102.32 358.687 101.99 358.027C98.9563 351.912 101.946 343.046 109.376 337.173C117.575 330.683 128.764 327.625 136.392 337.283C136.407 337.305 136.424 337.327 136.441 337.349C136.475 337.393 136.509 337.437 136.524 337.481C136.978 338.085 137.3 338.689 137.503 339.294Z" fill="#4F1A97"/>
</g>
<g id="Group 1410068485_2">
<path id="Vector_17" d="M267.665 190.871C274.343 196.157 281.129 199.078 285.014 194.168C285.39 193.702 285.694 193.201 285.963 192.663C288.434 187.682 285.999 180.461 279.947 175.677C273.269 170.392 264.156 167.901 257.943 175.767C257.907 175.821 257.854 175.874 257.836 175.928C254.183 180.784 261.041 185.639 267.665 190.871Z" fill="#250C46"/>
<path id="Subtract_17" fill-rule="evenodd" clip-rule="evenodd" d="M258.789 174.777C264.962 168.128 273.566 170.627 279.947 175.677C285.817 180.318 288.284 187.251 286.172 192.209C286.376 192.005 286.574 191.782 286.765 191.541C287.141 191.075 287.445 190.574 287.714 190.036C290.185 185.055 287.75 177.834 281.698 173.05C275.02 167.765 265.907 165.274 259.694 173.14C259.682 173.158 259.668 173.176 259.654 173.194C259.626 173.23 259.599 173.265 259.587 173.301C259.217 173.793 258.955 174.285 258.789 174.777Z" fill="#4F1A97"/>
</g>
</g>
<defs>
<radialGradient id="paint0_radial_4679_119341" cx="0" cy="0" r="1" gradientUnits="userSpaceOnUse" gradientTransform="translate(225.771 -70.419) rotate(83.5081) scale(313.791 340.002)">
<stop stop-color="#6229BF"/>
<stop offset="1" stop-opacity="0"/>
</radialGradient>
<linearGradient id="paint1_linear_4679_119341" x1="217.987" y1="0.123047" x2="217.987" y2="205.279" gradientUnits="userSpaceOnUse">
<stop stop-color="#080625"/>
<stop offset="0.084068" stop-color="#0A072E"/>
<stop offset="1" stop-color="#1E178B"/>
</linearGradient>
<linearGradient id="paint2_linear_4679_119341" x1="217.987" y1="0.123047" x2="217.987" y2="205.279" gradientUnits="userSpaceOnUse">
<stop stop-color="#080625"/>
<stop offset="0.084068" stop-color="#0A072E"/>
<stop offset="1" stop-color="#1E178B"/>
</linearGradient>
<radialGradient id="paint3_radial_4679_119341" cx="0" cy="0" r="1" gradientUnits="userSpaceOnUse" gradientTransform="translate(225.771 -70.419) rotate(83.5081) scale(313.791 340.002)">
<stop stop-color="#6229BF"/>
<stop offset="1" stop-opacity="0"/>
</radialGradient>
</defs>
</svg>
