<svg width="38" height="38" viewBox="0 0 38 38" fill="none" xmlns="http://www.w3.org/2000/svg">
<g id="Group">
<path id="Vector" d="M19.0432 0H18.9567C8.48721 0 0 8.48722 0 18.9567V19.0433C0 29.5128 8.48721 38 18.9567 38H19.0432C29.5128 38 38 29.5128 38 19.0433V18.9567C38 8.48722 29.5128 0 19.0432 0Z" fill="#5865F2"/>
<path id="Vector_2" d="M28.5091 10.2765C26.7597 9.47372 24.8852 8.88261 22.9242 8.54445C22.8882 8.5378 22.8523 8.55377 22.835 8.58706C22.594 9.01574 22.3264 9.57623 22.14 10.0156C20.0312 9.70004 17.933 9.70004 15.8668 10.0156C15.6791 9.56558 15.4022 9.01574 15.1599 8.58706C15.1412 8.55511 15.1053 8.53913 15.0707 8.54445C13.111 8.88261 11.2351 9.47372 9.48579 10.2765C9.47114 10.2832 9.45783 10.2938 9.44851 10.3085C5.89121 15.6231 4.91665 20.8073 5.3946 25.9276C5.39726 25.9529 5.41058 25.9768 5.43055 25.9915C7.77767 27.7155 10.0516 28.7619 12.2829 29.4556C12.3188 29.4662 12.3561 29.4529 12.3788 29.4236C12.906 28.7034 13.3773 27.9432 13.7806 27.1431C13.8046 27.0965 13.7806 27.0405 13.7327 27.0219C12.9858 26.7383 12.2762 26.3935 11.5919 26.0021C11.5373 25.9702 11.5334 25.8929 11.5826 25.8557C11.7264 25.7478 11.8702 25.636 12.0073 25.5228C12.0326 25.5015 12.0672 25.4975 12.0965 25.5109C16.5871 27.5611 21.4491 27.5611 25.8864 25.5109C25.9157 25.4962 25.9503 25.5015 25.9756 25.5215C26.1127 25.6347 26.2565 25.7478 26.4016 25.8557C26.4508 25.8929 26.4482 25.9702 26.3936 26.0021C25.7106 26.4015 24.9997 26.7397 24.2515 27.0219C24.2022 27.0405 24.1809 27.0965 24.2049 27.1444C24.6176 27.9419 25.0876 28.702 25.6054 29.4236C25.6268 29.4542 25.6654 29.4676 25.7013 29.4569C27.9433 28.7633 30.2172 27.7169 32.5643 25.9928C32.5843 25.9782 32.5976 25.9542 32.6002 25.9302C33.1727 20.0112 31.6417 14.8696 28.5437 10.3111C28.5357 10.2965 28.5237 10.2845 28.5077 10.2778L28.5091 10.2765ZM14.4489 22.8096C13.0963 22.8096 11.9834 21.5688 11.9834 20.0444C11.9834 18.5201 13.0763 17.2793 14.4489 17.2793C15.8215 17.2793 16.9372 18.5321 16.9146 20.0444C16.9146 21.5688 15.8215 22.8096 14.4489 22.8096ZM23.5672 22.8096C22.2146 22.8096 21.1016 21.5688 21.1016 20.0444C21.1016 18.5201 22.1946 17.2793 23.5672 17.2793C24.9398 17.2793 26.0554 18.5321 26.0328 20.0444C26.0328 21.5688 24.9518 22.8096 23.5672 22.8096Z" fill="white"/>
</g>
</svg>
