<svg width="38" height="38" viewBox="0 0 38 38" fill="none" xmlns="http://www.w3.org/2000/svg">
<g id="Medium">
<rect width="38" height="38" rx="19" fill="black"/>
<g id="Group">
<path id="Vector" d="M20.7932 19.3604C20.7932 23.7567 17.2599 27.3206 12.9016 27.3206C8.54332 27.3206 5.00977 23.7559 5.00977 19.3604C5.00977 14.9649 8.54305 11.3999 12.9016 11.3999C17.2602 11.3999 20.7932 14.9641 20.7932 19.3604Z" fill="white"/>
<path id="Vector_2" d="M29.4504 19.3604C29.4504 23.4986 27.6838 26.8546 25.5045 26.8546C23.3252 26.8546 21.5586 23.4986 21.5586 19.3604C21.5586 15.2222 23.325 11.8662 25.5043 11.8662C27.6835 11.8662 29.4502 15.2211 29.4502 19.3604" fill="white"/>
<path id="Vector_3" d="M32.9921 19.3603C32.9921 23.0671 32.3709 26.0739 31.6043 26.0739C30.8378 26.0739 30.2168 23.0679 30.2168 19.3603C30.2168 15.6527 30.838 12.6467 31.6043 12.6467C32.3706 12.6467 32.9921 15.6525 32.9921 19.3603Z" fill="white"/>
</g>
</g>
</svg>
