<svg width="38" height="38" viewBox="0 0 38 38" fill="none" xmlns="http://www.w3.org/2000/svg">
<g id="Group">
<path id="Vector" d="M19.0433 0H18.9567C8.48721 0 0 8.48722 0 18.9567V19.0433C0 29.5128 8.48721 38 18.9567 38H19.0433C29.5128 38 38 29.5128 38 19.0433V18.9567C38 8.48722 29.5128 0 19.0433 0Z" fill="#00B0F2"/>
<path id="Vector_2" d="M7.19712 18.3513C7.25037 18.3247 7.30365 18.2994 7.35557 18.2754C8.25821 17.8574 9.17283 17.466 10.0861 17.0746C10.1354 17.0746 10.2179 17.0173 10.2645 16.9987C10.3351 16.9681 10.4056 16.9388 10.4762 16.9082L10.8822 16.7337C11.1538 16.6179 11.4241 16.5021 11.6957 16.3863C12.2375 16.1546 12.7794 15.923 13.3212 15.69C14.4049 15.2267 15.49 14.7621 16.5737 14.2988C17.6574 13.8355 18.7424 13.3708 19.8261 12.9075C20.9098 12.4442 21.9948 11.9796 23.0785 11.5163C24.1622 11.053 25.2473 10.5884 26.3309 10.1251C26.5719 10.0212 26.8329 9.86678 27.0911 9.82151C27.3081 9.7829 27.5198 9.70835 27.7381 9.66708C28.1522 9.58853 28.6088 9.55658 29.0056 9.72832C29.1427 9.78823 29.2692 9.8721 29.3743 9.97728C29.8776 10.4752 29.807 11.2926 29.7005 11.9929C28.959 16.8735 28.2174 21.7555 27.4745 26.6361C27.3734 27.3058 27.2349 28.0407 26.7064 28.464C26.259 28.8222 25.6227 28.8621 25.0702 28.7103C24.5177 28.5572 24.0304 28.2364 23.5525 27.9209C21.5701 26.6082 19.5865 25.2955 17.6041 23.9828C17.1328 23.6713 16.6083 23.2639 16.6136 22.6981C16.6163 22.3573 16.8199 22.0537 17.0276 21.7835C18.7504 19.5362 21.236 17.9919 23.0852 15.8484C23.3461 15.5462 23.5511 15.0004 23.193 14.826C22.98 14.7221 22.735 14.8632 22.5406 14.9977C20.0963 16.6951 17.6534 18.3939 15.2091 20.0914C14.4116 20.6452 13.5755 21.215 12.6143 21.3508C11.7543 21.4733 10.8889 21.2336 10.0568 20.9887C9.35922 20.7836 8.66291 20.5733 7.96929 20.3563C7.60051 20.2418 7.21975 20.118 6.93485 19.8584C6.64995 19.5988 6.48621 19.1621 6.65796 18.8159C6.76579 18.5989 6.97481 18.4618 7.19448 18.35L7.19712 18.3513Z" fill="#FEFFFC"/>
</g>
</svg>
