<svg width="38" height="38" viewBox="0 0 38 38" fill="none" xmlns="http://www.w3.org/2000/svg">
<g id="Group">
<path id="Vector" d="M37.9973 19.0007C37.9973 28.5969 30.8843 36.5302 21.6439 37.8176C20.7799 37.9374 19.8959 38 18.9987 38C17.9629 38 16.9458 37.9175 15.9554 37.7577C6.90933 36.3012 0 28.4571 0 19.0007C0 8.50717 8.50686 0 19 0C29.4931 0 38 8.50717 38 19.0007H37.9973Z" fill="#1C1C1B"/>
<g id="layer1">
<path id="path1009" d="M7.70498 8.38086L16.4674 20.0965L7.65039 29.6221H9.63533L17.3554 21.2827L23.5924 29.6221H30.346L21.091 17.2475L29.2983 8.38086H27.3134L20.2043 16.0613L14.4599 8.38086H7.70629H7.70498ZM10.6231 9.84265H13.725L27.4252 28.1604H24.3233L10.6231 9.84265Z" fill="white"/>
</g>
</g>
</svg>
