<svg width="38" height="38" viewBox="0 0 38 38" fill="none" xmlns="http://www.w3.org/2000/svg">
<g id="Button">
<g id="Rectangle 2.1" filter="url(#filter0_ii_3987_77260)">
<rect width="38" height="38" rx="19" fill="#FFCF15"/>
</g>
<g id="Icon" clip-path="url(#clip0_3987_77260)">
<g id="Group 69">
<g id="star 5" clip-path="url(#clip1_3987_77260)">
<g id="Layer 2">
<g id="star">
<g id="Vector" filter="url(#filter1_i_3987_77260)">
<path d="M23.4018 26.125C23.2752 26.1255 23.1504 26.0956 23.0377 26.0379L19.0002 23.9242L14.9627 26.0379C14.8316 26.1069 14.6838 26.1376 14.536 26.1267C14.3883 26.1159 14.2466 26.0637 14.127 25.9763C14.0074 25.8889 13.9148 25.7697 13.8596 25.6322C13.8044 25.4948 13.7889 25.3446 13.8148 25.1988L14.6064 20.7417L11.3448 17.575C11.243 17.4734 11.1708 17.3461 11.1359 17.2066C11.1011 17.0672 11.1048 16.9208 11.1468 16.7833C11.1927 16.6426 11.2771 16.5176 11.3905 16.4225C11.5038 16.3273 11.6416 16.2658 11.7881 16.245L16.3006 15.5879L18.2877 11.5267C18.3525 11.3928 18.4537 11.2799 18.5797 11.201C18.7057 11.122 18.8515 11.0801 19.0002 11.0801C19.1489 11.0801 19.2946 11.122 19.4206 11.201C19.5466 11.2799 19.6479 11.3928 19.7127 11.5267L21.7235 15.58L26.236 16.2371C26.3825 16.2579 26.5203 16.3194 26.6336 16.4145C26.747 16.5097 26.8314 16.6347 26.8773 16.7754C26.9193 16.9129 26.923 17.0592 26.8882 17.1987C26.8533 17.3382 26.7811 17.4655 26.6793 17.5671L23.4177 20.7338L24.2093 25.1908C24.2376 25.3393 24.2228 25.4927 24.1667 25.6329C24.1106 25.7732 24.0155 25.8945 23.8927 25.9825C23.7493 26.083 23.5767 26.1331 23.4018 26.125V26.125Z" fill="white"/>
</g>
</g>
</g>
</g>
</g>
</g>
</g>
<defs>
<filter id="filter0_ii_3987_77260" x="0" y="-2" width="38" height="40" filterUnits="userSpaceOnUse" color-interpolation-filters="sRGB">
<feFlood flood-opacity="0" result="BackgroundImageFix"/>
<feBlend mode="normal" in="SourceGraphic" in2="BackgroundImageFix" result="shape"/>
<feColorMatrix in="SourceAlpha" type="matrix" values="0 0 0 0 0 0 0 0 0 0 0 0 0 0 0 0 0 0 127 0" result="hardAlpha"/>
<feOffset dy="-2"/>
<feGaussianBlur stdDeviation="1"/>
<feComposite in2="hardAlpha" operator="arithmetic" k2="-1" k3="1"/>
<feColorMatrix type="matrix" values="0 0 0 0 0.0550377 0 0 0 0 0.0459944 0 0 0 0 0.0552083 0 0 0 0.2 0"/>
<feBlend mode="normal" in2="shape" result="effect1_innerShadow_3987_77260"/>
<feColorMatrix in="SourceAlpha" type="matrix" values="0 0 0 0 0 0 0 0 0 0 0 0 0 0 0 0 0 0 127 0" result="hardAlpha"/>
<feOffset dy="-1"/>
<feGaussianBlur stdDeviation="2"/>
<feComposite in2="hardAlpha" operator="arithmetic" k2="-1" k3="1"/>
<feColorMatrix type="matrix" values="0 0 0 0 0 0 0 0 0 0 0 0 0 0 0 0 0 0 0.25 0"/>
<feBlend mode="normal" in2="effect1_innerShadow_3987_77260" result="effect2_innerShadow_3987_77260"/>
</filter>
<filter id="filter1_i_3987_77260" x="11.1123" y="10.0801" width="15.7998" height="16.0488" filterUnits="userSpaceOnUse" color-interpolation-filters="sRGB">
<feFlood flood-opacity="0" result="BackgroundImageFix"/>
<feBlend mode="normal" in="SourceGraphic" in2="BackgroundImageFix" result="shape"/>
<feColorMatrix in="SourceAlpha" type="matrix" values="0 0 0 0 0 0 0 0 0 0 0 0 0 0 0 0 0 0 127 0" result="hardAlpha"/>
<feOffset dy="-1"/>
<feGaussianBlur stdDeviation="0.9"/>
<feComposite in2="hardAlpha" operator="arithmetic" k2="-1" k3="1"/>
<feColorMatrix type="matrix" values="0 0 0 0 0 0 0 0 0 0 0 0 0 0 0 0 0 0 0.25 0"/>
<feBlend mode="normal" in2="shape" result="effect1_innerShadow_3987_77260"/>
</filter>
<clipPath id="clip0_3987_77260">
<rect width="19" height="19" fill="white" transform="translate(9.5 9.5)"/>
</clipPath>
<clipPath id="clip1_3987_77260">
<rect width="19" height="19" fill="white" transform="translate(9.5 9.5)"/>
</clipPath>
</defs>
</svg>
