<svg width="187" height="135" viewBox="0 0 187 135" fill="none" xmlns="http://www.w3.org/2000/svg">
<g id="Level">
<g id="Level_2">
<path id="Vector 1715" d="M8.5 9L1 17V74.5L47 83.5L51.5 78.5V93.6819C51.5 98.5273 52.0227 103.56 54.9619 107.412C58.8356 112.489 65.4807 116.7 75 112.5V116L87.5 117.5L92 112V132L105.5 134L111 128V122C114.667 123.833 123.6 125.2 130 116V124.5L161 128L167 122V118" stroke="#9860E4"/>
<path id="Vector 1706" d="M54 25L59.5 22L67.5 52L79 53.5L89 26.5L89.5 27L78.5 57L62 54.5L54 25Z" fill="url(#paint0_linear_4166_92231)"/>
<path id="Vector 1701" d="M28 3.5L13.5 1V58.5L58.5 68V54.5L28 48.5V3.5Z" fill="url(#paint1_linear_4166_92231)" stroke="url(#paint2_linear_4166_92231)"/>
<path id="Vector 1702" d="M7 8L13.5 1V58.5L58.5 68L56.5 76L7 65V8Z" fill="url(#paint3_linear_4166_92231)"/>
<path id="Vector 1703" d="M140.878 27.0339L35.8182 11.3462C34.4859 11.1472 33.5 10.0031 33.5 8.65613C33.5 6.99403 34.9776 5.72064 36.6215 5.96611L141.682 21.6538C143.014 21.8528 144 22.9969 144 24.3439C144 26.006 142.522 27.2794 140.878 27.0339Z" fill="url(#paint4_linear_4166_92231)"/>
<path id="Vector 1705" d="M126 31L115.5 29.5V59.5L137 63V53L126 51.5V31Z" fill="url(#paint5_linear_4166_92231)" stroke="url(#paint6_linear_4166_92231)"/>
<path id="Vector 1707" d="M112 32.5L115.5 29.5V59.5L137 63V67L112 62.5V32.5Z" fill="url(#paint7_linear_4166_92231)"/>
<g id="Group 1410068328">
<rect id="Rectangle 34625720" x="96.2549" y="35.0479" width="6" height="8" transform="rotate(-1.4457 96.2549 35.0479)" fill="#AB58FA"/>
<path id="e" d="M96.1241 29.0587L103.36 30.1641C109.173 31.0521 111.704 33.9476 110.955 38.8507L109.415 48.9337L94.2906 46.6232L93.6926 50.5378C93.5597 51.4077 93.9875 51.9182 94.976 52.0692L97.5857 52.4679C98.5743 52.6189 99.141 52.2199 99.286 51.2709L99.5397 49.6102L109.089 51.069L108.681 53.738C107.932 58.6411 104.651 60.6487 98.8388 59.7607L91.6027 58.6553C85.7902 57.7673 83.2584 54.8718 84.0074 49.9687L86.2817 35.0814C87.0307 30.1783 90.3115 28.1707 96.1241 29.0587ZM95.1242 41.1665L100.699 42.0182L101.27 38.2816C101.403 37.4117 100.975 36.9012 99.9869 36.7502L97.3771 36.3515C96.3886 36.2005 95.8279 36.56 95.695 37.4299L95.1242 41.1665Z" fill="url(#paint8_linear_4166_92231)"/>
<g id="e_2">
<path d="M98.1153 29.2371L105.351 30.3426C111.164 31.2305 113.696 34.1261 112.947 39.0292L111.406 49.1122L96.2818 46.8017L95.6838 50.7163C95.5509 51.5862 95.9787 52.0966 96.9672 52.2477L99.5769 52.6463C100.565 52.7974 101.132 52.3984 101.277 51.4494L101.531 49.7886L111.08 51.2474L110.672 53.9165C109.923 58.8196 106.643 60.8272 100.83 59.9392L93.5939 58.8338C87.7814 57.9458 85.2496 55.0503 85.9986 50.1472L88.2729 35.2599C89.0219 30.3568 92.3027 28.3492 98.1153 29.2371ZM97.1154 41.345L102.691 42.1967L103.262 38.4601C103.394 37.5902 102.967 37.0797 101.978 36.9287L99.3684 36.53C98.3798 36.379 97.8191 36.7384 97.6862 37.6083L97.1154 41.345Z" fill="url(#paint9_linear_4166_92231)"/>
<path d="M111.406 49.1122L111.331 49.6065L111.825 49.682L111.901 49.1877L111.406 49.1122ZM96.2818 46.8017L96.3573 46.3074L95.863 46.2319L95.7875 46.7262L96.2818 46.8017ZM101.531 49.7886L101.606 49.2944L101.112 49.2189L101.037 49.7131L101.531 49.7886ZM111.08 51.2474L111.574 51.3229L111.65 50.8287L111.156 50.7532L111.08 51.2474ZM97.1154 41.345L96.6211 41.2695L96.5456 41.7638L97.0399 41.8393L97.1154 41.345ZM102.691 42.1967L102.615 42.691L103.109 42.7665L103.185 42.2722L102.691 42.1967ZM98.0398 29.7314L105.276 30.8368L105.427 29.8483L98.1908 28.7429L98.0398 29.7314ZM105.276 30.8368C108.125 31.272 110.077 32.1868 111.233 33.5093C112.376 34.8157 112.812 36.6024 112.452 38.9537L113.441 39.1047C113.831 36.5528 113.375 34.4402 111.986 32.8511C110.611 31.278 108.391 30.3011 105.427 29.8483L105.276 30.8368ZM112.452 38.9537L110.912 49.0367L111.901 49.1877L113.441 39.1047L112.452 38.9537ZM111.482 48.6179L96.3573 46.3074L96.2063 47.296L111.331 49.6065L111.482 48.6179ZM95.7875 46.7262L95.1895 50.6408L96.178 50.7918L96.776 46.8772L95.7875 46.7262ZM95.1895 50.6408C95.1087 51.1695 95.1882 51.6748 95.5218 52.0727C95.8448 52.4582 96.3357 52.657 96.8917 52.7419L97.0427 51.7534C96.6102 51.6873 96.3929 51.5553 96.2882 51.4304C96.1939 51.3179 96.1259 51.133 96.178 50.7918L95.1895 50.6408ZM96.8917 52.7419L99.5014 53.1406L99.6525 52.1521L97.0427 51.7534L96.8917 52.7419ZM99.5014 53.1406C100.067 53.227 100.603 53.1704 101.031 52.8692C101.463 52.565 101.687 52.0808 101.771 51.5249L100.783 51.3739C100.723 51.7669 100.59 51.9567 100.456 52.0515C100.317 52.1493 100.075 52.2167 99.6525 52.1521L99.5014 53.1406ZM101.771 51.5249L102.025 49.8641L101.037 49.7131L100.783 51.3739L101.771 51.5249ZM101.455 50.2829L111.005 51.7417L111.156 50.7532L101.606 49.2944L101.455 50.2829ZM110.586 51.1719L110.178 53.841L111.167 53.992L111.574 51.3229L110.586 51.1719ZM110.178 53.841C109.819 56.1922 108.869 57.7672 107.389 58.673C105.891 59.5899 103.754 59.8801 100.906 59.4449L100.754 60.4335C103.718 60.8862 106.129 60.6166 107.911 59.526C109.712 58.4242 110.777 56.5439 111.167 53.992L110.178 53.841ZM100.906 59.4449L93.6694 58.3395L93.5184 59.328L100.754 60.4335L100.906 59.4449ZM93.6694 58.3395C90.8208 57.9043 88.8684 56.9895 87.7121 55.667C86.5698 54.3606 86.1337 52.5739 86.4929 50.2227L85.5044 50.0717C85.1145 52.6235 85.5698 54.7362 86.9593 56.3253C88.3347 57.8983 90.5545 58.8753 93.5184 59.328L93.6694 58.3395ZM86.4929 50.2227L88.7672 35.3354L87.7786 35.1844L85.5044 50.0717L86.4929 50.2227ZM88.7672 35.3354C89.1264 32.9841 90.076 31.4091 91.5563 30.5033C93.0547 29.5864 95.1911 29.2962 98.0398 29.7314L98.1908 28.7429C95.2269 28.2901 92.8167 28.5597 91.0343 29.6504C89.2338 30.7521 88.1685 32.6325 87.7786 35.1844L88.7672 35.3354ZM97.0399 41.8393L102.615 42.691L102.766 41.7024L97.1909 40.8507L97.0399 41.8393ZM103.185 42.2722L103.756 38.5356L102.767 38.3846L102.196 42.1212L103.185 42.2722ZM103.756 38.5356C103.837 38.0069 103.757 37.5016 103.424 37.1036C103.1 36.7181 102.61 36.5194 102.054 36.4344L101.903 37.4229C102.335 37.489 102.552 37.621 102.657 37.746C102.751 37.8585 102.819 38.0434 102.767 38.3846L103.756 38.5356ZM102.054 36.4344L99.4439 36.0357L99.2928 37.0243L101.903 37.4229L102.054 36.4344ZM99.4439 36.0357C98.8878 35.9508 98.36 35.9939 97.9366 36.2654C97.4995 36.5456 97.2727 37.0041 97.1919 37.5328L98.1805 37.6839C98.2326 37.3427 98.3527 37.1865 98.4763 37.1073C98.6135 37.0193 98.8603 36.9582 99.2928 37.0243L99.4439 36.0357ZM97.1919 37.5328L96.6211 41.2695L97.6096 41.4205L98.1805 37.6839L97.1919 37.5328Z" fill="url(#paint10_linear_4166_92231)"/>
</g>
</g>
<g id="Group 1410068329">
<rect id="Rectangle 34625720_2" x="42.8232" y="25.1487" width="6" height="8" transform="rotate(-4.01497 42.8232 25.1487)" fill="#AB58FA"/>
<path id="e_3" d="M42.4241 19.1714L49.7025 19.9513C55.549 20.5778 58.208 23.3569 57.6795 28.2887L56.5927 38.4306L41.3798 36.8004L40.9579 40.7379C40.8641 41.6129 41.3144 42.1037 42.3087 42.2102L44.9337 42.4915C45.928 42.598 46.4763 42.1741 46.5786 41.2195L46.7576 39.5491L56.3626 40.5783L56.0749 43.263C55.5464 48.1947 52.3589 50.3474 46.5124 49.7209L39.2341 48.9409C33.3875 48.3144 30.7285 45.5353 31.257 40.6035L32.8616 25.6292C33.3901 20.6975 36.5776 18.5448 42.4241 19.1714ZM41.968 31.3119L47.5759 31.9128L47.9786 28.1543C48.0724 27.2793 47.6221 26.7886 46.6278 26.682L44.0028 26.4007C43.0085 26.2942 42.4645 26.6784 42.3707 27.5534L41.968 31.3119Z" fill="url(#paint11_linear_4166_92231)"/>
<g id="e_4">
<path d="M44.4222 19.2602L51.7005 20.0402C57.5471 20.6667 60.2061 23.4458 59.6776 28.3776L58.5908 38.5195L43.3779 36.8893L42.9559 40.8268C42.8622 41.7018 43.3125 42.1925 44.3068 42.2991L46.9317 42.5804C47.926 42.6869 48.4743 42.2629 48.5766 41.3084L48.7556 39.6379L58.3606 40.6672L58.073 43.3518C57.5445 48.2836 54.357 50.4362 48.5104 49.8097L41.2321 49.0298C35.3856 48.4033 32.7266 45.6241 33.255 40.6924L34.8597 25.7181C35.3882 20.7863 38.5757 18.6337 44.4222 19.2602ZM43.966 31.4007L49.5739 32.0017L49.9767 28.2432C50.0704 27.3682 49.6202 26.8774 48.6259 26.7709L46.0009 26.4896C45.0066 26.383 44.4626 26.7673 44.3688 27.6422L43.966 31.4007Z" fill="url(#paint12_linear_4166_92231)"/>
<path d="M58.5908 38.5195L58.5375 39.0167L59.0347 39.0699L59.0879 38.5728L58.5908 38.5195ZM43.3779 36.8893L43.4312 36.3922L42.934 36.3389L42.8807 36.836L43.3779 36.8893ZM48.7556 39.6379L48.8089 39.1408L48.3118 39.0875L48.2585 39.5847L48.7556 39.6379ZM58.3606 40.6672L58.8578 40.7205L58.9111 40.2233L58.4139 40.1701L58.3606 40.6672ZM43.966 31.4007L43.4689 31.3475L43.4156 31.8446L43.9128 31.8979L43.966 31.4007ZM49.5739 32.0017L49.5207 32.4988L50.0178 32.5521L50.0711 32.0549L49.5739 32.0017ZM44.3689 19.7574L51.6472 20.5373L51.7538 19.543L44.4755 18.7631L44.3689 19.7574ZM51.6472 20.5373C54.5126 20.8444 56.504 21.6707 57.7184 22.9401C58.9181 24.194 59.4339 25.9593 59.1804 28.3243L60.1747 28.4308C60.4498 25.8641 59.9003 23.774 58.441 22.2487C56.9964 20.7389 54.735 19.8625 51.7538 19.543L51.6472 20.5373ZM59.1804 28.3243L58.0936 38.4662L59.0879 38.5728L60.1747 28.4308L59.1804 28.3243ZM58.6441 38.0224L43.4312 36.3922L43.3246 37.3865L58.5375 39.0167L58.6441 38.0224ZM42.8807 36.836L42.4588 40.7735L43.4531 40.88L43.875 36.9426L42.8807 36.836ZM42.4588 40.7735C42.4018 41.3053 42.5039 41.8065 42.8549 42.1891C43.1949 42.5597 43.6942 42.7363 44.2535 42.7962L44.36 41.8019C43.925 41.7553 43.702 41.6332 43.5918 41.5131C43.4925 41.4049 43.4163 41.2232 43.4531 40.88L42.4588 40.7735ZM44.2535 42.7962L46.8785 43.0775L46.985 42.0832L44.36 41.8019L44.2535 42.7962ZM46.8785 43.0775C47.4473 43.1385 47.9807 43.0579 48.3946 42.7378C48.8126 42.4146 49.0139 41.9208 49.0738 41.3617L48.0795 41.2551C48.0371 41.6505 47.9131 41.846 47.7828 41.9467C47.6484 42.0507 47.4105 42.1288 46.985 42.0832L46.8785 43.0775ZM49.0738 41.3617L49.2528 39.6912L48.2585 39.5847L48.0795 41.2551L49.0738 41.3617ZM48.7024 40.1351L58.3074 41.1644L58.4139 40.1701L48.8089 39.1408L48.7024 40.1351ZM57.8635 40.6139L57.5758 43.2986L58.5701 43.4051L58.8578 40.7205L57.8635 40.6139ZM57.5758 43.2986C57.3224 45.6635 56.4443 47.2795 55.0061 48.2508C53.5503 49.2339 51.429 49.6196 48.5637 49.3126L48.4572 50.3069C51.4384 50.6263 53.8341 50.249 55.5658 49.0795C57.3151 47.8981 58.2951 45.9719 58.5701 43.4051L57.5758 43.2986ZM48.5637 49.3126L41.2854 48.5326L41.1788 49.5269L48.4572 50.3069L48.5637 49.3126ZM41.2854 48.5326C38.4201 48.2256 36.4287 47.3992 35.2142 46.1299C34.0145 44.876 33.4988 43.1106 33.7522 40.7457L32.7579 40.6391C32.4828 43.2059 33.0324 45.296 34.4917 46.8212C35.9362 48.331 38.1976 49.2075 41.1788 49.5269L41.2854 48.5326ZM33.7522 40.7457L35.3568 25.7714L34.3625 25.6648L32.7579 40.6391L33.7522 40.7457ZM35.3568 25.7714C35.6103 23.4064 36.4883 21.7904 37.9265 20.8192C39.3823 19.836 41.5036 19.4503 44.3689 19.7574L44.4755 18.7631C41.4943 18.4436 39.0985 18.821 37.3668 19.9905C35.6175 21.1718 34.6376 23.098 34.3625 25.6648L35.3568 25.7714ZM43.9128 31.8979L49.5207 32.4988L49.6272 31.5045L44.0193 30.9036L43.9128 31.8979ZM50.0711 32.0549L50.4738 28.2965L49.4795 28.1899L49.0768 31.9484L50.0711 32.0549ZM50.4738 28.2965C50.5308 27.7647 50.4288 27.2634 50.0777 26.8808C49.7377 26.5102 49.2384 26.3337 48.6791 26.2737L48.5726 27.268C49.0076 27.3146 49.2306 27.4367 49.3409 27.5569C49.4401 27.6651 49.5163 27.8467 49.4795 28.1899L50.4738 28.2965ZM48.6791 26.2737L46.0542 25.9924L45.9476 26.9867L48.5726 27.268L48.6791 26.2737ZM46.0542 25.9924C45.4949 25.9325 44.9695 25.9993 44.5587 26.2894C44.1346 26.589 43.9286 27.0572 43.8716 27.589L44.8659 27.6955C44.9027 27.3523 45.0157 27.1909 45.1356 27.1063C45.2688 27.0122 45.5126 26.9401 45.9476 26.9867L46.0542 25.9924ZM43.8716 27.589L43.4689 31.3475L44.4632 31.454L44.8659 27.6955L43.8716 27.589Z" fill="url(#paint13_linear_4166_92231)"/>
</g>
</g>
<path id="Vector 1709" d="M54.5009 61.5L60.4997 55.5L62.0006 57L64.0006 84.5L83.0006 97.5V100L97.0006 102L91.5006 108L79.5006 105.5V103.5C67.9006 107.1 61.7548 102.179 58.9997 99C52.5 91.5 53.6676 70.8333 54.5009 61.5Z" fill="url(#paint14_linear_4166_92231)"/>
<path id="Vector 1708" d="M74 58L60.5 55.5V79.3532C60.5 82.7611 60.9272 86.2249 62.5185 89.2384C68.5637 100.686 78.3927 99.7293 83 97.5V100L97 102V61L83 59V80.9403C83 83.2062 81.3489 86.1927 79.0839 86.2518C74.6512 86.3677 74 81.1115 74 76.6774V58Z" fill="url(#paint15_linear_4166_92231)" stroke="url(#paint16_linear_4166_92231)"/>
<g id="Group 1410068327">
<path id="Vector 1711" d="M97.5 65L101.5 62V115L115.5 118L109.5 125L97.5 122V65Z" fill="url(#paint17_linear_4166_92231)"/>
<path id="Vector 1712" d="M143 93C139.8 100.2 121.167 105.333 115.5 102.5V112C118.5 113 122.5 113.167 125.5 113C136.3 112.2 144 96.5 143 93Z" fill="url(#paint18_linear_4166_92231)"/>
<path id="Vector 1710" d="M115 63.5L101.5 62V115L115.5 118V102.5C120.31 106.55 124.239 107.877 127.996 107.545C132.537 107.143 136.517 104.247 139.39 100.707C144.899 93.9182 144.543 87.2146 143 79.5C142 74.5 139.721 72.2797 139.5 72C132 62.5 120.333 64.6667 115 67V63.5Z" fill="url(#paint19_linear_4166_92231)" stroke="url(#paint20_linear_4166_92231)"/>
<rect id="Rectangle 34625717" x="115.5" y="77" width="11" height="17" rx="5.5" fill="#6E1058"/>
<path id="Intersect" fill-rule="evenodd" clip-rule="evenodd" d="M119 77.375C121.049 78.1751 122.5 80.1681 122.5 82.5001V88.5001C122.5 90.832 121.049 92.825 119 93.6251C116.951 92.825 115.5 90.832 115.5 88.5001V82.5001C115.5 80.1681 116.951 78.1751 119 77.375Z" fill="#AB58FA"/>
</g>
<path id="Vector 1704" d="M70 23L59.5 22L67.5 52L79 53.5L89 26.5L77.5 24.5L73.5 42L70 23Z" fill="url(#paint21_linear_4166_92231)" stroke="url(#paint22_linear_4166_92231)"/>
</g>
<g id="&#231;&#174;&#173;&#229;&#164;&#180;&#228;&#184;&#138;&#228;&#184;&#139;&#230;&#181;&#174;&#229;&#138;&#168;">
<path id="Vector 1699" d="M186.5 50.1819V57.3901L174.598 55.0097L174 54.8901V55.5V111.908L145.5 107.078V50V49.5764L145.082 49.5068L133.5 47.5764V40.7465L160.925 19.6882L186.5 50.1819Z" fill="url(#paint23_linear_4166_92231)" stroke="url(#paint24_linear_4166_92231)"/>
<path id="Vector 1698" d="M137.5 42.5L160.5 23.5L184 52.5L169 50V106L150.5 103V48L137.5 45.5V42.5Z" fill="url(#paint25_linear_4166_92231)"/>
<path id="Vector 1700" d="M157.5 18L161 19L133 40.5V48L145 50V107.5L174.5 112.5L169 120.5L138 115V53L128 51.5V40.5L157.5 18Z" fill="url(#paint26_linear_4166_92231)"/>
</g>
</g>
<defs>
<linearGradient id="paint0_linear_4166_92231" x1="71.75" y1="22" x2="71.75" y2="57" gradientUnits="userSpaceOnUse">
<stop stop-color="#B90878"/>
<stop offset="1" stop-color="#2B1A24"/>
</linearGradient>
<linearGradient id="paint1_linear_4166_92231" x1="34.2953" y1="1" x2="34.2953" y2="68" gradientUnits="userSpaceOnUse">
<stop stop-color="#E59AF9"/>
<stop offset="0.555" stop-color="#87ACFD"/>
<stop offset="1" stop-color="#BEE5E3"/>
</linearGradient>
<linearGradient id="paint2_linear_4166_92231" x1="37.3301" y1="0.999998" x2="10.9068" y2="22.3116" gradientUnits="userSpaceOnUse">
<stop stop-color="#FBE738"/>
<stop offset="1" stop-color="white" stop-opacity="0"/>
</linearGradient>
<linearGradient id="paint3_linear_4166_92231" x1="32.75" y1="1" x2="32.75" y2="76" gradientUnits="userSpaceOnUse">
<stop stop-color="#B90878"/>
<stop offset="1" stop-color="#2B1A24"/>
</linearGradient>
<linearGradient id="paint4_linear_4166_92231" x1="33.5" y1="5.5" x2="41.9262" y2="47.8224" gradientUnits="userSpaceOnUse">
<stop stop-color="#BBA2FC"/>
<stop offset="0.49" stop-color="#8DB3FB"/>
<stop offset="1" stop-color="#DB9DFA"/>
</linearGradient>
<linearGradient id="paint5_linear_4166_92231" x1="125.436" y1="29.5" x2="125.436" y2="63" gradientUnits="userSpaceOnUse">
<stop stop-color="#E59AF9"/>
<stop offset="0.555" stop-color="#87ACFD"/>
<stop offset="1" stop-color="#BEE5E3"/>
</linearGradient>
<linearGradient id="paint6_linear_4166_92231" x1="126.885" y1="29.5" x2="113.813" y2="39.5748" gradientUnits="userSpaceOnUse">
<stop stop-color="#FBE738"/>
<stop offset="1" stop-color="white" stop-opacity="0"/>
</linearGradient>
<linearGradient id="paint7_linear_4166_92231" x1="124.5" y1="29.5" x2="124.5" y2="67" gradientUnits="userSpaceOnUse">
<stop stop-color="#B90878"/>
<stop offset="1" stop-color="#2B1A24"/>
</linearGradient>
<linearGradient id="paint8_linear_4166_92231" x1="99.4431" y1="30.5166" x2="95.1273" y2="58.7676" gradientUnits="userSpaceOnUse">
<stop stop-color="#B90878"/>
<stop offset="1" stop-color="#2B1A24"/>
</linearGradient>
<linearGradient id="paint9_linear_4166_92231" x1="100.348" y1="30.5292" x2="96.0325" y2="58.7801" gradientUnits="userSpaceOnUse">
<stop stop-color="#E59AF9"/>
<stop offset="0.555" stop-color="#87ACFD"/>
<stop offset="1" stop-color="#BEE5E3"/>
</linearGradient>
<linearGradient id="paint10_linear_4166_92231" x1="102.282" y1="30.8245" x2="89.0194" y2="42.741" gradientUnits="userSpaceOnUse">
<stop stop-color="#FBE738"/>
<stop offset="1" stop-color="white" stop-opacity="0"/>
</linearGradient>
<linearGradient id="paint11_linear_4166_92231" x1="45.8052" y1="20.479" x2="42.7601" y2="48.8951" gradientUnits="userSpaceOnUse">
<stop stop-color="#B90878"/>
<stop offset="1" stop-color="#2B1A24"/>
</linearGradient>
<linearGradient id="paint12_linear_4166_92231" x1="46.7108" y1="20.4509" x2="43.6658" y2="48.8669" gradientUnits="userSpaceOnUse">
<stop stop-color="#E59AF9"/>
<stop offset="0.555" stop-color="#87ACFD"/>
<stop offset="1" stop-color="#BEE5E3"/>
</linearGradient>
<linearGradient id="paint13_linear_4166_92231" x1="48.6555" y1="20.6592" x2="35.9407" y2="33.1583" gradientUnits="userSpaceOnUse">
<stop stop-color="#FBE738"/>
<stop offset="1" stop-color="white" stop-opacity="0"/>
</linearGradient>
<linearGradient id="paint14_linear_4166_92231" x1="75.4222" y1="55.5" x2="75.4222" y2="108" gradientUnits="userSpaceOnUse">
<stop stop-color="#B90878"/>
<stop offset="1" stop-color="#2B1A24"/>
</linearGradient>
<linearGradient id="paint15_linear_4166_92231" x1="77.3673" y1="55.5" x2="77.3673" y2="102" gradientUnits="userSpaceOnUse">
<stop stop-color="#E59AF9"/>
<stop offset="0.555" stop-color="#87ACFD"/>
<stop offset="1" stop-color="#BEE5E3"/>
</linearGradient>
<linearGradient id="paint16_linear_4166_92231" x1="79.8289" y1="55.5" x2="61.0975" y2="73.1563" gradientUnits="userSpaceOnUse">
<stop stop-color="#FBE738"/>
<stop offset="1" stop-color="white" stop-opacity="0"/>
</linearGradient>
<linearGradient id="paint17_linear_4166_92231" x1="106.5" y1="61.5" x2="106.5" y2="125" gradientUnits="userSpaceOnUse">
<stop stop-color="#B90878"/>
<stop offset="1" stop-color="#2B1A24"/>
</linearGradient>
<linearGradient id="paint18_linear_4166_92231" x1="126.164" y1="102" x2="126.164" y2="113.562" gradientUnits="userSpaceOnUse">
<stop stop-color="#B90878"/>
<stop offset="1" stop-color="#2B1A24"/>
</linearGradient>
<linearGradient id="paint19_linear_4166_92231" x1="121.135" y1="62" x2="121.135" y2="118" gradientUnits="userSpaceOnUse">
<stop stop-color="#E59AF9"/>
<stop offset="0.555" stop-color="#87ACFD"/>
<stop offset="1" stop-color="#BEE5E3"/>
</linearGradient>
<linearGradient id="paint20_linear_4166_92231" x1="124" y1="62" x2="101.5" y2="82.5" gradientUnits="userSpaceOnUse">
<stop stop-color="#FBE738"/>
<stop offset="1" stop-color="white" stop-opacity="0"/>
</linearGradient>
<linearGradient id="paint21_linear_4166_92231" x1="73.1325" y1="22" x2="73.1325" y2="53.5" gradientUnits="userSpaceOnUse">
<stop stop-color="#E59AF9"/>
<stop offset="0.555" stop-color="#87ACFD"/>
<stop offset="1" stop-color="#BEE5E3"/>
</linearGradient>
<linearGradient id="paint22_linear_4166_92231" x1="75.122" y1="22" x2="62.498" y2="36.197" gradientUnits="userSpaceOnUse">
<stop stop-color="#FBE738"/>
<stop offset="1" stop-color="white" stop-opacity="0"/>
</linearGradient>
<linearGradient id="paint23_linear_4166_92231" x1="160" y1="22" x2="184.5" y2="125" gradientUnits="userSpaceOnUse">
<stop stop-color="#E59AF9"/>
<stop offset="0.555" stop-color="#87ACFD"/>
<stop offset="1" stop-color="#BEE5E3"/>
</linearGradient>
<linearGradient id="paint24_linear_4166_92231" x1="161.596" y1="19" x2="126.259" y2="43.5078" gradientUnits="userSpaceOnUse">
<stop stop-color="#FBE738"/>
<stop offset="1" stop-color="white" stop-opacity="0"/>
</linearGradient>
<linearGradient id="paint25_linear_4166_92231" x1="180" y1="40.5" x2="160.75" y2="106" gradientUnits="userSpaceOnUse">
<stop stop-color="#BB94F8"/>
<stop offset="0.14" stop-color="#8AACFD"/>
<stop offset="0.27" stop-color="#8AACFD"/>
<stop offset="0.52" stop-color="#92B8F8"/>
<stop offset="0.98" stop-color="#B9DFE6"/>
</linearGradient>
<linearGradient id="paint26_linear_4166_92231" x1="151.25" y1="18" x2="151.25" y2="120.5" gradientUnits="userSpaceOnUse">
<stop stop-color="#B90878"/>
<stop offset="1" stop-color="#2B1A24"/>
</linearGradient>
</defs>
</svg>
