<svg width="90" height="86" viewBox="0 0 90 86" fill="none" xmlns="http://www.w3.org/2000/svg">
<g id="Event" clip-path="url(#clip0_5407_195315)">
<g id="Group" filter="url(#filter0_f_5407_195315)">
<path id="Vector" d="M52.1208 26.1416H42.4116C32.3467 26.1416 24.1875 34.3008 24.1875 44.3657V55.7739C24.1875 65.8388 32.3467 73.998 42.4116 73.998H52.1208C62.1857 73.998 70.3449 65.8388 70.3449 55.7739V44.3657C70.3449 34.3008 62.1857 26.1416 52.1208 26.1416Z" fill="#D6A4F4"/>
</g>
<path id="Vector_2" d="M52.1208 25.624H42.4116C32.3467 25.624 24.1875 33.7832 24.1875 43.8481V53.5573C24.1875 63.6222 32.3467 71.7814 42.4116 71.7814H52.1208C62.1857 71.7814 70.3449 63.6222 70.3449 53.5573V43.8481C70.3449 33.7832 62.1857 25.624 52.1208 25.624Z" fill="#8449E2"/>
<g id="Rectangle 34625754">
<rect x="15" y="16" width="66" height="66" rx="10" fill="#755FFF"/>
<rect x="15" y="16" width="66" height="66" rx="10" fill="url(#paint0_radial_5407_195315)" fill-opacity="0.7"/>
<rect x="15" y="16" width="66" height="66" rx="10" fill="url(#paint1_radial_5407_195315)"/>
</g>
<g id="Group_2" filter="url(#filter1_f_5407_195315)">
<path id="Vector_3" d="M47.2671 73.2907C49.9258 73.2907 52.081 72.4983 52.081 71.5208C52.081 70.5434 49.9258 69.751 47.2671 69.751C44.6084 69.751 42.4531 70.5434 42.4531 71.5208C42.4531 72.4983 44.6084 73.2907 47.2671 73.2907Z" fill="#EAA9FF"/>
</g>
<g id="Group_3" filter="url(#filter2_f_5407_195315)">
<path id="Vector_4" d="M47.2685 72.9361C49.0737 72.9361 50.5371 72.4924 50.5371 71.9451C50.5371 71.3978 49.0737 70.9541 47.2685 70.9541C45.4634 70.9541 44 71.3978 44 71.9451C44 72.4924 45.4634 72.9361 47.2685 72.9361Z" fill="#FAF0FF"/>
</g>
<path id="Vector_5" d="M30.1238 38.4922L33.2309 38.735C33.6302 38.7662 33.9886 38.9918 34.1891 39.3386L35.7505 42.0358C36.2559 42.9085 37.5426 42.8232 37.928 41.8911L39.1192 39.0111C39.2723 38.6411 39.5975 38.37 39.9891 38.2864L43.0367 37.6348C44.0232 37.4241 44.3393 36.1736 43.5723 35.5192L41.2013 33.4963C40.8967 33.2366 40.7394 32.8433 40.7808 32.4449L41.1029 29.3451C41.2072 28.3419 40.1158 27.6549 39.2564 28.1823L36.5998 29.8118C36.2587 30.0214 35.8359 30.0495 35.4699 29.887L32.6213 28.6227C31.6998 28.2135 30.7088 29.0392 30.9447 30.0197L31.674 33.0498C31.7675 33.4391 31.6637 33.8496 31.3961 34.1474L29.3134 36.466C28.6394 37.2163 29.1183 38.4137 30.1238 38.4922Z" fill="url(#paint2_linear_5407_195315)"/>
<path id="Vector_6" d="M66.9131 42.3819C67.1192 42.129 66.9457 41.7493 66.6193 41.7397L65.8991 41.7181C65.7695 41.7142 65.6501 41.6469 65.5798 41.5381L65.1891 40.9324C65.0121 40.6579 64.5973 40.7058 64.4873 41.0132L64.2443 41.6915C64.2006 41.8137 64.0997 41.9064 63.9743 41.9396L63.2776 42.1239C62.9621 42.2076 62.8793 42.6167 63.1376 42.8163L63.7078 43.257C63.8102 43.3363 63.8672 43.4611 63.8601 43.5904L63.8204 44.3101C63.8022 44.6358 64.1657 44.8411 64.4354 44.6571L65.0308 44.2511C65.1377 44.1782 65.2741 44.1623 65.3949 44.2091L66.0669 44.4694C66.3715 44.5874 66.6788 44.305 66.5873 43.9917L66.3851 43.3001C66.3488 43.1756 66.376 43.0412 66.4577 42.9408L66.9131 42.3819Z" fill="url(#paint3_linear_5407_195315)"/>
<path id="Vector_7" d="M55.741 65.8636L55.8964 65.4876C55.9241 65.4204 55.9831 65.3714 56.0543 65.356L56.4521 65.271C56.631 65.2327 56.6883 65.0061 56.5491 64.8873L56.2397 64.6233C56.1844 64.5763 56.1558 64.5051 56.1635 64.4328L56.2054 64.0282C56.2244 63.8461 56.0265 63.7217 55.8706 63.8172L55.5238 64.0299C55.462 64.0679 55.3854 64.073 55.319 64.0435L54.947 63.8785C54.78 63.8044 54.6002 63.9539 54.6431 64.1317L54.7383 64.5272C54.7553 64.5978 54.7366 64.6724 54.6879 64.7263L54.4162 65.0291C54.294 65.1652 54.3808 65.3821 54.5631 65.3963L54.9686 65.4281C55.0409 65.4337 55.1061 65.4746 55.1424 65.5375L55.3463 65.8897C55.4379 66.0479 55.6712 66.0323 55.741 65.8636Z" fill="url(#paint4_linear_5407_195315)"/>
<path id="Vector_8" d="M33.7145 58.5322L33.3958 58.3961C33.3388 58.3717 33.2974 58.3209 33.2852 58.2602L33.2166 57.9205C33.186 57.7677 32.9932 57.7167 32.8908 57.8341L32.6628 58.0952C32.622 58.142 32.561 58.1655 32.4995 58.1584L32.1552 58.1187C32.0004 58.1006 31.8924 58.2682 31.9724 58.4017L32.1502 58.6995C32.1819 58.7525 32.1856 58.8177 32.1598 58.8741L32.0155 59.1894C31.9508 59.3309 32.0764 59.4855 32.2284 59.4509L32.5664 59.3735C32.6268 59.3598 32.69 59.3766 32.7354 59.4183L32.9909 59.653C33.1054 59.7585 33.2912 59.6865 33.3051 59.5314L33.3363 59.186C33.3416 59.1245 33.3771 59.0695 33.431 59.0391L33.7329 58.8687C33.8688 58.7922 33.8577 58.5934 33.7145 58.5322Z" fill="white"/>
<path id="Vector_9" d="M54.2114 66.4635L54.1513 66.2293C54.1405 66.1873 54.151 66.1431 54.1793 66.1105L54.3381 65.9279C54.4096 65.8459 54.3557 65.7178 54.2474 65.711L54.0058 65.6959C53.9627 65.6931 53.9238 65.6696 53.9014 65.6324L53.777 65.4249C53.7211 65.3319 53.5825 65.3432 53.5425 65.4442L53.4537 65.6693C53.4378 65.7093 53.4032 65.739 53.361 65.749L53.1254 65.8031C53.0193 65.8275 52.9873 65.9628 53.0712 66.0322L53.2578 66.1862C53.291 66.2137 53.3085 66.256 53.3049 66.2988L53.2836 66.5398C53.2739 66.6481 53.3928 66.7204 53.4846 66.662L53.6888 66.5324C53.7254 66.5092 53.7707 66.5055 53.8104 66.5222L54.033 66.6169C54.1331 66.6595 54.2386 66.5687 54.2114 66.4635Z" fill="url(#paint5_linear_5407_195315)"/>
<g id="Vector_10" filter="url(#filter3_di_5407_195315)">
<path d="M83.9515 0L82.6829 5.17885L78 6.55323L82.6829 7.92696L83.9515 13L85.3175 7.92696L90 6.55323L85.3175 5.17885L83.9515 0Z" fill="#755FFF"/>
<path d="M83.9515 0L82.6829 5.17885L78 6.55323L82.6829 7.92696L83.9515 13L85.3175 7.92696L90 6.55323L85.3175 5.17885L83.9515 0Z" fill="url(#paint6_radial_5407_195315)" fill-opacity="0.7"/>
<path d="M83.9515 0L82.6829 5.17885L78 6.55323L82.6829 7.92696L83.9515 13L85.3175 7.92696L90 6.55323L85.3175 5.17885L83.9515 0Z" fill="url(#paint7_radial_5407_195315)"/>
</g>
<g id="Vector_11" filter="url(#filter4_di_5407_195315)">
<path d="M87.202 15.2705L87.7622 13.2833L89.8913 12.8644L87.7622 12.4461L87.202 10.459L86.7541 12.4461L84.625 12.8644L86.7541 13.2833L87.202 15.2705Z" fill="#755FFF"/>
<path d="M87.202 15.2705L87.7622 13.2833L89.8913 12.8644L87.7622 12.4461L87.202 10.459L86.7541 12.4461L84.625 12.8644L86.7541 13.2833L87.202 15.2705Z" fill="url(#paint8_radial_5407_195315)" fill-opacity="0.7"/>
<path d="M87.202 15.2705L87.7622 13.2833L89.8913 12.8644L87.7622 12.4461L87.202 10.459L86.7541 12.4461L84.625 12.8644L86.7541 13.2833L87.202 15.2705Z" fill="url(#paint9_radial_5407_195315)"/>
</g>
<g id="Vector_12" filter="url(#filter5_di_5407_195315)">
<path d="M5.82718 15.2135L3.47411 14.6907L2.91399 12.4941L2.35346 14.6907L0 15.2135L2.35346 15.7367L2.91399 17.8282L3.47411 15.7367L5.82718 15.2135Z" fill="#755FFF"/>
<path d="M5.82718 15.2135L3.47411 14.6907L2.91399 12.4941L2.35346 14.6907L0 15.2135L2.35346 15.7367L2.91399 17.8282L3.47411 15.7367L5.82718 15.2135Z" fill="url(#paint10_radial_5407_195315)" fill-opacity="0.7"/>
<path d="M5.82718 15.2135L3.47411 14.6907L2.91399 12.4941L2.35346 14.6907L0 15.2135L2.35346 15.7367L2.91399 17.8282L3.47411 15.7367L5.82718 15.2135Z" fill="url(#paint11_radial_5407_195315)"/>
</g>
<g id="Vector_13" filter="url(#filter6_di_5407_195315)">
<path d="M12.7792 5.64756C12.7792 4.89931 12.1292 4.29297 11.3275 4.29297C10.5258 4.29297 9.875 4.89931 9.875 5.64756C9.875 6.39618 10.5258 7.00252 11.3275 7.00252C12.1292 7.00252 12.7792 6.39618 12.7792 5.64756Z" fill="#755FFF"/>
<path d="M12.7792 5.64756C12.7792 4.89931 12.1292 4.29297 11.3275 4.29297C10.5258 4.29297 9.875 4.89931 9.875 5.64756C9.875 6.39618 10.5258 7.00252 11.3275 7.00252C12.1292 7.00252 12.7792 6.39618 12.7792 5.64756Z" fill="url(#paint12_radial_5407_195315)" fill-opacity="0.7"/>
<path d="M12.7792 5.64756C12.7792 4.89931 12.1292 4.29297 11.3275 4.29297C10.5258 4.29297 9.875 4.89931 9.875 5.64756C9.875 6.39618 10.5258 7.00252 11.3275 7.00252C12.1292 7.00252 12.7792 6.39618 12.7792 5.64756Z" fill="url(#paint13_radial_5407_195315)"/>
</g>
<g id="Vector_14" filter="url(#filter7_di_5407_195315)">
<path d="M5.83612 26.3526L1 27.6913L5.83612 28.6474L6.91107 34L8.16389 28.6474L13 27.6913L8.16389 26.3526L6.91107 21L5.83612 26.3526Z" fill="#755FFF"/>
<path d="M5.83612 26.3526L1 27.6913L5.83612 28.6474L6.91107 34L8.16389 28.6474L13 27.6913L8.16389 26.3526L6.91107 21L5.83612 26.3526Z" fill="url(#paint14_radial_5407_195315)" fill-opacity="0.7"/>
<path d="M5.83612 26.3526L1 27.6913L5.83612 28.6474L6.91107 34L8.16389 28.6474L13 27.6913L8.16389 26.3526L6.91107 21L5.83612 26.3526Z" fill="url(#paint15_radial_5407_195315)"/>
</g>
<path id="Vector_15" d="M63.3333 47.8509C63.3333 48.9967 64.2708 49.9342 65.4167 49.9342H69.5833C70.7292 49.9342 71.6667 48.9967 71.6667 47.8509C71.6667 46.7051 70.7292 45.7676 69.5833 45.7676H65.4167C64.2708 45.7676 63.3333 46.7051 63.3333 47.8509ZM60.3958 57.8926C60.2323 58.1059 60.1131 58.35 60.0454 58.6102C59.9777 58.8704 59.9628 59.1415 60.0017 59.4076C60.0405 59.6736 60.1323 59.9292 60.2715 60.1592C60.4108 60.3892 60.5948 60.589 60.8125 60.7467C61.9167 61.5592 63.0833 62.4342 64.1875 63.2676C65.1042 63.9551 66.3958 63.7676 67.0625 62.8509C67.0625 62.8301 67.0833 62.8301 67.0833 62.8092C67.2469 62.5939 67.366 62.3482 67.4336 62.0864C67.5013 61.8246 67.5161 61.552 67.4774 61.2844C67.4386 61.0168 67.3469 60.7596 67.2077 60.5278C67.0686 60.296 66.8846 60.0942 66.6667 59.9342C65.5625 59.1009 64.3958 58.2259 63.3125 57.4134C63.0937 57.2517 62.8452 57.1347 62.5812 57.0692C62.3172 57.0037 62.0428 56.9909 61.7738 57.0315C61.5049 57.0721 61.2465 57.1654 61.0137 57.306C60.7808 57.4466 60.5779 57.6318 60.4167 57.8509C60.4167 57.8717 60.3958 57.8926 60.3958 57.8926ZM67.1042 32.8717C67.1042 32.8509 67.0833 32.8509 67.0833 32.8301C66.923 32.6126 66.721 32.4291 66.4892 32.2902C66.2574 32.1513 66.0003 32.0599 65.7329 32.0211C65.4654 31.9824 65.193 31.9971 64.9313 32.0644C64.6696 32.1317 64.4238 32.2504 64.2083 32.4134C63.1042 33.2467 61.9167 34.1217 60.8333 34.9551C59.9167 35.6426 59.75 36.9342 60.4375 37.8301C60.4375 37.8509 60.4583 37.8509 60.4583 37.8717C61.1458 38.7884 62.4167 38.9759 63.3333 38.2884C64.4375 37.4759 65.6042 36.5801 66.7083 35.7467C67.6042 35.0801 67.7708 33.7884 67.1042 32.8717ZM42.5 41.6009H34.1667C31.875 41.6009 30 43.4759 30 45.7676V49.9342C30 52.2259 31.875 54.1009 34.1667 54.1009H36.25V60.3509C36.25 61.4967 37.1875 62.4342 38.3333 62.4342C39.4792 62.4342 40.4167 61.4967 40.4167 60.3509V54.1009H42.5L52.9167 60.3509V35.3509L42.5 41.6009ZM58.125 47.8509C58.125 45.0801 56.9167 42.5801 55 40.8717V54.8092C56.9167 53.1217 58.125 50.6217 58.125 47.8509Z" fill="url(#paint16_linear_5407_195315)"/>
</g>
<defs>
<filter id="filter0_f_5407_195315" x="12.1875" y="14.1416" width="70.1562" height="71.8564" filterUnits="userSpaceOnUse" color-interpolation-filters="sRGB">
<feFlood flood-opacity="0" result="BackgroundImageFix"/>
<feBlend mode="normal" in="SourceGraphic" in2="BackgroundImageFix" result="shape"/>
<feGaussianBlur stdDeviation="6" result="effect1_foregroundBlur_5407_195315"/>
</filter>
<filter id="filter1_f_5407_195315" x="30.4531" y="57.751" width="33.625" height="27.54" filterUnits="userSpaceOnUse" color-interpolation-filters="sRGB">
<feFlood flood-opacity="0" result="BackgroundImageFix"/>
<feBlend mode="normal" in="SourceGraphic" in2="BackgroundImageFix" result="shape"/>
<feGaussianBlur stdDeviation="6" result="effect1_foregroundBlur_5407_195315"/>
</filter>
<filter id="filter2_f_5407_195315" x="32" y="58.9541" width="30.5391" height="25.9824" filterUnits="userSpaceOnUse" color-interpolation-filters="sRGB">
<feFlood flood-opacity="0" result="BackgroundImageFix"/>
<feBlend mode="normal" in="SourceGraphic" in2="BackgroundImageFix" result="shape"/>
<feGaussianBlur stdDeviation="6" result="effect1_foregroundBlur_5407_195315"/>
</filter>
<filter id="filter3_di_5407_195315" x="20" y="-24" width="136" height="137" filterUnits="userSpaceOnUse" color-interpolation-filters="sRGB">
<feFlood flood-opacity="0" result="BackgroundImageFix"/>
<feColorMatrix in="SourceAlpha" type="matrix" values="0 0 0 0 0 0 0 0 0 0 0 0 0 0 0 0 0 0 127 0" result="hardAlpha"/>
<feOffset dx="4" dy="38"/>
<feGaussianBlur stdDeviation="31"/>
<feColorMatrix type="matrix" values="0 0 0 0 0 0 0 0 0 0 0 0 0 0 0 0 0 0 0.5 0"/>
<feBlend mode="normal" in2="BackgroundImageFix" result="effect1_dropShadow_5407_195315"/>
<feBlend mode="normal" in="SourceGraphic" in2="effect1_dropShadow_5407_195315" result="shape"/>
<feColorMatrix in="SourceAlpha" type="matrix" values="0 0 0 0 0 0 0 0 0 0 0 0 0 0 0 0 0 0 127 0" result="hardAlpha"/>
<feOffset dx="-3" dy="-4"/>
<feGaussianBlur stdDeviation="3.5"/>
<feComposite in2="hardAlpha" operator="arithmetic" k2="-1" k3="1"/>
<feColorMatrix type="matrix" values="0 0 0 0 1 0 0 0 0 1 0 0 0 0 1 0 0 0 0.15 0"/>
<feBlend mode="normal" in2="shape" result="effect2_innerShadow_5407_195315"/>
</filter>
<filter id="filter4_di_5407_195315" x="26.625" y="-13.541" width="129.266" height="128.812" filterUnits="userSpaceOnUse" color-interpolation-filters="sRGB">
<feFlood flood-opacity="0" result="BackgroundImageFix"/>
<feColorMatrix in="SourceAlpha" type="matrix" values="0 0 0 0 0 0 0 0 0 0 0 0 0 0 0 0 0 0 127 0" result="hardAlpha"/>
<feOffset dx="4" dy="38"/>
<feGaussianBlur stdDeviation="31"/>
<feColorMatrix type="matrix" values="0 0 0 0 0 0 0 0 0 0 0 0 0 0 0 0 0 0 0.5 0"/>
<feBlend mode="normal" in2="BackgroundImageFix" result="effect1_dropShadow_5407_195315"/>
<feBlend mode="normal" in="SourceGraphic" in2="effect1_dropShadow_5407_195315" result="shape"/>
<feColorMatrix in="SourceAlpha" type="matrix" values="0 0 0 0 0 0 0 0 0 0 0 0 0 0 0 0 0 0 127 0" result="hardAlpha"/>
<feOffset dx="-3" dy="-4"/>
<feGaussianBlur stdDeviation="3.5"/>
<feComposite in2="hardAlpha" operator="arithmetic" k2="-1" k3="1"/>
<feColorMatrix type="matrix" values="0 0 0 0 1 0 0 0 0 1 0 0 0 0 1 0 0 0 0.15 0"/>
<feBlend mode="normal" in2="shape" result="effect2_innerShadow_5407_195315"/>
</filter>
<filter id="filter5_di_5407_195315" x="-58" y="-11.5059" width="129.828" height="129.334" filterUnits="userSpaceOnUse" color-interpolation-filters="sRGB">
<feFlood flood-opacity="0" result="BackgroundImageFix"/>
<feColorMatrix in="SourceAlpha" type="matrix" values="0 0 0 0 0 0 0 0 0 0 0 0 0 0 0 0 0 0 127 0" result="hardAlpha"/>
<feOffset dx="4" dy="38"/>
<feGaussianBlur stdDeviation="31"/>
<feColorMatrix type="matrix" values="0 0 0 0 0 0 0 0 0 0 0 0 0 0 0 0 0 0 0.5 0"/>
<feBlend mode="normal" in2="BackgroundImageFix" result="effect1_dropShadow_5407_195315"/>
<feBlend mode="normal" in="SourceGraphic" in2="effect1_dropShadow_5407_195315" result="shape"/>
<feColorMatrix in="SourceAlpha" type="matrix" values="0 0 0 0 0 0 0 0 0 0 0 0 0 0 0 0 0 0 127 0" result="hardAlpha"/>
<feOffset dx="-3" dy="-4"/>
<feGaussianBlur stdDeviation="3.5"/>
<feComposite in2="hardAlpha" operator="arithmetic" k2="-1" k3="1"/>
<feColorMatrix type="matrix" values="0 0 0 0 1 0 0 0 0 1 0 0 0 0 1 0 0 0 0.15 0"/>
<feBlend mode="normal" in2="shape" result="effect2_innerShadow_5407_195315"/>
</filter>
<filter id="filter6_di_5407_195315" x="-48.125" y="-19.707" width="126.906" height="126.71" filterUnits="userSpaceOnUse" color-interpolation-filters="sRGB">
<feFlood flood-opacity="0" result="BackgroundImageFix"/>
<feColorMatrix in="SourceAlpha" type="matrix" values="0 0 0 0 0 0 0 0 0 0 0 0 0 0 0 0 0 0 127 0" result="hardAlpha"/>
<feOffset dx="4" dy="38"/>
<feGaussianBlur stdDeviation="31"/>
<feColorMatrix type="matrix" values="0 0 0 0 0 0 0 0 0 0 0 0 0 0 0 0 0 0 0.5 0"/>
<feBlend mode="normal" in2="BackgroundImageFix" result="effect1_dropShadow_5407_195315"/>
<feBlend mode="normal" in="SourceGraphic" in2="effect1_dropShadow_5407_195315" result="shape"/>
<feColorMatrix in="SourceAlpha" type="matrix" values="0 0 0 0 0 0 0 0 0 0 0 0 0 0 0 0 0 0 127 0" result="hardAlpha"/>
<feOffset dx="-3" dy="-4"/>
<feGaussianBlur stdDeviation="3.5"/>
<feComposite in2="hardAlpha" operator="arithmetic" k2="-1" k3="1"/>
<feColorMatrix type="matrix" values="0 0 0 0 1 0 0 0 0 1 0 0 0 0 1 0 0 0 0.15 0"/>
<feBlend mode="normal" in2="shape" result="effect2_innerShadow_5407_195315"/>
</filter>
<filter id="filter7_di_5407_195315" x="-57" y="-3" width="136" height="137" filterUnits="userSpaceOnUse" color-interpolation-filters="sRGB">
<feFlood flood-opacity="0" result="BackgroundImageFix"/>
<feColorMatrix in="SourceAlpha" type="matrix" values="0 0 0 0 0 0 0 0 0 0 0 0 0 0 0 0 0 0 127 0" result="hardAlpha"/>
<feOffset dx="4" dy="38"/>
<feGaussianBlur stdDeviation="31"/>
<feColorMatrix type="matrix" values="0 0 0 0 0 0 0 0 0 0 0 0 0 0 0 0 0 0 0.5 0"/>
<feBlend mode="normal" in2="BackgroundImageFix" result="effect1_dropShadow_5407_195315"/>
<feBlend mode="normal" in="SourceGraphic" in2="effect1_dropShadow_5407_195315" result="shape"/>
<feColorMatrix in="SourceAlpha" type="matrix" values="0 0 0 0 0 0 0 0 0 0 0 0 0 0 0 0 0 0 127 0" result="hardAlpha"/>
<feOffset dx="-3" dy="-4"/>
<feGaussianBlur stdDeviation="3.5"/>
<feComposite in2="hardAlpha" operator="arithmetic" k2="-1" k3="1"/>
<feColorMatrix type="matrix" values="0 0 0 0 1 0 0 0 0 1 0 0 0 0 1 0 0 0 0.15 0"/>
<feBlend mode="normal" in2="shape" result="effect2_innerShadow_5407_195315"/>
</filter>
<radialGradient id="paint0_radial_5407_195315" cx="0" cy="0" r="1" gradientUnits="userSpaceOnUse" gradientTransform="translate(32.4167 29.75) rotate(51.0441) scale(55.4034 55.4034)">
<stop stop-color="white" stop-opacity="0.59"/>
<stop offset="0.766011" stop-color="white" stop-opacity="0"/>
<stop offset="1" stop-color="white" stop-opacity="0"/>
</radialGradient>
<radialGradient id="paint1_radial_5407_195315" cx="0" cy="0" r="1" gradientUnits="userSpaceOnUse" gradientTransform="translate(71.9589 73.75) rotate(-93.6705) scale(56.4909 62.9614)">
<stop stop-opacity="0.23"/>
<stop offset="0.861815" stop-opacity="0"/>
</radialGradient>
<linearGradient id="paint2_linear_5407_195315" x1="34.0674" y1="30.3697" x2="36.6736" y2="37.3197" gradientUnits="userSpaceOnUse">
<stop offset="1.93795e-07" stop-color="#C1C0FC"/>
<stop offset="1" stop-color="#D8D5FF" stop-opacity="0"/>
</linearGradient>
<linearGradient id="paint3_linear_5407_195315" x1="154.058" y1="-18.4665" x2="158.871" y2="-19.0451" gradientUnits="userSpaceOnUse">
<stop offset="9.53674e-08" stop-color="#E9F3FF" stop-opacity="0"/>
<stop offset="1" stop-color="#CF77FF"/>
</linearGradient>
<linearGradient id="paint4_linear_5407_195315" x1="-654.506" y1="157.409" x2="-651.799" y2="157.083" gradientUnits="userSpaceOnUse">
<stop offset="9.53674e-08" stop-color="#E9F3FF" stop-opacity="0"/>
<stop offset="1" stop-color="#F5DEFF"/>
</linearGradient>
<linearGradient id="paint5_linear_5407_195315" x1="154.185" y1="-20.2548" x2="155.794" y2="-20.4483" gradientUnits="userSpaceOnUse">
<stop offset="9.53674e-08" stop-color="#E9F3FF" stop-opacity="0"/>
<stop offset="1" stop-color="#C86CFF"/>
</linearGradient>
<radialGradient id="paint6_radial_5407_195315" cx="0" cy="0" r="1" gradientUnits="userSpaceOnUse" gradientTransform="translate(81.1667 2.70833) rotate(53.2654) scale(10.5889 10.3814)">
<stop stop-color="white" stop-opacity="0.59"/>
<stop offset="0.766011" stop-color="white" stop-opacity="0"/>
<stop offset="1" stop-color="white" stop-opacity="0"/>
</radialGradient>
<radialGradient id="paint7_radial_5407_195315" cx="0" cy="0" r="1" gradientUnits="userSpaceOnUse" gradientTransform="translate(88.3562 11.375) rotate(-93.3888) scale(11.1236 11.451)">
<stop stop-opacity="0.23"/>
<stop offset="0.861815" stop-opacity="0"/>
</radialGradient>
<radialGradient id="paint8_radial_5407_195315" cx="0" cy="0" r="1" gradientUnits="userSpaceOnUse" gradientTransform="translate(86.0147 11.4614) rotate(48.4933) scale(4.19404 4.2573)">
<stop stop-color="white" stop-opacity="0.59"/>
<stop offset="0.766011" stop-color="white" stop-opacity="0"/>
<stop offset="1" stop-color="white" stop-opacity="0"/>
</radialGradient>
<radialGradient id="paint9_radial_5407_195315" cx="0" cy="0" r="1" gradientUnits="userSpaceOnUse" gradientTransform="translate(89.1699 14.669) rotate(-94.0163) scale(4.11992 5.02179)">
<stop stop-opacity="0.23"/>
<stop offset="0.861815" stop-opacity="0"/>
</radialGradient>
<radialGradient id="paint10_radial_5407_195315" cx="0" cy="0" r="1" gradientUnits="userSpaceOnUse" gradientTransform="translate(1.53773 13.6054) rotate(48.5474) scale(4.64571 4.71468)">
<stop stop-color="white" stop-opacity="0.59"/>
<stop offset="0.766011" stop-color="white" stop-opacity="0"/>
<stop offset="1" stop-color="white" stop-opacity="0"/>
</radialGradient>
<radialGradient id="paint11_radial_5407_195315" cx="0" cy="0" r="1" gradientUnits="userSpaceOnUse" gradientTransform="translate(5.02894 17.1615) rotate(-94.0087) scale(4.56738 5.5567)">
<stop stop-opacity="0.23"/>
<stop offset="0.861815" stop-opacity="0"/>
</radialGradient>
<radialGradient id="paint12_radial_5407_195315" cx="0" cy="0" r="1" gradientUnits="userSpaceOnUse" gradientTransform="translate(10.6414 4.85746) rotate(49.0879) scale(2.34047 2.36922)">
<stop stop-color="white" stop-opacity="0.59"/>
<stop offset="0.766011" stop-color="white" stop-opacity="0"/>
<stop offset="1" stop-color="white" stop-opacity="0"/>
</radialGradient>
<radialGradient id="paint13_radial_5407_195315" cx="0" cy="0" r="1" gradientUnits="userSpaceOnUse" gradientTransform="translate(12.3814 6.66382) rotate(-93.9334) scale(2.31987 2.76966)">
<stop stop-opacity="0.23"/>
<stop offset="0.861815" stop-opacity="0"/>
</radialGradient>
<radialGradient id="paint14_radial_5407_195315" cx="0" cy="0" r="1" gradientUnits="userSpaceOnUse" gradientTransform="translate(4.16667 23.7083) rotate(53.2654) scale(10.5889 10.3814)">
<stop stop-color="white" stop-opacity="0.59"/>
<stop offset="0.766011" stop-color="white" stop-opacity="0"/>
<stop offset="1" stop-color="white" stop-opacity="0"/>
</radialGradient>
<radialGradient id="paint15_radial_5407_195315" cx="0" cy="0" r="1" gradientUnits="userSpaceOnUse" gradientTransform="translate(11.3562 32.375) rotate(-93.3888) scale(11.1236 11.451)">
<stop stop-opacity="0.23"/>
<stop offset="0.861815" stop-opacity="0"/>
</radialGradient>
<linearGradient id="paint16_linear_5407_195315" x1="41.8177" y1="32.5216" x2="48.6892" y2="77.8643" gradientUnits="userSpaceOnUse">
<stop offset="0.111111" stop-color="white"/>
<stop offset="1" stop-color="#A585FF"/>
</linearGradient>
<clipPath id="clip0_5407_195315">
<rect width="90" height="86" fill="white"/>
</clipPath>
</defs>
</svg>
