<svg width="20" height="24" viewBox="0 0 20 24" fill="none" xmlns="http://www.w3.org/2000/svg">
<g filter="url(#filter0_bi_91_50072)">
<path d="M0.666666 23.0767H19.3333C19.6889 23.0767 20 22.7727 20 22.4254V10.7012C20 10.3538 19.6889 10.0499 19.3333 10.0499H0.666666C0.311111 10.0499 0 10.3538 0 10.7012V22.4254C0 22.7727 0.266666 23.0767 0.666666 23.0767Z" fill="url(#paint0_linear_91_50072)" fill-opacity="0.3"/>
</g>
<path fill-rule="evenodd" clip-rule="evenodd" d="M2.22266 9.97443V8.57342C2.22266 4.40483 5.73377 0.974426 10.0004 0.974426C14.2671 0.974426 17.7782 4.40483 17.7782 8.57342V9.97443H15.556V8.57342C15.556 5.57724 13.0671 3.14557 10.0004 3.14557C6.93377 3.14557 4.44488 5.57724 4.44488 8.57342V9.97443H2.22266Z" fill="url(#paint1_linear_91_50072)"/>
<defs>
<filter id="filter0_bi_91_50072" x="-12" y="-1.95013" width="44" height="37.0269" filterUnits="userSpaceOnUse" color-interpolation-filters="sRGB">
<feFlood flood-opacity="0" result="BackgroundImageFix"/>
<feGaussianBlur in="BackgroundImageFix" stdDeviation="6"/>
<feComposite in2="SourceAlpha" operator="in" result="effect1_backgroundBlur_91_50072"/>
<feBlend mode="normal" in="SourceGraphic" in2="effect1_backgroundBlur_91_50072" result="shape"/>
<feColorMatrix in="SourceAlpha" type="matrix" values="0 0 0 0 0 0 0 0 0 0 0 0 0 0 0 0 0 0 127 0" result="hardAlpha"/>
<feOffset dy="2"/>
<feGaussianBlur stdDeviation="4"/>
<feComposite in2="hardAlpha" operator="arithmetic" k2="-1" k3="1"/>
<feColorMatrix type="matrix" values="0 0 0 0 1 0 0 0 0 1 0 0 0 0 1 0 0 0 0.4 0"/>
<feBlend mode="normal" in2="shape" result="effect2_innerShadow_91_50072"/>
</filter>
<linearGradient id="paint0_linear_91_50072" x1="20" y1="10.0499" x2="-1.7699" y2="18.5366" gradientUnits="userSpaceOnUse">
<stop stop-color="#D783FF"/>
<stop offset="0.453125" stop-color="#858AFF"/>
</linearGradient>
<linearGradient id="paint1_linear_91_50072" x1="5.49858" y1="0.974426" x2="18.7103" y2="8.29152" gradientUnits="userSpaceOnUse">
<stop stop-color="#684FFF"/>
<stop offset="1" stop-color="#B871FE"/>
</linearGradient>
</defs>
</svg>
