<svg width="45" height="62" viewBox="0 0 45 62" fill="none" xmlns="http://www.w3.org/2000/svg">
<g id="&#230;&#140;&#137;&#233;&#146;&#174;">
<g id="Group 1410068479">
<g id="Polygon 30" filter="url(#filter0_d_4670_106531)">
<path d="M20.671 15.094C21.885 14.4143 23.365 14.4143 24.579 15.094L38.4408 22.8546C39.7042 23.5619 40.4868 24.8968 40.4868 26.3448V41.6552C40.4868 43.1032 39.7042 44.4381 38.4408 45.1454L24.579 52.906C23.365 53.5857 21.885 53.5857 20.671 52.906L6.8092 45.1454C5.54576 44.4381 4.76323 43.1032 4.76323 41.6552V26.3448C4.76323 24.8968 5.54575 23.5619 6.8092 22.8546L20.671 15.094Z" fill="white"/>
</g>
<path id="Polygon 32" d="M20.9908 18.2095C22.201 17.5353 23.674 17.5353 24.8842 18.2095L36.3103 24.5749C37.5778 25.281 38.3636 26.6182 38.3636 28.0692V40.5558C38.3636 42.0068 37.5778 43.344 36.3103 44.0501L24.8842 50.4155C23.674 51.0897 22.201 51.0897 20.9908 50.4155L9.56475 44.0501C8.29718 43.344 7.51142 42.0068 7.51142 40.5558V28.0692C7.51142 26.6182 8.29718 25.281 9.56475 24.5749L20.9908 18.2095Z" fill="#FFC702"/>
<path id="Polygon 33" d="M20.9272 19.8885C21.9833 19.3027 23.2667 19.3027 24.3228 19.8885L34.3957 25.4761C35.5079 26.093 36.1979 27.2648 36.1979 28.5367V39.4388C36.1979 40.7107 35.5079 41.8824 34.3957 42.4994L24.3228 48.0869C23.2667 48.6727 21.9833 48.6727 20.9272 48.0869L10.8543 42.4994C9.74208 41.8824 9.05209 40.7107 9.05209 39.4388V28.5367C9.05209 27.2648 9.74208 26.093 10.8543 25.4761L20.9272 19.8885Z" fill="#F9CE02" stroke="#FDDF74"/>
<g id="Polygon 34" filter="url(#filter1_i_4670_106531)">
<path d="M21.6231 22.3081C22.3719 21.8973 23.2787 21.8973 24.0276 22.3081L32.3529 26.8744C33.1532 27.3133 33.6506 28.1535 33.6506 29.0663V37.981C33.6506 38.8938 33.1532 39.734 32.3529 40.1729L24.0276 44.7392C23.2787 45.15 22.3719 45.15 21.6231 44.7392L13.2978 40.1729C12.4975 39.734 12 38.8938 12 37.981V29.0663C12 28.1535 12.4975 27.3133 13.2978 26.8744L21.6231 22.3081Z" fill="#EB9903"/>
</g>
</g>
<g id="Mask group">
<mask id="mask0_4670_106531" style="mask-type:alpha" maskUnits="userSpaceOnUse" x="12" y="22" width="22" height="24">
<path id="Polygon 35" d="M21.6228 22.3081C22.3716 21.8973 23.2784 21.8973 24.0272 22.3081L32.3523 26.8749C33.1526 27.3139 33.65 28.1542 33.65 29.0671V37.9829C33.65 38.8958 33.1526 39.7361 32.3523 40.1751L24.0272 44.7419C23.2784 45.1527 22.3716 45.1527 21.6228 44.7419L13.2977 40.1751C12.4974 39.7361 12 38.8958 12 37.9829V29.0671C12 28.1542 12.4974 27.3139 13.2977 26.8749L21.6228 22.3081Z" fill="#EB9903"/>
</mask>
<g mask="url(#mask0_4670_106531)">
<g id="Frame 1410068445">
<path id="Rectangle 34625844" d="M11.3203 21.4375H12.3203V22.4375H11.3203V21.4375Z" fill="#C88305"/>
<path id="Rectangle 34625845" d="M13.3203 21.4375H14.3203V22.4375H13.3203V21.4375Z" fill="#C88305"/>
<path id="Rectangle 34625846" d="M15.3203 21.4375H16.3203V22.4375H15.3203V21.4375Z" fill="#C88305"/>
<path id="Rectangle 34625847" d="M17.3203 21.4375H18.3203V22.4375H17.3203V21.4375Z" fill="#C88305"/>
<path id="Rectangle 34625848" d="M19.3203 21.4375H20.3203V22.4375H19.3203V21.4375Z" fill="#C88305"/>
<path id="Rectangle 34625849" d="M21.3203 21.4375H22.3203V22.4375H21.3203V21.4375Z" fill="#C88305"/>
<path id="Rectangle 34625850" d="M23.3203 21.4375H24.3203V22.4375H23.3203V21.4375Z" fill="#C88305"/>
<path id="Rectangle 34625851" d="M25.3203 21.4375H26.3203V22.4375H25.3203V21.4375Z" fill="#C88305"/>
<path id="Rectangle 34625852" d="M27.3203 21.4375H28.3203V22.4375H27.3203V21.4375Z" fill="#C88305"/>
<path id="Rectangle 34625853" d="M29.3203 21.4375H30.3203V22.4375H29.3203V21.4375Z" fill="#C88305"/>
<path id="Rectangle 34625854" d="M31.3203 21.4375H32.3203V22.4375H31.3203V21.4375Z" fill="#C88305"/>
<path id="Rectangle 34625855" d="M33.3203 21.4375H34.3203V22.4375H33.3203V21.4375Z" fill="#C88305"/>
<path id="Rectangle 34625861" d="M11.3203 23.4375H12.3203V24.4375H11.3203V23.4375Z" fill="#C88305"/>
<path id="Rectangle 34625862" d="M13.3203 23.4375H14.3203V24.4375H13.3203V23.4375Z" fill="#C88305"/>
<path id="Rectangle 34625863" d="M15.3203 23.4375H16.3203V24.4375H15.3203V23.4375Z" fill="#C88305"/>
<path id="Rectangle 34625864" d="M17.3203 23.4375H18.3203V24.4375H17.3203V23.4375Z" fill="#C88305"/>
<path id="Rectangle 34625865" d="M19.3203 23.4375H20.3203V24.4375H19.3203V23.4375Z" fill="#C88305"/>
<path id="Rectangle 34625866" d="M21.3203 23.4375H22.3203V24.4375H21.3203V23.4375Z" fill="#C88305"/>
<path id="Rectangle 34625867" d="M23.3203 23.4375H24.3203V24.4375H23.3203V23.4375Z" fill="#C88305"/>
<path id="Rectangle 34625868" d="M25.3203 23.4375H26.3203V24.4375H25.3203V23.4375Z" fill="#C88305"/>
<path id="Rectangle 34625869" d="M27.3203 23.4375H28.3203V24.4375H27.3203V23.4375Z" fill="#C88305"/>
<path id="Rectangle 34625870" d="M29.3203 23.4375H30.3203V24.4375H29.3203V23.4375Z" fill="#C88305"/>
<path id="Rectangle 34625871" d="M31.3203 23.4375H32.3203V24.4375H31.3203V23.4375Z" fill="#C88305"/>
<path id="Rectangle 34625872" d="M33.3203 23.4375H34.3203V24.4375H33.3203V23.4375Z" fill="#C88305"/>
<path id="Rectangle 34625878" d="M11.3203 25.4375H12.3203V26.4375H11.3203V25.4375Z" fill="#C88305"/>
<path id="Rectangle 34625879" d="M13.3203 25.4375H14.3203V26.4375H13.3203V25.4375Z" fill="#C88305"/>
<path id="Rectangle 34625880" d="M15.3203 25.4375H16.3203V26.4375H15.3203V25.4375Z" fill="#C88305"/>
<path id="Rectangle 34625881" d="M17.3203 25.4375H18.3203V26.4375H17.3203V25.4375Z" fill="#C88305"/>
<path id="Rectangle 34625882" d="M19.3203 25.4375H20.3203V26.4375H19.3203V25.4375Z" fill="#C88305"/>
<path id="Rectangle 34625883" d="M21.3203 25.4375H22.3203V26.4375H21.3203V25.4375Z" fill="#C88305"/>
<path id="Rectangle 34625884" d="M23.3203 25.4375H24.3203V26.4375H23.3203V25.4375Z" fill="#C88305"/>
<path id="Rectangle 34625885" d="M25.3203 25.4375H26.3203V26.4375H25.3203V25.4375Z" fill="#C88305"/>
<path id="Rectangle 34625886" d="M27.3203 25.4375H28.3203V26.4375H27.3203V25.4375Z" fill="#C88305"/>
<path id="Rectangle 34625887" d="M29.3203 25.4375H30.3203V26.4375H29.3203V25.4375Z" fill="#C88305"/>
<path id="Rectangle 34625888" d="M31.3203 25.4375H32.3203V26.4375H31.3203V25.4375Z" fill="#C88305"/>
<path id="Rectangle 34625889" d="M33.3203 25.4375H34.3203V26.4375H33.3203V25.4375Z" fill="#C88305"/>
<path id="Rectangle 34625895" d="M11.3203 27.4375H12.3203V28.4375H11.3203V27.4375Z" fill="#C88305"/>
<path id="Rectangle 34625896" d="M13.3203 27.4375H14.3203V28.4375H13.3203V27.4375Z" fill="#C88305"/>
<path id="Rectangle 34625897" d="M15.3203 27.4375H16.3203V28.4375H15.3203V27.4375Z" fill="#C88305"/>
<path id="Rectangle 34625898" d="M17.3203 27.4375H18.3203V28.4375H17.3203V27.4375Z" fill="#C88305"/>
<path id="Rectangle 34625899" d="M19.3203 27.4375H20.3203V28.4375H19.3203V27.4375Z" fill="#C88305"/>
<path id="Rectangle 34625900" d="M21.3203 27.4375H22.3203V28.4375H21.3203V27.4375Z" fill="#C88305"/>
<path id="Rectangle 34625901" d="M23.3203 27.4375H24.3203V28.4375H23.3203V27.4375Z" fill="#C88305"/>
<path id="Rectangle 34625902" d="M25.3203 27.4375H26.3203V28.4375H25.3203V27.4375Z" fill="#C88305"/>
<path id="Rectangle 34625903" d="M27.3203 27.4375H28.3203V28.4375H27.3203V27.4375Z" fill="#C88305"/>
<path id="Rectangle 34625904" d="M29.3203 27.4375H30.3203V28.4375H29.3203V27.4375Z" fill="#C88305"/>
<path id="Rectangle 34625905" d="M31.3203 27.4375H32.3203V28.4375H31.3203V27.4375Z" fill="#C88305"/>
<path id="Rectangle 34625906" d="M33.3203 27.4375H34.3203V28.4375H33.3203V27.4375Z" fill="#C88305"/>
<path id="Rectangle 34625913" d="M11.3203 29.4375H12.3203V30.4375H11.3203V29.4375Z" fill="#C88305"/>
<path id="Rectangle 34625914" d="M13.3203 29.4375H14.3203V30.4375H13.3203V29.4375Z" fill="#C88305"/>
<path id="Rectangle 34625915" d="M15.3203 29.4375H16.3203V30.4375H15.3203V29.4375Z" fill="#C88305"/>
<path id="Rectangle 34625916" d="M17.3203 29.4375H18.3203V30.4375H17.3203V29.4375Z" fill="#C88305"/>
<path id="Rectangle 34625917" d="M19.3203 29.4375H20.3203V30.4375H19.3203V29.4375Z" fill="#C88305"/>
<path id="Rectangle 34625918" d="M21.3203 29.4375H22.3203V30.4375H21.3203V29.4375Z" fill="#C88305"/>
<path id="Rectangle 34625919" d="M23.3203 29.4375H24.3203V30.4375H23.3203V29.4375Z" fill="#C88305"/>
<path id="Rectangle 34625920" d="M25.3203 29.4375H26.3203V30.4375H25.3203V29.4375Z" fill="#C88305"/>
<path id="Rectangle 34625921" d="M27.3203 29.4375H28.3203V30.4375H27.3203V29.4375Z" fill="#C88305"/>
<path id="Rectangle 34625922" d="M29.3203 29.4375H30.3203V30.4375H29.3203V29.4375Z" fill="#C88305"/>
<path id="Rectangle 34625923" d="M31.3203 29.4375H32.3203V30.4375H31.3203V29.4375Z" fill="#C88305"/>
<path id="Rectangle 34625924" d="M33.3203 29.4375H34.3203V30.4375H33.3203V29.4375Z" fill="#C88305"/>
<path id="Rectangle 34625930" d="M11.3203 31.4375H12.3203V32.4375H11.3203V31.4375Z" fill="#C88305"/>
<path id="Rectangle 34625931" d="M13.3203 31.4375H14.3203V32.4375H13.3203V31.4375Z" fill="#C88305"/>
<path id="Rectangle 34625932" d="M15.3203 31.4375H16.3203V32.4375H15.3203V31.4375Z" fill="#C88305"/>
<path id="Rectangle 34625933" d="M17.3203 31.4375H18.3203V32.4375H17.3203V31.4375Z" fill="#C88305"/>
<path id="Rectangle 34625934" d="M19.3203 31.4375H20.3203V32.4375H19.3203V31.4375Z" fill="#C88305"/>
<path id="Rectangle 34625935" d="M21.3203 31.4375H22.3203V32.4375H21.3203V31.4375Z" fill="#C88305"/>
<path id="Rectangle 34625936" d="M23.3203 31.4375H24.3203V32.4375H23.3203V31.4375Z" fill="#C88305"/>
<path id="Rectangle 34625937" d="M25.3203 31.4375H26.3203V32.4375H25.3203V31.4375Z" fill="#C88305"/>
<path id="Rectangle 34625938" d="M27.3203 31.4375H28.3203V32.4375H27.3203V31.4375Z" fill="#C88305"/>
<path id="Rectangle 34625939" d="M29.3203 31.4375H30.3203V32.4375H29.3203V31.4375Z" fill="#C88305"/>
<path id="Rectangle 34625940" d="M31.3203 31.4375H32.3203V32.4375H31.3203V31.4375Z" fill="#C88305"/>
<path id="Rectangle 34625941" d="M33.3203 31.4375H34.3203V32.4375H33.3203V31.4375Z" fill="#C88305"/>
<path id="Rectangle 34625947" d="M11.3203 33.4375H12.3203V34.4375H11.3203V33.4375Z" fill="#C88305"/>
<path id="Rectangle 34625948" d="M13.3203 33.4375H14.3203V34.4375H13.3203V33.4375Z" fill="#C88305"/>
<path id="Rectangle 34625949" d="M15.3203 33.4375H16.3203V34.4375H15.3203V33.4375Z" fill="#C88305"/>
<path id="Rectangle 34625950" d="M17.3203 33.4375H18.3203V34.4375H17.3203V33.4375Z" fill="#C88305"/>
<path id="Rectangle 34625951" d="M19.3203 33.4375H20.3203V34.4375H19.3203V33.4375Z" fill="#C88305"/>
<path id="Rectangle 34625952" d="M21.3203 33.4375H22.3203V34.4375H21.3203V33.4375Z" fill="#C88305"/>
<path id="Rectangle 34625953" d="M23.3203 33.4375H24.3203V34.4375H23.3203V33.4375Z" fill="#C88305"/>
<path id="Rectangle 34625954" d="M25.3203 33.4375H26.3203V34.4375H25.3203V33.4375Z" fill="#C88305"/>
<path id="Rectangle 34625955" d="M27.3203 33.4375H28.3203V34.4375H27.3203V33.4375Z" fill="#C88305"/>
<path id="Rectangle 34625956" d="M29.3203 33.4375H30.3203V34.4375H29.3203V33.4375Z" fill="#C88305"/>
<path id="Rectangle 34625957" d="M31.3203 33.4375H32.3203V34.4375H31.3203V33.4375Z" fill="#C88305"/>
<path id="Rectangle 34625958" d="M33.3203 33.4375H34.3203V34.4375H33.3203V33.4375Z" fill="#C88305"/>
<path id="Rectangle 34625964" d="M11.3203 35.4375H12.3203V36.4375H11.3203V35.4375Z" fill="#C88305"/>
<path id="Rectangle 34625965" d="M13.3203 35.4375H14.3203V36.4375H13.3203V35.4375Z" fill="#C88305"/>
<path id="Rectangle 34625966" d="M15.3203 35.4375H16.3203V36.4375H15.3203V35.4375Z" fill="#C88305"/>
<path id="Rectangle 34625967" d="M17.3203 35.4375H18.3203V36.4375H17.3203V35.4375Z" fill="#C88305"/>
<path id="Rectangle 34625968" d="M19.3203 35.4375H20.3203V36.4375H19.3203V35.4375Z" fill="#C88305"/>
<path id="Rectangle 34625969" d="M21.3203 35.4375H22.3203V36.4375H21.3203V35.4375Z" fill="#C88305"/>
<path id="Rectangle 34625970" d="M23.3203 35.4375H24.3203V36.4375H23.3203V35.4375Z" fill="#C88305"/>
<path id="Rectangle 34625971" d="M25.3203 35.4375H26.3203V36.4375H25.3203V35.4375Z" fill="#C88305"/>
<path id="Rectangle 34625972" d="M27.3203 35.4375H28.3203V36.4375H27.3203V35.4375Z" fill="#C88305"/>
<path id="Rectangle 34625973" d="M29.3203 35.4375H30.3203V36.4375H29.3203V35.4375Z" fill="#C88305"/>
<path id="Rectangle 34625974" d="M31.3203 35.4375H32.3203V36.4375H31.3203V35.4375Z" fill="#C88305"/>
<path id="Rectangle 34625975" d="M33.3203 35.4375H34.3203V36.4375H33.3203V35.4375Z" fill="#C88305"/>
<path id="Rectangle 34625981" d="M11.3203 37.4375H12.3203V38.4375H11.3203V37.4375Z" fill="#C88305"/>
<path id="Rectangle 34625982" d="M13.3203 37.4375H14.3203V38.4375H13.3203V37.4375Z" fill="#C88305"/>
<path id="Rectangle 34625983" d="M15.3203 37.4375H16.3203V38.4375H15.3203V37.4375Z" fill="#C88305"/>
<path id="Rectangle 34625984" d="M17.3203 37.4375H18.3203V38.4375H17.3203V37.4375Z" fill="#C88305"/>
<path id="Rectangle 34625985" d="M19.3203 37.4375H20.3203V38.4375H19.3203V37.4375Z" fill="#C88305"/>
<path id="Rectangle 34625986" d="M21.3203 37.4375H22.3203V38.4375H21.3203V37.4375Z" fill="#C88305"/>
<path id="Rectangle 34625987" d="M23.3203 37.4375H24.3203V38.4375H23.3203V37.4375Z" fill="#C88305"/>
<path id="Rectangle 34625988" d="M25.3203 37.4375H26.3203V38.4375H25.3203V37.4375Z" fill="#C88305"/>
<path id="Rectangle 34625989" d="M27.3203 37.4375H28.3203V38.4375H27.3203V37.4375Z" fill="#C88305"/>
<path id="Rectangle 34625990" d="M29.3203 37.4375H30.3203V38.4375H29.3203V37.4375Z" fill="#C88305"/>
<path id="Rectangle 34625991" d="M31.3203 37.4375H32.3203V38.4375H31.3203V37.4375Z" fill="#C88305"/>
<path id="Rectangle 34625992" d="M33.3203 37.4375H34.3203V38.4375H33.3203V37.4375Z" fill="#C88305"/>
<path id="Rectangle 34625998" d="M11.3203 39.4375H12.3203V40.4375H11.3203V39.4375Z" fill="#C88305"/>
<path id="Rectangle 34625999" d="M13.3203 39.4375H14.3203V40.4375H13.3203V39.4375Z" fill="#C88305"/>
<path id="Rectangle 34626000" d="M15.3203 39.4375H16.3203V40.4375H15.3203V39.4375Z" fill="#C88305"/>
<path id="Rectangle 34626001" d="M17.3203 39.4375H18.3203V40.4375H17.3203V39.4375Z" fill="#C88305"/>
<path id="Rectangle 34626002" d="M19.3203 39.4375H20.3203V40.4375H19.3203V39.4375Z" fill="#C88305"/>
<path id="Rectangle 34626003" d="M21.3203 39.4375H22.3203V40.4375H21.3203V39.4375Z" fill="#C88305"/>
<path id="Rectangle 34626004" d="M23.3203 39.4375H24.3203V40.4375H23.3203V39.4375Z" fill="#C88305"/>
<path id="Rectangle 34626005" d="M25.3203 39.4375H26.3203V40.4375H25.3203V39.4375Z" fill="#C88305"/>
<path id="Rectangle 34626006" d="M27.3203 39.4375H28.3203V40.4375H27.3203V39.4375Z" fill="#C88305"/>
<path id="Rectangle 34626007" d="M29.3203 39.4375H30.3203V40.4375H29.3203V39.4375Z" fill="#C88305"/>
<path id="Rectangle 34626008" d="M31.3203 39.4375H32.3203V40.4375H31.3203V39.4375Z" fill="#C88305"/>
<path id="Rectangle 34626009" d="M33.3203 39.4375H34.3203V40.4375H33.3203V39.4375Z" fill="#C88305"/>
<path id="Rectangle 34626015" d="M11.3203 41.4375H12.3203V42.4375H11.3203V41.4375Z" fill="#C88305"/>
<path id="Rectangle 34626016" d="M13.3203 41.4375H14.3203V42.4375H13.3203V41.4375Z" fill="#C88305"/>
<path id="Rectangle 34626017" d="M15.3203 41.4375H16.3203V42.4375H15.3203V41.4375Z" fill="#C88305"/>
<path id="Rectangle 34626018" d="M17.3203 41.4375H18.3203V42.4375H17.3203V41.4375Z" fill="#C88305"/>
<path id="Rectangle 34626019" d="M19.3203 41.4375H20.3203V42.4375H19.3203V41.4375Z" fill="#C88305"/>
<path id="Rectangle 34626020" d="M21.3203 41.4375H22.3203V42.4375H21.3203V41.4375Z" fill="#C88305"/>
<path id="Rectangle 34626021" d="M23.3203 41.4375H24.3203V42.4375H23.3203V41.4375Z" fill="#C88305"/>
<path id="Rectangle 34626022" d="M25.3203 41.4375H26.3203V42.4375H25.3203V41.4375Z" fill="#C88305"/>
<path id="Rectangle 34626023" d="M27.3203 41.4375H28.3203V42.4375H27.3203V41.4375Z" fill="#C88305"/>
<path id="Rectangle 34626024" d="M29.3203 41.4375H30.3203V42.4375H29.3203V41.4375Z" fill="#C88305"/>
<path id="Rectangle 34626025" d="M31.3203 41.4375H32.3203V42.4375H31.3203V41.4375Z" fill="#C88305"/>
<path id="Rectangle 34626026" d="M33.3203 41.4375H34.3203V42.4375H33.3203V41.4375Z" fill="#C88305"/>
<path id="Rectangle 34626032" d="M11.3203 43.4375H12.3203V44.4375H11.3203V43.4375Z" fill="#C88305"/>
<path id="Rectangle 34626033" d="M13.3203 43.4375H14.3203V44.4375H13.3203V43.4375Z" fill="#C88305"/>
<path id="Rectangle 34626034" d="M15.3203 43.4375H16.3203V44.4375H15.3203V43.4375Z" fill="#C88305"/>
<path id="Rectangle 34626035" d="M17.3203 43.4375H18.3203V44.4375H17.3203V43.4375Z" fill="#C88305"/>
<path id="Rectangle 34626036" d="M19.3203 43.4375H20.3203V44.4375H19.3203V43.4375Z" fill="#C88305"/>
<path id="Rectangle 34626037" d="M21.3203 43.4375H22.3203V44.4375H21.3203V43.4375Z" fill="#C88305"/>
<path id="Rectangle 34626038" d="M23.3203 43.4375H24.3203V44.4375H23.3203V43.4375Z" fill="#C88305"/>
<path id="Rectangle 34626039" d="M25.3203 43.4375H26.3203V44.4375H25.3203V43.4375Z" fill="#C88305"/>
<path id="Rectangle 34626040" d="M27.3203 43.4375H28.3203V44.4375H27.3203V43.4375Z" fill="#C88305"/>
<path id="Rectangle 34626041" d="M29.3203 43.4375H30.3203V44.4375H29.3203V43.4375Z" fill="#C88305"/>
<path id="Rectangle 34626042" d="M31.3203 43.4375H32.3203V44.4375H31.3203V43.4375Z" fill="#C88305"/>
<path id="Rectangle 34626043" d="M33.3203 43.4375H34.3203V44.4375H33.3203V43.4375Z" fill="#C88305"/>
</g>
</g>
</g>
<path id="Polygon 38" d="M27.7631 3.25L23 11.5L18.2369 3.25H27.7631Z" fill="#D78C01" stroke="white" stroke-width="0.5"/>
</g>
<defs>
<filter id="filter0_d_4670_106531" x="0.763672" y="14.584" width="43.7227" height="46.832" filterUnits="userSpaceOnUse" color-interpolation-filters="sRGB">
<feFlood flood-opacity="0" result="BackgroundImageFix"/>
<feColorMatrix in="SourceAlpha" type="matrix" values="0 0 0 0 0 0 0 0 0 0 0 0 0 0 0 0 0 0 127 0" result="hardAlpha"/>
<feOffset dy="4"/>
<feGaussianBlur stdDeviation="2"/>
<feComposite in2="hardAlpha" operator="out"/>
<feColorMatrix type="matrix" values="0 0 0 0 0 0 0 0 0 0 0 0 0 0 0 0 0 0 0.25 0"/>
<feBlend mode="normal" in2="BackgroundImageFix" result="effect1_dropShadow_4670_106531"/>
<feBlend mode="normal" in="SourceGraphic" in2="effect1_dropShadow_4670_106531" result="shape"/>
</filter>
<filter id="filter1_i_4670_106531" x="12" y="22" width="21.6504" height="27.0469" filterUnits="userSpaceOnUse" color-interpolation-filters="sRGB">
<feFlood flood-opacity="0" result="BackgroundImageFix"/>
<feBlend mode="normal" in="SourceGraphic" in2="BackgroundImageFix" result="shape"/>
<feColorMatrix in="SourceAlpha" type="matrix" values="0 0 0 0 0 0 0 0 0 0 0 0 0 0 0 0 0 0 127 0" result="hardAlpha"/>
<feOffset dy="4"/>
<feGaussianBlur stdDeviation="2"/>
<feComposite in2="hardAlpha" operator="arithmetic" k2="-1" k3="1"/>
<feColorMatrix type="matrix" values="0 0 0 0 0.815686 0 0 0 0 0.533333 0 0 0 0 0 0 0 0 1 0"/>
<feBlend mode="normal" in2="shape" result="effect1_innerShadow_4670_106531"/>
</filter>
</defs>
</svg>
