<svg viewBox="0 0 28 28" fill="none" xmlns="http://www.w3.org/2000/svg">
    <path
        d="M25.025 7.66749L20.5133 7.44874L20.2508 4.50655C20.1961 3.88858 19.6437 3.45655 18.9984 3.50577L2.8164 4.83468C2.17109 4.88936 1.70625 5.40889 1.75546 6.02139L2.91484 18.9167C2.96953 19.5347 3.52734 19.9667 4.16718 19.9175L4.9875 19.8519L4.85625 22.3565C4.82343 23.0456 5.35937 23.6034 6.08125 23.6417L24.1336 24.5003C24.8555 24.5331 25.4516 24.03 25.4898 23.3409L26.25 8.94171C26.2828 8.25811 25.7414 7.7003 25.025 7.66749ZM5.6164 7.95733L5.22812 15.3292L4.27109 16.68L3.39062 6.94561V6.91827V6.89092C3.44531 6.61749 3.63125 6.39874 3.91562 6.37686L18.1891 5.20655C18.4734 5.18467 18.7195 5.37061 18.7633 5.63858C18.7633 5.64952 18.7797 5.64952 18.7797 5.66046C18.7797 5.66593 18.7961 5.67139 18.7961 5.68233L18.9437 7.36671L6.96718 6.79249C6.24531 6.77061 5.64921 7.27374 5.6164 7.95733ZM23.882 20.9128L19.2445 15.4714L17.1992 17.3472L13.4148 12.9284L6.70468 20.0761L7.27343 9.1878V9.16593C7.32812 8.87061 7.6125 8.65733 7.92421 8.67374L23.8492 9.43936C24.1664 9.45577 24.4125 9.69639 24.418 9.99717C24.418 10.0081 24.4344 10.0136 24.4344 10.0245L23.882 20.9128Z"
        fill="url(#paint0_linear_9109_107699)" />
    <path
        d="M21 14C21.9625 14 22.75 13.2125 22.75 12.25C22.75 11.2875 21.968 10.5 21 10.5C20.0375 10.5 19.25 11.282 19.25 12.25C19.25 13.218 20.032 14 21 14Z"
        fill="url(#paint1_linear_9109_107699)" />
    <defs>
        <linearGradient id="paint0_linear_9109_107699" x1="14.0017" y1="3.50195" x2="14.0017" y2="24.5018"
            gradientUnits="userSpaceOnUse">
            <stop stop-color="#C37AFD" />
            <stop offset="1" stop-color="#6C54FE" />
        </linearGradient>
        <linearGradient id="paint1_linear_9109_107699" x1="21" y1="10.5" x2="21" y2="14" gradientUnits="userSpaceOnUse">
            <stop stop-color="#C37AFD" />
            <stop offset="1" stop-color="#6C54FE" />
        </linearGradient>
    </defs>
</svg>
