<svg width="28" height="25" viewBox="0 0 28 25" fill="none" xmlns="http://www.w3.org/2000/svg">
<g id="Wallet">
<path id="Vector" d="M27.9991 11.1565V14.0405C27.9991 14.8105 27.3831 15.4405 26.5991 15.4685H23.8551C22.3431 15.4685 20.9571 14.3625 20.8311 12.8505C20.7471 11.9685 21.0831 11.1425 21.6711 10.5685C22.1891 10.0365 22.9031 9.72852 23.6871 9.72852H26.5991C27.3831 9.75652 27.9991 10.3865 27.9991 11.1565Z" fill="url(#paint0_linear_4915_105497)"/>
<g id="Vector_2" filter="url(#filter0_i_4915_105497)">
<path d="M25.8577 17.569H23.8557C21.1958 17.569 18.9558 15.5671 18.7318 13.0191C18.6058 11.5631 19.1378 10.1071 20.2018 9.07113C21.0978 8.14714 22.3438 7.62914 23.6877 7.62914H25.8577C26.2637 7.62914 26.5997 7.29315 26.5577 6.88715C26.2497 3.48519 23.9957 1.16121 20.6498 0.769218C20.3138 0.713219 19.9638 0.699219 19.5998 0.699219H6.99992C6.60793 0.699219 6.22993 0.727218 5.86594 0.783218C2.29598 1.23121 0 3.89118 0 7.69914V17.499C0 21.363 3.13597 24.499 6.99992 24.499H19.5998C23.5197 24.499 26.2217 22.049 26.5577 18.311C26.5997 17.905 26.2637 17.569 25.8577 17.569ZM15.3998 9.44912H6.99992C6.42593 9.44912 5.94994 8.97313 5.94994 8.39914C5.94994 7.82514 6.42593 7.34915 6.99992 7.34915H15.3998C15.9738 7.34915 16.4498 7.82514 16.4498 8.39914C16.4498 8.97313 15.9738 9.44912 15.3998 9.44912Z" fill="url(#paint1_linear_4915_105497)"/>
</g>
</g>
<defs>
<filter id="filter0_i_4915_105497" x="0" y="0.699219" width="26.5605" height="27.7988" filterUnits="userSpaceOnUse" color-interpolation-filters="sRGB">
<feFlood flood-opacity="0" result="BackgroundImageFix"/>
<feBlend mode="normal" in="SourceGraphic" in2="BackgroundImageFix" result="shape"/>
<feColorMatrix in="SourceAlpha" type="matrix" values="0 0 0 0 0 0 0 0 0 0 0 0 0 0 0 0 0 0 127 0" result="hardAlpha"/>
<feOffset dy="4"/>
<feGaussianBlur stdDeviation="2"/>
<feComposite in2="hardAlpha" operator="arithmetic" k2="-1" k3="1"/>
<feColorMatrix type="matrix" values="0 0 0 0 1 0 0 0 0 0 0 0 0 0 0 0 0 0 0.25 0"/>
<feBlend mode="normal" in2="shape" result="effect1_innerShadow_4915_105497"/>
</filter>
<linearGradient id="paint0_linear_4915_105497" x1="16.4586" y1="1.11847" x2="31.9072" y2="9.2894" gradientUnits="userSpaceOnUse">
<stop stop-color="#684FFF"/>
<stop offset="1" stop-color="#B871FE"/>
</linearGradient>
<linearGradient id="paint1_linear_4915_105497" x1="-16.1267" y1="-35.001" x2="43.6864" y2="-6.77836" gradientUnits="userSpaceOnUse">
<stop stop-color="#684FFF"/>
<stop offset="1" stop-color="#B871FE"/>
</linearGradient>
</defs>
</svg>
