<svg width="24" height="26" viewBox="0 0 24 26" fill="none" xmlns="http://www.w3.org/2000/svg">
<g id="&#233;&#135;&#145;&#229;&#184;&#129;">
<path id="&#60;Path&#62;" d="M20.4135 3.33352C24.4959 6.46335 25.1762 12.9952 22.0464 18.4384C18.9165 24.0177 12.793 26.6032 8.16628 24.562C6.94156 24.1538 5.85299 23.4733 4.49219 22.7929L10.7518 11.9066L17.0115 1.15625C18.3723 1.83665 19.3248 2.51704 20.4135 3.33352V3.33352Z" fill="url(#paint0_linear_5329_132051)"/>
<path id="&#60;Path&#62;_2" style="mix-blend-mode:screen" d="M20.2749 4.84845C23.1326 7.02573 24.0851 11.6525 22.3161 15.8709C20.6831 19.9533 17.0089 21.9945 13.879 20.6337C13.0625 20.3616 12.3822 19.9533 11.4297 19.409L14.6956 11.3803L17.9614 3.35156C18.914 3.89588 19.5945 4.30413 20.2749 4.84845V4.84845Z" fill="url(#paint1_radial_5329_132051)"/>
<path id="&#60;Path&#62;_3" style="mix-blend-mode:multiply" d="M20.1414 4.15C19.3249 2.92528 18.3723 1.83665 17.0115 1.15625C18.3723 1.83665 19.3248 2.51704 20.4135 3.33352C24.4959 6.46335 25.1762 12.9952 22.0464 18.4384C18.9165 24.0177 12.793 26.6032 8.16628 24.562C6.94156 24.1538 5.85299 23.4733 4.49219 22.7929C6.66947 24.0177 9.11884 24.1538 11.5683 23.6094C15.3785 24.562 19.8692 22.2486 22.3186 17.758C24.9041 12.8591 24.0876 7.27985 20.6856 4.55825C20.5041 4.46753 20.3228 4.33144 20.1414 4.15V4.15Z" fill="url(#paint2_radial_5329_132051)"/>
<g id="&#60;Path&#62;_4" style="mix-blend-mode:screen">
<path d="M17.6913 1.71562C22.318 4.30114 23.4066 11.1051 20.0046 16.9566C16.6026 22.6719 10.2068 25.2575 5.58012 22.6719C1.08948 19.9503 0.000877604 13.1463 3.40288 7.29491C6.66879 1.57955 13.2006 -1.00598 17.6913 1.71562V1.71562Z" fill="#FCCE3A"/>
</g>
<path id="&#60;Path&#62;_5" d="M17.0077 1.16516C21.9066 3.88676 22.9953 11.099 19.5933 17.0865C16.1913 23.074 9.38731 25.6595 4.48843 22.8019C-0.274363 19.9442 -1.49915 12.868 2.03893 6.88051C5.44093 0.892998 12.2449 -1.69252 17.0077 1.16516V1.16516Z" fill="url(#paint3_radial_5329_132051)"/>
<g id="&#60;Path&#62;_6" style="mix-blend-mode:screen">
<path d="M11.969 20.7618C11.969 21.034 11.6968 21.3061 11.4246 21.3061C11.0164 21.4422 10.7442 21.3061 10.6082 21.1701C9.11128 21.5783 7.61427 21.4422 6.38955 20.7618C2.44324 18.9928 1.21855 13.5496 3.53191 8.6507C4.75663 5.92911 6.79779 3.88791 9.11115 2.93535C9.11115 2.66319 9.38331 2.25495 9.79155 2.25495C10.1998 2.11887 10.472 2.25494 10.7442 2.39102C11.1978 2.3003 11.6967 2.25495 12.2411 2.25495C12.3771 2.11887 12.6493 1.98278 12.9215 2.11886C13.1029 2.11886 13.239 2.20958 13.3298 2.39102C13.7834 2.48174 14.237 2.66319 14.6906 2.93535C18.5008 4.70439 19.8616 10.1476 17.5482 15.0465C16.1874 17.7681 14.2823 19.8092 11.969 20.7618Z" fill="#FFFCE4"/>
</g>
<path id="&#60;Path&#62;_7" d="M15.3711 3.34139C19.0452 5.38259 19.7256 10.9619 17.004 15.5886C14.4185 20.2153 9.24739 22.3926 5.57323 20.2153C2.03516 18.1741 1.21874 12.7309 3.94034 7.96812C6.66194 3.3414 11.6969 1.30019 15.3711 3.34139Z" fill="url(#paint4_radial_5329_132051)"/>
<path id="&#60;Path&#62;_8" style="mix-blend-mode:multiply" opacity="0.5" d="M6.38968 20.6236C6.11752 20.5328 5.84539 20.3967 5.57323 20.2153C2.03516 18.1741 1.21874 12.7309 3.94034 7.96812C6.66194 3.3414 11.6969 1.30019 15.3711 3.34139C16.5958 4.02179 17.5484 5.11043 18.0927 6.47123C17.7298 6.10835 17.2762 5.79084 16.7319 5.51868C13.3299 3.47748 8.43101 5.38259 5.84549 9.87323C3.66822 13.8195 3.94024 18.3102 6.38968 20.6236V20.6236Z" fill="url(#paint5_radial_5329_132051)"/>
<path id="&#60;Path&#62;_9" d="M5.57323 20.2081C2.03516 18.1669 1.21874 12.7237 3.94034 7.96089C6.66194 3.33417 11.6969 1.29298 15.6432 3.60634C12.1051 2.24554 7.61453 4.42281 5.16509 8.64129C2.71566 12.9958 3.1238 17.8947 5.57323 20.2081V20.2081Z" fill="url(#paint6_linear_5329_132051)"/>
<path id="&#60;Path&#62;_10" style="mix-blend-mode:multiply" d="M13.0576 3.19809C13.9648 3.19809 14.8267 3.33418 15.6432 3.60634C11.6969 1.29298 6.66194 3.33417 3.94034 7.96089C1.21874 12.7237 2.03516 18.1669 5.57323 20.2081C5.57323 19.9359 5.16503 19.5277 4.75679 19.1194C2.17127 16.8061 1.62698 12.1794 3.94034 8.23304C5.98154 4.42281 9.92779 2.38161 13.0576 3.19809V3.19809Z" fill="url(#paint7_radial_5329_132051)"/>
<path id="&#60;Path&#62;_11" style="mix-blend-mode:screen" d="M16.1886 5.38335C9.79284 2.52567 3.80532 10.8265 4.6218 16.2697C8.15988 14.9089 14.1474 12.0513 16.1886 5.38335Z" fill="url(#paint8_radial_5329_132051)"/>
<g id="Group 1410068338" filter="url(#filter0_di_5329_132051)">
<g id="robot" filter="url(#filter1_d_5329_132051)">
<path id="Subtract" fill-rule="evenodd" clip-rule="evenodd" d="M6.86391 8.56781C7.83953 7.44919 9.24361 6.95595 12.1141 7.95723C12.8543 8.25633 13.8858 8.80545 14.7129 9.58236C16.3766 11.1452 16.1348 13.9582 14.6219 15.6596C13.9452 16.4205 12.9962 16.9152 11.6468 16.7037C10.0491 16.2581 6.48574 14.933 5.64982 13.2845C5.45576 12.9019 5.28343 12.4033 5.57363 11.2455C5.7499 10.5423 6.07137 9.88556 6.41465 9.24706C6.54355 9.00732 6.68496 8.773 6.86391 8.56781ZM6.11472 11.4382C6.04455 11.9851 6.23049 12.3456 7.08382 12.6163C8.47081 13.0562 10.828 14.1754 11.8332 14.6799C11.991 14.7558 12.2146 14.8158 12.464 14.8098C13.9221 14.775 14.5704 13.0677 14.6671 11.6159C14.7409 10.5085 13.6276 9.49638 12.6206 9.02212C11.9743 8.7177 11.1305 8.40708 9.99137 8.11662C8.9195 7.92209 7.85542 7.86656 7.08123 9.02175C6.65935 9.7845 6.22568 10.5735 6.11472 11.4382Z" fill="white"/>
<path id="Ellipse 4054" d="M13.4093 7.06907C13.2088 7.53042 12.6723 7.74192 12.211 7.54146C11.7496 7.341 11.5381 6.8045 11.7386 6.34316C11.9391 5.88181 12.4756 5.67031 12.9369 5.87077C13.3983 6.07123 13.6097 6.60773 13.4093 7.06907Z" fill="white"/>
<path id="Rectangle 34625726" d="M12.1172 7.14453L12.4605 7.29371L12.2127 7.86405L11.8694 7.71487L12.1172 7.14453Z" fill="white"/>
<path id="Rectangle 34625727" d="M12.0393 11.428C12.1729 11.1204 12.5306 10.9794 12.8381 11.1131L13.1166 11.2341C13.4242 11.3677 13.5652 11.7254 13.4315 12.0329L13.0081 13.0075C12.8744 13.3151 12.5168 13.4561 12.2092 13.3225L11.9307 13.2015C11.6232 13.0678 11.4822 12.7102 11.6158 12.4026L12.0393 11.428Z" fill="white"/>
<path id="Rectangle 34625728" d="M7.8674 9.75611C8.00104 9.44855 8.35871 9.30755 8.66627 9.44119L8.94474 9.56219C9.25231 9.69583 9.3933 10.0535 9.25967 10.3611L8.8362 11.3357C8.70256 11.6432 8.3449 11.7842 8.03733 11.6506L7.75886 11.5296C7.45129 11.3959 7.3103 11.0383 7.44393 10.7307L7.8674 9.75611Z" fill="white"/>
<path id="Subtract_2" fill-rule="evenodd" clip-rule="evenodd" d="M15.0822 15.4851C15.7163 14.6524 16.0745 13.6106 16.0953 12.5894L16.1182 12.5395L16.3645 12.6527C16.792 12.8492 16.9798 13.354 16.7839 13.7801L16.1946 15.0619C16.0012 15.4825 15.5062 15.6693 15.0822 15.4851Z" fill="white"/>
<path id="Subtract_3" fill-rule="evenodd" clip-rule="evenodd" d="M6.76908 8.49686C6.76385 8.50279 6.75863 8.50875 6.75342 8.51472C6.57446 8.71991 6.43304 8.95424 6.30415 9.19398C5.96085 9.83249 5.63938 10.4892 5.46311 11.1925C5.45598 11.2209 5.44914 11.249 5.44256 11.2766C5.10166 11.0596 4.95358 10.6242 5.11184 10.2378L5.64667 8.93241C5.82372 8.50024 6.31765 8.29265 6.75227 8.46776L6.77693 8.47769L6.76908 8.49686Z" fill="white"/>
<path id="Rectangle 34625729" d="M11.034 7.69881C11.1015 7.52645 11.296 7.44147 11.4683 7.50901L12.6399 7.96815C12.8122 8.03569 12.8972 8.23017 12.8297 8.40254L11.034 7.69881Z" fill="white"/>
</g>
</g>
<g id="&#60;Group&#62;">
<path id="&#60;Path&#62;_12" d="M20.4135 3.33352C24.4959 6.46335 25.1762 12.9952 22.0464 18.4384C18.9165 24.0177 12.793 26.6032 8.16628 24.562C6.94156 24.1538 5.85299 23.4733 4.49219 22.7929L10.7518 11.9066L17.0115 1.15625C18.3723 1.83665 19.3248 2.51704 20.4135 3.33352V3.33352Z" fill="url(#paint9_linear_5329_132051)"/>
<path id="&#60;Path&#62;_13" style="mix-blend-mode:screen" d="M20.2749 4.84845C23.1326 7.02573 24.0851 11.6525 22.3161 15.8709C20.6831 19.9533 17.0089 21.9945 13.879 20.6337C13.0625 20.3616 12.3822 19.9533 11.4297 19.409L14.6956 11.3803L17.9614 3.35156C18.914 3.89588 19.5945 4.30413 20.2749 4.84845V4.84845Z" fill="url(#paint10_radial_5329_132051)"/>
<path id="&#60;Path&#62;_14" style="mix-blend-mode:multiply" d="M20.1414 4.15C19.3249 2.92528 18.3723 1.83665 17.0115 1.15625C18.3723 1.83665 19.3248 2.51704 20.4135 3.33352C24.4959 6.46335 25.1762 12.9952 22.0464 18.4384C18.9165 24.0177 12.793 26.6032 8.16628 24.562C6.94156 24.1538 5.85299 23.4733 4.49219 22.7929C6.66947 24.0177 9.11884 24.1538 11.5683 23.6094C15.3785 24.562 19.8692 22.2486 22.3186 17.758C24.9041 12.8591 24.0876 7.27985 20.6856 4.55825C20.5041 4.46753 20.3228 4.33144 20.1414 4.15V4.15Z" fill="url(#paint11_radial_5329_132051)"/>
<g id="&#60;Path&#62;_15" style="mix-blend-mode:screen">
<path d="M17.6913 1.71562C22.318 4.30114 23.4066 11.1051 20.0046 16.9566C16.6026 22.6719 10.2068 25.2575 5.58012 22.6719C1.08948 19.9503 0.000877604 13.1463 3.40288 7.29491C6.66879 1.57955 13.2006 -1.00598 17.6913 1.71562V1.71562Z" fill="#3AC2FC"/>
</g>
<path id="&#60;Path&#62;_16" d="M17.0077 1.16516C21.9066 3.88676 22.9953 11.099 19.5933 17.0865C16.1913 23.074 9.38731 25.6595 4.48843 22.8019C-0.274364 19.9442 -1.49915 12.868 2.03893 6.88051C5.44093 0.892998 12.2449 -1.69252 17.0077 1.16516Z" fill="url(#paint12_radial_5329_132051)"/>
<path id="&#60;Path&#62;_17" d="M15.3711 3.34139C19.0452 5.38259 19.7256 10.9619 17.004 15.5886C14.4185 20.2153 9.24739 22.3926 5.57323 20.2153C2.03516 18.1741 1.21874 12.7309 3.94034 7.96812C6.66194 3.3414 11.6969 1.30019 15.3711 3.34139Z" fill="url(#paint13_radial_5329_132051)"/>
<path id="&#60;Path&#62;_18" style="mix-blend-mode:multiply" opacity="0.5" d="M6.38968 20.6236C6.11752 20.5328 5.84539 20.3967 5.57323 20.2153C2.03516 18.1741 1.21874 12.7309 3.94034 7.96812C6.66194 3.3414 11.6969 1.30019 15.3711 3.34139C16.5958 4.02179 17.5484 5.11043 18.0927 6.47123C17.7298 6.10835 17.2762 5.79084 16.7319 5.51868C13.3299 3.47748 8.43101 5.38259 5.84549 9.87323C3.66822 13.8195 3.94024 18.3102 6.38968 20.6236V20.6236Z" fill="url(#paint14_radial_5329_132051)"/>
<path id="&#60;Path&#62;_19" d="M5.57323 20.2081C2.03516 18.1669 1.21874 12.7237 3.94034 7.96089C6.66194 3.33417 11.6969 1.29298 15.6432 3.60634C12.1051 2.24554 7.61453 4.42281 5.16509 8.64129C2.71566 12.9958 3.1238 17.8947 5.57323 20.2081V20.2081Z" fill="url(#paint15_linear_5329_132051)"/>
<path id="&#60;Path&#62;_20" style="mix-blend-mode:multiply" d="M13.0576 3.19809C13.9648 3.19809 14.8267 3.33418 15.6432 3.60634C11.6969 1.29298 6.66194 3.33417 3.94034 7.96089C1.21874 12.7237 2.03516 18.1669 5.57323 20.2081C5.57323 19.9359 5.16503 19.5277 4.75679 19.1194C2.17127 16.8061 1.62698 12.1794 3.94034 8.23304C5.98154 4.42281 9.92779 2.38161 13.0576 3.19809V3.19809Z" fill="url(#paint16_radial_5329_132051)"/>
<path id="&#60;Path&#62;_21" style="mix-blend-mode:screen" d="M16.1886 5.38335C9.79284 2.52567 3.80532 10.8265 4.6218 16.2697C8.15988 14.9089 14.1474 12.0513 16.1886 5.38335Z" fill="url(#paint17_radial_5329_132051)"/>
<g id="Vector" filter="url(#filter2_d_5329_132051)">
<path d="M15.1662 12.8768L8.44236 17.0134C8.36049 17.0636 8.26941 17.092 8.17768 17.0959C8.08595 17.0999 7.99658 17.0793 7.91796 17.036C7.83934 16.9927 7.77406 16.9283 7.72824 16.8487C7.68243 16.769 7.65758 16.6769 7.65605 16.5808L7.55882 8.7253C7.55637 8.50511 7.61228 8.28378 7.72035 8.0859C7.88397 7.79605 8.14557 7.57751 8.44779 7.47824C8.75001 7.37896 9.06816 7.40704 9.33247 7.55633L15.1983 10.755C15.7585 11.0605 15.9497 11.7935 15.6232 12.3923C15.5149 12.5909 15.3569 12.7593 15.1662 12.8768ZM8.49681 8.97913L8.69215 14.5969L11.2421 9.92071L8.99274 8.69411C8.73244 8.55217 8.51361 8.67739 8.49681 8.97913ZM9.62216 15.1041L14.451 12.226C14.6978 12.0497 14.6818 11.7964 14.4215 11.6545L12.1721 10.4279L9.62216 15.1041Z" fill="white"/>
</g>
</g>
</g>
<defs>
<filter id="filter0_di_5329_132051" x="1.04688" y="5.79492" width="19.8125" height="18.957" filterUnits="userSpaceOnUse" color-interpolation-filters="sRGB">
<feFlood flood-opacity="0" result="BackgroundImageFix"/>
<feColorMatrix in="SourceAlpha" type="matrix" values="0 0 0 0 0 0 0 0 0 0 0 0 0 0 0 0 0 0 127 0" result="hardAlpha"/>
<feOffset dy="4"/>
<feGaussianBlur stdDeviation="2"/>
<feComposite in2="hardAlpha" operator="out"/>
<feColorMatrix type="matrix" values="0 0 0 0 0.920833 0 0 0 0 0.830822 0 0 0 0 0.656094 0 0 0 0.25 0"/>
<feBlend mode="normal" in2="BackgroundImageFix" result="effect1_dropShadow_5329_132051"/>
<feBlend mode="normal" in="SourceGraphic" in2="effect1_dropShadow_5329_132051" result="shape"/>
<feColorMatrix in="SourceAlpha" type="matrix" values="0 0 0 0 0 0 0 0 0 0 0 0 0 0 0 0 0 0 127 0" result="hardAlpha"/>
<feOffset/>
<feGaussianBlur stdDeviation="0.65"/>
<feComposite in2="hardAlpha" operator="arithmetic" k2="-1" k3="1"/>
<feColorMatrix type="matrix" values="0 0 0 0 0.504476 0 0 0 0 0.454028 0 0 0 0 0 0 0 0 0.25 0"/>
<feBlend mode="normal" in2="shape" result="effect2_innerShadow_5329_132051"/>
</filter>
<filter id="filter1_d_5329_132051" x="5.04688" y="5.79492" width="12.4125" height="11.257" filterUnits="userSpaceOnUse" color-interpolation-filters="sRGB">
<feFlood flood-opacity="0" result="BackgroundImageFix"/>
<feColorMatrix in="SourceAlpha" type="matrix" values="0 0 0 0 0 0 0 0 0 0 0 0 0 0 0 0 0 0 127 0" result="hardAlpha"/>
<feOffset dx="0.5" dy="0.2"/>
<feGaussianBlur stdDeviation="0.05"/>
<feComposite in2="hardAlpha" operator="out"/>
<feColorMatrix type="matrix" values="0 0 0 0 1 0 0 0 0 1 0 0 0 0 1 0 0 0 0.61 0"/>
<feBlend mode="normal" in2="BackgroundImageFix" result="effect1_dropShadow_5329_132051"/>
<feBlend mode="normal" in="SourceGraphic" in2="effect1_dropShadow_5329_132051" result="shape"/>
</filter>
<filter id="filter2_d_5329_132051" x="6.9625" y="7.41992" width="9.41875" height="11.2758" filterUnits="userSpaceOnUse" color-interpolation-filters="sRGB">
<feFlood flood-opacity="0" result="BackgroundImageFix"/>
<feColorMatrix in="SourceAlpha" type="matrix" values="0 0 0 0 0 0 0 0 0 0 0 0 0 0 0 0 0 0 127 0" result="hardAlpha"/>
<feOffset dy="1"/>
<feGaussianBlur stdDeviation="0.3"/>
<feComposite in2="hardAlpha" operator="out"/>
<feColorMatrix type="matrix" values="0 0 0 0 0 0 0 0 0 0 0 0 0 0 0 0 0 0 0.25 0"/>
<feBlend mode="normal" in2="BackgroundImageFix" result="effect1_dropShadow_5329_132051"/>
<feBlend mode="normal" in="SourceGraphic" in2="effect1_dropShadow_5329_132051" result="shape"/>
</filter>
<linearGradient id="paint0_linear_5329_132051" x1="-4.35296" y1="16.5333" x2="7.48602" y2="-4.01473" gradientUnits="userSpaceOnUse">
<stop stop-color="#E86F0C"/>
<stop offset="0.7" stop-color="#FC940D"/>
<stop offset="1" stop-color="#E86F0C"/>
</linearGradient>
<radialGradient id="paint1_radial_5329_132051" cx="0" cy="0" r="1" gradientUnits="userSpaceOnUse" gradientTransform="translate(14.5595 11.2442) scale(10.8864 10.8864)">
<stop stop-color="#FFF369"/>
<stop offset="1"/>
</radialGradient>
<radialGradient id="paint2_radial_5329_132051" cx="0" cy="0" r="1" gradientUnits="userSpaceOnUse" gradientTransform="translate(8.3024 10.2736) scale(16.0573 16.0574)">
<stop offset="0.5" stop-color="white"/>
<stop offset="1" stop-color="#B09444"/>
</radialGradient>
<radialGradient id="paint3_radial_5329_132051" cx="0" cy="0" r="1" gradientUnits="userSpaceOnUse" gradientTransform="translate(6.80175 2.11772) scale(19.1873 19.1873)">
<stop stop-color="#FCF80D"/>
<stop offset="1" stop-color="#FC9C0D"/>
</radialGradient>
<radialGradient id="paint4_radial_5329_132051" cx="0" cy="0" r="1" gradientUnits="userSpaceOnUse" gradientTransform="translate(1.21872 0.211553) scale(23.5418 23.5418)">
<stop stop-color="#FCF80D"/>
<stop offset="1" stop-color="#F78A0C"/>
</radialGradient>
<radialGradient id="paint5_radial_5329_132051" cx="0" cy="0" r="1" gradientUnits="userSpaceOnUse" gradientTransform="translate(15.0989 14.2278) scale(14.4245 14.4245)">
<stop offset="0.5" stop-color="white"/>
<stop offset="1" stop-color="#FFA84B"/>
</radialGradient>
<linearGradient id="paint6_linear_5329_132051" x1="-8.44294" y1="11.635" x2="0.40225" y2="-3.74197" gradientUnits="userSpaceOnUse">
<stop stop-color="#FC940D"/>
<stop offset="1" stop-color="#E86F0C"/>
</linearGradient>
<radialGradient id="paint7_radial_5329_132051" cx="0" cy="0" r="1" gradientUnits="userSpaceOnUse" gradientTransform="translate(14.9628 14.7649) scale(13.4719 13.4719)">
<stop offset="0.5" stop-color="white"/>
<stop offset="1" stop-color="#B09444"/>
</radialGradient>
<radialGradient id="paint8_radial_5329_132051" cx="0" cy="0" r="1" gradientUnits="userSpaceOnUse" gradientTransform="translate(0.539406 1.84527) scale(18.6429 18.6429)">
<stop stop-color="#FFF369"/>
<stop offset="1"/>
</radialGradient>
<linearGradient id="paint9_linear_5329_132051" x1="-4.35296" y1="16.5333" x2="7.48602" y2="-4.01473" gradientUnits="userSpaceOnUse">
<stop stop-color="#0CB3E8"/>
<stop offset="0.7" stop-color="#0DA6FC"/>
<stop offset="1" stop-color="#0CDBE8"/>
</linearGradient>
<radialGradient id="paint10_radial_5329_132051" cx="0" cy="0" r="1" gradientUnits="userSpaceOnUse" gradientTransform="translate(14.5595 11.2442) scale(10.8864 10.8864)">
<stop stop-color="#69DBFF"/>
<stop offset="1"/>
</radialGradient>
<radialGradient id="paint11_radial_5329_132051" cx="0" cy="0" r="1" gradientUnits="userSpaceOnUse" gradientTransform="translate(8.3024 10.2736) scale(16.0573 16.0574)">
<stop offset="0.5" stop-color="white"/>
<stop offset="1" stop-color="#4489B0"/>
</radialGradient>
<radialGradient id="paint12_radial_5329_132051" cx="0" cy="0" r="1" gradientUnits="userSpaceOnUse" gradientTransform="translate(6.80175 2.11772) scale(19.1873 19.1873)">
<stop stop-color="#0D6DFC"/>
<stop offset="1" stop-color="#0DC3FC"/>
</radialGradient>
<radialGradient id="paint13_radial_5329_132051" cx="0" cy="0" r="1" gradientUnits="userSpaceOnUse" gradientTransform="translate(1.21872 0.211553) scale(23.5418 23.5418)">
<stop stop-color="#49AEF0"/>
<stop offset="1" stop-color="#3DB3EB"/>
</radialGradient>
<radialGradient id="paint14_radial_5329_132051" cx="0" cy="0" r="1" gradientUnits="userSpaceOnUse" gradientTransform="translate(15.0989 14.2278) scale(14.4245 14.4245)">
<stop offset="0.5" stop-color="white"/>
<stop offset="1" stop-color="#4BD4FF"/>
</radialGradient>
<linearGradient id="paint15_linear_5329_132051" x1="-8.44294" y1="11.635" x2="0.40225" y2="-3.74197" gradientUnits="userSpaceOnUse">
<stop stop-color="#0DD1FC"/>
<stop offset="1" stop-color="#0C3CE8"/>
</linearGradient>
<radialGradient id="paint16_radial_5329_132051" cx="0" cy="0" r="1" gradientUnits="userSpaceOnUse" gradientTransform="translate(14.9628 14.7649) scale(13.4719 13.4719)">
<stop offset="0.5" stop-color="white"/>
<stop offset="1" stop-color="#4469B0"/>
</radialGradient>
<radialGradient id="paint17_radial_5329_132051" cx="0" cy="0" r="1" gradientUnits="userSpaceOnUse" gradientTransform="translate(0.539406 1.84527) scale(18.6429 18.6429)">
<stop stop-color="#FFF369"/>
<stop offset="1"/>
</radialGradient>
</defs>
</svg>
