<svg width="24" height="26" viewBox="0 0 24 26" fill="none" xmlns="http://www.w3.org/2000/svg">
<g id="&#233;&#135;&#145;&#229;&#184;&#129;">
<path id="&#60;Path&#62;" d="M20.4135 3.33352C24.4959 6.46335 25.1762 12.9952 22.0464 18.4384C18.9165 24.0177 12.793 26.6032 8.16628 24.562C6.94156 24.1538 5.85299 23.4733 4.49219 22.7929L10.7518 11.9066L17.0115 1.15625C18.3723 1.83665 19.3248 2.51704 20.4135 3.33352V3.33352Z" fill="url(#paint0_linear_5280_127957)"/>
<path id="&#60;Path&#62;_2" style="mix-blend-mode:screen" d="M20.2749 4.84845C23.1326 7.02573 24.0851 11.6525 22.3161 15.8709C20.6831 19.9533 17.0089 21.9945 13.879 20.6337C13.0625 20.3616 12.3822 19.9533 11.4297 19.409L14.6956 11.3803L17.9614 3.35156C18.914 3.89588 19.5945 4.30413 20.2749 4.84845V4.84845Z" fill="url(#paint1_radial_5280_127957)"/>
<path id="&#60;Path&#62;_3" style="mix-blend-mode:multiply" d="M20.1414 4.15C19.3249 2.92528 18.3723 1.83665 17.0115 1.15625C18.3723 1.83665 19.3248 2.51704 20.4135 3.33352C24.4959 6.46335 25.1762 12.9952 22.0464 18.4384C18.9165 24.0177 12.793 26.6032 8.16628 24.562C6.94156 24.1538 5.85299 23.4733 4.49219 22.7929C6.66947 24.0177 9.11884 24.1538 11.5683 23.6094C15.3785 24.562 19.8692 22.2486 22.3186 17.758C24.9041 12.8591 24.0876 7.27985 20.6856 4.55825C20.5041 4.46753 20.3228 4.33144 20.1414 4.15V4.15Z" fill="url(#paint2_radial_5280_127957)"/>
<g id="&#60;Path&#62;_4" style="mix-blend-mode:screen">
<path d="M17.6913 1.71562C22.318 4.30114 23.4066 11.1051 20.0046 16.9566C16.6026 22.6719 10.2068 25.2575 5.58012 22.6719C1.08948 19.9503 0.000877604 13.1463 3.40288 7.29491C6.66879 1.57955 13.2006 -1.00598 17.6913 1.71562V1.71562Z" fill="#FCCE3A"/>
</g>
<path id="&#60;Path&#62;_5" d="M17.0077 1.16516C21.9066 3.88676 22.9953 11.099 19.5933 17.0865C16.1913 23.074 9.38731 25.6595 4.48843 22.8019C-0.274363 19.9442 -1.49915 12.868 2.03893 6.88051C5.44093 0.892998 12.2449 -1.69252 17.0077 1.16516V1.16516Z" fill="url(#paint3_radial_5280_127957)"/>
<path id="&#60;Path&#62;_6" d="M15.3789 3.34139C19.0531 5.38259 19.7334 10.9619 17.0118 15.5886C14.4263 20.2153 9.2552 22.3926 5.58105 20.2153C2.04297 18.1741 1.22656 12.7309 3.94815 7.96812C6.66975 3.3414 11.7047 1.30019 15.3789 3.34139Z" fill="url(#paint4_radial_5280_127957)"/>
<path id="&#60;Path&#62;_7" style="mix-blend-mode:multiply" opacity="0.5" d="M6.39749 20.6236C6.12533 20.5328 5.85321 20.3967 5.58105 20.2153C2.04297 18.1741 1.22656 12.7309 3.94815 7.96812C6.66975 3.3414 11.7047 1.30019 15.3789 3.34139C16.6036 4.02179 17.5562 5.11043 18.1005 6.47123C17.7376 6.10835 17.284 5.79084 16.7397 5.51868C13.3377 3.47748 8.43882 5.38259 5.85331 9.87323C3.67603 13.8195 3.94805 18.3102 6.39749 20.6236V20.6236Z" fill="url(#paint5_radial_5280_127957)"/>
<path id="&#60;Path&#62;_8" d="M5.58105 20.2081C2.04297 18.1669 1.22656 12.7237 3.94815 7.96089C6.66975 3.33417 11.7047 1.29298 15.651 3.60634C12.1129 2.24554 7.62235 4.42281 5.17291 8.64129C2.72347 12.9958 3.13161 17.8947 5.58105 20.2081V20.2081Z" fill="url(#paint6_linear_5280_127957)"/>
<path id="&#60;Path&#62;_9" style="mix-blend-mode:multiply" d="M13.0654 3.19809C13.9726 3.19809 14.8345 3.33418 15.651 3.60634C11.7047 1.29298 6.66975 3.33417 3.94815 7.96089C1.22656 12.7237 2.04297 18.1669 5.58105 20.2081C5.58105 19.9359 5.17284 19.5277 4.7646 19.1194C2.17908 16.8061 1.6348 12.1794 3.94815 8.23304C5.98935 4.42281 9.9356 2.38161 13.0654 3.19809V3.19809Z" fill="url(#paint7_radial_5280_127957)"/>
<path id="&#60;Path&#62;_10" style="mix-blend-mode:screen" d="M15.6417 4.58257C9.24596 1.72489 3.25845 10.0258 4.07493 15.469C7.613 14.1082 13.6005 11.2505 15.6417 4.58257Z" fill="url(#paint8_radial_5280_127957)"/>
<g id="Group 1410068338">
<g id="robot" filter="url(#filter0_d_5280_127957)">
<path id="Subtract" fill-rule="evenodd" clip-rule="evenodd" d="M6.37638 9.92806C6.99965 8.58096 8.20938 7.7142 11.2454 7.87145C12.0398 7.95125 13.1837 8.1895 14.1953 8.70366C16.2302 9.73793 16.7859 12.5061 15.8101 14.5631C15.3737 15.4832 14.6012 16.2238 13.2465 16.3987C11.588 16.4184 7.79612 16.1444 6.53194 14.7961C6.23847 14.483 5.9334 14.0527 5.88772 12.86C5.85997 12.1355 5.98463 11.415 6.13534 10.7059C6.19193 10.4397 6.26206 10.1752 6.37638 9.92806ZM6.46112 12.8934C6.54694 13.4381 6.82641 13.7321 7.72139 13.7529C9.17608 13.7868 11.7524 14.2009 12.8587 14.4037C13.0314 14.4324 13.2629 14.4273 13.5006 14.3518C14.8906 13.9099 15.0348 12.0894 14.721 10.6686C14.4816 9.58489 13.1294 8.92509 12.03 8.75183C11.3242 8.64062 10.4272 8.57876 9.25229 8.61898C8.16884 8.73246 7.1318 8.97717 6.71214 10.303C6.52078 11.1533 6.32544 12.0322 6.46112 12.8934Z" fill="white"/>
<path id="Ellipse 4054" d="M12.2395 6.65594C12.1763 7.15497 11.7205 7.50826 11.2215 7.44504C10.7225 7.38182 10.3692 6.92603 10.4324 6.42701C10.4956 5.92798 10.9514 5.57469 11.4504 5.63791C11.9495 5.70112 12.3028 6.15691 12.2395 6.65594Z" fill="white"/>
<path id="Rectangle 34625726" d="M11.0156 7.08984L11.387 7.13689L11.3088 7.75381L10.9375 7.70676L11.0156 7.08984Z" fill="white"/>
<path id="Rectangle 34625727" d="M12.1424 11.2254C12.1846 10.8927 12.4884 10.6572 12.8211 10.6994L13.1223 10.7375C13.455 10.7797 13.6906 11.0835 13.6484 11.4162L13.5149 12.4704C13.4727 12.8031 13.1689 13.0386 12.8362 12.9965L12.535 12.9583C12.2023 12.9162 11.9667 12.6123 12.0089 12.2796L12.1424 11.2254Z" fill="white"/>
<path id="Rectangle 34625728" d="M7.66588 10.7879C7.70802 10.4552 8.01188 10.2197 8.34457 10.2619L8.64578 10.3C8.97847 10.3422 9.214 10.646 9.17185 10.9787L9.0383 12.0329C8.99615 12.3656 8.69229 12.6011 8.35961 12.559L8.05839 12.5208C7.72571 12.4787 7.49018 12.1748 7.53232 11.8421L7.66588 10.7879Z" fill="white"/>
<path id="Subtract_2" fill-rule="evenodd" clip-rule="evenodd" d="M16.1987 14.2664C16.5742 13.2895 16.6264 12.189 16.3603 11.2029L16.3683 11.1486L16.6364 11.1883C17.1019 11.2571 17.4235 11.6891 17.3548 12.1531L17.1481 13.5486C17.0802 14.0066 16.6573 14.3246 16.1987 14.2664Z" fill="white"/>
<path id="Subtract_3" fill-rule="evenodd" clip-rule="evenodd" d="M6.26073 9.88594C6.25737 9.89311 6.25402 9.90029 6.2507 9.90748C6.13637 10.1546 6.06624 10.4191 6.00965 10.6854C5.85894 11.3945 5.73428 12.115 5.76202 12.8395C5.76315 12.8687 5.76442 12.8976 5.76585 12.926C5.37783 12.8132 5.1137 12.4366 5.15744 12.0214L5.30523 10.6184C5.35416 10.154 5.77017 9.81635 6.23644 9.86272L6.2629 9.86535L6.26073 9.88594Z" fill="white"/>
<path id="Rectangle 34625729" d="M10.1341 7.92563C10.1507 7.74126 10.3135 7.60523 10.4979 7.62179L11.7512 7.73441C11.9355 7.75098 12.0716 7.91387 12.0551 8.09825L10.1341 7.92563Z" fill="white"/>
</g>
</g>
</g>
<defs>
<filter id="filter0_d_5280_127957" x="5.15625" y="5.63086" width="12.8109" height="11.0695" filterUnits="userSpaceOnUse" color-interpolation-filters="sRGB">
<feFlood flood-opacity="0" result="BackgroundImageFix"/>
<feColorMatrix in="SourceAlpha" type="matrix" values="0 0 0 0 0 0 0 0 0 0 0 0 0 0 0 0 0 0 127 0" result="hardAlpha"/>
<feOffset dx="0.5" dy="0.2"/>
<feGaussianBlur stdDeviation="0.05"/>
<feComposite in2="hardAlpha" operator="out"/>
<feColorMatrix type="matrix" values="0 0 0 0 1 0 0 0 0 1 0 0 0 0 1 0 0 0 0.61 0"/>
<feBlend mode="normal" in2="BackgroundImageFix" result="effect1_dropShadow_5280_127957"/>
<feBlend mode="normal" in="SourceGraphic" in2="effect1_dropShadow_5280_127957" result="shape"/>
</filter>
<linearGradient id="paint0_linear_5280_127957" x1="-4.35296" y1="16.5333" x2="7.48602" y2="-4.01473" gradientUnits="userSpaceOnUse">
<stop stop-color="#E86F0C"/>
<stop offset="0.7" stop-color="#FC940D"/>
<stop offset="1" stop-color="#E86F0C"/>
</linearGradient>
<radialGradient id="paint1_radial_5280_127957" cx="0" cy="0" r="1" gradientUnits="userSpaceOnUse" gradientTransform="translate(14.5595 11.2442) scale(10.8864 10.8864)">
<stop stop-color="#FFF369"/>
<stop offset="1"/>
</radialGradient>
<radialGradient id="paint2_radial_5280_127957" cx="0" cy="0" r="1" gradientUnits="userSpaceOnUse" gradientTransform="translate(8.3024 10.2736) scale(16.0573 16.0574)">
<stop offset="0.5" stop-color="white"/>
<stop offset="1" stop-color="#B09444"/>
</radialGradient>
<radialGradient id="paint3_radial_5280_127957" cx="0" cy="0" r="1" gradientUnits="userSpaceOnUse" gradientTransform="translate(6.80175 2.11772) scale(19.1873 19.1873)">
<stop stop-color="#FCF80D"/>
<stop offset="1" stop-color="#FC9C0D"/>
</radialGradient>
<radialGradient id="paint4_radial_5280_127957" cx="0" cy="0" r="1" gradientUnits="userSpaceOnUse" gradientTransform="translate(1.22653 0.211553) scale(23.5418 23.5418)">
<stop stop-color="#FCF80D"/>
<stop offset="1" stop-color="#F78A0C"/>
</radialGradient>
<radialGradient id="paint5_radial_5280_127957" cx="0" cy="0" r="1" gradientUnits="userSpaceOnUse" gradientTransform="translate(15.1067 14.2278) scale(14.4245 14.4245)">
<stop offset="0.5" stop-color="white"/>
<stop offset="1" stop-color="#FFA84B"/>
</radialGradient>
<linearGradient id="paint6_linear_5280_127957" x1="-8.43513" y1="11.635" x2="0.410062" y2="-3.74197" gradientUnits="userSpaceOnUse">
<stop stop-color="#FC940D"/>
<stop offset="1" stop-color="#E86F0C"/>
</linearGradient>
<radialGradient id="paint7_radial_5280_127957" cx="0" cy="0" r="1" gradientUnits="userSpaceOnUse" gradientTransform="translate(14.9706 14.7649) scale(13.4719 13.4719)">
<stop offset="0.5" stop-color="white"/>
<stop offset="1" stop-color="#B09444"/>
</radialGradient>
<radialGradient id="paint8_radial_5280_127957" cx="0" cy="0" r="1" gradientUnits="userSpaceOnUse" gradientTransform="translate(-0.00746876 1.04449) scale(18.6429 18.6429)">
<stop stop-color="#FFF369"/>
<stop offset="1"/>
</radialGradient>
</defs>
</svg>
