<svg width="187" height="135" viewBox="0 0 187 135" fill="none" xmlns="http://www.w3.org/2000/svg">
<g id="Level">
<g id="Level_2">
<path id="Vector 1715" d="M8.5 9L1 17V74.5L47 83.5L51.5 78.5V93.6819C51.5 98.5273 52.0227 103.56 54.9619 107.412C58.8356 112.489 65.4807 116.7 75 112.5V116L87.5 117.5L92 112V132L105.5 134L111 128V122C114.667 123.833 123.6 125.2 130 116V124.5L161 128L167 122V118" stroke="#9860E4"/>
<path id="Vector 1706" d="M54 25L59.5 22L67.5 52L79 53.5L89 26.5L89.5 27L78.5 57L62 54.5L54 25Z" fill="url(#paint0_linear_5280_141696)"/>
<path id="Vector 1701" d="M28 3.5L13.5 1V58.5L58.5 68V54.5L28 48.5V3.5Z" fill="url(#paint1_linear_5280_141696)" stroke="url(#paint2_linear_5280_141696)"/>
<path id="Vector 1702" d="M7 8L13.5 1V58.5L58.5 68L56.5 76L7 65V8Z" fill="url(#paint3_linear_5280_141696)"/>
<path id="Vector 1703" d="M140.878 27.0339L35.8182 11.3462C34.4859 11.1472 33.5 10.0031 33.5 8.65613C33.5 6.99403 34.9776 5.72064 36.6215 5.96611L141.682 21.6538C143.014 21.8528 144 22.9969 144 24.3439C144 26.006 142.522 27.2794 140.878 27.0339Z" fill="url(#paint4_linear_5280_141696)"/>
<path id="Vector 1705" d="M126 31L115.5 29.5V59.5L137 63V53L126 51.5V31Z" fill="url(#paint5_linear_5280_141696)" stroke="url(#paint6_linear_5280_141696)"/>
<path id="Vector 1707" d="M112 32.5L115.5 29.5V59.5L137 63V67L112 62.5V32.5Z" fill="url(#paint7_linear_5280_141696)"/>
<g id="Group 1410068328">
<rect id="Rectangle 34625720" x="96.2578" y="35.0469" width="6" height="8" transform="rotate(-1.4457 96.2578 35.0469)" fill="#AB58FA"/>
<path id="e" d="M96.1241 29.0579L103.36 30.1634C109.173 31.0513 111.704 33.9469 110.955 38.85L109.415 48.933L94.2906 46.6225L93.6926 50.5371C93.5597 51.407 93.9875 51.9174 94.976 52.0685L97.5857 52.4671C98.5743 52.6182 99.141 52.2192 99.286 51.2702L99.5397 49.6094L109.089 51.0682L108.681 53.7373C107.932 58.6404 104.651 60.648 98.8388 59.76L91.6027 58.6546C85.7902 57.7666 83.2584 54.8711 84.0074 49.968L86.2817 35.0807C87.0307 30.1776 90.3115 28.17 96.1241 29.0579ZM95.1242 41.1658L100.699 42.0175L101.27 38.2809C101.403 37.411 100.975 36.9005 99.9869 36.7495L97.3771 36.3508C96.3886 36.1998 95.8279 36.5592 95.695 37.4291L95.1242 41.1658Z" fill="url(#paint8_linear_5280_141696)"/>
<g id="e_2">
<path d="M98.1163 29.2357L105.352 30.3411C111.165 31.2291 113.697 34.1246 112.948 39.0277L111.407 49.1107L96.2828 46.8002L95.6847 50.7148C95.5519 51.5847 95.9797 52.0952 96.9682 52.2462L99.5779 52.6449C100.566 52.7959 101.133 52.3969 101.278 51.4479L101.532 49.7872L111.081 51.246L110.673 53.915C109.924 58.8181 106.644 60.8257 100.831 59.9377L93.5949 58.8323C87.7824 57.9443 85.2506 55.0488 85.9996 50.1457L88.2739 35.2584C89.0229 30.3553 92.3037 28.3477 98.1163 29.2357ZM97.1164 41.3435L102.692 42.1953L103.263 38.4586C103.395 37.5887 102.968 37.0782 101.979 36.9272L99.3693 36.5285C98.3808 36.3775 97.8201 36.737 97.6872 37.6069L97.1164 41.3435Z" fill="url(#paint9_linear_5280_141696)"/>
<path d="M111.407 49.1107L111.332 49.605L111.826 49.6805L111.902 49.1862L111.407 49.1107ZM96.2828 46.8002L96.3583 46.306L95.864 46.2305L95.7885 46.7247L96.2828 46.8002ZM101.532 49.7872L101.607 49.2929L101.113 49.2174L101.038 49.7117L101.532 49.7872ZM111.081 51.246L111.575 51.3215L111.651 50.8272L111.157 50.7517L111.081 51.246ZM97.1164 41.3435L96.6221 41.268L96.5466 41.7623L97.0409 41.8378L97.1164 41.3435ZM102.692 42.1953L102.616 42.6895L103.11 42.765L103.186 42.2708L102.692 42.1953ZM98.0408 29.7299L105.277 30.8354L105.428 29.8468L98.1918 28.7414L98.0408 29.7299ZM105.277 30.8354C108.126 31.2705 110.078 32.1854 111.234 33.5078C112.376 34.8143 112.813 36.601 112.453 38.9522L113.442 39.1032C113.832 36.5513 113.376 34.4387 111.987 32.8496C110.612 31.2765 108.392 30.2996 105.428 29.8468L105.277 30.8354ZM112.453 38.9522L110.913 49.0352L111.902 49.1862L113.442 39.1032L112.453 38.9522ZM111.483 48.6165L96.3583 46.306L96.2073 47.2945L111.332 49.605L111.483 48.6165ZM95.7885 46.7247L95.1905 50.6393L96.179 50.7903L96.777 46.8757L95.7885 46.7247ZM95.1905 50.6393C95.1097 51.168 95.1892 51.6733 95.5227 52.0713C95.8458 52.4568 96.3367 52.6555 96.8927 52.7405L97.0437 51.7519C96.6112 51.6859 96.3939 51.5539 96.2891 51.4289C96.1949 51.3164 96.1269 51.1315 96.179 50.7903L95.1905 50.6393ZM96.8927 52.7405L99.5024 53.1391L99.6534 52.1506L97.0437 51.7519L96.8927 52.7405ZM99.5024 53.1391C100.068 53.2255 100.604 53.1689 101.032 52.8677C101.464 52.5635 101.688 52.0794 101.772 51.5234L100.784 51.3724C100.724 51.7655 100.591 51.9553 100.457 52.05C100.318 52.1479 100.076 52.2152 99.6534 52.1506L99.5024 53.1391ZM101.772 51.5234L102.026 49.8627L101.038 49.7117L100.784 51.3724L101.772 51.5234ZM101.456 50.2814L111.006 51.7402L111.157 50.7517L101.607 49.2929L101.456 50.2814ZM110.587 51.1705L110.179 53.8395L111.168 53.9905L111.575 51.3215L110.587 51.1705ZM110.179 53.8395C109.82 56.1907 108.87 57.7657 107.39 58.6715C105.892 59.5885 103.755 59.8787 100.906 59.4435L100.755 60.432C103.719 60.8848 106.13 60.6152 107.912 59.5245C109.713 58.4227 110.778 56.5424 111.168 53.9905L110.179 53.8395ZM100.906 59.4435L93.6704 58.338L93.5194 59.3266L100.755 60.432L100.906 59.4435ZM93.6704 58.338C90.8217 57.9029 88.8694 56.988 87.7131 55.6656C86.5708 54.3591 86.1347 52.5724 86.4939 50.2212L85.5053 50.0702C85.1155 52.6221 85.5708 54.7347 86.9603 56.3238C88.3357 57.8969 90.5555 58.8738 93.5194 59.3266L93.6704 58.338ZM86.4939 50.2212L88.7682 35.3339L87.7796 35.1829L85.5053 50.0702L86.4939 50.2212ZM88.7682 35.3339C89.1273 32.9827 90.077 31.4077 91.5572 30.5019C93.0557 29.585 95.1921 29.2948 98.0408 29.7299L98.1918 28.7414C95.2279 28.2886 92.8176 28.5582 91.0353 29.6489C89.2347 30.7507 88.1695 32.631 87.7796 35.1829L88.7682 35.3339ZM97.0409 41.8378L102.616 42.6895L102.767 41.701L97.1919 40.8493L97.0409 41.8378ZM103.186 42.2708L103.757 38.5341L102.768 38.3831L102.197 42.1197L103.186 42.2708ZM103.757 38.5341C103.838 38.0054 103.758 37.5001 103.425 37.1022C103.101 36.7167 102.611 36.5179 102.055 36.433L101.904 37.4215C102.336 37.4876 102.553 37.6195 102.658 37.7445C102.752 37.857 102.82 38.0419 102.768 38.3831L103.757 38.5341ZM102.055 36.433L99.4448 36.0343L99.2938 37.0228L101.904 37.4215L102.055 36.433ZM99.4448 36.0343C98.8888 35.9493 98.361 35.9925 97.9376 36.2639C97.5004 36.5442 97.2737 37.0027 97.1929 37.5314L98.1815 37.6824C98.2336 37.3412 98.3536 37.185 98.4772 37.1058C98.6145 37.0178 98.8613 36.9567 99.2938 37.0228L99.4448 36.0343ZM97.1929 37.5314L96.6221 41.268L97.6106 41.419L98.1815 37.6824L97.1929 37.5314Z" fill="url(#paint10_linear_5280_141696)"/>
</g>
</g>
<g id="Group 1410068329">
<rect id="Rectangle 34625720_2" x="42.8281" y="25.1484" width="6" height="8" transform="rotate(-4.01497 42.8281 25.1484)" fill="#AB58FA"/>
<path id="e_3" d="M42.4271 19.1709L49.7054 19.9508C55.5519 20.5773 58.211 23.3565 57.6825 28.2882L56.5957 38.4302L41.3828 36.8L40.9608 40.7374C40.8671 41.6124 41.3173 42.1032 42.3116 42.2097L44.9366 42.491C45.9309 42.5976 46.4792 42.1736 46.5815 41.219L46.7605 39.5486L56.3655 40.5779L56.0778 43.2625C55.5494 48.1943 52.3618 50.3469 46.5153 49.7204L39.237 48.9404C33.3905 48.3139 30.7314 45.5348 31.2599 40.603L32.8646 25.6288C33.393 20.697 36.5805 18.5444 42.4271 19.1709ZM41.9709 31.3114L47.5788 31.9123L47.9816 28.1538C48.0753 27.2788 47.6251 26.7881 46.6308 26.6815L44.0058 26.4002C43.0115 26.2937 42.4674 26.6779 42.3737 27.5529L41.9709 31.3114Z" fill="url(#paint11_linear_5280_141696)"/>
<g id="e_4">
<path d="M44.4271 19.2588L51.7054 20.0387C57.5519 20.6652 60.211 23.4443 59.6825 28.3761L58.5957 38.518L43.3828 36.8878L42.9608 40.8253C42.8671 41.7003 43.3173 42.1911 44.3116 42.2976L46.9366 42.5789C47.9309 42.6855 48.4792 42.2615 48.5815 41.3069L48.7605 39.6365L58.3655 40.6658L58.0778 43.3504C57.5494 48.2821 54.3618 50.4348 48.5153 49.8083L41.237 49.0283C35.3905 48.4018 32.7314 45.6227 33.2599 40.6909L34.8646 25.7166C35.393 20.7849 38.5805 18.6323 44.4271 19.2588ZM43.9709 31.3993L49.5788 32.0002L49.9816 28.2417C50.0753 27.3667 49.6251 26.876 48.6308 26.7694L46.0058 26.4881C45.0115 26.3816 44.4674 26.7658 44.3737 27.6408L43.9709 31.3993Z" fill="url(#paint12_linear_5280_141696)"/>
<path d="M58.5957 38.518L58.5424 39.0152L59.0395 39.0685L59.0928 38.5713L58.5957 38.518ZM43.3828 36.8878L43.436 36.3907L42.9389 36.3374L42.8856 36.8346L43.3828 36.8878ZM48.7605 39.6365L48.8138 39.1393L48.3166 39.0861L48.2634 39.5832L48.7605 39.6365ZM58.3655 40.6658L58.8627 40.719L58.916 40.2219L58.4188 40.1686L58.3655 40.6658ZM43.9709 31.3993L43.4738 31.346L43.4205 31.8431L43.9176 31.8964L43.9709 31.3993ZM49.5788 32.0002L49.5255 32.4974L50.0227 32.5506L50.076 32.0535L49.5788 32.0002ZM44.3738 19.7559L51.6521 20.5359L51.7587 19.5415L44.4803 18.7616L44.3738 19.7559ZM51.6521 20.5359C54.5175 20.8429 56.5088 21.6693 57.7233 22.9386C58.923 24.1925 59.4387 25.9579 59.1853 28.3228L60.1796 28.4294C60.4547 25.8626 59.9051 23.7725 58.4458 22.2473C57.0013 20.7375 54.7399 19.861 51.7587 19.5415L51.6521 20.5359ZM59.1853 28.3228L58.0985 38.4648L59.0928 38.5713L60.1796 28.4294L59.1853 28.3228ZM58.6489 38.0209L43.436 36.3907L43.3295 37.385L58.5424 39.0152L58.6489 38.0209ZM42.8856 36.8346L42.4637 40.772L43.458 40.8786L43.8799 36.9411L42.8856 36.8346ZM42.4637 40.772C42.4067 41.3038 42.5088 41.805 42.8598 42.1876C43.1998 42.5583 43.6991 42.7348 44.2584 42.7948L44.3649 41.8005C43.9299 41.7538 43.7069 41.6317 43.5966 41.5116C43.4974 41.4034 43.4212 41.2218 43.458 40.8786L42.4637 40.772ZM44.2584 42.7948L46.8833 43.0761L46.9899 42.0817L44.3649 41.8005L44.2584 42.7948ZM46.8833 43.0761C47.4522 43.137 47.9856 43.0564 48.3994 42.7364C48.8175 42.4131 49.0187 41.9194 49.0787 41.3602L48.0844 41.2536C48.042 41.649 47.918 41.8446 47.7877 41.9453C47.6533 42.0492 47.4154 42.1273 46.9899 42.0817L46.8833 43.0761ZM49.0787 41.3602L49.2577 39.6898L48.2634 39.5832L48.0844 41.2536L49.0787 41.3602ZM48.7072 40.1336L58.3122 41.1629L58.4188 40.1686L48.8138 39.1393L48.7072 40.1336ZM57.8684 40.6125L57.5807 43.2971L58.575 43.4037L58.8627 40.719L57.8684 40.6125ZM57.5807 43.2971C57.3273 45.6621 56.4492 47.2781 55.011 48.2493C53.5552 49.2325 51.4339 49.6182 48.5686 49.3111L48.462 50.3054C51.4433 50.6249 53.839 50.2475 55.5707 49.078C57.32 47.8966 58.2999 45.9704 58.575 43.4037L57.5807 43.2971ZM48.5686 49.3111L41.2903 48.5312L41.1837 49.5255L48.462 50.3054L48.5686 49.3111ZM41.2903 48.5312C38.4249 48.2241 36.4336 47.3977 35.2191 46.1284C34.0194 44.8745 33.5037 43.1092 33.7571 40.7442L32.7628 40.6376C32.4877 43.2044 33.0372 45.2945 34.4966 46.8197C35.9411 48.3296 38.2025 49.206 41.1837 49.5255L41.2903 48.5312ZM33.7571 40.7442L35.3617 25.7699L34.3674 25.6634L32.7628 40.6376L33.7571 40.7442ZM35.3617 25.7699C35.6151 23.4049 36.4932 21.7889 37.9314 20.8177C39.3872 19.8345 41.5085 19.4489 44.3738 19.7559L44.4803 18.7616C41.4991 18.4421 39.1034 18.8195 37.3717 19.989C35.6224 21.1704 34.6425 23.0966 34.3674 25.6634L35.3617 25.7699ZM43.9176 31.8964L49.5255 32.4974L49.6321 31.5031L44.0242 30.9021L43.9176 31.8964ZM50.076 32.0535L50.4787 28.295L49.4844 28.1884L49.0817 31.9469L50.076 32.0535ZM50.4787 28.295C50.5357 27.7632 50.4336 27.262 50.0826 26.8794C49.7426 26.5088 49.2433 26.3322 48.684 26.2723L48.5775 27.2666C49.0125 27.3132 49.2355 27.4353 49.3458 27.5554C49.445 27.6636 49.5212 27.8453 49.4844 28.1884L50.4787 28.295ZM48.684 26.2723L46.0591 25.991L45.9525 26.9853L48.5775 27.2666L48.684 26.2723ZM46.0591 25.991C45.4998 25.931 44.9744 25.9978 44.5636 26.288C44.1395 26.5875 43.9335 27.0557 43.8765 27.5875L44.8708 27.6941C44.9076 27.3509 45.0206 27.1895 45.1405 27.1048C45.2736 27.0107 45.5175 26.9387 45.9525 26.9853L46.0591 25.991ZM43.8765 27.5875L43.4738 31.346L44.4681 31.4525L44.8708 27.6941L43.8765 27.5875Z" fill="url(#paint13_linear_5280_141696)"/>
</g>
</g>
<path id="Vector 1709" d="M54.5009 61.5L60.4997 55.5L62.0006 57L64.0006 84.5L83.0006 97.5V100L97.0006 102L91.5006 108L79.5006 105.5V103.5C67.9006 107.1 61.7548 102.179 58.9997 99C52.5 91.5 53.6676 70.8333 54.5009 61.5Z" fill="url(#paint14_linear_5280_141696)"/>
<path id="Vector 1708" d="M74 58L60.5 55.5V79.3532C60.5 82.7611 60.9272 86.2249 62.5185 89.2384C68.5637 100.686 78.3927 99.7293 83 97.5V100L97 102V61L83 59V80.9403C83 83.2062 81.3489 86.1927 79.0839 86.2518C74.6512 86.3677 74 81.1115 74 76.6774V58Z" fill="url(#paint15_linear_5280_141696)" stroke="url(#paint16_linear_5280_141696)"/>
<g id="Group 1410068327">
<path id="Vector 1711" d="M97.5 65L101.5 62V115L115.5 118L109.5 125L97.5 122V65Z" fill="url(#paint17_linear_5280_141696)"/>
<path id="Vector 1712" d="M143 93C139.8 100.2 121.167 105.333 115.5 102.5V112C118.5 113 122.5 113.167 125.5 113C136.3 112.2 144 96.5 143 93Z" fill="url(#paint18_linear_5280_141696)"/>
<path id="Vector 1710" d="M115 63.5L101.5 62V115L115.5 118V102.5C120.31 106.55 124.239 107.877 127.996 107.545C132.537 107.143 136.517 104.247 139.39 100.707C144.899 93.9182 144.543 87.2146 143 79.5C142 74.5 139.721 72.2797 139.5 72C132 62.5 120.333 64.6667 115 67V63.5Z" fill="url(#paint19_linear_5280_141696)" stroke="url(#paint20_linear_5280_141696)"/>
<rect id="Rectangle 34625717" x="115.5" y="77" width="11" height="17" rx="5.5" fill="#6E1058"/>
<path id="Intersect" fill-rule="evenodd" clip-rule="evenodd" d="M119 77.375C121.049 78.1751 122.5 80.1681 122.5 82.5001V88.5001C122.5 90.832 121.049 92.825 119 93.6251C116.951 92.825 115.5 90.832 115.5 88.5001V82.5001C115.5 80.1681 116.951 78.1751 119 77.375Z" fill="#AB58FA"/>
</g>
<path id="Vector 1704" d="M70 23L59.5 22L67.5 52L79 53.5L89 26.5L77.5 24.5L73.5 42L70 23Z" fill="url(#paint21_linear_5280_141696)" stroke="url(#paint22_linear_5280_141696)"/>
</g>
<g id="&#231;&#174;&#173;&#229;&#164;&#180;&#228;&#184;&#138;&#228;&#184;&#139;&#230;&#181;&#174;&#229;&#138;&#168;">
<path id="Vector 1699" d="M186.5 50.1819V57.3901L174.598 55.0097L174 54.8901V55.5V111.908L145.5 107.078V50V49.5764L145.082 49.5068L133.5 47.5764V40.7465L160.925 19.6882L186.5 50.1819Z" fill="url(#paint23_linear_5280_141696)" stroke="url(#paint24_linear_5280_141696)"/>
<path id="Vector 1698" d="M137.5 42.5L160.5 23.5L184 52.5L169 50V106L150.5 103V48L137.5 45.5V42.5Z" fill="url(#paint25_linear_5280_141696)"/>
<path id="Vector 1700" d="M157.5 18L161 19L133 40.5V48L145 50V107.5L174.5 112.5L169 120.5L138 115V53L128 51.5V40.5L157.5 18Z" fill="url(#paint26_linear_5280_141696)"/>
</g>
</g>
<defs>
<linearGradient id="paint0_linear_5280_141696" x1="71.75" y1="22" x2="71.75" y2="57" gradientUnits="userSpaceOnUse">
<stop stop-color="#B90878"/>
<stop offset="1" stop-color="#2B1A24"/>
</linearGradient>
<linearGradient id="paint1_linear_5280_141696" x1="34.2953" y1="1" x2="34.2953" y2="68" gradientUnits="userSpaceOnUse">
<stop stop-color="#E59AF9"/>
<stop offset="0.555" stop-color="#87ACFD"/>
<stop offset="1" stop-color="#BEE5E3"/>
</linearGradient>
<linearGradient id="paint2_linear_5280_141696" x1="37.3301" y1="0.999998" x2="10.9068" y2="22.3116" gradientUnits="userSpaceOnUse">
<stop stop-color="#FBE738"/>
<stop offset="1" stop-color="white" stop-opacity="0"/>
</linearGradient>
<linearGradient id="paint3_linear_5280_141696" x1="32.75" y1="1" x2="32.75" y2="76" gradientUnits="userSpaceOnUse">
<stop stop-color="#B90878"/>
<stop offset="1" stop-color="#2B1A24"/>
</linearGradient>
<linearGradient id="paint4_linear_5280_141696" x1="33.5" y1="5.5" x2="41.9262" y2="47.8224" gradientUnits="userSpaceOnUse">
<stop stop-color="#BBA2FC"/>
<stop offset="0.49" stop-color="#8DB3FB"/>
<stop offset="1" stop-color="#DB9DFA"/>
</linearGradient>
<linearGradient id="paint5_linear_5280_141696" x1="125.436" y1="29.5" x2="125.436" y2="63" gradientUnits="userSpaceOnUse">
<stop stop-color="#E59AF9"/>
<stop offset="0.555" stop-color="#87ACFD"/>
<stop offset="1" stop-color="#BEE5E3"/>
</linearGradient>
<linearGradient id="paint6_linear_5280_141696" x1="126.885" y1="29.5" x2="113.813" y2="39.5748" gradientUnits="userSpaceOnUse">
<stop stop-color="#FBE738"/>
<stop offset="1" stop-color="white" stop-opacity="0"/>
</linearGradient>
<linearGradient id="paint7_linear_5280_141696" x1="124.5" y1="29.5" x2="124.5" y2="67" gradientUnits="userSpaceOnUse">
<stop stop-color="#B90878"/>
<stop offset="1" stop-color="#2B1A24"/>
</linearGradient>
<linearGradient id="paint8_linear_5280_141696" x1="99.4431" y1="30.5159" x2="95.1273" y2="58.7668" gradientUnits="userSpaceOnUse">
<stop stop-color="#B90878"/>
<stop offset="1" stop-color="#2B1A24"/>
</linearGradient>
<linearGradient id="paint9_linear_5280_141696" x1="100.349" y1="30.5277" x2="96.0335" y2="58.7787" gradientUnits="userSpaceOnUse">
<stop stop-color="#E59AF9"/>
<stop offset="0.555" stop-color="#87ACFD"/>
<stop offset="1" stop-color="#BEE5E3"/>
</linearGradient>
<linearGradient id="paint10_linear_5280_141696" x1="102.283" y1="30.8231" x2="89.0203" y2="42.7396" gradientUnits="userSpaceOnUse">
<stop stop-color="#FBE738"/>
<stop offset="1" stop-color="white" stop-opacity="0"/>
</linearGradient>
<linearGradient id="paint11_linear_5280_141696" x1="45.8081" y1="20.4786" x2="42.763" y2="48.8946" gradientUnits="userSpaceOnUse">
<stop stop-color="#B90878"/>
<stop offset="1" stop-color="#2B1A24"/>
</linearGradient>
<linearGradient id="paint12_linear_5280_141696" x1="46.7157" y1="20.4494" x2="43.6707" y2="48.8654" gradientUnits="userSpaceOnUse">
<stop stop-color="#E59AF9"/>
<stop offset="0.555" stop-color="#87ACFD"/>
<stop offset="1" stop-color="#BEE5E3"/>
</linearGradient>
<linearGradient id="paint13_linear_5280_141696" x1="48.6604" y1="20.6578" x2="35.9456" y2="33.1568" gradientUnits="userSpaceOnUse">
<stop stop-color="#FBE738"/>
<stop offset="1" stop-color="white" stop-opacity="0"/>
</linearGradient>
<linearGradient id="paint14_linear_5280_141696" x1="75.4222" y1="55.5" x2="75.4222" y2="108" gradientUnits="userSpaceOnUse">
<stop stop-color="#B90878"/>
<stop offset="1" stop-color="#2B1A24"/>
</linearGradient>
<linearGradient id="paint15_linear_5280_141696" x1="77.3673" y1="55.5" x2="77.3673" y2="102" gradientUnits="userSpaceOnUse">
<stop stop-color="#E59AF9"/>
<stop offset="0.555" stop-color="#87ACFD"/>
<stop offset="1" stop-color="#BEE5E3"/>
</linearGradient>
<linearGradient id="paint16_linear_5280_141696" x1="79.8289" y1="55.5" x2="61.0975" y2="73.1563" gradientUnits="userSpaceOnUse">
<stop stop-color="#FBE738"/>
<stop offset="1" stop-color="white" stop-opacity="0"/>
</linearGradient>
<linearGradient id="paint17_linear_5280_141696" x1="106.5" y1="61.5" x2="106.5" y2="125" gradientUnits="userSpaceOnUse">
<stop stop-color="#B90878"/>
<stop offset="1" stop-color="#2B1A24"/>
</linearGradient>
<linearGradient id="paint18_linear_5280_141696" x1="126.164" y1="102" x2="126.164" y2="113.562" gradientUnits="userSpaceOnUse">
<stop stop-color="#B90878"/>
<stop offset="1" stop-color="#2B1A24"/>
</linearGradient>
<linearGradient id="paint19_linear_5280_141696" x1="121.135" y1="62" x2="121.135" y2="118" gradientUnits="userSpaceOnUse">
<stop stop-color="#E59AF9"/>
<stop offset="0.555" stop-color="#87ACFD"/>
<stop offset="1" stop-color="#BEE5E3"/>
</linearGradient>
<linearGradient id="paint20_linear_5280_141696" x1="124" y1="62" x2="101.5" y2="82.5" gradientUnits="userSpaceOnUse">
<stop stop-color="#FBE738"/>
<stop offset="1" stop-color="white" stop-opacity="0"/>
</linearGradient>
<linearGradient id="paint21_linear_5280_141696" x1="73.1325" y1="22" x2="73.1325" y2="53.5" gradientUnits="userSpaceOnUse">
<stop stop-color="#E59AF9"/>
<stop offset="0.555" stop-color="#87ACFD"/>
<stop offset="1" stop-color="#BEE5E3"/>
</linearGradient>
<linearGradient id="paint22_linear_5280_141696" x1="75.122" y1="22" x2="62.498" y2="36.197" gradientUnits="userSpaceOnUse">
<stop stop-color="#FBE738"/>
<stop offset="1" stop-color="white" stop-opacity="0"/>
</linearGradient>
<linearGradient id="paint23_linear_5280_141696" x1="160" y1="22" x2="184.5" y2="125" gradientUnits="userSpaceOnUse">
<stop stop-color="#E59AF9"/>
<stop offset="0.555" stop-color="#87ACFD"/>
<stop offset="1" stop-color="#BEE5E3"/>
</linearGradient>
<linearGradient id="paint24_linear_5280_141696" x1="161.596" y1="19" x2="126.259" y2="43.5078" gradientUnits="userSpaceOnUse">
<stop stop-color="#FBE738"/>
<stop offset="1" stop-color="white" stop-opacity="0"/>
</linearGradient>
<linearGradient id="paint25_linear_5280_141696" x1="180" y1="40.5" x2="160.75" y2="106" gradientUnits="userSpaceOnUse">
<stop stop-color="#BB94F8"/>
<stop offset="0.14" stop-color="#8AACFD"/>
<stop offset="0.27" stop-color="#8AACFD"/>
<stop offset="0.52" stop-color="#92B8F8"/>
<stop offset="0.98" stop-color="#B9DFE6"/>
</linearGradient>
<linearGradient id="paint26_linear_5280_141696" x1="151.25" y1="18" x2="151.25" y2="120.5" gradientUnits="userSpaceOnUse">
<stop stop-color="#B90878"/>
<stop offset="1" stop-color="#2B1A24"/>
</linearGradient>
</defs>
</svg>
