<svg width="90" height="86" viewBox="0 0 90 86" fill="none" xmlns="http://www.w3.org/2000/svg">
<g id="Level up">
<g id="Group" opacity="0.64">
<path id="Vector" d="M61.7719 55.1656C61.598 55.336 61.7086 55.6184 61.9592 55.6439L62.5169 55.7001C62.6166 55.7103 62.7042 55.7654 62.7519 55.8475L63.0181 56.3082C63.1381 56.5155 63.4601 56.5045 63.5633 56.29L63.7932 55.8124C63.8338 55.7271 63.9175 55.6662 64.0156 55.6494L64.5675 55.5553C64.8153 55.5129 64.9036 55.2236 64.7172 55.0657L64.3013 54.7143C64.2274 54.6516 64.1911 54.5586 64.2044 54.4663L64.279 53.9475C64.3126 53.714 64.0449 53.5462 63.8264 53.6633L63.3397 53.9234C63.253 53.9701 63.147 53.9737 63.0568 53.9332L62.5514 53.7067C62.3239 53.6049 62.0702 53.7902 62.1218 54.0204L62.2367 54.533C62.2574 54.6242 62.2281 54.7194 62.1593 54.7869L61.7719 55.1656Z" fill="url(#paint0_linear_5346_155645)"/>
</g>
<g id="Group_2" opacity="0.64">
<path id="Vector_2" d="M33.1618 54.4517C33.1036 54.5101 33.0187 54.5378 32.9343 54.5265L32.4614 54.4619C32.2487 54.4331 32.0928 54.6444 32.1975 54.8191L32.4305 55.2087C32.4719 55.2784 32.4743 55.3623 32.4363 55.4338L32.2249 55.8337C32.1295 56.0135 32.2964 56.2167 32.5071 56.1781L32.9761 56.0916C33.0598 56.0763 33.1462 56.1004 33.2072 56.1558L33.5492 56.4674C33.7028 56.6075 33.9619 56.5221 33.9873 56.3233L34.0444 55.8804C34.0546 55.8012 34.1058 55.7319 34.1812 55.695L34.6045 55.4875C34.7945 55.3944 34.7879 55.1383 34.5928 55.0541L34.1589 54.8665C34.0815 54.8333 34.0268 54.7662 34.0124 54.6878L33.9318 54.2482C33.8959 54.0508 33.6324 53.9775 33.4866 54.1245L33.1618 54.4517Z" fill="url(#paint1_linear_5346_155645)"/>
</g>
<g id="Group_3" opacity="0.64">
<path id="Vector_3" d="M56.6522 63.5221L56.4892 63.2503C56.4157 63.1284 56.2246 63.1375 56.1652 63.2663L56.0335 63.552C56.01 63.603 55.9612 63.6399 55.9025 63.6508L55.5754 63.7118C55.4284 63.7391 55.3787 63.9117 55.4913 64.004L55.7423 64.2094C55.7868 64.2459 55.8095 64.301 55.8025 64.356L55.7634 64.665C55.7458 64.804 55.9064 64.9015 56.035 64.8299L56.3219 64.6713C56.3731 64.6428 56.4361 64.6395 56.49 64.6629L56.7929 64.7931C56.929 64.8518 57.0779 64.7391 57.0451 64.6027L56.9716 64.2991C56.9583 64.2448 56.9747 64.1882 57.015 64.1474L57.2417 63.9186C57.3433 63.8161 57.2745 63.649 57.1252 63.6362L56.7933 63.6074C56.7339 63.6023 56.6811 63.5706 56.6522 63.5221Z" fill="url(#paint2_linear_5346_155645)"/>
</g>
<path id="Vector_4" d="M83.9515 0L82.6829 5.17885L78 6.55323L82.6829 7.92696L83.9515 13L85.3175 7.92696L90 6.55323L85.3175 5.17885L83.9515 0Z" fill="url(#paint3_linear_5346_155645)"/>
<path id="Vector_5" d="M87.202 15.2705L87.7622 13.2833L89.8913 12.8644L87.7622 12.4461L87.202 10.459L86.7541 12.4461L84.625 12.8644L86.7541 13.2833L87.202 15.2705Z" fill="url(#paint4_linear_5346_155645)"/>
<path id="Vector_6" d="M5.82718 15.2135L3.47411 14.6907L2.91399 12.4941L2.35346 14.6907L0 15.2135L2.35346 15.7367L2.91399 17.8282L3.47411 15.7367L5.82718 15.2135Z" fill="url(#paint5_linear_5346_155645)"/>
<path id="Vector_7" d="M12.7792 5.64756C12.7792 4.89931 12.1292 4.29297 11.3275 4.29297C10.5258 4.29297 9.875 4.89931 9.875 5.64756C9.875 6.39618 10.5258 7.00252 11.3275 7.00252C12.1292 7.00252 12.7792 6.39618 12.7792 5.64756Z" fill="url(#paint6_linear_5346_155645)"/>
<path id="Vector_8" d="M5.83612 26.3526L1 27.6913L5.83612 28.6474L6.91107 34L8.16389 28.6474L13 27.6913L8.16389 26.3526L6.91107 21L5.83612 26.3526Z" fill="url(#paint7_linear_5346_155645)"/>
<path id="Vector_9" d="M74.284 36.7728C74.6984 36.9363 75.1338 36.5849 75.0205 36.1787L74.7707 35.2812C74.7253 35.12 74.7683 34.9481 74.8856 34.8219L75.5356 34.121C75.8304 33.8033 75.6068 33.3086 75.1577 33.2834L74.166 33.228C73.9878 33.2181 73.8259 33.1269 73.7337 32.9843L73.2201 32.1904C72.9875 31.8307 72.4145 31.8759 72.2499 32.267L71.8872 33.1302C71.8219 33.2856 71.6789 33.4009 71.5049 33.4389L70.5375 33.649C70.0989 33.7442 69.968 34.2674 70.3159 34.534L71.0832 35.1228C71.2211 35.2287 71.2946 35.3914 71.2794 35.5574L71.195 36.4813C71.1566 36.8998 71.6488 37.1774 72.0279 36.9512L72.8652 36.4523C73.0157 36.3626 73.2041 36.3476 73.3686 36.4125L74.284 36.7728Z" fill="url(#paint8_linear_5346_155645)"/>
<g id="Model">
<g id="&#229;&#155;&#190;&#229;&#177;&#130;_5" clip-path="url(#clip0_5346_155645)">
<g id="&#229;&#155;&#190;&#229;&#177;&#130; 704">
<path id="Vector_10" d="M75.3813 40.0528C75.4002 39.9547 75.3995 39.8539 75.3793 39.7562C75.359 39.6584 75.3197 39.5656 75.2635 39.4832C75.2073 39.4008 75.1354 39.3303 75.0519 39.2759C74.9684 39.2215 74.8749 39.1842 74.7769 39.1661L74.695 39.1511L71.3978 26.3618C71.8318 26.2173 72.2268 25.9745 72.552 25.6523C72.8773 25.33 73.124 24.937 73.273 24.5037C73.422 24.0705 73.4693 23.6087 73.4112 23.1543C73.3531 22.7 73.1912 22.2652 72.938 21.8839C72.6848 21.5026 72.3472 21.185 71.9515 20.9559C71.5558 20.7267 71.1125 20.5922 70.6563 20.5627C70.2 20.5332 69.7431 20.6096 69.3209 20.7859C68.8988 20.9621 68.5228 21.2336 68.2223 21.5791L59.118 14.6569C59.3227 14.3346 59.4645 13.9763 59.536 13.6011C59.6791 12.8241 59.5083 12.0222 59.0612 11.3719C58.6141 10.7216 57.9274 10.276 57.1521 10.1333C56.3768 9.99055 55.5764 10.1623 54.9271 10.6108C54.2777 11.0593 53.8325 11.7477 53.6895 12.5247C53.6755 12.6009 53.6604 12.6829 53.6463 12.7591L50.4772 12.7026C50.432 12.5499 50.3395 12.4155 50.2129 12.319C50.0864 12.2225 49.9325 12.1689 49.7735 12.1659C49.6144 12.163 49.4586 12.2108 49.3284 12.3025C49.1982 12.3942 49.1006 12.5251 49.0495 12.676L39.0067 12.493C38.9593 12.3731 38.8827 12.2669 38.7839 12.1842C38.6852 12.1015 38.5673 12.0448 38.441 12.0193C38.3258 11.9973 38.2069 12.0024 38.0939 12.0344C37.9809 12.0664 37.8769 12.1243 37.7902 12.2036C37.7034 12.2829 37.6363 12.3814 37.5941 12.4912C37.5519 12.601 37.5358 12.7191 37.5472 12.8361L26.5025 22.7245C26.2059 22.3863 25.8366 22.1199 25.4224 21.9454C25.0082 21.7708 24.5597 21.6928 24.1109 21.717C23.662 21.7412 23.2244 21.8671 22.831 22.0852C22.4376 22.3033 22.0986 22.608 21.8395 22.9762C21.5804 23.3444 21.4079 23.7667 21.3351 24.2112C21.2624 24.6557 21.2911 25.1109 21.4192 25.5425C21.5473 25.9741 21.7715 26.3709 22.0748 26.703C22.3781 27.0352 22.7527 27.294 23.1704 27.4601L19.6326 37.7128C19.4442 37.712 19.2623 37.7819 19.1225 37.9087C18.9828 38.0354 18.8954 38.2099 18.8774 38.3979C18.8595 38.5859 18.9123 38.7737 19.0255 38.9245C19.1388 39.0753 19.3043 39.1782 19.4894 39.213L19.583 39.2302L22.8389 50.7337C22.4154 50.8868 22.0321 51.1343 21.7179 51.4574C21.4037 51.7805 21.1668 52.1709 21.025 52.599C20.8832 53.0271 20.8402 53.4818 20.8994 53.9288C20.9585 54.3759 21.1181 54.8035 21.3663 55.1796C21.6145 55.5556 21.9446 55.8702 22.3319 56.0996C22.7192 56.3291 23.1535 56.4673 23.6021 56.504C24.0506 56.5407 24.5017 56.4749 24.9213 56.3114C25.3409 56.148 25.7181 55.8913 26.0243 55.5606L37.9929 65.0819C37.9826 65.1203 37.9753 65.1595 37.9713 65.1991C37.9329 65.3889 37.9686 65.5862 38.071 65.7504C38.1735 65.9146 38.3348 66.0331 38.5219 66.0815C38.7091 66.1299 38.9076 66.1046 39.0768 66.0107C39.2459 65.9168 39.3727 65.7615 39.4311 65.5769L45.9026 65.5567C45.9522 65.663 46.0254 65.7565 46.1167 65.83C46.2079 65.9035 46.3148 65.9551 46.429 65.9808C46.5977 66.0103 46.7714 65.9815 46.9217 65.8991C47.072 65.8167 47.1899 65.6856 47.256 65.5273L54.4353 65.5042C54.4888 65.6631 54.5934 65.7997 54.7328 65.8924C54.8722 65.9852 55.0385 66.0289 55.2055 66.0166C55.3725 66.0044 55.5307 65.9369 55.6553 65.8247C55.7798 65.7126 55.8637 65.5621 55.8937 65.3971C55.9102 65.2932 55.905 65.1871 55.8786 65.0853L60.6766 62.0069C60.7698 62.0877 60.883 62.142 61.0043 62.1641C61.1287 62.1861 61.2566 62.1766 61.3765 62.1367C61.4964 62.0967 61.6044 62.0275 61.691 61.9352C61.7776 61.843 61.8399 61.7306 61.8723 61.6082C61.9047 61.4859 61.9062 61.3574 61.8767 61.2343L66.3776 58.3253C66.6509 58.6899 67.0042 58.9867 67.4102 59.1927C67.8162 59.3987 68.2641 59.5085 68.7193 59.5136C69.1745 59.5187 69.6249 59.4189 70.0357 59.222C70.4465 59.0251 70.8068 58.7364 71.0887 58.378C71.3707 58.0196 71.5667 57.6012 71.6618 57.155C71.7569 56.7088 71.7485 56.2468 71.6372 55.8046C71.5258 55.3623 71.3146 54.9517 71.0198 54.6043C70.7249 54.257 70.3544 53.9822 69.9367 53.8012L74.6268 40.6711C74.8051 40.6739 74.9787 40.6133 75.1168 40.5002C75.2549 40.387 75.3486 40.2285 75.3813 40.0528ZM63.0915 55.3578C63.231 55.3822 63.3746 55.3672 63.5061 55.3143C63.6375 55.2615 63.7517 55.1729 63.8357 55.0587L65.8231 55.788C65.8091 55.8642 65.7962 55.9345 65.7832 56.0048C65.755 56.1558 65.739 56.3088 65.7352 56.4624L58.3271 56.7766L55.0557 51.8248L62.4826 54.5612C62.4752 54.7455 62.5352 54.9261 62.6513 55.0691C62.7675 55.212 62.9318 55.3075 63.1134 55.3376L63.0915 55.3578ZM56.1005 16.0096C56.4464 16.0711 56.8006 16.0707 57.1465 16.0083L58.4112 20.8269C58.2847 20.9098 58.1858 21.0288 58.1274 21.1686C58.069 21.3083 58.0538 21.4624 58.0838 21.6108C58.1138 21.7592 58.1875 21.8952 58.2955 22.0011C58.4035 22.107 58.5408 22.178 58.6895 22.2048L58.7713 22.2199L60.4652 28.6804C60.4134 28.7174 60.3653 28.7592 60.3213 28.8053L48.5161 23.7484C48.5282 23.7002 48.5372 23.6513 48.5431 23.602C48.5666 23.4831 48.5579 23.3602 48.518 23.246L54.9346 15.4799C55.2843 15.7301 55.6832 15.9026 56.1048 15.9862L56.1005 16.0096ZM67.4527 23.2972C67.4007 23.8552 67.5069 24.4165 67.759 24.9165L64.3536 26.9974C64.2564 26.9111 64.1373 26.8535 64.0094 26.831C63.9119 26.8131 63.8118 26.8145 63.7148 26.8353C63.6179 26.8562 63.5259 26.8959 63.4443 26.9523C63.3626 27.0087 63.2928 27.0807 63.2388 27.1641C63.1849 27.2475 63.1479 27.3407 63.1299 27.4384C63.1093 27.5388 63.1109 27.6425 63.1344 27.7422L61.4323 28.7797C61.3228 28.6657 61.1807 28.5887 61.0255 28.5594L60.9437 28.5443L59.2487 22.0897C59.3467 22.022 59.429 21.9338 59.4897 21.8311L67.4527 23.2972ZM67.1204 37.8413C67.2517 37.864 67.3867 37.8517 67.5119 37.8056C67.6371 37.7596 67.748 37.6814 67.8336 37.5789L73.862 39.9003L68.3893 41.6854C68.2755 41.5267 68.1048 41.4184 67.913 41.3831C67.7212 41.3478 67.5231 41.3882 67.3603 41.496L57.0594 33.3903L66.5231 37.0469C66.5171 37.2288 66.5761 37.4068 66.6897 37.5488C66.8032 37.6909 66.9637 37.7874 67.1422 37.8211L67.1204 37.8413ZM62.646 54.1006L55.1405 51.3315C55.1205 51.1467 55.0338 50.9756 54.8966 50.8505L57.7469 44.0695C57.8732 44.1121 58.0023 44.146 58.1332 44.1709C58.5622 44.2483 59.003 44.2302 59.4244 44.1179C59.3081 44.2093 59.2211 44.333 59.1742 44.4734C59.1273 44.6139 59.1225 44.7651 59.1605 44.9082C59.1985 45.0513 59.2776 45.18 59.388 45.2784C59.4984 45.3769 59.6352 45.4406 59.7815 45.4618C59.829 45.4765 59.878 45.4855 59.9276 45.4887L62.9044 53.9119C62.8154 53.9522 62.7351 54.0094 62.6679 54.0804L62.646 54.1006ZM54.7481 64.6591L50.5153 61.384C50.7217 61.0648 50.8634 60.708 50.9322 60.3341C51.0218 59.8416 50.986 59.3346 50.8283 58.8598C50.6706 58.385 50.3961 57.9578 50.03 57.6176L54.1223 52.1012L54.21 52.1174L54.8541 64.5757C54.8168 64.6009 54.7814 64.6288 54.7481 64.6591ZM38.9645 64.6308L38.8651 64.6125L37.6929 55.6795C37.8245 55.6304 37.939 55.5442 38.0227 55.4312L44.186 57.414C44.1882 57.5553 44.2298 57.693 44.3062 57.8117L38.9645 64.6308ZM27.0072 40.9302C27.0101 40.7928 26.9767 40.6571 26.9104 40.5368L30.232 36.7443C30.2814 36.7597 30.3324 36.7691 30.384 36.7723C30.4819 36.7911 30.5825 36.7904 30.6801 36.77C30.7777 36.7497 30.8703 36.7102 30.9526 36.6538C31.0349 36.5975 31.1053 36.5253 31.1596 36.4416C31.214 36.3579 31.2513 36.2642 31.2694 36.166C31.3019 35.9891 31.2689 35.8063 31.1766 35.6522L37.11 28.8694L36.0509 41.5169C35.4887 41.5194 34.9387 41.6816 34.4646 41.9846C33.9905 42.2876 33.6117 42.719 33.3722 43.2288L27.0072 40.9302ZM27.2153 25.4848C27.2293 25.4086 27.2433 25.3325 27.2574 25.2563C27.3378 24.8176 27.3175 24.3664 27.198 23.9369L33.8648 20.8208C33.9643 20.903 34.0831 20.9583 34.21 20.9813L34.3211 21.0018L36.9048 27.6201C36.8461 27.6686 36.7965 27.7271 36.7581 27.793L27.2153 25.4848ZM60.1703 29.2319C60.163 29.3306 60.1756 29.4297 60.2073 29.5234L56.1255 31.9947C56.0235 31.9127 55.9029 31.8573 55.7744 31.8331C55.6316 31.8061 55.4841 31.821 55.3494 31.876L48.7182 24.3914L60.1703 29.2319ZM60.784 30.0354C60.882 30.0535 60.9826 30.0519 61.08 30.0308C61.1774 30.0097 61.2697 29.9695 61.3516 29.9125C61.4334 29.8554 61.5033 29.7828 61.557 29.6986C61.6107 29.6145 61.6473 29.5205 61.6646 29.4222C61.6776 29.3504 61.6788 29.2769 61.6683 29.2048L63.4237 28.1407C63.5224 28.2246 63.6409 28.2819 63.7679 28.3071C63.8153 28.3221 63.8644 28.3312 63.914 28.334L66.8345 36.5045C66.7968 36.5375 66.7619 36.5736 66.7301 36.6124L56.4078 32.6282C56.4102 32.5626 56.4061 32.4969 56.3955 32.4321L60.4827 29.9315C60.5661 29.9818 60.6585 30.0152 60.7548 30.0301L60.784 30.0354ZM51.5462 49.9731C51.5503 49.8151 51.505 49.6598 51.4166 49.529C51.3281 49.3981 51.2009 49.2984 51.053 49.2438C50.905 49.1891 50.7436 49.1823 50.5915 49.2243C50.4393 49.2663 50.3041 49.3549 50.2048 49.4778L38.8828 45.3095C38.9044 45.2247 38.9202 45.1386 38.9302 45.0517C38.9743 44.8166 38.9879 44.5769 38.9709 44.3383L48.1281 42.9953C48.1798 43.0985 48.2545 43.1884 48.3466 43.2578C48.4386 43.3273 48.5455 43.3746 48.6588 43.3959C48.7659 43.4167 48.8764 43.4121 48.9816 43.3826L53.7387 50.7706L51.5462 49.9731ZM39.9726 18.5408L43.1196 27.1226C42.7333 27.2861 42.3859 27.5297 42.1001 27.8373C41.8142 28.1448 41.5965 28.5095 41.4612 28.9072L38.1329 28.1066C38.1227 27.9914 38.0859 27.8802 38.0253 27.7818C37.9647 27.6833 37.8821 27.6004 37.784 27.5396L39.9726 18.5408ZM47.8178 24.2256L47.9342 24.2168L54.9328 32.1688L47.1725 30.2918C47.2479 29.7592 47.178 29.2162 46.9703 28.7204C46.7625 28.2245 46.4246 27.7945 45.9923 27.4758L47.8178 24.2256ZM48.928 41.9007C48.8305 41.8828 48.7304 41.8842 48.6334 41.905C48.5364 41.9259 48.4445 41.9656 48.3628 42.022C48.2812 42.0784 48.2114 42.1504 48.1574 42.2338C48.1035 42.3172 48.0665 42.4104 48.0485 42.5081L38.903 43.8533C38.8469 43.6279 38.7654 43.4097 38.6601 43.2028L46.1969 38.6113C46.3083 38.7221 46.4504 38.7968 46.6047 38.8257C46.7339 38.8509 46.8674 38.8415 46.9918 38.7986C47.1163 38.7556 47.2272 38.6806 47.3136 38.5811C47.3999 38.4815 47.4586 38.3609 47.4837 38.2315C47.5088 38.1021 47.4994 37.9683 47.4565 37.8437L54.7946 33.3792L48.9858 41.9477L48.928 41.9007ZM54.8662 32.6291C54.8608 32.6584 54.8555 32.6877 54.8501 32.717L47.1693 37.4334C47.0833 37.374 46.9857 37.3334 46.883 37.3141C46.7554 37.2924 46.6243 37.3037 46.5022 37.3469L38.1369 28.6102L41.3377 29.3812C41.2437 30.1105 41.4221 30.8487 41.8387 31.4536C42.2553 32.0586 42.8807 32.4876 43.5943 32.6581C44.308 32.8286 45.0596 32.7285 45.7044 32.3771C46.3493 32.0257 46.8418 31.4478 47.0872 30.7547L54.8662 32.6291ZM37.6859 28.8603L46.0973 37.6419C46.0423 37.728 46.0042 37.8238 45.9849 37.9241C45.9741 37.998 45.9724 38.073 45.9801 38.1474L38.397 42.7606C37.9499 42.1466 37.2853 41.7273 36.5394 41.5887L36.4926 41.5801L37.5502 28.908C37.6009 28.9036 37.6505 28.8902 37.6965 28.8683L37.6859 28.8603ZM54.4526 50.6355C54.3745 50.6291 54.2959 50.6351 54.2197 50.6531L49.3731 43.1276C49.4484 43.031 49.5003 42.9182 49.5244 42.798L55.7973 41.8872C55.8929 42.3051 56.0774 42.6973 56.3383 43.037C56.5991 43.3767 56.9302 43.6559 57.3087 43.8556L54.4526 50.6355ZM55.7701 40.6888C55.726 40.9239 55.7124 41.1636 55.7294 41.4022L49.4507 42.312C49.4327 42.2721 49.409 42.235 49.3803 42.2021L55.4207 33.2946L55.4792 33.3053C55.5266 33.3204 55.5757 33.3294 55.6253 33.3322L57.4635 38.5169C57.0287 38.7178 56.6486 39.0208 56.3556 39.4004C56.0626 39.7799 55.8654 40.2247 55.7807 40.6968L55.7701 40.6888ZM47.3433 24.0777L45.5873 27.2134C45.3357 27.0867 45.0674 26.9965 44.7904 26.9455C44.3884 26.8712 43.9755 26.8796 43.5768 26.9705L40.3886 18.2842C40.5006 18.191 40.5835 18.0675 40.6277 17.9285C40.6718 17.7895 40.6752 17.6407 40.6375 17.4999C40.5998 17.3591 40.5226 17.232 40.415 17.1339C40.3074 17.0357 40.1739 16.9706 40.0305 16.9462C39.9811 16.9308 39.93 16.9214 39.8784 16.9182L38.7469 13.8385L47.0615 23.2444C47.0542 23.2692 47.0495 23.2947 47.0475 23.3205C47.018 23.4635 47.0308 23.6118 47.0842 23.7475C47.1375 23.8832 47.2293 24.0004 47.3481 24.0846L47.3433 24.0777ZM39.3545 18.2211C39.394 18.2648 39.4402 18.3019 39.4914 18.3311L37.3032 27.3602L34.7512 20.8326C34.9085 20.7204 35.0157 20.5509 35.0497 20.3605C35.0607 20.3182 35.0687 20.2751 35.0734 20.2316L39.3545 18.2211ZM38.6737 45.7556L49.9957 49.924C49.9904 49.937 49.9878 49.9509 49.9882 49.965L37.9738 54.4166C37.8623 54.2943 37.7141 54.2118 37.5516 54.1814L37.499 54.1717L36.6248 47.3957C37.0717 47.3015 37.4909 47.1055 37.8501 46.8229C38.2093 46.5402 38.4987 46.1785 38.696 45.7658L38.6737 45.7556ZM45.1738 56.6448L45.0628 56.6244C44.924 56.5988 44.7808 56.6127 44.6494 56.6646C44.5181 56.7164 44.4039 56.8041 44.3197 56.9177L38.1692 54.9312L38.1778 54.8843L50.0262 50.4808L45.1738 56.6448ZM50.7919 50.6884C50.8953 50.6821 50.9963 50.6542 51.0884 50.6065C51.1805 50.5587 51.2616 50.4923 51.3265 50.4113L53.647 51.2686C53.621 51.443 53.6567 51.621 53.7478 51.7718L49.6405 57.3036C49.4689 57.1865 49.2834 57.0913 49.0882 57.0202L50.7919 50.6884ZM60.5073 44.2446C60.3941 44.092 60.2277 43.9879 60.0412 43.9528L59.895 43.9259C60.4624 43.6598 60.9315 43.221 61.2355 42.6721C61.5394 42.1233 61.6627 41.4924 61.5878 40.8695C61.5128 40.2466 61.2434 39.6634 60.818 39.2032C60.3926 38.7431 59.8329 38.4294 59.2188 38.3069C58.79 38.2265 58.3485 38.2447 57.9276 38.36L56.1307 33.2799L67.07 41.8908C67.0611 41.9234 67.0549 41.9567 67.0517 41.9904C67.0402 42.0347 67.032 42.0797 67.0268 42.1252L60.5073 44.2446ZM67.2395 36.2095L64.3602 28.1435C64.5018 28.0299 64.5979 27.8692 64.631 27.6906C64.6507 27.592 64.6488 27.4904 64.6253 27.3927L68.0308 25.3118C68.4003 25.8202 68.9212 26.1981 69.5185 26.3914L67.2395 36.2095ZM49.4379 13.6199L47.7573 22.7485C47.6186 22.7585 47.4849 22.8049 47.3698 22.8831L38.9067 13.2985C38.9785 13.2124 39.0336 13.1136 39.0691 13.0073L49.1141 13.1786C49.1637 13.3609 49.2791 13.5181 49.4379 13.6199ZM38.1123 13.5096L39.4456 17.1353C39.3052 17.2472 39.2095 17.4059 39.1759 17.5824C39.1631 17.6557 39.1595 17.7304 39.1652 17.8046L34.9257 19.7864C34.819 19.6559 34.6717 19.5649 34.5074 19.528C34.3431 19.491 34.1711 19.5102 34.0188 19.5824C33.8665 19.6547 33.7426 19.7758 33.6669 19.9267C33.5912 20.0775 33.568 20.2494 33.601 20.4149L27.0258 23.4933C26.9674 23.3647 26.8992 23.2408 26.8221 23.1226L37.8129 13.297C37.8934 13.3894 37.9983 13.457 38.1155 13.492L38.1123 13.5096ZM27.0194 25.9576L36.6276 28.2717C36.6359 28.3802 36.6681 28.4855 36.722 28.5799L30.7769 35.3605C30.7256 35.3448 30.6726 35.335 30.6191 35.3314C30.5286 35.3171 30.4363 35.3186 30.3463 35.3357L25.8142 27.3168C26.3534 26.999 26.777 26.5165 27.0227 25.94L27.0194 25.9576ZM26.5092 40.2207L26.3572 40.1927C26.2235 40.1687 26.0859 40.1807 25.9584 40.2274C25.8308 40.2742 25.7179 40.354 25.6312 40.4588L20.486 38.5605L29.8046 36.4718L26.5092 40.2207ZM25.4641 40.9066C25.4599 41.0646 25.5053 41.22 25.5937 41.3508C25.6822 41.4816 25.8093 41.5814 25.9573 41.636C26.1053 41.6907 26.2667 41.6975 26.4188 41.6555C26.571 41.6135 26.7062 41.5248 26.8055 41.402L33.1571 43.7405C33.141 43.8284 33.1259 43.9104 33.1097 43.9983C32.9758 44.7258 33.1203 45.4769 33.5142 46.1021L30.0095 48.722C29.9163 48.654 29.8093 48.6074 29.6961 48.5856C29.5363 48.5544 29.3705 48.5771 29.2248 48.6503L20.4948 39.071L25.4641 40.9066ZM30.2674 49.1269L33.7743 46.4953C34.213 46.9911 34.8044 47.3259 35.4548 47.4468C35.6774 47.4866 35.9036 47.5018 36.1295 47.4923L37.0126 54.3184C36.9884 54.3326 36.9652 54.3486 36.9434 54.3663L30.2322 49.5809C30.2426 49.5424 30.2498 49.5032 30.2538 49.4637C30.2874 49.3485 30.2931 49.2271 30.2707 49.1094L30.2674 49.1269ZM36.6988 54.7756C36.6988 54.7756 36.6934 54.8049 36.6901 54.8224C36.6568 55.0054 36.6918 55.1942 36.7886 55.3529C36.8854 55.5115 37.0372 55.6288 37.2149 55.6823L38.3058 64.1702L30.3082 50.2188L36.6988 54.7756ZM39.3343 64.9533L44.6931 58.1071L44.81 58.1286C45.0069 58.1649 45.2102 58.1213 45.3751 58.0073C45.5401 57.8934 45.6532 57.7186 45.6895 57.5212C45.708 57.4271 45.7077 57.3303 45.6887 57.2364C45.6697 57.1424 45.6323 57.0532 45.5787 56.9738L50.2108 51.054L48.6434 56.908L48.5732 56.8951C47.8472 56.7899 47.1078 56.9575 46.4973 57.3656C45.8868 57.7737 45.4483 58.3935 45.2661 59.1058C45.084 59.818 45.1711 60.5724 45.5107 61.2238C45.8503 61.8752 46.4183 62.3775 47.1056 62.6342L46.603 64.5105C46.4279 64.5021 46.2554 64.5556 46.1155 64.6616C45.9756 64.7675 45.8772 64.9193 45.8374 65.0904L39.4126 65.1191C39.3976 65.0527 39.3726 64.9888 39.3386 64.9298L39.3343 64.9533ZM47.0593 64.6914L47.5796 62.7518C48.066 62.8253 48.563 62.7766 49.0262 62.6103C49.4893 62.4439 49.9041 62.165 50.2334 61.7986L54.4662 65.0737L47.3417 65.0947C47.2992 64.9267 47.2007 64.7782 47.0625 64.6738L47.0593 64.6914ZM55.3694 64.5676L54.7347 52.1897L60.54 60.9761C60.4736 61.068 60.4286 61.1735 60.408 61.285C60.3875 61.3965 60.3921 61.5112 60.4213 61.6206L55.6525 64.7045C55.5699 64.6376 55.4731 64.5907 55.3694 64.5676ZM61.2751 60.6935C61.1661 60.6723 61.0536 60.6764 60.9464 60.7057L58.6502 57.254L65.767 56.9468C65.8137 57.3023 65.9269 57.6458 66.1004 57.9593L61.6006 60.8625C61.5038 60.7787 61.388 60.72 61.2634 60.6913L61.2751 60.6935ZM63.6477 53.9458C63.5799 53.9044 63.5058 53.8744 63.4283 53.8569L60.3939 45.3201C60.476 45.2493 60.5433 45.1628 60.5919 45.0658L69.0953 46.2557C69.1215 46.3769 69.175 46.4904 69.2518 46.5874L63.6477 53.9458ZM70.1589 45.4036C70.1017 45.3867 70.0429 45.3759 69.9835 45.3713C69.8215 45.3419 69.6543 45.3665 69.5074 45.4411C69.3606 45.5158 69.242 45.6365 69.1699 45.7849L61.0136 44.6467L67.2069 42.6247C67.3185 42.7725 67.4807 42.8736 67.6624 42.9085C67.8609 42.9451 68.0657 42.9011 68.232 42.7863C68.3982 42.6715 68.5122 42.4952 68.5488 42.2963C68.5585 42.2598 68.5654 42.2226 68.5693 42.185L73.984 40.4195L70.1589 45.4036ZM74.2353 39.2845C74.1722 39.3231 74.1161 39.3722 74.0695 39.4297L68.0411 37.1082C68.0468 36.9758 68.0176 36.8441 67.9565 36.7266C67.8954 36.609 67.8045 36.5096 67.693 36.4384L69.9984 26.51C70.308 26.554 70.6225 26.5506 70.9311 26.5L74.2353 39.2845ZM67.9262 21.9729C67.766 22.2261 67.6439 22.5017 67.5641 22.7907L59.5835 21.3214C59.5588 21.1651 59.4865 21.0203 59.3764 20.9068C59.2664 20.7933 59.1241 20.7166 58.9689 20.6873L58.8929 20.6733L57.6281 15.8547C58.0936 15.689 58.5106 15.4098 58.8415 15.0422L67.9262 21.9729ZM54.5744 15.1713L48.2356 22.8426L49.9173 13.7081C50.0521 13.6864 50.1786 13.629 50.2839 13.5419C50.3892 13.4548 50.4695 13.3411 50.5163 13.2126L53.6854 13.2691C53.7412 13.9905 54.0572 14.6667 54.5744 15.1713ZM23.7943 27.6173C24.3269 27.7158 24.8764 27.6639 25.3814 27.4673L29.9432 35.522C29.8493 35.6245 29.7861 35.7515 29.761 35.8883C29.761 35.8883 29.7545 35.9234 29.7512 35.941L20.2932 38.0646C20.2428 37.989 20.1821 37.9207 20.113 37.8618L23.6566 27.6102L23.7943 27.6173ZM20.1462 39.3884L28.8715 48.9608C28.839 49.0215 28.8148 49.0863 28.7997 49.1535C28.7758 49.2877 28.7879 49.4259 28.8348 49.5538L26.1581 51.5507C25.7171 51.0359 25.1137 50.6876 24.4479 50.5634C24.071 50.4929 23.6839 50.4979 23.3088 50.5779L20.1462 39.3884ZM26.4416 51.9482L29.146 49.9321C29.2257 49.986 29.3155 50.0231 29.41 50.0413C29.4941 50.0565 29.5803 50.056 29.6642 50.0396L37.8783 64.3581L26.3582 55.192C26.6018 54.8478 26.7671 54.4543 26.8424 54.0393C26.9651 53.3216 26.8214 52.5841 26.4383 51.9658L26.4416 51.9482ZM69.2283 53.6102C68.5761 53.492 67.903 53.5956 67.3161 53.9046C66.7291 54.2137 66.2619 54.7103 65.9887 55.3157L63.9848 54.5772C63.9842 54.5026 63.9712 54.4286 63.9466 54.3582L69.6697 46.8461C69.7675 46.8649 69.8681 46.8641 69.9657 46.8438C70.0633 46.8235 70.1559 46.784 70.2382 46.7276C70.3205 46.6712 70.3909 46.5991 70.4453 46.5154C70.4996 46.4317 70.5369 46.338 70.555 46.2398C70.5843 46.0712 70.5567 45.8977 70.4765 45.7468L73.8423 41.3203L69.468 53.6543L69.2283 53.6102Z" fill="#82EB68"/>
<path id="Vector_11" d="M34.669 16.5155L68.0586 22.6627C68.4654 22.7336 68.854 22.8847 69.2019 23.1071C69.5499 23.3296 69.8503 23.6191 70.0857 23.9588C70.3211 24.2985 70.4869 24.6817 70.5735 25.0862C70.66 25.4906 70.6656 25.9084 70.5899 26.3151L64.4294 59.777C64.3559 60.185 64.2023 60.5744 63.9776 60.9226C63.753 61.2708 63.4616 61.571 63.1204 61.8056C62.7792 62.0403 62.395 62.2049 61.9901 62.2898C61.5851 62.3747 61.1674 62.3782 60.7611 62.3002L27.3716 56.153C26.9677 56.0787 26.5825 55.9253 26.2379 55.7018C25.8933 55.4782 25.5961 55.1888 25.3632 54.85C24.8929 54.1658 24.7132 53.3223 24.8637 52.5049L31.0263 19.0313C31.1001 18.6262 31.253 18.2397 31.4762 17.8938C31.6993 17.5479 31.9884 17.2496 32.3269 17.0158C32.6653 16.7821 33.0464 16.6176 33.4483 16.5317C33.8503 16.4459 34.2651 16.4404 34.669 16.5155Z" fill="#BAEE5B"/>
<path id="Vector_12" d="M62.0413 27.6257L38.5382 23.2987C37.3435 23.0787 36.1963 23.871 35.9759 25.0683L31.6395 48.6223C31.419 49.8196 32.2089 50.9685 33.4036 51.1884L56.9067 55.5155C58.1014 55.7354 59.2486 54.9431 59.469 53.7458L63.8054 30.1919C64.0258 28.9946 63.236 27.8456 62.0413 27.6257Z" fill="#28830E"/>
<path id="Vector (Stroke)" fill-rule="evenodd" clip-rule="evenodd" d="M37.6207 22.2209C36.5357 22.0212 35.494 22.7407 35.2938 23.8279L30.5626 49.5264C30.3624 50.6137 31.0796 51.657 32.1646 51.8567L57.8134 56.5788C58.8983 56.7786 59.9401 56.0591 60.1402 54.9718L64.8714 29.2733C65.0716 28.1861 64.3544 27.1427 63.2695 26.943L37.6207 22.2209ZM34.4987 23.6816C34.7799 22.1542 36.2433 21.1435 37.7674 21.4241L63.4162 26.1461C64.9402 26.4267 65.9478 27.8924 65.6666 29.4197L60.9354 55.1182C60.6542 56.6455 59.1907 57.6563 57.6666 57.3757L32.0179 52.6536C30.4938 52.373 29.4863 50.9074 29.7675 49.38L34.4987 23.6816Z" fill="#28830E"/>
<path id="Vector_13" d="M38.3855 19.0842C38.3701 19.1678 38.3384 19.2475 38.2921 19.3187C38.2458 19.39 38.1858 19.4513 38.1158 19.4993C38.0457 19.5472 37.9668 19.5807 37.8837 19.598C37.8007 19.6152 37.715 19.6158 37.6317 19.5996C37.5482 19.585 37.4684 19.554 37.3969 19.5083C37.3254 19.4627 37.2636 19.4032 37.2152 19.3335C37.1668 19.2637 37.1327 19.185 37.1148 19.102C37.0969 19.0189 37.0956 18.9331 37.111 18.8495L37.7819 15.2051C37.7973 15.1215 37.8291 15.0418 37.8754 14.9705C37.9217 14.8993 37.9816 14.8379 38.0517 14.79C38.1218 14.742 38.2007 14.7085 38.2837 14.6913C38.3668 14.674 38.4524 14.6735 38.5357 14.6896C38.6193 14.7042 38.6991 14.7352 38.7706 14.7809C38.8421 14.8266 38.9038 14.886 38.9522 14.9558C39.0007 15.0255 39.0348 15.1042 39.0527 15.1873C39.0706 15.2703 39.0719 15.3561 39.0565 15.4397L38.3855 19.0842Z" fill="#F8BD31"/>
<path id="Vector_14" d="M51.6609 21.5284C51.6455 21.612 51.6137 21.6917 51.5674 21.763C51.5211 21.8342 51.4612 21.8956 51.3911 21.9435C51.321 21.9914 51.2422 22.025 51.1591 22.0422C51.076 22.0594 50.9904 22.06 50.9071 22.0439C50.8242 22.0286 50.7451 21.9971 50.6744 21.9512C50.6036 21.9053 50.5426 21.8459 50.4948 21.7763C50.4469 21.7068 50.4133 21.6284 50.3957 21.5458C50.3781 21.4632 50.3769 21.3779 50.3922 21.2948L51.0632 17.6504C51.0785 17.5673 51.1099 17.488 51.1558 17.4171C51.2017 17.3462 51.261 17.285 51.3305 17.237C51.3999 17.189 51.4781 17.1552 51.5606 17.1375C51.6431 17.1198 51.7282 17.1186 51.8111 17.1338C51.8946 17.1484 51.9745 17.1795 52.046 17.2251C52.1175 17.2708 52.1792 17.3303 52.2276 17.4C52.276 17.4697 52.3102 17.5484 52.3281 17.6315C52.346 17.7146 52.3473 17.8004 52.3319 17.884L51.6609 21.5284Z" fill="#F8BD31"/>
<path id="Vector_15" d="M47.3015 20.7257C47.2862 20.8088 47.2548 20.888 47.2089 20.959C47.163 21.0299 47.1037 21.0911 47.0342 21.1391C46.9648 21.187 46.8866 21.2208 46.8041 21.2385C46.7217 21.2562 46.6365 21.2575 46.5536 21.2422C46.4701 21.2276 46.3902 21.1966 46.3187 21.1509C46.2472 21.1052 46.1855 21.0458 46.1371 20.9761C46.0887 20.9063 46.0545 20.8276 46.0366 20.7446C46.0187 20.6615 46.0175 20.5757 46.0329 20.4921L46.7038 16.8477C46.7192 16.7641 46.751 16.6843 46.7973 16.6131C46.8436 16.5418 46.9035 16.4805 46.9736 16.4326C47.0437 16.3846 47.1225 16.3511 47.2056 16.3338C47.2887 16.3166 47.3743 16.3161 47.4576 16.3322C47.5405 16.3475 47.6196 16.3789 47.6903 16.4249C47.7611 16.4708 47.8221 16.5302 47.8699 16.5997C47.9178 16.6693 47.9514 16.7476 47.969 16.8302C47.9866 16.9128 47.9878 16.9981 47.9725 17.0812L47.3015 20.7257Z" fill="#F8BD31"/>
<path id="Vector_16" d="M42.9715 19.9279C42.9561 20.0115 42.9243 20.0912 42.878 20.1625C42.8317 20.2337 42.7718 20.2951 42.7017 20.343C42.6316 20.3909 42.5528 20.4245 42.4697 20.4417C42.3866 20.4589 42.301 20.4595 42.2177 20.4434C42.1341 20.4288 42.0543 20.3978 41.9828 20.3521C41.9113 20.3064 41.8496 20.247 41.8012 20.1772C41.7527 20.1075 41.7186 20.0288 41.7007 19.9457C41.6828 19.8627 41.6815 19.7769 41.6969 19.6933L42.3679 16.0488C42.3833 15.9652 42.415 15.8855 42.4613 15.8143C42.5076 15.743 42.5676 15.6817 42.6376 15.6337C42.7077 15.5858 42.7866 15.5523 42.8697 15.535C42.9527 15.5178 43.0384 15.5172 43.1216 15.5334C43.2052 15.5479 43.285 15.579 43.3565 15.6247C43.428 15.6703 43.4898 15.7298 43.5382 15.7995C43.5866 15.8693 43.6208 15.948 43.6386 16.031C43.6565 16.1141 43.6578 16.1999 43.6424 16.2835L42.9715 19.9279Z" fill="#F8BD31"/>
<path id="Vector_17" d="M56.0261 22.3322C56.0108 22.4158 55.979 22.4955 55.9327 22.5668C55.8864 22.638 55.8265 22.6994 55.7564 22.7473C55.6863 22.7952 55.6075 22.8288 55.5244 22.846C55.4413 22.8632 55.3557 22.8638 55.2724 22.8477C55.1888 22.8331 55.109 22.8021 55.0375 22.7564C54.966 22.7107 54.9043 22.6513 54.8559 22.5815C54.8074 22.5118 54.7733 22.4331 54.7554 22.35C54.7375 22.267 54.7362 22.1812 54.7516 22.0976L55.4226 18.4531C55.4379 18.3695 55.4697 18.2898 55.516 18.2186C55.5623 18.1473 55.6223 18.086 55.6923 18.038C55.7624 17.9901 55.8413 17.9565 55.9244 17.9393C56.0074 17.9221 56.0931 17.9215 56.1763 17.9377C56.2599 17.9522 56.3397 17.9833 56.4112 18.029C56.4827 18.0746 56.5445 18.1341 56.5929 18.2038C56.6413 18.2736 56.6754 18.3522 56.6933 18.4353C56.7112 18.5184 56.7125 18.6042 56.6971 18.6878L56.0261 22.3322Z" fill="#F8BD31"/>
<path id="Vector_18" d="M64.9422 23.9737C64.9268 24.0573 64.895 24.137 64.8487 24.2083C64.8024 24.2795 64.7425 24.3409 64.6724 24.3888C64.6023 24.4367 64.5235 24.4703 64.4404 24.4875C64.3573 24.5047 64.2717 24.5053 64.1884 24.4892C64.1055 24.4739 64.0264 24.4424 63.9556 24.3965C63.8849 24.3506 63.8239 24.2912 63.7761 24.2216C63.7282 24.1521 63.6946 24.0738 63.677 23.9911C63.6594 23.9085 63.6582 23.8232 63.6735 23.7401L64.3444 20.0957C64.3597 20.0126 64.3912 19.9333 64.4371 19.8624C64.4829 19.7915 64.5423 19.7303 64.6118 19.6823C64.6812 19.6343 64.7594 19.6005 64.8418 19.5828C64.9243 19.5652 65.0094 19.5639 65.0924 19.5792C65.1759 19.5938 65.2558 19.6248 65.3273 19.6705C65.3987 19.7161 65.4605 19.7756 65.5089 19.8453C65.5573 19.9151 65.5915 19.9937 65.6094 20.0768C65.6272 20.1599 65.6285 20.2457 65.6131 20.3293L64.9422 23.9737Z" fill="#F8BD31"/>
<path id="Vector_19" d="M60.6062 23.1749C60.5909 23.258 60.5594 23.3373 60.5136 23.4082C60.4677 23.4791 60.4084 23.5403 60.3389 23.5883C60.2695 23.6363 60.1913 23.67 60.1088 23.6877C60.0264 23.7054 59.9412 23.7067 59.8583 23.6914C59.7747 23.6768 59.6949 23.6458 59.6234 23.6001C59.552 23.5544 59.4902 23.495 59.4418 23.4253C59.3933 23.3555 59.3592 23.2768 59.3413 23.1938C59.3234 23.1107 59.3221 23.0249 59.3375 22.9413L60.0085 19.2969C60.0239 19.2133 60.0556 19.1336 60.1019 19.0623C60.1482 18.9911 60.2082 18.9297 60.2782 18.8818C60.3483 18.8338 60.4272 18.8003 60.5103 18.7831C60.5934 18.7658 60.679 18.7653 60.7622 18.7814C60.8452 18.7967 60.9243 18.8282 60.995 18.8741C61.0658 18.92 61.1268 18.9794 61.1746 19.049C61.2225 19.1185 61.2561 19.1968 61.2737 19.2794C61.2913 19.3621 61.2925 19.4474 61.2772 19.5305L60.6062 23.1749Z" fill="#F8BD31"/>
<path id="Vector_20" d="M31.0876 58.7052C31.0722 58.7888 31.0404 58.8685 30.9941 58.9398C30.9478 59.011 30.8879 59.0724 30.8178 59.1203C30.7477 59.1683 30.6689 59.2018 30.5858 59.219C30.5027 59.2363 30.4171 59.2368 30.3338 59.2207C30.2502 59.2061 30.1704 59.1751 30.0989 59.1294C30.0274 59.0837 29.9657 59.0243 29.9173 58.9545C29.8688 58.8848 29.8347 58.8061 29.8168 58.723C29.7989 58.64 29.7976 58.5542 29.813 58.4706L30.484 54.8262C30.5152 54.6568 30.6122 54.5067 30.7538 54.4089C30.8953 54.3111 31.0698 54.2737 31.2388 54.3048C31.4078 54.3359 31.5576 54.4331 31.655 54.5748C31.7525 54.7166 31.7897 54.8914 31.7585 55.0608L31.0876 58.7052Z" fill="#F8BD31"/>
<path id="Vector_21" d="M44.3708 61.1495C44.3554 61.2331 44.3236 61.3128 44.2773 61.384C44.231 61.4553 44.1711 61.5166 44.101 61.5646C44.0309 61.6125 43.9521 61.646 43.869 61.6633C43.7859 61.6805 43.7003 61.6811 43.617 61.6649C43.4496 61.6341 43.3012 61.5379 43.2047 61.3974C43.1081 61.2569 43.0712 61.0837 43.1021 60.9159L43.7731 57.2715C43.7877 57.1877 43.8187 57.1077 43.8643 57.036C43.91 56.9644 43.9694 56.9025 44.039 56.8539C44.1086 56.8053 44.1872 56.771 44.2701 56.7531C44.353 56.7351 44.4386 56.7337 44.5221 56.7491C44.6057 56.7645 44.6856 56.7962 44.757 56.8426C44.8284 56.8889 44.89 56.9489 44.9382 57.0191C44.9865 57.0893 45.0205 57.1683 45.0382 57.2517C45.056 57.3351 45.0572 57.4212 45.0418 57.505L44.3708 61.1495Z" fill="#F8BD31"/>
<path id="Vector_22" d="M40.0036 60.3467C39.9727 60.5146 39.8765 60.6633 39.7363 60.7601C39.596 60.857 39.4231 60.8941 39.2557 60.8633C39.1721 60.8487 39.0923 60.8177 39.0208 60.772C38.9493 60.7263 38.8876 60.6669 38.8391 60.5971C38.7907 60.5274 38.7566 60.4487 38.7387 60.3656C38.7208 60.2826 38.7195 60.1967 38.7349 60.1132L39.4059 56.4687C39.437 56.2993 39.5341 56.1493 39.6756 56.0515C39.8172 55.9537 39.9917 55.9163 40.1607 55.9474C40.2441 55.9628 40.3237 55.9945 40.3947 56.0409C40.4658 56.0872 40.527 56.1472 40.5748 56.2174C40.6226 56.2876 40.656 56.3666 40.6731 56.4498C40.6902 56.533 40.6907 56.6189 40.6745 56.7023L40.0036 60.3467Z" fill="#F8BD31"/>
<path id="Vector_23" d="M35.6735 59.549C35.6581 59.6326 35.6264 59.7123 35.5801 59.7835C35.5338 59.8548 35.4738 59.9162 35.4038 59.9641C35.3337 60.012 35.2548 60.0456 35.1717 60.0628C35.0887 60.08 35.003 60.0806 34.9197 60.0644C34.8362 60.0499 34.7564 60.0188 34.6849 59.9731C34.6134 59.9275 34.5516 59.868 34.5032 59.7983C34.4548 59.7285 34.4206 59.6499 34.4028 59.5668C34.3849 59.4837 34.3836 59.3979 34.399 59.3143L35.0699 55.6699C35.1011 55.5005 35.1982 55.3504 35.3397 55.2527C35.4813 55.1549 35.6558 55.1175 35.8248 55.1486C35.9938 55.1797 36.1435 55.2768 36.241 55.4186C36.3384 55.5604 36.3757 55.7352 36.3445 55.9046L35.6735 59.549Z" fill="#F8BD31"/>
<path id="Vector_24" d="M48.7281 61.9517C48.7127 62.0353 48.681 62.115 48.6347 62.1863C48.5884 62.2575 48.5285 62.3189 48.4584 62.3668C48.3883 62.4148 48.3094 62.4483 48.2264 62.4655C48.1433 62.4827 48.0576 62.4833 47.9744 62.4672C47.8883 62.4554 47.8055 62.4263 47.731 62.3816C47.6565 62.3368 47.5919 62.2774 47.541 62.2068C47.4902 62.1363 47.4541 62.0561 47.4351 61.9712C47.416 61.8863 47.4144 61.7984 47.4302 61.7128L48.1012 58.0683C48.1166 57.9845 48.1484 57.9045 48.1947 57.8329C48.241 57.7613 48.3009 57.6995 48.371 57.6511C48.4411 57.6027 48.52 57.5686 48.6032 57.5507C48.6864 57.5329 48.7724 57.5316 48.856 57.547C49.0251 57.5781 49.1747 57.6752 49.2722 57.817C49.3697 57.9588 49.4069 58.1336 49.3757 58.303L48.7281 61.9517Z" fill="#F8BD31"/>
<path id="Vector_25" d="M57.6442 63.5928C57.6289 63.6764 57.5971 63.7561 57.5508 63.8274C57.5045 63.8986 57.4446 63.96 57.3745 64.0079C57.3044 64.0559 57.2256 64.0894 57.1425 64.1066C57.0594 64.1239 56.9738 64.1244 56.8905 64.1083C56.723 64.0775 56.5747 63.9812 56.4781 63.8408C56.3816 63.7003 56.3447 63.5271 56.3756 63.3592L57.0465 59.7148C57.0611 59.6311 57.0922 59.5511 57.1378 59.4794C57.1835 59.4077 57.2428 59.3458 57.3125 59.2973C57.3821 59.2487 57.4606 59.2144 57.5435 59.1964C57.6265 59.1784 57.7121 59.1771 57.7955 59.1924C57.8792 59.2078 57.959 59.2396 58.0304 59.2859C58.1019 59.3323 58.1635 59.3922 58.2117 59.4624C58.26 59.5326 58.2939 59.6117 58.3117 59.6951C58.3295 59.7785 58.3306 59.8645 58.3152 59.9484L57.6442 63.5928Z" fill="#F8BD31"/>
<path id="Vector_26" d="M53.3083 62.794C53.2774 62.9618 53.1812 63.1105 53.041 63.2074C52.9007 63.3043 52.7278 63.3414 52.5603 63.3105C52.4768 63.2959 52.397 63.2649 52.3255 63.2192C52.254 63.1736 52.1922 63.1141 52.1438 63.0444C52.0954 62.9746 52.0613 62.896 52.0434 62.8129C52.0255 62.7298 52.0242 62.644 52.0396 62.5604L52.7105 58.916C52.7417 58.7466 52.8388 58.5965 52.9804 58.4988C53.1219 58.401 53.2964 58.3635 53.4654 58.3947C53.5488 58.41 53.6283 58.4418 53.6994 58.4881C53.7705 58.5345 53.8317 58.5945 53.8795 58.6647C53.9272 58.7349 53.9607 58.8138 53.9778 58.8971C53.9949 58.9803 53.9954 59.0661 53.9792 59.1496L53.3083 62.794Z" fill="#F8BD31"/>
<path id="Vector_27" d="M27.4477 48.7662C27.6167 48.7973 27.7664 48.8945 27.8638 49.0362C27.9613 49.178 27.9985 49.3528 27.9673 49.5222C27.9362 49.6916 27.8391 49.8417 27.6976 49.9394C27.556 50.0372 27.3815 50.0746 27.2125 50.0435L23.5818 49.3751C23.4128 49.344 23.2631 49.2469 23.1656 49.1051C23.0682 48.9633 23.0309 48.7885 23.0621 48.6191C23.0933 48.4497 23.1903 48.2997 23.3319 48.2019C23.4735 48.1041 23.6479 48.0667 23.817 48.0978L27.4477 48.7662Z" fill="#F8BD31"/>
<path id="Vector_28" d="M29.9008 35.4654C30.0698 35.4966 30.2195 35.5937 30.317 35.7355C30.4144 35.8772 30.4517 36.052 30.4205 36.2214C30.3893 36.3908 30.2922 36.5409 30.1507 36.6387C30.0091 36.7364 29.8346 36.7739 29.6656 36.7427L26.0349 36.0743C25.8659 36.0432 25.7162 35.9461 25.6187 35.8043C25.5213 35.6625 25.484 35.4877 25.5152 35.3183C25.5464 35.149 25.6435 34.9989 25.785 34.9011C25.9266 34.8033 26.1011 34.7659 26.2701 34.797L29.9008 35.4654Z" fill="#F8BD31"/>
<path id="Vector_29" d="M29.0961 39.8307C29.2651 39.8618 29.4148 39.9589 29.5123 40.1007C29.6097 40.2425 29.647 40.4173 29.6158 40.5867C29.6004 40.6702 29.5686 40.75 29.5223 40.8212C29.476 40.8925 29.4161 40.9538 29.346 41.0017C29.2759 41.0497 29.1971 41.0832 29.114 41.1005C29.0309 41.1177 28.9453 41.1182 28.862 41.1021L25.2313 40.4337C25.1478 40.4191 25.0679 40.3881 24.9964 40.3424C24.9249 40.2967 24.8632 40.2373 24.8148 40.1675C24.7664 40.0978 24.7322 40.0191 24.7143 39.936C24.6964 39.853 24.6952 39.7672 24.7105 39.6836C24.7417 39.5142 24.8388 39.3641 24.9803 39.2663C25.1219 39.1686 25.2964 39.1311 25.4654 39.1622L29.0961 39.8307Z" fill="#F8BD31"/>
<path id="Vector_30" d="M28.2949 44.1784C28.3785 44.1929 28.4583 44.224 28.5298 44.2697C28.6013 44.3153 28.663 44.3748 28.7114 44.4445C28.7598 44.5143 28.794 44.593 28.8119 44.676C28.8298 44.7591 28.8311 44.8449 28.8157 44.9285C28.7792 45.0927 28.6806 45.2363 28.5406 45.3291C28.4006 45.422 28.2302 45.4569 28.0651 45.4264L24.4344 44.7579C24.2654 44.7268 24.1157 44.6297 24.0182 44.4879C23.9208 44.3462 23.8836 44.1714 23.9147 44.002C23.9301 43.9184 23.9619 43.8386 24.0082 43.7674C24.0545 43.6962 24.1144 43.6348 24.1845 43.5869C24.2546 43.5389 24.3334 43.5054 24.4165 43.4882C24.4996 43.4709 24.5852 43.4704 24.6685 43.4865L28.2949 44.1784Z" fill="#F8BD31"/>
<path id="Vector_31" d="M30.7055 31.0944C30.789 31.109 30.8689 31.14 30.9403 31.1857C31.0118 31.2314 31.0736 31.2908 31.122 31.3605C31.1704 31.4303 31.2046 31.509 31.2224 31.592C31.2403 31.6751 31.2416 31.7609 31.2262 31.8445C31.195 32.0139 31.098 32.164 30.9564 32.2617C30.8149 32.3595 30.6404 32.3969 30.4714 32.3658L26.8407 31.6974C26.6717 31.6663 26.522 31.5692 26.4245 31.4274C26.327 31.2856 26.2898 31.1108 26.321 30.9414C26.3364 30.8578 26.3681 30.7781 26.4144 30.7068C26.4607 30.6356 26.5207 30.5742 26.5908 30.5263C26.6608 30.4784 26.7397 30.4448 26.8228 30.4276C26.9058 30.4104 26.9915 30.4098 27.0748 30.4259L30.7055 31.0944Z" fill="#F8BD31"/>
<path id="Vector_32" d="M32.3539 22.1529C32.5229 22.1841 32.6726 22.2812 32.7701 22.423C32.8676 22.5647 32.9048 22.7395 32.8736 22.9089C32.8424 23.0783 32.7454 23.2284 32.6038 23.3262C32.4622 23.4239 32.2878 23.4614 32.1187 23.4303L28.488 22.7618C28.319 22.7307 28.1693 22.6336 28.0719 22.4918C27.9744 22.35 27.9372 22.1752 27.9684 22.0058C27.9995 21.8365 28.0966 21.6864 28.2381 21.5886C28.3797 21.4908 28.5542 21.4534 28.7232 21.4845L32.3539 22.1529Z" fill="#F8BD31"/>
<path id="Vector_33" d="M31.5492 26.5006C31.7182 26.5317 31.8679 26.6288 31.9654 26.7706C32.0629 26.9124 32.1001 27.0872 32.0689 27.2566C32.0535 27.3402 32.0218 27.4199 31.9755 27.4912C31.9292 27.5624 31.8692 27.6238 31.7991 27.6717C31.7291 27.7196 31.6502 27.7532 31.5671 27.7704C31.4841 27.7876 31.3984 27.7882 31.3151 27.772L27.6844 27.1036C27.6009 27.089 27.5211 27.058 27.4496 27.0123C27.3781 26.9666 27.3163 26.9072 27.2679 26.8375C27.2195 26.7677 27.1853 26.689 27.1674 26.606C27.1495 26.5229 27.1483 26.4371 27.1637 26.3535C27.1949 26.1841 27.2919 26.034 27.4335 25.9363C27.575 25.8385 27.7495 25.8011 27.9185 25.8322L31.5492 26.5006Z" fill="#F8BD31"/>
<path id="Vector_34" d="M66.9712 56.0416C67.0548 56.057 67.1347 56.0888 67.2061 56.1351C67.2775 56.1815 67.339 56.2414 67.3873 56.3116C67.4356 56.3818 67.4696 56.4609 67.4873 56.5443C67.5051 56.6276 67.5063 56.7137 67.4908 56.7976C67.4754 56.8815 67.4436 56.9615 67.3973 57.0331C67.351 57.1047 67.2911 57.1664 67.221 57.2148C67.1509 57.2632 67.072 57.2973 66.9888 57.3152C66.9056 57.3331 66.8197 57.3343 66.736 57.3189L63.0994 56.6494C63.016 56.6341 62.9365 56.6023 62.8654 56.556C62.7944 56.5096 62.7332 56.4496 62.6854 56.3794C62.6376 56.3092 62.6042 56.2302 62.5871 56.147C62.5699 56.0638 62.5694 55.978 62.5856 55.8945C62.6002 55.8108 62.6312 55.7308 62.6769 55.6591C62.7225 55.5874 62.7819 55.5255 62.8515 55.4769C62.9212 55.4284 62.9997 55.3941 63.0826 55.3761C63.1656 55.3581 63.2512 55.3568 63.3346 55.3721L66.9712 56.0416Z" fill="#F8BD31"/>
<path id="Vector_35" d="M69.4165 42.7408C69.5002 42.7563 69.58 42.788 69.6514 42.8344C69.7228 42.8807 69.7844 42.9407 69.8326 43.0109C69.8809 43.0811 69.9149 43.1601 69.9326 43.2435C69.9504 43.3269 69.9516 43.4129 69.9361 43.4968C69.9207 43.5807 69.8889 43.6607 69.8427 43.7323C69.7964 43.8039 69.7364 43.8656 69.6663 43.914C69.5962 43.9625 69.5174 43.9966 69.4341 44.0144C69.3509 44.0323 69.265 44.0336 69.1813 44.0181L65.5447 43.3486C65.4613 43.3333 65.3818 43.3015 65.3107 43.2552C65.2397 43.2088 65.1785 43.1488 65.1307 43.0787C65.0829 43.0085 65.0495 42.9295 65.0324 42.8462C65.0152 42.763 65.0147 42.6772 65.0309 42.5937C65.0455 42.51 65.0765 42.43 65.1222 42.3583C65.1678 42.2866 65.2272 42.2247 65.2968 42.1762C65.3665 42.1276 65.445 42.0933 65.528 42.0753C65.6109 42.0573 65.6965 42.056 65.7799 42.0713L69.4165 42.7408Z" fill="#F8BD31"/>
<path id="Vector_36" d="M68.6118 47.1061C68.6955 47.1215 68.7753 47.1532 68.8467 47.1996C68.9181 47.2459 68.9797 47.3059 69.0279 47.3761C69.0762 47.4463 69.1102 47.5253 69.128 47.6087C69.1457 47.6921 69.1469 47.7782 69.1315 47.8621C69.1161 47.9456 69.0843 48.0254 69.038 48.0966C68.9917 48.1679 68.9318 48.2292 68.8617 48.2772C68.7916 48.3251 68.7127 48.3586 68.6297 48.3759C68.5466 48.3931 68.461 48.3936 68.3777 48.3775L64.7411 47.708C64.5737 47.6772 64.4253 47.5809 64.3288 47.4405C64.2322 47.3 64.1953 47.1268 64.2262 46.959C64.2408 46.8752 64.2719 46.7952 64.3175 46.7235C64.3631 46.6519 64.4225 46.59 64.4922 46.5414C64.5618 46.4928 64.6404 46.4585 64.7233 46.4405C64.8062 46.4226 64.8918 46.4212 64.9752 46.4366L68.6118 47.1061Z" fill="#F8BD31"/>
<path id="Vector_37" d="M67.8149 51.4538C67.8985 51.4683 67.9783 51.4994 68.0497 51.545C68.1212 51.5907 68.183 51.6502 68.2314 51.7199C68.2798 51.7897 68.314 51.8684 68.3319 51.9514C68.3498 52.0345 68.351 52.1203 68.3357 52.2039C68.3202 52.2878 68.2885 52.3678 68.2422 52.4394C68.1959 52.5109 68.1359 52.5727 68.0658 52.6211C67.9958 52.6695 67.9169 52.7036 67.8336 52.7215C67.7504 52.7394 67.6645 52.7406 67.5808 52.7252L63.9443 52.0557C63.8608 52.0404 63.7813 52.0086 63.7102 51.9622C63.6392 51.9159 63.578 51.8559 63.5302 51.7857C63.4824 51.7155 63.449 51.6365 63.4319 51.5533C63.4147 51.4701 63.4142 51.3843 63.4304 51.3008C63.4613 51.133 63.5575 50.9843 63.6977 50.8874C63.838 50.7905 64.0109 50.7534 64.1783 50.7843L67.8149 51.4538Z" fill="#F8BD31"/>
<path id="Vector_38" d="M70.2212 38.3698C70.3047 38.3844 70.3845 38.4154 70.456 38.4611C70.5275 38.5068 70.5893 38.5662 70.6377 38.6359C70.6861 38.7057 70.7202 38.7844 70.7381 38.8674C70.756 38.9505 70.7573 39.0363 70.7419 39.1199C70.7265 39.2038 70.6947 39.2838 70.6484 39.3554C70.6021 39.427 70.5422 39.4887 70.4721 39.5371C70.402 39.5855 70.3231 39.6196 70.2399 39.6375C70.1567 39.6554 70.0708 39.6566 69.9871 39.6412L66.3505 38.9717C66.2671 38.9564 66.1876 38.9246 66.1165 38.8783C66.0454 38.8319 65.9842 38.7719 65.9365 38.7017C65.8887 38.6315 65.8552 38.5525 65.8381 38.4693C65.821 38.3861 65.8205 38.3003 65.8366 38.2168C65.8675 38.049 65.9637 37.9003 66.104 37.8034C66.2442 37.7065 66.4171 37.6694 66.5846 37.7003L70.2212 38.3698Z" fill="#F8BD31"/>
<path id="Vector_39" d="M71.8696 29.4283C71.9533 29.4438 72.0331 29.4755 72.1045 29.5219C72.1759 29.5682 72.2375 29.6282 72.2857 29.6984C72.334 29.7686 72.368 29.8476 72.3858 29.931C72.4035 30.0144 72.4047 30.1004 72.3893 30.1843C72.3738 30.2682 72.3421 30.3482 72.2958 30.4198C72.2495 30.4914 72.1896 30.5531 72.1195 30.6015C72.0494 30.65 71.9705 30.6841 71.8873 30.7019C71.804 30.7198 71.7181 30.7211 71.6344 30.7057L67.9979 30.0361C67.9145 30.0208 67.8349 29.989 67.7639 29.9427C67.6928 29.8963 67.6316 29.8363 67.5838 29.7662C67.536 29.696 67.5026 29.617 67.4855 29.5337C67.4684 29.4505 67.4678 29.3647 67.484 29.2812C67.4986 29.1975 67.5297 29.1175 67.5753 29.0458C67.621 28.9741 67.6803 28.9122 67.75 28.8637C67.8196 28.8151 67.8982 28.7808 67.9811 28.7628C68.064 28.7448 68.1496 28.7435 68.233 28.7588L71.8696 29.4283Z" fill="#F8BD31"/>
<path id="Vector_40" d="M71.0649 33.776C71.1486 33.7914 71.2284 33.8232 71.2998 33.8695C71.3712 33.9158 71.4328 33.9758 71.4811 34.046C71.5293 34.1162 71.5633 34.1953 71.5811 34.2786C71.5988 34.362 71.6 34.4481 71.5846 34.532C71.5692 34.6156 71.5374 34.6953 71.4911 34.7666C71.4448 34.8378 71.3849 34.8992 71.3148 34.9471C71.2447 34.995 71.1659 35.0286 71.0828 35.0458C70.9997 35.063 70.9141 35.0636 70.8308 35.0474L67.1943 34.3779C67.0268 34.3471 66.8785 34.2509 66.7819 34.1104C66.6853 33.9699 66.6484 33.7967 66.6793 33.6289C66.6939 33.5452 66.725 33.4651 66.7706 33.3935C66.8163 33.3218 66.8756 33.2599 66.9453 33.2113C67.0149 33.1627 67.0935 33.1285 67.1764 33.1105C67.2593 33.0925 67.3449 33.0911 67.4283 33.1065L71.0649 33.776Z" fill="#F8BD31"/>
<path id="Vector (Stroke)_2" fill-rule="evenodd" clip-rule="evenodd" d="M41.6979 23.2621C42.0273 23.3228 42.245 23.6395 42.1842 23.9696L40.7754 31.6217C40.7147 31.9517 40.3984 32.1702 40.0691 32.1095C39.7397 32.0489 39.522 31.7322 39.5827 31.4021L40.9915 23.75C41.0523 23.4199 41.3686 23.2015 41.6979 23.2621Z" fill="#FFFCFF"/>
<path id="Vector (Stroke)_3" fill-rule="evenodd" clip-rule="evenodd" d="M40.051 32.2102C39.8995 32.1823 39.7432 32.2 39.6017 32.2612C39.4602 32.3223 39.34 32.4241 39.2562 32.5537C39.1724 32.6833 39.1288 32.8348 39.131 32.9892C39.1331 33.1435 39.1809 33.2937 39.2682 33.4207C39.3556 33.5478 39.4786 33.646 39.6217 33.703C39.7648 33.76 39.9216 33.7731 40.0723 33.7408C40.2229 33.7085 40.3607 33.6321 40.468 33.5214C40.5754 33.4107 40.6477 33.2705 40.6756 33.1187C40.6942 33.0179 40.6927 32.9145 40.6714 32.8143C40.65 32.714 40.6092 32.619 40.5512 32.5347C40.4932 32.4503 40.4192 32.3782 40.3334 32.3225C40.2476 32.2669 40.1516 32.2287 40.051 32.2102ZM39.1221 31.1453C39.4839 30.989 39.8837 30.9436 40.2711 31.0149C40.5283 31.0622 40.7736 31.1599 40.9931 31.3023C41.2126 31.4447 41.4019 31.629 41.5502 31.8448C41.6985 32.0605 41.8029 32.3035 41.8575 32.5597C41.9121 32.816 41.9158 33.0805 41.8683 33.3383C41.7968 33.7265 41.6121 34.0849 41.3375 34.368C41.0628 34.6512 40.7106 34.8465 40.3254 34.9291C39.9401 35.0118 39.5392 34.9782 39.1732 34.8325C38.8072 34.6868 38.4926 34.4356 38.2693 34.1107C38.0459 33.7857 37.9237 33.4016 37.9183 33.007C37.9128 32.6123 38.0242 32.2248 38.2385 31.8934C38.4528 31.5621 38.7603 31.3017 39.1221 31.1453Z" fill="#FFFCFF"/>
<path id="Vector (Stroke)_4" fill-rule="evenodd" clip-rule="evenodd" d="M47.5231 36.869C47.3716 36.8404 47.215 36.8576 47.0731 36.9182C46.9313 36.9789 46.8106 37.0804 46.7263 37.2098C46.642 37.3392 46.598 37.4908 46.5997 37.6453C46.6014 37.7998 46.6489 37.9502 46.736 38.0776C46.8232 38.2049 46.9461 38.3035 47.0893 38.3608C47.2324 38.418 47.3893 38.4314 47.5402 38.3992C47.691 38.367 47.8289 38.2907 47.9365 38.1799C48.044 38.0691 48.1164 37.9289 48.1443 37.7769L48.1448 37.7744L48.1448 37.7744C48.1637 37.6741 48.1627 37.5712 48.1418 37.4714C48.1209 37.3716 48.0805 37.277 48.0229 37.1929C47.9654 37.1088 47.8918 37.0369 47.8065 36.9814C47.7212 36.9259 47.6257 36.8879 47.5256 36.8695L47.5231 36.869L47.5231 36.869ZM47.747 35.6744C47.36 35.6017 46.96 35.6456 46.5977 35.8006C46.2349 35.9558 45.9263 36.2153 45.7107 36.5462C45.4952 36.8772 45.3825 37.2648 45.387 37.6598C45.3914 38.0549 45.5127 38.4396 45.7356 38.7653C45.9585 39.0911 46.2729 39.3431 46.639 39.4895C47.0051 39.6359 47.4063 39.6701 47.792 39.5878C48.1777 39.5054 48.5304 39.3103 48.8054 39.027C49.0802 38.744 49.2651 38.3859 49.3368 37.9978" fill="#FFFCFF"/>
<path id="Vector (Stroke)_5" fill-rule="evenodd" clip-rule="evenodd" d="M49.0856 28.3963C48.9341 28.3678 48.7775 28.3849 48.6356 28.4456C48.4938 28.5062 48.3731 28.6077 48.2888 28.7371C48.2045 28.8666 48.1605 29.0181 48.1622 29.1726C48.1639 29.3271 48.2114 29.4776 48.2985 29.6049C48.3857 29.7323 48.5086 29.8308 48.6518 29.8881C48.7949 29.9453 48.9518 29.9587 49.1027 29.9265C49.2535 29.8943 49.3914 29.818 49.499 29.7072C49.6065 29.5965 49.6789 29.4562 49.7068 29.3043L49.7073 29.3017L49.7073 29.3017C49.7262 29.2015 49.7252 29.0985 49.7043 28.9987C49.6834 28.899 49.643 28.8043 49.5854 28.7202C49.5279 28.6361 49.4543 28.5643 49.369 28.5088C49.2837 28.4533 49.1882 28.4152 49.0881 28.3968L49.0856 28.3963L49.0856 28.3963ZM49.3095 27.2018C48.9225 27.129 48.5225 27.1729 48.1602 27.3279C47.7974 27.4831 47.4888 27.7426 47.2732 28.0736C47.0577 28.4046 46.945 28.7922 46.9495 29.1872C46.9539 29.5822 47.0752 29.9669 47.2981 30.2927C47.521 30.6184 47.8354 30.8704 48.2015 31.0168C48.5676 31.1633 48.9688 31.1975 49.3545 31.1151C49.7402 31.0328 50.0929 30.8376 50.3679 30.5543C50.6427 30.2714 50.8276 29.9132 50.8993 29.5251" fill="#FFFCFF"/>
<path id="Vector (Stroke)_6" fill-rule="evenodd" clip-rule="evenodd" d="M56.9417 29.843C56.7902 29.8151 56.6338 29.8328 56.4923 29.894C56.3509 29.9551 56.2306 30.0569 56.1468 30.1865C56.063 30.3161 56.0195 30.4677 56.0216 30.622C56.0237 30.7763 56.0715 30.9265 56.1589 31.0536C56.2462 31.1806 56.3692 31.2789 56.5123 31.3358C56.6555 31.3928 56.8122 31.406 56.9629 31.3736C57.1135 31.3413 57.2513 31.2649 57.3587 31.1542C57.4661 31.0435 57.5383 30.9034 57.5662 30.7515C57.5848 30.6507 57.5834 30.5473 57.562 30.4471C57.5407 30.3468 57.4998 30.2519 57.4418 30.1675C57.3839 30.0831 57.3098 30.011 57.224 29.9554C57.1382 29.8997 57.0422 29.8615 56.9417 29.843ZM56.0127 28.7782C56.3745 28.6218 56.7744 28.5764 57.1617 28.6477C57.419 28.6951 57.6643 28.7927 57.8837 28.9351C58.1032 29.0775 58.2925 29.2618 58.4408 29.4776C58.5891 29.6933 58.6936 29.9363 58.7481 30.1925C58.8027 30.4488 58.8064 30.7133 58.7589 30.9711C58.6875 31.3593 58.5028 31.7177 58.2281 32.0008C57.9535 32.284 57.6012 32.4793 57.216 32.5619C56.8308 32.6446 56.4298 32.611 56.0638 32.4653C55.6978 32.3196 55.3833 32.0684 55.1599 31.7435C54.9365 31.4186 54.8144 31.0345 54.8089 30.6398C54.8034 30.2451 54.9149 29.8576 55.1292 29.5263C55.3434 29.1949 55.6509 28.9346 56.0127 28.7782Z" fill="#FFFCFF"/>
<path id="Vector (Stroke)_7" fill-rule="evenodd" clip-rule="evenodd" d="M54.2776 44.3332C54.1261 44.3053 53.9698 44.3231 53.8283 44.3842C53.6868 44.4454 53.5666 44.5472 53.4828 44.6768C53.399 44.8064 53.3554 44.9579 53.3575 45.1122C53.3597 45.2665 53.4074 45.4167 53.4948 45.5438C53.5822 45.6709 53.7052 45.7691 53.8483 45.8261C53.9914 45.883 54.1482 45.8962 54.2988 45.8638C54.4495 45.8315 54.5872 45.7551 54.6946 45.6444C54.802 45.5337 54.8742 45.3936 54.9022 45.2418C54.9207 45.141 54.9193 45.0375 54.898 44.9373C54.8766 44.8371 54.8358 44.7421 54.7778 44.6577C54.7198 44.5734 54.6458 44.5013 54.5599 44.4456C54.4741 44.3899 54.3782 44.3517 54.2776 44.3332ZM53.3486 43.2684C53.7104 43.112 54.1103 43.0666 54.4977 43.1379C54.7549 43.1853 55.0002 43.2829 55.2197 43.4253C55.4391 43.5677 55.6284 43.752 55.7767 43.9678C55.9251 44.1836 56.0295 44.4265 56.0841 44.6828C56.1387 44.939 56.1423 45.2036 56.0949 45.4613C56.0234 45.8495 55.8387 46.2079 55.5641 46.4911C55.2894 46.7743 54.9372 46.9695 54.5519 47.0522C54.1667 47.1348 53.7658 47.1012 53.3998 46.9555C53.0338 46.8098 52.7192 46.5587 52.4958 46.2337C52.2725 45.9088 52.1503 45.5247 52.1448 45.13C52.1394 44.7353 52.2508 44.3478 52.4651 44.0165C52.6794 43.6851 52.9868 43.4248 53.3486 43.2684Z" fill="#FFFCFF"/>
<path id="Vector (Stroke)_8" fill-rule="evenodd" clip-rule="evenodd" d="M53.1917 50.2336C53.0402 50.2057 52.8838 50.2235 52.7424 50.2846C52.6009 50.3458 52.4806 50.4476 52.3968 50.5772C52.313 50.7068 52.2695 50.8583 52.2716 51.0126C52.2737 51.1669 52.3215 51.3171 52.4089 51.4442C52.4962 51.5713 52.6192 51.6695 52.7623 51.7265C52.9054 51.7834 53.0622 51.7966 53.2129 51.7642C53.3636 51.7319 53.5013 51.6555 53.6087 51.5448C53.7161 51.4341 53.7883 51.294 53.8162 51.1421C53.8348 51.0414 53.8334 50.9379 53.812 50.8377C53.7907 50.7375 53.7498 50.6425 53.6918 50.5581C53.6339 50.4738 53.5598 50.4017 53.474 50.346C53.3882 50.2903 53.2922 50.2521 53.1917 50.2336ZM52.2627 49.1688C52.6245 49.0124 53.0244 48.967 53.4117 49.0383C53.669 49.0857 53.9143 49.1833 54.1337 49.3257C54.3532 49.4681 54.5425 49.6524 54.6908 49.8682C54.8391 50.084 54.9436 50.3269 54.9981 50.5832C55.0527 50.8394 55.0564 51.104 55.0089 51.3617C54.9375 51.7499 54.7528 52.1083 54.4781 52.3915C54.2035 52.6747 53.8512 52.8699 53.466 52.9526C53.0808 53.0352 52.6798 53.0016 52.3138 52.8559C51.9478 52.7102 51.6333 52.4591 51.4099 52.1341C51.1865 51.8092 51.0644 51.4251 51.0589 51.0304C51.0534 50.6357 51.1649 50.2482 51.3792 49.9169C51.5934 49.5855 51.9009 49.3252 52.2627 49.1688Z" fill="#FFFCFF"/>
<path id="Vector (Stroke)_9" fill-rule="evenodd" clip-rule="evenodd" d="M47.4807 49.1828C47.3292 49.1549 47.1729 49.1727 47.0314 49.2338C46.8899 49.295 46.7697 49.3968 46.6859 49.5264C46.6021 49.6559 46.5585 49.8075 46.5607 49.9618C46.5628 50.1162 46.6106 50.2664 46.6979 50.3934C46.7852 50.5205 46.9083 50.6187 47.0514 50.6757C47.1945 50.7326 47.3513 50.7458 47.502 50.7135C47.6526 50.6811 47.7903 50.6048 47.8977 50.494C48.0051 50.3833 48.0774 50.2432 48.1053 50.0914C48.1428 49.8878 48.098 49.6777 47.9809 49.5073C47.8637 49.3369 47.6838 49.2202 47.4807 49.1828ZM46.5517 48.118C46.9135 47.9616 47.3134 47.9162 47.7008 47.9875C48.2202 48.0832 48.6803 48.3817 48.9798 48.8174C49.2794 49.2531 49.3939 49.7903 49.298 50.311C49.2265 50.6992 49.0418 51.0575 48.7671 51.3407C48.4925 51.6238 48.1403 51.8191 47.7551 51.9018C47.3698 51.9845 46.9689 51.9508 46.6029 51.8051C46.2369 51.6595 45.9223 51.4083 45.6989 51.0833C45.4755 50.7584 45.3534 50.3743 45.348 49.9797C45.3425 49.585 45.4539 49.1975 45.6682 48.8661C45.8825 48.5347 46.1899 48.2744 46.5517 48.118Z" fill="#FFFCFF"/>
<path id="Vector (Stroke)_10" fill-rule="evenodd" clip-rule="evenodd" d="M36.1682 47.1008C36.0167 47.0729 35.8604 47.0907 35.7189 47.1518C35.5774 47.2129 35.4572 47.3148 35.3734 47.4443C35.2896 47.5739 35.246 47.7255 35.2482 47.8798C35.2503 48.0341 35.2981 48.1843 35.3854 48.3114C35.4728 48.4384 35.5958 48.5367 35.7389 48.5936C35.882 48.6506 36.0388 48.6638 36.1895 48.6314C36.3401 48.5991 36.4778 48.5227 36.5852 48.412C36.6926 48.3013 36.7649 48.1612 36.7928 48.0093C36.8303 47.8058 36.7855 47.5957 36.6684 47.4253C36.5513 47.2549 36.3714 47.1382 36.1682 47.1008ZM35.2392 46.036C35.601 45.8796 36.0009 45.8342 36.3883 45.9055C36.9077 46.0011 37.3678 46.2997 37.6674 46.7354C37.9669 47.1711 38.0813 47.7083 37.9855 48.2289C37.914 48.6171 37.7293 48.9755 37.4547 49.2587C37.18 49.5418 36.8278 49.7371 36.4426 49.8197C36.0573 49.9024 35.6564 49.8688 35.2904 49.7231C34.9244 49.5774 34.6098 49.3263 34.3864 49.0013C34.1631 48.6764 34.0409 48.2923 34.0355 47.8976C34.03 47.5029 34.1414 47.1154 34.3557 46.7841C34.57 46.4527 34.8774 46.1924 35.2392 46.036Z" fill="#FFFCFF"/>
<path id="Vector (Stroke)_11" fill-rule="evenodd" clip-rule="evenodd" d="M41.6201 42.0029C41.469 41.9753 41.3131 41.9932 41.172 42.0541C41.0305 42.1153 40.9103 42.2171 40.8265 42.3467C40.7427 42.4763 40.6991 42.6278 40.7013 42.7821C40.7034 42.9364 40.7512 43.0866 40.8386 43.2137C40.9259 43.3408 41.0489 43.439 41.192 43.496C41.3351 43.5529 41.4919 43.5661 41.6426 43.5338C41.7932 43.5014 41.931 43.4251 42.0384 43.3144C42.1455 43.2039 42.2176 43.0643 42.2457 42.913C42.282 42.7092 42.2366 42.4994 42.1195 42.329C42.0024 42.1587 41.8229 42.0415 41.6201 42.0029ZM40.6924 40.9383C41.0542 40.7819 41.4541 40.7365 41.8414 40.8079L41.844 40.8083L41.844 40.8083C42.3616 40.9059 42.8197 41.2045 43.1185 41.6391C43.4173 42.0737 43.5325 42.6091 43.4391 43.1287L43.4386 43.1313C43.3672 43.5195 43.1824 43.8778 42.9078 44.161C42.6332 44.4441 42.281 44.6394 41.8957 44.7221C41.5105 44.8048 41.1095 44.7711 40.7435 44.6254C40.3775 44.4798 40.063 44.2286 39.8396 43.9036C39.6162 43.5787 39.4941 43.1946 39.4886 42.8C39.4831 42.4053 39.5946 42.0178 39.8088 41.6864C40.0231 41.355 40.3306 41.0947 40.6924 40.9383Z" fill="#FFFCFF"/>
<path id="Vector (Stroke)_12" fill-rule="evenodd" clip-rule="evenodd" d="M42.2415 42.9121C42.3023 42.582 42.6186 42.3636 42.9479 42.4242L52.887 44.2541C53.2164 44.3147 53.4341 44.6314 53.3733 44.9615C53.3126 45.2916 52.9963 45.51 52.667 45.4494L42.7279 43.6195C42.3985 43.5589 42.1808 43.2422 42.2415 42.9121Z" fill="#FFFCFF"/>
<path id="Vector (Stroke)_13" fill-rule="evenodd" clip-rule="evenodd" d="M32.4056 41.0996C32.4664 40.7695 32.7826 40.5511 33.112 40.6117L40.2272 41.9217C40.5566 41.9823 40.7743 42.2991 40.7135 42.6291C40.6528 42.9592 40.3365 43.1776 40.0072 43.117L32.8919 41.807C32.5626 41.7464 32.3448 41.4297 32.4056 41.0996Z" fill="#FFFCFF"/>
<path id="Vector (Stroke)_14" fill-rule="evenodd" clip-rule="evenodd" d="M56.6667 31.3852C56.996 31.4458 57.2137 31.7625 57.153 32.0926L54.9891 43.8462C54.9283 44.1762 54.6121 44.3946 54.2827 44.334C53.9534 44.2734 53.7356 43.9566 53.7964 43.6266L55.9603 31.873C56.0211 31.543 56.3373 31.3245 56.6667 31.3852Z" fill="#FFFCFF"/>
<path id="Vector (Stroke)_15" fill-rule="evenodd" clip-rule="evenodd" d="M48.7995 29.9379C49.1288 29.9986 49.3466 30.3153 49.2858 30.6453L48.2287 36.3874C48.1679 36.7174 47.8516 36.9358 47.5223 36.8752C47.1929 36.8146 46.9752 36.4978 47.036 36.1678L48.0931 30.4258C48.1539 30.0957 48.4701 29.8773 48.7995 29.9379Z" fill="#FFFCFF"/>
<path id="Vector (Stroke)_16" fill-rule="evenodd" clip-rule="evenodd" d="M40.2884 27.5762C40.3492 27.2461 40.6654 27.0277 40.9948 27.0883L47.6949 28.3218C48.0243 28.3825 48.242 28.6992 48.1812 29.0293C48.1205 29.3593 47.8042 29.5777 47.4749 29.5171L40.7747 28.2836C40.4454 28.2229 40.2276 27.9062 40.2884 27.5762Z" fill="#FFFCFF"/>
<path id="Vector (Stroke)_17" fill-rule="evenodd" clip-rule="evenodd" d="M54.6556 38.9805C54.7164 38.6504 55.0326 38.432 55.362 38.4926L62.0446 39.7229C62.3739 39.7835 62.5917 40.1003 62.5309 40.4303C62.4701 40.7604 62.1539 40.9788 61.8245 40.9182L55.1419 39.6879C54.8126 39.6272 54.5948 39.3105 54.6556 38.9805Z" fill="#FFFCFF"/>
<path id="Vector (Stroke)_18" fill-rule="evenodd" clip-rule="evenodd" d="M47.1979 50.7231C47.5273 50.7837 47.745 51.1004 47.6842 51.4305L47.2603 53.7332C47.1995 54.0632 46.8833 54.2816 46.5539 54.221C46.2246 54.1604 46.0068 53.8437 46.0676 53.5136L46.4915 51.2109C46.5523 50.8809 46.8686 50.6624 47.1979 50.7231Z" fill="#FFFCFF"/>
<path id="Vector (Stroke)_19" fill-rule="evenodd" clip-rule="evenodd" d="M48.5338 43.4516C48.8632 43.5122 49.0809 43.8289 49.0202 44.159L48.1842 48.6999C48.1234 49.03 47.8071 49.2484 47.4778 49.1877C47.1484 49.1271 46.9307 48.8104 46.9915 48.4803L47.8275 43.9394C47.8882 43.6094 48.2045 43.391 48.5338 43.4516Z" fill="#FFFCFF"/>
<path id="Vector (Stroke)_20" fill-rule="evenodd" clip-rule="evenodd" d="M36.7962 48.0137C36.857 47.6836 37.1732 47.4652 37.5026 47.5258L46.0853 49.1059C46.4147 49.1666 46.6324 49.4833 46.5716 49.8134C46.5109 50.1434 46.1946 50.3618 45.8653 50.3012L37.2825 48.7211C36.9532 48.6604 36.7355 48.3437 36.7962 48.0137Z" fill="#FFFCFF"/>
<path id="Vector (Stroke)_21" fill-rule="evenodd" clip-rule="evenodd" d="M37.2292 41.3696C37.5585 41.4302 37.7762 41.7469 37.7155 42.077L36.8795 46.6179C36.8187 46.9479 36.5025 47.1664 36.1731 47.1057C35.8438 47.0451 35.626 46.7284 35.6868 46.3983L36.5228 41.8574C36.5836 41.5273 36.8998 41.3089 37.2292 41.3696Z" fill="#FFFCFF"/>
<path id="Vector (Stroke)_22" fill-rule="evenodd" clip-rule="evenodd" d="M47.5697 33.2969C47.6304 32.9668 47.9467 32.7484 48.276 32.809L56.1396 34.2567C56.469 34.3174 56.6867 34.6341 56.626 34.9642C56.5652 35.2942 56.2489 35.5126 55.9196 35.452L48.056 34.0043C47.7266 33.9437 47.5089 33.6269 47.5697 33.2969Z" fill="#FFFCFF"/>
<path id="Vector (Stroke)_23" fill-rule="evenodd" clip-rule="evenodd" d="M47.2448 38.4106C47.5741 38.4712 47.7919 38.7879 47.7311 39.118L46.8757 43.7643C46.8149 44.0944 46.4987 44.3128 46.1693 44.2522C45.84 44.1916 45.6222 43.8748 45.683 43.5448L46.5384 38.8984C46.5992 38.5684 46.9154 38.3499 47.2448 38.4106Z" fill="#FFFCFF"/>
<path id="Vector (Stroke)_24" fill-rule="evenodd" clip-rule="evenodd" d="M34.0931 31.9121C34.1539 31.582 34.4701 31.3636 34.7995 31.4242L38.6523 32.1336C38.9817 32.1942 39.1994 32.5109 39.1387 32.841C39.0779 33.1711 38.7616 33.3895 38.4323 33.3289L34.5794 32.6195C34.2501 32.5589 34.0323 32.2422 34.0931 31.9121Z" fill="#FFFCFF"/>
<path id="Vector (Stroke)_25" fill-rule="evenodd" clip-rule="evenodd" d="M57.5775 30.7597C57.6382 30.4297 57.9545 30.2113 58.2838 30.2719L63.6042 31.2514C63.9336 31.312 64.1513 31.6288 64.0905 31.9588C64.0298 32.2889 63.7135 32.5073 63.3841 32.4467L58.0638 31.4672C57.7344 31.4065 57.5167 31.0898 57.5775 30.7597Z" fill="#FFFCFF"/>
<path id="Vector (Stroke)_26" fill-rule="evenodd" clip-rule="evenodd" d="M39.7682 33.7504C40.0976 33.8111 40.3153 34.1278 40.2545 34.4578L38.8145 42.2799C38.7537 42.6099 38.4374 42.8284 38.1081 42.7677C37.7787 42.7071 37.561 42.3904 37.6218 42.0603L39.0618 34.2383C39.1226 33.9082 39.4389 33.6898 39.7682 33.7504Z" fill="#FFFCFF"/>
<path id="Vector (Stroke)_27" fill-rule="evenodd" clip-rule="evenodd" d="M49.7604 24.7465C50.0898 24.8071 50.3075 25.1239 50.2467 25.4539L49.7937 27.9148C49.7329 28.2449 49.4166 28.4633 49.0873 28.4026C48.7579 28.342 48.5402 28.0253 48.601 27.6952L49.054 25.2344C49.1148 24.9043 49.4311 24.6859 49.7604 24.7465Z" fill="#FFFCFF"/>
<path id="Vector (Stroke)_28" fill-rule="evenodd" clip-rule="evenodd" d="M35.8854 48.641C36.2148 48.7017 36.4325 49.0184 36.3717 49.3485L35.9478 51.6511C35.887 51.9812 35.5708 52.1996 35.2414 52.139C34.9121 52.0783 34.6943 51.7616 34.7551 51.4316L35.179 49.1289C35.2398 48.7988 35.5561 48.5804 35.8854 48.641Z" fill="#FFFCFF"/>
<path id="Vector (Stroke)_29" fill-rule="evenodd" clip-rule="evenodd" d="M57.6198 26.1938C57.9491 26.2544 58.1669 26.5711 58.1061 26.9012L57.653 29.3621C57.5923 29.6921 57.276 29.9106 56.9467 29.8499C56.6173 29.7893 56.3996 29.4726 56.4604 29.1425L56.9134 26.6816C56.9742 26.3516 57.2904 26.1331 57.6198 26.1938Z" fill="#FFFCFF"/>
<path id="Vector (Stroke)_30" fill-rule="evenodd" clip-rule="evenodd" d="M53.8197 51.1484C53.8804 50.8184 54.1967 50.5999 54.526 50.6606L59.8464 51.6401C60.1757 51.7007 60.3935 52.0174 60.3327 52.3475C60.2719 52.6776 59.9557 52.896 59.6263 52.8354L54.306 51.8558C53.9766 51.7952 53.7589 51.4785 53.8197 51.1484Z" fill="#FFFCFF"/>
<path id="Vector (Stroke)_31" fill-rule="evenodd" clip-rule="evenodd" d="M54.0026 45.8696C54.332 45.9302 54.5497 46.2469 54.4889 46.577L53.9043 49.7527C53.8435 50.0827 53.5272 50.3012 53.1979 50.2405C52.8685 50.1799 52.6508 49.8632 52.7116 49.5331L53.2962 46.3574C53.357 46.0273 53.6732 45.8089 54.0026 45.8696Z" fill="#FFFCFF"/>
<path id="Vector (Stroke)_32" fill-rule="evenodd" clip-rule="evenodd" d="M59.3776 39.2328C59.707 39.2935 59.9247 39.6102 59.8639 39.9403L57.6698 51.8579C57.6091 52.1879 57.2928 52.4064 56.9634 52.3457C56.6341 52.2851 56.4164 51.9684 56.4771 51.6383L58.6712 39.7207C58.732 39.3906 59.0482 39.1722 59.3776 39.2328Z" fill="#FFFCFF"/>
<path id="Vector (Stroke)_33" fill-rule="evenodd" clip-rule="evenodd" d="M38.7259 36.0488C38.7867 35.7187 39.1029 35.5003 39.4323 35.561L46.1324 36.7945C46.4618 36.8551 46.6795 37.1719 46.6187 37.5019C46.558 37.832 46.2417 38.0504 45.9124 37.9898L39.2122 36.7562C38.8829 36.6956 38.6651 36.3789 38.7259 36.0488Z" fill="#FFFCFF"/>
<path id="Vector (Stroke)_34" fill-rule="evenodd" clip-rule="evenodd" d="M52.9167 51.7758C53.246 51.8364 53.4637 52.1532 53.403 52.4832L52.979 54.7859C52.9183 55.116 52.602 55.3344 52.2727 55.2737C51.9433 55.2131 51.7256 54.8964 51.7864 54.5663L52.2103 52.2637C52.2711 51.9336 52.5873 51.7152 52.9167 51.7758Z" fill="#FFFCFF"/>
</g>
</g>
<g id="Group 1410068489">
<g id="Group 1410068478">
<path id="Vector_41" d="M20.2791 63.3432C20.2615 63.3418 20.2447 63.3354 20.2306 63.3248L19.3418 62.6531L19.2558 63.7638C19.2544 63.7814 19.248 63.7983 19.2374 63.8123L18.5657 64.7012L19.6764 64.7872C19.694 64.7886 19.7108 64.795 19.7249 64.8056L20.6137 65.4773L20.6998 64.3665C20.7012 64.3489 20.7075 64.3321 20.7182 64.3181L21.3899 63.4292L20.2791 63.3432Z" fill="#F6DFE6"/>
<path id="Vector_42" d="M20.2791 63.3432C20.2615 63.3418 20.2447 63.3354 20.2306 63.3248L19.3418 62.6531L19.2558 63.7638C19.2544 63.7814 19.248 63.7983 19.2374 63.8123L18.5657 64.7012L19.6764 64.7872C19.694 64.7886 19.7108 64.795 19.7249 64.8056L20.6137 65.4773L20.6998 64.3665C20.7012 64.3489 20.7075 64.3321 20.7182 64.3181L21.3899 63.4292L20.2791 63.3432Z" fill="white" fill-opacity="0.5"/>
</g>
<g id="Group 1410068479">
<path id="Vector_43" d="M16.6691 43.5874C16.6534 43.5862 16.6384 43.5805 16.6258 43.571L15.8318 42.9709L15.7549 43.9632C15.7537 43.9789 15.748 43.9939 15.7385 44.0065L15.1384 44.8005L16.1307 44.8774C16.1464 44.8786 16.1614 44.8843 16.174 44.8938L16.968 45.4938L17.0449 44.5016C17.0461 44.4859 17.0518 44.4708 17.0613 44.4583L17.6613 43.6643L16.6691 43.5874Z" fill="#F6DFE6"/>
<path id="Vector_44" d="M16.6691 43.5874C16.6534 43.5862 16.6384 43.5805 16.6258 43.571L15.8318 42.9709L15.7549 43.9632C15.7537 43.9789 15.748 43.9939 15.7385 44.0065L15.1384 44.8005L16.1307 44.8774C16.1464 44.8786 16.1614 44.8843 16.174 44.8938L16.968 45.4938L17.0449 44.5016C17.0461 44.4859 17.0518 44.4708 17.0613 44.4583L17.6613 43.6643L16.6691 43.5874Z" fill="white" fill-opacity="0.5"/>
</g>
<g id="Group 1410068481">
<path id="Vector_45" d="M75.0755 23.7163C75.0598 23.7151 75.0448 23.7094 75.0322 23.6999L74.2381 23.0998L74.1613 24.0921C74.16 24.1078 74.1543 24.1229 74.1448 24.1354L73.5447 24.9295L74.5371 25.0064C74.5528 25.0076 74.5678 25.0133 74.5804 25.0228L75.3744 25.6229L75.4513 24.6306C75.4525 24.6148 75.4582 24.5998 75.4677 24.5872L76.0678 23.7932L75.0755 23.7163Z" fill="#F6DFE6"/>
<path id="Vector_46" d="M75.0755 23.7163C75.0598 23.7151 75.0448 23.7094 75.0322 23.6999L74.2381 23.0998L74.1613 24.0921C74.16 24.1078 74.1543 24.1229 74.1448 24.1354L73.5447 24.9295L74.5371 25.0064C74.5528 25.0076 74.5678 25.0133 74.5804 25.0228L75.3744 25.6229L75.4513 24.6306C75.4525 24.6148 75.4582 24.5998 75.4677 24.5872L76.0678 23.7932L75.0755 23.7163Z" fill="white" fill-opacity="0.5"/>
</g>
<g id="Group 1410068482">
<path id="Vector_47" d="M61.4525 10.8657C61.446 10.8652 61.4398 10.8628 61.4346 10.8589L61.1068 10.6111L61.075 11.0208C61.0745 11.0273 61.0722 11.0335 61.0683 11.0387L60.8205 11.3665L61.2302 11.3983C61.2367 11.3988 61.2429 11.4011 61.2481 11.405L61.5759 11.6528L61.6076 11.2431C61.6081 11.2366 61.6105 11.2304 61.6144 11.2252L61.8622 10.8974L61.4525 10.8657Z" fill="#F6DFE6"/>
<path id="Vector_48" d="M61.4525 10.8657C61.446 10.8652 61.4398 10.8628 61.4346 10.8589L61.1068 10.6111L61.075 11.0208C61.0745 11.0273 61.0722 11.0335 61.0683 11.0387L60.8205 11.3665L61.2302 11.3983C61.2367 11.3988 61.2429 11.4011 61.2481 11.405L61.5759 11.6528L61.6076 11.2431C61.6081 11.2366 61.6105 11.2304 61.6144 11.2252L61.8622 10.8974L61.4525 10.8657Z" fill="white" fill-opacity="0.5"/>
</g>
<path id="Subtract" fill-rule="evenodd" clip-rule="evenodd" d="M13.9931 57.5364C13.0658 55.5861 13.5476 53.0675 15.2734 50.2335C16.9944 47.4072 19.9235 44.3192 23.7783 41.273L23.4874 40.9074C19.6085 43.9727 16.6347 47.0997 14.8752 49.989C13.1205 52.8706 12.5443 55.5683 13.5732 57.7322C14.3709 59.4123 16.0375 60.5585 18.3091 61.2174C20.5814 61.8764 23.4876 62.0574 26.8221 61.7874C33.4931 61.2473 41.9299 58.8977 50.5556 54.8726C59.1813 50.8476 66.3828 45.9018 71.0519 41.1514C73.3857 38.7769 75.0959 36.442 76.0303 34.2864C76.9645 32.1313 77.1341 30.1275 76.3351 28.4465C75.9463 27.6292 75.2202 26.9555 74.2777 26.4099C74.0024 26.2506 73.7073 26.1013 73.3948 25.962L73.3497 26.4502C73.5958 26.5645 73.8288 26.6849 74.0475 26.8115C74.9406 27.3285 75.5812 27.9402 75.9153 28.6425C76.6352 30.1574 76.5074 32.0121 75.6031 34.0981C74.6991 36.1835 73.0298 38.4723 70.7183 40.8241C66.0967 45.5262 58.9444 50.4431 50.3552 54.4512C41.766 58.4592 33.3831 60.7895 26.7799 61.3242C23.4774 61.5916 20.6329 61.4087 18.4347 60.7711C16.2357 60.1333 14.7119 59.05 13.9931 57.5364Z" fill="url(#paint9_linear_5346_155645)"/>
</g>
</g>
</g>
<defs>
<linearGradient id="paint0_linear_5346_155645" x1="179.985" y1="72.5324" x2="181.788" y2="73.6911" gradientUnits="userSpaceOnUse">
<stop offset="9.53674e-08" stop-color="#E9F3FF" stop-opacity="0"/>
<stop offset="1" stop-color="white"/>
</linearGradient>
<linearGradient id="paint1_linear_5346_155645" x1="153.875" y1="82.989" x2="153.361" y2="85.2852" gradientUnits="userSpaceOnUse">
<stop offset="9.53674e-08" stop-color="#E9F3FF" stop-opacity="0"/>
<stop offset="1" stop-color="white"/>
</linearGradient>
<linearGradient id="paint2_linear_5346_155645" x1="178.181" y1="83.4618" x2="178.974" y2="84.8782" gradientUnits="userSpaceOnUse">
<stop offset="9.53674e-08" stop-color="#E9F3FF" stop-opacity="0"/>
<stop offset="1" stop-color="white"/>
</linearGradient>
<linearGradient id="paint3_linear_5346_155645" x1="78.0001" y1="6.65585" x2="89.9999" y2="6.34415" gradientUnits="userSpaceOnUse">
<stop stop-color="#33CD07"/>
<stop offset="1" stop-color="#BAEE5B"/>
</linearGradient>
<linearGradient id="paint4_linear_5346_155645" x1="84.625" y1="12.9224" x2="89.8898" y2="12.7603" gradientUnits="userSpaceOnUse">
<stop stop-color="#33CD07"/>
<stop offset="1" stop-color="#BAEE5B"/>
</linearGradient>
<linearGradient id="paint5_linear_5346_155645" x1="3.05855e-05" y1="15.2251" x2="5.82557" y2="15.0461" gradientUnits="userSpaceOnUse">
<stop stop-color="#33CD07"/>
<stop offset="1" stop-color="#BAEE5B"/>
</linearGradient>
<linearGradient id="paint6_linear_5346_155645" x1="9.87502" y1="5.68022" x2="12.7785" y2="5.59265" gradientUnits="userSpaceOnUse">
<stop stop-color="#33CD07"/>
<stop offset="1" stop-color="#BAEE5B"/>
</linearGradient>
<linearGradient id="paint7_linear_5346_155645" x1="1.00006" y1="27.6558" x2="12.9999" y2="27.3442" gradientUnits="userSpaceOnUse">
<stop stop-color="#33CD07"/>
<stop offset="1" stop-color="#BAEE5B"/>
</linearGradient>
<linearGradient id="paint8_linear_5346_155645" x1="179.978" y1="51.5034" x2="184.076" y2="50.1089" gradientUnits="userSpaceOnUse">
<stop offset="9.53674e-08" stop-color="#E9F3FF" stop-opacity="0"/>
<stop offset="1" stop-color="white"/>
</linearGradient>
<linearGradient id="paint9_linear_5346_155645" x1="53.1248" y1="78.2274" x2="28.8562" y2="30.9037" gradientUnits="userSpaceOnUse">
<stop stop-color="#F4F5F4"/>
<stop offset="1" stop-color="#C9C9C9" stop-opacity="0"/>
</linearGradient>
<clipPath id="clip0_5346_155645">
<rect width="55.9524" height="58.3852" fill="white" transform="translate(25.0859 4.24219) rotate(10.4316)"/>
</clipPath>
</defs>
</svg>
