<svg width="90" height="86" viewBox="0 0 90 86" fill="none" xmlns="http://www.w3.org/2000/svg">
<g id="Level up">
<g id="Group" opacity="0.64">
<path id="Vector" d="M61.7719 55.1656C61.598 55.336 61.7086 55.6184 61.9592 55.6439L62.5169 55.7001C62.6166 55.7103 62.7042 55.7654 62.7519 55.8475L63.0181 56.3082C63.1381 56.5155 63.4601 56.5045 63.5633 56.29L63.7932 55.8124C63.8338 55.7271 63.9175 55.6662 64.0156 55.6494L64.5675 55.5553C64.8153 55.5129 64.9036 55.2236 64.7172 55.0657L64.3013 54.7143C64.2274 54.6516 64.1911 54.5586 64.2044 54.4663L64.279 53.9475C64.3126 53.714 64.0449 53.5462 63.8264 53.6633L63.3397 53.9234C63.253 53.9701 63.147 53.9737 63.0568 53.9332L62.5514 53.7067C62.3239 53.6049 62.0702 53.7902 62.1218 54.0204L62.2367 54.533C62.2574 54.6242 62.2281 54.7194 62.1593 54.7869L61.7719 55.1656Z" fill="url(#paint0_linear_5280_127978)"/>
</g>
<g id="Group_2" opacity="0.64">
<path id="Vector_2" d="M33.1618 54.4517C33.1036 54.5101 33.0187 54.5378 32.9343 54.5265L32.4614 54.4619C32.2487 54.4331 32.0928 54.6444 32.1975 54.8191L32.4305 55.2087C32.4719 55.2784 32.4743 55.3623 32.4363 55.4338L32.2249 55.8337C32.1295 56.0135 32.2964 56.2167 32.5071 56.1781L32.9761 56.0916C33.0598 56.0763 33.1462 56.1004 33.2072 56.1558L33.5492 56.4674C33.7028 56.6075 33.9619 56.5221 33.9873 56.3233L34.0444 55.8804C34.0546 55.8012 34.1058 55.7319 34.1812 55.695L34.6045 55.4875C34.7945 55.3944 34.7879 55.1383 34.5928 55.0541L34.1589 54.8665C34.0815 54.8333 34.0268 54.7662 34.0124 54.6878L33.9318 54.2482C33.8959 54.0508 33.6324 53.9775 33.4866 54.1245L33.1618 54.4517Z" fill="url(#paint1_linear_5280_127978)"/>
</g>
<g id="Group_3" opacity="0.64">
<path id="Vector_3" d="M56.6522 63.5221L56.4892 63.2503C56.4157 63.1284 56.2246 63.1375 56.1652 63.2663L56.0335 63.552C56.01 63.603 55.9612 63.6399 55.9025 63.6508L55.5754 63.7118C55.4284 63.7391 55.3787 63.9117 55.4913 64.004L55.7423 64.2094C55.7868 64.2459 55.8095 64.301 55.8025 64.356L55.7634 64.665C55.7458 64.804 55.9064 64.9015 56.035 64.8299L56.3219 64.6713C56.3731 64.6428 56.4361 64.6395 56.49 64.6629L56.7929 64.7931C56.929 64.8518 57.0779 64.7391 57.0451 64.6027L56.9716 64.2991C56.9583 64.2448 56.9747 64.1882 57.015 64.1474L57.2417 63.9186C57.3433 63.8161 57.2745 63.649 57.1252 63.6362L56.7933 63.6074C56.7339 63.6023 56.6811 63.5706 56.6522 63.5221Z" fill="url(#paint2_linear_5280_127978)"/>
</g>
<path id="Vector_4" d="M83.9515 0L82.6829 5.17885L78 6.55323L82.6829 7.92696L83.9515 13L85.3175 7.92696L90 6.55323L85.3175 5.17885L83.9515 0Z" fill="url(#paint3_linear_5280_127978)"/>
<path id="Vector_5" d="M87.202 15.2705L87.7622 13.2833L89.8913 12.8644L87.7622 12.4461L87.202 10.459L86.7541 12.4461L84.625 12.8644L86.7541 13.2833L87.202 15.2705Z" fill="url(#paint4_linear_5280_127978)"/>
<path id="Vector_6" d="M5.82718 15.2135L3.47411 14.6907L2.91399 12.4941L2.35346 14.6907L0 15.2135L2.35346 15.7367L2.91399 17.8282L3.47411 15.7367L5.82718 15.2135Z" fill="url(#paint5_linear_5280_127978)"/>
<path id="Vector_7" d="M12.7792 5.64756C12.7792 4.89931 12.1292 4.29297 11.3275 4.29297C10.5258 4.29297 9.875 4.89931 9.875 5.64756C9.875 6.39618 10.5258 7.00252 11.3275 7.00252C12.1292 7.00252 12.7792 6.39618 12.7792 5.64756Z" fill="url(#paint6_linear_5280_127978)"/>
<path id="Vector_8" d="M5.83612 26.3526L1 27.6913L5.83612 28.6474L6.91107 34L8.16389 28.6474L13 27.6913L8.16389 26.3526L6.91107 21L5.83612 26.3526Z" fill="url(#paint7_linear_5280_127978)"/>
<path id="Vector_9" d="M74.284 36.7728C74.6984 36.9363 75.1338 36.5849 75.0205 36.1787L74.7707 35.2812C74.7253 35.12 74.7683 34.9481 74.8856 34.8219L75.5356 34.121C75.8304 33.8033 75.6068 33.3086 75.1577 33.2834L74.166 33.228C73.9878 33.2181 73.8259 33.1269 73.7337 32.9843L73.2201 32.1904C72.9875 31.8307 72.4145 31.8759 72.2499 32.267L71.8872 33.1302C71.8219 33.2856 71.6789 33.4009 71.5049 33.4389L70.5375 33.649C70.0989 33.7442 69.968 34.2674 70.3159 34.534L71.0832 35.1228C71.2211 35.2287 71.2946 35.3914 71.2794 35.5574L71.195 36.4813C71.1566 36.8998 71.6488 37.1774 72.0279 36.9512L72.8652 36.4523C73.0157 36.3626 73.2041 36.3476 73.3686 36.4125L74.284 36.7728Z" fill="url(#paint8_linear_5280_127978)"/>
<g id="GPU">
<g id="Layer_1" clip-path="url(#clip0_5280_127978)">
<path id="Vector_10" d="M30.1562 68.7598L49.035 60.5082L51.3641 65.8369C51.3817 65.8771 51.3824 65.9227 51.3661 65.9637C51.3497 66.0047 51.3177 66.0377 51.2771 66.0555L32.7233 74.165C32.6827 74.1828 32.6367 74.1839 32.5955 74.168C32.5543 74.1522 32.5213 74.1207 32.5037 74.0804L30.1747 68.7517L30.1562 68.7598Z" fill="#DE8833"/>
<path id="Vector_11" d="M68.2207 17.2072L13.7188 41.029C13.0352 41.3278 12.4969 41.8829 12.2224 42.5721C11.9479 43.2613 11.9596 44.0282 12.255 44.704L14.545 49.9433L21.4869 61.9229L78.2857 37.097L74.2105 23.8664L71.9205 18.6271C71.774 18.2916 71.5621 17.9886 71.2967 17.7356C71.0314 17.4825 70.7178 17.2843 70.3741 17.1524C70.0304 17.0205 69.6632 16.9574 69.2937 16.9668C68.9242 16.9762 68.5595 17.0579 68.2207 17.2072Z" fill="#5C5C7A"/>
<path id="Vector_12" d="M81.5873 47.7957L27.0854 71.6175C26.4015 71.916 25.6283 71.9337 24.936 71.6668C24.2437 71.3999 23.6888 70.8702 23.3933 70.1942L21.1033 64.9549L17.0265 51.725L73.8254 26.8992L80.768 38.8765L83.058 44.1158C83.2046 44.4512 83.2829 44.8125 83.2883 45.1791C83.2936 45.5457 83.2261 45.9103 83.0895 46.2521C82.9529 46.5939 82.7499 46.9062 82.4921 47.1711C82.2343 47.436 81.9269 47.6482 81.5873 47.7957Z" fill="#5C5C7A"/>
<path id="Vector_13" d="M64.9354 17.826L45.1212 26.4864L42.5335 29.4159L39.3825 30.7931L35.4764 30.702L15.6622 39.3625L11.4462 47.6711L20.6897 68.8193L29.6514 71.3682L49.4655 62.7077L52.051 59.7775L55.2021 58.4002L59.1104 58.4921L78.9245 49.8317L83.1405 41.5231L79.4677 33.1199L77.5699 28.7781L73.8971 20.3749L64.9354 17.826Z" fill="#8585B0"/>
<path id="Vector_14" opacity="0.4" d="M58.7771 57.7296L54.8694 57.6392L51.7184 59.0164L49.1322 61.9452L29.3181 70.6056L20.3564 68.0567L20.6897 68.8193L29.6514 71.3682L49.4655 62.7077L52.051 59.7775L55.2021 58.4002L59.1104 58.4921L78.9245 49.8317L83.1405 41.5231L82.8072 40.7605L78.5912 49.0692L58.7771 57.7296Z" fill="#C1C1FF"/>
<path id="Vector_15" opacity="0.3" d="M16.7629 51.3913L20.979 43.0826L40.7946 34.4215L44.7014 34.5142L47.8525 33.1369L50.4395 30.2059L70.2536 21.5455L74.9968 22.8958L73.8956 20.3762L64.9339 17.8273L45.1197 26.4877L42.532 29.4172L39.381 30.7944L35.4749 30.7033L15.6607 39.3637L11.4447 47.6724L20.6882 68.8205L24.9051 70.0198L16.7629 51.3913Z" fill="#C1C1FF"/>
<path id="Vector_16" opacity="0.4" d="M59.0017 58.2435L55.0941 58.1531L51.943 59.5304L49.3568 62.4591L29.5427 71.1195L20.581 68.5706L20.6897 68.8193L29.6514 71.3682L49.4655 62.7077L52.051 59.7775L55.2021 58.4002L59.1104 58.4921L78.9245 49.8317L83.1405 41.5231L83.0319 41.2744L78.8158 49.5831L59.0017 58.2435Z" fill="#C1C1FF"/>
<path id="Vector_17" d="M64.9387 17.8258L45.1246 26.4862L42.5369 29.4156L39.3858 30.7929L35.4797 30.7018L15.6656 39.3622L11.4496 47.6709L12.3984 49.8418L16.6145 41.5331L36.4286 32.8727L40.3354 32.9653L43.4864 31.5881L46.0735 28.6571L65.8876 19.9967L74.8493 22.5456L73.9004 20.3747L64.9387 17.8258Z" fill="#ACACE3"/>
<path id="Vector_18" opacity="0.3" d="M58.0581 56.0847L54.1498 55.9928L50.9988 57.3701L48.4133 60.3003L28.5991 68.9608L19.6374 66.4119L20.6897 68.8193L29.6514 71.3682L49.4655 62.7077L52.051 59.7775L55.2021 58.4002L59.1104 58.4921L78.9245 49.8317L83.1405 41.5231L82.0883 39.1157L77.8723 47.4243L58.0581 56.0847Z" fill="#555570"/>
<path id="Vector_19" opacity="0.3" d="M45.1209 26.4861L42.5332 29.4155L39.3822 30.7928L35.4761 30.7017L15.6619 39.3621L11.4459 47.6708L16.4062 59.0195L78.8571 31.7233L77.5697 28.7778L73.8968 20.3746L64.9351 17.8257L45.1209 26.4861Z" fill="#C1C1FF"/>
<path id="Vector_20" opacity="0.4" d="M37.8148 40.7627C31.2328 38.2276 23.7813 41.4845 21.1715 48.0371C18.5616 54.5898 21.7816 61.9568 28.3636 64.4919C34.9455 67.027 42.397 63.7701 45.0068 57.2174C47.6167 50.6648 44.3967 43.2977 37.8148 40.7627Z" fill="#3B3B4F"/>
<path id="Vector_21" d="M36.3851 39.5673C29.8031 37.0323 22.3517 40.2892 19.7418 46.8418C17.1319 53.3945 20.3519 60.7615 26.9339 63.2966C33.5158 65.8316 40.9673 62.5747 43.5772 56.0221C46.187 49.4694 42.967 42.1024 36.3851 39.5673Z" fill="#9494C4"/>
<path id="Vector_22" opacity="0.4" d="M36.6403 62.8324C33.5395 64.187 30.0353 64.2766 26.8897 63.0818C23.7441 61.887 21.2113 59.5044 19.842 56.452C19.8592 56.4914 19.8765 56.5308 19.8937 56.5703C21.2679 59.6179 23.8022 61.9948 26.9469 63.1854C30.0915 64.376 33.5929 64.2843 36.6912 62.93C39.7896 61.5758 42.235 59.0683 43.497 55.9516C44.7591 52.8349 44.7358 49.3604 43.4324 46.2819C43.4151 46.2425 43.3979 46.2031 43.3807 46.1637C44.6915 49.2443 44.7188 52.7242 43.4564 55.846C42.194 58.9678 39.7443 61.4788 36.6403 62.8324Z" fill="#C1C1FF"/>
<path id="Vector_23" opacity="0.3" d="M39.9865 41.7084C42.1739 44.086 43.3592 47.2088 43.3012 50.4414C43.2432 53.674 41.9464 56.7736 39.6745 59.1094C37.4027 61.4452 34.3265 62.8418 31.072 63.0149C27.8174 63.1881 24.629 62.1248 22.1556 60.0414C23.3297 61.3229 24.7583 62.3494 26.353 63.0576C27.9477 63.7659 29.6746 64.1406 31.427 64.1588C33.1793 64.177 34.9198 63.8381 36.5407 63.1633C38.1617 62.4884 39.6286 61.4918 40.8508 60.2352C42.073 58.9786 43.0245 57.4887 43.6464 55.8576C44.2682 54.2265 44.5473 52.489 44.4663 50.7524C44.3853 49.0159 43.9459 47.3172 43.1754 45.7616C42.4048 44.206 41.3195 42.8265 39.9865 41.7084Z" fill="#343445"/>
<path id="Vector_24" d="M20.3941 57.1101C19.1995 54.3797 19.015 51.3111 19.8727 48.4422C20.7305 45.5732 22.5759 43.0869 25.0856 41.4189C27.5953 39.7509 30.6091 39.0076 33.5989 39.3193C36.5888 39.631 39.3639 40.9778 41.438 43.1237C40.3322 41.8281 38.9732 40.7685 37.4419 40.008C35.9106 39.2475 34.2382 38.8016 32.5243 38.6969C30.8103 38.5921 29.0897 38.8306 27.4648 39.3981C25.8399 39.9657 24.3439 40.8507 23.0658 42.0006C21.7876 43.1505 20.7533 44.5418 20.0245 46.0917C19.2957 47.6417 18.8872 49.3186 18.8233 51.0228C18.7594 52.727 19.0414 54.4237 19.6526 56.012C20.2637 57.6003 21.1915 59.0477 22.3808 60.2683C21.5645 59.3198 20.895 58.2556 20.3941 57.1101Z" fill="#C1C1FF"/>
<path id="Vector_25" d="M41.1396 46.6562C38.5244 41.4826 32.16 39.4274 26.9241 42.0657C21.6883 44.704 19.5638 51.0369 22.1789 56.2105C24.7941 61.3841 31.1585 63.4393 36.3944 60.801C41.6302 58.1627 43.7547 51.8298 41.1396 46.6562Z" fill="#3B3B4F"/>
<path id="Vector_26" d="M27.2514 42.1693C25.9932 42.7313 24.9431 43.6725 24.2517 44.8581C24.8604 47.3998 26.6034 50.3305 31.2596 51.3396C31.2596 51.3396 29.5885 48.8199 28.9742 44.8867C28.7631 43.5345 28.9621 42.4815 29.3106 41.6702C28.6016 41.7194 27.9052 41.8882 27.2514 42.1693Z" fill="#DE8833"/>
<path id="Vector_27" opacity="0.4" d="M25.2402 45.2087C25.9327 44.0255 26.9814 43.0857 28.2375 42.5228C28.5188 42.4043 28.8087 42.3078 29.1048 42.234C29.159 42.0426 29.2243 41.8543 29.3003 41.6701C28.5914 41.7199 27.8952 41.8892 27.2417 42.1708C25.9835 42.7327 24.9334 43.6739 24.242 44.8596C24.8085 47.2211 26.3575 49.9169 30.3079 51.0955C29.3406 50.7104 28.4511 50.1578 27.6805 49.4633C26.4548 48.3225 25.6048 46.8406 25.2402 45.2087Z" fill="#FFA74F"/>
<path id="Vector_28" opacity="0.3" d="M30.4241 51.1277C30.6919 51.2057 30.9704 51.276 31.2595 51.3386C31.2595 51.3386 29.5884 48.8189 28.9742 44.8857C28.763 43.5335 28.9621 42.4805 29.3106 41.6691C28.8571 41.7102 28.4086 41.7973 27.9723 41.9291C27.1538 46.5372 29.1453 49.6644 30.4241 51.1277Z" fill="#DE6E00"/>
<path id="Vector_29" d="M27.6944 49.7361C25.3888 47.7159 24.4682 44.9873 24.4682 44.9873C24.8093 44.2105 25.3903 43.5599 26.1268 43.1302C26.8633 42.7005 27.7168 42.514 28.5631 42.598C28.5631 42.598 27.8544 42.6478 26.6383 43.2082C25.9221 43.5328 25.348 44.1048 25.0238 44.8167C25.0238 44.8167 25.0397 45.8769 25.8306 47.1725C26.3944 48.067 27.017 48.9234 27.6944 49.7361Z" fill="#FF9C3B"/>
<path id="Vector_30" d="M21.9162 48.0298C21.42 49.307 21.3415 50.7037 21.6919 52.0207C23.9379 53.3737 27.2698 54.2069 31.3084 51.6472C31.3084 51.6472 28.3264 51.0547 25.0808 48.7267C23.9681 47.9274 23.3572 47.0479 23.0268 46.2335C22.5575 46.7665 22.1819 47.3739 21.9162 48.0298Z" fill="#DE8833"/>
<path id="Vector_31" opacity="0.4" d="M22.6536 51.5682C22.3036 50.2511 22.3822 48.8545 22.878 47.5772C22.9951 47.2974 23.1331 47.0264 23.2908 46.7667C23.1924 46.5944 23.1048 46.4162 23.0284 46.2331C22.559 46.7661 22.1835 47.3735 21.9178 48.0294C21.4216 49.3066 21.3431 50.7033 21.6934 52.0204C23.7797 53.2753 26.8057 54.0814 30.4644 52.1356C29.5007 52.5463 28.4728 52.7847 27.4282 52.8398C25.7403 52.9006 24.0771 52.4577 22.6536 51.5682Z" fill="#FFA74F"/>
<path id="Vector_32" opacity="0.3" d="M30.5583 52.0836C30.8035 51.9511 31.0518 51.8047 31.3038 51.6458C31.3038 51.6458 28.3218 51.0533 25.0762 48.7253C23.9635 47.926 23.3526 47.0465 23.0222 46.2321C22.7276 46.5795 22.4699 46.956 22.2531 47.3555C24.9535 51.1605 28.6005 51.9499 30.5583 52.0836Z" fill="#DE6E00"/>
<path id="Vector_33" d="M27.623 53.0247C24.5388 53.2262 21.9395 51.959 21.9395 51.959C21.6291 51.1752 21.5798 50.3113 21.7987 49.4934C22.0177 48.6754 22.4935 47.9459 23.1569 47.4112C23.1569 47.4112 22.6865 47.9436 22.2193 49.1897C21.9385 49.9189 21.9345 50.7225 22.2082 51.4497C22.2082 51.4497 22.9755 52.1815 24.467 52.5353C25.5064 52.7673 26.5607 52.9308 27.623 53.0247Z" fill="#FF9C3B"/>
<path id="Vector_34" d="M22.2854 55.8813C22.8394 57.1247 23.7763 58.1597 24.9624 58.8388C27.529 58.2136 30.4971 56.4594 31.553 51.8305C31.553 51.8305 28.9997 53.5099 25.0322 54.1516C23.6677 54.3725 22.6066 54.1844 21.7934 53.8447C21.8394 54.5474 22.0057 55.2361 22.2854 55.8813Z" fill="#DE8833"/>
<path id="Vector_35" opacity="0.4" d="M25.3327 57.8475C24.1445 57.1693 23.2054 56.1348 22.6488 54.8911C22.5313 54.6132 22.4359 54.3265 22.3635 54.0335C22.1714 53.9816 21.9826 53.9182 21.7984 53.8436C21.8427 54.5467 22.0075 55.2361 22.2858 55.8822C22.8398 57.1256 23.7766 58.1606 24.9628 58.8397C27.3475 58.2579 30.0773 56.6982 31.2996 52.7675C30.9057 53.7313 30.3427 54.6193 29.6371 55.3901C28.4782 56.6153 26.979 57.4712 25.3327 57.8475Z" fill="#FFA74F"/>
<path id="Vector_36" opacity="0.3" d="M31.3372 52.6591C31.418 52.3927 31.4911 52.1157 31.5567 51.8283C31.5567 51.8283 29.0033 53.5077 25.0358 54.1494C23.6713 54.3702 22.6102 54.1822 21.797 53.8425C21.833 54.2924 21.917 54.7368 22.0478 55.1683C26.6835 55.9426 29.8484 53.9328 31.3372 52.6591Z" fill="#DE6E00"/>
<path id="Vector_37" d="M29.9111 55.3812C27.8558 57.6861 25.0983 58.6224 25.0983 58.6224C24.3199 58.2881 23.671 57.7158 23.2454 56.9884C22.8198 56.2611 22.6395 55.4162 22.7307 54.5762C22.7307 54.5762 22.7734 55.2798 23.328 56.4818C23.6495 57.1895 24.2211 57.7544 24.9356 58.0705C24.9356 58.0705 26.0041 58.0459 27.3165 57.2502C28.2211 56.6837 29.0878 56.0594 29.9111 55.3812Z" fill="#FF9C3B"/>
<path id="Vector_38" d="M28.1552 61.126C29.4383 61.6073 30.8451 61.6736 32.1754 61.3152C33.5593 59.0745 34.4253 55.7618 31.8794 51.7756C31.8794 51.7756 31.2582 54.7374 28.884 57.9798C28.0692 59.0907 27.177 59.7027 26.3557 60.0382C26.888 60.5003 27.4965 60.8681 28.1552 61.126Z" fill="#DE8833"/>
<path id="Vector_39" opacity="0.4" d="M31.7199 60.3681C30.3901 60.7262 28.9837 60.6598 27.7012 60.1782C27.4194 60.0651 27.1469 59.9307 26.8862 59.776C26.7123 59.8748 26.5325 59.963 26.3479 60.0402C26.8827 60.5018 27.4939 60.8685 28.1551 61.1246C29.4382 61.6059 30.845 61.6722 32.1753 61.3138C33.4574 59.2331 34.2952 56.2235 32.3648 52.6092C32.771 53.5617 33.0032 54.5796 33.0505 55.6155C33.0963 57.2923 32.6327 58.9482 31.7199 60.3681Z" fill="#FFA74F"/>
<path id="Vector_40" opacity="0.3" d="M32.3077 52.5127C32.1752 52.2709 32.0297 52.0257 31.8712 51.7772C31.8712 51.7772 31.25 54.7391 28.8757 57.9815C28.061 59.0923 27.1694 59.7059 26.3475 60.0399C26.6942 60.3301 27.071 60.583 27.4717 60.7944C31.3305 58.0822 32.1605 54.4531 32.3077 52.5127Z" fill="#DE6E00"/>
<path id="Vector_41" d="M33.227 55.4231C33.4058 58.4813 32.1055 61.072 32.1055 61.072C31.313 61.3865 30.442 61.4427 29.6195 61.2323C28.7969 61.0218 28.0658 60.5557 27.5324 59.9019C27.5324 59.9019 28.0651 60.3643 29.3169 60.8174C30.0494 61.09 30.8593 61.0873 31.5945 60.8096C31.5945 60.8096 32.3384 60.0421 32.7075 58.5591C32.9508 57.5258 33.1243 56.4782 33.227 55.4231Z" fill="#FF9C3B"/>
<path id="Vector_42" d="M36.0605 60.6935C37.3186 60.1309 38.3691 59.1903 39.0624 58.0056C38.4522 55.4646 36.7092 52.5339 32.053 51.5248C32.053 51.5248 33.7242 54.0445 34.3377 57.9762C34.5504 59.3277 34.3505 60.3829 34.0013 61.1927C34.7103 61.1433 35.4067 60.9745 36.0605 60.6935Z" fill="#DE8833"/>
<path id="Vector_43" opacity="0.4" d="M38.0667 57.6536C37.3737 58.8386 36.3231 59.7794 35.0648 60.3415C34.7842 60.4602 34.495 60.557 34.1997 60.6312C34.1452 60.8226 34.0792 61.0106 34.002 61.1943C34.7109 61.1443 35.407 60.975 36.0605 60.6935C37.3186 60.1309 38.3691 59.1903 39.0624 58.0056C38.496 55.6441 36.9469 52.9483 32.9943 51.7688C33.9621 52.1517 34.8525 52.7021 35.6243 53.3945C36.8515 54.5363 37.7023 56.0199 38.0667 57.6536Z" fill="#FFA74F"/>
<path id="Vector_44" opacity="0.3" d="M32.8922 51.7353C32.6251 51.6589 32.3478 51.5886 32.0574 51.526C32.0574 51.526 33.7286 54.0457 34.3421 57.9773C34.5548 59.3289 34.3549 60.3841 34.0057 61.1939C34.4622 61.154 34.9134 61.0657 35.3517 60.9306C36.1647 56.3267 34.1717 53.2001 32.8922 51.7353Z" fill="#DE6E00"/>
<path id="Vector_45" d="M35.6165 53.1304C37.9237 55.15 38.8442 57.8786 38.8442 57.8786C38.5017 58.6546 37.92 59.3044 37.1834 59.7338C36.4468 60.1632 35.5935 60.35 34.7471 60.267C34.7471 60.267 35.4566 60.2188 36.6727 59.6583C37.3888 59.3338 37.963 58.7618 38.2872 58.0498C38.2872 58.0498 38.2713 56.9897 37.4803 55.6941C36.9173 54.799 36.2947 53.9426 35.6165 53.1304Z" fill="#FF9C3B"/>
<path id="Vector_46" d="M41.3981 54.8352C41.8946 53.5581 41.9732 52.1613 41.6225 50.8442C39.3758 49.4897 36.0446 48.6581 32.0059 51.2178C32.0059 51.2178 34.9872 51.8088 38.2335 54.1383C39.3463 54.9376 39.9572 55.8171 40.2869 56.63C40.7577 56.0985 41.1336 55.4914 41.3981 54.8352Z" fill="#DE8833"/>
<path id="Vector_47" opacity="0.4" d="M40.6613 51.2956C41.0129 52.6126 40.9344 54.0096 40.437 55.2866C40.3217 55.5672 40.1844 55.8385 40.0264 56.098C40.1233 56.2704 40.2102 56.4483 40.2866 56.6307C40.7575 56.0992 41.1333 55.4921 41.3979 54.8359C41.8944 53.5588 41.9729 52.162 41.6222 50.845C39.5375 49.5894 36.5099 48.7839 32.8528 50.729C33.8157 50.3183 34.8429 50.0796 35.8868 50.0241C37.5747 49.9632 39.2379 50.4062 40.6613 51.2956Z" fill="#FFA74F"/>
<path id="Vector_48" opacity="0.3" d="M32.7601 50.7739C32.514 50.9085 32.2657 51.055 32.0137 51.2139C32.0137 51.2139 34.9951 51.8049 38.2413 54.1344C39.3541 54.9337 39.965 55.8132 40.2947 56.6261C40.5904 56.2799 40.8484 55.9038 41.0645 55.5042C38.3557 51.701 34.7067 50.9071 32.7601 50.7739Z" fill="#DE6E00"/>
<path id="Vector_49" d="M35.6917 49.8379C38.7759 49.6364 41.3774 50.9044 41.3774 50.9044C41.686 51.6887 41.7342 52.5523 41.515 53.37C41.2959 54.1877 40.8208 54.9172 40.1585 55.4528C40.1585 55.4528 40.6289 54.9204 41.0976 53.6737C41.3777 52.9445 41.3811 52.1412 41.1072 51.4143C41.1072 51.4143 40.3415 50.6819 38.85 50.3281C37.8099 50.0956 36.7548 49.9319 35.6917 49.8379Z" fill="#FF9C3B"/>
<path id="Vector_50" d="M41.0272 46.9813C40.4707 45.7372 39.5309 44.7027 38.3418 44.0255C35.7759 44.6523 32.8078 46.4064 31.7518 51.0353C31.7518 51.0353 34.3052 49.356 38.2742 48.7136C39.638 48.4912 40.6983 48.6815 41.513 49.0205C41.4692 48.3173 41.3049 47.6277 41.0272 46.9813Z" fill="#DE8833"/>
<path id="Vector_51" opacity="0.4" d="M37.9815 45.0171C39.1716 45.6931 40.1122 46.7276 40.6684 47.9722C40.7852 48.2498 40.8799 48.5362 40.9516 48.8288C41.1443 48.8816 41.3337 48.9453 41.5189 49.0196C41.4745 48.3166 41.3097 47.6272 41.0315 46.9811C40.4751 45.737 39.5352 44.7025 38.3462 44.0254C35.9615 44.6072 33.2317 46.1669 32.0115 50.0984C32.4058 49.1345 32.9685 48.2461 33.6734 47.4743C34.8332 46.2483 36.3338 45.3923 37.9815 45.0171Z" fill="#FFA74F"/>
<path id="Vector_52" opacity="0.3" d="M31.9713 50.2045C31.8905 50.471 31.8174 50.7467 31.7518 51.0353C31.7518 51.0353 34.3052 49.356 38.2742 48.7136C39.638 48.4912 40.6983 48.6815 41.513 49.0205C41.4752 48.5682 41.3896 48.1215 41.2574 47.6877C36.6243 46.9195 33.4574 48.9248 31.9713 50.2045Z" fill="#DE6E00"/>
<path id="Vector_53" d="M33.3973 47.4835C35.4519 45.1771 38.2095 44.2409 38.2095 44.2409C38.9894 44.5728 39.6403 45.1439 40.0672 45.8712C40.4941 46.5984 40.6749 47.4438 40.5831 48.2844C40.5831 48.2844 40.5389 47.5815 39.9843 46.3794C39.6632 45.6714 39.0915 45.1065 38.3767 44.7907C38.3767 44.7907 37.3082 44.8154 35.9958 45.6111C35.0893 46.1777 34.2211 46.8033 33.3973 47.4835Z" fill="#FF9C3B"/>
<path id="Vector_54" d="M35.1654 41.7364C33.8827 41.2535 32.4753 41.1872 31.1452 41.5471C29.7614 43.7879 28.8953 47.1005 31.4412 51.0868C31.4412 51.0868 32.0633 48.1227 34.4366 44.8825C35.2514 43.7717 36.143 43.1581 36.9664 42.8234C36.4335 42.3618 35.8244 41.9942 35.1654 41.7364Z" fill="#DE8833"/>
<path id="Vector_55" opacity="0.4" d="M31.5977 42.4965C32.9283 42.1369 34.3359 42.2029 35.6194 42.6851C35.9005 42.7979 36.1722 42.9321 36.4322 43.0864C36.6073 42.9885 36.7878 42.9006 36.9728 42.823C36.4398 42.3614 35.8308 41.9938 35.1717 41.736C33.889 41.2531 32.4817 41.1868 31.1515 41.5467C29.8687 43.6259 29.0316 46.637 30.9614 50.2498C30.5559 49.2975 30.3244 48.2799 30.2778 47.2443C30.2302 45.5703 30.69 43.9164 31.5977 42.4965Z" fill="#FFA74F"/>
<path id="Vector_56" opacity="0.3" d="M31.011 50.3497C31.1431 50.5935 31.2886 50.8386 31.4466 51.0874C31.4466 51.0874 32.0687 48.1233 34.442 44.8831C35.2568 43.7722 36.1484 43.1587 36.9718 42.824C36.6244 42.5342 36.2471 42.2816 35.8461 42.0702C31.9888 44.7817 31.1582 48.4093 31.011 50.3497Z" fill="#DE6E00"/>
<path id="Vector_57" d="M30.0859 47.4414C29.9087 44.3825 31.2063 41.7858 31.2063 41.7858C31.9994 41.4731 32.87 41.4181 33.6923 41.6287C34.5146 41.8393 35.2458 42.3047 35.7801 42.9574C35.7801 42.9574 35.2474 42.495 33.9949 42.0404C33.2624 41.7686 32.4529 41.7719 31.718 42.0497C31.718 42.0497 30.9734 42.8157 30.6044 44.2987C30.3623 45.3344 30.1891 46.3843 30.0859 47.4414Z" fill="#FF9C3B"/>
<path id="Vector_58" opacity="0.4" d="M34.6543 50.8787C34.0505 49.4972 32.4282 48.8724 31.0309 49.4832C29.6336 50.0939 28.9904 51.7089 29.5942 53.0904C30.198 54.4719 31.8202 55.0967 33.2176 54.486C34.6149 53.8752 35.2581 52.2602 34.6543 50.8787Z" fill="#3B3B4F"/>
<path id="Vector_59" d="M34.1886 50.3266C34.4046 50.8217 34.4674 51.3705 34.3688 51.9035C34.2703 52.4366 34.0149 52.93 33.635 53.3214C33.2551 53.7128 32.7677 53.9847 32.2344 54.1025C31.7011 54.2204 31.146 54.179 30.639 53.9835C30.1321 53.7881 29.6962 53.4475 29.3865 53.0046C29.0767 52.5618 28.907 52.0367 28.8988 51.4956C28.8906 50.9546 29.0443 50.422 29.3404 49.9651C29.6365 49.5082 30.0617 49.1475 30.5624 48.9287C30.895 48.7833 31.2526 48.7042 31.6149 48.6958C31.9771 48.6873 32.3369 48.7498 32.6737 48.8796C33.0104 49.0095 33.3176 49.2041 33.5775 49.4523C33.8374 49.7006 34.0451 49.9977 34.1886 50.3266Z" fill="#9494C4"/>
<path id="Vector_60" d="M32.2881 50.2156C31.6133 49.8738 30.7825 50.1419 30.4324 50.8144C30.0824 51.4868 30.3456 52.309 31.0204 52.6507C31.6952 52.9925 32.526 52.7244 32.876 52.0519C33.2261 51.3795 32.9628 50.5573 32.2881 50.2156Z" fill="#3B3B4F"/>
<path id="Vector_61" d="M32.6468 50.9985C32.7315 51.1922 32.7561 51.4069 32.7177 51.6156C32.6792 51.8242 32.5794 52.0173 32.4308 52.1706C32.2822 52.3238 32.0915 52.4302 31.8828 52.4764C31.6742 52.5226 31.4569 52.5065 31.2585 52.4301C31.0601 52.3537 30.8895 52.2204 30.7682 52.0472C30.647 51.8739 30.5805 51.6684 30.5773 51.4567C30.5741 51.245 30.6342 51.0365 30.75 50.8577C30.8659 50.6789 31.0323 50.5378 31.2282 50.4521C31.4909 50.3373 31.788 50.3304 32.054 50.4328C32.32 50.5353 32.5333 50.7388 32.6468 50.9985Z" fill="#DE8833"/>
<path id="Vector_62" opacity="0.4" d="M67.5569 27.7607C60.975 25.2256 53.5235 28.4825 50.9137 35.0352C48.3038 41.5878 51.5238 48.9549 58.1058 51.4899C64.6877 54.025 72.1392 50.7681 74.749 44.2155C77.3589 37.6628 74.1389 30.2958 67.5569 27.7607Z" fill="#3B3B4F"/>
<path id="Vector_63" d="M56.5435 26.6999C49.9912 29.4169 46.8548 36.872 49.5382 43.3513C52.2216 49.8307 59.7086 52.8806 66.261 50.1637C72.8133 47.4467 75.9497 39.9916 73.2663 33.5123C70.5829 27.0329 63.0959 23.9829 56.5435 26.6999Z" fill="#9494C4"/>
<path id="Vector_64" opacity="0.4" d="M66.384 49.8317C63.283 51.1864 59.7787 51.2761 56.6329 50.0815C53.4871 48.8868 50.954 46.5044 49.5842 43.452C49.6014 43.4914 49.6186 43.5308 49.6359 43.5703C51.0101 46.6179 53.5444 48.9948 56.6891 50.1854C59.8337 51.376 63.335 51.2843 66.4334 49.93C69.5318 48.5758 71.9772 46.0683 73.2392 42.9516C74.5012 39.8349 74.478 36.3604 73.1746 33.2819C73.1573 33.2425 73.1401 33.2031 73.1229 33.1637C74.4341 36.244 74.4616 39.7237 73.1995 42.8455C71.9374 45.9672 69.4879 48.4781 66.384 49.8317Z" fill="#C1C1FF"/>
<path id="Vector_65" opacity="0.3" d="M69.7323 28.7064C71.9234 31.0835 73.1117 34.2076 73.0552 37.4424C72.9987 40.6771 71.7016 43.7791 69.4282 46.1164C67.1548 48.4537 64.0762 49.8504 60.8194 50.022C57.5627 50.1937 54.3729 49.1273 51.8999 47.0401C53.0735 48.3238 54.5022 49.3526 56.0976 50.0627C57.693 50.7727 59.421 51.149 61.1747 51.1682C62.9284 51.1873 64.6704 50.8489 66.2928 50.174C67.9152 49.4991 69.3835 48.5019 70.6067 47.2444C71.8299 45.9868 72.7819 44.4956 73.4039 42.8631C74.0259 41.2306 74.3045 39.4915 74.2225 37.7536C74.1406 36.0158 73.6998 34.3161 72.9274 32.7599C72.155 31.2036 71.0676 29.824 69.7323 28.7064Z" fill="#343445"/>
<path id="Vector_66" d="M50.1348 44.1108C48.9389 41.38 48.7534 38.3107 49.611 35.4408C50.4685 32.571 52.3142 30.0838 54.8246 28.4154C57.3349 26.7469 60.3497 26.0038 63.3403 26.3161C66.3308 26.6285 69.1064 27.9765 71.1802 30.1237C70.0744 28.8281 68.7154 27.7685 67.1841 27.008C65.6528 26.2475 63.9804 25.8016 62.2665 25.6969C60.5525 25.5921 58.8319 25.8306 57.207 26.3981C55.5821 26.9657 54.0861 27.8507 52.8079 29.0006C51.5298 30.1505 50.4955 31.5418 49.7667 33.0917C49.0379 34.6417 48.6294 36.3186 48.5655 38.0228C48.5016 39.727 48.7836 41.4237 49.3948 43.012C50.0059 44.6003 50.9337 46.0477 52.123 47.2683C51.3062 46.3201 50.6362 45.2561 50.1348 44.1108Z" fill="#C1C1FF"/>
<path id="Vector_67" d="M70.7445 33.3938C67.986 28.2949 61.5653 26.4151 56.4036 29.195C51.2418 31.975 49.2936 38.3621 52.0521 43.461C54.8107 48.5599 61.2313 50.4397 66.393 47.6598C71.5548 44.8798 73.503 38.4927 70.7445 33.3938Z" fill="#3B3B4F"/>
<path id="Vector_68" d="M56.9944 29.169C55.736 29.7316 54.6856 30.6729 53.9932 31.8585C54.6034 34.3995 56.3464 37.3301 61.0026 38.3393C61.0026 38.3393 59.3314 35.8196 58.7172 31.8864C58.5045 30.5349 58.7051 29.4812 59.0536 28.6698C58.3446 28.7192 57.6482 28.888 56.9944 29.169Z" fill="#DE8833"/>
<path id="Vector_69" opacity="0.4" d="M54.9887 32.2075C55.6813 31.0229 56.7313 30.0824 57.989 29.5202C58.2698 29.402 58.5592 29.3056 58.8548 29.2321C58.9095 29.0404 58.9753 28.8519 59.0518 28.6675C58.3429 28.7174 57.6468 28.8867 56.9932 29.1682C55.7348 29.7308 54.6844 30.6721 53.992 31.8576C54.5585 34.2192 56.1075 36.915 60.0595 38.0929C59.0911 37.7085 58.2005 37.1563 57.429 36.462C56.2033 35.3213 55.3532 33.8393 54.9887 32.2075Z" fill="#FFA74F"/>
<path id="Vector_70" opacity="0.3" d="M60.1673 38.1273C60.4352 38.2052 60.7124 38.2754 61.0028 38.3381C61.0028 38.3381 59.3317 35.8184 58.7174 31.8852C58.5047 30.5337 58.7053 29.48 59.0538 28.6686C58.5976 28.7102 58.1466 28.7984 57.7079 28.9319C56.8955 33.5374 58.8885 36.6639 60.1673 38.1273Z" fill="#DE6E00"/>
<path id="Vector_71" d="M57.4381 36.7355C55.1309 34.7159 54.2104 31.9873 54.2104 31.9873C54.5514 31.2105 55.1325 30.5599 55.869 30.1302C56.6055 29.7005 57.459 29.5141 58.3053 29.598C58.3053 29.598 57.5965 29.6478 56.3805 30.2083C55.6643 30.5328 55.0901 31.1048 54.7659 31.8167C54.7659 31.8167 54.7819 32.8769 55.5728 34.1725C56.1363 35.0674 56.7594 35.9236 57.4381 36.7355Z" fill="#FF9C3B"/>
<path id="Vector_72" d="M51.6584 35.0278C51.161 36.3048 51.0824 37.7019 51.4341 39.0188C53.68 40.3718 57.012 41.205 61.0506 38.6453C61.0506 38.6453 58.0686 38.0527 54.823 35.7247C53.7103 34.9255 53.0994 34.0459 52.769 33.2315C52.2989 33.764 51.9233 34.3715 51.6584 35.0278Z" fill="#DE8833"/>
<path id="Vector_73" opacity="0.4" d="M52.3958 38.5682C52.0451 37.2512 52.1237 35.8544 52.6202 34.5772C52.7363 34.2974 52.8738 34.0266 53.0314 33.7673C52.9343 33.5944 52.8472 33.416 52.7706 33.2331C52.3004 33.7656 51.9248 34.3731 51.66 35.0294C51.1625 36.3064 51.084 37.7035 51.4356 39.0204C53.5203 40.2759 56.5479 41.0814 60.205 39.1363C59.2418 39.5466 58.2144 39.7848 57.1704 39.8398C55.4825 39.9006 53.8193 39.4577 52.3958 38.5682Z" fill="#FFA74F"/>
<path id="Vector_74" opacity="0.3" d="M60.3068 39.0843C60.5535 38.9511 60.8018 38.8047 61.0538 38.6458C61.0538 38.6458 58.0718 38.0533 54.8262 35.7253C53.7135 34.926 53.1026 34.0465 52.7722 33.2321C52.4773 33.5792 52.2195 33.9558 52.0031 34.3555C54.7035 38.1605 58.3505 38.9499 60.3068 39.0843Z" fill="#DE6E00"/>
<path id="Vector_75" d="M57.3667 40.024C54.2825 40.2255 51.6817 38.959 51.6817 38.959C51.3731 38.1747 51.3249 37.3111 51.5441 36.4934C51.7632 35.6757 52.2383 34.9462 52.9006 34.4105C52.9006 34.4105 52.4302 34.943 51.9615 36.1897C51.6815 36.9189 51.678 37.7221 51.9519 38.4491C51.9519 38.4491 52.7176 39.1815 54.2091 39.5353C55.2491 39.7669 56.304 39.9301 57.3667 40.024Z" fill="#FF9C3B"/>
<path id="Vector_76" d="M52.0276 42.8813C52.5823 44.1252 53.521 45.1598 54.7092 45.8368C57.2758 45.2115 60.2439 43.4574 61.2998 38.8285C61.2998 38.8285 58.7465 40.5079 54.7775 41.1503C53.413 41.3711 52.3534 41.1824 51.5386 40.8434C51.5835 41.5463 51.7488 42.2355 52.0276 42.8813Z" fill="#DE8833"/>
<path id="Vector_77" opacity="0.4" d="M55.0764 44.8468C53.8873 44.1696 52.9475 43.1351 52.391 41.8911C52.274 41.613 52.1791 41.326 52.1072 41.0329C51.9145 40.9802 51.7251 40.9165 51.5399 40.8421C51.5842 41.5451 51.749 42.2345 52.0273 42.8807C52.5819 44.1253 53.5209 45.1604 54.7096 45.8377C57.0943 45.2558 59.8241 43.6962 61.0449 39.7662C60.6509 40.73 60.088 41.618 59.3823 42.3888C58.2232 43.6147 56.7234 44.4708 55.0764 44.8468Z" fill="#FFA74F"/>
<path id="Vector_78" opacity="0.3" d="M61.0872 39.6591C61.168 39.3927 61.2411 39.1157 61.3067 38.8283C61.3067 38.8283 58.7533 40.5077 54.7843 41.1501C53.4198 41.3709 52.3602 41.1822 51.5455 40.8432C51.5828 41.2928 51.6673 41.7369 51.7978 42.1683C56.4335 42.9426 59.5984 40.9328 61.0872 39.6591Z" fill="#DE6E00"/>
<path id="Vector_79" d="M59.6592 42.3806C57.604 44.6855 54.8464 45.6217 54.8464 45.6217C54.0664 45.2898 53.4156 44.7187 52.9887 43.9914C52.5617 43.2642 52.381 42.4188 52.4727 41.5782C52.4727 41.5782 52.5169 42.2811 53.0716 43.4832C53.3931 44.1909 53.9646 44.7558 54.6791 45.0719C54.6791 45.0719 55.7477 45.0472 57.06 44.2515C57.9662 43.6846 58.8345 43.0596 59.6592 42.3806Z" fill="#FF9C3B"/>
<path id="Vector_80" d="M57.8911 48.1272C59.1741 48.6089 60.5811 48.6752 61.9113 48.3165C63.2952 46.0758 64.1612 42.7631 61.6153 38.7768C61.6153 38.7768 60.9926 41.7394 58.6199 44.9811C57.8051 46.092 56.9129 46.704 56.0901 47.0402C56.6233 47.5015 57.2323 47.8691 57.8911 48.1272Z" fill="#DE8833"/>
<path id="Vector_81" opacity="0.4" d="M61.4636 47.3674C60.1333 47.7258 58.7265 47.6595 57.4434 47.1782C57.1623 47.0643 56.8904 46.9297 56.63 46.7753C56.4555 46.8744 56.2752 46.9628 56.0901 47.0402C56.6233 47.5015 57.2323 47.8691 57.8911 48.1272C59.1741 48.6089 60.5811 48.6752 61.9113 48.3165C63.1935 46.2358 64.0312 43.2262 62.1008 39.6119C62.5067 40.5647 62.7383 41.5828 62.7851 42.6189C62.8323 44.2933 62.372 45.9475 61.4636 47.3674Z" fill="#FFA74F"/>
<path id="Vector_82" opacity="0.3" d="M62.0499 39.5127C61.9184 39.2704 61.7729 39.0253 61.6149 38.7765C61.6149 38.7765 60.9921 41.7391 58.6195 44.9808C57.8047 46.0917 56.9132 46.7052 56.0897 47.0399C56.4373 47.3293 56.8146 47.5819 57.2154 47.7937C61.0727 45.0822 61.9026 41.4531 62.0499 39.5127Z" fill="#DE6E00"/>
<path id="Vector_83" d="M62.9692 42.4231C63.1465 45.482 61.8477 48.072 61.8477 48.072C61.0551 48.3865 60.1842 48.4427 59.3616 48.2323C58.5391 48.0218 57.8079 47.5557 57.2746 46.9019C57.2746 46.9019 57.8073 47.3643 59.0591 47.8174C59.7916 48.09 60.6015 48.0873 61.3367 47.8096C61.3367 47.8096 62.0806 47.0421 62.4496 45.5591C62.6922 44.5257 62.8657 43.4781 62.9692 42.4231Z" fill="#FF9C3B"/>
<path id="Vector_84" d="M65.8105 47.6935C67.0683 47.1313 68.1183 46.1908 68.8109 45.0063C68.2022 42.4646 66.4592 39.5339 61.803 38.5248C61.803 38.5248 63.4742 41.0445 64.0877 44.9762C64.2989 46.3284 64.1005 47.3829 63.7513 48.1927C64.4604 48.1435 65.1567 47.9746 65.8105 47.6935Z" fill="#DE8833"/>
<path id="Vector_85" opacity="0.4" d="M67.8167 44.6536C67.1233 45.8383 66.0728 46.7789 64.8148 47.3415C64.5338 47.4605 64.244 47.5576 63.9481 47.6319C63.8942 47.823 63.8287 48.0108 63.752 48.1943C64.4609 48.1444 65.157 47.9751 65.8105 47.6935C67.0683 47.1313 68.1183 46.1908 68.8109 45.0063C68.2444 42.6448 66.6954 39.9489 62.7443 38.7688C63.7121 39.1517 64.6025 39.7021 65.3743 40.3945C66.6015 41.5363 67.4523 43.0199 67.8167 44.6536Z" fill="#FFA74F"/>
<path id="Vector_86" opacity="0.3" d="M62.6344 38.7333C62.3675 38.6574 62.0892 38.5876 61.7996 38.524C61.7996 38.524 63.4707 41.0437 64.0843 44.9754C64.2955 46.3276 64.0971 47.3821 63.7479 48.192C64.2016 48.1525 64.6502 48.0654 65.0862 47.932C65.9053 43.3254 63.9139 40.1982 62.6344 38.7333Z" fill="#DE6E00"/>
<path id="Vector_87" d="M65.3667 40.129C67.6724 42.1492 68.5929 44.8778 68.5929 44.8778C68.2503 45.6535 67.6688 46.3029 66.9326 46.7322C66.1963 47.1615 65.3434 47.3483 64.4974 47.2656C64.4974 47.2656 65.2068 47.2173 66.4229 46.6569C67.1391 46.3324 67.7132 45.7603 68.0374 45.0484C68.0374 45.0484 68.0215 43.9883 67.2306 42.6927C66.6668 41.7981 66.0442 40.9417 65.3667 40.129Z" fill="#FF9C3B"/>
<path id="Vector_88" d="M71.1403 41.8352C71.6362 40.5579 71.7147 39.1613 71.3647 37.8442C69.118 36.4897 65.7868 35.6581 61.7481 38.2178C61.7481 38.2178 64.7279 38.8094 67.9757 41.1383C69.0884 41.9376 69.6993 42.8171 70.0291 43.63C70.4991 43.0979 70.8749 42.491 71.1403 41.8352Z" fill="#DE8833"/>
<path id="Vector_89" opacity="0.4" d="M70.4051 38.295C70.7554 39.612 70.6769 41.0087 70.1807 42.2859C70.0644 42.5665 69.9267 42.838 69.7686 43.098C69.8667 43.2698 69.9541 43.4475 70.0303 43.63C70.5004 43.098 70.8762 42.491 71.1416 41.8353C71.6374 40.558 71.7159 39.1614 71.3659 37.8443C69.2797 36.5894 66.2536 35.7832 62.595 37.729C63.5595 37.3197 64.5882 37.0828 65.6332 37.0295C67.3195 36.9673 68.9817 37.4081 70.4051 38.295Z" fill="#FFA74F"/>
<path id="Vector_90" opacity="0.3" d="M62.493 37.7784C62.2481 37.9119 61.9999 38.0584 61.7481 38.2178C61.7481 38.2178 64.7294 38.8088 67.9757 41.1383C69.0884 41.9376 69.6993 42.8171 70.0291 43.63C70.3244 43.2835 70.5824 42.9075 70.7988 42.5081C68.0978 38.7016 64.4488 37.9076 62.493 37.7784Z" fill="#DE6E00"/>
<path id="Vector_91" d="M65.4339 36.8379C68.5181 36.6364 71.1181 37.9051 71.1181 37.9051C71.4285 38.6889 71.4778 39.5527 71.2589 40.3707C71.0399 41.1887 70.5641 41.9181 69.9007 42.4528C69.9007 42.4528 70.3711 41.9204 70.8383 40.6744C71.1191 39.9452 71.1231 39.1416 70.8494 38.4143C70.8494 38.4143 70.0821 37.6826 68.5906 37.3287C67.5511 37.0958 66.4965 36.9318 65.4339 36.8379Z" fill="#FF9C3B"/>
<path id="Vector_92" d="M70.7756 33.9819C70.2191 32.7382 69.28 31.7037 68.0918 31.0255C65.5259 31.6523 62.5578 33.4064 61.5018 38.0353C61.5018 38.0353 64.0552 36.356 68.0227 35.7142C69.3865 35.4919 70.4483 35.6815 71.2615 36.0212C71.2176 35.318 71.0533 34.6284 70.7756 33.9819Z" fill="#DE8833"/>
<path id="Vector_93" opacity="0.4" d="M67.7285 32.0165C68.9189 32.6925 69.8603 33.7263 70.4184 34.9702C70.5357 35.2476 70.6309 35.5338 70.7031 35.8262C70.8955 35.8786 71.0845 35.9426 71.2689 36.0177C71.2245 35.3147 71.0597 34.6253 70.7815 33.9791C70.225 32.7354 69.2858 31.7009 68.0977 31.0227C65.713 31.6046 62.9832 33.1643 61.7615 37.0964C62.1558 36.1325 62.7185 35.2441 63.4234 34.4723C64.5827 33.2476 66.0821 32.3922 67.7285 32.0165Z" fill="#FFA74F"/>
<path id="Vector_94" opacity="0.3" d="M61.7135 37.2065C61.6327 37.4729 61.5596 37.7486 61.494 38.0373C61.494 38.0373 64.0474 36.3579 68.0148 35.7162C69.3787 35.4938 70.4404 35.6834 71.2537 36.0231C71.2172 35.5705 71.1321 35.1235 70.9996 34.6897C66.3711 33.9194 63.2042 35.9248 61.7135 37.2065Z" fill="#DE6E00"/>
<path id="Vector_95" d="M63.1394 34.4835C65.1941 32.1771 67.9516 31.2409 67.9516 31.2409C68.7305 31.5744 69.3801 32.146 69.8066 32.873C70.233 33.6 70.4142 34.4448 70.3238 35.2851C70.3238 35.2851 70.2811 34.5815 69.7265 33.3794C69.4054 32.6714 68.8337 32.1065 68.1189 31.7907C68.1189 31.7907 67.0504 31.8154 65.738 32.6111C64.8315 33.1778 63.9634 33.8033 63.1394 34.4835Z" fill="#FF9C3B"/>
<path id="Vector_96" d="M64.9154 28.7364C63.6325 28.2544 62.2254 28.1881 60.8952 28.5471C59.5114 30.7879 58.6453 34.1005 61.1912 38.0868C61.1912 38.0868 61.8118 35.1234 64.1866 31.8825C65.0014 30.7717 65.893 30.1581 66.7149 29.8241C66.183 29.3617 65.5743 28.9938 64.9154 28.7364Z" fill="#DE8833"/>
<path id="Vector_97" opacity="0.4" d="M61.3415 29.4952C62.6733 29.1331 64.083 29.1985 65.3679 29.6818C65.6497 29.7939 65.922 29.9278 66.1822 30.0825C66.3568 29.9849 66.5368 29.8972 66.7212 29.8198C66.1893 29.3574 65.5806 28.9895 64.9217 28.7321C63.6388 28.2501 62.2317 28.1838 60.9015 28.5428C59.6187 30.622 58.7816 33.6331 60.7114 37.2459C60.3044 36.2959 60.0709 35.2806 60.0214 34.2468C59.9732 32.5715 60.4331 30.9162 61.3415 29.4952Z" fill="#FFA74F"/>
<path id="Vector_98" opacity="0.3" d="M60.7532 37.3497C60.8868 37.5928 61.0323 37.838 61.1903 38.0867C61.1903 38.0867 61.8109 35.1233 64.1858 31.8824C65.0005 30.7716 65.8921 30.158 66.714 29.824C66.3676 29.5335 65.9907 29.2806 65.5898 29.0695C61.731 31.7817 60.9004 35.4093 60.7532 37.3497Z" fill="#DE6E00"/>
<path id="Vector_99" d="M59.8281 34.4395C59.6493 31.3813 60.9516 28.7826 60.9516 28.7826C61.7446 28.4698 62.6153 28.4148 63.4375 28.6254C64.2598 28.836 64.991 29.3014 65.5253 29.9541C65.5253 29.9541 64.9927 29.4918 63.7402 29.0371C63.0076 28.7653 62.1981 28.7686 61.4632 29.0464C61.4632 29.0464 60.7187 29.8124 60.3496 31.2954C60.1056 32.3314 59.9314 33.3817 59.8281 34.4395Z" fill="#FF9C3B"/>
<path id="Vector_100" opacity="0.4" d="M64.3965 37.8768C63.7927 36.4953 62.1704 35.8705 60.7731 36.4812C59.3758 37.092 58.7326 38.707 59.3364 40.0885C59.9402 41.4699 61.5624 42.0947 62.9597 41.484C64.357 40.8733 65.0003 39.2582 64.3965 37.8768Z" fill="#3B3B4F"/>
<path id="Vector_101" d="M63.9308 37.3266C64.1469 37.8218 64.2096 38.3706 64.111 38.9037C64.0124 39.4369 63.7569 39.9303 63.3769 40.3217C62.9969 40.7131 62.5093 40.9849 61.976 41.1026C61.4426 41.2204 60.8874 41.1788 60.3805 40.9832C59.8735 40.7876 59.4377 40.4468 59.1281 40.0038C58.8185 39.5608 58.6489 39.0355 58.641 38.4944C58.633 37.9533 58.787 37.4207 59.0834 36.9638C59.3798 36.507 59.8053 36.1466 60.3061 35.928C60.6386 35.7827 60.9962 35.7036 61.3584 35.6952C61.7206 35.6869 62.0802 35.7494 62.4169 35.8793C62.7535 36.0092 63.0605 36.2039 63.3203 36.4522C63.5801 36.7006 63.7875 36.9977 63.9308 37.3266Z" fill="#9494C4"/>
<path id="Vector_102" d="M62.6607 37.8807C62.7687 38.1278 62.8001 38.4018 62.751 38.668C62.7019 38.9341 62.5745 39.1805 62.3848 39.376C62.1952 39.5714 61.9518 39.7072 61.6856 39.766C61.4193 39.8248 61.1421 39.8041 60.8891 39.7064C60.636 39.6088 60.4184 39.4386 60.2639 39.2174C60.1094 38.9963 60.0248 38.734 60.0209 38.4639C60.017 38.1937 60.094 37.9279 60.242 37.6999C60.3901 37.4719 60.6026 37.292 60.8527 37.1831C61.0185 37.1104 61.1969 37.0707 61.3776 37.0665C61.5584 37.0622 61.7378 37.0933 61.9058 37.1582C62.0738 37.223 62.2269 37.3202 62.3565 37.4441C62.486 37.5681 62.5894 37.7165 62.6607 37.8807Z" fill="#3B3B4F"/>
<path id="Vector_103" d="M62.389 37.9985C62.4737 38.1922 62.4983 38.4069 62.4599 38.6156C62.4214 38.8242 62.3216 39.0173 62.173 39.1706C62.0244 39.3238 61.8337 39.4302 61.625 39.4764C61.4164 39.5226 61.1991 39.5065 61.0007 39.4301C60.8023 39.3537 60.6317 39.2204 60.5104 39.0472C60.3892 38.8739 60.3227 38.6684 60.3195 38.4567C60.3162 38.245 60.3763 38.0365 60.4922 37.8577C60.6081 37.6789 60.7745 37.5378 60.9704 37.4521C61.2331 37.3373 61.5302 37.3304 61.7962 37.4328C62.0622 37.5353 62.2755 37.7388 62.389 37.9985Z" fill="#DE8833"/>
<path id="Vector_104" opacity="0.3" d="M49.9147 62.5124L31.1172 70.7285L31.5247 71.6609L50.3222 63.4448L49.9147 62.5124Z" fill="#B05700"/>
<path id="Vector_105" d="M32.6821 70.6012L32.2344 70.7969L33.4132 73.4938L33.8609 73.2981L32.6821 70.6012Z" fill="#B05700"/>
<path id="Vector_106" d="M35.4321 69.3961L34.9844 69.5918L36.1632 72.2888L36.6109 72.0931L35.4321 69.3961Z" fill="#B05700"/>
<path id="Vector_107" d="M38.1977 68.1891L37.75 68.3848L38.9288 71.0817L39.3765 70.886L38.1977 68.1891Z" fill="#B05700"/>
<path id="Vector_108" d="M40.9477 66.984L40.5 67.1797L41.6788 69.8766L42.1265 69.6809L40.9477 66.984Z" fill="#B05700"/>
<path id="Vector_109" d="M43.7056 65.7789L43.2578 65.9746L44.4366 68.6716L44.8843 68.4759L43.7056 65.7789Z" fill="#B05700"/>
<path id="Vector_110" d="M46.4634 64.5738L46.0156 64.7695L47.1944 67.4665L47.6422 67.2708L46.4634 64.5738Z" fill="#B05700"/>
<path id="Vector_111" d="M49.2212 63.3688L48.7734 63.5645L49.9522 66.2614L50.4 66.0657L49.2212 63.3688Z" fill="#B05700"/>
<path id="Subtract" fill-rule="evenodd" clip-rule="evenodd" d="M8.9913 46.8945C8.94216 44.5181 10.564 42.2084 13.5769 40.1442C16.5815 38.0857 20.9168 36.3106 26.1622 34.9958L26.0356 34.4974C20.7573 35.8204 16.3595 37.6145 13.2878 39.7189C10.2245 41.8177 8.42689 44.2646 8.48135 46.9013C8.52259 48.9479 9.67701 50.8515 11.659 52.5394C13.6415 54.2279 16.4763 55.7231 19.9448 56.9593C26.8837 59.4324 36.4126 60.8876 46.8884 60.7469C57.3642 60.6061 66.8269 58.8976 73.6597 56.2405C77.0752 54.9124 79.8468 53.3422 81.7588 51.6012C83.6704 49.8607 84.7463 47.9263 84.7043 45.8782C84.6835 44.8822 84.2593 43.878 83.56 42.9045C83.3559 42.6203 83.1275 42.3375 82.8771 42.0567L82.6112 42.5263C82.8062 42.7519 82.9854 42.9777 83.1475 43.2034C83.8101 44.1259 84.1764 45.0294 84.1943 45.8851C84.2322 47.7308 83.2655 49.5344 81.4152 51.2191C79.5654 52.9034 76.8556 54.4459 73.4729 55.7613C66.7095 58.3913 57.3093 60.0932 46.8778 60.2333C36.4464 60.3735 26.9802 58.9232 20.1118 56.4753C16.6766 55.2509 13.9046 53.7818 11.9867 52.1483C10.0682 50.5144 9.02846 48.7385 8.9913 46.8945Z" fill="url(#paint9_linear_5280_127978)"/>
</g>
<g id="Group 1410068479">
<path id="Vector_112" d="M17.9907 34.1065C17.9755 34.0982 17.963 34.0857 17.9546 34.0705L17.429 33.1094L16.9034 34.0704C16.8951 34.0857 16.8826 34.0982 16.8673 34.1065L15.9062 34.6321L16.8673 35.1577C16.8825 35.1661 16.895 35.1786 16.9034 35.1938L17.429 36.1549L17.9546 35.1938C17.9629 35.1786 17.9754 35.1661 17.9907 35.1577L18.9517 34.6321L17.9907 34.1065Z" fill="#F6DFE6"/>
<path id="Vector_113" d="M17.9907 34.1065C17.9755 34.0982 17.963 34.0857 17.9546 34.0705L17.429 33.1094L16.9034 34.0704C16.8951 34.0857 16.8826 34.0982 16.8673 34.1065L15.9062 34.6321L16.8673 35.1577C16.8825 35.1661 16.895 35.1786 16.9034 35.1938L17.429 36.1549L17.9546 35.1938C17.9629 35.1786 17.9754 35.1661 17.9907 35.1577L18.9517 34.6321L17.9907 34.1065Z" fill="white" fill-opacity="0.5"/>
</g>
</g>
</g>
<defs>
<linearGradient id="paint0_linear_5280_127978" x1="179.985" y1="72.5324" x2="181.788" y2="73.6911" gradientUnits="userSpaceOnUse">
<stop offset="9.53674e-08" stop-color="#E9F3FF" stop-opacity="0"/>
<stop offset="1" stop-color="white"/>
</linearGradient>
<linearGradient id="paint1_linear_5280_127978" x1="153.875" y1="82.989" x2="153.361" y2="85.2852" gradientUnits="userSpaceOnUse">
<stop offset="9.53674e-08" stop-color="#E9F3FF" stop-opacity="0"/>
<stop offset="1" stop-color="white"/>
</linearGradient>
<linearGradient id="paint2_linear_5280_127978" x1="178.181" y1="83.4618" x2="178.974" y2="84.8782" gradientUnits="userSpaceOnUse">
<stop offset="9.53674e-08" stop-color="#E9F3FF" stop-opacity="0"/>
<stop offset="1" stop-color="white"/>
</linearGradient>
<linearGradient id="paint3_linear_5280_127978" x1="78.0001" y1="6.5" x2="90.0001" y2="6.5" gradientUnits="userSpaceOnUse">
<stop stop-color="#FECC7C"/>
<stop offset="1" stop-color="#FF9535"/>
</linearGradient>
<linearGradient id="paint4_linear_5280_127978" x1="84.6248" y1="12.8647" x2="89.8914" y2="12.8647" gradientUnits="userSpaceOnUse">
<stop stop-color="#FECC7C"/>
<stop offset="1" stop-color="#FF9535"/>
</linearGradient>
<linearGradient id="paint5_linear_5280_127978" x1="0.000143143" y1="15.1612" x2="5.82702" y2="15.1612" gradientUnits="userSpaceOnUse">
<stop stop-color="#FECC7C"/>
<stop offset="1" stop-color="#FF9535"/>
</linearGradient>
<linearGradient id="paint6_linear_5280_127978" x1="9.87509" y1="5.64757" x2="12.7791" y2="5.64757" gradientUnits="userSpaceOnUse">
<stop stop-color="#FECC7C"/>
<stop offset="1" stop-color="#FF9535"/>
</linearGradient>
<linearGradient id="paint7_linear_5280_127978" x1="0.99996" y1="27.5" x2="13.0001" y2="27.5" gradientUnits="userSpaceOnUse">
<stop stop-color="#FECC7C"/>
<stop offset="1" stop-color="#FF9535"/>
</linearGradient>
<linearGradient id="paint8_linear_5280_127978" x1="179.978" y1="51.5034" x2="184.076" y2="50.1089" gradientUnits="userSpaceOnUse">
<stop offset="9.53674e-08" stop-color="#E9F3FF" stop-opacity="0"/>
<stop offset="1" stop-color="white"/>
</linearGradient>
<linearGradient id="paint9_linear_5280_127978" x1="38.9109" y1="85.3464" x2="35.945" y2="26.8846" gradientUnits="userSpaceOnUse">
<stop stop-color="#F4F5F4"/>
<stop offset="1" stop-color="#C9C9C9" stop-opacity="0"/>
</linearGradient>
<clipPath id="clip0_5280_127978">
<rect width="39.8039" height="74.2288" fill="white" transform="translate(21.9766 78.8691) rotate(-113.609)"/>
</clipPath>
</defs>
</svg>
