<svg width="90" height="86" viewBox="0 0 90 86" fill="none" xmlns="http://www.w3.org/2000/svg">
<g id="Purchase" clip-path="url(#clip0_5346_143056)">
<g id="Group">
<g id="Group_2">
<path id="Vector" d="M13.4844 44.135C13.4844 42.6638 14.6431 41.4577 16.1034 41.4088L68.9284 39.6422C70.459 39.591 71.7274 40.8264 71.7274 42.3683V78.0585C71.7274 79.5298 70.5687 80.7359 69.1083 80.7847L16.2833 82.5514C14.7528 82.6024 13.4844 81.3671 13.4844 79.8252V44.135Z" fill="url(#paint0_linear_5346_143056)"/>
<path id="Vector_2" fill-rule="evenodd" clip-rule="evenodd" d="M12.6719 44.135V79.8252C12.6719 80.3169 12.7682 80.7865 12.961 81.2342C13.1467 81.6658 13.408 82.0456 13.745 82.3738C14.082 82.7021 14.4677 82.9525 14.9022 83.125C15.3531 83.3042 15.8225 83.3856 16.3105 83.3694L69.1356 81.6027C69.6017 81.5871 70.0461 81.4831 70.4687 81.2907C70.877 81.1049 71.2374 80.8493 71.5498 80.524C71.8623 80.1987 72.104 79.8275 72.275 79.4105C72.4518 78.9789 72.5403 78.5282 72.5403 78.0585V42.3683C72.5403 41.8768 72.4439 41.4071 72.2512 40.9593C72.0654 40.5278 71.804 40.1479 71.4672 39.8197C71.1302 39.4914 70.7445 39.241 70.3099 39.0685C69.859 38.8894 69.3895 38.808 68.9016 38.8243L16.0766 40.591C15.6104 40.6066 15.166 40.7105 14.7435 40.9029C14.3353 41.0887 13.9749 41.3443 13.6624 41.6696C13.3498 41.9949 13.1081 42.366 12.9372 42.7831C12.7603 43.2146 12.6719 43.6653 12.6719 44.135ZM16.1036 41.4088C14.6433 41.4577 13.4846 42.6638 13.4846 44.135V79.8252C13.4846 81.3671 14.7529 82.6024 16.2835 82.5514L69.1085 80.7847C70.5689 80.7359 71.7276 79.5297 71.7276 78.0585V42.3683C71.7276 40.8264 70.4592 39.591 68.9286 39.6421L16.1036 41.4088Z" fill="url(#paint1_linear_5346_143056)"/>
</g>
<g id="Group_3">
<g id="Group_4">
<g id="Group_5">
<path id="Vector_3" d="M22.3825 71.103L68.5805 64.5266C70.8056 64.2099 72.3607 62.1439 72.054 59.9121L68.5736 34.5886C68.2669 32.3568 66.2144 30.8044 63.9893 31.1211L17.7913 37.6975C15.5662 38.0142 14.0111 40.0802 14.3178 42.312L17.7982 67.6356C18.1049 69.8673 20.1574 71.4198 22.3825 71.103Z" fill="#2ECC71"/>
<path id="Vector_4" d="M22.4322 71.5062L68.6307 64.9297C71.0783 64.5813 72.789 62.3087 72.4516 59.8536L68.9711 34.5296C68.6337 32.0746 66.376 30.3669 63.9284 30.7153L17.7299 37.2918C15.2823 37.6402 13.5716 39.9129 13.909 42.3679L17.3895 67.6919C17.7269 70.1469 19.9846 71.8547 22.4322 71.5062Z" stroke="url(#paint2_linear_5346_143056)" stroke-width="3"/>
</g>
</g>
<g id="Group_6" opacity="0.5">
<g id="Group_7">
<path id="Vector_5" d="M62.4123 36.5643L56.0511 37.4701C55.4576 37.5545 55.0429 38.1056 55.1247 38.7009L55.643 42.4734C55.7248 43.0687 56.2722 43.4828 56.8657 43.3983L63.2269 42.4925C63.8203 42.408 64.2351 41.857 64.1533 41.2617L63.635 37.4892C63.5532 36.8939 63.0058 36.4798 62.4123 36.5643Z" fill="#82FDB6"/>
<path id="Vector_6" d="M62.3905 36.428L56.0292 37.3337C55.3615 37.4288 54.8949 38.0488 54.9869 38.7185L55.5053 42.4911C55.5973 43.1608 56.2132 43.6266 56.8808 43.5316L63.2421 42.6258C63.9098 42.5308 64.3764 41.9108 64.2844 41.2411L63.766 37.4685C63.674 36.7988 63.0581 36.3329 62.3905 36.428Z" stroke="#1AAF59"/>
</g>
<g id="Group_8">
<path id="Vector_7" d="M58.5703 39.1797L55.265 39.6452" stroke="#1AAF59"/>
</g>
<g id="Group_9">
<path id="Vector_8" d="M58.7969 40.8438L55.4916 41.3093" stroke="#1AAF59"/>
</g>
<g id="Group_10">
<path id="Vector_9" d="M63.7656 38.4473L60.4603 38.9128" stroke="#1AAF59"/>
</g>
<g id="Group_11">
<path id="Vector_10" d="M63.9922 40.1113L60.6869 40.5768" stroke="#1AAF59"/>
</g>
<g id="Group_12">
<path id="Vector_11" d="M59.7558 37.8003L58.7006 37.9504C58.4776 37.9821 58.3218 38.1891 58.3525 38.4127L58.792 41.6082C58.8227 41.8318 59.0284 41.9873 59.2514 41.9556L60.3065 41.8055C60.5295 41.7738 60.6854 41.5668 60.6546 41.3432L60.2152 38.1477C60.1844 37.9241 59.9788 37.7685 59.7558 37.8003Z" stroke="#1AAF59"/>
</g>
</g>
</g>
<g id="&#60;Group&#62;">
<path id="&#60;Path&#62;" d="M26.3307 24.4879C22.6034 27.3455 21.9822 33.3092 24.8398 38.279C27.6974 43.373 33.2884 45.7336 37.5127 43.87C38.6309 43.4972 39.6247 42.876 40.8672 42.2548L35.152 32.3153L29.4368 22.5C28.1944 23.1212 27.3246 23.7424 26.3307 24.4879V24.4879Z" fill="url(#paint3_linear_5346_143056)"/>
<path id="&#60;Path&#62;_2" style="mix-blend-mode:screen" d="M26.4554 25.8706C23.8463 27.8585 22.9766 32.0828 24.5917 35.9344C26.0827 39.6617 29.4373 41.5254 32.2949 40.2829C33.0404 40.0344 33.6615 39.6617 34.5312 39.1647L31.5494 31.8343L28.5676 24.5039C27.6979 25.0009 27.0766 25.3736 26.4554 25.8706V25.8706Z" fill="url(#paint4_radial_5346_143056)"/>
<path id="&#60;Path&#62;_3" style="mix-blend-mode:multiply" d="M26.5791 25.2334C27.3246 24.1152 28.1944 23.1212 29.4368 22.5C28.1944 23.1212 27.3246 23.7424 26.3307 24.4879C22.6034 27.3455 21.9822 33.3092 24.8398 38.279C27.6974 43.373 33.2884 45.7336 37.5127 43.87C38.6309 43.4972 39.6247 42.876 40.8672 42.2548C38.8793 43.373 36.6429 43.4973 34.4066 43.0003C30.9277 43.87 26.8276 41.7578 24.5912 37.6578C22.2306 33.185 22.9762 28.091 26.0823 25.6061C26.2479 25.5233 26.4135 25.399 26.5791 25.2334V25.2334Z" fill="url(#paint5_radial_5346_143056)"/>
<g id="&#60;Path&#62;_4" style="mix-blend-mode:screen">
<path d="M28.8189 23.0098C24.5946 25.3704 23.6007 31.5826 26.7068 36.9251C29.8129 42.1434 35.6524 44.504 39.8767 42.1434C43.9767 39.6585 44.9706 33.4463 41.8645 28.1038C38.8827 22.8855 32.919 20.5249 28.8189 23.0098V23.0098Z" fill="#FCCE3A"/>
</g>
<path id="&#60;Path&#62;_5" d="M29.4403 22.5091C24.9675 24.994 23.9735 31.5789 27.0796 37.0457C30.1857 42.5124 36.3979 44.8731 40.8707 42.2639C45.2193 39.6548 46.3375 33.1941 43.1072 27.7274C40.0011 22.2606 33.7889 19.9 29.4403 22.5091V22.5091Z" fill="url(#paint6_radial_5346_143056)"/>
<path id="&#60;Path&#62;_6" d="M30.9281 24.4953C27.5735 26.3589 26.9523 31.453 29.4372 35.6773C31.7979 39.9015 36.5192 41.8895 39.8738 39.9016C43.1041 38.0379 43.8495 33.0681 41.3646 28.7196C38.8797 24.4953 34.2827 22.6316 30.9281 24.4953Z" fill="url(#paint7_radial_5346_143056)"/>
<path id="&#60;Path&#62;_7" style="mix-blend-mode:multiply" opacity="0.5" d="M39.1283 40.2743C39.3768 40.1915 39.6253 40.0672 39.8738 39.9016C43.1041 38.0379 43.8495 33.0681 41.3646 28.7196C38.8797 24.4953 34.2827 22.6316 30.9281 24.4953C29.8099 25.1165 28.9402 26.1105 28.4432 27.3529C28.7745 27.0216 29.1887 26.7317 29.6857 26.4832C32.7918 24.6195 37.2645 26.3589 39.6252 30.459C41.6131 34.0621 41.3647 38.1621 39.1283 40.2743V40.2743Z" fill="url(#paint8_radial_5346_143056)"/>
<path id="&#60;Path&#62;_8" d="M39.8738 39.8976C43.1041 38.0339 43.8495 33.0642 41.3646 28.7156C38.8797 24.4913 34.2827 22.6277 30.6797 24.7398C33.91 23.4974 38.01 25.4853 40.2464 29.3368C42.4828 33.3127 42.1102 37.7854 39.8738 39.8976V39.8976Z" fill="url(#paint9_linear_5346_143056)"/>
<path id="&#60;Path&#62;_9" style="mix-blend-mode:multiply" d="M33.0403 24.3671C32.212 24.3671 31.4251 24.4913 30.6797 24.7398C34.2827 22.6277 38.8797 24.4913 41.3646 28.7156C43.8495 33.0642 43.1041 38.0339 39.8738 39.8976C39.8738 39.6491 40.2465 39.2764 40.6192 38.9036C42.9798 36.7915 43.4768 32.5672 41.3646 28.9641C39.501 25.4853 35.8979 23.6216 33.0403 24.3671V24.3671Z" fill="url(#paint10_radial_5346_143056)"/>
<path id="&#60;Path&#62;_10" style="mix-blend-mode:screen" d="M30.1833 26.362C36.0228 23.7528 41.4896 31.3317 40.7441 36.3015C37.5137 35.0591 32.047 32.4499 30.1833 26.362Z" fill="url(#paint11_radial_5346_143056)"/>
<g id="Group 1410068338" filter="url(#filter0_di_5346_143056)">
<g id="robot" filter="url(#filter1_d_5346_143056)">
<path id="Subtract" fill-rule="evenodd" clip-rule="evenodd" d="M38.7003 29.2613C37.8096 28.24 36.5276 27.7897 33.9068 28.7039C33.231 28.9769 32.2892 29.4783 31.5341 30.1876C30.015 31.6145 30.2358 34.1829 31.6171 35.7363C32.2349 36.4311 33.1014 36.8827 34.3335 36.6896C35.7922 36.2827 39.0456 35.0729 39.8088 33.5678C39.986 33.2184 40.1433 32.7632 39.8784 31.7061C39.7174 31.0641 39.4239 30.4645 39.1105 29.8815C38.9928 29.6626 38.8637 29.4487 38.7003 29.2613ZM39.3843 31.8821C39.4484 32.3814 39.2787 32.7106 38.4995 32.9577C37.2332 33.3594 35.081 34.3812 34.1632 34.8418C34.0192 34.9111 33.815 34.9659 33.5873 34.9604C32.256 34.9286 31.6641 33.3699 31.5758 32.0443C31.5085 31.0332 32.5249 30.1091 33.4443 29.6761C34.0344 29.3982 34.8048 29.1146 35.8449 28.8494C36.8235 28.6718 37.7951 28.6211 38.5019 29.6758C38.8871 30.3722 39.283 31.0925 39.3843 31.8821Z" fill="white"/>
<path id="Ellipse 4054" d="M32.7279 27.8942C32.9109 28.3154 33.4007 28.5085 33.822 28.3255C34.2432 28.1425 34.4363 27.6527 34.2533 27.2314C34.0702 26.8102 33.5804 26.6171 33.1592 26.8001C32.738 26.9832 32.5449 27.473 32.7279 27.8942Z" fill="white"/>
<path id="Rectangle 34625726" d="M33.9062 27.9648L33.5928 28.101L33.819 28.6218L34.1325 28.4856L33.9062 27.9648Z" fill="white"/>
<path id="Rectangle 34625727" d="M33.9787 31.8737C33.8567 31.5929 33.5302 31.4641 33.2494 31.5862L32.9951 31.6966C32.7143 31.8186 32.5856 32.1452 32.7076 32.426L33.0942 33.3159C33.2162 33.5967 33.5428 33.7254 33.8236 33.6034L34.0778 33.4929C34.3587 33.3709 34.4874 33.0443 34.3654 32.7635L33.9787 31.8737Z" fill="white"/>
<path id="Rectangle 34625728" d="M37.7834 30.3483C37.6614 30.0675 37.3349 29.9388 37.054 30.0608L36.7998 30.1712C36.519 30.2933 36.3902 30.6198 36.5123 30.9006L36.8989 31.7905C37.0209 32.0713 37.3475 32.2 37.6283 32.078L37.8825 31.9675C38.1633 31.8455 38.2921 31.519 38.1701 31.2381L37.7834 30.3483Z" fill="white"/>
<path id="Subtract_2" fill-rule="evenodd" clip-rule="evenodd" d="M31.2028 35.5784C30.6239 34.8182 30.2968 33.867 30.2778 32.9346L30.2568 32.8891L30.032 32.9924C29.6417 33.1718 29.4702 33.6327 29.6491 34.0218L30.1872 35.1921C30.3638 35.5761 30.8157 35.7467 31.2028 35.5784Z" fill="white"/>
<path id="Subtract_3" fill-rule="evenodd" clip-rule="evenodd" d="M38.7907 29.196C38.7955 29.2014 38.8002 29.2069 38.805 29.2123C38.9684 29.3997 39.0975 29.6136 39.2152 29.8325C39.5286 30.4155 39.8221 31.0151 39.9831 31.6572C39.9896 31.6831 39.9958 31.7087 40.0018 31.734C40.3131 31.5359 40.4483 31.1383 40.3038 30.7856L39.8155 29.5937C39.6538 29.1991 39.2028 29.0096 38.806 29.1694L38.7835 29.1785L38.7907 29.196Z" fill="white"/>
<path id="Rectangle 34625729" d="M34.8928 28.4685C34.8312 28.3112 34.6537 28.2336 34.4963 28.2953L33.4266 28.7145C33.2693 28.7761 33.1917 28.9537 33.2533 29.1111L34.8928 28.4685Z" fill="white"/>
</g>
</g>
</g>
<g id="Group_13">
<g id="Group_14">
<path id="Vector_12" d="M69.0184 42.2754H16.1934C14.6972 42.2754 13.4844 43.4966 13.4844 45.003V80.735C13.4844 82.2414 14.6972 83.4626 16.1934 83.4626H69.0184C70.5145 83.4626 71.7274 82.2414 71.7274 80.735V45.003C71.7274 43.4966 70.5145 42.2754 69.0184 42.2754Z" fill="#6E5DE7"/>
<path id="Vector_13" d="M69.0185 41.8672H16.1934C14.4729 41.8672 13.0781 43.2716 13.0781 45.004V80.7359C13.0781 82.4683 14.4729 83.8727 16.1934 83.8727H69.0185C70.739 83.8727 72.1338 82.4683 72.1338 80.7359V45.004C72.1338 43.2716 70.739 41.8672 69.0185 41.8672Z" stroke="url(#paint12_linear_5346_143056)" stroke-width="3"/>
</g>
<g id="Group_15">
<path id="Vector_14" d="M57.1016 62.8691C57.1016 60.2328 59.2241 58.0957 61.8423 58.0957H72.5427C73.2908 58.0957 73.8972 58.7063 73.8972 59.4595V66.2786C73.8972 67.0318 73.2908 67.6424 72.5427 67.6424H61.8423C59.2241 67.6424 57.1016 65.5053 57.1016 62.8691Z" fill="#6E5DE7"/>
<path id="Vector_15" fill-rule="evenodd" clip-rule="evenodd" d="M56.2891 62.869C56.2891 63.627 56.4346 64.3526 56.7258 65.0458C57.0069 65.7148 57.4035 66.3072 57.9156 66.8229C58.4278 67.3385 59.0161 67.7379 59.6806 68.0209C60.369 68.314 61.0896 68.4606 61.8425 68.4606H72.5429C73.1414 68.4606 73.6522 68.2476 74.0753 67.8215C74.4985 67.3954 74.7101 66.8811 74.7101 66.2785V59.4594C74.7101 58.8569 74.4985 58.3425 74.0753 57.9165C73.6522 57.4904 73.1414 57.2773 72.5429 57.2773H61.8425C61.0896 57.2773 60.369 57.4239 59.6806 57.7171C59.0161 58.0001 58.4278 58.3994 57.9156 58.9151C57.4035 59.4308 57.0069 60.0231 56.7258 60.6922C56.4346 61.3854 56.2891 62.1109 56.2891 62.869ZM61.8425 58.0956C59.2242 58.0956 57.1018 60.2327 57.1018 62.869C57.1018 65.5052 59.2242 67.6423 61.8425 67.6423H72.5429C73.291 67.6423 73.8974 67.0317 73.8974 66.2785V59.4594C73.8974 58.7062 73.291 58.0956 72.5429 58.0956H61.8425Z" fill="url(#paint13_linear_5346_143056)"/>
</g>
<g id="Group_16">
<path id="Vector_16" d="M61.8366 65.7339C63.4075 65.7339 64.681 64.4516 64.681 62.8699C64.681 61.2881 63.4075 60.0059 61.8366 60.0059C60.2657 60.0059 58.9922 61.2881 58.9922 62.8699C58.9922 64.4516 60.2657 65.7339 61.8366 65.7339Z" fill="#CCDAFC"/>
</g>
</g>
</g>
<g id="&#60;Group&#62;_2">
<path id="&#60;Path&#62;_11" d="M62.4515 8.80833C66.179 11.6661 66.8002 17.6302 63.9424 22.6003C61.0846 27.6946 55.4934 30.0554 51.2688 28.1916C50.1505 27.8189 49.1566 27.1976 47.9141 26.5763L53.6296 16.6362L59.3452 6.82031C60.5877 7.44157 61.4575 8.06282 62.4515 8.80833V8.80833Z" fill="url(#paint14_linear_5346_143056)"/>
<path id="&#60;Path&#62;_12" style="mix-blend-mode:screen" d="M62.3268 10.1911C64.9362 12.1792 65.806 16.404 64.1907 20.256C62.6996 23.9838 59.3445 25.8477 56.4866 24.6051C55.741 24.3566 55.1198 23.9838 54.25 23.4867L57.2322 16.1555L60.2143 8.82422C61.0841 9.32125 61.7055 9.69404 62.3268 10.1911V10.1911Z" fill="url(#paint15_radial_5346_143056)"/>
<path id="&#60;Path&#62;_13" style="mix-blend-mode:multiply" d="M62.203 9.55385C61.4575 8.43558 60.5877 7.44157 59.3452 6.82031C60.5877 7.44157 61.4575 8.06282 62.4515 8.80833C66.179 11.6661 66.8002 17.6302 63.9424 22.6003C61.0846 27.6946 55.4934 30.0554 51.2688 28.1916C50.1505 27.8189 49.1566 27.1976 47.9141 26.5763C49.9021 27.6946 52.1386 27.8189 54.3751 27.3219C57.8541 28.1916 61.9545 26.0793 64.191 21.979C66.5518 17.506 65.8062 12.4116 62.6999 9.92661C62.5342 9.84377 62.3687 9.71952 62.203 9.55385V9.55385Z" fill="url(#paint16_radial_5346_143056)"/>
<g id="&#60;Path&#62;_14" style="mix-blend-mode:screen">
<path d="M59.9641 7.33411C64.1889 9.69502 65.1829 15.9079 62.0764 21.2511C58.9699 26.4699 53.1298 28.8308 48.905 26.4699C44.8045 23.9848 43.8105 17.7718 46.9169 12.4287C49.8991 7.20986 55.8635 4.84894 59.9641 7.33411V7.33411Z" fill="#FCCE3A"/>
</g>
<path id="&#60;Path&#62;_15" d="M59.3419 6.82951C63.815 9.31455 64.809 15.8999 61.7027 21.367C58.5964 26.8341 52.3839 29.1948 47.9108 26.5855C43.562 23.9763 42.4437 17.5152 45.6742 12.0481C48.7805 6.581 54.9931 4.22022 59.3419 6.82951V6.82951Z" fill="url(#paint17_radial_5346_143056)"/>
<g id="&#60;Path&#62;_16" style="mix-blend-mode:screen">
<path d="M54.7442 24.7194C54.7442 24.9679 54.4957 25.2165 54.2472 25.2165C53.8744 25.3407 53.6259 25.2165 53.5016 25.0922C52.1348 25.465 50.7678 25.3407 49.6495 24.7194C46.046 23.1041 44.9277 18.1337 47.0401 13.6604C48.1584 11.1752 50.0223 9.31137 52.1347 8.44156C52.1347 8.19304 52.3832 7.82027 52.756 7.82027C53.1287 7.69601 53.3773 7.82025 53.6259 7.94451C54.0401 7.86167 54.4956 7.82027 54.9927 7.82027C55.1169 7.69601 55.3655 7.57174 55.614 7.696C55.7796 7.696 55.904 7.77883 55.9868 7.94451C56.401 8.02735 56.8152 8.19304 57.2294 8.44156C60.7086 10.0569 61.9512 15.0273 59.8388 19.5006C58.5962 21.9857 56.8566 23.8496 54.7442 24.7194Z" fill="#FFFCE4"/>
</g>
<path id="&#60;Path&#62;_17" d="M57.8545 8.81568C61.2095 10.6796 61.8308 15.7742 59.3456 19.9989C56.9847 24.2237 52.2628 26.2119 48.9078 24.2237C45.6771 22.3599 44.9316 17.3895 47.4168 13.0405C49.902 8.81569 54.4996 6.9518 57.8545 8.81568Z" fill="url(#paint18_radial_5346_143056)"/>
<path id="&#60;Path&#62;_18" style="mix-blend-mode:multiply" opacity="0.5" d="M49.6534 24.5965C49.4048 24.5137 49.1564 24.3894 48.9078 24.2237C45.6771 22.3599 44.9316 17.3895 47.4168 13.0405C49.902 8.81569 54.4996 6.9518 57.8545 8.81568C58.9729 9.43697 59.8427 10.431 60.3397 11.6736C60.0084 11.3423 59.5942 11.0523 59.0971 10.8038C55.9907 8.93994 51.5174 10.6796 49.1564 14.7801C47.1683 18.3836 47.4167 22.4841 49.6534 24.5965V24.5965Z" fill="url(#paint19_radial_5346_143056)"/>
<path id="&#60;Path&#62;_19" d="M48.9078 24.2178C45.6771 22.3539 44.9316 17.3836 47.4168 13.0345C49.902 8.80976 54.4995 6.94588 58.103 9.05828C54.8723 7.81569 50.7718 9.80383 48.5352 13.6558C46.2985 17.6321 46.6712 22.1054 48.9078 24.2178V24.2178Z" fill="url(#paint20_linear_5346_143056)"/>
<path id="&#60;Path&#62;_20" style="mix-blend-mode:multiply" d="M55.7421 8.6855C56.5704 8.6855 57.3574 8.80976 58.103 9.05828C54.4995 6.94588 49.902 8.80976 47.4168 13.0345C44.9316 17.3836 45.6771 22.3539 48.9078 24.2178C48.9078 23.9693 48.5351 23.5965 48.1623 23.2237C45.8014 21.1113 45.3044 16.8866 47.4168 13.2831C49.2807 9.80382 52.8841 7.93995 55.7421 8.6855V8.6855Z" fill="url(#paint21_radial_5346_143056)"/>
<path id="&#60;Path&#62;_21" style="mix-blend-mode:screen" d="M58.5991 10.6804C52.759 8.07097 47.2916 15.6507 48.0372 20.6211C51.2679 19.3785 56.7353 16.7691 58.5991 10.6804Z" fill="url(#paint22_radial_5346_143056)"/>
<g id="Group 1410068338_2" filter="url(#filter2_di_5346_143056)">
<g id="robot_2" filter="url(#filter3_d_5346_143056)">
<path id="Subtract_4" fill-rule="evenodd" clip-rule="evenodd" d="M50.0808 13.5858C50.9717 12.5644 52.2538 12.114 54.8749 13.0283C55.5508 13.3014 56.4927 13.8028 57.2479 14.5122C58.7671 15.9393 58.5463 18.508 57.1649 20.0615C56.547 20.7564 55.6804 21.2081 54.4482 21.0149C52.9893 20.608 49.7355 19.3981 48.9722 17.8928C48.795 17.5434 48.6377 17.0881 48.9026 16.0309C49.0636 15.3888 49.3571 14.7891 49.6706 14.2061C49.7883 13.9871 49.9174 13.7732 50.0808 13.5858ZM49.3967 16.2069C49.3326 16.7063 49.5024 17.0355 50.2816 17.2826C51.5481 17.6843 53.7005 18.7062 54.6184 19.167C54.7625 19.2363 54.9667 19.291 55.1945 19.2856C56.5259 19.2537 57.1179 17.6948 57.2062 16.3691C57.2735 15.3579 56.2569 14.4337 55.3375 14.0007C54.7473 13.7227 53.9768 13.4391 52.9366 13.1738C51.9578 12.9962 50.9862 12.9455 50.2793 14.0003C49.894 14.6968 49.498 15.4172 49.3967 16.2069Z" fill="white"/>
<path id="Ellipse 4054_2" d="M56.0613 12.2166C55.8783 12.6379 55.3884 12.831 54.9671 12.648C54.5458 12.465 54.3527 11.9751 54.5358 11.5538C54.7188 11.1325 55.2087 10.9394 55.63 11.1224C56.0512 11.3055 56.2444 11.7954 56.0613 12.2166Z" fill="white"/>
<path id="Rectangle 34625726_2" d="M54.8828 12.2871L55.1963 12.4233L54.97 12.9441L54.6565 12.8079L54.8828 12.2871Z" fill="white"/>
<path id="Rectangle 34625727_2" d="M54.8025 16.196C54.9245 15.9152 55.2511 15.7864 55.532 15.9085L55.7862 16.0189C56.0671 16.141 56.1958 16.4676 56.0738 16.7484L55.6871 17.6383C55.5651 17.9192 55.2385 18.0479 54.9577 17.9259L54.7034 17.8154C54.4225 17.6934 54.2938 17.3668 54.4158 17.086L54.8025 16.196Z" fill="white"/>
<path id="Rectangle 34625728_2" d="M50.9978 14.6687C51.1198 14.3878 51.4464 14.2591 51.7273 14.3811L51.9815 14.4916C52.2624 14.6136 52.3911 14.9402 52.2691 15.2211L51.8824 16.111C51.7604 16.3919 51.4338 16.5206 51.153 16.3986L50.8987 16.2881C50.6178 16.1661 50.4891 15.8395 50.6111 15.5586L50.9978 14.6687Z" fill="white"/>
<path id="Subtract_5" fill-rule="evenodd" clip-rule="evenodd" d="M57.5862 19.903C58.1651 19.1426 58.4923 18.1913 58.5113 17.2588L58.5322 17.2133L58.757 17.3166C59.1475 17.4961 59.3189 17.957 59.14 18.3461L58.6019 19.5166C58.4253 19.9007 57.9733 20.0712 57.5862 19.903Z" fill="white"/>
<path id="Subtract_6" fill-rule="evenodd" clip-rule="evenodd" d="M49.9985 13.5164C49.9937 13.5218 49.9889 13.5272 49.9842 13.5327C49.8207 13.72 49.6916 13.934 49.5739 14.1529C49.2605 14.736 48.9669 15.3357 48.8059 15.9778C48.7994 16.0038 48.7932 16.0294 48.7872 16.0546C48.4759 15.8565 48.3407 15.4589 48.4852 15.1061L48.9736 13.9141C49.1352 13.5194 49.5863 13.3299 49.9831 13.4898L50.0056 13.4989L49.9985 13.5164Z" fill="white"/>
<path id="Rectangle 34625729_2" d="M53.8884 12.7869C53.95 12.6295 54.1276 12.552 54.285 12.6136L55.3548 13.0329C55.5121 13.0945 55.5897 13.2721 55.5281 13.4295L53.8884 12.7869Z" fill="white"/>
</g>
</g>
<g id="&#60;Group&#62;_3">
<path id="&#60;Path&#62;_22" d="M62.4515 8.80833C66.179 11.6661 66.8002 17.6302 63.9424 22.6003C61.0846 27.6946 55.4934 30.0554 51.2688 28.1916C50.1505 27.8189 49.1566 27.1976 47.9141 26.5763L53.6296 16.6362L59.3452 6.82031C60.5877 7.44157 61.4575 8.06282 62.4515 8.80833V8.80833Z" fill="url(#paint23_linear_5346_143056)"/>
<path id="&#60;Path&#62;_23" style="mix-blend-mode:screen" d="M62.3268 10.1911C64.9362 12.1792 65.806 16.404 64.1907 20.256C62.6996 23.9838 59.3445 25.8477 56.4866 24.6051C55.741 24.3566 55.1198 23.9838 54.25 23.4867L57.2322 16.1555L60.2143 8.82422C61.0841 9.32125 61.7055 9.69404 62.3268 10.1911V10.1911Z" fill="url(#paint24_radial_5346_143056)"/>
<path id="&#60;Path&#62;_24" style="mix-blend-mode:multiply" d="M62.203 9.55385C61.4575 8.43558 60.5877 7.44157 59.3452 6.82031C60.5877 7.44157 61.4575 8.06282 62.4515 8.80833C66.179 11.6661 66.8002 17.6302 63.9424 22.6003C61.0846 27.6946 55.4934 30.0554 51.2688 28.1916C50.1505 27.8189 49.1566 27.1976 47.9141 26.5763C49.9021 27.6946 52.1386 27.8189 54.3751 27.3219C57.8541 28.1916 61.9545 26.0793 64.191 21.979C66.5518 17.506 65.8062 12.4116 62.6999 9.92661C62.5342 9.84377 62.3687 9.71952 62.203 9.55385V9.55385Z" fill="url(#paint25_radial_5346_143056)"/>
<g id="&#60;Path&#62;_25" style="mix-blend-mode:screen">
<path d="M59.9641 7.33411C64.1889 9.69502 65.1829 15.9079 62.0764 21.2511C58.9699 26.4699 53.1298 28.8308 48.905 26.4699C44.8045 23.9848 43.8105 17.7718 46.9169 12.4287C49.8991 7.20986 55.8635 4.84894 59.9641 7.33411V7.33411Z" fill="#FCCE3A"/>
</g>
<path id="&#60;Path&#62;_26" d="M59.3419 6.82951C63.815 9.31455 64.809 15.8999 61.7027 21.367C58.5964 26.8341 52.3839 29.1948 47.9108 26.5855C43.562 23.9763 42.4437 17.5152 45.6742 12.0481C48.7805 6.581 54.9931 4.22022 59.3419 6.82951V6.82951Z" fill="url(#paint26_radial_5346_143056)"/>
<g id="&#60;Path&#62;_27" style="mix-blend-mode:screen">
<path d="M54.7442 24.7194C54.7442 24.9679 54.4957 25.2165 54.2472 25.2165C53.8744 25.3407 53.6259 25.2165 53.5016 25.0922C52.1348 25.465 50.7678 25.3407 49.6495 24.7194C46.046 23.1041 44.9277 18.1337 47.0401 13.6604C48.1584 11.1752 50.0223 9.31137 52.1347 8.44156C52.1347 8.19304 52.3832 7.82027 52.756 7.82027C53.1287 7.69601 53.3773 7.82025 53.6259 7.94451C54.0401 7.86167 54.4956 7.82027 54.9927 7.82027C55.1169 7.69601 55.3655 7.57174 55.614 7.696C55.7796 7.696 55.904 7.77883 55.9868 7.94451C56.401 8.02735 56.8152 8.19304 57.2294 8.44156C60.7086 10.0569 61.9512 15.0273 59.8388 19.5006C58.5962 21.9857 56.8566 23.8496 54.7442 24.7194Z" fill="#FFFCE4"/>
</g>
<path id="&#60;Path&#62;_28" d="M57.8545 8.81568C61.2095 10.6796 61.8308 15.7742 59.3456 19.9989C56.9847 24.2237 52.2628 26.2119 48.9078 24.2237C45.6771 22.3599 44.9316 17.3895 47.4168 13.0405C49.902 8.81569 54.4996 6.9518 57.8545 8.81568Z" fill="url(#paint27_radial_5346_143056)"/>
<path id="&#60;Path&#62;_29" style="mix-blend-mode:multiply" opacity="0.5" d="M49.6534 24.5965C49.4048 24.5137 49.1564 24.3894 48.9078 24.2237C45.6771 22.3599 44.9316 17.3895 47.4168 13.0405C49.902 8.81569 54.4996 6.9518 57.8545 8.81568C58.9729 9.43697 59.8427 10.431 60.3397 11.6736C60.0084 11.3423 59.5942 11.0523 59.0971 10.8038C55.9907 8.93994 51.5174 10.6796 49.1564 14.7801C47.1683 18.3836 47.4167 22.4841 49.6534 24.5965V24.5965Z" fill="url(#paint28_radial_5346_143056)"/>
<path id="&#60;Path&#62;_30" d="M48.9078 24.2178C45.6771 22.3539 44.9316 17.3836 47.4168 13.0345C49.902 8.80976 54.4995 6.94588 58.103 9.05828C54.8723 7.81569 50.7718 9.80383 48.5352 13.6558C46.2985 17.6321 46.6712 22.1054 48.9078 24.2178V24.2178Z" fill="url(#paint29_linear_5346_143056)"/>
<path id="&#60;Path&#62;_31" style="mix-blend-mode:multiply" d="M55.7421 8.6855C56.5704 8.6855 57.3574 8.80976 58.103 9.05828C54.4995 6.94588 49.902 8.80976 47.4168 13.0345C44.9316 17.3836 45.6771 22.3539 48.9078 24.2178C48.9078 23.9693 48.5351 23.5965 48.1623 23.2237C45.8014 21.1113 45.3044 16.8866 47.4168 13.2831C49.2807 9.80382 52.8841 7.93995 55.7421 8.6855V8.6855Z" fill="url(#paint30_radial_5346_143056)"/>
<path id="&#60;Path&#62;_32" style="mix-blend-mode:screen" d="M58.5991 10.6804C52.759 8.07097 47.2916 15.6507 48.0372 20.6211C51.2679 19.3785 56.7353 16.7691 58.5991 10.6804Z" fill="url(#paint31_radial_5346_143056)"/>
<g id="Group 1410068338_3" filter="url(#filter4_di_5346_143056)">
<g id="robot_3" filter="url(#filter5_d_5346_143056)">
<path id="Subtract_7" fill-rule="evenodd" clip-rule="evenodd" d="M50.0808 13.5858C50.9717 12.5644 52.2538 12.114 54.8749 13.0283C55.5508 13.3014 56.4927 13.8028 57.2479 14.5122C58.7671 15.9393 58.5463 18.508 57.1649 20.0615C56.547 20.7564 55.6804 21.2081 54.4482 21.0149C52.9893 20.608 49.7355 19.3981 48.9722 17.8928C48.795 17.5434 48.6377 17.0881 48.9026 16.0309C49.0636 15.3888 49.3571 14.7891 49.6706 14.2061C49.7883 13.9871 49.9174 13.7732 50.0808 13.5858ZM49.3967 16.2069C49.3326 16.7063 49.5024 17.0355 50.2816 17.2826C51.5481 17.6843 53.7005 18.7062 54.6184 19.167C54.7625 19.2363 54.9667 19.291 55.1945 19.2856C56.5259 19.2537 57.1179 17.6948 57.2062 16.3691C57.2735 15.3579 56.2569 14.4337 55.3375 14.0007C54.7473 13.7227 53.9768 13.4391 52.9366 13.1738C51.9578 12.9962 50.9862 12.9455 50.2793 14.0003C49.894 14.6968 49.498 15.4172 49.3967 16.2069Z" fill="white"/>
<path id="Ellipse 4054_3" d="M56.0535 12.2166C55.8705 12.6379 55.3806 12.831 54.9593 12.648C54.538 12.465 54.3449 11.9751 54.5279 11.5538C54.711 11.1325 55.2009 10.9394 55.6222 11.1224C56.0434 11.3055 56.2365 11.7954 56.0535 12.2166Z" fill="white"/>
<path id="Rectangle 34625726_3" d="M54.875 12.2852L55.1885 12.4214L54.9622 12.9422L54.6487 12.806L54.875 12.2852Z" fill="white"/>
<path id="Rectangle 34625727_3" d="M54.8025 16.1941C54.9245 15.9132 55.2511 15.7845 55.532 15.9065L55.7862 16.017C56.0671 16.139 56.1958 16.4656 56.0738 16.7465L55.6871 17.6364C55.5651 17.9172 55.2385 18.046 54.9577 17.924L54.7034 17.8135C54.4225 17.6914 54.2938 17.3649 54.4158 17.084L54.8025 16.1941Z" fill="white"/>
<path id="Rectangle 34625728_3" d="M50.9978 14.6667C51.1198 14.3859 51.4464 14.2571 51.7273 14.3792L51.9815 14.4896C52.2624 14.6117 52.3911 14.9383 52.2691 15.2191L51.8824 16.1091C51.7604 16.3899 51.4338 16.5186 51.153 16.3966L50.8987 16.2861C50.6178 16.1641 50.4891 15.8375 50.6111 15.5567L50.9978 14.6667Z" fill="white"/>
<path id="Subtract_8" fill-rule="evenodd" clip-rule="evenodd" d="M57.5862 19.903C58.1651 19.1426 58.4923 18.1913 58.5113 17.2588L58.5322 17.2133L58.757 17.3166C59.1475 17.4961 59.3189 17.957 59.14 18.3461L58.6019 19.5166C58.4253 19.9007 57.9733 20.0712 57.5862 19.903Z" fill="white"/>
<path id="Subtract_9" fill-rule="evenodd" clip-rule="evenodd" d="M49.9907 13.5203C49.9859 13.5257 49.9811 13.5311 49.9764 13.5366C49.8129 13.7239 49.6838 13.9379 49.5661 14.1568C49.2526 14.7399 48.9591 15.3396 48.7981 15.9817C48.7916 16.0077 48.7854 16.0333 48.7794 16.0585C48.4681 15.8604 48.3329 15.4628 48.4774 15.11L48.9657 13.918C49.1274 13.5233 49.5784 13.3338 49.9753 13.4937L49.9978 13.5028L49.9907 13.5203Z" fill="white"/>
<path id="Rectangle 34625729_3" d="M53.8884 12.7908C53.95 12.6335 54.1276 12.5559 54.285 12.6175L55.3548 13.0368C55.5121 13.0985 55.5897 13.276 55.5281 13.4334L53.8884 12.7908Z" fill="white"/>
</g>
</g>
<g id="&#60;Group&#62;_4">
<path id="&#60;Path&#62;_33" d="M62.4515 8.80833C66.179 11.6661 66.8002 17.6302 63.9424 22.6003C61.0846 27.6946 55.4934 30.0554 51.2688 28.1916C50.1505 27.8189 49.1566 27.1976 47.9141 26.5763L53.6296 16.6362L59.3452 6.82031C60.5877 7.44157 61.4575 8.06282 62.4515 8.80833V8.80833Z" fill="url(#paint32_linear_5346_143056)"/>
<path id="&#60;Path&#62;_34" style="mix-blend-mode:screen" d="M62.3268 10.1911C64.9362 12.1792 65.806 16.404 64.1907 20.256C62.6996 23.9838 59.3445 25.8477 56.4866 24.6051C55.741 24.3566 55.1198 23.9838 54.25 23.4867L57.2322 16.1555L60.2143 8.82422C61.0841 9.32125 61.7055 9.69404 62.3268 10.1911V10.1911Z" fill="url(#paint33_radial_5346_143056)"/>
<path id="&#60;Path&#62;_35" style="mix-blend-mode:multiply" d="M62.203 9.55385C61.4575 8.43558 60.5877 7.44157 59.3452 6.82031C60.5877 7.44157 61.4575 8.06282 62.4515 8.80833C66.179 11.6661 66.8002 17.6302 63.9424 22.6003C61.0846 27.6946 55.4934 30.0554 51.2688 28.1916C50.1505 27.8189 49.1566 27.1976 47.9141 26.5763C49.9021 27.6946 52.1386 27.8189 54.3751 27.3219C57.8541 28.1916 61.9545 26.0793 64.191 21.979C66.5518 17.506 65.8062 12.4116 62.6999 9.92661C62.5342 9.84377 62.3687 9.71952 62.203 9.55385V9.55385Z" fill="url(#paint34_radial_5346_143056)"/>
<g id="&#60;Path&#62;_36" style="mix-blend-mode:screen">
<path d="M59.9641 7.33411C64.1889 9.69502 65.1829 15.9079 62.0764 21.2511C58.9699 26.4699 53.1298 28.8308 48.905 26.4699C44.8045 23.9848 43.8105 17.7718 46.9169 12.4287C49.8991 7.20986 55.8635 4.84894 59.9641 7.33411V7.33411Z" fill="#3AC2FC"/>
</g>
<path id="&#60;Path&#62;_37" d="M59.3419 6.82951C63.815 9.31455 64.809 15.8999 61.7027 21.367C58.5964 26.8341 52.3839 29.1948 47.9108 26.5855C43.562 23.9763 42.4437 17.5152 45.6742 12.0481C48.7805 6.581 54.9931 4.22022 59.3419 6.82951V6.82951Z" fill="url(#paint35_radial_5346_143056)"/>
<path id="&#60;Path&#62;_38" d="M57.8545 8.81568C61.2095 10.6796 61.8308 15.7742 59.3456 19.9989C56.9847 24.2237 52.2628 26.2119 48.9078 24.2237C45.6771 22.3599 44.9316 17.3895 47.4168 13.0405C49.902 8.81569 54.4996 6.9518 57.8545 8.81568Z" fill="url(#paint36_radial_5346_143056)"/>
<path id="&#60;Path&#62;_39" style="mix-blend-mode:multiply" opacity="0.5" d="M49.6534 24.5965C49.4048 24.5137 49.1564 24.3894 48.9078 24.2237C45.6771 22.3599 44.9316 17.3895 47.4168 13.0405C49.902 8.81569 54.4996 6.9518 57.8545 8.81568C58.9729 9.43697 59.8427 10.431 60.3397 11.6736C60.0084 11.3423 59.5942 11.0523 59.0971 10.8038C55.9907 8.93994 51.5174 10.6796 49.1564 14.7801C47.1683 18.3836 47.4167 22.4841 49.6534 24.5965V24.5965Z" fill="url(#paint37_radial_5346_143056)"/>
<path id="&#60;Path&#62;_40" d="M48.9078 24.2178C45.6771 22.3539 44.9316 17.3836 47.4168 13.0345C49.902 8.80976 54.4995 6.94588 58.103 9.05828C54.8723 7.81569 50.7718 9.80383 48.5352 13.6558C46.2985 17.6321 46.6712 22.1054 48.9078 24.2178V24.2178Z" fill="url(#paint38_linear_5346_143056)"/>
<path id="&#60;Path&#62;_41" style="mix-blend-mode:multiply" d="M55.7421 8.6855C56.5704 8.6855 57.3574 8.80976 58.103 9.05828C54.4995 6.94588 49.902 8.80976 47.4168 13.0345C44.9316 17.3836 45.6771 22.3539 48.9078 24.2178C48.9078 23.9693 48.5351 23.5965 48.1623 23.2237C45.8014 21.1113 45.3044 16.8866 47.4168 13.2831C49.2807 9.80382 52.8841 7.93995 55.7421 8.6855V8.6855Z" fill="url(#paint39_radial_5346_143056)"/>
<path id="&#60;Path&#62;_42" style="mix-blend-mode:screen" d="M58.5991 10.6804C52.759 8.07097 47.2916 15.6507 48.0372 20.6211C51.2679 19.3785 56.7353 16.7691 58.5991 10.6804Z" fill="url(#paint40_radial_5346_143056)"/>
<g id="Vector_17" filter="url(#filter6_d_5346_143056)">
<path d="M57.3912 17.2569L51.2514 21.0342C51.1766 21.08 51.0935 21.1059 51.0097 21.1095C50.9259 21.1131 50.8443 21.0943 50.7725 21.0548C50.7008 21.0153 50.6411 20.9564 50.5993 20.8837C50.5575 20.811 50.5348 20.7268 50.5334 20.6391L50.4446 13.466C50.4424 13.265 50.4934 13.0629 50.5921 12.8822C50.7415 12.6175 50.9804 12.418 51.2564 12.3273C51.5323 12.2367 51.8228 12.2623 52.0642 12.3986L57.4204 15.3194C57.932 15.5984 58.1066 16.2677 57.8084 16.8145C57.7095 16.9958 57.5653 17.1496 57.3912 17.2569ZM51.3011 13.6978L51.4795 18.8276L53.8079 14.5576L51.754 13.4376C51.5163 13.308 51.3164 13.4223 51.3011 13.6978ZM52.3287 19.2907L56.7381 16.6626C56.9634 16.5016 56.9488 16.2704 56.7111 16.1407L54.6571 15.0207L52.3287 19.2907Z" fill="white"/>
</g>
</g>
</g>
</g>
<path id="Vector_18" d="M83.9515 0L82.6829 5.17885L78 6.55323L82.6829 7.92696L83.9515 13L85.3175 7.92696L90 6.55323L85.3175 5.17885L83.9515 0Z" fill="url(#paint41_linear_5346_143056)"/>
<path id="Vector_19" d="M87.202 15.2705L87.7622 13.2833L89.8913 12.8644L87.7622 12.4461L87.202 10.459L86.7541 12.4461L84.625 12.8644L86.7541 13.2833L87.202 15.2705Z" fill="url(#paint42_linear_5346_143056)"/>
<path id="Vector_20" d="M5.82718 15.2135L3.47411 14.6907L2.91399 12.4941L2.35346 14.6907L0 15.2135L2.35346 15.7367L2.91399 17.8282L3.47411 15.7367L5.82718 15.2135Z" fill="url(#paint43_linear_5346_143056)"/>
<path id="Vector_21" d="M12.7792 5.64756C12.7792 4.89931 12.1292 4.29297 11.3275 4.29297C10.5258 4.29297 9.875 4.89931 9.875 5.64756C9.875 6.39618 10.5258 7.00252 11.3275 7.00252C12.1292 7.00252 12.7792 6.39618 12.7792 5.64756Z" fill="url(#paint44_linear_5346_143056)"/>
<path id="Vector_22" d="M5.83612 26.3526L1 27.6913L5.83612 28.6474L6.91107 34L8.16389 28.6474L13 27.6913L8.16389 26.3526L6.91107 21L5.83612 26.3526Z" fill="url(#paint45_linear_5346_143056)"/>
</g>
<defs>
<filter id="filter0_di_5346_143056" x="25.5781" y="26.7305" width="18.7812" height="18.0039" filterUnits="userSpaceOnUse" color-interpolation-filters="sRGB">
<feFlood flood-opacity="0" result="BackgroundImageFix"/>
<feColorMatrix in="SourceAlpha" type="matrix" values="0 0 0 0 0 0 0 0 0 0 0 0 0 0 0 0 0 0 127 0" result="hardAlpha"/>
<feOffset dy="4"/>
<feGaussianBlur stdDeviation="2"/>
<feComposite in2="hardAlpha" operator="out"/>
<feColorMatrix type="matrix" values="0 0 0 0 0.920833 0 0 0 0 0.830822 0 0 0 0 0.656094 0 0 0 0.25 0"/>
<feBlend mode="normal" in2="BackgroundImageFix" result="effect1_dropShadow_5346_143056"/>
<feBlend mode="normal" in="SourceGraphic" in2="effect1_dropShadow_5346_143056" result="shape"/>
<feColorMatrix in="SourceAlpha" type="matrix" values="0 0 0 0 0 0 0 0 0 0 0 0 0 0 0 0 0 0 127 0" result="hardAlpha"/>
<feOffset/>
<feGaussianBlur stdDeviation="0.65"/>
<feComposite in2="hardAlpha" operator="arithmetic" k2="-1" k3="1"/>
<feColorMatrix type="matrix" values="0 0 0 0 0.504476 0 0 0 0 0.454028 0 0 0 0 0 0 0 0 0.25 0"/>
<feBlend mode="normal" in2="shape" result="effect2_innerShadow_5346_143056"/>
</filter>
<filter id="filter1_d_5346_143056" x="29.5781" y="26.7305" width="11.3813" height="10.3039" filterUnits="userSpaceOnUse" color-interpolation-filters="sRGB">
<feFlood flood-opacity="0" result="BackgroundImageFix"/>
<feColorMatrix in="SourceAlpha" type="matrix" values="0 0 0 0 0 0 0 0 0 0 0 0 0 0 0 0 0 0 127 0" result="hardAlpha"/>
<feOffset dx="0.5" dy="0.2"/>
<feGaussianBlur stdDeviation="0.05"/>
<feComposite in2="hardAlpha" operator="out"/>
<feColorMatrix type="matrix" values="0 0 0 0 1 0 0 0 0 1 0 0 0 0 1 0 0 0 0.61 0"/>
<feBlend mode="normal" in2="BackgroundImageFix" result="effect1_dropShadow_5346_143056"/>
<feBlend mode="normal" in="SourceGraphic" in2="effect1_dropShadow_5346_143056" result="shape"/>
</filter>
<filter id="filter2_di_5346_143056" x="44.4297" y="11.0527" width="18.7812" height="18.0078" filterUnits="userSpaceOnUse" color-interpolation-filters="sRGB">
<feFlood flood-opacity="0" result="BackgroundImageFix"/>
<feColorMatrix in="SourceAlpha" type="matrix" values="0 0 0 0 0 0 0 0 0 0 0 0 0 0 0 0 0 0 127 0" result="hardAlpha"/>
<feOffset dy="4"/>
<feGaussianBlur stdDeviation="2"/>
<feComposite in2="hardAlpha" operator="out"/>
<feColorMatrix type="matrix" values="0 0 0 0 0.920833 0 0 0 0 0.830822 0 0 0 0 0.656094 0 0 0 0.25 0"/>
<feBlend mode="normal" in2="BackgroundImageFix" result="effect1_dropShadow_5346_143056"/>
<feBlend mode="normal" in="SourceGraphic" in2="effect1_dropShadow_5346_143056" result="shape"/>
<feColorMatrix in="SourceAlpha" type="matrix" values="0 0 0 0 0 0 0 0 0 0 0 0 0 0 0 0 0 0 127 0" result="hardAlpha"/>
<feOffset/>
<feGaussianBlur stdDeviation="0.65"/>
<feComposite in2="hardAlpha" operator="arithmetic" k2="-1" k3="1"/>
<feColorMatrix type="matrix" values="0 0 0 0 0.504476 0 0 0 0 0.454028 0 0 0 0 0 0 0 0 0.25 0"/>
<feBlend mode="normal" in2="shape" result="effect2_innerShadow_5346_143056"/>
</filter>
<filter id="filter3_d_5346_143056" x="48.4297" y="11.0527" width="11.3813" height="10.3078" filterUnits="userSpaceOnUse" color-interpolation-filters="sRGB">
<feFlood flood-opacity="0" result="BackgroundImageFix"/>
<feColorMatrix in="SourceAlpha" type="matrix" values="0 0 0 0 0 0 0 0 0 0 0 0 0 0 0 0 0 0 127 0" result="hardAlpha"/>
<feOffset dx="0.5" dy="0.2"/>
<feGaussianBlur stdDeviation="0.05"/>
<feComposite in2="hardAlpha" operator="out"/>
<feColorMatrix type="matrix" values="0 0 0 0 1 0 0 0 0 1 0 0 0 0 1 0 0 0 0.61 0"/>
<feBlend mode="normal" in2="BackgroundImageFix" result="effect1_dropShadow_5346_143056"/>
<feBlend mode="normal" in="SourceGraphic" in2="effect1_dropShadow_5346_143056" result="shape"/>
</filter>
<filter id="filter4_di_5346_143056" x="44.4219" y="11.0527" width="18.7891" height="18.0078" filterUnits="userSpaceOnUse" color-interpolation-filters="sRGB">
<feFlood flood-opacity="0" result="BackgroundImageFix"/>
<feColorMatrix in="SourceAlpha" type="matrix" values="0 0 0 0 0 0 0 0 0 0 0 0 0 0 0 0 0 0 127 0" result="hardAlpha"/>
<feOffset dy="4"/>
<feGaussianBlur stdDeviation="2"/>
<feComposite in2="hardAlpha" operator="out"/>
<feColorMatrix type="matrix" values="0 0 0 0 0.920833 0 0 0 0 0.830822 0 0 0 0 0.656094 0 0 0 0.25 0"/>
<feBlend mode="normal" in2="BackgroundImageFix" result="effect1_dropShadow_5346_143056"/>
<feBlend mode="normal" in="SourceGraphic" in2="effect1_dropShadow_5346_143056" result="shape"/>
<feColorMatrix in="SourceAlpha" type="matrix" values="0 0 0 0 0 0 0 0 0 0 0 0 0 0 0 0 0 0 127 0" result="hardAlpha"/>
<feOffset/>
<feGaussianBlur stdDeviation="0.65"/>
<feComposite in2="hardAlpha" operator="arithmetic" k2="-1" k3="1"/>
<feColorMatrix type="matrix" values="0 0 0 0 0.504476 0 0 0 0 0.454028 0 0 0 0 0 0 0 0 0.25 0"/>
<feBlend mode="normal" in2="shape" result="effect2_innerShadow_5346_143056"/>
</filter>
<filter id="filter5_d_5346_143056" x="48.4219" y="11.0527" width="11.3891" height="10.3078" filterUnits="userSpaceOnUse" color-interpolation-filters="sRGB">
<feFlood flood-opacity="0" result="BackgroundImageFix"/>
<feColorMatrix in="SourceAlpha" type="matrix" values="0 0 0 0 0 0 0 0 0 0 0 0 0 0 0 0 0 0 127 0" result="hardAlpha"/>
<feOffset dx="0.5" dy="0.2"/>
<feGaussianBlur stdDeviation="0.05"/>
<feComposite in2="hardAlpha" operator="out"/>
<feColorMatrix type="matrix" values="0 0 0 0 1 0 0 0 0 1 0 0 0 0 1 0 0 0 0.61 0"/>
<feBlend mode="normal" in2="BackgroundImageFix" result="effect1_dropShadow_5346_143056"/>
<feBlend mode="normal" in="SourceGraphic" in2="effect1_dropShadow_5346_143056" result="shape"/>
</filter>
<filter id="filter6_d_5346_143056" x="49.8453" y="12.2734" width="8.70781" height="10.4359" filterUnits="userSpaceOnUse" color-interpolation-filters="sRGB">
<feFlood flood-opacity="0" result="BackgroundImageFix"/>
<feColorMatrix in="SourceAlpha" type="matrix" values="0 0 0 0 0 0 0 0 0 0 0 0 0 0 0 0 0 0 127 0" result="hardAlpha"/>
<feOffset dy="1"/>
<feGaussianBlur stdDeviation="0.3"/>
<feComposite in2="hardAlpha" operator="out"/>
<feColorMatrix type="matrix" values="0 0 0 0 0 0 0 0 0 0 0 0 0 0 0 0 0 0 0.25 0"/>
<feBlend mode="normal" in2="BackgroundImageFix" result="effect1_dropShadow_5346_143056"/>
<feBlend mode="normal" in="SourceGraphic" in2="effect1_dropShadow_5346_143056" result="shape"/>
</filter>
<linearGradient id="paint0_linear_5346_143056" x1="22.4856" y1="38.2613" x2="45.3192" y2="92.4879" gradientUnits="userSpaceOnUse">
<stop stop-color="#6E5DE7"/>
<stop offset="1" stop-color="#4835CE"/>
</linearGradient>
<linearGradient id="paint1_linear_5346_143056" x1="21.9243" y1="37.3903" x2="45.793" y2="93.5161" gradientUnits="userSpaceOnUse">
<stop stop-color="#6E5DE7"/>
<stop offset="1" stop-color="#4835CE"/>
</linearGradient>
<linearGradient id="paint2_linear_5346_143056" x1="45.5314" y1="68.218" x2="40.6642" y2="34.027" gradientUnits="userSpaceOnUse">
<stop stop-color="#2ECC71"/>
<stop offset="1" stop-color="#1AAF59"/>
</linearGradient>
<linearGradient id="paint3_linear_5346_143056" x1="48.943" y1="36.5396" x2="38.1337" y2="17.7788" gradientUnits="userSpaceOnUse">
<stop stop-color="#E86F0C"/>
<stop offset="0.7" stop-color="#FC940D"/>
<stop offset="1" stop-color="#E86F0C"/>
</linearGradient>
<radialGradient id="paint4_radial_5346_143056" cx="0" cy="0" r="1" gradientUnits="userSpaceOnUse" gradientTransform="translate(31.6736 31.7101) rotate(180) scale(9.93953 9.93954)">
<stop stop-color="#FFF369"/>
<stop offset="1"/>
</radialGradient>
<radialGradient id="paint5_radial_5346_143056" cx="0" cy="0" r="1" gradientUnits="userSpaceOnUse" gradientTransform="translate(37.3884 30.8244) rotate(180) scale(14.6607 14.6608)">
<stop offset="0.5" stop-color="white"/>
<stop offset="1" stop-color="#B09444"/>
</radialGradient>
<radialGradient id="paint6_radial_5346_143056" cx="0" cy="0" r="1" gradientUnits="userSpaceOnUse" gradientTransform="translate(38.7586 23.3788) rotate(180) scale(17.5184 17.5184)">
<stop stop-color="#FCF80D"/>
<stop offset="1" stop-color="#FC9C0D"/>
</radialGradient>
<radialGradient id="paint7_radial_5346_143056" cx="0" cy="0" r="1" gradientUnits="userSpaceOnUse" gradientTransform="translate(43.8495 21.6377) rotate(180) scale(21.4942 21.4942)">
<stop stop-color="#FCF80D"/>
<stop offset="1" stop-color="#F78A0C"/>
</radialGradient>
<radialGradient id="paint8_radial_5346_143056" cx="0" cy="0" r="1" gradientUnits="userSpaceOnUse" gradientTransform="translate(31.1766 34.4348) rotate(180) scale(13.1699 13.1699)">
<stop offset="0.5" stop-color="white"/>
<stop offset="1" stop-color="#FFA84B"/>
</radialGradient>
<linearGradient id="paint9_linear_5346_143056" x1="52.6709" y1="32.0702" x2="44.595" y2="18.0306" gradientUnits="userSpaceOnUse">
<stop stop-color="#FC940D"/>
<stop offset="1" stop-color="#E86F0C"/>
</linearGradient>
<radialGradient id="paint10_radial_5346_143056" cx="0" cy="0" r="1" gradientUnits="userSpaceOnUse" gradientTransform="translate(31.3009 34.9278) rotate(180) scale(12.3002 12.3002)">
<stop offset="0.5" stop-color="white"/>
<stop offset="1" stop-color="#B09444"/>
</radialGradient>
<radialGradient id="paint11_radial_5346_143056" cx="0" cy="0" r="1" gradientUnits="userSpaceOnUse" gradientTransform="translate(44.4714 23.1316) rotate(180) scale(17.0214 17.0214)">
<stop stop-color="#FFF369"/>
<stop offset="1"/>
</radialGradient>
<linearGradient id="paint12_linear_5346_143056" x1="22.2049" y1="40.517" x2="44.0059" y2="94.147" gradientUnits="userSpaceOnUse">
<stop stop-color="#6E5DE7"/>
<stop offset="1" stop-color="#4835CE"/>
</linearGradient>
<linearGradient id="paint13_linear_5346_143056" x1="83.1197" y1="47.2411" x2="78.3694" y2="74.7778" gradientUnits="userSpaceOnUse">
<stop stop-color="#6E5DE7"/>
<stop offset="1" stop-color="#4835CE"/>
</linearGradient>
<linearGradient id="paint14_linear_5346_143056" x1="39.8377" y1="20.8608" x2="50.6477" y2="2.09879" gradientUnits="userSpaceOnUse">
<stop stop-color="#E86F0C"/>
<stop offset="0.7" stop-color="#FC940D"/>
<stop offset="1" stop-color="#E86F0C"/>
</linearGradient>
<radialGradient id="paint15_radial_5346_143056" cx="0" cy="0" r="1" gradientUnits="userSpaceOnUse" gradientTransform="translate(57.1079 16.0312) scale(9.94068 9.94069)">
<stop stop-color="#FFF369"/>
<stop offset="1"/>
</radialGradient>
<radialGradient id="paint16_radial_5346_143056" cx="0" cy="0" r="1" gradientUnits="userSpaceOnUse" gradientTransform="translate(51.3931 15.1452) scale(14.6616 14.6617)">
<stop offset="0.5" stop-color="white"/>
<stop offset="1" stop-color="#B09444"/>
</radialGradient>
<radialGradient id="paint17_radial_5346_143056" cx="0" cy="0" r="1" gradientUnits="userSpaceOnUse" gradientTransform="translate(50.023 7.69927) scale(17.5195)">
<stop stop-color="#FCF80D"/>
<stop offset="1" stop-color="#FC9C0D"/>
</radialGradient>
<radialGradient id="paint18_radial_5346_143056" cx="0" cy="0" r="1" gradientUnits="userSpaceOnUse" gradientTransform="translate(44.9316 5.95773) scale(21.4967 21.4967)">
<stop stop-color="#FCF80D"/>
<stop offset="1" stop-color="#F78A0C"/>
</radialGradient>
<radialGradient id="paint19_radial_5346_143056" cx="0" cy="0" r="1" gradientUnits="userSpaceOnUse" gradientTransform="translate(57.606 18.7564) scale(13.1714 13.1714)">
<stop offset="0.5" stop-color="white"/>
<stop offset="1" stop-color="#FFA84B"/>
</radialGradient>
<linearGradient id="paint20_linear_5346_143056" x1="36.1093" y1="16.3895" x2="44.1861" y2="2.34832" gradientUnits="userSpaceOnUse">
<stop stop-color="#FC940D"/>
<stop offset="1" stop-color="#E86F0C"/>
</linearGradient>
<radialGradient id="paint21_radial_5346_143056" cx="0" cy="0" r="1" gradientUnits="userSpaceOnUse" gradientTransform="translate(57.4817 19.2475) scale(12.3016 12.3016)">
<stop offset="0.5" stop-color="white"/>
<stop offset="1" stop-color="#B09444"/>
</radialGradient>
<radialGradient id="paint22_radial_5346_143056" cx="0" cy="0" r="1" gradientUnits="userSpaceOnUse" gradientTransform="translate(44.3094 7.44967) scale(17.0234 17.0234)">
<stop stop-color="#FFF369"/>
<stop offset="1"/>
</radialGradient>
<linearGradient id="paint23_linear_5346_143056" x1="39.8377" y1="20.8608" x2="50.6477" y2="2.09879" gradientUnits="userSpaceOnUse">
<stop stop-color="#E86F0C"/>
<stop offset="0.7" stop-color="#FC940D"/>
<stop offset="1" stop-color="#E86F0C"/>
</linearGradient>
<radialGradient id="paint24_radial_5346_143056" cx="0" cy="0" r="1" gradientUnits="userSpaceOnUse" gradientTransform="translate(57.1079 16.0312) scale(9.94068 9.94069)">
<stop stop-color="#FFF369"/>
<stop offset="1"/>
</radialGradient>
<radialGradient id="paint25_radial_5346_143056" cx="0" cy="0" r="1" gradientUnits="userSpaceOnUse" gradientTransform="translate(51.3931 15.1452) scale(14.6616 14.6617)">
<stop offset="0.5" stop-color="white"/>
<stop offset="1" stop-color="#B09444"/>
</radialGradient>
<radialGradient id="paint26_radial_5346_143056" cx="0" cy="0" r="1" gradientUnits="userSpaceOnUse" gradientTransform="translate(50.023 7.69927) scale(17.5195)">
<stop stop-color="#FCF80D"/>
<stop offset="1" stop-color="#FC9C0D"/>
</radialGradient>
<radialGradient id="paint27_radial_5346_143056" cx="0" cy="0" r="1" gradientUnits="userSpaceOnUse" gradientTransform="translate(44.9316 5.95773) scale(21.4967 21.4967)">
<stop stop-color="#FCF80D"/>
<stop offset="1" stop-color="#F78A0C"/>
</radialGradient>
<radialGradient id="paint28_radial_5346_143056" cx="0" cy="0" r="1" gradientUnits="userSpaceOnUse" gradientTransform="translate(57.606 18.7564) scale(13.1714 13.1714)">
<stop offset="0.5" stop-color="white"/>
<stop offset="1" stop-color="#FFA84B"/>
</radialGradient>
<linearGradient id="paint29_linear_5346_143056" x1="36.1093" y1="16.3895" x2="44.1861" y2="2.34832" gradientUnits="userSpaceOnUse">
<stop stop-color="#FC940D"/>
<stop offset="1" stop-color="#E86F0C"/>
</linearGradient>
<radialGradient id="paint30_radial_5346_143056" cx="0" cy="0" r="1" gradientUnits="userSpaceOnUse" gradientTransform="translate(57.4817 19.2475) scale(12.3016 12.3016)">
<stop offset="0.5" stop-color="white"/>
<stop offset="1" stop-color="#B09444"/>
</radialGradient>
<radialGradient id="paint31_radial_5346_143056" cx="0" cy="0" r="1" gradientUnits="userSpaceOnUse" gradientTransform="translate(44.3094 7.44967) scale(17.0234 17.0234)">
<stop stop-color="#FFF369"/>
<stop offset="1"/>
</radialGradient>
<linearGradient id="paint32_linear_5346_143056" x1="39.8377" y1="20.8608" x2="50.6477" y2="2.09879" gradientUnits="userSpaceOnUse">
<stop stop-color="#0CB3E8"/>
<stop offset="0.7" stop-color="#0DA6FC"/>
<stop offset="1" stop-color="#0CDBE8"/>
</linearGradient>
<radialGradient id="paint33_radial_5346_143056" cx="0" cy="0" r="1" gradientUnits="userSpaceOnUse" gradientTransform="translate(57.1079 16.0312) scale(9.94068 9.94069)">
<stop stop-color="#69DBFF"/>
<stop offset="1"/>
</radialGradient>
<radialGradient id="paint34_radial_5346_143056" cx="0" cy="0" r="1" gradientUnits="userSpaceOnUse" gradientTransform="translate(51.3931 15.1452) scale(14.6616 14.6617)">
<stop offset="0.5" stop-color="white"/>
<stop offset="1" stop-color="#4489B0"/>
</radialGradient>
<radialGradient id="paint35_radial_5346_143056" cx="0" cy="0" r="1" gradientUnits="userSpaceOnUse" gradientTransform="translate(50.023 7.69927) scale(17.5195)">
<stop stop-color="#0D6DFC"/>
<stop offset="1" stop-color="#0DC3FC"/>
</radialGradient>
<radialGradient id="paint36_radial_5346_143056" cx="0" cy="0" r="1" gradientUnits="userSpaceOnUse" gradientTransform="translate(44.9316 5.95773) scale(21.4967 21.4967)">
<stop stop-color="#49AEF0"/>
<stop offset="1" stop-color="#3DB3EB"/>
</radialGradient>
<radialGradient id="paint37_radial_5346_143056" cx="0" cy="0" r="1" gradientUnits="userSpaceOnUse" gradientTransform="translate(57.606 18.7564) scale(13.1714 13.1714)">
<stop offset="0.5" stop-color="white"/>
<stop offset="1" stop-color="#4BD4FF"/>
</radialGradient>
<linearGradient id="paint38_linear_5346_143056" x1="36.1093" y1="16.3895" x2="44.1861" y2="2.34832" gradientUnits="userSpaceOnUse">
<stop stop-color="#0DD1FC"/>
<stop offset="1" stop-color="#0C3CE8"/>
</linearGradient>
<radialGradient id="paint39_radial_5346_143056" cx="0" cy="0" r="1" gradientUnits="userSpaceOnUse" gradientTransform="translate(57.4817 19.2475) scale(12.3016 12.3016)">
<stop offset="0.5" stop-color="white"/>
<stop offset="1" stop-color="#4469B0"/>
</radialGradient>
<radialGradient id="paint40_radial_5346_143056" cx="0" cy="0" r="1" gradientUnits="userSpaceOnUse" gradientTransform="translate(44.3094 7.44967) scale(17.0234 17.0234)">
<stop stop-color="#FFF369"/>
<stop offset="1"/>
</radialGradient>
<linearGradient id="paint41_linear_5346_143056" x1="78.0001" y1="6.5" x2="90.0001" y2="6.5" gradientUnits="userSpaceOnUse">
<stop stop-color="#6E5DE7"/>
<stop offset="1" stop-color="#5A48DA"/>
</linearGradient>
<linearGradient id="paint42_linear_5346_143056" x1="84.625" y1="12.8647" x2="89.8913" y2="12.8647" gradientUnits="userSpaceOnUse">
<stop stop-color="#6E5DE7"/>
<stop offset="1" stop-color="#5A48DA"/>
</linearGradient>
<linearGradient id="paint43_linear_5346_143056" x1="3.05808e-05" y1="15.1612" x2="5.82722" y2="15.1612" gradientUnits="userSpaceOnUse">
<stop stop-color="#6E5DE7"/>
<stop offset="1" stop-color="#5A48DA"/>
</linearGradient>
<linearGradient id="paint44_linear_5346_143056" x1="9.87502" y1="5.64774" x2="12.7792" y2="5.64774" gradientUnits="userSpaceOnUse">
<stop stop-color="#6E5DE7"/>
<stop offset="1" stop-color="#5A48DA"/>
</linearGradient>
<linearGradient id="paint45_linear_5346_143056" x1="1.00006" y1="27.5" x2="13.0001" y2="27.5" gradientUnits="userSpaceOnUse">
<stop stop-color="#6E5DE7"/>
<stop offset="1" stop-color="#5A48DA"/>
</linearGradient>
<clipPath id="clip0_5346_143056">
<rect width="90" height="86" fill="white"/>
</clipPath>
</defs>
</svg>
