<svg width="90" height="86" viewBox="0 0 90 86" fill="none" xmlns="http://www.w3.org/2000/svg">
<g id="Level up" clip-path="url(#clip0_5280_120284)">
<g id="Group">
<path id="Vector" d="M54.1857 13.0488H40.8016C26.9272 13.0488 15.6797 23.5467 15.6797 36.4964V51.1744C15.6797 64.1241 26.9272 74.622 40.8016 74.622H54.1857C68.0602 74.622 79.3076 64.1241 79.3076 51.1744V36.4964C79.3076 23.5467 68.0602 13.0488 54.1857 13.0488Z" fill="#FDD497"/>
</g>
<rect id="Rectangle 34625753" x="14" y="10" width="66" height="66" rx="12" fill="url(#paint0_linear_5280_120284)"/>
<g id="Group_2" filter="url(#filter0_f_5280_120284)">
<path id="Vector_2" d="M47.4954 73.7114C51.1604 73.7114 54.1315 72.798 54.1315 71.6711C54.1315 70.5443 51.1604 69.6309 47.4954 69.6309C43.8304 69.6309 40.8594 70.5443 40.8594 71.6711C40.8594 72.798 43.8304 73.7114 47.4954 73.7114Z" fill="#FBF8C5"/>
</g>
<g id="Group_3" opacity="0.64">
<path id="Vector_3" d="M33.4671 29.223L34.635 31.2433C35.013 31.8971 36.0301 31.8626 36.3561 31.1848L37.3638 29.0908C37.4934 28.8216 37.7563 28.6292 38.0674 28.5761L40.4869 28.1636C41.2699 28.0302 41.549 27.1166 40.9591 26.6178L39.1366 25.0762C38.9023 24.8782 38.7877 24.5851 38.8298 24.2927L39.157 22.0175C39.263 21.2813 38.4183 20.7512 37.7277 21.1207L35.5937 22.2621C35.3196 22.4088 34.9855 22.42 34.7006 22.2924L32.4834 21.2986C31.7659 20.9772 30.9648 21.5631 31.1277 22.2903L31.6314 24.5373C31.6961 24.826 31.6046 25.1259 31.3864 25.3396L29.6885 27.0005C29.1392 27.5381 29.4887 28.4303 30.28 28.5104L32.7253 28.7577C33.0395 28.7894 33.3169 28.9634 33.4671 29.223Z" fill="url(#paint1_linear_5280_120284)"/>
</g>
<g id="Group_4" opacity="0.64">
<path id="Vector_4" d="M61.7719 55.1656C61.598 55.336 61.7086 55.6184 61.9592 55.6439L62.5169 55.7001C62.6166 55.7103 62.7042 55.7654 62.7519 55.8475L63.0181 56.3082C63.1381 56.5155 63.4601 56.5045 63.5633 56.29L63.7932 55.8124C63.8338 55.7271 63.9175 55.6662 64.0156 55.6494L64.5675 55.5553C64.8153 55.5129 64.9036 55.2236 64.7172 55.0657L64.3013 54.7143C64.2274 54.6516 64.1911 54.5586 64.2044 54.4663L64.279 53.9475C64.3126 53.714 64.0449 53.5462 63.8264 53.6633L63.3397 53.9234C63.253 53.9701 63.147 53.9737 63.0568 53.9332L62.5514 53.7067C62.3239 53.6049 62.0702 53.7902 62.1218 54.0204L62.2367 54.533C62.2574 54.6242 62.2281 54.7194 62.1593 54.7869L61.7719 55.1656Z" fill="url(#paint2_linear_5280_120284)"/>
</g>
<g id="Group_5" opacity="0.64">
<path id="Vector_5" d="M33.1618 54.4517C33.1036 54.5101 33.0187 54.5378 32.9343 54.5265L32.4614 54.4619C32.2487 54.4331 32.0928 54.6444 32.1975 54.8191L32.4305 55.2087C32.4719 55.2784 32.4743 55.3623 32.4363 55.4338L32.2249 55.8337C32.1295 56.0135 32.2964 56.2167 32.5071 56.1781L32.9761 56.0916C33.0598 56.0763 33.1462 56.1004 33.2072 56.1558L33.5492 56.4674C33.7028 56.6075 33.9619 56.5221 33.9873 56.3233L34.0444 55.8804C34.0546 55.8012 34.1058 55.7319 34.1812 55.695L34.6045 55.4875C34.7945 55.3944 34.7879 55.1383 34.5928 55.0541L34.1589 54.8665C34.0815 54.8333 34.0268 54.7662 34.0124 54.6878L33.9318 54.2482C33.8959 54.0508 33.6324 53.9775 33.4866 54.1245L33.1618 54.4517Z" fill="url(#paint3_linear_5280_120284)"/>
</g>
<g id="Group_6" opacity="0.64">
<path id="Vector_6" d="M56.6522 63.5221L56.4892 63.2503C56.4157 63.1284 56.2246 63.1375 56.1652 63.2663L56.0335 63.552C56.01 63.603 55.9612 63.6399 55.9025 63.6508L55.5754 63.7118C55.4284 63.7391 55.3787 63.9117 55.4913 64.004L55.7423 64.2094C55.7868 64.2459 55.8095 64.301 55.8025 64.356L55.7634 64.665C55.7458 64.804 55.9064 64.9015 56.035 64.8299L56.3219 64.6713C56.3731 64.6428 56.4361 64.6395 56.49 64.6629L56.7929 64.7931C56.929 64.8518 57.0779 64.7391 57.0451 64.6027L56.9716 64.2991C56.9583 64.2448 56.9747 64.1882 57.015 64.1474L57.2417 63.9186C57.3433 63.8161 57.2745 63.649 57.1252 63.6362L56.7933 63.6074C56.7339 63.6023 56.6811 63.5706 56.6522 63.5221Z" fill="url(#paint4_linear_5280_120284)"/>
</g>
<path id="Vector_7" d="M83.9515 0L82.6829 5.17885L78 6.55323L82.6829 7.92696L83.9515 13L85.3175 7.92696L90 6.55323L85.3175 5.17885L83.9515 0Z" fill="url(#paint5_linear_5280_120284)"/>
<path id="Vector_8" d="M87.202 15.2705L87.7622 13.2833L89.8913 12.8644L87.7622 12.4461L87.202 10.459L86.7541 12.4461L84.625 12.8644L86.7541 13.2833L87.202 15.2705Z" fill="url(#paint6_linear_5280_120284)"/>
<path id="Vector_9" d="M5.82718 15.2135L3.47411 14.6907L2.91399 12.4941L2.35346 14.6907L0 15.2135L2.35346 15.7367L2.91399 17.8282L3.47411 15.7367L5.82718 15.2135Z" fill="url(#paint7_linear_5280_120284)"/>
<path id="Vector_10" d="M12.7792 5.64756C12.7792 4.89931 12.1292 4.29297 11.3275 4.29297C10.5258 4.29297 9.875 4.89931 9.875 5.64756C9.875 6.39618 10.5258 7.00252 11.3275 7.00252C12.1292 7.00252 12.7792 6.39618 12.7792 5.64756Z" fill="url(#paint8_linear_5280_120284)"/>
<path id="Vector_11" d="M5.83612 26.3526L1 27.6913L5.83612 28.6474L6.91107 34L8.16389 28.6474L13 27.6913L8.16389 26.3526L6.91107 21L5.83612 26.3526Z" fill="url(#paint9_linear_5280_120284)"/>
<path id="Vector_12" d="M74.284 36.7728C74.6984 36.9363 75.1338 36.5849 75.0205 36.1787L74.7707 35.2812C74.7253 35.12 74.7683 34.9481 74.8856 34.8219L75.5356 34.121C75.8304 33.8033 75.6068 33.3086 75.1577 33.2834L74.166 33.228C73.9878 33.2181 73.8259 33.1269 73.7337 32.9843L73.2201 32.1904C72.9875 31.8307 72.4145 31.8759 72.2499 32.267L71.8872 33.1302C71.8219 33.2856 71.6789 33.4009 71.5049 33.4389L70.5375 33.649C70.0989 33.7442 69.968 34.2674 70.3159 34.534L71.0832 35.1228C71.2211 35.2287 71.2946 35.3914 71.2794 35.5574L71.195 36.4813C71.1566 36.8998 71.6488 37.1774 72.0279 36.9512L72.8652 36.4523C73.0157 36.3626 73.2041 36.3476 73.3686 36.4125L74.284 36.7728Z" fill="url(#paint10_linear_5280_120284)"/>
<g id="&#231;&#187;&#132; 49 1" clip-path="url(#clip1_5280_120284)">
<path id="Vector_13" d="M39.4364 45.9064L45.8773 35.8301C46.1106 35.465 46.1171 34.9994 45.8948 34.6278C45.672 34.2562 45.2584 34.0428 44.8264 34.0756L35.5416 34.7929C34.6015 34.8655 33.7643 35.3582 33.2441 36.1447L29.3475 42.0383C28.9532 42.6347 28.8904 43.3812 29.1798 44.0351C29.4689 44.689 30.0634 45.1444 30.77 45.2541L38.2987 46.4201C38.3574 46.429 38.4159 46.4336 38.474 46.4336C38.8594 46.4336 39.2243 46.2379 39.4364 45.9064Z" fill="url(#paint11_linear_5280_120284)"/>
<path id="Vector_14" d="M46.0898 52.5641C45.7082 52.8078 45.5067 53.2541 45.576 53.7016L46.7419 61.2303C46.8513 61.9368 47.307 62.5316 47.9611 62.8206C48.233 62.941 48.521 63.0002 48.8074 63.0002C49.2097 63.0002 49.6093 62.8829 49.9577 62.6531L55.8512 58.7562C56.6379 58.2364 57.1306 57.399 57.203 56.4589L57.9203 47.1738C57.9537 46.742 57.7399 46.3282 57.3681 46.1056C56.9965 45.8831 56.5309 45.8899 56.1658 46.1232L46.0898 52.5641Z" fill="url(#paint12_linear_5280_120284)"/>
<path id="Vector_15" d="M67.9542 25.9374C67.8984 24.9156 67.084 24.1013 66.0624 24.0456C63.0809 23.8829 56.7241 23.9982 50.7086 27.1097C45.2911 29.9119 37.5899 37.2723 36.0347 46.5738C35.9285 47.208 36.1413 47.8541 36.5961 48.3089L43.6908 55.4039C44.1456 55.8586 44.7917 56.0714 45.4261 55.9653C54.7276 54.41 62.0877 46.7088 64.8898 41.2913C68.0014 35.2755 68.1165 28.9187 67.9542 25.9374Z" fill="url(#paint13_linear_5280_120284)"/>
<path id="Vector_16" d="M43.6881 55.4034C44.1429 55.8582 44.789 56.0708 45.4234 55.9648C54.7249 54.4096 62.085 46.7084 64.8872 41.2908C67.9987 35.2753 68.1138 28.9183 67.9516 25.9369C67.9236 25.426 67.7059 24.9671 67.3678 24.6289L40.1406 51.8559L43.6881 55.4034Z" fill="url(#paint14_linear_5280_120284)"/>
<path id="Vector_17" fill-rule="evenodd" clip-rule="evenodd" d="M61.4257 36.2843C61.4257 37.8102 60.8313 39.245 59.7523 40.324C58.6387 41.4377 57.1755 41.9943 55.7128 41.9945C54.2497 41.9947 52.7872 41.4379 51.6733 40.324C50.5941 39.245 50 37.8102 50 36.2843C50 34.7585 50.5941 33.3237 51.6733 32.2447C53.9006 30.0174 57.5248 30.0174 59.7523 32.2447C60.8313 33.3237 61.4257 34.7585 61.4257 36.2843Z" fill="url(#paint15_linear_5280_120284)" fill-opacity="0.5"/>
<path id="Vector_18" d="M43.6908 55.4037C44.1456 55.8585 44.7917 56.0711 45.4261 55.9651C47.45 55.6267 49.3818 54.997 51.195 54.1635L37.8362 40.8047C37.0027 42.6178 36.3731 44.5498 36.0347 46.5737C35.9285 47.2079 36.1413 47.854 36.5961 48.3087L43.6908 55.4037Z" fill="white"/>
<path id="Vector_19" d="M34.7042 52.0754C35.1503 51.6293 35.1503 50.9059 34.7042 50.4598C34.2581 50.0134 33.5347 50.0134 33.0883 50.4598L29.3582 54.1901C28.9119 54.6362 28.9119 55.3597 29.3582 55.8058C29.5811 56.029 29.8736 56.1405 30.1659 56.1405C30.4582 56.1405 30.7507 56.029 30.9739 55.8058L34.7042 52.0754Z" fill="url(#paint16_linear_5280_120284)"/>
<path id="Vector_20" d="M29.3347 61.0494C28.8884 61.4956 28.8884 62.2189 29.3347 62.6653C29.5577 62.8884 29.8502 63.0001 30.1427 63.0001C30.435 63.0001 30.7275 62.8884 30.9504 62.665L38.1223 55.4934C38.5686 55.0471 38.5686 54.3237 38.1223 53.8775C37.6762 53.4314 36.9527 53.4314 36.5064 53.8775L29.3347 61.0494Z" fill="white"/>
<path id="Vector_21" d="M36.194 61.0257C35.7478 61.4718 35.7478 62.1951 36.194 62.6415C36.4171 62.8649 36.7096 62.9762 37.0019 62.9762C37.2942 62.9762 37.5867 62.8649 37.8098 62.6415L41.5402 58.9112C41.9863 58.4651 41.9863 57.7416 41.5402 57.2955C41.0939 56.8494 40.3704 56.8494 39.9243 57.2955L36.194 61.0257Z" fill="url(#paint17_linear_5280_120284)"/>
<path id="Vector_22" d="M30.9516 62.6644L38.1235 55.4929C38.5698 55.0465 38.5698 54.3231 38.1235 53.877L29.3359 62.6648C29.5589 62.8878 29.8514 62.9995 30.1439 62.9995C30.4362 62.9995 30.7287 62.8878 30.9516 62.6644Z" fill="url(#paint18_linear_5280_120284)"/>
<path id="Vector_23" d="M45.4234 55.9654C47.4473 55.6269 49.3791 54.9973 51.1923 54.1638L44.513 47.4844L40.1406 51.8565L43.6881 55.404C44.1429 55.8588 44.789 56.0713 45.4234 55.9654Z" fill="url(#paint19_linear_5280_120284)"/>
<path id="Vector_24" d="M59.7587 40.3234C60.8377 39.2444 61.4321 37.8097 61.4321 36.2837C61.4321 34.7579 60.8377 33.3231 59.7587 32.2441L51.6797 40.3234C52.7936 41.4373 54.2561 41.9941 55.7192 41.9939C57.1819 41.9937 58.6451 41.4369 59.7587 40.3234Z" fill="url(#paint20_linear_5280_120284)"/>
<path id="Vector_25" d="M52.2891 36.2834C52.2891 37.199 52.6457 38.0598 53.2931 38.7072C54.6295 40.0436 56.8042 40.0436 58.1408 38.7072C58.7882 38.0598 59.1446 37.199 59.1446 36.2834C59.1446 35.3677 58.7882 34.5071 58.1408 33.8597C57.4724 33.1915 56.5947 32.8574 55.717 32.8574C54.8392 32.8574 53.9613 33.1915 53.2931 33.8597C52.6457 34.5071 52.2891 35.3679 52.2891 36.2834Z" fill="white"/>
<path id="Vector_26" d="M58.1365 38.7088C58.7839 38.0614 59.1406 37.2006 59.1406 36.285C59.1406 35.3695 58.7842 34.5087 58.1365 33.8613L53.2891 38.7088C54.6255 40.0452 56.8001 40.0454 58.1365 38.7088Z" fill="white"/>
</g>
</g>
<defs>
<filter id="filter0_f_5280_120284" x="28.8594" y="57.6309" width="37.2734" height="28.0801" filterUnits="userSpaceOnUse" color-interpolation-filters="sRGB">
<feFlood flood-opacity="0" result="BackgroundImageFix"/>
<feBlend mode="normal" in="SourceGraphic" in2="BackgroundImageFix" result="shape"/>
<feGaussianBlur stdDeviation="6" result="effect1_foregroundBlur_5280_120284"/>
</filter>
<linearGradient id="paint0_linear_5280_120284" x1="25.9336" y1="15.1121" x2="69.2659" y2="72.4758" gradientUnits="userSpaceOnUse">
<stop stop-color="#FECC7C"/>
<stop offset="1" stop-color="#FF9535"/>
</linearGradient>
<linearGradient id="paint1_linear_5280_120284" x1="-362.466" y1="-65.5928" x2="-348.382" y2="-67.407" gradientUnits="userSpaceOnUse">
<stop offset="0.0793652" stop-color="#E9F3FF" stop-opacity="0"/>
<stop offset="1" stop-color="white"/>
</linearGradient>
<linearGradient id="paint2_linear_5280_120284" x1="179.985" y1="72.5324" x2="181.788" y2="73.6911" gradientUnits="userSpaceOnUse">
<stop offset="9.53674e-08" stop-color="#E9F3FF" stop-opacity="0"/>
<stop offset="1" stop-color="white"/>
</linearGradient>
<linearGradient id="paint3_linear_5280_120284" x1="153.875" y1="82.989" x2="153.361" y2="85.2852" gradientUnits="userSpaceOnUse">
<stop offset="9.53674e-08" stop-color="#E9F3FF" stop-opacity="0"/>
<stop offset="1" stop-color="white"/>
</linearGradient>
<linearGradient id="paint4_linear_5280_120284" x1="178.181" y1="83.4618" x2="178.974" y2="84.8782" gradientUnits="userSpaceOnUse">
<stop offset="9.53674e-08" stop-color="#E9F3FF" stop-opacity="0"/>
<stop offset="1" stop-color="white"/>
</linearGradient>
<linearGradient id="paint5_linear_5280_120284" x1="78.0001" y1="6.5" x2="90.0001" y2="6.5" gradientUnits="userSpaceOnUse">
<stop stop-color="#FECC7C"/>
<stop offset="1" stop-color="#FF9535"/>
</linearGradient>
<linearGradient id="paint6_linear_5280_120284" x1="84.6248" y1="12.8647" x2="89.8914" y2="12.8647" gradientUnits="userSpaceOnUse">
<stop stop-color="#FECC7C"/>
<stop offset="1" stop-color="#FF9535"/>
</linearGradient>
<linearGradient id="paint7_linear_5280_120284" x1="0.000143143" y1="15.1612" x2="5.82702" y2="15.1612" gradientUnits="userSpaceOnUse">
<stop stop-color="#FECC7C"/>
<stop offset="1" stop-color="#FF9535"/>
</linearGradient>
<linearGradient id="paint8_linear_5280_120284" x1="9.87509" y1="5.64757" x2="12.7791" y2="5.64757" gradientUnits="userSpaceOnUse">
<stop stop-color="#FECC7C"/>
<stop offset="1" stop-color="#FF9535"/>
</linearGradient>
<linearGradient id="paint9_linear_5280_120284" x1="0.99996" y1="27.5" x2="13.0001" y2="27.5" gradientUnits="userSpaceOnUse">
<stop stop-color="#FECC7C"/>
<stop offset="1" stop-color="#FF9535"/>
</linearGradient>
<linearGradient id="paint10_linear_5280_120284" x1="179.978" y1="51.5034" x2="184.076" y2="50.1089" gradientUnits="userSpaceOnUse">
<stop offset="9.53674e-08" stop-color="#E9F3FF" stop-opacity="0"/>
<stop offset="1" stop-color="white"/>
</linearGradient>
<linearGradient id="paint11_linear_5280_120284" x1="33.1784" y1="34.661" x2="35.6361" y2="51.6473" gradientUnits="userSpaceOnUse">
<stop offset="0.111111" stop-color="white"/>
<stop offset="1" stop-color="#FEC472"/>
</linearGradient>
<linearGradient id="paint12_linear_5280_120284" x1="48.5906" y1="46.7557" x2="54.6667" y2="64.4416" gradientUnits="userSpaceOnUse">
<stop offset="0.111111" stop-color="white"/>
<stop offset="1" stop-color="#FEC472"/>
</linearGradient>
<linearGradient id="paint13_linear_5280_120284" x1="43.8447" y1="25.5236" x2="52.4622" y2="68.6856" gradientUnits="userSpaceOnUse">
<stop offset="0.111111" stop-color="white"/>
<stop offset="1" stop-color="#FEC472"/>
</linearGradient>
<linearGradient id="paint14_linear_5280_120284" x1="46.9645" y1="26.1225" x2="56.4509" y2="53.3851" gradientUnits="userSpaceOnUse">
<stop offset="0.111111" stop-color="white"/>
<stop offset="1" stop-color="#FEC472"/>
</linearGradient>
<linearGradient id="paint15_linear_5280_120284" x1="58.998" y1="28" x2="45.498" y2="40.5" gradientUnits="userSpaceOnUse">
<stop stop-color="white"/>
<stop offset="1" stop-color="#FFD12F"/>
</linearGradient>
<linearGradient id="paint16_linear_5280_120284" x1="30.497" y1="50.4115" x2="32.1174" y2="58.5273" gradientUnits="userSpaceOnUse">
<stop offset="0.111111" stop-color="white"/>
<stop offset="1" stop-color="#FEC472"/>
</linearGradient>
<linearGradient id="paint17_linear_5280_120284" x1="37.3329" y1="57.2474" x2="38.9532" y2="65.363" gradientUnits="userSpaceOnUse">
<stop offset="0.111111" stop-color="white"/>
<stop offset="1" stop-color="#FEC472"/>
</linearGradient>
<linearGradient id="paint18_linear_5280_120284" x1="31.5706" y1="54.3114" x2="34.0279" y2="66.619" gradientUnits="userSpaceOnUse">
<stop offset="0.111111" stop-color="white"/>
<stop offset="1" stop-color="#FEC472"/>
</linearGradient>
<linearGradient id="paint19_linear_5280_120284" x1="42.8479" y1="47.8895" x2="45.8004" y2="56.885" gradientUnits="userSpaceOnUse">
<stop offset="0.111111" stop-color="white"/>
<stop offset="1" stop-color="#FEC472"/>
</linearGradient>
<linearGradient id="paint20_linear_5280_120284" x1="70.0039" y1="29.4993" x2="57.521" y2="39.064" gradientUnits="userSpaceOnUse">
<stop offset="0.111111" stop-color="white"/>
<stop offset="1" stop-color="#FEC472"/>
</linearGradient>
<clipPath id="clip0_5280_120284">
<rect width="90" height="86" fill="white"/>
</clipPath>
<clipPath id="clip1_5280_120284">
<rect width="39" height="39" fill="white" transform="translate(29 24)"/>
</clipPath>
</defs>
</svg>
