<svg width="301" height="42" viewBox="0 0 301 42" fill="none" xmlns="http://www.w3.org/2000/svg">
<g id="&#232;&#131;&#140;&#230;&#153;&#175;">
<g id="Group 47">
<g id="Group 45">
<g id="Group 42">
<rect id="Rectangle 1199" width="301" height="42" rx="6" fill="#56647D"/>
</g>
</g>
<g id="Mask Group">
<mask id="mask0_5280_127932" style="mask-type:alpha" maskUnits="userSpaceOnUse" x="0" y="0" width="301" height="42">
<path id="Rectangle 1199_2" d="M0 6C0 2.68629 2.68629 0 6 0H295C298.314 0 301 2.68629 301 6V36C301 39.3137 298.314 42 295 42H6.00001C2.6863 42 0 39.3137 0 36V6Z" fill="#56647D"/>
</mask>
<g mask="url(#mask0_5280_127932)">
<g id="Group 46">
<path id="Star 9" d="M14.7144 24.539C17.2609 22.2559 21.2859 24.4608 20.4754 27.6949V27.6949C20.1124 29.1432 20.7889 30.6319 22.1335 31.3281L22.2732 31.4004C25.2314 32.9323 24.1919 37.2747 20.8047 37.5346V37.5346C19.2504 37.6538 17.9549 38.7769 17.663 40.2531V40.2531C17.0269 43.4713 12.4459 44.0472 11.1366 41.0662L11.0361 40.8375C10.4394 39.4788 8.97701 38.6777 7.4385 38.8666L7.17955 38.8985C3.80401 39.3131 2.03916 35.2609 4.65843 33.129V33.129C5.85988 32.1511 6.23715 30.525 5.56883 29.1882V29.1882C4.11248 26.275 7.55614 23.2496 10.4334 24.9145L10.5693 24.9931C11.877 25.7498 13.574 25.5614 14.7144 24.539V24.539Z" fill="#4D5A70"/>
<path id="Star 10" d="M26.3464 -2.89862C26.3586 -6.25722 30.7945 -7.49794 32.7248 -4.6827V-4.6827C33.5811 -3.43385 35.1674 -2.86484 36.6034 -3.30233L36.8553 -3.37908C40.0131 -4.34115 42.5807 -0.604068 40.4667 1.87718V1.87718C39.4896 3.0241 39.4624 4.70696 40.3949 5.93367V5.93367C42.4133 8.58896 39.7873 12.1517 36.639 11.0079L36.2299 10.8592C34.7913 10.3366 33.1966 10.7826 32.2868 11.9621L32.0281 12.2976C30.0372 14.8788 25.7943 13.2374 25.972 9.96783V9.96783C26.054 8.45733 25.0692 7.05755 23.5926 6.59695V6.59695C20.3981 5.60049 20.4188 1.13945 23.6216 0.32242L23.8772 0.257242C25.3336 -0.11429 26.3409 -1.40874 26.3464 -2.89862V-2.89862Z" fill="#4D5A70"/>
<path id="Star 14" d="M198.058 -0.806725C200.605 -3.08981 204.63 -0.88487 203.819 2.34922V2.34922C203.456 3.79754 204.133 5.28615 205.477 5.98239L205.617 6.05473C208.575 7.58656 207.536 11.929 204.148 12.1889V12.1889C202.594 12.3081 201.299 13.4312 201.007 14.9074V14.9074C200.371 18.1256 195.79 18.7015 194.48 15.7205L194.38 15.4918C193.783 14.1331 192.321 13.332 190.782 13.5209L190.523 13.5528C187.148 13.9674 185.383 9.91519 188.002 7.78331V7.78331C189.204 6.80543 189.581 5.17934 188.913 3.84248V3.84248C187.456 0.929268 190.9 -2.09614 193.777 -0.431242L193.913 -0.352614C195.221 0.404104 196.918 0.215714 198.058 -0.806725V-0.806725Z" fill="#4D5A70"/>
<path id="Star 15" d="M226.653 23.894C227.925 19.8518 233.692 19.8518 234.964 23.894V23.894C235.526 25.679 237.205 26.8951 239.076 26.8524L239.467 26.8435C243.581 26.7497 245.245 32.1031 241.803 34.3578V34.3578C240.207 35.4036 239.549 37.4239 240.212 39.2133V39.2133C241.643 43.0734 237.216 46.4881 233.883 44.0721L233.365 43.6968C231.84 42.5914 229.777 42.5914 228.252 43.6968L227.734 44.0721C224.401 46.4881 219.974 43.0734 221.405 39.2133V39.2133C222.068 37.4239 221.41 35.4036 219.814 34.3578V34.3578C216.372 32.1031 218.036 26.7497 222.15 26.8435L222.541 26.8524C224.412 26.8951 226.091 25.679 226.653 23.894V23.894Z" fill="#4D5A70"/>
<path id="Star 16" d="M283.249 5.77938C282.235 1.73678 287.267 -1.0194 290.45 1.83446V1.83446C291.875 3.11251 293.996 3.34799 295.631 2.40209L295.801 2.30381C299.398 0.222693 303.702 4.00445 301.882 7.64596V7.64596C301.046 9.31704 301.518 11.3496 303.02 12.572V12.572C306.294 15.2369 304.088 20.3021 299.868 19.7838L299.545 19.744C297.621 19.5078 295.794 20.5092 295.048 22.2076L294.922 22.4934C293.285 26.2198 287.559 25.4999 286.764 21.4771V21.4771C286.399 19.6319 284.78 18.228 282.837 18.079V18.079C278.603 17.7541 277.304 12.3261 281.001 10.4113L281.176 10.3208C282.857 9.45055 283.702 7.58979 283.249 5.77938V5.77938Z" fill="#4D5A70"/>
<path id="Star 11" d="M71.0235 22.9071C71.0409 18.1609 77.3094 16.4076 80.0373 20.3859V20.3859C81.2474 22.1508 83.489 22.9549 85.5183 22.3366L85.8743 22.2282C90.3367 20.8686 93.9653 26.1497 90.9779 29.6561V29.6561C89.597 31.2769 89.5586 33.655 90.8763 35.3886V35.3886C93.7287 39.1409 90.0176 44.1756 85.5687 42.5592L84.9905 42.3492C82.9575 41.6105 80.704 42.2408 79.4183 43.9077L79.0527 44.3818C76.2392 48.0295 70.2433 45.7099 70.4944 41.0895V41.0895C70.6104 38.9549 69.2186 36.9768 67.132 36.3259V36.3259C62.6177 34.9177 62.6469 28.6136 67.173 27.459L67.5341 27.3669C69.5923 26.8418 71.0158 25.0126 71.0235 22.9071V22.9071Z" fill="#4D5A70"/>
<path id="Star 12" d="M129.512 -11.2105C131.98 -15.3488 138.346 -13.9675 138.672 -9.2227V-9.2227C138.817 -7.12148 140.353 -5.37938 142.435 -4.97713L142.827 -4.90141C147.407 -4.01688 147.836 2.27633 143.43 3.94329V3.94329C141.391 4.71481 140.13 6.77574 140.385 8.90206V8.90206C140.937 13.4987 135.121 16.1797 132.081 12.7099L131.657 12.2258C130.267 10.6395 127.983 10.1439 126.004 10.9992L125.401 11.2602C121.073 13.131 117.064 8.31802 119.666 4.4058V4.4058C120.87 2.59608 120.679 0.22001 119.196 -1.3158V-1.3158C115.992 -4.63413 119.261 -10.1247 123.791 -9.03245L124.179 -8.93895C126.239 -8.44224 128.419 -9.37794 129.512 -11.2105V-11.2105Z" fill="#4D5A70"/>
<path id="Star 13" d="M166.242 20.7117C167.521 18.5664 170.821 19.2825 170.991 21.7423V21.7423C171.066 22.8316 171.861 23.7347 172.941 23.9432L173.144 23.9825C175.519 24.441 175.741 27.7035 173.457 28.5677V28.5677C172.4 28.9677 171.746 30.0361 171.879 31.1384V31.1384C172.164 33.5214 169.15 34.9112 167.573 33.1125L167.353 32.8615C166.633 32.0391 165.449 31.7822 164.423 32.2256L164.11 32.3609C161.867 33.3308 159.788 30.8356 161.137 28.8075V28.8075C161.761 27.8693 161.662 26.6375 160.894 25.8413V25.8413C159.233 24.1211 160.928 21.2747 163.276 21.8409L163.477 21.8894C164.545 22.1469 165.675 21.6618 166.242 20.7117V20.7117Z" fill="#4D5A70"/>
</g>
</g>
</g>
</g>
</g>
</svg>
