<svg width="32" height="28" viewBox="0 0 32 28" fill="none" xmlns="http://www.w3.org/2000/svg">
<g id="Wallet">
<path id="Vector" d="M32.0031 12.305V15.6979C32.0031 16.6038 31.2992 17.345 30.4032 17.3779H27.2673C25.5394 17.3779 23.9555 16.0768 23.8115 14.2979C23.7155 13.2603 24.0995 12.2885 24.7714 11.6132C25.3634 10.9874 26.1794 10.625 27.0753 10.625H30.4032C31.2992 10.6579 32.0031 11.3991 32.0031 12.305Z" fill="white"/>
<path id="Vector_2" d="M29.5508 19.8471H27.2629C24.223 19.8471 21.6631 17.4918 21.4071 14.4941C21.2631 12.7812 21.8711 11.0682 23.087 9.84941C24.111 8.76235 25.5349 8.15294 27.0709 8.15294H29.5508C30.0147 8.15294 30.3987 7.75765 30.3507 7.28C29.9988 3.27765 27.4229 0.543529 23.599 0.0823529C23.215 0.0164705 22.8151 0 22.3991 0H7.99967C7.55169 0 7.1197 0.0329411 6.70372 0.0988234C2.62389 0.625882 0 3.75529 0 8.23529V19.7647C0 24.3106 3.58385 28 7.99967 28H22.3991C26.8789 28 29.9668 25.1176 30.3507 20.72C30.3987 20.2424 30.0147 19.8471 29.5508 19.8471ZM17.5993 10.2941H7.99967C7.34369 10.2941 6.79972 9.73412 6.79972 9.05882C6.79972 8.38353 7.34369 7.82353 7.99967 7.82353H17.5993C18.2552 7.82353 18.7992 8.38353 18.7992 9.05882C18.7992 9.73412 18.2552 10.2941 17.5993 10.2941Z" fill="white"/>
</g>
</svg>
